<svg width="168" height="145" viewBox="0 0 168 145" fill="none" xmlns="http://www.w3.org/2000/svg">
<g clip-path="url(#clip0)">
<path opacity="0.57" d="M84.2 206.696C130.261 206.696 167.6 169.469 167.6 123.548C167.6 77.6266 130.261 40.4 84.2 40.4C38.1395 40.4 0.800003 77.6266 0.800003 123.548C0.800003 169.469 38.1395 206.696 84.2 206.696Z" fill="url(#paint0_radial)"/>
<path opacity="0.57" d="M84.2 194.368C123.431 194.368 155.235 162.661 155.235 123.548C155.235 84.4352 123.431 52.728 84.2 52.728C44.9687 52.728 13.1654 84.4352 13.1654 123.548C13.1654 162.661 44.9687 194.368 84.2 194.368Z" fill="url(#paint1_radial)"/>
<path d="M84.2 183.447C117.382 183.447 144.28 156.629 144.28 123.548C144.28 90.4668 117.382 63.6492 84.2 63.6492C51.0185 63.6492 24.1196 90.4668 24.1196 123.548C24.1196 156.629 51.0185 183.447 84.2 183.447Z" fill="url(#paint2_linear)"/>
<path d="M34.322 90.531C33.4775 93.2641 32.5522 96.3548 33.2462 99.2148C33.8708 101.787 35.9298 103.47 38.035 104.9C39.4925 105.892 41.7828 106.872 42.4075 108.683C42.8123 109.848 42.3149 111.162 42.234 112.339C42.072 114.714 43.1246 116.686 45.253 117.805C47.3236 118.9 49.7527 119.004 51.962 119.731C54.021 120.411 55.5248 121.957 57.4912 122.752C60.0244 123.779 61.1696 120.607 63.7491 121.103C64.1655 121.184 67.0342 121.576 67.3465 121.864C67.52 122.026 66.5368 123.813 66.664 123.917C67.3696 124.482 69.2204 124.217 70.1226 124.159C73.2458 123.975 77.7802 123.594 78.4626 127.665C78.7634 129.487 77.9074 131.148 77.6761 132.912C77.3753 135.288 79.4112 135.922 81.1115 136.879C85.1254 139.14 84.7205 144.883 84.547 148.827C84.4198 151.664 84.6164 154.42 84.7552 157.245C84.8709 159.817 84.7437 162.781 85.7732 165.191C86.7217 167.394 88.6303 169.055 89.4631 171.326C90.3075 173.61 89.6598 176.055 90.0993 178.396C93.6736 177.277 92.968 170.381 93.1415 167.532C93.2919 165.076 94.2057 162.643 95.9177 160.844C97.4677 159.218 100.163 158.249 100.926 156.023C101.32 154.87 101.458 153.636 101.863 152.483C102.268 151.318 102.927 150.28 103.61 149.265C104.466 147.985 105.357 146.751 105.761 145.24C106.143 143.799 105.97 142.346 106.132 140.881C106.444 138.113 108.295 136.879 110.111 135.023C111.071 134.042 111.915 132.785 111.025 131.436C110.365 130.444 109.023 130.052 107.901 129.879C104.859 129.406 106.525 123.744 103.471 123.56C101.875 123.467 97.9998 125.105 96.6001 124.401C95.4434 123.825 93.9397 126.016 92.7482 125.532C91.5105 125.036 89.8795 125.301 88.8154 124.482C87.8553 123.756 86.2127 124.736 85.6575 123.721C85.0444 122.591 84.3619 123.006 83.3672 122.798C82.8582 122.695 82.4071 122.441 81.9675 122.164C81.0769 121.588 80.3597 120.803 79.8854 119.858C78.8559 117.77 78.9253 114.91 79.7813 112.777C80.6373 110.655 82.4996 109.317 84.1537 107.841C86.4441 105.8 88.8732 104.116 89.1045 101.095C89.3359 98.1538 82.8235 96.251 84.0381 93.5178C85.2758 90.727 92.2393 86.7599 93.5811 84.0267C94.3676 82.4122 95.0848 80.7746 95.8483 79.1486C96.5423 77.6609 97.4214 76.2194 97.8841 74.6279C99.1912 70.1533 96.7852 66.7282 93.4307 64.3411C88.4568 63.5684 83.3209 63.4185 78.0809 63.949C59.7237 65.8172 44.1426 75.7465 34.5186 89.8506C34.4608 90.0812 34.3798 90.3003 34.322 90.531Z" fill="#8DC6BB"/>
<path opacity="0.32" d="M107.901 129.879C105.715 129.545 105.958 126.523 105.137 124.782C103.066 124.609 100.972 124.586 98.8904 124.724C97.3288 124.828 95.7904 125.001 94.2403 125.209C93.7198 125.509 93.2109 125.728 92.7482 125.543C92.6788 125.508 92.5978 125.485 92.5284 125.462C91.5567 125.612 90.5735 125.762 89.6019 125.912C87.2537 126.27 84.5239 126.662 82.3376 125.497C78.4163 123.421 78.6014 118.947 79.0988 115.141C79.3302 113.388 79.9895 111.012 79.3649 109.294C78.879 107.956 77.0398 107.576 75.8484 107.126C74.2058 106.515 72.0659 105.8 71.3256 104.047C70.701 102.548 71.5107 100.968 72.17 99.6184C73.1417 97.6464 74.4256 95.2246 73.3383 93.0335C72.4823 91.3036 70.5969 90.1043 69.1163 88.951C66.2707 86.7253 62.5576 84.1074 63.7028 80.0019C64.8132 75.9887 68.2024 72.6212 67.7166 68.2044C67.6356 67.4317 67.4043 66.7513 67.0689 66.1401C53.5352 70.1418 42.153 78.6872 34.5186 89.8736C34.4492 90.0927 34.3798 90.3234 34.3104 90.5425C33.4659 93.2756 32.5406 96.3663 33.2346 99.2263C33.8592 101.798 35.9182 103.482 38.0234 104.912C39.4809 105.904 41.7712 106.884 42.3959 108.694C42.8007 109.859 42.3033 111.174 42.2224 112.35C42.0604 114.726 43.113 116.698 45.2414 117.816C47.312 118.912 49.7411 119.016 51.9504 119.742C54.0094 120.423 55.5132 121.968 57.4796 122.764C60.0128 123.79 61.158 120.619 63.7375 121.115C64.1539 121.195 67.0226 121.588 67.3349 121.876C67.5084 122.037 66.5252 123.825 66.6524 123.929C67.358 124.494 69.2088 124.228 70.111 124.171C73.2342 123.986 77.7686 123.606 78.451 127.677C78.7518 129.499 77.8958 131.159 77.6645 132.924C77.3637 135.299 79.3996 135.934 81.0999 136.891C85.1254 139.14 84.7205 144.883 84.547 148.827C84.4197 151.664 84.6164 154.42 84.7552 157.245C84.8709 159.817 84.7436 162.781 85.7731 165.191C86.7216 167.394 88.6302 169.055 89.4631 171.326C90.3075 173.61 89.6597 176.055 90.0993 178.396C93.6736 177.277 92.9679 170.381 93.1415 167.532C93.2918 165.076 94.2056 162.643 95.9176 160.844C97.4676 159.217 100.163 158.249 100.926 156.023C101.32 154.87 101.458 153.636 101.863 152.483C102.268 151.318 102.927 150.28 103.61 149.265C104.466 147.985 105.356 146.751 105.761 145.24C106.143 143.799 105.97 142.346 106.131 140.881C106.444 138.113 108.295 136.879 110.111 135.023C111.071 134.042 111.915 132.785 111.024 131.436C110.365 130.444 109.012 130.052 107.901 129.879Z" fill="#8DC6BB"/>
<path d="M127.612 83.381C128.399 85.5952 129.613 87.6133 130.168 89.9198C131.233 94.3136 128.075 96.9545 125.819 100.241C125.229 101.095 124.743 102.029 124.558 103.055C124.281 104.589 124.928 105.604 125.507 106.953C126.062 108.268 125.9 109.294 125.738 110.666C125.565 112.143 126.663 112.869 127.774 113.584C128.699 114.172 129.625 114.737 130.33 115.591C130.689 116.017 131.001 116.502 131.221 117.009C131.452 117.563 131.487 118.324 131.846 118.808C132.725 120.019 134.818 119.35 136.021 119.143C137.167 118.947 138.346 118.854 139.515 118.947C141.18 119.074 142.707 119.627 144.188 120.319C144.13 119.373 144.061 118.428 143.968 117.482C142.534 103.505 136.392 91.1307 127.253 81.801C127.3 82.2739 127.415 82.8043 127.612 83.381Z" fill="#8DC6BB"/>
<path opacity="0.32" d="M143.968 117.459C143.251 110.482 141.365 103.92 138.52 97.9232C138.265 100.391 137.433 102.755 135.605 104.566C134.425 105.731 132.725 106.25 131.591 107.403C130.145 108.89 132.1 110.551 132.875 111.773C134.228 113.895 132.852 115.487 131.094 116.721C131.14 116.802 131.175 116.894 131.221 116.975C131.452 117.528 131.487 118.289 131.846 118.774C132.725 119.985 134.818 119.316 136.021 119.108C137.167 118.912 138.346 118.82 139.515 118.912C141.18 119.039 142.707 119.592 144.188 120.284C144.142 119.35 144.072 118.405 143.968 117.459Z" fill="#8DC6BB"/>
<path d="M114.298 94.1291C113.199 95.8012 109.579 96.7469 111.58 98.396C112.389 99.0649 115.212 98.742 116.103 98.4998C117.583 98.0962 117.363 96.4355 118.763 95.8012C119.931 95.2592 121.99 95.6744 122.337 94.302C122.742 92.6644 122.025 90.6348 120.764 89.5738C118.404 87.5902 116.045 88.8818 114.587 90.8885C114.078 91.5919 114.865 93.2757 114.298 94.1291Z" fill="#8DC6BB"/>
<path opacity="0.65" d="M92.6903 70.6608C100.371 71.987 107.658 74.7778 114.252 78.9294C115.258 79.5637 116.195 77.9723 115.189 77.338C108.48 73.1056 101.007 70.2341 93.1877 68.8848C92.0194 68.6772 91.522 70.4647 92.6903 70.6608Z" fill="#8CCFFF"/>
<path opacity="0.65" d="M117.618 81.3743C119.318 82.2392 120.776 83.3809 122.036 84.8225C122.823 85.722 124.13 84.4073 123.344 83.5193C122.002 81.974 120.382 80.717 118.555 79.7828C117.491 79.2408 116.554 80.8323 117.618 81.3743Z" fill="#8CCFFF"/>
<path opacity="0.2" d="M126.941 114.876C115.293 117.067 103.101 116.156 91.7881 112.731C80.2092 109.213 69.3707 102.94 61.2389 93.9331C57.2367 89.4931 54.0094 84.465 52.2396 78.7335C51.7191 77.0497 51.3258 75.3314 51.025 73.6131C33.0148 85.5145 22.0837 106.722 24.4319 129.637C27.8095 162.55 57.2945 186.503 90.3075 183.136C123.32 179.768 147.346 150.372 143.968 117.459C143.702 114.899 143.286 112.385 142.719 109.94C137.675 112.177 132.389 113.849 126.941 114.876Z" fill="#9D1FFF"/>
<path opacity="0.65" d="M130.296 101.072C130.955 99.803 131.695 98.6036 132.54 97.4619C133.245 96.5048 131.637 95.5822 130.943 96.5278C130.099 97.6695 129.359 98.8804 128.699 100.137C128.156 101.198 129.752 102.133 130.296 101.072Z" fill="#8CCFFF"/>
<path d="M58.8561 86.9098C58.8445 86.9098 58.8445 86.9098 58.833 86.9098C58.7636 86.8983 58.7173 86.8291 58.7289 86.7599C58.7289 86.7484 58.7636 86.5293 58.8677 86.1372C58.8908 86.068 58.9602 86.0218 59.0296 86.0449C59.099 86.068 59.1453 86.1372 59.1221 86.2064C59.0296 86.5869 58.9949 86.806 58.9949 86.806C58.9718 86.8637 58.9139 86.9098 58.8561 86.9098ZM59.3304 85.1108C59.3188 85.1108 59.3072 85.1108 59.2841 85.0993C59.2147 85.0762 59.18 85.007 59.2031 84.9378C59.2609 84.7533 59.3304 84.5572 59.4113 84.3496C59.4345 84.2805 59.5154 84.2459 59.5848 84.2689C59.6542 84.292 59.6889 84.3727 59.6658 84.4419C59.5848 84.6495 59.527 84.834 59.4576 85.0185C59.446 85.0762 59.3882 85.1108 59.3304 85.1108ZM60.0128 83.3925C59.9897 83.3925 59.9781 83.3925 59.955 83.3809C59.8856 83.3463 59.8624 83.2771 59.8856 83.208C59.9666 83.0234 60.0475 82.8389 60.1401 82.6429C60.1748 82.5737 60.2557 82.5506 60.3136 82.5852C60.383 82.6198 60.4061 82.689 60.3714 82.7582C60.2789 82.9427 60.1979 83.1388 60.1169 83.3117C60.1054 83.3579 60.0591 83.3925 60.0128 83.3925ZM60.8341 81.7318C60.811 81.7318 60.7878 81.7318 60.7763 81.7203C60.7069 81.6857 60.6837 81.605 60.7184 81.5473C60.811 81.3743 60.9151 81.1898 61.0192 81.0053C61.0539 80.9476 61.1348 80.9245 61.2043 80.9591C61.2621 80.9937 61.2852 81.0745 61.2505 81.1437C61.1464 81.3282 61.0423 81.5012 60.9498 81.6741C60.9266 81.7087 60.8804 81.7318 60.8341 81.7318ZM61.7826 80.1519C61.7595 80.1519 61.7363 80.1403 61.7132 80.1288C61.6554 80.0942 61.6322 80.0135 61.6785 79.9443C61.7942 79.7713 61.9099 79.5983 62.0255 79.4253C62.0718 79.3677 62.1528 79.3562 62.2106 79.3907C62.2684 79.4369 62.28 79.5176 62.2453 79.5753C62.1296 79.7483 62.014 79.9097 61.8983 80.0827C61.8636 80.1288 61.8289 80.1519 61.7826 80.1519ZM62.8584 78.6411C62.8352 78.6411 62.8005 78.6296 62.7774 78.6181C62.7196 78.572 62.708 78.4912 62.7543 78.4336C62.8815 78.2721 63.0087 78.1107 63.136 77.9492C63.1823 77.8915 63.2632 77.88 63.3211 77.9261C63.3789 77.9723 63.3905 78.053 63.3442 78.1107C63.217 78.2721 63.0897 78.4336 62.9625 78.595C62.9393 78.6296 62.8931 78.6411 62.8584 78.6411ZM64.0498 77.2227C64.0151 77.2227 63.992 77.2111 63.9573 77.1881C63.8994 77.1419 63.8994 77.0612 63.9457 77.0036C64.0845 76.8536 64.2233 76.7037 64.3621 76.5538C64.4084 76.4961 64.5009 76.4961 64.5472 76.5538C64.605 76.5999 64.605 76.6807 64.5472 76.7383C64.4084 76.8882 64.2696 77.0382 64.1308 77.1881C64.1192 77.2111 64.0845 77.2227 64.0498 77.2227ZM65.3338 75.8965C65.2991 75.8965 65.2644 75.8849 65.2412 75.8619C65.195 75.8042 65.195 75.7235 65.2412 75.6773C65.3916 75.5389 65.542 75.4006 65.6924 75.2506C65.7502 75.2045 65.8312 75.2045 65.8774 75.2622C65.9237 75.3198 65.9237 75.4006 65.8659 75.4467C65.7155 75.5851 65.5651 75.7235 65.4147 75.8619C65.4032 75.8849 65.3685 75.8965 65.3338 75.8965ZM66.7218 74.674C66.6871 74.674 66.6524 74.6625 66.6177 74.6279C66.5715 74.5702 66.583 74.4895 66.6293 74.4434C66.7912 74.3165 66.9532 74.1781 67.1151 74.0513C67.173 74.0051 67.2539 74.0167 67.3002 74.0743C67.3465 74.132 67.3349 74.2127 67.2771 74.2589C67.1151 74.3857 66.9532 74.5126 66.8028 74.6394C66.7797 74.6625 66.745 74.674 66.7218 74.674ZM68.1793 73.5439C68.133 73.5439 68.0983 73.5208 68.0752 73.4862C68.0289 73.4285 68.0405 73.3478 68.1099 73.3017C68.2719 73.1864 68.4454 73.0595 68.6189 72.9442C68.6767 72.898 68.7577 72.9211 68.804 72.9788C68.8502 73.0364 68.8271 73.1172 68.7692 73.1633C68.5957 73.2786 68.4338 73.3939 68.2719 73.5208C68.2372 73.5323 68.2025 73.5439 68.1793 73.5439ZM69.7178 72.5059C69.6715 72.5059 69.6368 72.4829 69.6021 72.4483C69.5674 72.3906 69.579 72.3099 69.6484 72.2638C69.8219 72.16 69.9954 72.0447 70.1805 71.9409C70.2383 71.9063 70.3193 71.9178 70.3655 71.987C70.4002 72.0447 70.3771 72.1254 70.3193 72.1715C70.1458 72.2753 69.9722 72.3791 69.7987 72.4944C69.764 72.5059 69.7409 72.5059 69.7178 72.5059ZM71.314 71.5718C71.2678 71.5718 71.2215 71.5488 71.1984 71.5026C71.1637 71.4334 71.1868 71.3642 71.2562 71.3297C71.4413 71.2259 71.6148 71.1336 71.7999 71.0413C71.8693 71.0067 71.9387 71.0298 71.9734 71.099C72.0081 71.1682 71.9849 71.2374 71.9155 71.272C71.7305 71.3642 71.557 71.468 71.3719 71.5603C71.3603 71.5718 71.3372 71.5718 71.314 71.5718ZM72.9682 70.7415C72.9219 70.7415 72.8756 70.7184 72.8525 70.6723C72.8178 70.6031 72.8525 70.5339 72.9103 70.4993C73.0954 70.4071 73.2805 70.3263 73.4771 70.2456C73.5465 70.211 73.6159 70.2456 73.6506 70.3148C73.6853 70.384 73.6506 70.4532 73.5812 70.4878C73.3962 70.5685 73.2111 70.6608 73.026 70.7415C73.0029 70.73 72.9797 70.7415 72.9682 70.7415ZM74.657 69.9919C74.6107 69.9919 74.5529 69.9573 74.5298 69.9112C74.5066 69.842 74.5298 69.7728 74.5992 69.7382C74.7842 69.6575 74.9809 69.5883 75.1775 69.5075C75.2469 69.4845 75.3163 69.5191 75.351 69.5767C75.3742 69.6459 75.3395 69.7151 75.2816 69.7497C75.085 69.8189 74.8999 69.8996 74.7148 69.9804C74.6917 69.9919 74.6686 69.9919 74.657 69.9919ZM76.3921 69.3346C76.3342 69.3346 76.288 69.3 76.2648 69.2423C76.2417 69.1731 76.2764 69.1039 76.3458 69.0808C76.5425 69.0117 76.7391 68.9425 76.9357 68.8848C77.0051 68.8617 77.0745 68.8963 77.0977 68.9655C77.1208 69.0347 77.0861 69.1039 77.0167 69.127C76.8201 69.1962 76.6234 69.2538 76.4384 69.323C76.4152 69.3346 76.4036 69.3346 76.3921 69.3346ZM78.1503 68.7695C78.0925 68.7695 78.0462 68.7349 78.0231 68.6772C77.9999 68.608 78.0462 68.5388 78.1156 68.5158C78.3123 68.4581 78.5089 68.4004 78.7055 68.3428C78.7749 68.3197 78.8443 68.3658 78.8675 68.435C78.8906 68.5042 78.8443 68.5734 78.7749 68.5965C78.5783 68.6541 78.3817 68.7118 78.185 68.7695C78.1734 68.7695 78.1619 68.7695 78.1503 68.7695ZM79.9317 68.2736C79.8738 68.2736 79.816 68.239 79.8044 68.1698C79.7813 68.1006 79.8276 68.0314 79.897 68.0083C80.0936 67.9622 80.2903 67.9045 80.4985 67.8584C80.5679 67.8469 80.6373 67.8815 80.6604 67.9507C80.672 68.0199 80.6373 68.0891 80.5679 68.1121C80.3712 68.1583 80.163 68.2044 79.9664 68.262C79.9548 68.2736 79.9432 68.2736 79.9317 68.2736ZM81.7362 67.8584C81.6783 67.8584 81.6205 67.8123 81.6089 67.7546C81.5974 67.6854 81.6436 67.6162 81.713 67.6047C81.9097 67.5586 82.1179 67.524 82.3145 67.4779C82.3839 67.4663 82.4533 67.5124 82.4649 67.5816C82.4765 67.6508 82.4302 67.72 82.3608 67.7316C82.1526 67.7662 81.9559 67.8123 81.7593 67.8584C81.7593 67.8584 81.7477 67.8584 81.7362 67.8584ZM83.5638 67.524C83.506 67.524 83.4481 67.4779 83.4366 67.4202C83.425 67.351 83.4713 67.2818 83.5407 67.2703C83.7373 67.2357 83.9455 67.2011 84.1537 67.1665C84.2231 67.1549 84.2925 67.2011 84.3041 67.2703C84.3157 67.3395 84.2694 67.4087 84.2 67.4202C83.9918 67.4548 83.7951 67.4894 83.5869 67.524C83.5754 67.524 83.5638 67.524 83.5638 67.524ZM85.3914 67.2472C85.322 67.2472 85.2757 67.2011 85.2642 67.1319C85.2526 67.0627 85.3105 66.9935 85.3799 66.982C85.5881 66.9589 85.7847 66.9243 85.9929 66.9012C86.0623 66.8897 86.1317 66.9474 86.1433 67.0166C86.1549 67.0858 86.097 67.1549 86.0276 67.1665C85.8194 67.1895 85.6228 67.2126 85.4146 67.2472C85.403 67.2472 85.3914 67.2472 85.3914 67.2472ZM87.2306 67.0281C87.1612 67.0281 87.1034 66.982 87.1034 66.9128C87.0918 66.8436 87.1496 66.7744 87.219 66.7744C87.4273 66.7513 87.6239 66.7398 87.8321 66.7167C87.9015 66.7167 87.9709 66.7628 87.9709 66.832C87.9825 66.9012 87.9247 66.9704 87.8552 66.9704C87.647 66.9935 87.4504 67.005 87.2422 67.0281H87.2306ZM89.0698 66.8666C89.0004 66.8666 88.9426 66.809 88.9426 66.7398C88.9426 66.6706 88.9888 66.6014 89.0698 66.6014C89.278 66.5899 89.4747 66.5783 89.6829 66.5668C89.7639 66.5668 89.8217 66.6129 89.8217 66.6937C89.8217 66.7628 89.7754 66.832 89.6944 66.832C89.4978 66.8436 89.2896 66.8551 89.0698 66.8666C89.0814 66.8666 89.0814 66.8666 89.0698 66.8666ZM90.9206 66.7628C90.8512 66.7628 90.7933 66.7052 90.7933 66.636C90.7933 66.5668 90.8512 66.4976 90.9206 66.4976C91.1288 66.4861 91.337 66.4861 91.5336 66.4745C91.6146 66.4745 91.6609 66.5322 91.6724 66.6014C91.6724 66.6706 91.6146 66.7398 91.5452 66.7398C91.337 66.7513 91.1288 66.7628 90.9206 66.7628C90.9321 66.7628 90.9206 66.7628 90.9206 66.7628ZM92.7713 66.7167C92.7019 66.7167 92.6441 66.6591 92.6441 66.5899C92.6441 66.5207 92.7019 66.463 92.7713 66.4515C92.9795 66.4515 93.1878 66.4515 93.3844 66.4399C93.4538 66.4399 93.5116 66.4976 93.5116 66.5668C93.5116 66.636 93.4538 66.6937 93.3844 66.6937C93.1878 66.7167 92.9795 66.7167 92.7713 66.7167C92.7829 66.7167 92.7713 66.7167 92.7713 66.7167Z" fill="#2D1958"/>
<path d="M60.0244 86.8637C60.036 87.4634 59.5733 87.9593 58.9718 87.9708C58.3703 87.9824 57.8729 87.5211 57.8613 86.9214C57.8498 86.3217 58.3124 85.8258 58.9139 85.8143C59.5154 85.8028 60.0128 86.2756 60.0244 86.8637Z" fill="#2D1958"/>
<path d="M99.0639 128.057C99.0755 128.657 98.6128 129.153 98.0113 129.164C97.4098 129.176 96.9124 128.715 96.9008 128.115C96.8892 127.515 97.3519 127.019 97.9534 127.008C98.5549 126.996 99.0523 127.458 99.0639 128.057Z" fill="#2D1958"/>
<path d="M135.2 116.421C135.212 117.021 134.749 117.517 134.147 117.528C133.546 117.54 133.049 117.078 133.037 116.479C133.025 115.879 133.488 115.383 134.09 115.372C134.691 115.36 135.189 115.821 135.2 116.421Z" fill="#2D1958"/>
<path d="M74.0555 111.358C74.0671 111.958 73.6044 112.454 73.0029 112.465C72.4014 112.477 71.904 112.016 71.8925 111.416C71.8809 110.816 72.3436 110.32 72.9451 110.309C73.5466 110.286 74.044 110.759 74.0555 111.358Z" fill="#2D1958"/>
<path d="M118.682 92.0302C118.694 92.6299 118.231 93.1258 117.629 93.1374C117.028 93.1489 116.531 92.6876 116.519 92.0879C116.507 91.4882 116.97 90.9923 117.572 90.9808C118.161 90.9693 118.659 91.4306 118.682 92.0302Z" fill="#2D1958"/>
<path d="M133.118 116.433C133.106 116.433 133.106 116.433 133.095 116.433C132.887 116.398 132.69 116.352 132.482 116.317C132.412 116.306 132.366 116.237 132.378 116.167C132.389 116.098 132.459 116.052 132.528 116.064C132.725 116.11 132.921 116.144 133.13 116.179C133.199 116.19 133.245 116.26 133.234 116.329C133.234 116.386 133.187 116.433 133.118 116.433ZM131.313 116.029C131.302 116.029 131.29 116.029 131.279 116.029C131.082 115.971 130.874 115.914 130.677 115.856C130.608 115.833 130.573 115.764 130.585 115.695C130.608 115.625 130.677 115.591 130.747 115.602C130.943 115.66 131.14 115.718 131.337 115.775C131.406 115.798 131.452 115.868 131.429 115.937C131.429 115.983 131.371 116.029 131.313 116.029ZM129.555 115.452C129.544 115.452 129.521 115.452 129.509 115.441C129.312 115.372 129.127 115.291 128.931 115.21C128.861 115.187 128.838 115.106 128.861 115.037C128.884 114.968 128.965 114.945 129.035 114.968C129.22 115.049 129.405 115.118 129.602 115.199C129.671 115.222 129.706 115.302 129.682 115.372C129.659 115.418 129.613 115.452 129.555 115.452ZM127.866 114.703C127.843 114.703 127.82 114.703 127.809 114.691C127.623 114.599 127.438 114.495 127.265 114.403C127.207 114.368 127.184 114.288 127.219 114.23C127.253 114.172 127.334 114.149 127.392 114.184C127.566 114.288 127.751 114.38 127.936 114.472C128.005 114.507 128.028 114.587 127.994 114.645C127.959 114.68 127.913 114.703 127.866 114.703ZM126.27 113.769C126.247 113.769 126.224 113.757 126.201 113.746C126.027 113.63 125.854 113.515 125.692 113.388C125.634 113.342 125.622 113.261 125.657 113.204C125.703 113.146 125.784 113.134 125.842 113.169C126.004 113.284 126.178 113.4 126.34 113.515C126.397 113.55 126.421 113.642 126.374 113.699C126.351 113.746 126.316 113.769 126.27 113.769ZM124.79 112.662C124.755 112.662 124.732 112.65 124.709 112.627C124.547 112.489 124.396 112.35 124.246 112.212C124.188 112.166 124.188 112.085 124.234 112.027C124.281 111.97 124.362 111.97 124.419 112.016C124.57 112.154 124.72 112.292 124.882 112.419C124.94 112.465 124.94 112.546 124.894 112.604C124.87 112.638 124.836 112.662 124.79 112.662ZM123.459 111.393C123.425 111.393 123.39 111.381 123.367 111.347C123.228 111.197 123.089 111.047 122.95 110.886C122.904 110.828 122.904 110.747 122.962 110.701C123.02 110.655 123.101 110.655 123.147 110.713C123.286 110.862 123.413 111.012 123.563 111.162C123.61 111.22 123.61 111.301 123.563 111.347C123.517 111.37 123.482 111.393 123.459 111.393ZM122.268 109.974C122.233 109.974 122.187 109.951 122.164 109.917C122.037 109.755 121.921 109.582 121.794 109.421C121.747 109.363 121.77 109.283 121.828 109.236C121.886 109.19 121.967 109.213 122.013 109.271C122.129 109.432 122.256 109.605 122.372 109.767C122.418 109.825 122.407 109.905 122.349 109.951C122.314 109.963 122.291 109.974 122.268 109.974ZM121.227 108.452C121.181 108.452 121.134 108.429 121.111 108.395C121.007 108.222 120.903 108.037 120.799 107.864C120.764 107.806 120.787 107.726 120.845 107.691C120.903 107.656 120.984 107.68 121.019 107.737C121.123 107.91 121.227 108.095 121.331 108.268C121.366 108.325 121.354 108.406 121.285 108.452C121.273 108.441 121.25 108.452 121.227 108.452ZM120.336 106.826C120.29 106.826 120.244 106.803 120.22 106.757C120.128 106.572 120.035 106.388 119.954 106.192C119.92 106.123 119.954 106.054 120.024 106.019C120.093 105.984 120.163 106.019 120.197 106.088C120.278 106.273 120.371 106.457 120.463 106.642C120.498 106.711 120.463 106.78 120.406 106.815C120.371 106.826 120.348 106.826 120.336 106.826ZM119.584 105.142C119.526 105.142 119.48 105.108 119.457 105.062C119.376 104.866 119.307 104.681 119.237 104.485C119.214 104.416 119.249 104.347 119.318 104.312C119.388 104.289 119.457 104.324 119.492 104.393C119.561 104.589 119.631 104.773 119.711 104.969C119.735 105.039 119.7 105.108 119.642 105.142C119.619 105.131 119.596 105.142 119.584 105.142ZM118.971 103.39C118.913 103.39 118.867 103.355 118.844 103.297C118.786 103.101 118.717 102.905 118.67 102.709C118.647 102.64 118.694 102.571 118.763 102.548C118.832 102.525 118.902 102.571 118.925 102.64C118.983 102.836 119.041 103.032 119.098 103.228C119.122 103.297 119.087 103.366 119.017 103.39C118.994 103.39 118.983 103.39 118.971 103.39ZM118.474 101.614C118.416 101.614 118.358 101.579 118.347 101.51C118.3 101.302 118.254 101.106 118.208 100.91C118.196 100.841 118.242 100.772 118.312 100.749C118.381 100.737 118.451 100.783 118.474 100.852C118.52 101.048 118.566 101.245 118.613 101.452C118.624 101.521 118.589 101.59 118.52 101.614C118.497 101.614 118.485 101.614 118.474 101.614ZM118.092 99.803C118.034 99.803 117.976 99.7569 117.965 99.6992C117.93 99.4916 117.895 99.2956 117.861 99.088C117.849 99.0188 117.895 98.9496 117.965 98.9381C118.034 98.9265 118.104 98.9727 118.115 99.0419C118.15 99.2379 118.185 99.4455 118.219 99.6415C118.231 99.7107 118.185 99.7799 118.115 99.7915C118.104 99.803 118.104 99.803 118.092 99.803ZM117.814 97.9693C117.745 97.9693 117.687 97.9232 117.687 97.854C117.664 97.6464 117.641 97.4389 117.618 97.2428C117.606 97.1736 117.664 97.1044 117.733 97.1044C117.803 97.1044 117.872 97.1506 117.872 97.2197C117.895 97.4158 117.919 97.6234 117.942 97.831C117.953 97.9002 117.895 97.9693 117.826 97.9809C117.826 97.9693 117.814 97.9693 117.814 97.9693ZM117.641 96.1357C117.572 96.1357 117.514 96.078 117.514 96.0089C117.502 95.8013 117.491 95.5937 117.479 95.3861C117.479 95.3169 117.537 95.2477 117.606 95.2477C117.676 95.2477 117.745 95.3054 117.745 95.3746C117.757 95.5706 117.768 95.7782 117.78 95.9858C117.768 96.0665 117.722 96.1242 117.641 96.1357ZM117.56 94.279C117.491 94.279 117.433 94.2213 117.433 94.1521C117.433 93.9676 117.433 93.7946 117.433 93.6332V93.5294C117.433 93.4602 117.491 93.4025 117.56 93.4025C117.629 93.4025 117.687 93.4602 117.687 93.5294V93.6332C117.687 93.7946 117.687 93.9676 117.687 94.1521C117.687 94.2213 117.629 94.279 117.56 94.279ZM117.583 92.4338C117.502 92.4338 117.444 92.3646 117.456 92.2954C117.456 92.2147 117.467 92.1571 117.467 92.1225L117.236 91.9264C117.178 91.8803 117.167 91.7996 117.213 91.7419C117.259 91.6842 117.34 91.6727 117.398 91.7188L117.687 91.9495C117.722 91.9725 117.733 92.0187 117.733 92.0648C117.733 92.0648 117.722 92.1455 117.722 92.307C117.71 92.3762 117.653 92.4338 117.583 92.4338ZM116.345 91.1883C116.322 91.1883 116.288 91.1768 116.264 91.1653C116.103 91.0384 115.941 90.9116 115.779 90.7962C115.721 90.7501 115.709 90.6694 115.755 90.6117C115.802 90.5541 115.883 90.5425 115.941 90.5887C116.103 90.7155 116.264 90.8308 116.438 90.9577C116.496 91.0038 116.507 91.0845 116.461 91.1422C116.415 91.1768 116.38 91.1883 116.345 91.1883ZM114.853 90.0928C114.83 90.0928 114.795 90.0812 114.772 90.0697C114.61 89.9544 114.437 89.8391 114.263 89.7237C114.205 89.6776 114.194 89.5969 114.229 89.5392C114.275 89.4816 114.356 89.47 114.414 89.5046C114.587 89.6199 114.749 89.7353 114.923 89.8621C114.98 89.9082 114.992 89.989 114.957 90.0466C114.934 90.0697 114.888 90.0928 114.853 90.0928ZM113.315 89.0549C113.292 89.0549 113.269 89.0433 113.245 89.0318C113.072 88.9165 112.898 88.8127 112.725 88.6974C112.667 88.6628 112.644 88.582 112.679 88.5128C112.713 88.4552 112.794 88.4321 112.864 88.4667C113.037 88.5705 113.211 88.6858 113.384 88.8011C113.442 88.8357 113.465 88.9165 113.419 88.9857C113.407 89.0318 113.361 89.0549 113.315 89.0549ZM111.742 88.0861C111.719 88.0861 111.695 88.0861 111.672 88.0631C111.499 87.9593 111.314 87.8555 111.14 87.7517C111.082 87.7171 111.059 87.6364 111.094 87.5787C111.129 87.5211 111.21 87.498 111.267 87.5326C111.441 87.6364 111.626 87.7402 111.799 87.844C111.857 87.8786 111.88 87.9593 111.846 88.0285C111.834 88.0631 111.788 88.0861 111.742 88.0861ZM110.134 87.1636C110.111 87.1636 110.088 87.1636 110.076 87.152C109.891 87.0598 109.717 86.956 109.532 86.8637C109.463 86.8291 109.44 86.7484 109.474 86.6907C109.509 86.6215 109.59 86.5985 109.648 86.6331C109.833 86.7253 110.018 86.8291 110.192 86.9214C110.261 86.956 110.284 87.0367 110.249 87.0944C110.226 87.1405 110.18 87.1636 110.134 87.1636ZM59.3188 87.0136C59.2725 87.0136 59.2262 86.9906 59.2031 86.9444C59.1684 86.8752 59.2031 86.8061 59.261 86.7715C59.261 86.7715 59.4576 86.6792 59.8277 86.5177C59.8972 86.4831 59.9666 86.5177 60.0013 86.5869C60.0244 86.6561 60.0013 86.7253 59.9319 86.7599C59.5617 86.9214 59.3651 87.0136 59.3651 87.0136C59.3535 87.0136 59.3304 87.0136 59.3188 87.0136ZM108.491 86.3217C108.468 86.3217 108.457 86.3217 108.433 86.3102C108.248 86.2179 108.063 86.1256 107.878 86.0449C107.809 86.0103 107.786 85.9411 107.82 85.8719C107.855 85.8027 107.936 85.7797 107.994 85.8143C108.179 85.9065 108.364 85.9873 108.549 86.0795C108.618 86.1141 108.642 86.1948 108.607 86.2525C108.584 86.2986 108.538 86.3217 108.491 86.3217ZM61.0192 86.2871C60.9729 86.2871 60.9151 86.2525 60.8919 86.2064C60.8688 86.1372 60.9035 86.068 60.9613 86.0334C61.1464 85.9642 61.3315 85.8835 61.5397 85.8027C61.6091 85.7797 61.6785 85.8143 61.7132 85.8719C61.7363 85.9411 61.7016 86.0103 61.6322 86.0449C61.424 86.1256 61.239 86.1948 61.0539 86.264C61.0539 86.2871 61.0423 86.2871 61.0192 86.2871ZM62.7543 85.6298C62.6964 85.6298 62.6502 85.5952 62.627 85.549C62.6039 85.4798 62.6386 85.4106 62.708 85.376C62.8931 85.3069 63.0897 85.2377 63.2864 85.1685C63.3558 85.1454 63.4252 85.18 63.4483 85.2492C63.4714 85.3184 63.4367 85.3876 63.3673 85.4106C63.1707 85.4798 62.974 85.549 62.789 85.6182C62.789 85.6298 62.7774 85.6298 62.7543 85.6298ZM106.802 85.549C106.779 85.549 106.768 85.549 106.745 85.5375C106.56 85.4568 106.363 85.376 106.178 85.2953C106.108 85.2723 106.085 85.1915 106.108 85.1223C106.132 85.0531 106.212 85.0301 106.282 85.0531C106.467 85.1339 106.664 85.2146 106.849 85.2953C106.918 85.3299 106.941 85.3991 106.918 85.4683C106.907 85.5144 106.86 85.549 106.802 85.549ZM64.5125 85.0301C64.4547 85.0301 64.4084 84.9955 64.3853 84.9378C64.3621 84.8686 64.3968 84.7994 64.4662 84.7764C64.6629 84.7187 64.8595 84.6495 65.0562 84.5803C65.1256 84.5573 65.195 84.5918 65.2181 84.661C65.2412 84.7302 65.2065 84.7994 65.1371 84.8225C64.9405 84.8917 64.7438 84.9494 64.5472 85.0185C64.5356 85.0301 64.5241 85.0301 64.5125 85.0301ZM105.09 84.834C105.079 84.834 105.056 84.834 105.044 84.8225C104.848 84.7533 104.662 84.6726 104.466 84.6034C104.396 84.5803 104.362 84.4996 104.385 84.4304C104.408 84.3612 104.489 84.3266 104.558 84.3497C104.755 84.4189 104.94 84.4996 105.137 84.5688C105.206 84.5918 105.241 84.6726 105.206 84.7418C105.195 84.7994 105.148 84.834 105.09 84.834ZM66.2823 84.465C66.2244 84.465 66.1782 84.4304 66.155 84.3727C66.1319 84.3035 66.1782 84.2343 66.2476 84.2113C66.4442 84.1536 66.6409 84.096 66.8375 84.0383C66.9069 84.0152 66.9763 84.0614 66.9995 84.1306C67.0226 84.1998 66.9763 84.2689 66.9069 84.292C66.7103 84.3497 66.5136 84.4073 66.317 84.465C66.3054 84.465 66.2938 84.465 66.2823 84.465ZM103.355 84.1882C103.344 84.1882 103.321 84.1882 103.309 84.1767C103.112 84.1075 102.916 84.0383 102.731 83.9806C102.661 83.9576 102.627 83.8884 102.65 83.8192C102.673 83.75 102.742 83.7154 102.812 83.7385C103.008 83.8076 103.205 83.8653 103.402 83.9345C103.471 83.9576 103.506 84.0383 103.483 84.096C103.459 84.1536 103.413 84.1882 103.355 84.1882ZM68.0636 83.9576C68.0058 83.9576 67.948 83.923 67.9364 83.8653C67.9133 83.7961 67.9595 83.7269 68.0289 83.7039C68.2256 83.6462 68.4222 83.6001 68.6304 83.5424C68.6998 83.5193 68.7692 83.5655 68.7924 83.6347C68.8155 83.7039 68.7692 83.7731 68.6998 83.7961C68.5032 83.8538 68.295 83.8999 68.1099 83.9576C68.0868 83.9576 68.0752 83.9576 68.0636 83.9576ZM101.597 83.6231C101.586 83.6231 101.574 83.6231 101.562 83.6231C101.366 83.5655 101.169 83.5078 100.973 83.4501C100.903 83.4271 100.868 83.3579 100.88 83.2887C100.903 83.2195 100.973 83.1734 101.042 83.1964C101.239 83.2541 101.435 83.3118 101.632 83.3694C101.701 83.3925 101.736 83.4617 101.724 83.5309C101.701 83.5885 101.655 83.6231 101.597 83.6231ZM69.8566 83.4847C69.7987 83.4847 69.7409 83.4501 69.7293 83.381C69.7062 83.3118 69.7525 83.2426 69.8219 83.2195C70.0185 83.1734 70.2152 83.1157 70.4234 83.0696C70.4928 83.058 70.5622 83.0926 70.5853 83.1618C70.5969 83.231 70.5622 83.3002 70.4928 83.3233C70.2961 83.3694 70.0879 83.4156 69.8913 83.4732C69.8797 83.4847 69.8681 83.4847 69.8566 83.4847ZM99.8158 83.1157C99.8042 83.1157 99.7927 83.1157 99.7811 83.1157C99.5844 83.058 99.3878 83.0119 99.1796 82.9658C99.1102 82.9427 99.0639 82.8735 99.0871 82.8043C99.1102 82.7351 99.1796 82.689 99.249 82.7121C99.4456 82.7582 99.6538 82.8159 99.8505 82.862C99.9199 82.8851 99.9662 82.9543 99.943 83.0235C99.9199 83.0811 99.8736 83.1157 99.8158 83.1157ZM71.6611 83.0696C71.6032 83.0696 71.5454 83.0235 71.5338 82.9658C71.5223 82.8966 71.5685 82.8274 71.6379 82.8043C71.8346 82.7582 72.0428 82.7121 72.2394 82.6775C72.3088 82.666 72.3782 82.7121 72.3898 82.7813C72.4014 82.8505 72.3551 82.9197 72.2857 82.9312C72.0775 82.9773 71.8808 83.0235 71.6842 83.058C71.6726 83.058 71.6726 83.0696 71.6611 83.0696ZM73.4771 82.689C73.4193 82.689 73.3615 82.6429 73.3499 82.5852C73.3383 82.516 73.3846 82.4468 73.454 82.4353C73.6506 82.4007 73.8588 82.3546 74.0671 82.32C74.1365 82.3084 74.2059 82.3546 74.2174 82.4238C74.229 82.493 74.1827 82.5622 74.1133 82.5737C73.9051 82.6083 73.7085 82.6544 73.5118 82.689C73.4887 82.689 73.4771 82.689 73.4771 82.689ZM98.0113 82.6775C97.9997 82.6775 97.9882 82.6775 97.9882 82.6775C97.7915 82.6314 97.5833 82.5852 97.3867 82.5506C97.3173 82.5391 97.271 82.4699 97.2826 82.4007C97.2941 82.3315 97.3635 82.2854 97.4329 82.2969C97.6296 82.343 97.8378 82.3776 98.0344 82.4238C98.1038 82.4353 98.1501 82.5045 98.1385 82.5852C98.127 82.6314 98.0691 82.6775 98.0113 82.6775ZM75.2932 82.3546C75.2353 82.3546 75.1775 82.3084 75.1659 82.2508C75.1544 82.1816 75.2006 82.1124 75.27 82.1009C75.4667 82.0663 75.6749 82.0317 75.8831 81.9971C75.9525 81.9855 76.0219 82.0317 76.0335 82.1009C76.0451 82.1701 75.9988 82.2393 75.9294 82.2508C75.7212 82.2854 75.5245 82.32 75.3163 82.3546C75.3163 82.3546 75.3048 82.3546 75.2932 82.3546ZM96.1952 82.3084C96.1837 82.3084 96.1837 82.3084 96.1721 82.3084C95.9755 82.2739 95.7672 82.2393 95.5706 82.2047C95.5012 82.1931 95.4549 82.1239 95.4665 82.0547C95.4781 81.9855 95.5475 81.9394 95.6169 81.9509C95.8251 81.9855 96.0217 82.0201 96.2299 82.0547C96.2993 82.0663 96.3456 82.1355 96.334 82.2047C96.3109 82.2623 96.2646 82.3084 96.1952 82.3084ZM77.1324 82.0663C77.063 82.0663 77.0167 82.0201 77.0051 81.9509C76.9936 81.8818 77.0398 81.8126 77.1208 81.801C77.329 81.778 77.5257 81.7434 77.7339 81.7203C77.8033 81.7088 77.8727 81.7664 77.8843 81.8356C77.8958 81.9048 77.838 81.974 77.7686 81.9855C77.5604 82.0086 77.3637 82.0432 77.1555 82.0663C77.1439 82.0663 77.1324 82.0663 77.1324 82.0663ZM94.3676 82.0086C94.356 82.0086 94.356 82.0086 94.3445 82.0086C94.1363 81.974 93.9396 81.9509 93.7314 81.9163C93.662 81.9048 93.6042 81.8356 93.6157 81.7664C93.6273 81.6972 93.6967 81.6396 93.7661 81.6511C93.9743 81.6742 94.171 81.7088 94.3792 81.7434C94.4486 81.7549 94.4948 81.8241 94.4948 81.8933C94.4948 81.9625 94.437 82.0086 94.3676 82.0086ZM78.9716 81.8356C78.9022 81.8356 78.8443 81.7895 78.8443 81.7203C78.8328 81.6511 78.8906 81.5819 78.96 81.5704C79.1682 81.5473 79.3649 81.5242 79.5731 81.5012C79.6425 81.4897 79.7119 81.5473 79.7119 81.6165C79.7234 81.6857 79.6656 81.7549 79.5962 81.7549C79.388 81.778 79.1914 81.801 78.9831 81.8241C78.9831 81.8356 78.9716 81.8356 78.9716 81.8356ZM92.5284 81.7664H92.5168C92.3086 81.7434 92.112 81.7203 91.9038 81.6972C91.8344 81.6857 91.7765 81.628 91.7881 81.5588C91.7997 81.4897 91.8691 81.432 91.9269 81.4435C92.1351 81.4666 92.3318 81.4897 92.54 81.5127C92.6094 81.5243 92.6672 81.5819 92.6556 81.6626C92.6556 81.7203 92.5978 81.7664 92.5284 81.7664ZM80.8108 81.6511C80.7414 81.6511 80.6835 81.605 80.6835 81.5358C80.672 81.4666 80.7298 81.3974 80.7992 81.3974C81.0074 81.3743 81.2041 81.3628 81.4123 81.3513C81.4817 81.3397 81.5511 81.3974 81.5511 81.4666C81.5511 81.5358 81.5048 81.605 81.4354 81.605C81.2388 81.6165 81.0305 81.6396 80.8108 81.6511C80.8223 81.6511 80.8108 81.6511 80.8108 81.6511ZM90.6892 81.5934C90.6776 81.5934 90.6776 81.5934 90.6892 81.5934C90.4694 81.5819 90.2728 81.5588 90.0646 81.5473C89.9952 81.5473 89.9373 81.4781 89.9373 81.4089C89.9373 81.3397 89.9952 81.2821 90.0761 81.2821C90.2844 81.2936 90.4926 81.3051 90.6892 81.3282C90.7586 81.3282 90.8165 81.3974 90.8049 81.4666C90.8165 81.5358 90.7586 81.5934 90.6892 81.5934ZM82.6615 81.5243C82.5921 81.5243 82.5343 81.4666 82.5343 81.3974C82.5343 81.3282 82.5806 81.259 82.6615 81.259C82.8697 81.2475 83.078 81.2359 83.2746 81.2244C83.344 81.2244 83.4134 81.2821 83.4134 81.3513C83.4134 81.4205 83.3556 81.4897 83.2862 81.4897C83.0779 81.5012 82.8697 81.5127 82.6615 81.5243ZM88.8384 81.4781C88.6302 81.4666 88.422 81.4551 88.2138 81.4551C88.1444 81.4551 88.0866 81.3974 88.0866 81.3167C88.0866 81.2475 88.1444 81.1898 88.2254 81.1898C88.4336 81.2013 88.6418 81.2013 88.85 81.2129C88.9194 81.2129 88.9773 81.2821 88.9773 81.3513C88.9657 81.4205 88.9079 81.4781 88.8384 81.4781ZM84.5123 81.4435C84.4429 81.4435 84.3851 81.3859 84.3851 81.3167C84.3851 81.2475 84.4429 81.1898 84.5123 81.1783C84.7205 81.1783 84.9287 81.1667 85.1369 81.1667C85.2063 81.1667 85.2642 81.2244 85.2642 81.2936C85.2642 81.3628 85.2063 81.4205 85.1369 81.432C84.9287 81.432 84.7205 81.432 84.5123 81.4435ZM86.9877 81.4205C86.7795 81.4205 86.5713 81.4205 86.3746 81.4205C86.3052 81.4205 86.2474 81.3628 86.2474 81.2936C86.2474 81.2244 86.3052 81.1667 86.3746 81.1667C86.5828 81.1667 86.791 81.1667 86.9993 81.1667C87.0687 81.1667 87.1265 81.2244 87.1265 81.2936C87.1149 81.3628 87.0571 81.4205 86.9877 81.4205Z" fill="#2D1958"/>
<path d="M97.8146 127.169C97.7568 127.169 97.6989 127.123 97.6874 127.065C97.6527 126.858 97.6064 126.662 97.5717 126.466C97.5601 126.397 97.6064 126.327 97.6758 126.316C97.7452 126.304 97.8146 126.35 97.8262 126.42C97.8724 126.616 97.9072 126.823 97.9418 127.031C97.9534 127.1 97.9072 127.169 97.8377 127.181C97.8262 127.169 97.8146 127.169 97.8146 127.169ZM97.4098 125.37C97.3519 125.37 97.2941 125.336 97.2825 125.278C97.2247 125.082 97.1784 124.886 97.1206 124.69C97.0974 124.621 97.1437 124.551 97.2131 124.528C97.2825 124.505 97.3519 124.551 97.3751 124.621C97.4329 124.817 97.4907 125.013 97.537 125.22C97.5601 125.289 97.5139 125.359 97.4445 125.382C97.4329 125.37 97.4213 125.37 97.4098 125.37ZM96.8545 123.606C96.7967 123.606 96.7504 123.571 96.7273 123.525C96.6579 123.329 96.5885 123.144 96.5075 122.948C96.4844 122.879 96.5191 122.81 96.5769 122.775C96.6463 122.752 96.7157 122.787 96.7504 122.845C96.8314 123.029 96.9008 123.225 96.9702 123.421C96.9933 123.49 96.9586 123.56 96.8892 123.594C96.8892 123.606 96.8777 123.606 96.8545 123.606ZM96.1489 121.899C96.1027 121.899 96.0564 121.876 96.0333 121.83C95.9407 121.645 95.8597 121.461 95.7556 121.288C95.7209 121.219 95.7441 121.149 95.8135 121.115C95.8829 121.08 95.9523 121.103 95.987 121.172C96.0795 121.357 96.1721 121.541 96.2646 121.726C96.2993 121.795 96.2646 121.864 96.2068 121.899C96.1836 121.899 96.1721 121.899 96.1489 121.899ZM95.2698 120.284C95.2235 120.284 95.1773 120.261 95.1541 120.227C95.05 120.054 94.9344 119.881 94.8303 119.708C94.7956 119.65 94.8071 119.569 94.865 119.523C94.9228 119.489 95.0038 119.5 95.05 119.558C95.1657 119.731 95.2698 119.904 95.3855 120.077C95.4202 120.134 95.4086 120.215 95.3392 120.261C95.3161 120.273 95.2929 120.284 95.2698 120.284ZM94.2288 118.762C94.1941 118.762 94.1478 118.739 94.1247 118.716C93.9974 118.555 93.8702 118.393 93.7429 118.243C93.6967 118.186 93.7082 118.105 93.7545 118.059C93.8123 118.013 93.8933 118.024 93.9396 118.07C94.0668 118.232 94.2056 118.393 94.3329 118.555C94.3791 118.612 94.3676 118.693 94.3097 118.739C94.2866 118.751 94.2519 118.762 94.2288 118.762ZM93.0142 117.367C92.9795 117.367 92.9448 117.355 92.9217 117.332C92.7829 117.182 92.6325 117.044 92.4821 116.905C92.4243 116.859 92.4243 116.767 92.4821 116.721C92.5284 116.675 92.6209 116.663 92.6672 116.721C92.8176 116.859 92.9679 117.009 93.1067 117.159C93.153 117.217 93.153 117.298 93.1067 117.344C93.0836 117.355 93.0489 117.367 93.0142 117.367ZM91.6608 116.11C91.6261 116.11 91.603 116.098 91.5799 116.075C91.4179 115.948 91.2675 115.821 91.1056 115.695C91.0478 115.648 91.0362 115.568 91.0825 115.51C91.1287 115.452 91.2097 115.441 91.2675 115.487C91.4295 115.614 91.5914 115.741 91.7534 115.879C91.8112 115.925 91.8228 116.006 91.7765 116.064C91.7302 116.087 91.6955 116.11 91.6608 116.11ZM90.1686 115.014C90.1455 115.014 90.1224 115.003 90.0992 114.991C89.9257 114.876 89.7522 114.772 89.5787 114.657C89.5209 114.622 89.4977 114.541 89.5324 114.472C89.5671 114.414 89.6481 114.391 89.7175 114.426C89.891 114.53 90.0645 114.645 90.2381 114.76C90.2959 114.795 90.319 114.887 90.2728 114.945C90.2496 114.991 90.2149 115.014 90.1686 115.014ZM88.5724 114.068C88.5492 114.068 88.5261 114.068 88.5145 114.057C88.3295 113.965 88.1559 113.872 87.9709 113.78C87.9015 113.746 87.8783 113.665 87.913 113.607C87.9477 113.538 88.0287 113.515 88.0865 113.55C88.2716 113.642 88.4567 113.734 88.6418 113.826C88.7112 113.861 88.7343 113.942 88.6996 113.999C88.6649 114.045 88.6302 114.068 88.5724 114.068ZM86.9067 113.284C86.8951 113.284 86.872 113.284 86.8604 113.273C86.6753 113.192 86.4787 113.123 86.2936 113.042C86.2242 113.019 86.1895 112.938 86.2126 112.869C86.2358 112.8 86.3167 112.765 86.3862 112.788C86.5828 112.858 86.7679 112.938 86.9645 113.019C87.0339 113.042 87.0686 113.123 87.0339 113.192C86.9992 113.25 86.9529 113.284 86.9067 113.284ZM85.16 112.638C85.1485 112.638 85.1369 112.638 85.1253 112.627C84.9287 112.569 84.732 112.5 84.5354 112.442C84.466 112.419 84.4313 112.35 84.4428 112.281C84.466 112.212 84.5354 112.166 84.6048 112.189C84.8014 112.246 84.9981 112.304 85.1947 112.373C85.2641 112.396 85.2988 112.465 85.2757 112.535C85.2641 112.604 85.2179 112.638 85.16 112.638ZM83.3787 112.143C83.3671 112.143 83.3555 112.143 83.344 112.143C83.1473 112.096 82.9391 112.05 82.7425 112.004C82.6731 111.993 82.6268 111.923 82.6384 111.854C82.6499 111.785 82.7193 111.739 82.7887 111.75C82.9854 111.797 83.1936 111.843 83.3902 111.889C83.4596 111.9 83.5059 111.981 83.4828 112.05C83.4943 112.096 83.4365 112.143 83.3787 112.143ZM81.5626 111.774C81.551 111.774 81.551 111.774 81.5395 111.774C81.3313 111.739 81.1346 111.704 80.938 111.681C80.8686 111.67 80.8223 111.601 80.8223 111.531C80.8339 111.462 80.9033 111.405 80.9727 111.416C81.1809 111.451 81.3775 111.474 81.5857 111.508C81.6551 111.52 81.7014 111.589 81.6898 111.658C81.6783 111.727 81.6204 111.774 81.5626 111.774ZM79.7234 111.508H79.7118C79.5036 111.485 79.2954 111.462 79.0988 111.451C79.0294 111.439 78.9715 111.381 78.9831 111.312C78.9947 111.243 79.0525 111.185 79.1219 111.197C79.3301 111.22 79.5268 111.232 79.735 111.255C79.8044 111.266 79.8622 111.324 79.8506 111.405C79.8506 111.462 79.7928 111.508 79.7234 111.508ZM73.5465 111.451C73.4771 111.451 73.4192 111.405 73.4192 111.335C73.4077 111.266 73.4655 111.197 73.5349 111.197C73.7084 111.185 73.9166 111.162 74.1596 111.151C74.229 111.139 74.2984 111.197 74.2984 111.278C74.2984 111.347 74.2521 111.416 74.1711 111.416C73.9398 111.428 73.7316 111.451 73.5581 111.462C73.5581 111.451 73.5581 111.451 73.5465 111.451ZM77.8726 111.37C77.6529 111.358 77.4562 111.347 77.248 111.347C77.1786 111.347 77.1208 111.289 77.1208 111.208C77.1208 111.139 77.1786 111.082 77.2596 111.082C77.4562 111.093 77.6644 111.093 77.8842 111.105C77.9536 111.105 78.0114 111.174 78.0114 111.243C77.9999 111.312 77.942 111.37 77.8726 111.37ZM75.3973 111.347C75.3278 111.347 75.27 111.289 75.27 111.22C75.27 111.151 75.3278 111.093 75.3973 111.082C75.5939 111.082 75.8021 111.07 76.0219 111.07C76.0913 111.07 76.1491 111.128 76.1491 111.197C76.1491 111.266 76.0913 111.324 76.0219 111.324C75.8021 111.335 75.6055 111.335 75.3973 111.347C75.4088 111.347 75.4088 111.347 75.3973 111.347ZM73.1416 110.886C73.1301 110.886 73.1185 110.886 73.1069 110.886C73.0375 110.862 72.9913 110.793 73.0144 110.724C73.0607 110.528 73.1069 110.32 73.1532 110.124C73.1648 110.055 73.2342 110.009 73.3151 110.021C73.3845 110.032 73.4308 110.101 73.4192 110.182C73.373 110.378 73.3267 110.586 73.2804 110.782C73.2573 110.839 73.1995 110.886 73.1416 110.886ZM73.5118 109.075C73.5002 109.075 73.5002 109.075 73.4887 109.075C73.4192 109.063 73.373 108.994 73.3845 108.925C73.4192 108.717 73.4424 108.521 73.4655 108.314C73.4771 108.245 73.5349 108.187 73.6159 108.199C73.6853 108.21 73.7431 108.268 73.7316 108.348C73.7084 108.556 73.6737 108.752 73.6506 108.96C73.639 109.029 73.5812 109.075 73.5118 109.075ZM73.7084 107.241C73.7084 107.241 73.6969 107.241 73.7084 107.241C73.6275 107.241 73.5696 107.172 73.5812 107.103C73.5928 106.895 73.5928 106.699 73.6043 106.492C73.6043 106.423 73.6622 106.365 73.7316 106.365C73.801 106.365 73.8588 106.423 73.8588 106.503C73.8588 106.711 73.8472 106.918 73.8357 107.126C73.8357 107.184 73.7778 107.241 73.7084 107.241ZM73.6969 105.396C73.6275 105.396 73.5696 105.339 73.5696 105.269C73.5581 105.062 73.5465 104.866 73.5234 104.658C73.5118 104.589 73.5696 104.52 73.639 104.52C73.7084 104.508 73.7778 104.566 73.7778 104.635C73.801 104.843 73.8125 105.05 73.8241 105.258C73.8357 105.327 73.7778 105.385 73.6969 105.396C73.7084 105.396 73.6969 105.396 73.6969 105.396ZM73.4887 103.563C73.4308 103.563 73.373 103.516 73.3614 103.459C73.3267 103.263 73.292 103.055 73.2457 102.859C73.2342 102.79 73.2804 102.721 73.3498 102.709C73.4192 102.698 73.4887 102.744 73.5002 102.813C73.5465 103.009 73.5812 103.217 73.6159 103.424C73.6275 103.493 73.5812 103.563 73.5118 103.574C73.5002 103.563 73.4887 103.563 73.4887 103.563ZM73.0722 101.763C73.0144 101.763 72.9681 101.729 72.945 101.671C72.8872 101.475 72.8293 101.279 72.7599 101.083C72.7368 101.014 72.7715 100.945 72.8409 100.922C72.9103 100.899 72.9797 100.933 73.0028 101.002C73.0722 101.198 73.1301 101.394 73.1879 101.59C73.211 101.66 73.1648 101.729 73.0954 101.752C73.0954 101.763 73.0838 101.763 73.0722 101.763ZM72.4592 100.022C72.4129 100.022 72.3551 99.9875 72.3435 99.9414C72.2625 99.7569 72.1816 99.5608 72.1006 99.3763C72.0659 99.3071 72.1006 99.2379 72.17 99.2033C72.2394 99.1687 72.3088 99.2033 72.3435 99.2725C72.4245 99.457 72.5054 99.6531 72.5864 99.8376C72.6095 99.9068 72.5864 99.976 72.517 100.011C72.4939 100.022 72.4707 100.022 72.4592 100.022ZM71.661 98.3499C71.6147 98.3499 71.5685 98.3269 71.5453 98.2807C71.4528 98.0962 71.3487 97.9232 71.2446 97.7502C71.2099 97.6926 71.233 97.6119 71.2909 97.5657C71.3487 97.5311 71.4297 97.5542 71.4759 97.6119C71.5801 97.7848 71.6842 97.9694 71.7767 98.1539C71.8114 98.2231 71.7883 98.2923 71.7189 98.3269C71.7073 98.3499 71.6842 98.3499 71.661 98.3499ZM70.7125 96.77C70.6662 96.77 70.6315 96.7469 70.6084 96.7123C70.4927 96.5393 70.3771 96.3779 70.2614 96.2049C70.2151 96.1472 70.2382 96.0665 70.2961 96.0204C70.3539 95.9743 70.4349 95.9973 70.4812 96.055C70.5968 96.228 70.7125 96.3894 70.8282 96.5624C70.8629 96.6201 70.8513 96.7008 70.7935 96.7469C70.7588 96.7585 70.7356 96.77 70.7125 96.77ZM69.6252 95.2708C69.5905 95.2708 69.5442 95.2593 69.5211 95.2247C69.3938 95.0632 69.2666 94.9018 69.1278 94.7518C69.0815 94.6942 69.0931 94.6134 69.1394 94.5673C69.1972 94.5212 69.2782 94.5327 69.3244 94.5788C69.4517 94.7403 69.5905 94.9018 69.7177 95.0632C69.764 95.1209 69.7524 95.2016 69.6946 95.2477C69.683 95.2708 69.6483 95.2708 69.6252 95.2708ZM68.4106 93.8754C68.3759 93.8754 68.3412 93.8638 68.3181 93.8292C68.1793 93.6793 68.0405 93.5294 67.8901 93.3795C67.8438 93.3334 67.8438 93.2411 67.8901 93.195C67.9364 93.1488 68.0289 93.1488 68.0752 93.195C68.214 93.3449 68.3643 93.4948 68.5032 93.6447C68.5494 93.7024 68.5494 93.7831 68.4916 93.8292C68.48 93.8638 68.4453 93.8754 68.4106 93.8754ZM67.1035 92.5607C67.0688 92.5607 67.0341 92.5492 67.011 92.5261C66.8606 92.3877 66.7102 92.2493 66.5599 92.1109C66.502 92.0648 66.502 91.9841 66.5483 91.9264C66.5946 91.8688 66.6755 91.8688 66.7334 91.9149C66.8837 92.0533 67.0341 92.1917 67.1845 92.33C67.2423 92.3762 67.2423 92.4569 67.1845 92.5146C67.1729 92.5492 67.1382 92.5607 67.1035 92.5607ZM65.7154 91.3383C65.6807 91.3383 65.6576 91.3267 65.6345 91.3037C65.4725 91.1768 65.3106 91.0384 65.1602 90.9116C65.1024 90.8654 65.0908 90.7847 65.1371 90.7271C65.1834 90.6694 65.2643 90.6579 65.3222 90.704C65.4841 90.8308 65.646 90.9577 65.808 91.0961C65.8658 91.1422 65.8658 91.2229 65.8196 91.2806C65.7964 91.3267 65.7502 91.3383 65.7154 91.3383ZM64.258 90.1966C64.2348 90.1966 64.2001 90.185 64.177 90.1735C64.0035 90.0466 63.8415 89.9313 63.6796 89.816C63.6218 89.7699 63.6102 89.6891 63.6449 89.6315C63.6912 89.5738 63.7721 89.5623 63.83 89.5969C63.9919 89.7122 64.1654 89.8391 64.3389 89.9544C64.3968 90.0005 64.4083 90.0812 64.3621 90.1389C64.3389 90.185 64.2927 90.1966 64.258 90.1966ZM62.7311 89.1471C62.708 89.1471 62.6848 89.1356 62.6617 89.1241C62.4882 89.0087 62.3147 88.8934 62.1412 88.7896C62.0833 88.755 62.0602 88.6743 62.0949 88.6051C62.1296 88.5474 62.2106 88.5244 62.28 88.559C62.4535 88.6628 62.627 88.7781 62.8005 88.8934C62.8583 88.928 62.8815 89.0087 62.8352 89.0779C62.8121 89.1241 62.7658 89.1471 62.7311 89.1471ZM61.1464 88.1784C61.1232 88.1784 61.1001 88.1784 61.077 88.1553C60.8919 88.0516 60.7068 87.9478 60.5449 87.8555C60.487 87.8209 60.4639 87.7402 60.4986 87.6825C60.5333 87.6249 60.6143 87.6018 60.6721 87.6364C60.8456 87.7286 61.0191 87.8324 61.2158 87.9362C61.2736 87.9708 61.2968 88.0516 61.2621 88.1207C61.2389 88.1553 61.1926 88.1784 61.1464 88.1784ZM59.5154 87.2904C59.4923 87.2904 59.4807 87.2904 59.4576 87.2789C59.099 87.1059 58.9023 87.0136 58.9023 87.0136C58.8329 86.979 58.8098 86.9099 58.8329 86.8407C58.8676 86.7715 58.937 86.7484 59.0064 86.7715C59.0064 86.7715 59.2146 86.8637 59.5732 87.0367C59.6426 87.0713 59.6658 87.152 59.6311 87.2097C59.6079 87.2674 59.5617 87.2904 59.5154 87.2904Z" fill="#2D1958"/>
<path d="M117.641 92.1685C117.595 92.1685 117.537 92.1339 117.525 92.0763C116.658 88.6281 116.924 84.9032 116.924 84.8686C116.924 84.8109 116.982 84.7533 117.051 84.7648C117.109 84.7648 117.167 84.8224 117.155 84.8916C117.155 84.9262 116.889 88.6166 117.757 92.0302C117.768 92.0878 117.734 92.157 117.676 92.1685C117.664 92.1685 117.653 92.1685 117.641 92.1685Z" fill="#2D1958"/>
<path d="M116.438 84.6264C116.103 84.6725 116.635 88.213 116.831 88.3975C117.028 88.5935 122.696 87.4864 122.835 87.2904C122.974 87.0943 119.874 86.2063 119.804 86.1141C119.735 86.0218 122.326 84.6495 122.314 84.4073C122.303 84.1767 117.317 84.5111 116.438 84.6264Z" fill="url(#paint3_linear)"/>
<path opacity="0.53" d="M120.209 86.264C118.925 86.3217 117.653 86.264 116.38 86.0219C116.484 87.0482 116.716 88.2822 116.831 88.3975C117.028 88.5936 122.696 87.4865 122.835 87.2904C122.939 87.1405 121.053 86.5523 120.209 86.264Z" fill="#FFE65F"/>
<path d="M117.005 85.4798C117.537 85.3991 118.069 85.3414 118.601 85.3184C118.902 85.3068 118.89 84.8456 118.59 84.8571C118.057 84.8801 117.525 84.9263 116.993 85.0185C116.704 85.0647 116.716 85.526 117.005 85.4798Z" fill="#FFF6C4"/>
<path d="M119.411 85.2837C119.642 85.2722 119.862 85.2607 120.093 85.2261C120.383 85.1915 120.383 84.7302 120.082 84.7648C119.85 84.7879 119.631 84.8109 119.399 84.8225C119.099 84.8225 119.11 85.2837 119.411 85.2837Z" fill="#FFF6C4"/>
<path d="M58.8561 86.8983C58.8099 86.8983 58.7636 86.8638 58.752 86.8176C57.6647 83.4386 57.6763 79.7022 57.6763 79.6676C57.6763 79.5984 57.7341 79.5522 57.7919 79.5522C57.8614 79.5522 57.9076 79.6099 57.9076 79.6676C57.9076 79.7022 57.8961 83.404 58.9718 86.7484C58.9949 86.8061 58.9602 86.8753 58.9024 86.8983C58.8793 86.8983 58.8677 86.8983 58.8561 86.8983Z" fill="#2D1958"/>
<path d="M57.1673 79.4484C56.8319 79.5176 57.6069 83.0119 57.8151 83.1849C58.0233 83.3579 63.6103 81.8933 63.7259 81.6857C63.8416 81.4781 60.7069 80.7977 60.6259 80.7055C60.5565 80.6132 63.0435 79.0794 63.0088 78.8372C62.9856 78.6066 58.0349 79.2754 57.1673 79.4484Z" fill="url(#paint4_linear)"/>
<path opacity="0.53" d="M61.0308 80.8323C59.7584 80.9823 58.4744 80.9938 57.202 80.8439C57.3756 81.8587 57.6879 83.0811 57.8035 83.1849C58.0117 83.3579 63.5987 81.8933 63.7144 81.6857C63.8185 81.5243 61.8983 81.063 61.0308 80.8323Z" fill="#FFE65F"/>
<path d="M57.7919 80.2557C58.3124 80.1404 58.8445 80.0481 59.3766 79.9905C59.6774 79.9559 59.6311 79.4946 59.3303 79.5292C58.7983 79.5869 58.2662 79.6676 57.7456 79.7944C57.4565 79.8636 57.5027 80.3249 57.7919 80.2557Z" fill="#FFF6C4"/>
<path d="M60.1748 79.8982C60.4062 79.8751 60.626 79.8405 60.8573 79.8059C61.1465 79.7483 61.1118 79.287 60.811 79.3446C60.5913 79.3908 60.3599 79.4254 60.1286 79.4369C59.8278 79.4715 59.8741 79.9328 60.1748 79.8982Z" fill="#FFF6C4"/>
<path d="M94.4949 66.6591C94.4486 67.1204 94.0322 67.4663 93.5579 67.4202C93.0953 67.3741 92.7482 66.9589 92.7945 66.4861C92.8408 66.0248 93.2572 65.6788 93.7315 65.725C94.2057 65.7826 94.5412 66.1978 94.4949 66.6591Z" fill="#2D1958"/>
<path d="M93.5926 66.5669C93.5463 66.5669 93.5116 66.5323 93.5001 66.4977C92.9911 63.7414 93.3844 60.8238 93.3844 60.8007C93.3959 60.7546 93.4306 60.72 93.4885 60.72C93.5348 60.7315 93.5695 60.7776 93.5695 60.8238C93.5695 60.8584 93.1762 63.7414 93.6852 66.4631C93.6967 66.5092 93.662 66.5553 93.6157 66.5669C93.6042 66.5669 93.5926 66.5669 93.5926 66.5669Z" fill="#2D1958"/>
<path d="M93.0142 60.57C92.7482 60.5931 92.9911 63.3955 93.1415 63.5569C93.2919 63.7184 97.8031 63.1302 97.9188 62.9803C98.0345 62.8304 95.6516 61.977 95.5938 61.9078C95.5475 61.8271 97.6412 60.8814 97.6527 60.6969C97.6527 60.5124 93.7083 60.5239 93.0142 60.57Z" fill="url(#paint5_linear)"/>
<path opacity="0.53" d="M95.8945 62.0577C94.8882 62.0462 93.8818 61.9308 92.8986 61.6771C92.9333 62.4959 93.049 63.4762 93.1299 63.5684C93.2803 63.7299 97.7916 63.1417 97.9072 62.9918C98.0113 62.8765 96.5538 62.3229 95.8945 62.0577Z" fill="#FFE65F"/>
<path d="M93.4191 61.2735C93.8355 61.2389 94.2635 61.2159 94.6799 61.2274C94.9113 61.2389 94.9229 60.8699 94.6915 60.8583C94.2635 60.8468 93.8471 60.8583 93.4307 60.9045C93.1993 60.9275 93.1877 61.2966 93.4191 61.2735Z" fill="#FFF6C4"/>
<path d="M95.3161 61.2389C95.5012 61.2389 95.6747 61.2389 95.8598 61.2274C96.0911 61.2159 96.1027 60.8468 95.8714 60.8584C95.6863 60.8699 95.5128 60.8699 95.3277 60.8699C95.0963 60.8584 95.0848 61.2274 95.3161 61.2389Z" fill="#FFF6C4"/>
<path d="M73.0375 111.497C72.9913 111.497 72.945 111.462 72.9334 111.416C71.8461 108.037 71.8577 104.301 71.8577 104.266C71.8577 104.208 71.9039 104.151 71.9733 104.151C72.0427 104.151 72.089 104.208 72.089 104.266C72.089 104.301 72.0775 108.002 73.1532 111.347C73.1763 111.404 73.1416 111.474 73.0838 111.497C73.0607 111.497 73.0491 111.497 73.0375 111.497Z" fill="#2D1958"/>
<path d="M71.3488 104.047C71.0133 104.116 71.7883 107.61 71.9966 107.783C72.2048 107.956 77.7917 106.492 77.9074 106.284C78.0231 106.077 74.8884 105.396 74.8074 105.304C74.738 105.212 77.225 103.678 77.1903 103.436C77.1671 103.205 72.2163 103.874 71.3488 104.047Z" fill="url(#paint6_linear)"/>
<path opacity="0.53" d="M75.2238 105.442C73.9514 105.592 72.6674 105.604 71.395 105.454C71.5685 106.469 71.8809 107.691 71.9965 107.795C72.2047 107.968 77.7917 106.503 77.9074 106.296C78 106.123 76.0798 105.673 75.2238 105.442Z" fill="#FFE65F"/>
<path d="M71.9735 104.866C72.494 104.75 73.0261 104.658 73.5582 104.6C73.859 104.566 73.8127 104.104 73.5119 104.139C72.9798 104.197 72.4478 104.277 71.9272 104.404C71.638 104.462 71.6843 104.923 71.9735 104.866Z" fill="#FFF6C4"/>
<path d="M74.3562 104.508C74.5876 104.485 74.8074 104.45 75.0387 104.416C75.3279 104.358 75.2932 103.897 74.9925 103.955C74.7727 104.001 74.5413 104.035 74.31 104.047C74.0208 104.07 74.0555 104.531 74.3562 104.508Z" fill="#FFF6C4"/>
<path d="M98.0113 128.149C97.9534 128.149 97.9072 128.115 97.8956 128.057C97.3288 124.551 97.9072 120.861 97.9072 120.826C97.9187 120.769 97.9766 120.723 98.0344 120.734C98.0922 120.746 98.1385 120.803 98.1269 120.861C98.1269 120.896 97.5486 124.551 98.1154 128.023C98.1269 128.08 98.0807 128.149 98.0228 128.149H98.0113Z" fill="#2D1958"/>
<path d="M97.4448 120.538C97.1093 120.55 97.3407 124.125 97.5142 124.332C97.6993 124.54 103.437 123.929 103.587 123.733C103.737 123.548 100.73 122.406 100.672 122.303C100.614 122.199 103.309 121.057 103.309 120.815C103.333 120.573 98.3355 120.492 97.4448 120.538Z" fill="url(#paint7_linear)"/>
<path opacity="0.53" d="M101.065 122.487C99.7811 122.441 98.5087 122.268 97.271 121.922C97.2941 122.96 97.4098 124.205 97.5139 124.332C97.699 124.54 103.436 123.929 103.587 123.733C103.714 123.583 101.875 122.845 101.065 122.487Z" fill="#FFE65F"/>
<path d="M97.9418 121.426C98.474 121.391 99.0061 121.38 99.5497 121.403C99.8505 121.415 99.8736 120.953 99.5729 120.942C99.0408 120.919 98.5087 120.919 97.965 120.965C97.6758 120.988 97.6411 121.449 97.9418 121.426Z" fill="#FFF6C4"/>
<path d="M100.348 121.438C100.579 121.449 100.799 121.449 101.03 121.438C101.331 121.426 101.354 120.965 101.053 120.976C100.822 120.988 100.602 120.988 100.371 120.976C100.082 120.953 100.047 121.415 100.348 121.438Z" fill="#FFF6C4"/>
<path d="M134.009 116.375C133.951 116.375 133.905 116.34 133.893 116.283C133.326 112.777 133.905 109.087 133.905 109.052C133.916 108.994 133.974 108.948 134.032 108.96C134.09 108.971 134.136 109.029 134.124 109.087C134.124 109.121 133.546 112.777 134.113 116.248C134.124 116.306 134.078 116.375 134.02 116.375C134.032 116.375 134.02 116.375 134.009 116.375Z" fill="#2D1958"/>
<path d="M133.453 108.752C133.118 108.764 133.349 112.339 133.523 112.546C133.708 112.754 139.445 112.143 139.595 111.947C139.746 111.762 136.738 110.62 136.68 110.516C136.623 110.413 139.318 109.271 139.318 109.029C139.329 108.798 134.332 108.717 133.453 108.752Z" fill="url(#paint8_linear)"/>
<path opacity="0.53" d="M137.062 110.713C135.778 110.666 134.506 110.493 133.268 110.147C133.292 111.185 133.407 112.431 133.511 112.558C133.696 112.765 139.434 112.154 139.584 111.958C139.711 111.808 137.884 111.07 137.062 110.713Z" fill="#FFE65F"/>
<path d="M133.939 109.652C134.471 109.617 135.004 109.605 135.547 109.628C135.848 109.64 135.871 109.179 135.57 109.167C135.038 109.144 134.506 109.144 133.962 109.19C133.673 109.213 133.65 109.675 133.939 109.652Z" fill="#FFF6C4"/>
<path d="M136.357 109.652C136.588 109.663 136.808 109.663 137.039 109.652C137.34 109.64 137.363 109.179 137.062 109.19C136.831 109.202 136.611 109.202 136.38 109.19C136.079 109.179 136.056 109.64 136.357 109.652Z" fill="#FFF6C4"/>
<path d="M134.992 89.9428C134.957 89.9428 134.934 89.9313 134.911 89.9082C134.853 89.8621 134.842 89.7813 134.888 89.7237C135.015 89.5738 135.142 89.4123 135.258 89.2393C135.304 89.1817 135.385 89.1701 135.443 89.2047C135.501 89.2508 135.512 89.3316 135.478 89.3892C135.35 89.5622 135.223 89.7237 135.096 89.8851C135.073 89.9197 135.038 89.9428 134.992 89.9428ZM136.033 88.409C136.01 88.409 135.987 88.409 135.964 88.3975C135.906 88.3629 135.883 88.2821 135.917 88.2245C136.021 88.0515 136.114 87.867 136.206 87.6824C136.241 87.6133 136.322 87.5902 136.38 87.6248C136.449 87.6594 136.472 87.7401 136.438 87.7978C136.345 87.9823 136.241 88.1668 136.149 88.3513C136.125 88.3859 136.079 88.409 136.033 88.409ZM136.831 86.7483C136.82 86.7483 136.796 86.7483 136.785 86.7368C136.715 86.7137 136.681 86.633 136.715 86.5638C136.796 86.3793 136.866 86.1832 136.935 85.9872C136.958 85.918 137.039 85.8834 137.097 85.9065C137.167 85.9295 137.201 86.0103 137.178 86.0679C137.109 86.264 137.039 86.46 136.958 86.6445C136.935 86.7137 136.889 86.7483 136.831 86.7483ZM137.421 84.9954C137.409 84.9954 137.398 84.9954 137.386 84.9954C137.317 84.9724 137.271 84.9032 137.294 84.834C137.352 84.6379 137.398 84.4419 137.444 84.2458C137.456 84.1766 137.537 84.1305 137.606 84.1536C137.675 84.1651 137.722 84.2458 137.699 84.315C137.652 84.5226 137.595 84.7186 137.537 84.9147C137.537 84.9608 137.479 84.9954 137.421 84.9954ZM137.837 83.1964C137.826 83.1964 137.826 83.1964 137.814 83.1964C137.745 83.1848 137.699 83.1156 137.71 83.0465C137.745 82.8504 137.78 82.6428 137.814 82.4468C137.826 82.3776 137.895 82.3199 137.965 82.3315C138.034 82.343 138.08 82.4122 138.08 82.4814C138.046 82.689 138.011 82.8965 137.976 83.0926C137.953 83.1502 137.895 83.1964 137.837 83.1964ZM138.08 81.3627H138.069C137.999 81.3512 137.942 81.2935 137.953 81.2243C137.976 81.0168 137.988 80.8207 137.999 80.6131C137.999 80.5439 138.057 80.4863 138.138 80.4863C138.208 80.4863 138.265 80.5555 138.265 80.6247C138.254 80.8322 138.231 81.0398 138.219 81.2474C138.208 81.3166 138.15 81.3627 138.08 81.3627ZM138.173 79.5176C138.103 79.5176 138.046 79.4599 138.046 79.3792C138.046 79.2523 138.046 79.1255 138.046 78.9986V78.768C138.046 78.6988 138.103 78.6411 138.173 78.6411C138.242 78.6411 138.3 78.6988 138.3 78.768V78.9986C138.3 79.1255 138.3 79.2639 138.3 79.3907C138.312 79.4599 138.254 79.5176 138.173 79.5176ZM138.138 77.6724C138.069 77.6724 138.011 77.6147 138.011 77.5455C137.999 77.338 137.988 77.1419 137.965 76.9343C137.965 76.8651 138.011 76.7959 138.08 76.7959C138.15 76.7844 138.219 76.8421 138.219 76.9113C138.231 77.1188 138.254 77.3264 138.265 77.534C138.277 77.6032 138.219 77.6724 138.138 77.6724ZM137.976 75.8387C137.907 75.8387 137.849 75.7926 137.849 75.7234C137.826 75.5158 137.791 75.3198 137.768 75.1122C137.756 75.043 137.803 74.9738 137.884 74.9623C137.953 74.9508 138.023 74.9969 138.034 75.0776C138.069 75.2852 138.092 75.4928 138.115 75.6888C138.127 75.758 138.069 75.8272 137.999 75.8387C137.976 75.8387 137.976 75.8387 137.976 75.8387ZM137.675 74.0051C137.618 74.0051 137.56 73.959 137.548 73.9013C137.514 73.7053 137.467 73.4977 137.421 73.3016C137.409 73.2324 137.456 73.1632 137.525 73.1402C137.595 73.1287 137.664 73.1748 137.687 73.244C137.733 73.4516 137.768 73.6476 137.814 73.8552C137.826 73.9244 137.78 73.9936 137.71 74.0051C137.699 74.0051 137.687 74.0051 137.675 74.0051ZM137.259 72.2061C137.201 72.2061 137.143 72.1715 137.132 72.1138C137.074 71.9178 137.028 71.7217 136.97 71.5257C136.947 71.4565 136.993 71.3873 137.062 71.3642C137.132 71.3411 137.201 71.3873 137.224 71.4565C137.282 71.6525 137.34 71.8486 137.386 72.0561C137.409 72.1253 137.363 72.1945 137.294 72.2176C137.282 72.2061 137.271 72.2061 137.259 72.2061ZM136.727 70.4416C136.669 70.4416 136.623 70.407 136.6 70.3494C136.53 70.1533 136.461 69.9688 136.392 69.7727C136.368 69.7035 136.403 69.6344 136.472 69.5998C136.542 69.5767 136.611 69.6113 136.646 69.6805C136.715 69.8765 136.785 70.0726 136.854 70.2686C136.877 70.3378 136.843 70.407 136.773 70.4301C136.762 70.4416 136.739 70.4416 136.727 70.4416ZM136.079 68.7118C136.033 68.7118 135.975 68.6772 135.964 68.631C135.883 68.4465 135.802 68.2505 135.721 68.066C135.686 67.9968 135.721 67.9276 135.79 67.893C135.859 67.8584 135.929 67.893 135.964 67.9622C136.045 68.1467 136.125 68.3427 136.206 68.5273C136.23 68.5964 136.206 68.6656 136.137 68.7002C136.114 68.7118 136.091 68.7118 136.079 68.7118ZM135.316 67.028C135.27 67.028 135.223 67.005 135.2 66.9589C135.108 66.7743 135.015 66.5898 134.922 66.4168C134.888 66.3476 134.911 66.2785 134.98 66.2439C135.038 66.2093 135.119 66.2323 135.154 66.3015C135.246 66.486 135.339 66.6705 135.431 66.8551C135.466 66.9243 135.431 66.9935 135.374 67.028C135.35 67.028 135.327 67.028 135.316 67.028ZM134.437 65.402C134.39 65.402 134.344 65.3789 134.321 65.3328C134.217 65.1598 134.113 64.9868 134.009 64.8023C133.974 64.7446 133.986 64.6639 134.055 64.6178C134.113 64.5832 134.194 64.5947 134.24 64.6639C134.344 64.8369 134.46 65.0214 134.564 65.1944C134.599 65.2521 134.575 65.3328 134.518 65.3789C134.471 65.402 134.448 65.402 134.437 65.402ZM133.442 63.8451C133.396 63.8451 133.361 63.8221 133.338 63.7875C133.222 63.6145 133.106 63.453 132.979 63.2916C132.933 63.2339 132.944 63.1532 133.014 63.1071C133.072 63.0609 133.153 63.0725 133.199 63.1417C133.315 63.3146 133.442 63.4761 133.558 63.6491C133.604 63.7067 133.581 63.7875 133.523 63.8336C133.488 63.8336 133.465 63.8451 133.442 63.8451ZM132.331 62.3575C132.297 62.3575 132.25 62.3459 132.227 62.3113C132.1 62.1499 131.973 61.9884 131.834 61.8385C131.788 61.7808 131.799 61.7001 131.846 61.654C131.903 61.6079 131.984 61.6194 132.031 61.6655C132.169 61.827 132.297 61.9884 132.424 62.1499C132.47 62.2075 132.459 62.2883 132.401 62.3344C132.389 62.3459 132.366 62.3575 132.331 62.3575ZM131.128 60.962C131.094 60.962 131.059 60.9505 131.036 60.9159C130.897 60.766 130.758 60.6161 130.608 60.4662C130.562 60.42 130.562 60.3278 130.608 60.2816C130.666 60.2355 130.747 60.2355 130.793 60.2816C130.943 60.4316 131.082 60.5815 131.221 60.7314C131.267 60.7891 131.267 60.8698 131.209 60.9159C131.198 60.9505 131.163 60.962 131.128 60.962ZM129.821 59.6474C129.787 59.6474 129.752 59.6358 129.729 59.6128C129.578 59.4744 129.428 59.336 129.278 59.1976C129.22 59.1515 129.22 59.0707 129.266 59.0131C129.312 58.9554 129.393 58.9554 129.451 59.0015C129.602 59.1399 129.763 59.2783 129.914 59.4167C129.972 59.4628 129.972 59.5436 129.925 59.6012C129.891 59.6358 129.856 59.6474 129.821 59.6474ZM128.422 58.4365C128.387 58.4365 128.364 58.4249 128.341 58.4019C128.179 58.275 128.017 58.1482 127.855 58.0213C127.797 57.9752 127.785 57.8944 127.832 57.8368C127.878 57.7791 127.959 57.7676 128.017 57.8137C128.179 57.9406 128.341 58.0674 128.503 58.1943C128.56 58.2404 128.572 58.3211 128.526 58.3788C128.503 58.4134 128.468 58.4365 128.422 58.4365ZM126.941 57.3294C126.918 57.3294 126.883 57.3178 126.872 57.3063C126.71 57.191 126.536 57.0757 126.363 56.9603C126.305 56.9257 126.282 56.845 126.328 56.7758C126.363 56.7181 126.455 56.6951 126.513 56.7412C126.687 56.8565 126.86 56.9719 127.022 57.0872C127.08 57.1333 127.091 57.214 127.057 57.2717C127.022 57.3063 126.987 57.3294 126.941 57.3294ZM125.391 56.326C125.368 56.326 125.345 56.3145 125.322 56.303C125.148 56.1992 124.975 56.0954 124.79 55.9916C124.732 55.957 124.709 55.8763 124.743 55.8186C124.778 55.761 124.859 55.7379 124.917 55.7725C125.102 55.8763 125.275 55.9801 125.449 56.0839C125.507 56.1185 125.53 56.1992 125.495 56.2684C125.472 56.303 125.426 56.326 125.391 56.326ZM123.76 55.4381C123.737 55.4381 123.714 55.4381 123.702 55.4265C123.517 55.3343 123.332 55.242 123.147 55.1498C123.078 55.1152 123.054 55.0344 123.089 54.9768C123.124 54.9076 123.205 54.8845 123.263 54.9191C123.448 55.0114 123.633 55.1036 123.818 55.1959C123.887 55.2305 123.91 55.3112 123.876 55.3689C123.853 55.415 123.806 55.4381 123.76 55.4381ZM122.094 54.6423C122.071 54.6423 122.06 54.6423 122.037 54.6308C121.851 54.5501 121.666 54.4693 121.47 54.3886C121.4 54.3656 121.377 54.2848 121.4 54.2156C121.423 54.1464 121.504 54.1234 121.574 54.1464C121.759 54.2272 121.956 54.3079 122.141 54.4002C122.21 54.4347 122.233 54.5039 122.21 54.5731C122.187 54.6077 122.141 54.6423 122.094 54.6423ZM120.382 53.9158C120.371 53.9158 120.348 53.9158 120.336 53.9043C120.14 53.8235 119.954 53.7543 119.758 53.6851C119.688 53.6621 119.654 53.5814 119.677 53.5122C119.7 53.443 119.781 53.4084 119.85 53.4314C120.047 53.5006 120.232 53.5814 120.429 53.6505C120.498 53.6736 120.533 53.7543 120.498 53.8235C120.487 53.8927 120.44 53.9158 120.382 53.9158ZM118.647 53.293C118.636 53.293 118.624 53.293 118.601 53.2815C118.404 53.2123 118.208 53.1547 118.011 53.097C117.942 53.0739 117.907 53.0047 117.93 52.9355C117.953 52.8663 118.023 52.8318 118.092 52.8548C118.289 52.9125 118.485 52.9817 118.682 53.0509C118.751 53.0739 118.786 53.1431 118.763 53.2123C118.751 53.2584 118.705 53.293 118.647 53.293ZM116.878 52.751C116.866 52.751 116.854 52.751 116.843 52.751C116.646 52.6934 116.45 52.6472 116.253 52.5896C116.183 52.5665 116.137 52.4973 116.16 52.4281C116.183 52.3589 116.253 52.3128 116.322 52.3359C116.519 52.382 116.716 52.4397 116.924 52.4973C116.993 52.5204 117.039 52.5896 117.016 52.6588C116.982 52.7164 116.924 52.751 116.878 52.751ZM99.7811 52.5204C99.7233 52.5204 99.677 52.4858 99.6539 52.4281C99.6307 52.3589 99.6654 52.2897 99.7348 52.2667C99.7464 52.2667 99.9546 52.1975 100.336 52.0937C100.406 52.0706 100.475 52.1167 100.498 52.1859C100.521 52.2551 100.475 52.3243 100.406 52.3474C100.024 52.4512 99.8274 52.5204 99.8158 52.5204C99.8042 52.5204 99.7927 52.5204 99.7811 52.5204ZM115.073 52.3013C115.061 52.3013 115.05 52.3013 115.05 52.3013C114.853 52.2551 114.645 52.209 114.448 52.1744C114.379 52.1629 114.333 52.0937 114.344 52.0245C114.356 51.9553 114.425 51.9092 114.495 51.9207C114.691 51.9668 114.9 52.0014 115.096 52.0476C115.166 52.0591 115.212 52.1283 115.2 52.209C115.189 52.2667 115.131 52.3013 115.073 52.3013ZM101.574 52.0706C101.516 52.0706 101.458 52.0245 101.447 51.9668C101.435 51.8976 101.481 51.8284 101.551 51.8169C101.736 51.7823 101.944 51.7362 102.164 51.7016C102.233 51.6901 102.303 51.7362 102.314 51.8054C102.326 51.8746 102.28 51.9438 102.21 51.9553C101.99 51.9899 101.794 52.036 101.609 52.0706C101.597 52.0706 101.586 52.0706 101.574 52.0706ZM113.257 51.9553C113.245 51.9553 113.245 51.9553 113.234 51.9553C113.026 51.9207 112.829 51.8861 112.621 51.863C112.551 51.8515 112.494 51.7823 112.505 51.7131C112.517 51.6439 112.586 51.5978 112.655 51.5978C112.864 51.6324 113.06 51.6555 113.269 51.6901C113.338 51.7016 113.384 51.7708 113.373 51.84C113.373 51.9092 113.315 51.9553 113.257 51.9553ZM103.402 51.7708C103.332 51.7708 103.286 51.7246 103.274 51.6555C103.263 51.5863 103.321 51.5171 103.39 51.5055C103.587 51.4825 103.795 51.4594 104.003 51.4248C104.073 51.4133 104.142 51.4709 104.154 51.5401C104.165 51.6093 104.107 51.6785 104.038 51.6901C103.83 51.7131 103.621 51.7362 103.425 51.7592C103.413 51.7708 103.413 51.7708 103.402 51.7708ZM111.418 51.7016H111.406C111.198 51.6785 111.001 51.6555 110.793 51.6439C110.724 51.6324 110.666 51.5747 110.677 51.5055C110.689 51.4363 110.758 51.3787 110.816 51.3902C111.024 51.4133 111.221 51.4248 111.429 51.4479C111.499 51.4594 111.557 51.5171 111.545 51.5978C111.545 51.6555 111.487 51.7016 111.418 51.7016ZM105.252 51.5863C105.183 51.5863 105.125 51.5286 105.125 51.4594C105.125 51.3902 105.171 51.321 105.241 51.321C105.438 51.3095 105.646 51.298 105.865 51.2864C105.935 51.2864 106.004 51.3326 106.004 51.4133C106.004 51.4825 105.958 51.5517 105.877 51.5517C105.669 51.5517 105.461 51.5632 105.252 51.5863ZM109.567 51.5517C109.347 51.5401 109.151 51.5286 108.942 51.5171C108.873 51.5171 108.815 51.4479 108.815 51.3787C108.815 51.3095 108.861 51.2518 108.954 51.2518C109.162 51.2634 109.359 51.2749 109.579 51.2864C109.648 51.2864 109.706 51.3556 109.706 51.4248C109.694 51.494 109.636 51.5517 109.567 51.5517ZM107.103 51.494C107.034 51.494 106.976 51.4363 106.976 51.3671C106.976 51.298 107.034 51.2403 107.103 51.2288C107.288 51.2288 107.473 51.2288 107.658 51.2288H107.716C107.786 51.2288 107.844 51.2864 107.844 51.3556C107.844 51.4248 107.786 51.4825 107.716 51.4825H107.658C107.473 51.494 107.288 51.494 107.103 51.494Z" fill="#2D1958"/>
<path d="M67.8208 57.168C67.6126 57.168 67.4159 57.168 67.1961 57.168C67.1267 57.168 67.0689 57.1103 67.0689 57.0296C67.0689 56.9604 67.1267 56.9027 67.1961 56.9027C67.4043 56.9027 67.6126 56.9027 67.8092 56.9027C67.8786 56.9027 67.9364 56.9604 67.9364 57.0296C67.948 57.1103 67.8902 57.168 67.8208 57.168ZM69.0585 57.1564C68.9891 57.1564 68.9312 57.0988 68.9312 57.0296C68.9312 56.9604 68.9891 56.9027 69.0585 56.8912C69.2667 56.8796 69.4749 56.8796 69.6715 56.8681C69.7409 56.8681 69.8103 56.9258 69.8103 56.995C69.8103 57.0642 69.7525 57.1334 69.6831 57.1334C69.4749 57.1449 69.2782 57.1449 69.0585 57.1564ZM65.97 57.1334C65.97 57.1334 65.9584 57.1334 65.97 57.1334C65.7618 57.1218 65.5536 57.1103 65.3454 57.0988C65.276 57.0988 65.2181 57.0296 65.2181 56.9604C65.2181 56.8912 65.276 56.8335 65.3569 56.8335C65.5651 56.845 65.7734 56.8566 65.97 56.8681C66.0394 56.8681 66.0972 56.9373 66.0972 57.0065C66.0972 57.0757 66.0394 57.1334 65.97 57.1334ZM70.9092 57.0642C70.8398 57.0642 70.782 57.0065 70.782 56.9488C70.782 56.8796 70.8283 56.8105 70.8977 56.8105C71.1174 56.7989 71.3141 56.7759 71.5107 56.7643C71.5801 56.7643 71.6495 56.8105 71.6495 56.8796C71.6611 56.9488 71.6033 57.018 71.5339 57.018C71.3372 57.0296 71.1406 57.0411 70.9092 57.0642ZM64.1192 57.0065H64.1077C63.8995 56.9834 63.7028 56.9719 63.4946 56.9488C63.4252 56.9373 63.3674 56.8796 63.3789 56.8105C63.3905 56.7413 63.4483 56.6836 63.5177 56.6951C63.7259 56.7182 63.9342 56.7413 64.1308 56.7528C64.2002 56.7643 64.258 56.822 64.2465 56.8912C64.2465 56.9488 64.1886 57.0065 64.1192 57.0065ZM72.7484 56.8681C72.679 56.8681 72.6328 56.822 72.6212 56.7528C72.6096 56.6836 72.6675 56.6144 72.7369 56.6029C73.1301 56.5452 73.3383 56.5106 73.3383 56.5106C73.4078 56.4991 73.4772 56.5452 73.4887 56.6144C73.5003 56.6836 73.454 56.7528 73.3846 56.7643C73.3846 56.7643 73.1648 56.7989 72.7716 56.8566C72.76 56.8681 72.76 56.8681 72.7484 56.8681ZM62.28 56.7989C62.2685 56.7989 62.2685 56.7989 62.2569 56.7989C62.0487 56.7759 61.852 56.7413 61.6438 56.7067C61.5744 56.6951 61.5282 56.6259 61.5282 56.5567C61.5397 56.4875 61.5976 56.4414 61.6785 56.4414C61.8867 56.476 62.0834 56.4991 62.2916 56.5337C62.361 56.5452 62.4188 56.6144 62.4073 56.6836C62.3957 56.7528 62.3379 56.7989 62.28 56.7989ZM60.4408 56.5106C60.4293 56.5106 60.4293 56.5106 60.4177 56.5106C60.2211 56.476 60.0129 56.4299 59.8046 56.3953C59.7352 56.3838 59.689 56.3146 59.7005 56.2454C59.7121 56.1762 59.7815 56.13 59.8509 56.1416C60.0476 56.1877 60.2558 56.2223 60.4524 56.2569C60.5218 56.2684 60.5681 56.3376 60.5565 56.4068C60.5565 56.4645 60.5102 56.5106 60.4408 56.5106ZM58.6248 56.1185C58.6132 56.1185 58.6016 56.1185 58.5901 56.1185C58.3934 56.0724 58.1852 56.0263 57.9886 55.9686C57.9192 55.9455 57.8729 55.8763 57.896 55.8071C57.9192 55.7379 57.9886 55.6918 58.058 55.7149C58.2546 55.761 58.4513 55.8187 58.6595 55.8648C58.7289 55.8763 58.7752 55.9571 58.752 56.0263C58.7405 56.0839 58.6942 56.1185 58.6248 56.1185ZM56.8434 55.6457C56.8319 55.6457 56.8203 55.6457 56.8087 55.6457C56.6121 55.588 56.4154 55.5304 56.2188 55.4612C56.1494 55.4381 56.1147 55.3689 56.1378 55.2997C56.1609 55.2305 56.2304 55.1959 56.2998 55.219C56.4964 55.2767 56.693 55.3458 56.8897 55.392C56.9591 55.415 56.9938 55.4842 56.9822 55.5534C56.9475 55.6111 56.9013 55.6457 56.8434 55.6457ZM55.0736 55.0806C55.0621 55.0806 55.0389 55.0806 55.0274 55.0691C54.8307 54.9999 54.6341 54.9307 54.449 54.8615C54.3796 54.8384 54.3449 54.7577 54.368 54.6885C54.3912 54.6193 54.4721 54.5847 54.5415 54.6078C54.7382 54.677 54.9233 54.7462 55.1199 54.8154C55.1893 54.8384 55.224 54.9192 55.2009 54.9768C55.1777 55.046 55.1315 55.0806 55.0736 55.0806ZM53.3501 54.4117C53.3385 54.4117 53.3154 54.4117 53.3038 54.4002C53.1188 54.3195 52.9221 54.2387 52.737 54.158C52.6676 54.1234 52.6445 54.0542 52.6676 53.985C52.7023 53.9158 52.7717 53.8928 52.8411 53.9158C53.0262 53.9966 53.2229 54.0773 53.4079 54.158C53.4773 54.1811 53.5005 54.2618 53.4773 54.331C53.4542 54.3771 53.3964 54.4117 53.3501 54.4117ZM51.6613 53.6391C51.6381 53.6391 51.6266 53.6391 51.6034 53.6275C51.4184 53.5353 51.2333 53.443 51.0482 53.3508C50.9788 53.3162 50.9557 53.2354 50.9904 53.1778C51.0251 53.1086 51.106 53.0855 51.1639 53.1201C51.349 53.2124 51.534 53.3046 51.7075 53.3969C51.777 53.4315 51.8001 53.5122 51.7654 53.5699C51.7654 53.616 51.7191 53.6391 51.6613 53.6391ZM50.0303 52.7626C50.0072 52.7626 49.984 52.7626 49.9609 52.7395C49.7874 52.6357 49.6023 52.532 49.4288 52.4282C49.371 52.3936 49.3478 52.3128 49.3825 52.2436C49.4172 52.186 49.4982 52.1629 49.5676 52.1975C49.7411 52.3013 49.9146 52.4051 50.0997 52.5089C50.1575 52.5435 50.1807 52.6242 50.146 52.6934C50.1228 52.7395 50.0766 52.7626 50.0303 52.7626ZM48.4571 51.7824C48.434 51.7824 48.4109 51.7708 48.3877 51.7593C48.2142 51.644 48.0407 51.5286 47.8788 51.4133C47.8209 51.3672 47.8094 51.2865 47.8441 51.2288C47.8903 51.1711 47.9713 51.1596 48.0292 51.1942C48.2027 51.3095 48.3646 51.4249 48.5381 51.5402C48.596 51.5748 48.6191 51.667 48.5728 51.7247C48.5497 51.7593 48.5034 51.7824 48.4571 51.7824ZM46.965 50.7099C46.9418 50.7099 46.9071 50.6983 46.884 50.6868C46.7221 50.5599 46.5601 50.4331 46.3982 50.3062C46.3403 50.2601 46.3288 50.1794 46.375 50.1217C46.4213 50.064 46.5023 50.0525 46.5601 50.0986C46.7221 50.2255 46.884 50.3523 47.0459 50.4792C47.1038 50.5253 47.1153 50.6061 47.0691 50.6637C47.0344 50.6868 46.9997 50.7099 46.965 50.7099ZM45.5306 49.522C45.4959 49.522 45.4728 49.5105 45.4381 49.4874C45.2877 49.349 45.1258 49.2106 44.9754 49.0723C44.9176 49.0261 44.9176 48.9454 44.9638 48.8877C45.0101 48.8301 45.0911 48.8301 45.1489 48.8762C45.2993 49.0146 45.4497 49.153 45.6 49.2914C45.6579 49.3375 45.6579 49.4182 45.6116 49.4759C45.6116 49.5105 45.5653 49.522 45.5306 49.522ZM44.1888 48.2535C44.1541 48.2535 44.1194 48.2419 44.0963 48.2189C43.9575 48.0689 43.8071 47.919 43.6683 47.7691C43.622 47.7114 43.622 47.6307 43.6683 47.5846C43.7261 47.5385 43.8071 47.5385 43.8534 47.5846C43.9922 47.7345 44.131 47.8844 44.2814 48.0228C44.3276 48.0689 44.3276 48.1612 44.2814 48.2073C44.2582 48.2419 44.2235 48.2535 44.1888 48.2535ZM42.9396 46.8927C42.9049 46.8927 42.8701 46.8811 42.8354 46.8465C42.6966 46.6966 42.5694 46.5351 42.4306 46.3737C42.3843 46.316 42.3959 46.2353 42.4537 46.1892C42.5116 46.143 42.5925 46.1546 42.6388 46.2122C42.766 46.3737 42.9049 46.5236 43.0321 46.6851C43.0784 46.7427 43.0784 46.8235 43.0205 46.8696C42.9974 46.8811 42.9743 46.8927 42.9396 46.8927ZM41.7828 45.4511C41.7481 45.4511 41.7019 45.428 41.6787 45.3934C41.5515 45.232 41.4358 45.059 41.3086 44.8976C41.2623 44.8399 41.2739 44.7592 41.3433 44.713C41.4011 44.6669 41.4821 44.6784 41.5283 44.7476C41.644 44.9091 41.7713 45.0821 41.8869 45.2435C41.9332 45.3012 41.9216 45.3819 41.8638 45.428C41.8291 45.4511 41.806 45.4511 41.7828 45.4511Z" fill="#2D1958"/>
<g clip-path="url(#clip1)">
<path opacity="0.57" d="M54.8299 78.6605C53.6216 78.6605 52.5062 79.0638 51.6232 79.7464C51.6232 79.7308 51.6232 79.7308 51.6232 79.7153C51.6232 77.8073 50.074 76.2561 48.1686 76.2561C47.332 76.2561 46.5575 76.5508 45.9533 77.0627C45.1942 74.3015 42.6691 72.2694 39.6637 72.2694C36.426 72.2694 33.7615 74.6273 33.2348 77.7142C32.6926 77.373 32.0574 77.1713 31.3758 77.1713C29.7027 77.1713 28.3085 78.3347 27.9367 79.9015C27.2396 79.2189 26.2791 78.7846 25.2257 78.7846C23.1033 78.7846 21.3683 80.5065 21.3683 82.6472C21.3683 82.7402 21.3683 82.8333 21.3838 82.9109C20.8571 82.5851 20.2374 82.3835 19.5713 82.3835C17.6968 82.399 16.1632 83.9347 16.1632 85.8272C16.1632 87.7197 17.6968 89.2554 19.5868 89.2554H54.8299C57.7578 89.2554 60.128 86.882 60.128 83.9502C60.128 81.0184 57.7578 78.6605 54.8299 78.6605Z" fill="url(#paint9_linear)" fill-opacity="0.5"/>
</g>
</g>
<path opacity="0.57" d="M61.0831 7.77876C59.7617 7.77876 58.542 8.21917 57.5764 8.96447C57.5764 8.94753 57.5764 8.94753 57.5764 8.93059C57.5764 6.84713 55.8824 5.15325 53.7987 5.15325C52.884 5.15325 52.0369 5.47509 51.3763 6.03407C50.5462 3.01897 47.7849 0.799988 44.4985 0.799988C40.958 0.799988 38.0442 3.37468 37.4683 6.74549C36.8753 6.37284 36.1808 6.15264 35.4354 6.15264C33.6059 6.15264 32.0812 7.42304 31.6747 9.13386C30.9123 8.38855 29.862 7.91427 28.7101 7.91427C26.3893 7.91427 24.492 9.79447 24.492 12.132C24.492 12.2337 24.492 12.3353 24.5089 12.42C23.9329 12.0643 23.2553 11.8441 22.5269 11.8441C20.4771 11.861 18.8 13.5379 18.8 15.6045C18.8 17.671 20.4771 19.3479 22.5438 19.3479H61.0831C64.2848 19.3479 66.8767 16.7563 66.8767 13.5549C66.8767 10.3535 64.2848 7.77876 61.0831 7.77876Z" fill="url(#paint10_linear)" fill-opacity="0.5"/>
<g clip-path="url(#clip2)">
<path fill-rule="evenodd" clip-rule="evenodd" d="M139.952 42.7606V23.3868L124.621 21.2515H101.231L86.0412 23.3868V42.7606L101.21 45.2H124.8L139.952 42.7606Z" fill="#BCC7CE"/>
<path fill-rule="evenodd" clip-rule="evenodd" d="M113.874 4.99475C121.262 4.99475 127.252 11.3942 127.252 19.5074L113.767 18.6342L100.494 19.6791C100.494 11.5696 106.484 4.99475 113.874 4.99475Z" fill="url(#paint11_linear)"/>
<path fill-rule="evenodd" clip-rule="evenodd" d="M113.874 4.99475C121.262 4.99475 127.252 11.3942 127.252 19.5074L116.963 18.8411C116.963 18.8411 113.129 4.99475 113.874 4.99475Z" fill="url(#paint12_linear)"/>
<path fill-rule="evenodd" clip-rule="evenodd" d="M128.367 21.663V19.6791L124.703 18.6304H102.405L99.5377 19.6791V21.663L102.405 21.2516H124.703L128.367 21.663Z" fill="#2B2525"/>
<path fill-rule="evenodd" clip-rule="evenodd" d="M139.994 35.1711L124.703 34.0151H101.29L86 35.7667V23.3502L101.29 21.2515H124.703L139.994 23.3502V35.1711Z" fill="#0B83AD"/>
<path fill-rule="evenodd" clip-rule="evenodd" d="M89.0258 43.0761V31.1227C89.0258 31.1227 89.3117 29.1704 90.5439 29.1704C91.7761 29.1704 91.7748 30.9725 91.7748 30.9725V43.5216L89.0258 43.0761Z" fill="#CEDBDD"/>
<path fill-rule="evenodd" clip-rule="evenodd" d="M94.0474 43.9267V30.5964C94.0474 30.5964 94.3693 28.4183 95.7393 28.4183C97.1093 28.4183 97.1118 30.4286 97.1118 30.4286V44.4226L94.0474 43.9267Z" fill="#CEDBDD"/>
<path fill-rule="evenodd" clip-rule="evenodd" d="M137.14 43.2439V31.2817C137.14 31.2817 136.856 29.3269 135.622 29.3269C134.389 29.3269 134.39 31.1315 134.39 31.1315V43.6894L137.14 43.2439Z" fill="#CEDBDD"/>
<path fill-rule="evenodd" clip-rule="evenodd" d="M132.353 44.0655V30.9107C132.353 30.9107 132.039 28.7653 130.679 28.7653C129.319 28.7653 129.323 30.7479 129.323 30.7479V44.5551L132.353 44.0655Z" fill="#CEDBDD"/>
<path opacity="0.15" fill-rule="evenodd" clip-rule="evenodd" d="M124.703 21.2515V45.2L139.994 42.753V23.3502L124.703 21.2515Z" fill="black"/>
<path opacity="0.2" fill-rule="evenodd" clip-rule="evenodd" d="M101.29 21.2515V45.2L86 42.753V23.3502L101.29 21.2515Z" fill="white"/>
<path fill-rule="evenodd" clip-rule="evenodd" d="M121.2 45.2V31.1088C121.2 31.1088 121.2 29.1187 120.084 29.1187C118.967 29.1187 118.962 30.8034 118.962 30.8034V45.2H121.2Z" fill="#CEDBDD"/>
<path fill-rule="evenodd" clip-rule="evenodd" d="M116.102 45.2V32.5475C116.102 32.5475 116.102 28.5937 113.077 28.5937C110.051 28.5937 110.051 32.2307 110.051 32.2307V45.2H116.102Z" fill="black"/>
<path fill-rule="evenodd" clip-rule="evenodd" d="M106.39 45.2V31.1088C106.39 31.1088 106.39 29.1187 105.274 29.1187C104.158 29.1187 104.155 30.8034 104.155 30.8034V45.2H106.39Z" fill="#CEDBDD"/>
<path d="M113.874 4.99479C114.049 4.99479 114.192 4.83828 114.192 4.64522C114.192 4.45216 114.049 4.29565 113.874 4.29565C113.698 4.29565 113.556 4.45216 113.556 4.64522C113.556 4.83828 113.698 4.99479 113.874 4.99479Z" fill="#FFBC00"/>
<path d="M113.874 3.59653C114.049 3.59653 114.192 3.44003 114.192 3.24697C114.192 3.05391 114.049 2.8974 113.874 2.8974C113.698 2.8974 113.556 3.05391 113.556 3.24697C113.556 3.44003 113.698 3.59653 113.874 3.59653Z" fill="#FFBC00"/>
<path d="M113.874 4.47104C114.137 4.47104 114.351 4.236 114.351 3.94606C114.351 3.65612 114.137 3.42108 113.874 3.42108C113.61 3.42108 113.396 3.65612 113.396 3.94606C113.396 4.236 113.61 4.47104 113.874 4.47104Z" fill="#EDA900"/>
<path d="M113.874 0.799988C113.741 0.801535 113.611 0.833656 113.494 0.893739C113.377 0.953822 113.276 1.04017 113.199 1.14577C113.05 1.34943 112.984 1.59995 113.014 1.84869C113.064 2.33202 113.459 2.71693 113.874 2.70809C114.288 2.69926 114.681 2.3295 114.731 1.84869C114.761 1.60011 114.695 1.34961 114.547 1.14577C114.47 1.04027 114.37 0.953971 114.253 0.893887C114.136 0.833804 114.006 0.801632 113.874 0.799988V0.799988ZM113.874 0.799988C114.007 0.80195 114.14 0.830598 114.262 0.884187C114.384 0.937776 114.494 1.01518 114.584 1.1117C114.779 1.31286 114.898 1.57261 114.923 1.84869C114.953 2.14244 114.87 2.43655 114.691 2.67402C114.598 2.80169 114.474 2.9057 114.332 2.97745C114.189 3.04919 114.031 3.08661 113.87 3.08661C113.71 3.08661 113.552 3.04919 113.409 2.97745C113.266 2.9057 113.143 2.80169 113.05 2.67402C112.872 2.43606 112.79 2.14222 112.819 1.84869C112.844 1.57326 112.963 1.31408 113.156 1.11296C113.248 1.01533 113.358 0.937158 113.482 0.883313C113.605 0.829468 113.739 0.801104 113.874 0.799988V0.799988Z" fill="#FFBC00"/>
<path d="M139.988 25.787L138.057 25.7517L136.126 25.6899L134.194 25.6041C133.55 25.5763 132.907 25.5485 132.263 25.5081L130.332 25.3984C129.688 25.363 129.044 25.3264 128.4 25.2722L124.553 25.0021H124.647C122.691 25.0387 120.736 25.0879 118.781 25.1144L112.913 25.151L107.047 25.1119L101.194 25.0008L101.322 24.9907L97.5239 25.4324C96.8904 25.5094 96.2556 25.5712 95.6221 25.6381L93.7255 25.835C93.092 25.9031 92.456 25.9612 91.8199 26.0155L89.913 26.1871L88.0022 26.3373L86.0876 26.4635L86.0708 26.3511L101.183 24.0506H101.196L112.93 24.0253L124.664 24.0493H124.674L140.004 25.6722L139.988 25.787Z" fill="#004D7C"/>
</g>
<defs>
<radialGradient id="paint0_radial" cx="0" cy="0" r="1" gradientUnits="userSpaceOnUse" gradientTransform="translate(84.2011 123.549) rotate(-5.81397) scale(83.3921 83.1454)">
<stop stop-color="#CFFFFF"/>
<stop offset="0.4577" stop-color="#D2FFFF" stop-opacity="0.5881"/>
<stop offset="0.692" stop-color="#D9FFFF" stop-opacity="0.3772"/>
<stop offset="0.8751" stop-color="#E7FFFF" stop-opacity="0.2124"/>
<stop offset="1" stop-color="#F5FFFF" stop-opacity="0.1"/>
</radialGradient>
<radialGradient id="paint1_radial" cx="0" cy="0" r="1" gradientUnits="userSpaceOnUse" gradientTransform="translate(84.2011 123.549) rotate(-5.81397) scale(71.0377 70.8275)">
<stop stop-color="#CFFFFF"/>
<stop offset="0.4577" stop-color="#D2FFFF" stop-opacity="0.5881"/>
<stop offset="0.692" stop-color="#D9FFFF" stop-opacity="0.3772"/>
<stop offset="0.8751" stop-color="#E7FFFF" stop-opacity="0.2124"/>
<stop offset="1" stop-color="#F5FFFF" stop-opacity="0.1"/>
</radialGradient>
<linearGradient id="paint2_linear" x1="24.429" y1="129.635" x2="143.966" y2="117.39" gradientUnits="userSpaceOnUse">
<stop stop-color="#7949C4"/>
<stop offset="1" stop-color="#A68CE0"/>
</linearGradient>
<linearGradient id="paint3_linear" x1="72.495" y1="87.6415" x2="72.5528" y2="87.6399" gradientUnits="userSpaceOnUse">
<stop stop-color="#FFE65F"/>
<stop offset="1" stop-color="#FF642F"/>
</linearGradient>
<linearGradient id="paint4_linear" x1="20.1186" y1="84.7201" x2="20.1761" y2="84.7147" gradientUnits="userSpaceOnUse">
<stop stop-color="#FFE65F"/>
<stop offset="1" stop-color="#FF642F"/>
</linearGradient>
<linearGradient id="paint5_linear" x1="118.869" y1="62.9467" x2="118.926" y2="62.9488" gradientUnits="userSpaceOnUse">
<stop stop-color="#FFE65F"/>
<stop offset="1" stop-color="#FF642F"/>
</linearGradient>
<linearGradient id="paint6_linear" x1="22.524" y1="110.42" x2="22.5816" y2="110.414" gradientUnits="userSpaceOnUse">
<stop stop-color="#FFE65F"/>
<stop offset="1" stop-color="#FF642F"/>
</linearGradient>
<linearGradient id="paint7_linear" x1="135.466" y1="124.563" x2="135.524" y2="124.566" gradientUnits="userSpaceOnUse">
<stop stop-color="#FFE65F"/>
<stop offset="1" stop-color="#FF642F"/>
</linearGradient>
<linearGradient id="paint8_linear" x1="136.272" y1="110.743" x2="136.33" y2="110.747" gradientUnits="userSpaceOnUse">
<stop stop-color="#FFE65F"/>
<stop offset="1" stop-color="#FF642F"/>
</linearGradient>
<linearGradient id="paint9_linear" x1="77.7817" y1="80.7668" x2="77.8592" y2="80.7668" gradientUnits="userSpaceOnUse">
<stop stop-color="#DCE0E0"/>
<stop offset="1" stop-color="#F5FFFF" stop-opacity="0.1"/>
</linearGradient>
<linearGradient id="paint10_linear" x1="86.1815" y1="10.0788" x2="86.2662" y2="10.0788" gradientUnits="userSpaceOnUse">
<stop stop-color="#DCE0E0"/>
<stop offset="1" stop-color="#F5FFFF" stop-opacity="0.1"/>
</linearGradient>
<linearGradient id="paint11_linear" x1="127.253" y1="12.3369" x2="100.494" y2="12.3369" gradientUnits="userSpaceOnUse">
<stop offset="0.1" stop-color="#FDE04C"/>
<stop offset="1" stop-color="#E76574"/>
</linearGradient>
<linearGradient id="paint12_linear" x1="64405.6" y1="1321.73" x2="65815.7" y2="1321.73" gradientUnits="userSpaceOnUse">
<stop offset="0.1" stop-color="#FDE04C"/>
<stop offset="1" stop-color="#E76574"/>
</linearGradient>
<clipPath id="clip0">
<rect width="166.8" height="104.4" fill="white" transform="translate(0.800003 40.4)"/>
</clipPath>
<clipPath id="clip1">
<rect width="43.9648" height="17.0015" fill="white" transform="translate(16.1632 72.2694)"/>
</clipPath>
<clipPath id="clip2">
<rect width="54" height="44.4" fill="white" transform="translate(86 0.799988)"/>
</clipPath>
</defs>
</svg>
