<svg width="151" height="106" viewBox="0 0 151 106" fill="none" xmlns="http://www.w3.org/2000/svg">
<path fill-rule="evenodd" clip-rule="evenodd" d="M0 105.6H105.351V1.20001H0V105.6Z" fill="white"/>
<path fill-rule="evenodd" clip-rule="evenodd" d="M0 105.6H105.351V1.20001H0V105.6Z" fill="white"/>
<path fill-rule="evenodd" clip-rule="evenodd" d="M0 105.6H105.351V1.20003H0V105.6Z" fill="#E0D7E4"/>
<path fill-rule="evenodd" clip-rule="evenodd" d="M100.805 1.20001L81.2475 49.6761L84.7239 51.1228L104.865 1.20001H100.805Z" fill="white"/>
<path d="M88.1407 47.2558C89.2158 52.7454 91.3437 62.6352 98.0382 73.2052C100.036 76.3593 102.442 79.5787 105.351 82.7673V88.5519C100.892 84.1852 97.3894 79.7025 94.6238 75.3357C87.5354 64.1438 85.3008 53.7661 84.1732 48.0078L88.1407 47.2558Z" fill="white"/>
<path fill-rule="evenodd" clip-rule="evenodd" d="M105.351 27.8458L7.7552 105.6H13.7706L105.351 32.6383V27.8458Z" fill="white"/>
<path fill-rule="evenodd" clip-rule="evenodd" d="M84.995 105.6L84.9949 1.2H81.2258V105.6H84.995Z" fill="white"/>
<path fill-rule="evenodd" clip-rule="evenodd" d="M105.351 46.0934L0 46.0935V49.8286L105.351 49.8284V46.0934Z" fill="white"/>
<path fill-rule="evenodd" clip-rule="evenodd" d="M83.1104 36.9502C89.2469 36.9502 94.2213 41.88 94.2213 47.961C94.2213 54.0418 89.2469 58.9714 83.1104 58.9714C76.9739 58.9714 71.9995 54.0418 71.9995 47.961C71.9995 41.88 76.9739 36.9502 83.1104 36.9502Z" fill="white"/>
<path fill-rule="evenodd" clip-rule="evenodd" d="M83.1105 40.5411C87.2456 40.5411 90.5978 43.863 90.5978 47.961C90.5978 52.0589 87.2456 55.3808 83.1105 55.3808C78.9753 55.3808 75.6228 52.0589 75.6228 47.961C75.6228 43.863 78.9753 40.5411 83.1105 40.5411Z" fill="#C5E696"/>
<path fill-rule="evenodd" clip-rule="evenodd" d="M59.9377 68.8185L62.0559 65.7276L18.5358 46.7373L16.4174 49.8284L59.9377 68.8185Z" fill="white"/>
<path fill-rule="evenodd" clip-rule="evenodd" d="M0 75.7882L21.4571 66.5676L20.0346 63.107L0 71.7165V75.7882Z" fill="white"/>
<path fill-rule="evenodd" clip-rule="evenodd" d="M21.097 100.396L23.2152 97.3048L0 82.7354V87.1558L21.097 100.396Z" fill="white"/>
<path fill-rule="evenodd" clip-rule="evenodd" d="M2.67647 84.9675L4.09894 88.4281L26.1968 77.6696L24.7742 74.2092L2.67647 84.9675Z" fill="white"/>
<path fill-rule="evenodd" clip-rule="evenodd" d="M0 58.6969L10.2148 56.5483L9.81744 52.8324L0 54.8977V58.6969Z" fill="white"/>
<path fill-rule="evenodd" clip-rule="evenodd" d="M4.69764 72.0771L6.81592 68.9861L0 63.5559V68.3346L4.69764 72.0771Z" fill="white"/>
<path fill-rule="evenodd" clip-rule="evenodd" d="M83.0937 30.6131L83.2021 26.8781L0 10.4469V14.2036L83.0937 30.6131Z" fill="white"/>
<path fill-rule="evenodd" clip-rule="evenodd" d="M1.81477 45.683L3.23699 49.1437L30.0747 19.5968L28.6526 16.1364L1.81477 45.683Z" fill="white"/>
<path fill-rule="evenodd" clip-rule="evenodd" d="M15.874 34.029L18.5677 30.721L0 26.9133V30.7737L15.874 34.029Z" fill="white"/>
<path fill-rule="evenodd" clip-rule="evenodd" d="M0 13.1897L8.94748 1.19999H4.94267L0 7.82326V13.1897Z" fill="white"/>
<path fill-rule="evenodd" clip-rule="evenodd" d="M7.25594 42.9962L9.94979 39.6882L0 37.4962V41.3976L7.25594 42.9962Z" fill="white"/>
<path fill-rule="evenodd" clip-rule="evenodd" d="M40.1643 20.0627L43.3105 21.8152L62.0356 1.2H57.2979L40.1643 20.0627Z" fill="white"/>
<path fill-rule="evenodd" clip-rule="evenodd" d="M38.3457 47.2703L41.6174 49.1276L43.9582 20.9984L40.6866 19.1411L38.3457 47.2703Z" fill="white"/>
<path fill-rule="evenodd" clip-rule="evenodd" d="M43.4514 33.4208L43.1289 29.2587L16.7881 29.4253L12.8013 33.5875L43.4514 33.4208Z" fill="white"/>
<path fill-rule="evenodd" clip-rule="evenodd" d="M83.9079 34.5422L84.3741 30.3168L41.0338 29.2013L40.5679 33.4272L83.9079 34.5422Z" fill="white"/>
<path fill-rule="evenodd" clip-rule="evenodd" d="M50.2776 48.7276L54.4229 47.9846L54.2802 32.336L50.1255 33.5285L50.2776 48.7276Z" fill="white"/>
<path fill-rule="evenodd" clip-rule="evenodd" d="M63.6353 48.3007L67.7804 47.5575L67.6375 31.9091L63.4831 33.1013L63.6353 48.3007Z" fill="white"/>
<path fill-rule="evenodd" clip-rule="evenodd" d="M50.7765 11.8245L53.4703 8.51668L9.59089 1.19998H7.07627L4.68295 4.13887L50.7765 11.8245Z" fill="white"/>
<path fill-rule="evenodd" clip-rule="evenodd" d="M34.7713 6.49776L38.7348 7.91095L42.5699 1.19997H37.7926L34.7713 6.49776Z" fill="white"/>
<path fill-rule="evenodd" clip-rule="evenodd" d="M83.9673 86.1631L83.8062 82.43L45.7531 77.0487L45.9142 80.7822L83.9673 86.1631Z" fill="white"/>
<path fill-rule="evenodd" clip-rule="evenodd" d="M84.398 99.8273L84.2371 96.0942L30.6718 89.005L30.833 92.7383L84.398 99.8273Z" fill="white"/>
<path fill-rule="evenodd" clip-rule="evenodd" d="M40.7423 92.8197L45.5048 94.2045L60.3823 80.9196L55.6202 79.5349L40.7423 92.8197Z" fill="white"/>
<path d="M0.0964612 45.6997C3.9688 47.6185 10.9076 51.2169 17.4606 58.3521C24.007 65.4801 30.1462 76.1091 32.3975 92.0468L28.3983 92.5952C26.2816 77.6123 20.5635 67.6782 14.4731 61.0464C9.25333 55.3631 3.74372 52.0835 0 50.1349V45.8909L0.0964612 45.6997Z" fill="white"/>
<path fill-rule="evenodd" clip-rule="evenodd" d="M25.5139 73.4383L26.9364 76.899L48.1724 62.2976L46.7501 58.8369L25.5139 73.4383Z" fill="white"/>
<path fill-rule="evenodd" clip-rule="evenodd" d="M96.3342 76.025L100.227 77.8005L105.351 69.2145V60.9163L96.3342 76.025Z" fill="white"/>
<path fill-rule="evenodd" clip-rule="evenodd" d="M101.365 105.6L99.093 74.9795L94.9385 75.375L97.2117 105.6H101.365Z" fill="white"/>
<path fill-rule="evenodd" clip-rule="evenodd" d="M99.4795 99.8273L99.3183 96.0942L83.2411 96.6909L83.402 100.424L99.4795 99.8273Z" fill="white"/>
<path fill-rule="evenodd" clip-rule="evenodd" d="M98.1867 78.6275L98.0259 73.4339L82.3794 80.9013L82.5405 86.0949L98.1867 78.6275Z" fill="white"/>
<path fill-rule="evenodd" clip-rule="evenodd" d="M42.7106 105.6L46.1546 93.8507L42.4128 92.231L38.4939 105.6H42.7106Z" fill="white"/>
<path fill-rule="evenodd" clip-rule="evenodd" d="M83.796 69.0629L84.7837 64.9482L58.2229 64.9405L57.6826 69.0687L83.796 69.0629Z" fill="white"/>
<path fill-rule="evenodd" clip-rule="evenodd" d="M98.6169 11.0537L98.834 15.2225L105.351 15.718V11.6938L98.6169 11.0537Z" fill="white"/>
<path fill-rule="evenodd" clip-rule="evenodd" d="M91.7224 25.999L91.9398 30.1675L105.351 29.5568V26.0515L91.7224 25.999Z" fill="white"/>
<path fill-rule="evenodd" clip-rule="evenodd" d="M45.2661 80.5074L53.4652 81.4591L43.1627 90.6583L34.0405 89.4508L45.2661 80.5074Z" fill="#C5E696"/>
<path fill-rule="evenodd" clip-rule="evenodd" d="M17.518 33.421L6.0076 46.0933H38.4434L39.5163 33.2057L17.518 33.421Z" fill="#C5E696"/>
<path fill-rule="evenodd" clip-rule="evenodd" d="M0 63.5559L6.81597 68.9861L17.2209 64.3161C15.0535 61.6929 12.7527 59.0966 10.2148 56.5482L0 58.6969V63.5559Z" fill="#C5E696"/>
<path fill-rule="evenodd" clip-rule="evenodd" d="M54.2929 33.7802L54.4054 46.0933H63.6132L63.4922 34.0168L54.2929 33.7802Z" fill="#C9BAD4"/>
<path fill-rule="evenodd" clip-rule="evenodd" d="M104.865 1.20002L100.805 11.2619L105.351 11.6938V1.20002H104.865Z" fill="#C9BAD4"/>
<path fill-rule="evenodd" clip-rule="evenodd" d="M25.7832 19.2953L20.9566 24.6087L8.85179 22.1262L12.8678 16.7448L25.7832 19.2953Z" fill="#C9BAD4"/>
<path fill-rule="evenodd" clip-rule="evenodd" d="M0 87.156L4.10189 89.7303L0 92.9985V87.156Z" fill="#C9BAD4"/>
<path fill-rule="evenodd" clip-rule="evenodd" d="M45.4783 19.4282L53.9634 10.0866L69.3116 12.9938L63.5566 22.9983L45.4783 19.4282Z" fill="#C9BAD4"/>
<path fill-rule="evenodd" clip-rule="evenodd" d="M2.72098 28.3167L0 27.758V32.3493L2.72098 28.3167Z" fill="white"/>
<path fill-rule="evenodd" clip-rule="evenodd" d="M81.1753 30.2344L43.271 29.2587L43.804 22.8541L81.1753 30.2344Z" fill="#C9BAD4"/>
<path fill-rule="evenodd" clip-rule="evenodd" d="M95.2872 80.0114L84.9948 84.9235L85.4309 90.5438L95.8602 87.6306L95.2872 80.0114Z" fill="#C9BAD4"/>
<path d="M13.9428 23.1703L13.7651 23.1339H13.9148L13.9428 23.1703Z" fill="#AAA295"/>
<path d="M57.1677 88.3395C57.1074 88.3093 57.0605 88.2764 57.0313 88.2422C57.0053 88.2118 56.9955 88.1825 56.9998 88.1552L57.1677 88.3395Z" fill="#928E8A"/>
<g filter="url(#filter0_d)">
<path d="M54.8659 13.6039C47.6073 13.6039 41.7231 19.4351 41.7231 26.6281V48.0249C41.7231 55.218 47.6073 61.0491 54.8659 61.0491H76.2779L87.2534 69.4218L98.2289 61.0491H122.457C129.716 61.0491 135.6 55.218 135.6 48.0249V26.6281C135.6 19.4351 129.716 13.6039 122.457 13.6039H54.8659Z" fill="white"/>
<rect x="55.8932" y="24.0698" width="65.5367" height="8.72153" fill="#C4C4C4"/>
<rect x="66.5208" y="39.7686" width="44.2816" height="5.23292" fill="#C4C4C4"/>
</g>
<defs>
<filter id="filter0_d" x="26.7231" y="0.603943" width="123.877" height="85.8178" filterUnits="userSpaceOnUse" color-interpolation-filters="sRGB">
<feFlood flood-opacity="0" result="BackgroundImageFix"/>
<feColorMatrix in="SourceAlpha" type="matrix" values="0 0 0 0 0 0 0 0 0 0 0 0 0 0 0 0 0 0 127 0"/>
<feOffset dy="2"/>
<feGaussianBlur stdDeviation="7.5"/>
<feColorMatrix type="matrix" values="0 0 0 0 0 0 0 0 0 0 0 0 0 0 0 0 0 0 0.25 0"/>
<feBlend mode="normal" in2="BackgroundImageFix" result="effect1_dropShadow"/>
<feBlend mode="normal" in="SourceGraphic" in2="effect1_dropShadow" result="shape"/>
</filter>
</defs>
</svg>
