<svg width="142" height="130" viewBox="0 0 142 130" fill="none" xmlns="http://www.w3.org/2000/svg">
<path d="M114.065 111.219L80.7716 91.1804C81.5537 81.7794 89.6194 74.8204 97.8064 74.8204C99.5372 74.8204 101.274 75.1315 102.948 75.7965L105.6 77.3296L126.146 89.2093C126.13 89.2714 126.114 89.3344 126.099 89.3969C124.739 90.6729 119.927 92.7462 119.927 92.7462C119.927 92.7462 119.82 92.8192 119.734 93.0018C119.664 93.0248 119.571 93.0544 119.462 93.0855C119.148 93.1756 118.7 93.2801 118.296 93.2862C117.989 93.2909 117.452 93.6117 117.566 93.6652C117.578 93.6704 117.591 93.6729 117.607 93.6729C117.641 93.6729 117.684 93.6623 117.731 93.6471C117.512 93.7762 117.324 93.9155 117.382 93.9749C117.414 94.0081 117.462 94.0227 117.523 94.0227C117.537 94.0227 117.552 94.0218 117.568 94.0205C117.546 94.0505 117.536 94.0808 117.546 94.1101C117.559 94.1503 117.594 94.1663 117.643 94.1663C117.671 94.1663 117.704 94.1609 117.741 94.1516C117.697 94.1887 117.685 94.2234 117.724 94.2559C117.739 94.269 117.762 94.2747 117.791 94.2747C117.897 94.2747 118.082 94.1952 118.265 94.1157C118.448 94.0363 118.629 93.9568 118.728 93.9568C118.745 93.9568 118.759 93.9593 118.771 93.9645C118.776 94.0036 118.429 94.1609 118.294 94.2968C118.144 94.4476 118.029 94.5713 118.146 94.5715C118.182 94.5715 118.241 94.5593 118.329 94.532C118.698 94.4178 119.257 94.2645 119.35 94.1189C119.426 94.0176 119.516 93.9372 119.609 93.874C119.609 93.8742 119.609 93.8742 119.609 93.8744C119.652 93.8446 119.696 93.8187 119.739 93.7961C119.904 94.0261 120.2 94.0785 120.2 94.0785C120.2 94.0785 123.012 93.2591 125.411 92.3165C125.17 93.4356 124.983 94.4297 124.92 95.0527C119.403 97.5055 114.723 103.321 114.065 111.219ZM116.571 96.7159C116.454 96.9527 116.328 97.1475 116.417 97.1475C116.434 97.1475 116.46 97.1403 116.495 97.1243C116.655 97.0516 116.948 96.836 117.122 96.7024L117.842 96.2658L118.622 96.162L118.607 95.3214L117.962 95.604C117.96 95.6038 117.958 95.6035 117.956 95.6035C117.886 95.599 117.793 95.5952 117.688 95.5952C117.527 95.5952 117.336 95.6042 117.147 95.6345L117.098 95.6498C117.097 95.6496 117.097 95.6496 117.097 95.6496C117.081 95.6496 116.816 95.7701 116.581 95.899C116.339 96.0315 115.643 96.3913 115.743 96.5204C115.751 96.531 115.768 96.5358 115.79 96.5358C115.859 96.5358 115.986 96.4924 116.136 96.4295C115.944 96.6518 115.718 96.8353 115.858 96.8667C115.865 96.8683 115.873 96.8692 115.881 96.8692C115.938 96.8692 116.022 96.8315 116.113 96.7769C116.053 96.8471 116.037 96.8992 116.113 96.9464C116.126 96.9538 116.14 96.9572 116.157 96.9572C116.252 96.9572 116.415 96.845 116.571 96.7159ZM136.304 95.0834C136.25 95.062 136.196 95.0412 136.142 95.0205C135.288 94.5923 134.398 94.2774 133.487 94.0704C133.51 93.8792 133.53 93.686 133.55 93.4909L136.304 95.0834Z" fill="url(#paint0_linear)"/>
<path d="M114.065 111.219L138.856 96.8861L141.2 95.5308V97.8493L114.065 113.538V111.219Z" fill="#3D1399"/>
<path d="M105.6 77.3296L107.66 76.1384L141.2 95.5308L138.856 96.8861L105.6 77.3296Z" fill="#571BDB"/>
<path d="M86.9321 129.227L53.3933 109.835V106.883L86.9321 126.276V129.227Z" fill="#571BDB"/>
<path d="M114.065 113.538L86.932 129.227V126.276L89.0936 125.026L113.623 110.894L114.065 111.219V113.538Z" fill="#3D1399"/>
<path d="M53.3933 106.883L55.9026 105.433L55.7372 105.739L89.0937 125.026L86.9321 126.276L53.3933 106.883Z" fill="#BDDFF4"/>
<path d="M114.264 111.088L89.0935 125.026C94.7595 112.794 104.588 101.863 114.264 111.088Z" fill="#E2F1F7"/>
<path d="M80.7715 91.1804C69.5893 84.715 62.9282 92.4084 55.9024 105.433L55.737 105.739L89.0935 125.026C94.4401 115.115 101.411 104.601 111.574 109.003L112.82 109.711L80.7715 91.1804Z" fill="url(#paint1_linear)"/>
<path d="M77.364 90.3708C70.4196 89.7943 65.1197 96.3138 60.8255 103.597L64.8939 105.949C69.1894 98.6648 74.4911 92.1448 81.4387 92.7268L77.364 90.3708Z" fill="#E8E1F6"/>
<path d="M84.1879 94.3323C77.2433 93.7558 71.9436 100.275 67.6494 107.558L71.7177 109.91C76.0131 102.626 81.315 96.1063 88.2626 96.6882L84.1879 94.3323Z" fill="#E8E1F6"/>
<path d="M91.0119 98.2935C84.0675 97.7169 78.7675 104.236 74.4731 111.519L78.5417 113.872C82.8373 106.587 88.1387 100.067 95.0863 100.649L91.0119 98.2935Z" fill="#E8E1F6"/>
<path d="M97.8356 102.255C90.891 101.678 85.5911 108.198 81.2971 115.48L85.3655 117.833C89.6608 110.549 94.9628 104.029 101.91 104.611L97.8356 102.255Z" fill="#E8E1F6"/>
<path d="M88.7813 89.7538C91.6735 82.7643 98.1993 78.7402 104.509 78.7813L100.387 76.3974C94.1175 76.4603 87.6847 80.5117 84.8536 87.4829L88.7813 89.7538Z" fill="#E8E1F6"/>
<path d="M108.595 101.398C111.488 94.4087 118.013 90.3848 124.323 90.4259L120.201 88.042C113.931 88.1047 107.499 92.1563 104.668 99.1275L108.595 101.398Z" fill="#E8E1F6"/>
<path d="M100.225 81.9392L110.501 88.1752C112.728 87.1014 115.126 86.5348 117.495 86.5504L106.954 80.3284C104.672 80.3514 102.37 80.9103 100.225 81.9392Z" fill="#C0A5FC"/>
<path d="M104.635 87.043C101.831 88.9375 99.4618 91.7237 98.0233 95.2658L101.951 97.5367C103.398 94.0401 105.754 91.2858 108.538 89.4111L104.635 87.043Z" fill="#E8E1F6"/>
<path d="M98.0512 83.1216C95.2466 85.0159 92.8772 87.8023 91.4388 91.3447L95.366 93.6155C96.8155 90.1124 99.1784 87.3545 101.969 85.4798L98.0512 83.1216Z" fill="#E8E1F6"/>
<path d="M138.856 96.8861L114.065 111.219C115.282 96.601 130.282 89.1149 138.856 96.8861Z" fill="#E2F1F7"/>
<path d="M36.2555 83.834C37.7427 85.603 38.2715 91.814 35.2476 91.6797C32.2237 91.5451 34.0597 86.1421 32.9217 84.417C29.6192 79.4115 6.71558 69.2641 6.71558 69.2641L9.50663 67.5602C9.50663 67.5602 32.0111 78.7862 36.2555 83.834Z" fill="#D83071"/>
<path d="M8.80837 70.532C4.89666 70.374 0.656531 70.6577 0.803714 71.7634C1.01198 73.3285 8.52008 72.6426 12.2321 72.9536C11.411 72.0392 10.1506 71.2221 8.80837 70.532Z" fill="#D83071"/>
<path d="M39.3382 87.296L39.3317 87.8558L38.7813 87.6085L38.5924 87.7143L39.6641 88.2364V87.1134L39.3382 87.296Z" fill="#F84280"/>
<path d="M39.3317 87.8558L39.0184 87.7152C39.1277 87.6452 39.2335 87.5741 39.336 87.5019L39.3317 87.8558Z" fill="#D83071"/>
<path d="M39.6644 86.062V88.2364L41.1391 87.3838V85.2349L39.6644 86.062Z" fill="#FF8FA7"/>
<path d="M21.9592 71.0071C21.5621 70.6367 21.0881 70.2857 20.5323 69.9645C16.6395 67.7135 10.3282 67.7135 6.43565 69.9645C5.87555 70.2882 5.39884 70.6417 5.00011 71.0148V70.7563H3.50891V72.959C3.54204 74.4159 4.51304 75.8684 6.43565 76.9802C10.3282 79.2309 16.6395 79.2309 20.5323 76.9802C22.4245 75.8858 23.3941 74.4612 23.4468 73.0274L23.4505 72.9396V72.8696V70.825H21.9592V71.0071Z" fill="#FF8FA7"/>
<path d="M20.5322 66.8573C24.4247 69.1082 24.4247 72.7576 20.5322 75.0084C16.6394 77.2593 10.3281 77.2593 6.43535 75.0084C2.54279 72.7576 2.54279 69.1082 6.43535 66.8573C10.3281 64.6065 16.6394 64.6065 20.5322 66.8573Z" fill="#F84280"/>
<path d="M19.6308 67.3788C23.0254 69.3417 23.0254 72.5243 19.6308 74.4872C16.2359 76.45 10.732 76.45 7.33732 74.4872C3.94266 72.5243 3.94266 69.3417 7.33732 67.3788C10.732 65.4158 16.2359 65.4158 19.6308 67.3788Z" fill="#79AEFC"/>
<path d="M7.79776 67.8399C11.1924 65.8769 16.6963 65.8769 20.091 67.8399C20.5235 68.09 20.8995 68.3602 21.2216 68.6448C20.8181 68.1888 20.2905 67.7604 19.6307 67.3787C16.2358 65.4157 10.7319 65.4157 7.33728 67.3787C4.37515 69.0915 3.9992 71.7328 6.20648 73.6822C4.53518 71.7931 5.06283 69.4211 7.79776 67.8399Z" fill="#D83071"/>
<path d="M7.38223 72.6149C6.89876 72.6146 6.41505 72.5916 5.93677 72.5456C5.58087 71.0424 6.39544 69.465 8.39379 68.3093C10.0894 67.329 12.3102 66.8414 14.5322 66.8414C15.0134 66.8414 15.4946 66.8642 15.9707 66.9098C16.3277 68.414 15.5122 69.993 13.5125 71.1492C11.8189 72.1286 9.60146 72.6149 7.38223 72.6149Z" fill="#94BEFD"/>
<path d="M24.8985 78.0242L20.1729 75.206V77.1894L24.7346 79.9102L24.8985 78.0242Z" fill="#D83071"/>
<path d="M20.1729 75.2059L21.0789 74.556L21.6947 74.9212L25.929 77.4462L24.8985 78.0241L20.1729 75.2059Z" fill="#F84280"/>
<path d="M40.0926 81.9568C39.6955 81.5861 39.2217 81.2354 38.6656 80.9139C34.7728 78.6632 28.4616 78.6632 24.569 80.9139C24.0091 81.2379 23.5322 81.5911 23.1335 81.9645V81.706H21.6423V83.9084C21.6752 85.3655 22.6464 86.8181 24.569 87.9295C28.4616 90.1806 34.7728 90.1806 38.6656 87.9295C40.5578 86.8355 41.5275 85.4109 41.5802 83.9771L41.5836 83.889V83.8193V81.7744H40.0926V81.9568Z" fill="#FF8FA7"/>
<path d="M38.6656 77.807C42.5582 80.0577 42.5582 83.7071 38.6656 85.9581C34.7729 88.2091 28.4616 88.2091 24.5688 85.9581C20.676 83.7071 20.676 80.0577 24.5688 77.807C28.4616 75.5562 34.7729 75.5562 38.6656 77.807Z" fill="#F84280"/>
<path d="M37.764 78.3285C41.1585 80.2912 41.1585 83.474 37.764 85.4369C34.3694 87.3995 28.8653 87.3995 25.4706 85.4369C22.0757 83.474 22.0757 80.2912 25.4706 78.3285C28.8653 76.3655 34.3694 76.3655 37.764 78.3285Z" fill="#79AEFC"/>
<path d="M25.931 78.7896C29.3257 76.8267 34.8296 76.8267 38.2243 78.7896C38.6568 79.0397 39.0328 79.3097 39.3551 79.5945C38.9518 79.1386 38.424 78.7101 37.764 78.3284C34.3694 76.3655 28.8652 76.3655 25.4706 78.3284C22.5082 80.0413 22.1322 82.6823 24.3398 84.6319C22.6685 82.7428 23.1961 80.3708 25.931 78.7896Z" fill="#D83071"/>
<path d="M25.5158 83.5643C25.0323 83.5643 24.5484 83.5412 24.0703 83.4952C23.7144 81.9921 24.5288 80.4147 26.5274 79.259C28.223 78.2786 30.4438 77.791 32.666 77.791C33.147 77.791 33.6282 77.8138 34.1042 77.8594C34.4612 79.3637 33.6458 80.9427 31.6461 82.0988C29.9522 83.0783 27.735 83.5645 25.5158 83.5643Z" fill="#94BEFD"/>
<path d="M98.92 70.3885V69.6342L109.241 33.6511L110.266 33.5301L104.197 54.6882L103.389 57.5057L102.195 61.6664L101.076 65.569L100.007 69.2965L99.8951 69.6863L99.8451 69.8608L98.92 70.3885Z" fill="#541AD2"/>
<path d="M32.7156 44.0561V44.559L28.7023 46.8484V46.3457L32.7156 44.0561Z" fill="#E7DCFE"/>
<path d="M28.7023 46.3457V46.8484L27.4065 46.089V45.5861L28.7023 46.3457Z" fill="#E7DCFE"/>
<path d="M53.4279 3.16901L44.202 35.335L97.9937 66.8619L98.0528 66.6565L107.22 34.6959L53.7098 3.33401L53.4279 3.16901ZM98.9201 69.6341L42.1812 36.3799L49.9748 9.20727L52.5017 0.3966L109.241 33.651L98.9201 69.6341Z" fill="#774BD9"/>
<path d="M93.8719 70.7728L90.2232 72.8542L89.0715 72.1791V71.6762L92.7199 69.5947L93.8719 70.2699V70.7728ZM89.4934 73.2703L85.8449 75.3515L84.6932 74.6765V74.1736L88.3418 72.0924L89.4934 72.7673V73.2703ZM84.9693 75.851L81.3208 77.9324L80.1688 77.2573V76.7544L83.8175 74.6729L84.9693 75.3481V75.851ZM77.3949 76.3648V75.8619L79.0002 74.9461L80.4096 75.7722V76.2752L78.8043 77.1909L77.3949 76.3648ZM75.4511 75.2255V74.7228L77.0564 73.807L78.466 74.633V75.1359L76.8605 76.0517L75.4511 75.2255ZM73.5794 74.1287V73.6256L75.1847 72.71L76.5941 73.5359V74.0391L74.9888 74.9546L73.5794 74.1287ZM71.6356 72.9894V72.4865L73.2411 71.5707L74.6503 72.3969V72.8998L73.045 73.8154L71.6356 72.9894ZM71.399 72.0913L70.7424 72.4658L69.5904 71.7908V71.2913L69.1586 71.5376L68.0066 70.8624V70.3629L67.5747 70.6094L66.4227 69.9342V69.4313L67.0797 69.0568L68.2315 69.7317V70.2313L68.6634 69.985L69.8151 70.6599V71.1595L70.2472 70.9132L71.399 71.5883V72.0913ZM62.493 67.6309V67.2643L62.1761 67.4453L59.6133 65.9433V65.4404L61.2188 64.5246L63.7813 66.0266V66.3932L64.0985 66.2124L66.6607 67.7142V68.2173L65.0557 69.1329L62.493 67.6309ZM56.5899 64.1711V63.6682L58.1952 62.7526L60.7579 64.2544V64.7573L59.1524 65.6731L56.5899 64.1711ZM58.2511 69.0074L51.7775 72.7001L35.0346 62.8872L34.792 62.7449L41.5079 58.9139L58.4936 68.869L58.2511 69.0074ZM33.553 50.1666L35.1583 49.2506L37.721 50.7526V51.2556L36.1158 52.1713L33.553 50.6696V50.1666ZM30.2416 48.7285V48.2256L31.847 47.3098L34.4093 48.8118V49.3147L32.8043 50.2305L30.2416 48.7285ZM27.4065 46.0891V45.9918V45.5861L31.316 43.3559L31.4199 43.2968L32.7157 44.0561V44.5591L28.7023 46.8484L27.4065 46.0891ZM36.0901 40.6327L37.3861 41.3923V41.8952L33.3723 44.1846L32.0767 43.425V42.9221L36.0901 40.6327ZM36.7469 40.258L40.7602 37.9687L42.056 38.728V39.2309L38.0427 41.5205L36.7469 40.7609V40.258ZM42.5605 41.6898L44.4826 42.8162V43.3191L42.8771 44.2347L40.9552 43.1083V42.6056L42.5605 41.6898ZM43.4363 41.1903L45.0416 40.2745L46.9638 41.4009V41.9038L45.3583 42.8196L43.4363 41.693V41.1903ZM50.275 43.3417V43.8449L48.6698 44.7604L46.1073 43.2586V42.7557L47.7123 41.8399L50.275 43.3417ZM53.3706 45.1559V45.6588L51.7653 46.5746L49.2026 45.0728V44.5699L50.8081 43.6541L53.3706 45.1559ZM56.4664 46.9703V47.4732L54.8609 48.389L52.2984 46.8872V46.3841L53.9037 45.4685L56.4664 46.9703ZM59.5619 48.7847V49.2874L57.9562 50.2032L55.3937 48.7014V48.1985L56.999 47.2827L59.5619 48.7847ZM62.8732 50.7255V51.2285L61.268 52.1442L58.7052 50.6422V50.1393L60.3107 49.2235L62.8732 50.7255ZM65.9688 52.5397V53.0429L64.3635 53.9587L61.801 52.4564V51.9537L63.4063 51.0379L65.9688 52.5397ZM69.0643 54.3541V54.8571L67.4591 55.7726L64.8966 54.2708V53.7679L66.5018 52.8521L69.0643 54.3541ZM72.088 56.1261V56.629L70.4827 57.5448L67.9198 56.043V55.5399L69.5255 54.6243L72.088 56.1261ZM75.3995 58.0669V58.5699L73.7942 59.4856L71.2315 57.9839V57.4809L72.837 56.5652L75.3995 58.0669ZM78.4951 59.8813V60.3843L76.8896 61.3001L74.3271 59.798V59.2951L75.9326 58.3793L78.4951 59.8813ZM81.8149 61.8269V62.3298L80.2094 63.2456L77.4226 61.6125V61.1095L79.0281 60.1938L81.8149 61.8269ZM84.0639 67.027V67.5302L82.4582 68.4457L81.049 67.62V67.1169L82.6545 66.2011L84.0639 67.027ZM83.5301 65.7015L85.1354 64.786L86.5448 65.6119V66.1149L84.9395 67.0306L83.5301 66.2045V65.7015ZM87.0668 64.2555L87.0853 64.179L87.1373 64.1077L87.2194 64.0467L87.3262 63.9998L87.4502 63.9709L87.5827 63.9612L87.7153 63.9718L87.8385 64.002L87.9443 64.0494L88.0249 64.1111L88.0752 64.1828L88.0919 64.2596V64.7625L88.0734 64.839L88.0213 64.9104L87.9393 64.9715L87.8327 65.018L87.7085 65.0472L87.5757 65.0566L87.4434 65.0463L87.3199 65.016L87.2144 64.9686L87.1337 64.907L87.0835 64.8352L87.0668 64.7585V64.2555ZM88.2188 64.9307L88.237 64.8539L88.2891 64.7828L88.3712 64.7217L88.478 64.6749L88.6017 64.6458L88.7347 64.6363L88.8672 64.6469L88.9905 64.677L89.096 64.7244L89.1767 64.7862L89.227 64.8578L89.2439 64.9345V65.4377L89.2254 65.5142L89.1731 65.5853L89.0913 65.6465L88.9845 65.6932L88.8605 65.7223L88.7277 65.7318L88.5952 65.7212L88.4719 65.6912L88.3664 65.6435L88.2857 65.5819L88.2352 65.5104L88.2188 65.4336V64.9307ZM89.2984 65.5634L89.3169 65.4869L89.3687 65.4156L89.4508 65.3546L89.5579 65.3079L89.6818 65.2788L89.8143 65.2691L89.9471 65.2799L90.0704 65.3099L90.1759 65.3575L90.2566 65.4192L90.3068 65.4907L90.3235 65.5675V66.0704L90.3053 66.1471L90.2532 66.2185L90.1709 66.2794L90.0643 66.3261L89.9403 66.355L89.8076 66.3647L89.6751 66.3541L89.5518 66.3241L89.4461 66.2765L89.3654 66.2149L89.3151 66.1431L89.2984 66.0666V65.5634ZM90.3603 68.3509L88.755 69.2667L87.3454 68.4408V67.9378L88.9509 67.0221L90.3603 67.848V68.3509ZM86.808 70.9951V70.4924L88.4135 69.5766L89.8229 70.4026V70.9055L88.2174 71.8213L86.808 70.9951ZM84.473 72.3272V71.8242L86.0784 70.9084L87.4878 71.7346V72.2375L85.8826 73.1533L84.473 72.3272ZM82.0651 73.7009V73.198L83.6703 72.2822L85.0797 73.1082V73.6113L83.4742 74.5269L82.0651 73.7009ZM79.5839 74.6131L81.1894 73.6973L82.5988 74.5233V75.0264L80.9933 75.9422L79.5839 75.116V74.6131ZM77.6404 73.4741L79.2458 72.5581L80.655 73.3842V73.8872L79.0498 74.803L77.6404 73.977V73.4741ZM75.7685 72.377L77.3739 71.4613L78.7833 72.2872V72.7901L77.1779 73.7059L75.7685 72.88V72.377ZM73.8247 71.2378L75.4301 70.322L76.8395 71.1482V71.6509L75.2343 72.5667L73.8247 71.7407V71.2378ZM70.3326 66.6557V66.153L71.9379 65.2372L75.6537 67.4148V67.9178L74.0485 68.8335L70.3326 66.6557ZM64.1084 65.374L65.7136 64.4585L68.2761 65.9602V66.4634L66.6709 67.3789L64.1084 65.8769V65.374ZM61.0126 63.5598L62.6181 62.644L65.1806 64.1461V64.649L63.5753 65.5648L61.0126 64.0628V63.5598ZM57.7011 61.619L59.3066 60.7032L61.8691 62.2052V62.7082L60.2636 63.6237L57.7011 62.1217V61.619ZM54.6777 60.3497V59.8468L56.2829 58.931L58.8454 60.433V60.936L57.2402 61.8517L54.6777 60.3497ZM43.9915 56.2846L45.5972 55.3688L57.1286 62.1274V62.6303L55.5233 63.5461L43.9915 56.7875V56.2846ZM42.0792 52.9659V52.4632L43.6847 51.5474L46.2472 53.0494V53.5523L44.6418 54.4679L42.0792 52.9659ZM39.7442 53.7952L41.3497 52.8794L43.9122 54.3814V54.8841L42.3069 55.7999L39.7442 54.2979V53.7952ZM35.8881 48.8346L37.4936 47.9188L40.0561 49.4208V49.9235L38.4509 50.8393L35.8881 49.3375V48.8346ZM36.7446 47.4798V47.9827L35.1394 48.8985L31.2955 46.6457V46.1428L32.9008 45.227L36.7446 47.4798ZM39.8735 46.4444V46.9473L38.2683 47.8631L34.4242 45.6101V45.1071L36.0297 44.1914L39.8735 46.4444ZM41.7826 44.8591L40.1772 45.7751L36.3333 43.5221V43.0191L37.9388 42.1036L41.7826 44.3561V44.8591ZM45.0941 46.2972V46.8001L43.4886 47.7159L40.9261 46.2139V45.711L42.5314 44.7952L45.0941 46.2972ZM47.7941 45.26L46.1889 46.1757L43.6261 44.6737V44.1708L45.2314 43.2553L47.7941 44.757V45.26ZM50.8897 47.0741L49.2842 47.9899L46.7217 46.4879V45.985L48.327 45.0694L50.8897 46.5712V47.0741ZM53.985 48.8886L52.3798 49.8043L49.8173 48.3023V47.7994L51.4225 46.8836L53.985 48.3856V48.8886ZM57.0808 50.7027L55.4753 51.6185L52.9128 50.1165V49.6136L54.5181 48.698L57.0808 50.1998V50.7027ZM60.3923 52.6436L58.787 53.5596L56.2243 52.0576V51.5546L57.8298 50.6389L60.3923 52.1406V52.6436ZM63.4879 54.458L61.8824 55.3738L59.3199 53.8718V53.3688L60.9251 52.453L63.4879 53.955V54.458ZM66.5834 56.2722L64.9779 57.1879L62.4154 55.6859V55.1832L64.0207 54.2675L66.5834 55.7692V56.2722ZM69.6069 58.0444L68.0016 58.9601L65.4389 57.4581V56.9552L67.0444 56.0394L69.6069 57.5414V58.0444ZM72.9184 59.9852L71.3131 60.901L68.7506 59.3992V58.896L70.3558 57.9805L72.9184 59.4823V59.9852ZM76.0141 61.7994L74.4087 62.7152L71.8462 61.2134V60.7104L73.4514 59.7944L76.0141 61.2967V61.7994ZM79.334 63.7452L77.7285 64.6609L74.9417 63.0276V62.5246L76.547 61.6091L79.334 63.2422V63.7452ZM81.7288 68.8622L80.1233 69.7778L78.7137 68.9518V68.4489L80.3192 67.5331L81.7288 68.3591V68.8622ZM83.6724 69.4983V70.0012L82.0671 70.917L80.6577 70.0911V69.5882L82.263 68.6724L83.6724 69.4983ZM86.0077 68.1665V68.6692L84.4022 69.585L82.9926 68.7591V68.2561L84.5981 67.3403L86.0077 68.1665ZM85.4737 67.3437V66.8408L87.0792 65.925L88.4886 66.7512V67.2541L86.8831 68.1699L85.4737 67.3437ZM84.8645 69.8561V69.3532L86.4697 68.4374L87.8793 69.2633V69.7663L86.2739 70.682L84.8645 69.8561ZM82.5294 71.1879V70.6852L84.1346 69.7694L85.544 70.5954V71.0983L83.9385 72.0141L82.5294 71.1879ZM80.1213 72.0588L81.7265 71.143L83.1359 71.9689V72.4721L81.5307 73.3876L80.1213 72.5617V72.0588ZM78.2496 70.9617L79.8549 70.0459L81.2645 70.8721V71.375L79.659 72.2906L78.2496 71.4646V70.9617ZM76.3058 69.8225L77.9113 68.9067L79.3207 69.7329V70.2358L77.7154 71.1516L76.3058 70.3254V69.8225ZM72.2417 64.0648L73.847 63.149L77.5626 65.3268V65.8298L75.9573 66.7455L72.2417 64.5677V64.0648ZM69.1462 62.7535V62.2506L70.7516 61.3348L73.3141 62.8368V63.3397L71.7087 64.2553L69.1462 62.7535ZM67.2371 64.3386L68.8423 63.4228L71.4051 64.9248V65.4277L69.7998 66.3435L67.2371 64.8415V64.3386ZM64.1415 62.5242L65.747 61.6086L68.3095 63.1104V63.6133L66.704 64.5291L64.1415 63.0271V62.5242ZM60.83 60.5836L62.4355 59.6676L64.998 61.1696V61.6725L63.3927 62.5883L60.83 61.0863V60.5836ZM57.8064 58.8114L59.4118 57.8954L61.9743 59.3976V59.9003L60.3691 60.8161L57.8064 59.3143V58.8114ZM54.711 57.4999V56.9972L56.3163 56.0814L58.879 57.5832V58.0861L57.2733 59.0019L54.711 57.4999ZM51.5819 58.0326L53.1874 57.1168L55.7499 58.6188V59.1218L54.1446 60.0376L51.5819 58.5355V58.0326ZM48.4865 56.2182L50.0918 55.3024L52.6545 56.8044V57.3074L51.049 58.2231L48.4865 56.7211V56.2182ZM49.3428 54.8636V55.3665L47.7375 56.2821L45.175 54.7803V54.2774L46.7803 53.3618L49.3428 54.8636ZM45.2082 51.4276L46.8134 50.5118L49.3762 52.0138V52.5167L47.7709 53.4325L45.2082 51.9305V51.4276ZM48.1897 48.6143L46.5844 49.5301L44.0217 48.0281V47.5254L45.6272 46.6096L48.1897 48.1114V48.6143ZM51.2853 50.4285L49.68 51.3445L47.1173 49.8425V49.3396L48.7227 48.4238L51.2853 49.9258V50.4285ZM54.3808 52.2429L52.7756 53.1587L50.2128 51.6567V51.1537L51.8181 50.2382L54.3808 51.74V52.2429ZM50.8665 55.2469L48.3037 53.7449V53.242L49.9092 52.3262L52.4717 53.828V54.3309L50.8665 55.2469ZM51.6152 55.1828L53.2207 54.267L55.7832 55.7688V56.2719L54.178 57.1877L51.6152 55.6857V55.1828ZM57.6923 54.1839L56.087 55.0995L53.5243 53.5977V53.0948L55.1296 52.179L57.6923 53.6808V54.1839ZM60.7879 55.9981L59.1824 56.9139L56.6199 55.4119V54.909L58.2254 53.9932L60.7879 55.4952V55.9981ZM63.8834 57.8123L62.278 58.7281L59.7154 57.2263V56.7234L61.3209 55.8074L63.8834 57.3094V57.8123ZM67.6559 59.5204L70.2186 61.0224V61.5253L68.6131 62.4411L66.0506 60.9391V60.4362L67.6559 59.5204ZM66.9071 59.5845L65.3016 60.5003L62.7389 58.9983V58.4954L64.3444 57.5796L66.9071 59.0816V59.5845ZM42.1126 50.1163V49.6131L43.7181 48.6976L46.2806 50.1996V50.7025L44.6753 51.6181L42.1126 50.1163ZM39.0173 48.3019V47.7992L40.6223 46.8834L43.185 48.3852V48.8881L41.5798 49.8039L39.0173 48.3019ZM43.1517 51.235V51.7379L41.5464 52.6537L38.9837 51.1519V50.6488L40.5892 49.733L43.1517 51.235ZM37.0834 52.2357L36.6486 52.4837V51.9808L38.2541 51.065L40.8166 52.567V53.07L39.2111 53.9857V53.4828L37.0834 52.2357ZM70.9099 70.0358V70.5387L70.2531 70.9132L69.1013 70.238V69.7351L69.7581 69.3604L70.9099 70.0358ZM67.2037 67.6914V67.1884L68.809 66.2726L72.5248 68.4505V68.9534L70.9196 69.8692L67.2037 67.6914ZM92.3041 68.9875V69.4902L90.6986 70.406L89.2892 69.58V69.0771L90.8947 68.1613L92.3041 68.9875ZM42.1811 36.38L34.6338 41.1192L12.8948 53.5196L14.3345 53.6092L68.9338 85.6969L99.1572 69.4742C99.1585 69.4225 99.1626 69.3699 99.1709 69.315C99.1768 69.2757 99.1856 69.2374 99.1966 69.1992L42.1811 36.38Z" fill="#8B67DA"/>
<path d="M98.92 70.3885L99.3782 68.9601L68.9338 85.6968L69.9106 86.9363L98.7951 70.4596L98.746 70.4655L98.7951 70.4596L98.92 70.3885Z" fill="#7446D9"/>
<path d="M68.9339 85.6968L69.9107 86.9363L12.8949 53.5195L14.3346 53.6091L68.9339 85.6968Z" fill="#A281E7"/>
<path d="M52.5016 0.396606L53.5265 0.27584L80.219 15.92L110.266 33.5301L109.241 33.6511L52.5016 0.396606Z" fill="#B89CF2"/>
<path d="M37.0836 52.2356L36.6486 52.4837V51.9808L37.0836 52.2356Z" fill="#E7DCFE"/>
<path d="M40.8165 52.5669V53.0699L39.2112 53.9857V53.4827L40.8165 52.5669Z" fill="#E7DCFE"/>
<path d="M79.3207 70.2357L77.7154 71.1515V70.6486L79.3207 69.7328V70.2357Z" fill="#E7DCFE"/>
<path d="M77.7153 71.1515L76.3057 70.3253V69.8224L77.7153 70.6486V71.1515Z" fill="#E7DCFE"/>
<path d="M80.6549 73.8871L79.0497 74.8029V74.3L80.6549 73.3842V73.8871Z" fill="#E7DCFE"/>
<path d="M79.0496 74.8029L77.6403 73.977V73.474L79.0496 74.3V74.8029Z" fill="#E7DCFE"/>
<path d="M83.1358 72.472L81.5306 73.3876V72.8847L83.1358 71.9689V72.472Z" fill="#E7DCFE"/>
<path d="M81.5306 73.3876L80.1212 72.5616V72.0587L81.5306 72.8847V73.3876Z" fill="#E7DCFE"/>
<path d="M52.3798 49.8043L49.8173 48.3023V47.7993L52.3798 49.3013V49.8043Z" fill="#E7DCFE"/>
<path d="M53.9851 48.8885L52.3798 49.8043V49.3013L53.9851 48.3855V48.8885Z" fill="#E7DCFE"/>
<path d="M82.5988 75.0264L80.9933 75.9421V75.4392L82.5988 74.5234V75.0264Z" fill="#E7DCFE"/>
<path d="M80.9933 75.9421L79.5839 75.116V74.6131L80.9933 75.4392V75.9421Z" fill="#E7DCFE"/>
<path d="M76.8604 76.0516L75.451 75.2255V74.7228L76.8604 75.5487V76.0516Z" fill="#E7DCFE"/>
<path d="M78.4659 75.1359L76.8605 76.0516V75.5487L78.4659 74.6329V75.1359Z" fill="#E7DCFE"/>
<path d="M74.9888 74.9546L73.5794 74.1286V73.6257L74.9888 74.4517V74.9546Z" fill="#E7DCFE"/>
<path d="M76.594 74.039L74.9887 74.9546V74.4517L76.594 73.5359V74.039Z" fill="#E7DCFE"/>
<path d="M78.8042 77.1909L77.3948 76.3647V75.8618L78.8042 76.688V77.1909Z" fill="#E7DCFE"/>
<path d="M80.4095 76.2751L78.8042 77.1909V76.688L80.4095 75.7722V76.2751Z" fill="#E7DCFE"/>
<path d="M46.2472 53.5522L44.6417 54.4678V53.9648L46.2472 53.0493V53.5522Z" fill="#E7DCFE"/>
<path d="M44.6417 54.4678L42.0792 52.966V52.4631L44.6417 53.9648V54.4678Z" fill="#E7DCFE"/>
<path d="M36.7446 47.9826L35.1393 48.8984V48.3955L36.7446 47.4797V47.9826Z" fill="#E7DCFE"/>
<path d="M35.1393 48.8984L31.2954 46.6456V46.1427L35.1393 48.3955V48.8984Z" fill="#E7DCFE"/>
<path d="M78.7833 72.79L77.1778 73.7058V73.2029L78.7833 72.2871V72.79Z" fill="#E7DCFE"/>
<path d="M77.1778 73.7058L75.7684 72.8799V72.377L77.1778 73.2029V73.7058Z" fill="#E7DCFE"/>
<path d="M42.8771 44.2346L40.9551 43.1082V42.6055L42.8771 43.7319V44.2346Z" fill="#E7DCFE"/>
<path d="M44.4826 43.3191L42.8771 44.2346V43.7319L44.4826 42.8161V43.3191Z" fill="#E7DCFE"/>
<path d="M76.8394 71.6508L75.2342 72.5668V72.0636L76.8394 71.1481V71.6508Z" fill="#E7DCFE"/>
<path d="M75.2341 72.5668L73.8245 71.7406V71.2377L75.2341 72.0636V72.5668Z" fill="#E7DCFE"/>
<path d="M46.9638 41.9038L45.3583 42.8196V42.3167L46.9638 41.4009V41.9038Z" fill="#E7DCFE"/>
<path d="M45.3582 42.8196L43.4363 41.693V41.1903L45.3582 42.3167V42.8196Z" fill="#E7DCFE"/>
<path d="M85.0798 73.6113L83.4742 74.5269V74.0239L85.0798 73.1081V73.6113Z" fill="#E7DCFE"/>
<path d="M83.4743 74.5269L82.0651 73.7009V73.198L83.4743 74.0239V74.5269Z" fill="#E7DCFE"/>
<path d="M81.2645 71.375L79.659 72.2905V71.7876L81.2645 70.872V71.375Z" fill="#E7DCFE"/>
<path d="M79.659 72.2905L78.2496 71.4646V70.9617L79.659 71.7876V72.2905Z" fill="#E7DCFE"/>
<path d="M90.6986 70.4059L89.2892 69.58V69.0771L90.6986 69.903V70.4059Z" fill="#E7DCFE"/>
<path d="M92.3041 69.4902L90.6986 70.4059V69.903L92.3041 68.9875V69.4902Z" fill="#E7DCFE"/>
<path d="M88.4886 67.254L86.8831 68.1698V67.6669L88.4886 66.7511V67.254Z" fill="#E7DCFE"/>
<path d="M86.8831 68.1698L85.4737 67.3436V66.8407L86.8831 67.6669V68.1698Z" fill="#E7DCFE"/>
<path d="M38.0426 41.5204L36.7469 40.7609V40.2579L38.0426 41.0175V41.5204Z" fill="#E7DCFE"/>
<path d="M42.0561 39.2309L38.0427 41.5204V41.0175L42.0561 38.7279V39.2309Z" fill="#E7DCFE"/>
<path d="M84.9693 75.8509L81.3208 77.9323V77.4294L84.9693 75.348V75.8509Z" fill="#E7DCFE"/>
<path d="M81.3208 77.9323L80.1689 77.2572V76.7543L81.3208 77.4294V77.9323Z" fill="#E7DCFE"/>
<path d="M80.1234 69.7777L78.7137 68.9518V68.4489L80.1234 69.2748V69.7777Z" fill="#E7DCFE"/>
<path d="M81.7288 68.8622L80.1233 69.7777V69.2748L81.7288 68.359V68.8622Z" fill="#E7DCFE"/>
<path d="M85.8823 73.1533L84.4731 72.3271V71.8242L85.8823 72.6503V73.1533Z" fill="#E7DCFE"/>
<path d="M87.4877 72.2375L85.8822 73.1533V72.6503L87.4877 71.7346V72.2375Z" fill="#E7DCFE"/>
<path d="M88.2173 71.8212L86.808 70.9951V70.4923L88.2173 71.3183V71.8212Z" fill="#E7DCFE"/>
<path d="M89.8229 70.9054L88.2174 71.8212V71.3183L89.8229 70.4025V70.9054Z" fill="#E7DCFE"/>
<path d="M84.0639 67.5301L82.4584 68.4457V67.943L84.0639 67.0272V67.5301Z" fill="#E7DCFE"/>
<path d="M82.4584 68.4457L81.049 67.6198V67.1168L82.4584 67.943V68.4457Z" fill="#E7DCFE"/>
<path d="M86.5447 66.1147L84.9395 67.0305V66.5276L86.5447 65.6118V66.1147Z" fill="#E7DCFE"/>
<path d="M84.9394 67.0305L83.5298 66.2046V65.7014L84.9394 66.5276V67.0305Z" fill="#E7DCFE"/>
<path d="M83.6722 70.0011L82.067 70.9169V70.414L83.6722 69.4982V70.0011Z" fill="#E7DCFE"/>
<path d="M82.0671 70.9169L80.6577 70.091V69.5881L82.0671 70.414V70.9169Z" fill="#E7DCFE"/>
<path d="M93.8719 70.7727L90.2232 72.8541V72.351L93.8719 70.2698V70.7727Z" fill="#E7DCFE"/>
<path d="M90.2231 72.8541L89.0713 72.179V71.6761L90.2231 72.351V72.8541Z" fill="#E7DCFE"/>
<path d="M84.4021 69.5849L82.9925 68.759V68.256L84.4021 69.082V69.5849Z" fill="#E7DCFE"/>
<path d="M86.0077 68.6693L84.4022 69.5849V69.082L86.0077 68.1662V68.6693Z" fill="#E7DCFE"/>
<path d="M87.8792 69.7662L86.2737 70.682V70.1791L87.8792 69.2633V69.7662Z" fill="#E7DCFE"/>
<path d="M86.2738 70.682L84.8643 69.8561V69.3531L86.2738 70.1791V70.682Z" fill="#E7DCFE"/>
<path d="M89.4937 73.2701L85.845 75.3516V74.8486L89.4937 72.7672V73.2701Z" fill="#E7DCFE"/>
<path d="M85.845 75.3516L84.6932 74.6764V74.1735L85.845 74.8486V75.3516Z" fill="#E7DCFE"/>
<path d="M83.9385 72.014L82.5294 71.1878V70.6851L83.9385 71.5111V72.014Z" fill="#E7DCFE"/>
<path d="M85.5441 71.0982L83.9386 72.014V71.5111L85.5441 70.5953V71.0982Z" fill="#E7DCFE"/>
<path d="M90.3602 68.3509L88.7549 69.2667V68.7637L90.3602 67.8479V68.3509Z" fill="#E7DCFE"/>
<path d="M88.7549 69.2667L87.3453 68.4407V67.9378L88.7549 68.7637V69.2667Z" fill="#E7DCFE"/>
<path d="M74.0485 68.8334L70.3326 66.6556V66.1529L74.0485 68.3307V68.8334Z" fill="#E7DCFE"/>
<path d="M75.6537 67.9177L74.0485 68.8334V68.3307L75.6537 67.4147V67.9177Z" fill="#E7DCFE"/>
<path d="M36.1158 52.1714L33.5531 50.6694V50.1665L36.1158 51.6683V52.1714Z" fill="#E7DCFE"/>
<path d="M37.721 51.2554L36.1158 52.1714V51.6683L37.721 50.7525V51.2554Z" fill="#E7DCFE"/>
<path d="M32.8043 50.2305L30.2416 48.7285V48.2258L32.8043 49.7275V50.2305Z" fill="#E7DCFE"/>
<path d="M34.4092 49.3147L32.8042 50.2305V49.7275L34.4092 48.8118V49.3147Z" fill="#E7DCFE"/>
<path d="M71.399 72.0912L70.7424 72.4657V71.9628L71.399 71.5883V72.0912Z" fill="#E7DCFE"/>
<path d="M70.7424 72.4657L69.5904 71.7908V71.2912L70.7424 71.9628V72.4657Z" fill="#E7DCFE"/>
<path d="M69.1585 71.5375L68.0068 70.8623V70.3628L69.1585 71.0348V71.5375Z" fill="#E7DCFE"/>
<path d="M69.5904 71.2912L69.1586 71.5375V71.0348L69.8151 70.6598V71.1596L69.5904 71.2878V71.2912Z" fill="#E7DCFE"/>
<path d="M66.4229 69.9341V69.4312L67.5747 70.1063V70.6093L66.4229 69.9341Z" fill="#E7DCFE"/>
<path d="M67.5747 70.6093V70.1063L68.2315 69.7316V70.2312L68.0068 70.3596L67.5747 70.6093Z" fill="#E7DCFE"/>
<path d="M50.2751 43.8446L48.6698 44.7604V44.2575L50.2751 43.3417V43.8446Z" fill="#E7DCFE"/>
<path d="M48.6699 44.7604L46.1074 43.2586V42.7557L48.6699 44.2574V44.7604Z" fill="#E7DCFE"/>
<path d="M70.9099 70.5386L70.2531 70.9131V70.4102L70.9099 70.0357V70.5386Z" fill="#E7DCFE"/>
<path d="M70.253 70.9131L69.1013 70.2379V69.7352L70.253 70.4102V70.9131Z" fill="#E7DCFE"/>
<path d="M54.8609 48.3889L52.2983 46.8868V46.3839L54.8609 47.8859V48.3889Z" fill="#E7DCFE"/>
<path d="M56.4662 47.4733L54.8607 48.3889V47.8859L56.4662 46.9701V47.4733Z" fill="#E7DCFE"/>
<path d="M39.8735 46.9473L38.2682 47.863V47.3601L39.8735 46.4443V46.9473Z" fill="#E7DCFE"/>
<path d="M38.2684 47.863L34.4243 45.61V45.1071L38.2684 47.3601V47.863Z" fill="#E7DCFE"/>
<path d="M72.5248 68.9534L70.9195 69.8691V69.366L72.5248 68.4504V68.9534Z" fill="#E7DCFE"/>
<path d="M70.9196 69.8691L67.2038 67.6913V67.1884L70.9196 69.366V69.8691Z" fill="#E7DCFE"/>
<path d="M73.0449 73.8153L71.6356 72.9894V72.4864L73.0449 73.3124V73.8153Z" fill="#E7DCFE"/>
<path d="M74.6502 72.8998L73.045 73.8153V73.3124L74.6502 72.3968V72.8998Z" fill="#E7DCFE"/>
<path d="M51.7653 46.5748L49.2026 45.0728V44.5698L51.7653 46.0718V46.5748Z" fill="#E7DCFE"/>
<path d="M51.7652 46.0718L53.3705 45.1558V45.659L51.7652 46.5748V46.0718Z" fill="#E7DCFE"/>
<path d="M40.0562 49.9237L38.4509 50.8392V50.3363L40.0562 49.4208V49.9237Z" fill="#E7DCFE"/>
<path d="M38.4508 50.8392L35.8881 49.3375V48.8345L38.4508 50.3363V50.8392Z" fill="#E7DCFE"/>
<path d="M59.7153 57.2263V56.7234L62.2778 58.2252V58.7281L59.7153 57.2263Z" fill="#E7DCFE"/>
<path d="M63.8833 57.3094V57.8123L62.2778 58.7281V58.2252L63.8833 57.3094Z" fill="#E7DCFE"/>
<path d="M51.2852 50.4283L49.6799 51.3444V50.8412L51.2852 49.9256V50.4283Z" fill="#E7DCFE"/>
<path d="M49.68 51.3444L47.1172 49.8424V49.3394L49.68 50.8412V51.3444Z" fill="#E7DCFE"/>
<path d="M73.7942 58.9826L75.3994 58.0668V58.5697L73.7942 59.4855V58.9826Z" fill="#E7DCFE"/>
<path d="M71.2314 57.4808L73.7942 58.9826V59.4855L71.2314 57.9838V57.4808Z" fill="#E7DCFE"/>
<path d="M80.2096 62.7429L81.8149 61.8269V62.33L80.2096 63.2458V62.7429Z" fill="#E7DCFE"/>
<path d="M77.4227 61.1095L80.2097 62.7429V63.2458L77.4227 61.6124V61.1095Z" fill="#E7DCFE"/>
<path d="M67.4591 55.2698L69.0643 54.354V54.8569L67.4591 55.7725V55.2698Z" fill="#E7DCFE"/>
<path d="M64.8965 53.7678L67.4591 55.2698V55.7725L64.8965 54.2707V53.7678Z" fill="#E7DCFE"/>
<path d="M55.3937 48.1984L57.9565 49.7001V50.2031L55.3937 48.7013V48.1984Z" fill="#E7DCFE"/>
<path d="M57.9564 49.7001L59.5619 48.7846V49.2873L57.9564 50.2031V49.7001Z" fill="#E7DCFE"/>
<path d="M61.801 51.9537L64.3635 53.4554V53.9584L61.801 52.4564V51.9537Z" fill="#E7DCFE"/>
<path d="M64.3634 53.4554L65.9686 52.5397V53.0426L64.3634 53.9584V53.4554Z" fill="#E7DCFE"/>
<path d="M74.3271 59.2951L76.8899 60.7971V61.3L74.3271 59.798V59.2951Z" fill="#E7DCFE"/>
<path d="M76.8898 60.7971L78.4951 59.8813V60.3842L76.8898 61.3V60.7971Z" fill="#E7DCFE"/>
<path d="M58.7052 50.1392L61.2679 51.641V52.1439L58.7052 50.6422V50.1392Z" fill="#E7DCFE"/>
<path d="M61.2679 51.641L62.8731 50.7254V51.2284L61.2679 52.1439V51.641Z" fill="#E7DCFE"/>
<path d="M67.92 55.5398L70.4827 57.0418V57.5447L67.92 56.0427V55.5398Z" fill="#E7DCFE"/>
<path d="M70.4827 57.0418L72.088 56.126V56.6292L70.4827 57.5447V57.0418Z" fill="#E7DCFE"/>
<path d="M87.7153 63.9717L87.8386 64.0019L87.9443 64.0493L88.025 64.111L88.0753 64.1827L88.0919 64.2595L88.0735 64.3362L88.0214 64.4073L87.9394 64.4685L87.8327 64.515L87.7086 64.5444L87.5758 64.5538L87.4435 64.5432L87.32 64.513L87.2145 64.4656L87.1338 64.404L87.0835 64.3322L87.0669 64.2554L87.0853 64.1789L87.1374 64.1076L87.2194 64.0464L87.3263 63.9997L87.4503 63.9708L87.5828 63.9611L87.7153 63.9717Z" fill="#F1F6FF"/>
<path d="M33.3723 43.6815L37.3858 41.3922V41.8951L33.3723 44.1844V43.6815Z" fill="#E7DCFE"/>
<path d="M33.3722 43.6815V44.1844L32.0766 43.4249V42.9219L33.3722 43.6815Z" fill="#E7DCFE"/>
<path d="M54.3807 51.7399V52.2428L52.7755 53.1586V52.6556L54.3807 51.7399Z" fill="#E7DCFE"/>
<path d="M52.7757 52.6556V53.1586L50.213 51.6566V51.1536L52.7757 52.6556Z" fill="#E7DCFE"/>
<path d="M50.8665 54.7438V55.2468L48.3038 53.7448V53.2418L50.8665 54.7438Z" fill="#E7DCFE"/>
<path d="M50.8665 55.2468V54.7438L52.4719 53.8278V54.3307L50.8665 55.2468Z" fill="#E7DCFE"/>
<path d="M49.3762 52.0137V52.5166L47.7709 53.4324V52.9294L49.3762 52.0137Z" fill="#E7DCFE"/>
<path d="M47.7709 52.9294V53.4324L45.2081 51.9304V51.4274L47.7709 52.9294Z" fill="#E7DCFE"/>
<path d="M54.1779 56.6845L55.7832 55.7689V56.2718L54.1779 57.1876V56.6845Z" fill="#E7DCFE"/>
<path d="M54.178 56.6845V57.1876L51.6152 55.6856V55.1827L54.178 56.6845Z" fill="#E7DCFE"/>
<path d="M75.9573 66.2426V66.7455L72.2415 64.5677V64.0648L75.9573 66.2426Z" fill="#E7DCFE"/>
<path d="M75.9573 66.7455V66.2426L77.5626 65.3268V65.8297L75.9573 66.7455Z" fill="#E7DCFE"/>
<path d="M58.7869 53.0563L60.3922 52.1405V52.6434L58.7869 53.5594V53.0563Z" fill="#E7DCFE"/>
<path d="M58.787 53.0563V53.5594L56.2242 52.0574V51.5545L58.787 53.0563Z" fill="#E7DCFE"/>
<path d="M68.0015 58.4572V58.9601L65.4388 57.4581V56.9551L68.0015 58.4572Z" fill="#E7DCFE"/>
<path d="M68.0015 58.9601V58.4572L69.6068 57.5414V58.0443L68.0015 58.9601Z" fill="#E7DCFE"/>
<path d="M74.4087 62.2124V62.7153L71.8463 61.2133V60.7104L74.4087 62.2124Z" fill="#E7DCFE"/>
<path d="M74.4087 62.7153V62.2124L76.0141 61.2964V61.7993L74.4087 62.7153Z" fill="#E7DCFE"/>
<path d="M67.2371 64.3385L69.7998 65.8405V66.3434L67.2371 64.8414V64.3385Z" fill="#E7DCFE"/>
<path d="M69.7998 66.3434V65.8405L71.4051 64.9247V65.4277L69.7998 66.3434Z" fill="#E7DCFE"/>
<path d="M69.1462 62.2505L71.7087 63.7523V64.2552L69.1462 62.7535V62.2505Z" fill="#E7DCFE"/>
<path d="M71.7086 64.2552V63.7523L73.314 62.8368V63.3397L71.7086 64.2552Z" fill="#E7DCFE"/>
<path d="M66.5835 55.7691V56.272L64.978 57.1878V56.6849L66.5835 55.7691Z" fill="#E7DCFE"/>
<path d="M64.9778 56.6849V57.1878L62.4153 55.6858V55.1831L64.9778 56.6849Z" fill="#E7DCFE"/>
<path d="M60.83 61.0862V60.5833L63.3925 62.0853V62.5882L60.83 61.0862Z" fill="#E7DCFE"/>
<path d="M63.3925 62.5882V62.0853L64.998 61.1695V61.6724L63.3925 62.5882Z" fill="#E7DCFE"/>
<path d="M55.4753 51.1155L57.0809 50.1998V50.7027L55.4753 51.6185V51.1155Z" fill="#E7DCFE"/>
<path d="M55.4755 51.1155V51.6185L52.913 50.1165V49.6138L55.4755 51.1155Z" fill="#E7DCFE"/>
<path d="M48.4863 56.7211V56.2182L51.0491 57.7202V58.2231L48.4863 56.7211Z" fill="#E7DCFE"/>
<path d="M52.6545 56.8044V57.3073L51.049 58.2231V57.7202L52.6545 56.8044Z" fill="#E7DCFE"/>
<path d="M62.7388 58.4953L65.3015 59.9973V60.5002L62.7388 58.9982V58.4953Z" fill="#E7DCFE"/>
<path d="M65.3015 60.5002V59.9973L66.907 59.0815V59.5844L65.3015 60.5002Z" fill="#E7DCFE"/>
<path d="M54.7109 56.9969L57.2732 58.4989V59.0018L54.7109 57.4998V56.9969Z" fill="#E7DCFE"/>
<path d="M57.2733 59.0018V58.4989L58.8791 57.5831V58.086L57.2733 59.0018Z" fill="#E7DCFE"/>
<path d="M56.0871 54.5965L57.6924 53.6807V54.1839L56.0871 55.0994V54.5965Z" fill="#E7DCFE"/>
<path d="M56.0869 54.5965V55.0994L53.5242 53.5976V53.0947L56.0869 54.5965Z" fill="#E7DCFE"/>
<path d="M54.1446 60.0375L51.5818 58.5352V58.0325L54.1446 59.5345V60.0375Z" fill="#E7DCFE"/>
<path d="M55.7498 59.1217L54.1445 60.0375V59.5346L55.7498 58.6188V59.1217Z" fill="#E7DCFE"/>
<path d="M63.5752 65.5646L61.0125 64.0626V63.5597L63.5752 65.0617V65.5646Z" fill="#E7DCFE"/>
<path d="M65.1805 64.6486L63.5753 65.5646V65.0617L65.1805 64.1457V64.6486Z" fill="#E7DCFE"/>
<path d="M43.185 48.888L41.5797 49.8038V49.3009L43.185 48.3851V48.888Z" fill="#E7DCFE"/>
<path d="M41.5797 49.8038L39.0172 48.3018V47.7989L41.5797 49.3009V49.8038Z" fill="#E7DCFE"/>
<path d="M46.2805 50.7024L44.6752 51.618V51.1151L46.2805 50.1995V50.7024Z" fill="#E7DCFE"/>
<path d="M44.6753 51.618L42.1125 50.1162V49.6133L44.6753 51.1151V51.618Z" fill="#E7DCFE"/>
<path d="M72.9184 59.9851L71.3131 60.9009V60.398L72.9184 59.4822V59.9851Z" fill="#E7DCFE"/>
<path d="M71.3132 60.9009L68.7507 59.3991V58.896L71.3132 60.398V60.9009Z" fill="#E7DCFE"/>
<path d="M68.6131 62.441L66.0505 60.939V60.4361L68.6131 61.9381V62.441Z" fill="#E7DCFE"/>
<path d="M70.2184 61.5253L68.6131 62.441V61.9381L70.2184 61.0223V61.5253Z" fill="#E7DCFE"/>
<path d="M66.6707 67.3788L64.108 65.8768V65.3739L66.6707 66.8759V67.3788Z" fill="#E7DCFE"/>
<path d="M68.2761 66.4633L66.6708 67.3788V66.8759L68.2761 65.9601V66.4633Z" fill="#E7DCFE"/>
<path d="M66.7043 64.5291L64.1415 63.0271V62.5241L66.7043 64.0261V64.5291Z" fill="#E7DCFE"/>
<path d="M68.3095 63.6135L66.7042 64.5291V64.0261L68.3095 63.1103V63.6135Z" fill="#E7DCFE"/>
<path d="M66.6607 68.2172L65.0557 69.1328V68.6298L66.6607 67.714V68.2172Z" fill="#E7DCFE"/>
<path d="M65.0557 69.1328L62.4929 67.6307V67.1278L65.0557 68.6298V69.1328Z" fill="#E7DCFE"/>
<path d="M62.4931 67.2642L62.1761 67.4452V66.9423L63.7814 66.0263V66.3931L62.4931 67.1278V67.2642Z" fill="#E7DCFE"/>
<path d="M59.6133 65.9432V65.4403L62.1761 66.9423V67.4452L59.6133 65.9432Z" fill="#E7DCFE"/>
<path d="M59.1524 65.673L56.59 64.171V63.6681L59.1524 65.1701V65.673Z" fill="#E7DCFE"/>
<path d="M60.7578 64.7572L59.1523 65.673V65.1701L60.7578 64.2543V64.7572Z" fill="#E7DCFE"/>
<path d="M61.8689 62.7081L60.2637 63.6237V63.1207L61.8689 62.2052V62.7081Z" fill="#E7DCFE"/>
<path d="M60.2636 63.6237L57.7011 62.1219V61.619L60.2636 63.1207V63.6237Z" fill="#E7DCFE"/>
<path d="M55.5233 63.546L43.9918 56.7874V56.2845L55.5233 63.043V63.546Z" fill="#E7DCFE"/>
<path d="M57.1286 62.6302L55.5233 63.546V63.043L57.1286 62.1273V62.6302Z" fill="#E7DCFE"/>
<path d="M43.1517 51.7378L41.5464 52.6536V52.1507L43.1517 51.2349V51.7378Z" fill="#E7DCFE"/>
<path d="M41.5463 52.6536L38.9836 51.1516V50.6487L41.5463 52.1507V52.6536Z" fill="#E7DCFE"/>
<path d="M57.2402 61.8517L54.6777 60.3498V59.8468L57.2402 61.3488V61.8517Z" fill="#E7DCFE"/>
<path d="M58.8454 60.936L57.2401 61.8517V61.3488L58.8454 60.433V60.936Z" fill="#E7DCFE"/>
<path d="M50.8896 47.0743L49.2841 47.9899V47.4869L50.8896 46.5714V47.0743Z" fill="#E7DCFE"/>
<path d="M49.2841 47.9899L46.7216 46.4878V45.9849L49.2841 47.4869V47.9899Z" fill="#E7DCFE"/>
<path d="M59.1822 56.9138L56.6198 55.4117V54.9088L59.1822 56.4108V56.9138Z" fill="#E7DCFE"/>
<path d="M60.788 55.998L59.1823 56.9138V56.4108L60.788 55.4951V55.998Z" fill="#E7DCFE"/>
<path d="M61.9743 59.9002L60.369 60.816V60.3131L61.9743 59.3975V59.9002Z" fill="#E7DCFE"/>
<path d="M60.369 60.816L57.8065 59.3143V58.8113L60.369 60.3131V60.816Z" fill="#E7DCFE"/>
<path d="M77.7284 64.6609L74.9413 63.0275V62.5246L77.7284 64.158V64.6609Z" fill="#E7DCFE"/>
<path d="M79.3339 63.7451L77.7284 64.6609V64.158L79.3339 63.2424V63.7451Z" fill="#E7DCFE"/>
<path d="M61.8823 55.3737L59.3198 53.8717V53.3688L61.8823 54.8708V55.3737Z" fill="#E7DCFE"/>
<path d="M63.4878 54.4579L61.8823 55.3737V54.8708L63.4878 53.955V54.4579Z" fill="#E7DCFE"/>
<path d="M89.1767 64.7861L89.227 64.8577L89.2439 64.9347L89.2254 65.0112L89.1733 65.0825L89.0913 65.1435L88.9845 65.1902L88.8605 65.2193L88.7277 65.229L88.5952 65.2182L88.4719 65.1881L88.3662 65.1407L88.2857 65.0789L88.2352 65.0073L88.2188 64.9306L88.237 64.8539L88.2891 64.7828L88.3711 64.7216L88.478 64.6749L88.6017 64.6457L88.7347 64.6363L88.8672 64.6469L88.9905 64.6769L89.096 64.7243L89.1767 64.7861Z" fill="#F1F6FF"/>
<path d="M36.3334 43.522V43.0191L40.1772 45.2721V45.775L36.3334 43.522Z" fill="#E7DCFE"/>
<path d="M41.7826 44.3563V44.8592L40.1771 45.775V45.2721L41.7826 44.3563Z" fill="#E7DCFE"/>
<path d="M48.1897 48.1113V48.6142L46.5844 49.53V49.027L48.1897 48.1113Z" fill="#E7DCFE"/>
<path d="M46.5844 49.027V49.53L44.0217 48.028V47.5253L46.5844 49.027Z" fill="#E7DCFE"/>
<path d="M39.7441 54.2978V53.7949L42.3069 55.2969V55.7998L39.7441 54.2978Z" fill="#E7DCFE"/>
<path d="M42.3069 55.7998V55.2969L43.9121 54.3813V54.884L42.3069 55.7998Z" fill="#E7DCFE"/>
<path d="M88.0735 64.336L88.0214 64.4074L87.9394 64.4683L87.8327 64.515L87.7088 64.5444L87.5758 64.5538L87.4435 64.5432L87.32 64.513L87.2145 64.4656L87.1338 64.404L87.0835 64.3322L87.0669 64.2554V64.7584L87.0835 64.8351L87.1338 64.9069L87.2145 64.9685L87.32 65.0161L87.4435 65.0462L87.5758 65.0568L87.7088 65.0473L87.8327 65.0179L87.9394 64.9714L88.0214 64.9103L88.0735 64.8389L88.0919 64.7624V64.2595L88.0735 64.336Z" fill="#E7DCFE"/>
<path d="M89.2254 65.0112L89.1733 65.0826L89.0913 65.1435L88.9845 65.1902L88.8605 65.2193L88.7277 65.229L88.5952 65.2182L88.4719 65.1882L88.3662 65.1408L88.2857 65.0789L88.2352 65.0074L88.2188 64.9306V65.4336L88.2352 65.5103L88.2857 65.5819L88.3662 65.6435L88.4719 65.6911L88.5952 65.7211L88.7277 65.7318L88.8605 65.7223L88.9845 65.6931L89.0913 65.6464L89.1733 65.5855L89.2254 65.5141L89.2439 65.4376V64.9347L89.2254 65.0112Z" fill="#E7DCFE"/>
<path d="M90.3052 65.6442L90.2532 65.7155L90.1709 65.7764L90.0643 65.8232L89.9403 65.8523L89.8076 65.8618L89.675 65.8512L89.5517 65.8211L89.4462 65.7735L89.3656 65.7119L89.3151 65.6403L89.2986 65.5636V66.0663L89.3151 66.1433L89.3656 66.2148L89.4462 66.2764L89.5517 66.3241L89.675 66.3541L89.8076 66.3649L89.9403 66.3552L90.0643 66.3261L90.1709 66.2794L90.2532 66.2184L90.3052 66.1471L90.3235 66.0703V65.5674L90.3052 65.6442Z" fill="#E7DCFE"/>
<path d="M89.9403 65.8522L89.8075 65.8617L89.675 65.8511L89.5517 65.8211L89.4462 65.7734L89.3655 65.7118L89.315 65.6402L89.2983 65.5633L89.3168 65.4868L89.3687 65.4154L89.4507 65.3545L89.5578 65.3077L89.6815 65.2786L89.8143 65.2691L89.9471 65.2798L90.0704 65.3098L90.1759 65.3574L90.2566 65.419L90.3068 65.4906L90.3237 65.5673L90.3052 65.6441L90.2532 65.7154L90.1709 65.7764L90.0643 65.8231L89.9403 65.8522Z" fill="#F1F6FF"/>
<path d="M43.626 44.6737V44.1708L46.1888 45.6728V46.1757L43.626 44.6737Z" fill="#E7DCFE"/>
<path d="M46.1888 46.1757V45.6728L47.7941 44.757V45.2599L46.1888 46.1757Z" fill="#E7DCFE"/>
<path d="M40.9261 46.2137V45.7108L43.4887 47.2126V47.7158L40.9261 46.2137Z" fill="#E7DCFE"/>
<path d="M43.4886 47.2126L45.094 46.2971V46.8L43.4886 47.7158V47.2126Z" fill="#E7DCFE"/>
<path d="M49.3427 54.8634V55.3664L47.7374 56.2822V55.779L49.3427 54.8634Z" fill="#E7DCFE"/>
<path d="M31.4621 43.2491L32.7599 44.0096L28.74 46.303L27.4417 45.5423L31.3582 43.3082L31.4621 43.2491Z" fill="#F1F6FF"/>
<path d="M38.3249 51.094L40.9043 52.6057L39.2885 53.5274L37.1468 52.2723L36.709 52.0157L38.3249 51.094Z" fill="#F1F6FF"/>
<path d="M76.3057 69.8224L77.9112 68.9066L79.3206 69.7328L77.7153 70.6486L76.3057 69.8224Z" fill="#F1F6FF"/>
<path d="M79.2457 72.5583L80.6549 73.3842L79.0496 74.3L77.6403 73.474L79.2457 72.5583Z" fill="#F1F6FF"/>
<path d="M83.1358 71.9688L81.5306 72.8846L80.1212 72.0587L81.7265 71.1429L83.1358 71.9688Z" fill="#F1F6FF"/>
<path d="M52.3798 49.3013L49.8173 47.7993L51.4225 46.8836L53.985 48.3856L52.3798 49.3013Z" fill="#F1F6FF"/>
<path d="M79.5839 74.613L81.1894 73.6973L82.5988 74.5234L80.9933 75.4392L79.5839 74.613Z" fill="#F1F6FF"/>
<path d="M75.451 74.7228L77.0563 73.807L78.466 74.6329L76.8605 75.5487L75.451 74.7228Z" fill="#F1F6FF"/>
<path d="M76.594 73.5359L74.9888 74.4517L73.5794 73.6257L75.1846 72.7099L76.594 73.5359Z" fill="#F1F6FF"/>
<path d="M80.4095 75.7721L78.8042 76.6879L77.3948 75.8618L79.0001 74.946L80.4095 75.7721Z" fill="#F1F6FF"/>
<path d="M43.7911 51.5796L46.3705 53.0913L44.7545 54.013L42.175 52.5013L43.7911 51.5796Z" fill="#F1F6FF"/>
<path d="M36.8056 47.4853L35.1895 48.407L31.3206 46.1393L32.9365 45.2177L36.8056 47.4853Z" fill="#F1F6FF"/>
<path d="M78.7833 72.2871L77.1778 73.2029L75.7684 72.3769L77.3739 71.4611L78.7833 72.2871Z" fill="#F1F6FF"/>
<path d="M41.0438 42.5791L42.6597 41.6572L44.5943 42.7911L42.9784 43.7127L41.0438 42.5791Z" fill="#F1F6FF"/>
<path d="M75.2341 72.0637L73.8245 71.2377L75.43 70.3219L76.8393 71.1481L75.2341 72.0637Z" fill="#F1F6FF"/>
<path d="M46.9637 41.4007L45.3583 42.3165L43.4363 41.1901L45.0416 40.2744L46.9637 41.4007Z" fill="#F1F6FF"/>
<path d="M83.4743 74.0239L82.0651 73.1979L83.6704 72.2822L85.0798 73.1081L83.4743 74.0239Z" fill="#F1F6FF"/>
<path d="M79.659 71.7875L78.2496 70.9616L79.8549 70.0458L81.2645 70.872L79.659 71.7875Z" fill="#F1F6FF"/>
<path d="M92.3041 68.9874L90.6986 69.903L89.2892 69.077L90.8947 68.1612L92.3041 68.9874Z" fill="#F1F6FF"/>
<path d="M85.4737 66.8408L87.0792 65.925L88.4886 66.7512L86.8831 67.6669L85.4737 66.8408Z" fill="#F1F6FF"/>
<path d="M42.1162 38.6727L38.0961 40.9659L36.798 40.2052L40.8182 37.912L42.1162 38.6727Z" fill="#F1F6FF"/>
<path d="M80.1689 76.7543L83.8175 74.6731L84.9693 75.348L81.3208 77.4294L80.1689 76.7543Z" fill="#F1F6FF"/>
<path d="M80.3192 67.533L81.7288 68.3589L80.1233 69.2747L78.7137 68.4488L80.3192 67.533Z" fill="#F1F6FF"/>
<path d="M84.4731 71.8241L86.0784 70.9083L87.4878 71.7345L85.8823 72.6503L84.4731 71.8241Z" fill="#F1F6FF"/>
<path d="M89.8228 70.4025L88.2174 71.3183L86.808 70.4924L88.4132 69.5766L89.8228 70.4025Z" fill="#F1F6FF"/>
<path d="M82.6545 66.2011L84.0638 67.0273L82.4584 67.9431L81.049 67.1169L82.6545 66.2011Z" fill="#F1F6FF"/>
<path d="M86.5447 65.6119L84.9394 66.5276L83.5298 65.7015L85.1353 64.7859L86.5447 65.6119Z" fill="#F1F6FF"/>
<path d="M82.067 70.4141L80.6577 69.5881L82.2629 68.6723L83.6723 69.4982L82.067 70.4141Z" fill="#F1F6FF"/>
<path d="M90.2231 72.351L89.0713 71.6761L92.7198 69.5948L93.8718 70.2698L90.2231 72.351Z" fill="#F1F6FF"/>
<path d="M84.598 67.3403L86.0076 68.1663L84.4021 69.082L82.9925 68.2561L84.598 67.3403Z" fill="#F1F6FF"/>
<path d="M84.8643 69.3531L86.4696 68.4373L87.8792 69.2632L86.2738 70.179L84.8643 69.3531Z" fill="#F1F6FF"/>
<path d="M89.4937 72.7672L85.845 74.8486L84.6932 74.1735L88.3419 72.0922L89.4937 72.7672Z" fill="#F1F6FF"/>
<path d="M84.1348 69.7693L85.544 70.5953L83.9385 71.511L82.5294 70.6851L84.1348 69.7693Z" fill="#F1F6FF"/>
<path d="M88.7549 68.7637L87.3453 67.9378L88.9508 67.022L90.3602 67.848L88.7549 68.7637Z" fill="#F1F6FF"/>
<path d="M74.0485 68.3308L70.3326 66.153L71.9379 65.2372L75.6537 67.4148L74.0485 68.3308Z" fill="#F1F6FF"/>
<path d="M36.1726 51.7015L33.5931 50.1896L35.209 49.2679L37.7882 50.7797L36.1726 51.7015Z" fill="#F1F6FF"/>
<path d="M30.2601 48.2362L31.8759 47.3143L34.4551 48.8262L32.8393 49.7479L30.2601 48.2362Z" fill="#F1F6FF"/>
<path d="M69.8151 70.6599L69.1585 71.0349L68.0068 70.3597L68.2315 70.2313L68.6634 69.985L69.8151 70.6599Z" fill="#F1F6FF"/>
<path d="M67.5747 70.1064L66.4229 69.4312L67.0797 69.0567L68.2315 69.7317L67.5747 70.1064Z" fill="#F1F6FF"/>
<path d="M70.2472 70.9131L71.399 71.5883L70.7424 71.9628L69.5904 71.2878L69.8151 71.1596L70.2472 70.9131Z" fill="#F1F6FF"/>
<path d="M50.2751 43.3416L48.6699 44.2574L46.1074 42.7556L47.7124 41.8398L50.2751 43.3416Z" fill="#F1F6FF"/>
<path d="M70.9099 70.0357L70.2531 70.4102L69.1013 69.7353L69.7581 69.3606L70.9099 70.0357Z" fill="#F1F6FF"/>
<path d="M52.2983 46.384L53.9036 45.4685L56.4663 46.9703L54.8608 47.886L52.2983 46.384Z" fill="#F1F6FF"/>
<path d="M34.4715 45.0623L36.0794 44.1452L39.9298 46.4018L38.3219 47.3192L34.4715 45.0623Z" fill="#F1F6FF"/>
<path d="M68.8091 66.2726L72.5249 68.4505L70.9197 69.366L67.2038 67.1884L68.8091 66.2726Z" fill="#F1F6FF"/>
<path d="M73.0449 73.3124L71.6356 72.4864L73.241 71.5708L74.6502 72.3968L73.0449 73.3124Z" fill="#F1F6FF"/>
<path d="M51.7653 46.0718L49.2026 44.5698L50.8081 43.654L53.3706 45.1558L51.7653 46.0718Z" fill="#F1F6FF"/>
<path d="M38.5229 50.3607L35.9435 48.8487L37.5594 47.9271L40.1388 49.439L38.5229 50.3607Z" fill="#F1F6FF"/>
<path d="M59.7153 56.7233L61.3208 55.8072L63.8833 57.3093L62.2778 58.225L59.7153 56.7233Z" fill="#F1F6FF"/>
<path d="M49.68 50.8412L47.1172 49.3395L48.7227 48.4237L51.2852 49.9257L49.68 50.8412Z" fill="#F1F6FF"/>
<path d="M75.3994 58.0668L73.7942 58.9826L71.2314 57.4808L72.8369 56.565L75.3994 58.0668Z" fill="#F1F6FF"/>
<path d="M81.815 61.8268L80.2097 62.7428L77.4227 61.1094L79.0282 60.1937L81.815 61.8268Z" fill="#F1F6FF"/>
<path d="M69.0643 54.3541L67.459 55.2698L64.8965 53.7678L66.5018 52.8521L69.0643 54.3541Z" fill="#F1F6FF"/>
<path d="M57.9565 49.7001L55.3937 48.1984L56.9992 47.2826L59.562 48.7846L57.9565 49.7001Z" fill="#F1F6FF"/>
<path d="M61.801 51.9537L63.4063 51.0379L65.9688 52.5397L64.3635 53.4554L61.801 51.9537Z" fill="#F1F6FF"/>
<path d="M76.8899 60.7971L74.3271 59.2951L75.9324 58.3795L78.4951 59.8813L76.8899 60.7971Z" fill="#F1F6FF"/>
<path d="M58.7052 50.1393L60.3107 49.2235L62.8731 50.7255L61.2679 51.6411L58.7052 50.1393Z" fill="#F1F6FF"/>
<path d="M70.4827 57.0417L67.92 55.5397L69.5255 54.6242L72.088 56.126L70.4827 57.0417Z" fill="#F1F6FF"/>
<path d="M37.4381 41.3412L33.4178 43.6344L32.12 42.8737L36.1401 40.5803L37.4381 41.3412Z" fill="#F1F6FF"/>
<path d="M54.3809 51.7399L52.7757 52.6556L50.213 51.1536L51.8182 50.2381L54.3809 51.7399Z" fill="#F1F6FF"/>
<path d="M52.472 53.8279L50.8665 54.7439L48.3038 53.2419L49.9093 52.3261L52.472 53.8279Z" fill="#F1F6FF"/>
<path d="M46.8136 50.5119L49.3762 52.0137L47.7709 52.9295L45.2081 51.4275L46.8136 50.5119Z" fill="#F1F6FF"/>
<path d="M55.7832 55.7689L54.178 56.6844L51.6152 55.1827L53.2207 54.2669L55.7832 55.7689Z" fill="#F1F6FF"/>
<path d="M75.9573 66.2426L72.2415 64.0647L73.8469 63.149L77.5625 65.3268L75.9573 66.2426Z" fill="#F1F6FF"/>
<path d="M60.3923 52.1405L58.787 53.0563L56.2242 51.5546L57.8297 50.6388L60.3923 52.1405Z" fill="#F1F6FF"/>
<path d="M68.0016 58.4572L65.4388 56.9552L67.0443 56.0394L69.6068 57.5414L68.0016 58.4572Z" fill="#F1F6FF"/>
<path d="M73.4515 59.7946L76.0142 61.2964L74.4087 62.2124L71.8463 60.7104L73.4515 59.7946Z" fill="#F1F6FF"/>
<path d="M69.7998 65.8405L67.2371 64.3385L68.8423 63.4227L71.4051 64.9247L69.7998 65.8405Z" fill="#F1F6FF"/>
<path d="M71.7087 63.7523L69.1462 62.2505L70.7517 61.3347L73.3142 62.8367L71.7087 63.7523Z" fill="#F1F6FF"/>
<path d="M64.0206 54.2674L66.5833 55.7692L64.9778 56.685L62.4153 55.1832L64.0206 54.2674Z" fill="#F1F6FF"/>
<path d="M60.83 60.5832L62.4354 59.6677L64.998 61.1694L63.3925 62.0852L60.83 60.5832Z" fill="#F1F6FF"/>
<path d="M57.0809 50.1998L55.4754 51.1155L52.913 49.6138L54.5182 48.698L57.0809 50.1998Z" fill="#F1F6FF"/>
<path d="M50.0918 55.3024L52.6545 56.8044L51.0491 57.7202L48.4863 56.2182L50.0918 55.3024Z" fill="#F1F6FF"/>
<path d="M65.3016 59.9973L62.7388 58.4953L64.3443 57.5795L66.907 59.0815L65.3016 59.9973Z" fill="#F1F6FF"/>
<path d="M57.2732 58.4989L54.7109 56.9969L56.3162 56.0813L58.8789 57.5831L57.2732 58.4989Z" fill="#F1F6FF"/>
<path d="M57.6922 53.6807L56.087 54.5965L53.5242 53.0947L55.1297 52.1789L57.6922 53.6807Z" fill="#F1F6FF"/>
<path d="M51.5818 58.0326L53.1873 57.1168L55.7498 58.6188L54.1446 59.5346L51.5818 58.0326Z" fill="#F1F6FF"/>
<path d="M65.1804 64.1458L63.5752 65.0618L61.0125 63.5598L62.6179 62.644L65.1804 64.1458Z" fill="#F1F6FF"/>
<path d="M40.7088 46.8849L43.2882 48.3966L41.6721 49.3182L39.093 47.8065L40.7088 46.8849Z" fill="#F1F6FF"/>
<path d="M43.8247 48.7111L46.4041 50.2228L44.7883 51.1444L42.2086 49.6327L43.8247 48.7111Z" fill="#F1F6FF"/>
<path d="M68.7507 58.8959L70.3559 57.9803L72.9184 59.4821L71.3132 60.3979L68.7507 58.8959Z" fill="#F1F6FF"/>
<path d="M67.6558 59.5205L70.2183 61.0223L68.6131 61.9381L66.0505 60.4361L67.6558 59.5205Z" fill="#F1F6FF"/>
<path d="M65.7135 64.4584L68.276 65.9601L66.6707 66.8759L64.108 65.3739L65.7135 64.4584Z" fill="#F1F6FF"/>
<path d="M65.747 61.6086L68.3095 63.1103L66.7043 64.0261L64.1415 62.5241L65.747 61.6086Z" fill="#F1F6FF"/>
<path d="M62.1761 66.9423L59.6133 65.4403L61.2188 64.5245L63.7813 66.0263L62.1761 66.9423Z" fill="#F1F6FF"/>
<path d="M65.0556 68.6298L62.4929 67.1278L63.7813 66.3931L64.0984 66.2123L66.6607 67.714L65.0556 68.6298Z" fill="#F1F6FF"/>
<path d="M58.1952 62.7525L60.7579 64.2543L59.1524 65.17L56.59 63.6681L58.1952 62.7525Z" fill="#F1F6FF"/>
<path d="M61.8689 62.2051L60.2636 63.1207L57.7011 61.6189L59.3066 60.7031L61.8689 62.2051Z" fill="#F1F6FF"/>
<path d="M55.5234 63.043L43.9918 56.2845L45.597 55.3687L57.1286 62.1272L55.5234 63.043Z" fill="#F1F6FF"/>
<path d="M43.2547 51.2649L41.6389 52.1868L39.0594 50.6751L40.6753 49.7532L43.2547 51.2649Z" fill="#F1F6FF"/>
<path d="M57.2402 61.3488L54.6777 59.8468L56.2829 58.931L58.8454 60.433L57.2402 61.3488Z" fill="#F1F6FF"/>
<path d="M46.7216 45.9849L48.3269 45.0694L50.8896 46.5714L49.2841 47.4869L46.7216 45.9849Z" fill="#F1F6FF"/>
<path d="M59.1823 56.4109L56.6198 54.9089L58.2252 53.9931L60.788 55.4951L59.1823 56.4109Z" fill="#F1F6FF"/>
<path d="M61.9742 59.3976L60.369 60.3131L57.8065 58.8113L59.4117 57.8953L61.9742 59.3976Z" fill="#F1F6FF"/>
<path d="M76.5468 61.609L79.3339 63.2424L77.7284 64.158L74.9413 62.5246L76.5468 61.609Z" fill="#F1F6FF"/>
<path d="M63.4878 53.955L61.8823 54.8708L59.3198 53.3688L60.9251 52.453L63.4878 53.955Z" fill="#F1F6FF"/>
<path d="M36.3838 42.9709L37.992 42.0536L41.8421 44.3102L40.2342 45.2275L36.3838 42.9709Z" fill="#F1F6FF"/>
<path d="M45.7462 46.6093L48.3256 48.121L46.7098 49.0428L44.1304 47.5309L45.7462 46.6093Z" fill="#F1F6FF"/>
<path d="M39.8247 53.8419L41.4408 52.9202L44.0202 54.4319L42.4043 55.3538L39.8247 53.8419Z" fill="#F1F6FF"/>
<path d="M43.7322 44.1547L45.348 43.2328L47.9272 44.7448L46.3114 45.6664L43.7322 44.1547Z" fill="#F1F6FF"/>
<path d="M41.0145 45.7048L42.6303 44.7831L45.2097 46.2948L43.5939 47.2165L41.0145 45.7048Z" fill="#F1F6FF"/>
<path d="M45.175 54.2773L46.7802 53.3617L49.3428 54.8635L47.7375 55.7791L45.175 54.2773Z" fill="#F1F6FF"/>
<path d="M45.175 54.7802V54.2772L47.7375 55.779V56.2822L45.175 54.7802Z" fill="#E7DCFE"/>
<path d="M44.2018 35.335L53.4277 3.16906L53.7097 3.33429L44.5426 35.2946L44.2018 35.335Z" fill="#4A91FB"/>
<path d="M97.9935 66.8619L44.2018 35.335L44.5426 35.2946L98.0526 66.6565L97.9935 66.8619Z" fill="#4A91FB"/>
<path d="M44.5429 35.2946L53.7099 3.33401L107.22 34.6959L98.0528 66.6565L44.5429 35.2946Z" fill="#E2F1F7"/>
<path d="M34.792 62.7448L41.5078 58.9137V59.1943L35.0345 62.887L34.792 62.7448Z" fill="#754AD3"/>
<path d="M41.5078 58.9139L58.4935 68.869L58.251 69.0076L41.5078 59.1944V58.9139Z" fill="#754AD3"/>
<path d="M41.5079 59.1943L58.251 69.0075L51.7775 72.7L35.0345 62.887L41.5079 59.1943Z" fill="#C0A5FC"/>
<path d="M34.6338 41.1191L12.8948 53.5196L14.3345 53.6092L27.4065 46.0506V45.9917V45.5861L31.316 43.3559L31.4199 43.2967L31.792 43.5148L32.0767 43.35V42.922L36.0901 40.6327L36.4309 40.8325L36.7469 40.6498V40.258L40.7602 37.9686L41.0699 38.1501L43.1584 36.9425L42.1811 36.3799L34.6338 41.1191Z" fill="#BAA1ED"/>
<path d="M62.9733 16.8301L62.9771 11.76L64.9349 15.2622L62.9733 16.8301Z" fill="#BFDBF9"/>
<path d="M63.038 18.5902L56.5234 37.5567L52.1341 40.0948L51.9227 40.2169L51.4793 40.4731V18.3983L62.9812 11.7479L63.038 18.5902Z" fill="#3D1399"/>
<path d="M48.5312 17.7997L48.519 17.673L48.5093 39.8051L48.5145 39.8489L48.5229 39.8929L48.5344 39.9365L48.5492 39.9796L48.567 40.022L48.5882 40.0638L48.6126 40.1053L48.6405 40.1466L48.6712 40.187L48.7048 40.2265L48.741 40.2647L48.7803 40.3019L48.8224 40.3385L48.8675 40.3742L48.9153 40.4085L48.9653 40.4417L49.0176 40.473L49.0721 40.5033L49.1294 40.5322L49.1889 40.5599L49.2504 40.5859L49.3135 40.6105L49.378 40.6331L49.4443 40.6541L49.5125 40.6735L49.5824 40.6913L49.6536 40.7071L49.7255 40.7213L49.7979 40.7338L49.8711 40.7439L49.946 40.7525L50.0212 40.7593L50.0972 40.764L50.1729 40.7669L50.2484 40.7681L50.3239 40.7669L50.3997 40.764L50.4756 40.7593L50.5511 40.7525L50.6257 40.7439L50.699 40.7338L50.7713 40.7213L50.8435 40.7071L50.9145 40.6913L50.9843 40.6735L51.0526 40.6541L51.1189 40.6331L51.1822 40.6098L51.2433 40.5843L51.3028 40.5568L51.3614 40.5286L51.42 40.5006L51.4793 40.473V18.3983C50.0023 19.0773 48.6617 18.4868 48.5312 17.7997Z" fill="#571BDB"/>
<path d="M51.4792 18.3983L62.8235 11.8391L60.6133 10.561L49.0639 17.2458C48.6906 17.5054 48.571 17.8042 48.6282 18.0812C49.0044 18.7062 50.2977 19.0992 51.4792 18.3983Z" fill="white"/>
<path d="M49.5337 17.2764L60.8753 10.712V10.53L60.5194 10.3244L48.9702 17.0091C48.1092 17.608 48.5881 18.4152 49.5098 18.6813C49.0015 18.3148 48.8748 17.7349 49.5337 17.2764Z" fill="#CED5D8"/>
<path d="M62.2682 11.7471L51.2981 18.0917C50.942 18.3028 50.5462 18.4143 50.1531 18.4143C49.4904 18.4143 48.9813 18.0976 48.8895 17.8041C48.8384 17.6407 48.9301 17.4743 49.1618 17.31L55.7516 13.4956L60.8705 10.5275L60.5194 10.3244L48.9702 17.0091C47.9251 17.7362 48.8541 18.7709 50.1531 18.7709C50.5746 18.7709 51.0348 18.6619 51.4793 18.3983L62.9811 11.7478L62.6241 11.5413L62.2682 11.7471Z" fill="#609FFD"/>
<path d="M68.8375 20.1525L68.7958 15.13L70.7495 18.6245L68.8375 20.1525Z" fill="#BFDBF9"/>
<path d="M68.8527 21.9525L62.3382 40.9187L57.9488 43.4568L57.7374 43.5789L57.2938 43.8353V21.7604L68.7957 15.1099L68.8527 21.9525Z" fill="#3D1399"/>
<path d="M54.3457 21.1616L54.3337 21.0352L54.324 43.1671L54.329 43.2109L54.3373 43.2549L54.3491 43.2985L54.3637 43.3416L54.3817 43.384L54.4027 43.4258L54.4273 43.4676L54.455 43.5086L54.4859 43.549L54.5192 43.5885L54.5555 43.6267L54.5947 43.6642L54.6371 43.7005L54.6822 43.7362L54.73 43.7707L54.78 43.8037L54.8323 43.8353L54.8866 43.8653L54.9439 43.8944L55.0034 43.9219L55.0649 43.9481L55.1282 43.9725L55.1927 43.9951L55.259 44.0161L55.327 44.0355L55.3971 44.0533L55.4681 44.0693L55.54 44.0836L55.6126 44.0958L55.6859 44.1061L55.7605 44.1147L55.836 44.1213L55.9117 44.126L55.9877 44.1292L56.0632 44.1301L56.1385 44.1292L56.2144 44.126L56.2901 44.1213L56.3656 44.1147L56.4403 44.1061L56.5135 44.0958L56.5861 44.0836L56.658 44.0693L56.7292 44.0533L56.7991 44.0355L56.8674 44.0161L56.9334 43.9951L56.997 43.9721L57.0581 43.9463L57.1173 43.919L57.1759 43.8908L57.2345 43.8626L57.294 43.8353V21.7603C55.8168 22.4393 54.4764 21.8488 54.3457 21.1616Z" fill="#571BDB"/>
<path d="M57.294 21.7603L68.6381 15.201L66.4279 13.923L54.8787 20.6077C54.5054 20.8675 54.3855 21.1662 54.4428 21.4431C54.8192 22.0682 56.1123 22.4612 57.294 21.7603Z" fill="white"/>
<path d="M55.3484 20.6387L66.6898 14.074V13.8923L66.3339 13.6864L54.7849 20.3712C53.9237 20.9701 54.4026 21.7775 55.3243 22.0434C54.816 21.677 54.6893 21.0969 55.3484 20.6387Z" fill="#CED5D8"/>
<path d="M68.0827 15.1094L57.1125 21.4535C56.7564 21.6648 56.3606 21.7763 55.9678 21.7763C55.3051 21.7763 54.7959 21.4596 54.704 21.1661C54.653 21.0027 54.7445 20.8366 54.9762 20.672L61.5663 16.8576L66.6853 13.8895L66.3339 13.6864L54.7849 20.3711C53.7395 21.0982 54.6688 22.1327 55.9678 22.1327C56.3892 22.1327 56.8495 22.0239 57.294 21.7602L68.7956 15.1098L68.4388 14.9033L68.0827 15.1094Z" fill="#609FFD"/>
<path d="M74.6522 23.5145L74.6105 18.492L76.5642 21.9865L74.6522 23.5145Z" fill="#BFDBF9"/>
<path d="M74.6672 25.3142L68.1526 44.2806L63.7633 46.8187L63.5519 46.9408L63.1085 47.1973V25.1223L74.6104 18.4719L74.6672 25.3142Z" fill="#3D1399"/>
<path d="M60.1603 24.5237L60.1484 24.3971L60.1387 46.5294L60.1436 46.573L60.152 46.617L60.1635 46.6605L60.1783 46.7037L60.1961 46.7461L60.2173 46.7878L60.2419 46.8296L60.2696 46.8707L60.3003 46.9111L60.3339 46.9506L60.3701 46.989L60.4091 47.026L60.4515 47.0628L60.4968 47.0982L60.5446 47.1328L60.5946 47.1657L60.6467 47.1973L60.7012 47.2276L60.7585 47.2565L60.818 47.284L60.8795 47.3102L60.9429 47.3346L61.0073 47.3571L61.0734 47.3784L61.1417 47.3978L61.2115 47.4154L61.2825 47.4314L61.3547 47.4456L61.4272 47.4578L61.5005 47.468L61.5751 47.4768L61.6504 47.4835L61.7263 47.4883L61.8021 47.4912L61.8776 47.4921L61.9531 47.4912L62.0288 47.4883L62.1048 47.4835L62.1803 47.4768L62.2549 47.468L62.3281 47.4578L62.4005 47.4456L62.4726 47.4314L62.5436 47.4154L62.6135 47.3978L62.6818 47.3784L62.748 47.3571L62.8114 47.3341L62.8727 47.3084L62.932 47.2811L62.9906 47.2529L63.0492 47.2246L63.1084 47.1973V25.1223C61.6314 25.8016 60.2908 25.2106 60.1603 24.5237Z" fill="#571BDB"/>
<path d="M63.1086 25.1223L74.4529 18.5631L72.2424 17.285L60.6935 23.97C60.32 24.2296 60.2004 24.5282 60.2576 24.8052C60.6338 25.4305 61.9269 25.8232 63.1086 25.1223Z" fill="white"/>
<path d="M61.1632 24.0006L72.5045 17.436V17.2543L72.1486 17.0484L60.5994 23.7334C59.7384 24.3322 60.2174 25.1394 61.139 25.4053C60.6306 25.0388 60.5041 24.4591 61.1632 24.0006Z" fill="#CED5D8"/>
<path d="M73.8975 18.4714L62.9274 24.8158C62.5712 25.0268 62.1754 25.1386 61.7824 25.1386C61.1197 25.1386 60.6105 24.8216 60.5188 24.5282C60.4676 24.3648 60.5591 24.1986 60.7911 24.0341L67.3811 20.2197L72.4998 17.2516L72.1487 17.0484L60.5995 23.7334C59.5543 24.4603 60.4834 25.495 61.7824 25.495C62.2038 25.495 62.6641 25.386 63.1086 25.1223L74.6104 18.4719L74.2534 18.2656L73.8975 18.4714Z" fill="#609FFD"/>
<path d="M82.7428 25.526L82.3337 25.3529L82.2174 25.4804L80.8491 24.8454L80.8263 22.0859L82.7469 25.5217L82.7428 25.526Z" fill="#BFDBF9"/>
<path d="M80.8828 28.9082L74.3682 47.8747L69.9789 50.4125L69.7675 50.5349L69.3242 50.7911V28.7163L80.826 22.0659L80.8828 28.9082Z" fill="#3D1399"/>
<path d="M66.3761 28.1175L66.3639 27.9911L66.3542 50.123L66.3591 50.167L66.3675 50.211L66.3792 50.2544L66.3941 50.2975L66.4119 50.3399L66.4331 50.3819L66.4574 50.4234L66.4851 50.4647L66.5158 50.5049L66.5494 50.5444L66.5857 50.5828L66.6249 50.62L66.6673 50.6566L66.7123 50.692L66.7601 50.7266L66.8102 50.7598L66.8625 50.7911L66.917 50.8214L66.974 50.8503L67.0338 50.878L67.0951 50.904L67.1584 50.9286L67.2229 50.9512L67.2891 50.9722L67.3574 50.9914L67.4273 51.0092L67.4983 51.0252L67.5702 51.0394L67.6428 51.0516L67.716 51.062L67.7906 51.0706L67.8661 51.0771L67.9419 51.0821L68.0178 51.085L68.0933 51.0859L68.1688 51.085L68.2446 51.0821L68.3203 51.0771L68.3958 51.0706L68.4704 51.062L68.5439 51.0516L68.6162 51.0394L68.6881 51.0252L68.7594 51.0092L68.8292 50.9914L68.8973 50.9722L68.9636 50.9512L69.0271 50.9279L69.0882 50.9022L69.1475 50.8749L69.2063 50.8467L69.2647 50.8184L69.3242 50.7911V28.7164C67.847 29.3954 66.5066 28.8046 66.3761 28.1175Z" fill="#571BDB"/>
<path d="M69.3243 28.7163L80.6683 22.1569L78.4581 20.879L66.9089 27.5638C66.5357 27.8234 66.416 28.122 66.473 28.399C66.8497 29.0242 68.1425 29.4172 69.3243 28.7163Z" fill="white"/>
<path d="M67.3786 27.5945L78.7202 21.0301V20.8481L78.3643 20.6425L66.8151 27.3272C65.9539 27.9261 66.4331 28.7333 67.3545 28.9995C66.8462 28.6329 66.7198 28.0527 67.3786 27.5945Z" fill="#CED5D8"/>
<path d="M80.1132 22.0652L69.1428 28.4096C68.7869 28.6209 68.3909 28.7324 67.998 28.7324C67.3354 28.7324 66.8262 28.4157 66.7345 28.1222C66.6833 27.9586 66.775 27.7924 67.0067 27.6281L73.5966 23.8137L78.7155 20.8454L78.3643 20.6425L66.8152 27.3272C65.7698 28.0543 66.6991 29.0888 67.998 29.0888C68.4193 29.0888 68.8798 28.98 69.3242 28.7164L80.8261 22.0657L80.4688 21.8594L80.1132 22.0652Z" fill="#609FFD"/>
<path d="M86.2658 32.2674L82.7544 25.5135L82.2813 26.0232L82.2691 25.9998L71.8212 37.2562L80.1384 53.2534L80.3938 52.3252L80.6237 52.7674L86.2658 32.2674Z" fill="#F84280"/>
<path d="M72.0706 36.9435L72.0162 36.9928L71.9626 37.0431C71.1298 37.8237 69.8211 37.948 69.3489 37.2104L78.3712 54.5633L78.3996 54.608L78.431 54.6509L78.4648 54.6917L78.5013 54.7306L78.5403 54.7674L78.5822 54.8024L78.6268 54.8355L78.6737 54.8667L78.7231 54.8954L78.7738 54.9215L78.827 54.9457L78.8826 54.9674L78.9403 54.9868L78.9999 55.0039L79.0607 55.0184L79.1227 55.0306L79.1863 55.04L79.2516 55.047L79.3186 55.0516L79.3864 55.0536L79.4551 55.0531L79.5241 55.05L79.5938 55.0443L79.6645 55.036L79.7358 55.0254L79.8077 55.0121L79.8793 54.9965L79.9503 54.9786L80.0213 54.9583L80.0926 54.9353L80.1638 54.91L80.2346 54.8825L80.3044 54.8529L80.3727 54.8211L80.3878 54.8139V54.6863V54.5215V54.3563V54.1918V54.0286V53.8681V53.7103V53.5547V53.4008V53.2478V53.0945V52.9405L72.0706 36.9435Z" fill="#D83071"/>
<path d="M80.8261 24.8697L80.117 24.5277L69.6693 35.7842L69.6267 35.8393C68.3212 37.4681 70.501 38.413 71.9627 37.0431L72.0163 36.9927L72.0706 36.9435L82.5185 25.6869L80.8261 24.8697Z" fill="#83B8FC"/>
<path d="M72.5375 36.6735L82.5966 25.6561L79.9926 24.448L69.5546 36.283C69.2438 36.6886 69.2176 37.048 69.3738 37.3229C69.9916 37.8579 71.5117 37.8288 72.5375 36.6735Z" fill="white"/>
<path d="M70.0683 36.1533L80.2849 24.6215L80.2881 24.4181L79.8909 24.1822L69.3729 36.0639C68.6557 36.9993 69.4457 37.6926 70.5242 37.6569C69.8539 37.4427 69.5194 36.8693 70.0683 36.1533Z" fill="#E2F1F7"/>
<path d="M72.2379 36.41C71.9289 36.7581 71.543 37.014 71.122 37.1499C70.412 37.3793 69.7579 37.2185 69.5591 36.938C69.4482 36.7815 69.4894 36.573 69.6812 36.3177L75.4338 29.9771L80.2829 24.4152L79.8909 24.1822L69.3729 36.0639C68.5024 37.1996 69.8525 37.979 71.2441 37.5294C71.6956 37.3836 72.1516 37.1082 72.5374 36.6736L82.7605 25.5337L82.3338 25.3529L72.2379 36.41Z" fill="#FF8FA7"/>
<path d="M74.9806 42.5405C74.886 42.5263 74.7926 42.5114 74.7002 42.4958L74.7406 42.0791L74.9806 42.5405Z" fill="#C93275"/>
<path d="M94.8613 33.2982L88.4035 55.9901L84.0143 58.528L83.8029 58.6501L83.3593 58.9066V36.8318L94.8613 30.1814V33.2982Z" fill="#3D1399"/>
<path d="M80.4114 36.2329L80.3992 36.1065L80.3895 58.2384L80.3944 58.2824L80.4028 58.3262L80.4145 58.3698L80.4292 58.4129L80.4472 58.4553L80.4682 58.4973L80.4927 58.5388L80.5204 58.5799L80.5511 58.6203L80.5847 58.6598L80.621 58.6982L80.6602 58.7354L80.7026 58.7718L80.7476 58.8075L80.7954 58.842L80.8455 58.875L80.8975 58.9066L80.9521 58.9366L81.0093 58.9657L81.0691 58.9932L81.1304 59.0194L81.1937 59.0438L81.2582 59.0664L81.3244 59.0874L81.3925 59.107L81.4626 59.1246L81.5336 59.1406L81.6055 59.1549L81.6781 59.167L81.7513 59.1774L81.8259 59.186L81.9014 59.1926L81.9772 59.1975L82.0531 59.2004L82.1286 59.2014L82.2039 59.2004L82.2799 59.1975L82.3556 59.1926L82.4311 59.186L82.5057 59.1774L82.579 59.167L82.6515 59.1549L82.7234 59.1406L82.7947 59.1246L82.8645 59.107L82.9328 59.0874L82.9989 59.0664L83.0624 59.0433L83.1235 59.0176L83.1828 58.9903L83.2414 58.9621L83.3 58.9339L83.3595 58.9066V36.8318C81.8823 37.5108 80.5419 36.9201 80.4114 36.2329Z" fill="#571BDB"/>
<path d="M83.3595 36.8318L94.7035 30.2723L92.4933 28.9945L80.9441 35.6792C80.5709 35.9388 80.451 36.2375 80.5082 36.5144C80.8846 37.1395 82.1777 37.5327 83.3595 36.8318Z" fill="white"/>
<path d="M81.4138 35.7099L92.7552 29.1453V28.9635L92.3995 28.7577L80.8501 35.4424C79.989 36.0415 80.468 36.8487 81.3897 37.1146C80.8814 36.7483 80.7547 36.1681 81.4138 35.7099Z" fill="#CED5D8"/>
<path d="M94.1482 30.1805L83.1781 36.5251C82.8219 36.7361 82.4262 36.8479 82.0333 36.8479C81.3706 36.8479 80.8615 36.5312 80.7695 36.2375C80.7186 36.0741 80.8101 35.9079 81.0418 35.7434L87.6319 31.929L92.7508 28.9609L92.3996 28.7577L80.8502 35.4425C79.805 36.1695 80.7344 37.2043 82.0333 37.2043C82.4546 37.2043 82.9148 37.0955 83.3595 36.8318L94.8612 30.1814L94.5044 29.9748L94.1482 30.1805Z" fill="#609FFD"/>
<path d="M79.0384 33.6472L79.0069 33.663L78.9733 33.6933L79.0456 33.6506L79.0384 33.6472Z" fill="#F1B653"/>
<path d="M71.8772 32.4834C71.875 32.4772 71.8729 32.471 71.8705 32.4647C71.8707 32.4647 71.8707 32.4647 71.8707 32.4647C71.8729 32.471 71.875 32.4772 71.8772 32.4834Z" fill="#3077E2"/>
<path d="M71.8705 32.4658C71.8374 32.3723 71.7979 32.2836 71.7553 32.1978C71.7558 32.1976 71.756 32.1974 71.7562 32.1971C71.7988 32.2827 71.8376 32.3719 71.8707 32.4658C71.8707 32.4658 71.8707 32.4658 71.8705 32.4658ZM71.4596 32.3906C71.4598 32.3904 71.4598 32.3904 71.46 32.3904C71.4598 32.3904 71.4598 32.3904 71.4596 32.3906ZM71.4637 32.3883C71.4643 32.3881 71.465 32.3877 71.4657 32.3872C71.465 32.3877 71.4643 32.3881 71.4637 32.3883ZM71.4682 32.3861C71.4691 32.3854 71.4702 32.3849 71.4713 32.3843C71.4702 32.3849 71.4691 32.3854 71.4682 32.3861ZM71.4724 32.3836C71.474 32.3829 71.4754 32.3822 71.4767 32.3813C71.4754 32.3822 71.4738 32.3829 71.4724 32.3836ZM71.4772 32.3811C71.5615 32.3357 71.6419 32.2843 71.7181 32.2267C71.6419 32.2843 71.5615 32.3357 71.4772 32.3811ZM71.7197 32.2256C71.7208 32.2247 71.7217 32.224 71.7226 32.2233C71.7217 32.224 71.7208 32.2247 71.7197 32.2256ZM71.7258 32.2211C71.7262 32.2206 71.7267 32.2202 71.7274 32.2199C71.7267 32.2202 71.7262 32.2206 71.7258 32.2211Z" fill="url(#paint2_linear)"/>
<path d="M60.4042 43.3267C60.4042 43.3263 60.4042 43.326 60.4042 43.3258C60.4042 43.326 60.4042 43.3265 60.4042 43.3267ZM60.4045 43.3181C60.4045 43.3174 60.4045 43.317 60.4045 43.3163C60.4045 43.317 60.4045 43.3177 60.4045 43.3181ZM60.4049 43.3046C60.4049 43.303 60.4049 43.3019 60.4049 43.3002C60.4049 43.3016 60.4049 43.3033 60.4049 43.3046ZM60.4052 43.2956C60.4052 43.2937 60.4054 43.2916 60.4054 43.29C60.4054 43.2919 60.4052 43.2935 60.4052 43.2956ZM60.4056 43.2858C60.4056 43.2828 60.4059 43.2793 60.4059 43.2763C60.4059 43.2795 60.4056 43.2826 60.4056 43.2858Z" fill="#DDA1BE"/>
<path d="M88.4032 55.9901L94.861 33.2982V52.3277L88.4032 55.9901Z" fill="#4F19C9"/>
<path d="M84.7414 58.0669L94.8612 33.2983L88.4034 55.9902L84.7414 58.0669Z" fill="#3D1399"/>
<defs>
<linearGradient id="paint0_linear" x1="80.7716" y1="93.0198" x2="136.304" y2="93.0198" gradientUnits="userSpaceOnUse">
<stop stop-color="#E2F1F7"/>
<stop offset="1.1e-07" stop-color="#F6F3FB"/>
<stop offset="1" stop-color="white"/>
</linearGradient>
<linearGradient id="paint1_linear" x1="55.737" y1="106.937" x2="112.82" y2="106.937" gradientUnits="userSpaceOnUse">
<stop stop-color="#E2F1F7"/>
<stop offset="1.1e-07" stop-color="#F6F3FB"/>
<stop offset="1" stop-color="white"/>
</linearGradient>
<linearGradient id="paint2_linear" x1="70.1715" y1="32.3294" x2="72.1466" y2="32.3294" gradientUnits="userSpaceOnUse">
<stop stop-color="#E37B76"/>
<stop offset="0.00720754" stop-color="#E37B76"/>
<stop offset="1" stop-color="#DF3B73"/>
</linearGradient>
</defs>
</svg>
