<svg width="123" height="114" viewBox="0 0 123 114" fill="none" xmlns="http://www.w3.org/2000/svg">
<path d="M31.8448 24.2783C31.855 24.1233 31.8622 23.9675 31.8622 23.81C31.8622 19.9584 28.7343 16.8359 24.876 16.8359C23.2287 16.8359 21.7157 17.4065 20.5213 18.3586C19.6734 15.4605 16.9933 13.3425 13.8164 13.3425C9.95808 13.3425 6.83025 16.4648 6.83025 20.3166C6.83025 20.7068 6.86395 21.0889 6.92572 21.4618C4.16573 22.3935 2.17801 24.9981 2.17801 28.0679C2.17801 31.8593 5.20915 34.9418 8.98389 35.0376L8.98542 35.042L31.0647 35.5573C34.1997 35.5573 36.7412 33.0202 36.7412 29.8905C36.7412 27.025 34.6106 24.6579 31.8448 24.2783Z" stroke="#BFC4D8" stroke-width="0.96" stroke-miterlimit="10"/>
<path d="M114.801 41.3442C114.809 41.2222 114.814 41.0996 114.814 40.9755C114.814 37.9425 112.351 35.4838 109.313 35.4838C108.016 35.4838 106.825 35.9331 105.884 36.6829C105.217 34.4008 103.106 32.7329 100.604 32.7329C97.5663 32.7329 95.1034 35.1918 95.1034 38.2248C95.1034 38.5319 95.1299 38.833 95.1784 39.1264C93.0051 39.8602 91.4399 41.911 91.4399 44.3284C91.4399 47.3138 93.8268 49.7411 96.7992 49.8166L96.8004 49.8201L114.187 50.226C116.655 50.226 118.656 48.2281 118.656 45.7636C118.656 43.5073 116.979 41.6433 114.801 41.3442Z" stroke="#BFC4D8" stroke-width="0.756" stroke-miterlimit="10"/>
<path d="M62.0732 4.4965C62.0767 4.44306 62.0793 4.38917 62.0793 4.33482C62.0793 3.00452 60.9989 1.92618 59.6665 1.92618C59.0974 1.92618 58.5749 2.12318 58.1622 2.45203C57.8696 1.45103 56.9439 0.719505 55.8467 0.719505C54.5141 0.719505 53.4339 1.79799 53.4339 3.12829C53.4339 3.26303 53.4455 3.39502 53.4667 3.52382C52.5134 3.84551 51.8272 4.74511 51.8272 5.80548C51.8272 7.11477 52.8739 8.17941 54.1777 8.2126L54.1781 8.21412L61.8037 8.39209C62.8866 8.39209 63.7644 7.51578 63.7644 6.43486C63.7644 5.44528 63.0286 4.62758 62.0732 4.4965Z" fill="#E1E5F2"/>
<path d="M10.1314 77.8154C8.43074 77.1606 1.55866 74.0977 0.806979 67.1298C0.74247 66.5303 1.13166 65.9711 1.7133 65.8088L2.32346 65.6384C2.98655 65.4535 3.37512 64.7678 3.18556 64.1069C2.21671 60.7309 0.0211339 51.3048 5.5826 50.9347C10.972 50.5758 12.465 58.9652 12.8507 62.4214C12.9354 63.1803 13.6835 63.6789 14.4203 63.4732C15.1607 63.2666 15.9067 63.7713 15.9915 64.5339C16.3691 67.9233 16.673 76.2319 10.8868 77.859C10.6381 77.9288 10.3724 77.9083 10.1314 77.8154Z" fill="#4DBEAF"/>
<path d="M5.80308 54.155C5.80308 54.155 5.75428 63.5912 13.6135 84.7" stroke="#1F2641" stroke-width="0.459" stroke-miterlimit="10"/>
<path d="M101.973 78.943C100.826 77.5282 96.4019 71.4507 99.2334 65.0378C99.4773 64.4861 100.094 64.1954 100.679 64.3446L101.293 64.501C101.96 64.6709 102.64 64.2702 102.806 63.6031C103.654 60.1948 106.463 50.9326 111.467 53.3821C116.317 55.7559 113.417 63.7698 112.024 66.9571C111.718 67.6571 112.117 68.4617 112.859 68.6505C113.603 68.8404 113.998 69.6492 113.69 70.3526C112.323 73.4778 108.433 80.8294 102.606 79.357C102.355 79.2936 102.135 79.1435 101.973 78.943Z" fill="#4DBEAF"/>
<path d="M110.048 56.2827C110.048 56.2827 105.289 64.4358 101.549 86.6439" stroke="#1F2641" stroke-width="0.459" stroke-miterlimit="10"/>
<path d="M101.962 99.1261H13.6286C12.6421 99.1261 11.8423 98.3276 11.8423 97.3427V46.8068C11.8423 45.822 12.6421 45.0235 13.6286 45.0235H101.962C102.949 45.0235 103.749 45.822 103.749 46.8068V97.3427C103.749 98.3276 102.949 99.1261 101.962 99.1261Z" fill="#374475"/>
<path d="M14.9642 96.7988V47.3504C14.9642 46.7537 15.4487 46.2699 16.0465 46.2699H99.7946C100.392 46.2699 100.877 46.7537 100.877 47.3504V96.7988C100.877 97.3956 100.392 97.8793 99.7946 97.8793H16.0465C15.4487 97.8793 14.9642 97.3956 14.9642 96.7988Z" fill="white"/>
<path d="M102.375 61.6031V84.79" stroke="#1D243D" stroke-width="1.79" stroke-miterlimit="10" stroke-linecap="round" stroke-linejoin="round"/>
<path d="M103.125 58.1128C103.125 58.5259 102.789 58.8607 102.375 58.8607C101.962 58.8607 101.626 58.5259 101.626 58.1128C101.626 57.6996 101.962 57.3648 102.375 57.3648C102.789 57.3648 103.125 57.6996 103.125 58.1128Z" fill="#1D243D"/>
<path d="M57.4438 51.6304H17.189C16.9258 51.6304 16.7124 51.4174 16.7124 51.1547V48.8651C16.7124 48.6023 16.9258 48.3892 17.189 48.3892H57.4438C57.7072 48.3892 57.9205 48.6023 57.9205 48.8651V51.1547C57.9205 51.4174 57.7072 51.6304 57.4438 51.6304Z" stroke="#E5E8F2" stroke-width="0.895" stroke-miterlimit="10"/>
<path d="M78.0031 64.2211H17.6087C17.1826 64.2211 16.8373 63.8765 16.8373 63.4511V55.2676C16.8373 54.8423 17.1826 54.4975 17.6087 54.4975H78.0031C78.4291 54.4975 78.7745 54.8423 78.7745 55.2676V63.4511C78.7745 63.8765 78.4291 64.2211 78.0031 64.2211Z" stroke="#E5E8F2" stroke-width="0.895" stroke-miterlimit="10"/>
<path d="M97.3078 64.2211H83.2176C82.8327 64.2211 82.5205 63.9095 82.5205 63.5252V55.1936C82.5205 54.8092 82.8327 54.4975 83.2176 54.4975H97.3078C97.6927 54.4975 98.0047 54.8092 98.0047 55.1936V63.5252C98.0047 63.9095 97.6927 64.2211 97.3078 64.2211Z" fill="#E5E8F2"/>
<path d="M82.0547 95.0123H67.7518C67.4256 95.0123 67.1611 94.7483 67.1611 94.4226V88.621C67.1611 88.2953 67.4256 88.0313 67.7518 88.0313H82.0547C82.381 88.0313 82.6453 88.2953 82.6453 88.621V94.4226C82.6453 94.7483 82.381 95.0123 82.0547 95.0123Z" fill="#E5E8F2"/>
<path d="M51.2765 83.5434H37.5921C37.0951 83.5434 36.692 83.1412 36.692 82.645V68.2359C36.692 67.7397 37.0951 67.3375 37.5921 67.3375H51.2765C51.7735 67.3375 52.1764 67.7397 52.1764 68.236V82.645C52.1764 83.1412 51.7735 83.5434 51.2765 83.5434Z" fill="#E5E8F2"/>
<path d="M55.423 68.9581H96.5064V67.7116H55.423V68.9581Z" fill="#E5E8F2"/>
<path d="M68.0429 71.8253H96.4142V70.5787H68.0429V71.8253Z" fill="#E5E8F2"/>
<path d="M78.728 74.568H96.4142V73.3214H78.728V74.568Z" fill="#E5E8F2"/>
<path d="M46.9816 57.24H19.4595V55.9934H46.9816V57.24Z" fill="#E5E8F2"/>
<path d="M38.5276 60.1072H19.5213V58.8607H38.5276V60.1072Z" fill="#E5E8F2"/>
<path d="M31.3693 62.8497H19.5212V61.6031H31.3693V62.8497Z" fill="#E5E8F2"/>
<path d="M76.4018 57.24H48.8796V55.9934H76.4018V57.24Z" fill="#E5E8F2"/>
<path d="M67.9476 60.1072H48.9414V58.8607H67.9476V60.1072Z" fill="#E5E8F2"/>
<path d="M60.7895 62.8497H48.9414V61.6031H60.7895V62.8497Z" fill="#E5E8F2"/>
<path d="M97.2273 96.3835H35.8462C35.4167 96.3835 35.0687 96.0359 35.0687 95.6074V87.4362C35.0687 87.0075 35.4167 86.66 35.8462 86.66H97.2273C97.6566 86.66 98.0047 87.0075 98.0047 87.4362V95.6074C98.0047 96.0359 97.6566 96.3835 97.2273 96.3835Z" stroke="#E5E8F2" stroke-width="0.902" stroke-miterlimit="10"/>
<path d="M65.2131 89.4025H37.6911V88.156H65.2131V89.4025Z" fill="#E5E8F2"/>
<path d="M56.7591 92.2697H37.7526V91.0232H56.7591V92.2697Z" fill="#E5E8F2"/>
<path d="M49.6009 95.0122H37.7528V93.7656H49.6009V95.0122Z" fill="#E5E8F2"/>
<path d="M55.423 77.9338H96.5064V76.6872H55.423V77.9338Z" fill="#E5E8F2"/>
<path d="M68.0429 80.8009H96.4142V79.5544H68.0429V80.8009Z" fill="#E5E8F2"/>
<path d="M78.728 83.5434H96.4142V82.2966H78.728V83.5434Z" fill="#E5E8F2"/>
<path d="M84.1439 89.4025H97.0059V88.156H84.1439V89.4025Z" fill="#E5E8F2"/>
<path d="M88.0948 92.2697H96.9769V91.0232H88.0948V92.2697Z" fill="#E5E8F2"/>
<path d="M91.4401 95.0122H96.9771V93.7656H91.4401V95.0122Z" fill="#E5E8F2"/>
<path d="M31.1221 96.2588H18.0366C17.4432 96.2588 16.9621 95.7785 16.9621 95.1861V67.413C16.9621 66.8205 17.4432 66.3403 18.0366 66.3403H31.1221C31.7156 66.3403 32.1966 66.8205 32.1966 67.413V95.1861C32.1966 95.7785 31.7156 96.2588 31.1221 96.2588Z" fill="#E5E8F2"/>
<path d="M97.1234 84.79H36.2001C35.6443 84.79 35.1936 84.3403 35.1936 83.7853V67.3448C35.1936 66.7901 35.6443 66.3403 36.2001 66.3403H97.1234C97.6793 66.3403 98.1298 66.7901 98.1298 67.345V83.7853C98.1298 84.3403 97.6793 84.79 97.1234 84.79Z" stroke="#E5E8F2" stroke-width="0.895" stroke-miterlimit="10"/>
<path d="M96.0069 51.6304H61.2922C60.3956 51.6304 59.6688 50.9048 59.6688 50.0098C59.6688 49.1148 60.3956 48.3892 61.2922 48.3892H96.0069C96.9035 48.3892 97.6303 49.1148 97.6303 50.0098C97.6303 50.9048 96.9035 51.6304 96.0069 51.6304Z" fill="#E5E8F2"/>
<path d="M89.6833 81.923H95.4641V78.065C95.4641 77.9455 95.3672 77.8486 95.2475 77.8486H89.9C89.7802 77.8486 89.6833 77.9455 89.6833 78.065V81.923Z" stroke="#9BB1FF" stroke-width="0.895" stroke-miterlimit="10"/>
<path d="M96.5481 81.923H102.329V78.0528C102.329 77.9401 102.237 77.8486 102.124 77.8486H96.7524C96.6396 77.8486 96.5481 77.94 96.5481 78.0528V81.923Z" stroke="#9BB1FF" stroke-width="0.895" stroke-miterlimit="10"/>
<path d="M104.135 81.923H111.903V78.0339C111.903 77.9316 111.82 77.8486 111.718 77.8486H104.321C104.218 77.8486 104.135 77.9316 104.135 78.0339V81.923Z" fill="#2E4EBE"/>
<path d="M68.208 103.652H112.972C113.133 103.652 113.264 103.522 113.264 103.362V80.8558C113.264 80.6952 113.133 80.5648 112.972 80.5648H68.208C68.047 80.5648 67.9166 80.6952 67.9166 80.8558V103.362C67.9166 103.522 68.047 103.652 68.208 103.652Z" fill="#FFECD4"/>
<path d="M69.5868 102.521H86.8796C87.0506 102.521 87.1892 102.382 87.1892 102.212V86.3065C87.1892 86.1357 87.0506 85.9973 86.8796 85.9973H69.5868C69.4158 85.9973 69.2772 86.1357 69.2772 86.3065V102.212C69.2772 102.382 69.4158 102.521 69.5868 102.521Z" stroke="#FFCC8F" stroke-width="0.895" stroke-miterlimit="10"/>
<path d="M84.2414 87.5817C84.2414 87.9566 84.546 88.2607 84.9218 88.2607C85.2974 88.2607 85.602 87.9566 85.602 87.5817C85.602 87.2067 85.2974 86.9027 84.9218 86.9027C84.546 86.9027 84.2414 87.2067 84.2414 87.5817Z" stroke="#E68068" stroke-width="0.447" stroke-miterlimit="10"/>
<path d="M81.5208 87.5817C81.5208 87.9566 81.8253 88.2607 82.2009 88.2607C82.5767 88.2607 82.8813 87.9566 82.8813 87.5817C82.8813 87.2067 82.5767 86.9027 82.2009 86.9027C81.8253 86.9027 81.5208 87.2067 81.5208 87.5817Z" stroke="#E68068" stroke-width="0.447" stroke-miterlimit="10"/>
<path d="M78.8 87.5817C78.8 87.9566 79.1045 88.2607 79.4802 88.2607C79.8559 88.2607 80.1603 87.9566 80.1603 87.5817C80.1603 87.2067 79.8559 86.9027 79.4802 86.9027C79.1045 86.9027 78.8 87.2067 78.8 87.5817Z" stroke="#E68068" stroke-width="0.447" stroke-miterlimit="10"/>
<path d="M76.0789 87.5817C76.0789 87.9566 76.3835 88.2607 76.7593 88.2607C77.135 88.2607 77.4395 87.9566 77.4395 87.5817C77.4395 87.2067 77.135 86.9027 76.7593 86.9027C76.3835 86.9027 76.0789 87.2067 76.0789 87.5817Z" stroke="#E68068" stroke-width="0.447" stroke-miterlimit="10"/>
<path d="M73.3583 87.5817C73.3583 87.9566 73.6628 88.2607 74.0385 88.2607C74.4142 88.2607 74.7188 87.9566 74.7188 87.5817C74.7188 87.2067 74.4142 86.9027 74.0385 86.9027C73.6628 86.9027 73.3583 87.2067 73.3583 87.5817Z" stroke="#E68068" stroke-width="0.447" stroke-miterlimit="10"/>
<path d="M70.6374 87.5817C70.6374 87.9566 70.9419 88.2607 71.3177 88.2607C71.6933 88.2607 71.9979 87.9566 71.9979 87.5817C71.9979 87.2067 71.6933 86.9027 71.3177 86.9027C70.9419 86.9027 70.6374 87.2067 70.6374 87.5817Z" stroke="#E68068" stroke-width="0.447" stroke-miterlimit="10"/>
<path d="M84.2414 90.2979C84.2414 90.673 84.546 90.9769 84.9218 90.9769C85.2974 90.9769 85.602 90.673 85.602 90.2979C85.602 89.9229 85.2974 89.6188 84.9218 89.6188C84.546 89.6188 84.2414 89.9229 84.2414 90.2979Z" stroke="#E68068" stroke-width="0.447" stroke-miterlimit="10"/>
<path d="M81.5208 90.2979C81.5208 90.673 81.8253 90.9769 82.2009 90.9769C82.5767 90.9769 82.8813 90.673 82.8813 90.2979C82.8813 89.9229 82.5767 89.6188 82.2009 89.6188C81.8253 89.6188 81.5208 89.9229 81.5208 90.2979Z" stroke="#E68068" stroke-width="0.447" stroke-miterlimit="10"/>
<path d="M78.8 90.2979C78.8 90.673 79.1045 90.9769 79.4802 90.9769C79.8559 90.9769 80.1603 90.673 80.1603 90.2979C80.1603 89.9229 79.8559 89.6188 79.4802 89.6188C79.1045 89.6188 78.8 89.9229 78.8 90.2979Z" stroke="#E68068" stroke-width="0.447" stroke-miterlimit="10"/>
<path d="M76.0789 90.2979C76.0789 90.673 76.3835 90.9769 76.7593 90.9769C77.135 90.9769 77.4395 90.673 77.4395 90.2979C77.4395 89.9229 77.135 89.6188 76.7593 89.6188C76.3835 89.6188 76.0789 89.9229 76.0789 90.2979Z" stroke="#E68068" stroke-width="0.447" stroke-miterlimit="10"/>
<path d="M73.3583 90.2979C73.3583 90.673 73.6628 90.9769 74.0385 90.9769C74.4142 90.9769 74.7188 90.673 74.7188 90.2979C74.7188 89.9229 74.4142 89.6188 74.0385 89.6188C73.6628 89.6188 73.3583 89.9229 73.3583 90.2979Z" stroke="#E68068" stroke-width="0.447" stroke-miterlimit="10"/>
<path d="M70.6374 90.2979C70.6374 90.673 70.9419 90.9769 71.3177 90.9769C71.6933 90.9769 71.9979 90.673 71.9979 90.2979C71.9979 89.9229 71.6933 89.6188 71.3177 89.6188C70.9419 89.6188 70.6374 89.9229 70.6374 90.2979Z" stroke="#E68068" stroke-width="0.447" stroke-miterlimit="10"/>
<path d="M84.2414 93.014C84.2414 93.3892 84.546 93.6931 84.9218 93.6931C85.2974 93.6931 85.602 93.3892 85.602 93.014C85.602 92.6391 85.2974 92.3349 84.9218 92.3349C84.546 92.3349 84.2414 92.6391 84.2414 93.014Z" stroke="#E68068" stroke-width="0.447" stroke-miterlimit="10"/>
<path d="M81.5208 93.014C81.5208 93.3892 81.8253 93.6931 82.2009 93.6931C82.5767 93.6931 82.8813 93.3892 82.8813 93.014C82.8813 92.6391 82.5767 92.3349 82.2009 92.3349C81.8253 92.3349 81.5208 92.6391 81.5208 93.014Z" stroke="#E68068" stroke-width="0.447" stroke-miterlimit="10"/>
<path d="M78.8 93.014C78.8 93.3892 79.1045 93.6931 79.4802 93.6931C79.8559 93.6931 80.1603 93.3892 80.1603 93.014C80.1603 92.6391 79.8559 92.3349 79.4802 92.3349C79.1045 92.3349 78.8 92.6391 78.8 93.014Z" stroke="#E68068" stroke-width="0.447" stroke-miterlimit="10"/>
<path d="M76.0789 93.014C76.0789 93.3892 76.3835 93.6931 76.7593 93.6931C77.135 93.6931 77.4395 93.3892 77.4395 93.014C77.4395 92.6391 77.135 92.3349 76.7593 92.3349C76.3835 92.3349 76.0789 92.6391 76.0789 93.014Z" stroke="#E68068" stroke-width="0.447" stroke-miterlimit="10"/>
<path d="M73.3583 93.014C73.3583 93.3892 73.6628 93.6931 74.0385 93.6931C74.4142 93.6931 74.7188 93.3892 74.7188 93.014C74.7188 92.6391 74.4142 92.3349 74.0385 92.3349C73.6628 92.3349 73.3583 92.6391 73.3583 93.014Z" stroke="#E68068" stroke-width="0.447" stroke-miterlimit="10"/>
<path d="M70.6374 93.014C70.6374 93.3892 70.9419 93.6931 71.3177 93.6931C71.6933 93.6931 71.9979 93.3892 71.9979 93.014C71.9979 92.6391 71.6933 92.3349 71.3177 92.3349C70.9419 92.3349 70.6374 92.6391 70.6374 93.014Z" stroke="#E68068" stroke-width="0.447" stroke-miterlimit="10"/>
<path d="M84.2414 95.7302C84.2414 96.1051 84.546 96.4092 84.9218 96.4092C85.2974 96.4092 85.602 96.1051 85.602 95.7302C85.602 95.355 85.2974 95.0512 84.9218 95.0512C84.546 95.0512 84.2414 95.355 84.2414 95.7302Z" stroke="#E68068" stroke-width="0.447" stroke-miterlimit="10"/>
<path d="M81.5208 95.7302C81.5208 96.1051 81.8253 96.4092 82.2009 96.4092C82.5767 96.4092 82.8813 96.1051 82.8813 95.7302C82.8813 95.355 82.5767 95.0512 82.2009 95.0512C81.8253 95.0512 81.5208 95.355 81.5208 95.7302Z" stroke="#E68068" stroke-width="0.447" stroke-miterlimit="10"/>
<path d="M78.8 95.7302C78.8 96.1051 79.1045 96.4092 79.4802 96.4092C79.8559 96.4092 80.1603 96.1051 80.1603 95.7302C80.1603 95.355 79.8559 95.0512 79.4802 95.0512C79.1045 95.0512 78.8 95.355 78.8 95.7302Z" stroke="#E68068" stroke-width="0.447" stroke-miterlimit="10"/>
<path d="M76.0789 95.7302C76.0789 96.1051 76.3835 96.4092 76.7593 96.4092C77.135 96.4092 77.4395 96.1051 77.4395 95.7302C77.4395 95.355 77.135 95.0512 76.7593 95.0512C76.3835 95.0512 76.0789 95.355 76.0789 95.7302Z" stroke="#E68068" stroke-width="0.447" stroke-miterlimit="10"/>
<path d="M73.3583 95.7302C73.3583 96.1051 73.6628 96.4092 74.0385 96.4092C74.4142 96.4092 74.7188 96.1051 74.7188 95.7302C74.7188 95.355 74.4142 95.0512 74.0385 95.0512C73.6628 95.0512 73.3583 95.355 73.3583 95.7302Z" stroke="#E68068" stroke-width="0.447" stroke-miterlimit="10"/>
<path d="M70.6374 95.7302C70.6374 96.1051 70.9419 96.4092 71.3177 96.4092C71.6933 96.4092 71.9979 96.1051 71.9979 95.7302C71.9979 95.355 71.6933 95.0512 71.3177 95.0512C70.9419 95.0512 70.6374 95.355 70.6374 95.7302Z" stroke="#E68068" stroke-width="0.447" stroke-miterlimit="10"/>
<path d="M84.2414 98.4465C84.2414 98.8215 84.546 99.1255 84.9218 99.1255C85.2974 99.1255 85.602 98.8215 85.602 98.4465C85.602 98.0715 85.2974 97.7675 84.9218 97.7675C84.546 97.7675 84.2414 98.0715 84.2414 98.4465Z" stroke="#E68068" stroke-width="0.447" stroke-miterlimit="10"/>
<path d="M81.5208 98.4465C81.5208 98.8215 81.8253 99.1255 82.2009 99.1255C82.5767 99.1255 82.8813 98.8215 82.8813 98.4465C82.8813 98.0715 82.5767 97.7675 82.2009 97.7675C81.8253 97.7675 81.5208 98.0715 81.5208 98.4465Z" stroke="#E68068" stroke-width="0.447" stroke-miterlimit="10"/>
<path d="M78.8 98.4465C78.8 98.8215 79.1045 99.1255 79.4802 99.1255C79.8559 99.1255 80.1603 98.8215 80.1603 98.4465C80.1603 98.0715 79.8559 97.7675 79.4802 97.7675C79.1045 97.7675 78.8 98.0715 78.8 98.4465Z" stroke="#E68068" stroke-width="0.447" stroke-miterlimit="10"/>
<path d="M76.0789 98.4465C76.0789 98.8215 76.3835 99.1255 76.7593 99.1255C77.135 99.1255 77.4395 98.8215 77.4395 98.4465C77.4395 98.0715 77.135 97.7675 76.7593 97.7675C76.3835 97.7675 76.0789 98.0715 76.0789 98.4465Z" stroke="#E68068" stroke-width="0.447" stroke-miterlimit="10"/>
<path d="M73.3583 98.4465C73.3583 98.8215 73.6628 99.1255 74.0385 99.1255C74.4142 99.1255 74.7188 98.8215 74.7188 98.4465C74.7188 98.0715 74.4142 97.7675 74.0385 97.7675C73.6628 97.7675 73.3583 98.0715 73.3583 98.4465Z" stroke="#E68068" stroke-width="0.447" stroke-miterlimit="10"/>
<path d="M70.6374 98.4465C70.6374 98.8215 70.9419 99.1255 71.3177 99.1255C71.6933 99.1255 71.9979 98.8215 71.9979 98.4465C71.9979 98.0715 71.6933 97.7675 71.3177 97.7675C70.9419 97.7675 70.6374 98.0715 70.6374 98.4465Z" stroke="#E68068" stroke-width="0.447" stroke-miterlimit="10"/>
<path d="M84.2414 101.163C84.2414 101.538 84.546 101.842 84.9218 101.842C85.2974 101.842 85.602 101.538 85.602 101.163C85.602 100.788 85.2974 100.484 84.9218 100.484C84.546 100.484 84.2414 100.788 84.2414 101.163Z" stroke="#E68068" stroke-width="0.447" stroke-miterlimit="10"/>
<path d="M81.5208 101.163C81.5208 101.538 81.8253 101.842 82.2009 101.842C82.5767 101.842 82.8813 101.538 82.8813 101.163C82.8813 100.788 82.5767 100.484 82.2009 100.484C81.8253 100.484 81.5208 100.788 81.5208 101.163Z" stroke="#E68068" stroke-width="0.447" stroke-miterlimit="10"/>
<path d="M78.8 101.163C78.8 101.538 79.1045 101.842 79.4802 101.842C79.8559 101.842 80.1603 101.538 80.1603 101.163C80.1603 100.788 79.8559 100.484 79.4802 100.484C79.1045 100.484 78.8 100.788 78.8 101.163Z" stroke="#E68068" stroke-width="0.447" stroke-miterlimit="10"/>
<path d="M76.0789 101.163C76.0789 101.538 76.3835 101.842 76.7593 101.842C77.135 101.842 77.4395 101.538 77.4395 101.163C77.4395 100.788 77.135 100.484 76.7593 100.484C76.3835 100.484 76.0789 100.788 76.0789 101.163Z" stroke="#E68068" stroke-width="0.447" stroke-miterlimit="10"/>
<path d="M73.3583 101.163C73.3583 101.538 73.6628 101.842 74.0385 101.842C74.4142 101.842 74.7188 101.538 74.7188 101.163C74.7188 100.788 74.4142 100.484 74.0385 100.484C73.6628 100.484 73.3583 100.788 73.3583 101.163Z" stroke="#E68068" stroke-width="0.447" stroke-miterlimit="10"/>
<path d="M70.6374 101.163C70.6374 101.538 70.9419 101.842 71.3177 101.842C71.6933 101.842 71.9979 101.538 71.9979 101.163C71.9979 100.788 71.6933 100.484 71.3177 100.484C70.9419 100.484 70.6374 100.788 70.6374 101.163Z" stroke="#E68068" stroke-width="0.447" stroke-miterlimit="10"/>
<path d="M88.7763 103.652H110.996V84.3731C110.996 83.895 110.608 83.5074 110.129 83.5074H89.6436C89.1646 83.5074 88.7763 83.895 88.7763 84.3731V103.652Z" stroke="#FFCC8F" stroke-width="0.895" stroke-miterlimit="10"/>
<path d="M91.5713 98.2202H108.428C108.97 98.2202 109.409 97.7817 109.409 97.2408V88.7875C109.409 88.2466 108.97 87.8081 108.428 87.8081H91.5713C91.0294 87.8081 90.5902 88.2466 90.5902 88.7875V97.2408C90.5902 97.7817 91.0294 98.2202 91.5713 98.2202Z" stroke="#FFF4E6" stroke-width="0.671" stroke-miterlimit="10"/>
<path d="M108.276 96.7274V89.3009C108.276 89.1014 108.114 88.9399 107.914 88.9399H92.0854C91.8856 88.9399 91.7238 89.1014 91.7238 89.3009V96.7274C91.7238 96.9268 91.8856 97.0884 92.0854 97.0884H107.914C108.114 97.0884 108.276 96.9268 108.276 96.7274Z" fill="#E68068"/>
<path d="M92.9709 89.9583H107.482C107.482 90.5062 107.156 90.977 106.688 91.1918V94.6303C106.688 94.8627 106.5 95.0511 106.267 95.0511H94.1861C93.9532 95.0511 93.7644 94.8627 93.7644 94.6303V91.1918C93.2965 90.977 92.9709 90.5062 92.9709 89.9583Z" stroke="#FFF4E6" stroke-width="0.895" stroke-miterlimit="10"/>
<path d="M102.103 93.9194C102.103 95.2945 103.219 96.4092 104.597 96.4092C105.974 96.4092 107.091 95.2945 107.091 93.9194C107.091 92.5444 105.974 91.4295 104.597 91.4295C103.219 91.4295 102.103 92.5444 102.103 93.9194Z" fill="white"/>
<path d="M103.01 93.9194C103.01 94.7945 103.72 95.5038 104.597 95.5038C105.473 95.5038 106.184 94.7945 106.184 93.9194C106.184 93.0444 105.473 92.3349 104.597 92.3349C103.72 92.3349 103.01 93.0444 103.01 93.9194Z" fill="#E68068"/>
<path d="M104.37 92.1087C104.37 92.2337 104.471 92.3349 104.596 92.3349C104.721 92.3349 104.822 92.2337 104.822 92.1087C104.822 91.9837 104.721 91.8823 104.596 91.8823C104.471 91.8823 104.37 91.9837 104.37 92.1087Z" fill="#E68068"/>
<path d="M103.746 92.3043C103.79 92.4214 103.92 92.4804 104.037 92.4364C104.154 92.3924 104.213 92.262 104.169 92.1449C104.125 92.028 103.995 91.9688 103.878 92.0128C103.761 92.0568 103.702 92.1874 103.746 92.3043Z" fill="#E68068"/>
<path d="M103.231 92.7069C103.313 92.801 103.456 92.8103 103.55 92.7279C103.644 92.6456 103.653 92.5026 103.571 92.4086C103.488 92.3146 103.346 92.3052 103.252 92.3875C103.158 92.4699 103.148 92.6128 103.231 92.7069Z" fill="#E68068"/>
<path d="M102.89 93.2647C103 93.3236 103.137 93.2822 103.196 93.172C103.255 93.0617 103.214 92.9245 103.104 92.8655C102.994 92.8065 102.856 92.8481 102.798 92.9583C102.739 93.0686 102.78 93.2056 102.89 93.2647Z" fill="#E68068"/>
<path d="M102.768 93.9063C102.892 93.9228 103.006 93.8355 103.022 93.7116C103.038 93.5877 102.951 93.4739 102.828 93.4575C102.704 93.4412 102.59 93.5283 102.574 93.6522C102.557 93.7762 102.645 93.8899 102.768 93.9063Z" fill="#E68068"/>
<path d="M102.881 94.5497C103.002 94.5214 103.078 94.3997 103.05 94.2781C103.021 94.1563 102.9 94.0804 102.778 94.1088C102.657 94.1371 102.581 94.2587 102.609 94.3804C102.637 94.5022 102.759 94.578 102.881 94.5497Z" fill="#E68068"/>
<path d="M103.212 95.1124C103.316 95.0429 103.344 94.9024 103.275 94.7984C103.206 94.6944 103.065 94.6663 102.962 94.7357C102.858 94.805 102.829 94.9455 102.899 95.0496C102.968 95.1536 103.109 95.1816 103.212 95.1124Z" fill="#E68068"/>
<path d="M103.722 95.5222C103.794 95.4207 103.771 95.2792 103.67 95.2063C103.568 95.1334 103.427 95.1565 103.354 95.2582C103.281 95.3596 103.305 95.501 103.406 95.574C103.507 95.6469 103.649 95.6238 103.722 95.5222Z" fill="#E68068"/>
<path d="M104.343 95.7268C104.375 95.6061 104.304 95.4818 104.183 95.4494C104.063 95.4168 103.938 95.4884 103.906 95.6091C103.874 95.7297 103.945 95.8539 104.066 95.8865C104.186 95.919 104.31 95.8476 104.343 95.7268Z" fill="#E68068"/>
<path d="M104.996 95.6999C104.984 95.5756 104.874 95.4844 104.749 95.4966C104.625 95.5086 104.534 95.6193 104.546 95.7436C104.558 95.868 104.669 95.9592 104.793 95.947C104.917 95.935 105.008 95.8243 104.996 95.6999Z" fill="#E68068"/>
<path d="M105.599 95.4451C105.544 95.3328 105.408 95.2866 105.296 95.3417C105.184 95.3968 105.138 95.5325 105.193 95.6447C105.248 95.7569 105.383 95.8032 105.496 95.7481C105.608 95.6929 105.654 95.5573 105.599 95.4451Z" fill="#E68068"/>
<path d="M106.073 94.9947C105.982 94.9092 105.839 94.9136 105.753 95.0046C105.667 95.0957 105.672 95.2389 105.763 95.3246C105.854 95.4102 105.997 95.4057 106.082 95.3147C106.168 95.2235 106.164 95.0803 106.073 94.9947Z" fill="#E68068"/>
<path d="M106.358 94.4068C106.242 94.3587 106.11 94.4133 106.062 94.5287C106.014 94.6441 106.068 94.7766 106.184 94.8247C106.299 94.8728 106.431 94.8181 106.479 94.7027C106.527 94.5873 106.473 94.4549 106.358 94.4068Z" fill="#E68068"/>
<path d="M106.417 93.7563C106.292 93.7519 106.187 93.8496 106.183 93.9746C106.179 94.0996 106.276 94.2044 106.401 94.2088C106.526 94.2131 106.631 94.1153 106.635 93.9905C106.639 93.8655 106.542 93.7607 106.417 93.7563Z" fill="#E68068"/>
<path d="M106.243 93.1268C106.125 93.1667 106.061 93.2952 106.101 93.4136C106.141 93.532 106.269 93.5957 106.387 93.5558C106.506 93.5159 106.569 93.3876 106.529 93.269C106.49 93.1505 106.361 93.0869 106.243 93.1268Z" fill="#E68068"/>
<path d="M105.858 92.5987C105.761 92.6778 105.747 92.8204 105.826 92.9173C105.905 93.0141 106.047 93.0286 106.144 92.9494C106.241 92.8704 106.255 92.7277 106.176 92.6309C106.097 92.534 105.955 92.5196 105.858 92.5987Z" fill="#E68068"/>
<path d="M105.173 92.2077C105.11 92.3158 105.147 92.4543 105.255 92.5171C105.363 92.5799 105.501 92.5432 105.564 92.4351C105.626 92.3269 105.59 92.1884 105.482 92.1256C105.374 92.0629 105.235 92.0996 105.173 92.2077Z" fill="#E68068"/>
<path d="M103.838 93.9173C103.838 94.3376 104.18 94.6783 104.601 94.6783C105.022 94.6783 105.363 94.3376 105.363 93.9173C105.363 93.4971 105.022 93.1564 104.601 93.1564C104.18 93.1564 103.838 93.4971 103.838 93.9173Z" fill="#E0E4FF"/>
<path d="M104.492 93.0483C104.492 93.1079 104.54 93.1563 104.6 93.1563C104.659 93.1563 104.708 93.1079 104.708 93.0483C104.708 92.9887 104.659 92.9402 104.6 92.9402C104.54 92.9402 104.492 92.9887 104.492 93.0483Z" fill="#E0E4FF"/>
<path d="M104.192 93.142C104.213 93.1978 104.275 93.2261 104.331 93.2051C104.387 93.1841 104.415 93.1217 104.394 93.0659C104.373 93.0101 104.311 92.9818 104.255 93.0028C104.199 93.0238 104.171 93.0862 104.192 93.142Z" fill="#E0E4FF"/>
<path d="M103.944 93.3351C103.984 93.3799 104.052 93.3844 104.097 93.3451C104.142 93.3059 104.146 93.2375 104.107 93.1927C104.067 93.1478 103.999 93.1432 103.954 93.1826C103.91 93.2219 103.905 93.2902 103.944 93.3351Z" fill="#E0E4FF"/>
<path d="M103.781 93.6029C103.833 93.631 103.899 93.6112 103.927 93.5585C103.955 93.5059 103.935 93.4405 103.882 93.4124C103.83 93.3842 103.765 93.4039 103.736 93.4566C103.708 93.5092 103.728 93.5747 103.781 93.6029Z" fill="#E0E4FF"/>
<path d="M103.722 93.911C103.781 93.9188 103.835 93.8772 103.843 93.8181C103.851 93.7589 103.809 93.7045 103.75 93.6967C103.691 93.689 103.637 93.7304 103.629 93.7898C103.621 93.8488 103.663 93.9031 103.722 93.911Z" fill="#E0E4FF"/>
<path d="M103.776 94.22C103.834 94.2066 103.87 94.1485 103.856 94.0904C103.843 94.0323 103.785 93.9961 103.727 94.0096C103.669 94.023 103.633 94.0811 103.646 94.1392C103.659 94.1973 103.717 94.2335 103.776 94.22Z" fill="#E0E4FF"/>
<path d="M103.935 94.4903C103.984 94.4571 103.998 94.3901 103.965 94.3405C103.931 94.2909 103.865 94.2774 103.815 94.3105C103.765 94.3437 103.752 94.4107 103.785 94.4603C103.818 94.5099 103.885 94.5234 103.935 94.4903Z" fill="#E0E4FF"/>
<path d="M104.179 94.6873C104.214 94.6389 104.203 94.5714 104.154 94.5365C104.106 94.5018 104.038 94.5129 104.004 94.5613C103.969 94.6097 103.98 94.6772 104.028 94.712C104.077 94.747 104.144 94.7359 104.179 94.6873Z" fill="#E0E4FF"/>
<path d="M104.477 94.7858C104.493 94.7281 104.459 94.6688 104.401 94.6534C104.344 94.6378 104.284 94.672 104.269 94.7297C104.253 94.7873 104.287 94.8465 104.345 94.8621C104.403 94.8775 104.462 94.8435 104.477 94.7858Z" fill="#E0E4FF"/>
<path d="M104.791 94.7731C104.786 94.7136 104.733 94.6701 104.673 94.6759C104.614 94.6816 104.571 94.7345 104.576 94.794C104.582 94.8533 104.635 94.8969 104.694 94.8912C104.754 94.8852 104.797 94.8324 104.791 94.7731Z" fill="#E0E4FF"/>
<path d="M105.081 94.6509C105.054 94.5973 104.99 94.5753 104.936 94.6016C104.883 94.6279 104.86 94.6927 104.887 94.7461C104.913 94.7998 104.978 94.8219 105.031 94.7956C105.085 94.7693 105.107 94.7045 105.081 94.6509Z" fill="#E0E4FF"/>
<path d="M105.308 94.4349C105.265 94.394 105.197 94.3961 105.156 94.4395C105.115 94.483 105.117 94.5514 105.16 94.5924C105.204 94.6333 105.272 94.6311 105.313 94.5876C105.354 94.5441 105.352 94.4757 105.308 94.4349Z" fill="#E0E4FF"/>
<path d="M105.445 94.1525C105.39 94.1295 105.327 94.1556 105.304 94.2108C105.281 94.2659 105.307 94.3292 105.362 94.352C105.417 94.375 105.481 94.349 105.504 94.2939C105.527 94.2387 105.501 94.1754 105.445 94.1525Z" fill="#E0E4FF"/>
<path d="M105.474 93.8402C105.414 93.8381 105.364 93.8848 105.362 93.9445C105.36 94.0041 105.407 94.0542 105.466 94.0562C105.526 94.0583 105.576 94.0117 105.578 93.9521C105.58 93.8923 105.534 93.8423 105.474 93.8402Z" fill="#E0E4FF"/>
<path d="M105.391 93.5378C105.334 93.5569 105.304 93.6182 105.323 93.6748C105.342 93.7314 105.403 93.7617 105.46 93.7426C105.516 93.7237 105.547 93.6624 105.528 93.6058C105.509 93.5492 105.447 93.5188 105.391 93.5378Z" fill="#E0E4FF"/>
<path d="M105.206 93.2841C105.16 93.3219 105.153 93.39 105.191 93.4362C105.228 93.4824 105.296 93.4893 105.343 93.4515C105.389 93.4138 105.396 93.3457 105.358 93.2995C105.32 93.2532 105.252 93.2464 105.206 93.2841Z" fill="#E0E4FF"/>
<path d="M104.877 93.096C104.847 93.1477 104.865 93.2138 104.916 93.2438C104.968 93.2738 105.034 93.2562 105.064 93.2046C105.094 93.153 105.076 93.0868 105.025 93.0568C104.973 93.0269 104.907 93.0444 104.877 93.096Z" fill="#E0E4FF"/>
<path d="M93.6589 93.9194C93.6589 95.2945 94.7755 96.4092 96.1529 96.4092C97.5305 96.4092 98.6471 95.2945 98.6471 93.9194C98.6471 92.5444 97.5305 91.4295 96.1529 91.4295C94.7755 91.4295 93.6589 92.5444 93.6589 93.9194Z" fill="white"/>
<path d="M94.5658 93.9194C94.5658 94.7945 95.2763 95.5038 96.1529 95.5038C97.0295 95.5038 97.74 94.7945 97.74 93.9194C97.74 93.0444 97.0295 92.3349 96.1529 92.3349C95.2763 92.3349 94.5658 93.0444 94.5658 93.9194Z" fill="#E68068"/>
<path d="M95.9263 92.1087C95.9263 92.2337 96.0274 92.3349 96.1523 92.3349C96.2773 92.3349 96.3784 92.2337 96.3784 92.1087C96.3784 91.9837 96.2773 91.8823 96.1523 91.8823C96.0274 91.8823 95.9263 91.9837 95.9263 92.1087Z" fill="#E68068"/>
<path d="M95.3021 92.3043C95.346 92.4214 95.4764 92.4804 95.5933 92.4364C95.7103 92.3924 95.7693 92.262 95.7254 92.1449C95.6814 92.028 95.551 91.9688 95.4341 92.0128C95.3173 92.0568 95.2581 92.1874 95.3021 92.3043Z" fill="#E68068"/>
<path d="M94.7868 92.7069C94.8691 92.801 95.0119 92.8103 95.1058 92.7279C95.1996 92.6456 95.2091 92.5026 95.1267 92.4086C95.0444 92.3146 94.9016 92.3052 94.8078 92.3875C94.714 92.4699 94.7044 92.6128 94.7868 92.7069Z" fill="#E68068"/>
<path d="M94.4464 93.2647C94.5567 93.3236 94.6936 93.2822 94.7526 93.172C94.8114 93.0617 94.7699 92.9245 94.6598 92.8655C94.5497 92.8065 94.4126 92.8481 94.3538 92.9583C94.2948 93.0686 94.3363 93.2056 94.4464 93.2647Z" fill="#E68068"/>
<path d="M94.3245 93.9063C94.4483 93.9228 94.5621 93.8355 94.5784 93.7116C94.5946 93.5877 94.5076 93.4739 94.384 93.4575C94.26 93.4412 94.1464 93.5283 94.13 93.6522C94.1136 93.7762 94.2007 93.8899 94.3245 93.9063Z" fill="#E68068"/>
<path d="M94.4366 94.5497C94.5583 94.5214 94.634 94.3997 94.6056 94.2781C94.5774 94.1563 94.4559 94.0804 94.3343 94.1088C94.2126 94.1371 94.1369 94.2587 94.1651 94.3804C94.1934 94.5022 94.3149 94.578 94.4366 94.5497Z" fill="#E68068"/>
<path d="M94.7685 95.1124C94.8726 95.0429 94.9005 94.9024 94.8312 94.7984C94.762 94.6944 94.6216 94.6663 94.5177 94.7357C94.4137 94.805 94.3856 94.9455 94.4549 95.0496C94.5243 95.1536 94.6647 95.1816 94.7685 95.1124Z" fill="#E68068"/>
<path d="M95.2778 95.5222C95.3506 95.4207 95.3275 95.2792 95.2261 95.2063C95.1246 95.1334 94.9832 95.1565 94.9105 95.2582C94.8375 95.3596 94.8608 95.501 94.9622 95.574C95.0637 95.6469 95.2049 95.6238 95.2778 95.5222Z" fill="#E68068"/>
<path d="M95.899 95.7268C95.9314 95.6061 95.8599 95.4818 95.7393 95.4494C95.6189 95.4168 95.4948 95.4884 95.4623 95.6091C95.4299 95.7297 95.5012 95.8539 95.6219 95.8865C95.7424 95.919 95.8665 95.8476 95.899 95.7268Z" fill="#E68068"/>
<path d="M96.5524 95.6999C96.5404 95.5756 96.4298 95.4844 96.3056 95.4966C96.1813 95.5086 96.0904 95.6193 96.1024 95.7436C96.1144 95.868 96.225 95.9592 96.3492 95.947C96.4735 95.935 96.5646 95.8243 96.5524 95.6999Z" fill="#E68068"/>
<path d="M97.155 95.4451C97.0999 95.3328 96.9644 95.2866 96.8523 95.3417C96.7401 95.3968 96.694 95.5325 96.7489 95.6447C96.804 95.7569 96.9396 95.8032 97.0516 95.7481C97.1638 95.6929 97.2099 95.5573 97.155 95.4451Z" fill="#E68068"/>
<path d="M97.6289 94.9947C97.5379 94.9092 97.3948 94.9136 97.3092 95.0046C97.2237 95.0957 97.2281 95.2389 97.3192 95.3246C97.4102 95.4102 97.5533 95.4057 97.6387 95.3147C97.7244 95.2235 97.7199 95.0803 97.6289 94.9947Z" fill="#E68068"/>
<path d="M97.9138 94.4068C97.7985 94.3587 97.666 94.4133 97.6181 94.5287C97.57 94.6441 97.6246 94.7766 97.7398 94.8247C97.8551 94.8728 97.9875 94.8181 98.0356 94.7027C98.0835 94.5873 98.0291 94.4549 97.9138 94.4068Z" fill="#E68068"/>
<path d="M97.9729 93.7563C97.8482 93.7519 97.7434 93.8496 97.7392 93.9746C97.7348 94.0996 97.8324 94.2044 97.9571 94.2088C98.082 94.2131 98.1867 94.1153 98.1912 93.9905C98.1954 93.8655 98.0978 93.7607 97.9729 93.7563Z" fill="#E68068"/>
<path d="M97.7991 93.1268C97.6808 93.1667 97.6172 93.2952 97.6571 93.4136C97.6969 93.532 97.8253 93.5957 97.9434 93.5558C98.0619 93.5159 98.1255 93.3876 98.0856 93.269C98.0456 93.1505 97.9174 93.0869 97.7991 93.1268Z" fill="#E68068"/>
<path d="M97.4143 92.5987C97.3175 92.6778 97.3032 92.8204 97.3822 92.9173C97.4613 93.0141 97.6036 93.0286 97.7003 92.9494C97.7971 92.8704 97.8114 92.7277 97.7324 92.6309C97.6533 92.534 97.511 92.5196 97.4143 92.5987Z" fill="#E68068"/>
<path d="M96.7288 92.2077C96.6662 92.3158 96.7028 92.4543 96.8108 92.5171C96.9188 92.5799 97.0572 92.5432 97.1198 92.4351C97.1825 92.3269 97.1458 92.1884 97.0378 92.1256C96.9299 92.0629 96.7915 92.0996 96.7288 92.2077Z" fill="#E68068"/>
<path d="M95.3945 93.9173C95.3945 94.3376 95.7358 94.6783 96.1567 94.6783C96.5777 94.6783 96.919 94.3376 96.919 93.9173C96.919 93.4971 96.5777 93.1564 96.1567 93.1564C95.7358 93.1564 95.3945 93.4971 95.3945 93.9173Z" fill="#E0E4FF"/>
<path d="M96.0479 93.0483C96.0479 93.1079 96.0962 93.1563 96.1558 93.1563C96.2154 93.1563 96.2639 93.1079 96.2639 93.0483C96.2639 92.9887 96.2154 92.9402 96.1558 92.9402C96.0962 92.9402 96.0479 92.9887 96.0479 93.0483Z" fill="#E0E4FF"/>
<path d="M95.748 93.142C95.7691 93.1978 95.8313 93.2261 95.8871 93.2051C95.9429 93.1841 95.9711 93.1217 95.9501 93.0659C95.9291 93.0101 95.8668 92.9818 95.811 93.0028C95.7552 93.0238 95.727 93.0862 95.748 93.142Z" fill="#E0E4FF"/>
<path d="M95.5004 93.3351C95.5397 93.3799 95.608 93.3844 95.6529 93.3451C95.6978 93.3059 95.7022 93.2375 95.6629 93.1927C95.6235 93.1478 95.5553 93.1432 95.5104 93.1826C95.4656 93.2219 95.4611 93.2902 95.5004 93.3351Z" fill="#E0E4FF"/>
<path d="M95.3368 93.6029C95.3894 93.631 95.4547 93.6112 95.4828 93.5585C95.5109 93.5059 95.4911 93.4405 95.4387 93.4124C95.3861 93.3842 95.3207 93.4039 95.2925 93.4566C95.2644 93.5092 95.2842 93.5747 95.3368 93.6029Z" fill="#E0E4FF"/>
<path d="M95.2779 93.911C95.3372 93.9188 95.3913 93.8772 95.3992 93.8181C95.407 93.7589 95.3654 93.7045 95.3062 93.6967C95.2472 93.689 95.1929 93.7304 95.1851 93.7898C95.1772 93.8488 95.2188 93.9031 95.2779 93.911Z" fill="#E0E4FF"/>
<path d="M95.3317 94.22C95.3898 94.2066 95.4259 94.1485 95.4125 94.0904C95.3989 94.0323 95.3409 93.9961 95.2829 94.0096C95.2248 94.023 95.1887 94.0811 95.2022 94.1392C95.2156 94.1973 95.2737 94.2335 95.3317 94.22Z" fill="#E0E4FF"/>
<path d="M95.4909 94.4903C95.5405 94.4571 95.5539 94.3901 95.5208 94.3405C95.4877 94.2909 95.4207 94.2774 95.3712 94.3105C95.3216 94.3437 95.3081 94.4107 95.3412 94.4603C95.3743 94.5099 95.4413 94.5234 95.4909 94.4903Z" fill="#E0E4FF"/>
<path d="M95.7354 94.6873C95.77 94.6389 95.759 94.5714 95.7106 94.5365C95.6623 94.5018 95.5945 94.5129 95.5599 94.5613C95.5249 94.6097 95.5361 94.6772 95.5845 94.712C95.633 94.747 95.7006 94.7359 95.7354 94.6873Z" fill="#E0E4FF"/>
<path d="M96.0335 94.7858C96.0491 94.7281 96.0149 94.6688 95.9573 94.6534C95.8997 94.6378 95.8405 94.672 95.8249 94.7297C95.8095 94.7873 95.8435 94.8465 95.9012 94.8621C95.9588 94.8775 96.018 94.8435 96.0335 94.7858Z" fill="#E0E4FF"/>
<path d="M96.3475 94.7731C96.3417 94.7136 96.2889 94.6701 96.2296 94.6759C96.1702 94.6816 96.1268 94.7345 96.1325 94.794C96.1381 94.8533 96.191 94.8969 96.2503 94.8912C96.3098 94.8852 96.3532 94.8324 96.3475 94.7731Z" fill="#E0E4FF"/>
<path d="M96.6367 94.6509C96.6106 94.5973 96.5457 94.5753 96.4923 94.6016C96.4387 94.6279 96.4167 94.6927 96.443 94.7461C96.4693 94.7998 96.5339 94.8219 96.5874 94.7956C96.641 94.7693 96.6632 94.7045 96.6367 94.6509Z" fill="#E0E4FF"/>
<path d="M96.8646 94.4349C96.8211 94.394 96.7529 94.3961 96.7119 94.4395C96.6713 94.483 96.6732 94.5514 96.7166 94.5924C96.7602 94.6333 96.8285 94.6311 96.8693 94.5876C96.9101 94.5441 96.908 94.4757 96.8646 94.4349Z" fill="#E0E4FF"/>
<path d="M97.0016 94.1525C96.9466 94.1295 96.8834 94.1556 96.8604 94.2108C96.8374 94.2659 96.8636 94.3292 96.9186 94.352C96.9735 94.375 97.0367 94.349 97.0599 94.2939C97.0827 94.2387 97.0565 94.1754 97.0016 94.1525Z" fill="#E0E4FF"/>
<path d="M97.0303 93.8402C96.9706 93.8381 96.9207 93.8848 96.9187 93.9445C96.9166 94.0041 96.9633 94.0542 97.0228 94.0562C97.0825 94.0583 97.1324 94.0117 97.1344 93.9521C97.1366 93.8923 97.0901 93.8423 97.0303 93.8402Z" fill="#E0E4FF"/>
<path d="M96.947 93.5378C96.8904 93.5569 96.86 93.6182 96.8791 93.6748C96.8981 93.7314 96.9594 93.7617 97.0158 93.7426C97.0724 93.7237 97.1028 93.6624 97.0838 93.6058C97.0647 93.5492 97.0034 93.5188 96.947 93.5378Z" fill="#E0E4FF"/>
<path d="M96.7623 93.2841C96.716 93.3219 96.7092 93.39 96.7468 93.4362C96.7845 93.4824 96.8527 93.4893 96.8988 93.4515C96.9451 93.4138 96.9519 93.3457 96.9142 93.2995C96.8766 93.2532 96.8085 93.2464 96.7623 93.2841Z" fill="#E0E4FF"/>
<path d="M96.4333 93.096C96.4034 93.1477 96.4209 93.2138 96.4725 93.2438C96.524 93.2738 96.59 93.2562 96.6199 93.2046C96.65 93.153 96.6325 93.0868 96.5809 93.0568C96.5293 93.0269 96.4633 93.0444 96.4333 93.096Z" fill="#E0E4FF"/>
<path d="M75.6525 99.7494H25.7032V19.7173H75.6525V99.7494Z" fill="#E1E5F2"/>
<path d="M74.9032 100.248H24.954V20.216H74.9032V100.248Z" fill="#D7D9E3"/>
<path d="M74.154 100.996H24.2048V20.9639H74.154V100.996Z" fill="#E1E5F2"/>
<path d="M73.4048 101.495H23.4555V21.4625H73.4048V101.495Z" fill="#D7D9E3"/>
<path d="M72.6555 102.243H22.7064V22.2105H72.6555V102.243Z" fill="#F0F0F2"/>
<path d="M50.4281 27.4463H24.7043V25.701H50.4281V27.4463Z" stroke="#BFC4D8" stroke-width="0.895" stroke-miterlimit="10"/>
<path d="M26.2712 32.7405V38.9016H25.5263V31.3596H26.1009L31.1021 37.6375V31.3702H31.8469V38.9016H31.1978L26.2712 32.7405Z" fill="#7986B5"/>
<path d="M38.8215 38.243V38.9016H33.7459V31.3596H38.7257V32.0182H34.4907V34.7376H38.1831V35.3643H34.4907V38.243H38.8215Z" fill="#7986B5"/>
<path d="M43.0712 31.4127H43.7734L44.8375 34.0896L45.9122 31.4127H46.6252L45.3057 34.6313L46.7529 38.0412L49.4875 31.3596H50.2962L47.0934 38.9016H46.4336L44.8482 35.1731L43.252 38.9016H42.603L39.4107 31.3596H40.2088L42.9541 38.0412L44.3906 34.6313L43.0712 31.4127Z" fill="#7986B5"/>
<path d="M55.5985 32.7724C55.3857 32.5316 55.1019 32.3369 54.7472 32.1881C54.3925 32.0394 53.9882 31.9651 53.5342 31.9651C52.8673 31.9651 52.3814 32.0925 52.0764 32.3475C51.7713 32.5953 51.6188 32.9353 51.6188 33.3672C51.6188 33.5939 51.6578 33.7815 51.7359 33.9302C51.821 34.0719 51.9487 34.1958 52.1189 34.302C52.2892 34.4083 52.5056 34.5003 52.768 34.5782C53.0376 34.6561 53.3533 34.734 53.7151 34.8119C54.1194 34.8969 54.4812 34.9925 54.8004 35.0987C55.1267 35.205 55.4034 35.3395 55.6304 35.5024C55.8574 35.6582 56.0312 35.8494 56.1518 36.076C56.2724 36.3026 56.3327 36.5859 56.3327 36.9258C56.3327 37.2728 56.2653 37.5738 56.1305 37.8287C55.9957 38.0837 55.8077 38.2961 55.5665 38.4661C55.3254 38.6361 55.0381 38.7635 54.7046 38.8485C54.3712 38.9264 54.0059 38.9654 53.6086 38.9654C52.4382 38.9654 51.4273 38.6006 50.576 37.8712L50.9485 37.2657C51.0832 37.4074 51.2429 37.5419 51.4273 37.6694C51.6188 37.7969 51.8281 37.9102 52.0551 38.0093C52.2892 38.1014 52.5375 38.1757 52.7999 38.2324C53.0624 38.282 53.3391 38.3068 53.6299 38.3068C54.2329 38.3068 54.7011 38.2005 55.0345 37.9881C55.375 37.7685 55.5453 37.4392 55.5453 37.0002C55.5453 36.7665 55.4956 36.5717 55.3963 36.4159C55.3041 36.2531 55.1622 36.115 54.9707 36.0017C54.7791 35.8813 54.5415 35.7786 54.2577 35.6936C53.974 35.6086 53.6441 35.5236 53.2681 35.4387C52.8709 35.3466 52.5233 35.251 52.2254 35.1518C51.9274 35.0527 51.6756 34.9288 51.4699 34.7801C51.2641 34.6313 51.1081 34.4543 51.0017 34.2489C50.9024 34.0365 50.8527 33.778 50.8527 33.4735C50.8527 33.1265 50.9165 32.8184 51.0442 32.5493C51.179 32.2731 51.367 32.0465 51.6082 31.8695C51.8494 31.6853 52.1331 31.5472 52.4594 31.4552C52.7858 31.356 53.1475 31.3065 53.5448 31.3065C54.0485 31.3065 54.4954 31.3844 54.8855 31.5402C55.2828 31.6889 55.641 31.9013 55.9602 32.1775L55.5985 32.7724Z" fill="#7986B5"/>
<path d="M24.7044 40.9097H70.1582" stroke="#BFC4D8" stroke-width="0.895" stroke-miterlimit="10"/>
<path d="M24.7044 42.0316H70.1582" stroke="#BFC4D8" stroke-width="0.895" stroke-miterlimit="10"/>
<path d="M38.6444 76.8118H25.2496C25.0174 76.8118 24.8292 76.624 24.8292 76.3921V44.6951C24.8292 44.4632 25.0174 44.2754 25.2496 44.2754H38.6444C38.8764 44.2754 39.0647 44.4632 39.0647 44.6951V76.3921C39.0647 76.624 38.8764 76.8118 38.6444 76.8118Z" fill="#BFC4D8"/>
<path d="M69.4357 59.6087H42.1599C41.6228 59.6087 41.1877 59.1742 41.1877 58.6382V45.1214C41.1877 44.5854 41.6228 44.1509 42.1599 44.1509H69.4357C69.9726 44.1509 70.408 44.5854 70.408 45.1214V58.6382C70.408 59.1742 69.9726 59.6087 69.4357 59.6087Z" stroke="#BFC4D8" stroke-width="0.895" stroke-miterlimit="10"/>
<path d="M66.6617 46.648H42.4361V45.3973H66.6617V46.648Z" stroke="#E68068" stroke-width="0.895" stroke-miterlimit="10"/>
<path d="M61.9166 48.941H42.4364V47.6903H61.9166V48.941Z" fill="#BFC4D8"/>
<path d="M55.4232 51.2339H42.4364V49.9833H55.4232V51.2339Z" fill="#BFC4D8"/>
<path d="M66.6617 53.5269H42.4361V52.2762H66.6617V53.5269Z" fill="#E68068"/>
<path d="M61.9166 55.8198H42.4364V54.5691H61.9166V55.8198Z" fill="#BFC4D8"/>
<path d="M55.4232 58.1127H42.4364V56.8621H55.4232V58.1127Z" fill="#BFC4D8"/>
<path d="M50.678 81.8024H26.4525V80.5517H50.678V81.8024Z" fill="#E68068"/>
<path d="M45.9326 84.0954H26.4525V82.8447H45.9326V84.0954Z" fill="#BFC4D8"/>
<path d="M39.4394 86.3881H26.4525V85.1374H39.4394V86.3881Z" fill="#BFC4D8"/>
<path d="M50.678 88.6812H26.4525V87.4305H50.678V88.6812Z" stroke="#E68068" stroke-width="0.895" stroke-miterlimit="10"/>
<path d="M68.4538 88.7793H53.1313C53.0176 88.7793 52.9255 88.6873 52.9255 88.5739V80.7572C52.9255 80.6436 53.0176 80.5516 53.1313 80.5516H68.4538C68.5674 80.5516 68.6597 80.6436 68.6597 80.757V88.5739C68.6597 88.6873 68.5674 88.7793 68.4538 88.7793Z" fill="#BFC4D8"/>
<path d="M50.6955 97.0068H26.6847C26.5564 97.0068 26.4525 96.9032 26.4525 96.7751V90.5069C26.4525 90.3788 26.5564 90.2752 26.6847 90.2752H50.6955C50.8238 90.2752 50.9277 90.3788 50.9277 90.5069V96.7751C50.9277 96.903 50.8238 97.0068 50.6955 97.0068Z" fill="#BFC4D8"/>
<path d="M70.3591 39.4137H59.2181C59.0532 39.4137 58.9195 39.2803 58.9195 39.1156V31.9827C58.9195 31.8182 59.0532 31.6848 59.2181 31.6848H70.3591C70.5239 31.6848 70.6575 31.8182 70.6575 31.9827V39.1156C70.6575 39.2803 70.5239 39.4137 70.3591 39.4137Z" fill="#E68068"/>
<path d="M69.1638 98.7521H25.6987C25.1495 98.7521 24.7044 98.3077 24.7044 97.7595V80.2977C24.7044 79.7494 25.1495 79.305 25.6987 79.305H69.1638C69.7132 79.305 70.1583 79.7494 70.1583 80.2977V97.7595C70.1583 98.3077 69.7132 98.7521 69.1638 98.7521Z" stroke="#BFC4D8" stroke-width="0.895" stroke-miterlimit="10"/>
<path d="M68.7845 91.1478H55.0485V89.6518H68.7845V91.1478Z" fill="#BFC4D8"/>
<path d="M68.9093 94.015H58.1702V92.5191H68.9093V94.015Z" fill="#BFC4D8"/>
<path d="M74.7587 108.646V96.4547H87.6136C90.9858 96.4547 93.7196 99.1838 93.7196 102.55C93.7196 105.917 90.9858 108.646 87.6136 108.646H74.7587Z" fill="#2E4EBE"/>
<path d="M39.3539 106.212V98.8892L71.6722 98.0975V107.003L39.3539 106.212Z" fill="#344173"/>
<path d="M61.3153 93.9548H79.0112V111.102H61.3153V93.9548Z" fill="#FFC070"/>
<path d="M61.3153 93.9548H79.0112V102.449H61.3153V93.9548Z" fill="#FFCF93"/>
<path d="M61.935 94.5732H78.3921V101.831H61.935V94.5732Z" stroke="#FFE2BD" stroke-width="0.444" stroke-miterlimit="10"/>
<path d="M61.935 103.374H78.3921V110.632H61.935V103.374Z" stroke="#FFE2BD" stroke-width="0.444" stroke-miterlimit="10"/>
<path d="M93.1223 43.2788L96.0634 44.6939H93.2158L92.9834 44.4724V44.756H91.9117L92.3069 43.3322L93.1223 43.2788Z" fill="#FFC373"/>
<path d="M78.2876 40.2576C78.2876 40.2576 77.8879 37.7169 89.3648 35.711L93.2166 43.3322L92.4013 43.3857L88.6354 39.0191C88.6354 39.0191 83.0884 44.4674 78.2876 40.2576Z" fill="#2E4EBE"/>
<path d="M96.3244 45.4539L98.7557 43.2788L97.6705 45.9068L97.3769 46.0369L97.6395 46.145L97.231 47.1342L96.0633 46.2268L96.3244 45.4539Z" fill="#FFC373"/>
<path d="M78.0421 41.6329C78.0421 41.6329 76.6492 45.7954 80.2316 45.7954C83.8144 45.7954 85.2391 45.4539 88.5211 44.756L96.1096 46.1303L96.4727 45.3415L88.7637 42.6016C88.7637 42.6016 79.3442 40.9845 78.0421 41.6329Z" fill="#2E4EBE"/>
<path d="M77.7755 28.365L77.1236 30.372L79.1086 30.0053V28.3492L77.7755 28.365Z" fill="#F0B291"/>
<path d="M77.5759 28.4783C77.5759 28.4783 78.1589 29.4674 79.2724 29.2897L79.1087 28.7468L77.5759 28.4783Z" fill="#DB9680"/>
<path d="M80.7062 24.306C80.7062 24.306 80.3719 26.3823 80.7062 27.198C80.7062 27.198 80.4091 27.3463 80.112 27.198C80.112 27.198 80.1919 27.8898 79.6518 28.4846C79.4717 28.6828 79.2126 28.7923 78.9443 28.7923H78.2582C78.002 28.7923 77.7579 28.6898 77.5759 28.5096C77.1573 28.0949 76.4685 27.2901 76.5467 26.5492L76.8808 26.0486C76.8808 26.0486 76.3237 24.8622 76.9179 24.7139C77.5122 24.5656 77.6237 25.0847 77.6237 25.0847L77.9952 23.5274C77.9952 23.5274 79.8519 22.4893 80.7062 24.306Z" fill="#F0B291"/>
<path d="M80.7062 27.198C80.7062 27.198 80.1848 26.8629 79.9296 27.0498C79.6743 27.2368 80.1121 27.198 80.1121 27.198C80.1121 27.198 80.4332 27.3432 80.7062 27.198Z" fill="#DB9680"/>
<path d="M79.7031 27.5785C79.7031 27.5785 79.0836 28.0259 78.8951 27.2625" stroke="#374475" stroke-width="0.345" stroke-miterlimit="10"/>
<path d="M79.8316 24.9631C79.8316 24.9631 79.2227 25.1755 79.2081 25.4696C79.1934 25.7636 80.0935 25.1266 79.8316 24.9631Z" fill="#21273D"/>
<path d="M79.7234 25.7722C79.6584 25.9002 79.6587 26.0309 79.7241 26.0641C79.7894 26.0973 79.8948 26.0202 79.9597 25.8922C80.0245 25.764 80.0242 25.6333 79.9588 25.6001C79.8936 25.5671 79.7882 25.6441 79.7234 25.7722Z" fill="#21273D"/>
<path d="M84.9951 26.2584L90.0218 26.5343L90.2448 36.0195L84.8565 37.1109L84.9951 26.2584Z" fill="#D3D3F2"/>
<path d="M87.6066 28.193L89.4008 28.2714" stroke="#AEAEF2" stroke-width="0.737" stroke-miterlimit="10" stroke-linecap="round" stroke-linejoin="round"/>
<path d="M87.5893 29.343L89.307 29.3736" stroke="#AEAEF2" stroke-width="0.737" stroke-miterlimit="10" stroke-linecap="round" stroke-linejoin="round"/>
<path d="M85.4434 30.4067L89.2895 30.513" stroke="#AEAEF2" stroke-width="0.737" stroke-miterlimit="10" stroke-linecap="round" stroke-linejoin="round"/>
<path d="M85.3382 31.438L89.2353 31.5693" stroke="#AEAEF2" stroke-width="0.737" stroke-miterlimit="10" stroke-linecap="round" stroke-linejoin="round"/>
<path d="M85.3227 32.5976L89.3075 32.7716" stroke="#AEAEF2" stroke-width="0.737" stroke-miterlimit="10" stroke-linecap="round" stroke-linejoin="round"/>
<path d="M85.2366 33.9188L89.2215 34.0928" stroke="#AEAEF2" stroke-width="0.737" stroke-miterlimit="10" stroke-linecap="round" stroke-linejoin="round"/>
<path d="M85.2369 35.1893L89.2216 35.3633" stroke="#AEAEF2" stroke-width="0.737" stroke-miterlimit="10" stroke-linecap="round" stroke-linejoin="round"/>
<path d="M87.1963 27.8418L85.5174 27.8118L85.4912 29.8538L87.1623 29.8834L87.1963 27.8418Z" fill="#AEAEF2"/>
<path d="M88.6431 31.1749C88.6431 31.1749 88.698 30.3645 88.8626 30.3962C89.0274 30.4278 88.9498 30.8441 88.9498 30.8441C88.9498 30.8441 89.9982 30.0487 90.4913 30.0892C90.9846 30.1299 89.4963 31.6689 89.0218 31.8152C88.5475 31.9615 88.6431 31.1749 88.6431 31.1749Z" fill="#F0B291"/>
<path d="M88.7005 31.0721L87.6775 31.9727L88.1039 32.7044L89.3646 31.4833L88.7005 31.0721Z" fill="#F0B291"/>
<path d="M80.9451 30.2388C80.3511 29.3048 78.8895 29.7104 78.7792 30.8111C78.5921 32.6802 78.6475 36.0472 81.2405 37.1012C84.897 38.5874 88.7638 32.229 88.7638 32.229L88.4642 31.0929C88.4642 31.0929 83.8734 35.4862 82.4349 34.5365C81.4458 33.8836 81.7364 31.4836 80.9451 30.2388Z" fill="#FFC373"/>
<path d="M85.5929 33.4631C84.4227 34.4323 83.1004 34.9492 82.4606 34.5267C81.4716 33.8737 81.7621 31.4738 80.9708 30.2292C80.3769 29.295 78.915 29.7006 78.8048 30.8015" stroke="#C99146" stroke-width="0.447" stroke-miterlimit="10" stroke-linecap="round" stroke-linejoin="round"/>
<path d="M81.2663 37.0914C83.0619 37.8213 85.065 36.4269 86.6387 34.8189" stroke="#BF5233" stroke-width="0.345" stroke-miterlimit="10"/>
<path d="M79.4196 29.608C79.4196 29.608 81.787 31.1916 81.4983 33.0934C81.2096 34.9952 81.875 38.5971 82.5381 38.8276C82.5381 38.8276 83.0459 38.1649 82.8638 37.8767C82.6817 37.5887 81.8263 35.6579 82.0231 35.2547C82.2198 34.8512 83.5295 30.1255 79.1511 29.1458C79.1511 29.1458 78.8981 29.1988 79.4196 29.608Z" fill="#FFC373"/>
<path d="M79.6678 43.0091C79.6678 43.0091 78.0659 44.7893 77.1605 43.6895C76.2832 42.6237 76.9031 36.2258 76.001 34.5692C75.099 32.9127 77.8434 30.1999 77.8434 30.1999L79.222 29.1773C79.222 29.1773 82.4129 30.638 82.011 33.0209C81.609 35.4038 82.011 36.9301 82.011 36.9301C82.011 36.9301 83.9367 40.2386 79.6678 43.0091Z" fill="white"/>
<path d="M77.1236 30.372L79.2222 29.1772C79.2222 29.1772 80.1815 31.168 76.8334 30.372" fill="#F0B291"/>
<path d="M78.9683 30.5668C78.9683 30.5668 77.5756 29.8925 76.9064 30.3721C76.2374 30.8515 75.7284 42.9884 76.6138 44.3919C77.4991 45.7955 82.1123 42.339 81.8756 41.2793C81.6392 40.2196 80.2066 39.9038 80.3512 38.5266C80.4957 37.1495 80.6205 31.34 78.9683 30.5668Z" fill="#FFC373"/>
<path d="M83.9494 27.9732L90 26.4302L90.2446 36.0195L84.0332 37.9385L83.9494 27.9732Z" fill="#DADAF2"/>
<path d="M87.1342 28.8082L89.2932 28.2391" stroke="#AEAEF2" stroke-width="0.775" stroke-miterlimit="10" stroke-linecap="round" stroke-linejoin="round"/>
<path d="M87.14 29.8651L89.206 29.2797" stroke="#AEAEF2" stroke-width="0.775" stroke-miterlimit="10" stroke-linecap="round" stroke-linejoin="round"/>
<path d="M84.5842 31.6033L89.2115 30.3269" stroke="#AEAEF2" stroke-width="0.775" stroke-miterlimit="10" stroke-linecap="round" stroke-linejoin="round"/>
<path d="M84.4816 32.5831L89.1705 31.3113" stroke="#AEAEF2" stroke-width="0.775" stroke-miterlimit="10" stroke-linecap="round" stroke-linejoin="round"/>
<path d="M84.4898 33.6482L89.2853 32.3841" stroke="#AEAEF2" stroke-width="0.775" stroke-miterlimit="10" stroke-linecap="round" stroke-linejoin="round"/>
<path d="M84.4168 34.886L89.2121 33.6221" stroke="#AEAEF2" stroke-width="0.775" stroke-miterlimit="10" stroke-linecap="round" stroke-linejoin="round"/>
<path d="M84.4463 36.0469L89.2418 34.783" stroke="#AEAEF2" stroke-width="0.775" stroke-miterlimit="10" stroke-linecap="round" stroke-linejoin="round"/>
<path d="M86.6329 28.6338L84.6134 29.2059L84.6291 31.0811L86.6393 30.5113L86.6329 28.6338Z" fill="#AEAEF2"/>
<path d="M85.5499 35.3384C85.5499 35.3384 85.8898 34.6005 86.0323 34.6883C86.175 34.7763 85.9543 35.1379 85.9543 35.1379C85.9543 35.1379 87.2175 34.7661 87.6639 34.9791C88.1105 35.1919 86.1716 36.1028 85.6762 36.0713C85.1808 36.0399 85.5499 35.3384 85.5499 35.3384Z" fill="#F0B291"/>
<path d="M85.6402 35.2626L84.3636 35.7417L84.5016 36.577L86.1146 35.8826L85.6402 35.2626Z" fill="#F0B291"/>
<path d="M78.687 31.7336C78.4642 30.65 76.9533 30.5107 76.4588 31.5005C75.6188 33.1815 74.4724 36.3486 76.5214 38.2533C79.4106 40.9392 85.2876 36.3665 85.2876 36.3665L85.4118 35.1984C85.4118 35.1984 79.5573 37.6774 78.5503 36.2793C77.8581 35.3182 78.9837 33.1778 78.687 31.7336Z" fill="#FFC373"/>
<path d="M81.8844 36.3959C80.4456 36.8869 79.0256 36.9012 78.5779 36.2794C77.8855 35.3183 79.0113 33.1779 78.7145 31.7337C78.4916 30.6501 76.9809 30.5108 76.4862 31.5006" stroke="#C99146" stroke-width="0.447" stroke-miterlimit="10" stroke-linecap="round" stroke-linejoin="round"/>
<path d="M76.549 38.2534C77.9679 39.5724 80.3364 38.9793 82.3795 38.034" stroke="#C99146" stroke-width="0.447" stroke-miterlimit="10" stroke-linecap="round" stroke-linejoin="round"/>
<path d="M77.6236 25.0847C77.6236 25.0847 77.4778 26.1119 77.8755 25.8323C78.2736 25.5526 78.6233 23.9373 78.6233 23.9373C78.6233 23.9373 81.3503 25.3672 81.3768 24.308C81.4034 23.2488 80.3914 21.7532 78.116 22.7722C78.116 22.7722 77.3561 21.8659 76.4861 22.7114C75.6812 23.494 76.5466 26.5493 76.5466 26.5493L76.8808 26.0487C76.8808 26.0487 76.2602 24.7241 77.1236 24.6874C77.5185 24.6705 77.6236 25.0847 77.6236 25.0847Z" fill="#21273D"/>
<path d="M98.7796 93.0831C98.576 92.7056 98.0521 92.6548 97.7767 92.9835C96.8236 94.1206 94.4837 97.0538 94.3479 98.602C94.1769 100.549 98.7876 102.005 98.7876 102.005L99.3635 101.169C99.3635 101.169 96.0121 98.8937 96.5193 98.3589C96.9628 97.8913 99.6311 94.6626 98.7796 93.0831Z" fill="white"/>
<path d="M99.0441 101.633L99.3634 101.169C99.3634 101.169 97.3584 99.8078 96.6847 98.9436" stroke="#2F5E94" stroke-width="0.684" stroke-miterlimit="10" stroke-linecap="round" stroke-linejoin="round"/>
<path d="M105.001 103.518H96.6745L97.4685 94.7941C97.6687 93.0879 99.1167 91.8016 100.838 91.8016C102.558 91.8016 104.007 93.0879 104.207 94.7941L105.001 103.518Z" fill="white"/>
<path d="M102.905 93.0831C103.109 92.7056 103.632 92.6548 103.908 92.9835C104.861 94.1206 107.201 97.0538 107.337 98.602C107.508 100.549 102.897 102.005 102.897 102.005L102.321 101.169C102.321 101.169 105.673 98.8937 105.165 98.3589C104.722 97.8913 102.053 94.6626 102.905 93.0831Z" fill="white"/>
<path d="M104.883 98.0349C104.257 97.2818 102.979 95.5555 102.768 94.1777" stroke="#2F5E94" stroke-width="0.684" stroke-miterlimit="10" stroke-linecap="round" stroke-linejoin="round"/>
<path d="M102.641 101.633L102.321 101.169C102.321 101.169 104.326 99.8078 105 98.9436" stroke="#2F5E94" stroke-width="0.684" stroke-miterlimit="10" stroke-linecap="round" stroke-linejoin="round"/>
<path d="M96.8017 98.0349C97.4273 97.2818 98.7059 95.5555 98.9164 94.1777" stroke="#2F5E94" stroke-width="0.684" stroke-miterlimit="10" stroke-linecap="round" stroke-linejoin="round"/>
<path d="M97.5069 105.87L95.4548 106.831C95.4548 106.831 95.7313 107.823 95.7952 107.781C95.8589 107.739 97.6754 106.698 97.6754 106.698L97.5069 105.87Z" fill="#ECB99A"/>
<path d="M95.4548 106.832C95.4548 106.832 93.1624 107.573 93.1767 108.43C93.1912 109.287 95.7952 107.781 95.7952 107.781C95.7952 107.781 96.2518 107.233 95.4548 106.832Z" fill="#3E7DC7"/>
<path d="M94.8475 107.062C94.8475 107.062 95.1067 106.251 95.4547 106.251C95.803 106.251 96.1899 106.487 96.1899 106.487C96.1779 106.492 95.5119 106.805 95.4997 106.811C95.4896 106.815 94.8577 107.057 94.8475 107.062Z" fill="#3E7DC7"/>
<path d="M95.9442 106.647C95.9442 106.647 106.965 96.8581 108.796 99.9576C110.627 103.057 96.357 107.602 96.357 107.602L95.9442 106.647Z" fill="#374475"/>
<path d="M104.499 106.251L106.551 107.213C106.551 107.213 106.275 108.205 106.211 108.162C106.147 108.12 104.33 107.079 104.33 107.079L104.499 106.251Z" fill="#ECB99A"/>
<path d="M106.551 107.213C106.551 107.213 108.844 107.954 108.829 108.811C108.815 109.668 106.211 108.162 106.211 108.162C106.211 108.162 105.754 107.614 106.551 107.213Z" fill="#3E7DC7"/>
<path d="M107.105 107.443C107.105 107.443 106.846 106.632 106.498 106.632C106.15 106.632 105.763 106.868 105.763 106.868L107.105 107.443Z" fill="#3E7DC7"/>
<path d="M105.784 106.798C105.784 106.798 94.7893 96.9483 92.9583 100.048C91.1275 103.148 105.368 107.76 105.368 107.76L105.784 106.798Z" fill="#374475"/>
<path d="M101.898 94.7426H100.135C99.5493 94.7426 99.0739 94.2681 99.0739 93.6828V90.4444H102.96V93.6828C102.96 94.2681 102.485 94.7426 101.898 94.7426Z" fill="#ECB08B"/>
<path d="M100.515 90.3101C100.515 90.3101 101.143 90.9282 101.666 90.1943" stroke="#37424F" stroke-width="0.311" stroke-miterlimit="10"/>
<path d="M103.188 88.3688C103.188 88.3688 103.814 87.9684 103.998 88.5643C104.182 89.16 103.188 89.6367 103.188 89.6367V88.3688Z" fill="#ECB99A"/>
<path d="M98.8287 88.3688C98.8287 88.3688 98.203 87.9684 98.0187 88.5643C97.8341 89.16 98.8287 89.6367 98.8287 89.6367V88.3688Z" fill="#ECB99A"/>
<path d="M101.086 91.7853C99.8396 91.7853 98.8288 90.7762 98.8288 89.5316V85.2812H103.344V89.5316C103.344 90.7762 102.333 91.7853 101.086 91.7853Z" fill="#ECB99A"/>
<path d="M100.186 88.5477C100.186 88.6945 100.115 88.8134 100.027 88.8134C99.9388 88.8134 99.8674 88.6945 99.8674 88.5477C99.8674 88.4011 99.9388 88.2822 100.027 88.2822C100.115 88.2822 100.186 88.4011 100.186 88.5477Z" fill="#37424F"/>
<path d="M102.258 88.5477C102.258 88.6945 102.187 88.8134 102.099 88.8134C102.011 88.8134 101.94 88.6945 101.94 88.5477C101.94 88.4011 102.011 88.2822 102.099 88.2822C102.187 88.2822 102.258 88.4011 102.258 88.5477Z" fill="#37424F"/>
<path d="M101.069 90.8503C101.069 90.8503 101.9 91.1721 101.94 90.2904" stroke="#37424F" stroke-width="0.311" stroke-miterlimit="10"/>
<path d="M101.171 88.5477C101.171 88.5477 101.058 89.6574 100.762 90.0755C100.465 90.4937 101.327 90.0755 101.327 90.0755" stroke="#37424F" stroke-width="0.311" stroke-miterlimit="10"/>
<path d="M102.96 85.2811C102.96 85.2811 101.583 88.3224 98.8288 88.3687C98.8288 88.3687 97.703 86.4696 98.9163 84.7619C100.13 83.0542 102.32 83.9454 102.96 85.2811Z" fill="#374475"/>
<path d="M102.321 85.0926C102.321 85.0926 103.487 84.2566 104.021 85.0926C104.662 86.0956 103.372 88.2822 103.372 88.2822C103.372 88.2822 101.984 87.7704 102.321 85.0926Z" fill="#374475"/>
<path d="M100.027 91.5217C100.027 91.5217 101.371 92.2673 102.451 91.3242" stroke="#37424F" stroke-width="0.311" stroke-miterlimit="10"/>
<path d="M98.4119 88.6383C98.4119 88.6383 98.1618 88.8396 98.4119 88.9728" stroke="#37424F" stroke-width="0.311" stroke-miterlimit="10" stroke-linecap="round" stroke-linejoin="round"/>
<path d="M103.549 88.6383C103.549 88.6383 103.799 88.8396 103.549 88.9728" stroke="#37424F" stroke-width="0.311" stroke-miterlimit="10" stroke-linecap="round" stroke-linejoin="round"/>
<path d="M106.416 91.5022L100.589 95.4223V104.568L106.579 100.855L106.416 91.5022Z" fill="#DADAF2"/>
<path d="M94.9828 91.5022L100.81 95.4223V104.568L94.8198 100.855L94.9828 91.5022Z" fill="#D3D3F2"/>
<path d="M103.584 94.9589L101.504 96.3406" stroke="#AEAEF2" stroke-width="0.74" stroke-miterlimit="10" stroke-linecap="round" stroke-linejoin="round"/>
<path d="M103.604 95.9482L101.613 97.2322" stroke="#AEAEF2" stroke-width="0.74" stroke-miterlimit="10" stroke-linecap="round" stroke-linejoin="round"/>
<path d="M106.092 95.3039L101.634 98.2122" stroke="#AEAEF2" stroke-width="0.74" stroke-miterlimit="10" stroke-linecap="round" stroke-linejoin="round"/>
<path d="M106.215 96.1254L101.697 99.0926" stroke="#AEAEF2" stroke-width="0.74" stroke-miterlimit="10" stroke-linecap="round" stroke-linejoin="round"/>
<path d="M106.233 97.1242L101.613 100.193" stroke="#AEAEF2" stroke-width="0.74" stroke-miterlimit="10" stroke-linecap="round" stroke-linejoin="round"/>
<path d="M106.333 98.2121L101.713 101.281" stroke="#AEAEF2" stroke-width="0.74" stroke-miterlimit="10" stroke-linecap="round" stroke-linejoin="round"/>
<path d="M106.333 99.3193L101.713 102.388" stroke="#AEAEF2" stroke-width="0.74" stroke-miterlimit="10" stroke-linecap="round" stroke-linejoin="round"/>
<path d="M104.06 94.3526L106.006 93.0973L106.037 94.8573L104.099 96.1063L104.06 94.3526Z" fill="#AEAEF2"/>
<path d="M98.0099 95.0993L100.09 96.4811" stroke="#AEAEF2" stroke-width="0.74" stroke-miterlimit="10" stroke-linecap="round" stroke-linejoin="round"/>
<path d="M97.9898 96.0885L99.981 97.3725" stroke="#AEAEF2" stroke-width="0.74" stroke-miterlimit="10" stroke-linecap="round" stroke-linejoin="round"/>
<path d="M95.5017 95.4441L99.9605 98.3524" stroke="#AEAEF2" stroke-width="0.74" stroke-miterlimit="10" stroke-linecap="round" stroke-linejoin="round"/>
<path d="M95.3794 96.2657L99.8973 99.2328" stroke="#AEAEF2" stroke-width="0.74" stroke-miterlimit="10" stroke-linecap="round" stroke-linejoin="round"/>
<path d="M95.3613 97.2645L99.981 100.333" stroke="#AEAEF2" stroke-width="0.74" stroke-miterlimit="10" stroke-linecap="round" stroke-linejoin="round"/>
<path d="M95.261 98.3525L99.8807 101.421" stroke="#AEAEF2" stroke-width="0.74" stroke-miterlimit="10" stroke-linecap="round" stroke-linejoin="round"/>
<path d="M95.261 99.4596L99.8807 102.528" stroke="#AEAEF2" stroke-width="0.74" stroke-miterlimit="10" stroke-linecap="round" stroke-linejoin="round"/>
<path d="M97.5343 94.493L95.5881 93.2377L95.5573 94.9977L97.4945 96.2466L97.5343 94.493Z" fill="#AEAEF2"/>
<path d="M113.221 74.0314L116.521 65.4231" stroke="#374475" stroke-width="0.895" stroke-miterlimit="10"/>
<path d="M114.869 75.043L118.457 71.805" stroke="#374475" stroke-width="0.895" stroke-miterlimit="10"/>
<path d="M116.264 77.3201L122 76.077" stroke="#374475" stroke-width="0.895" stroke-miterlimit="10"/>
<path d="M15.5009 42.0316L16.4196 32.7044" stroke="#374475" stroke-width="0.895" stroke-miterlimit="10"/>
<path d="M11.3801 43.3857C11.3364 42.9512 5.6015 36.7557 5.6015 36.7557" stroke="#374475" stroke-width="0.895" stroke-miterlimit="10"/>
<path d="M9.54615 47.6903L1.33362 48.941" stroke="#374475" stroke-width="0.895" stroke-miterlimit="10"/>
<path d="M27.9171 92.0048C27.9171 92.0048 21.0783 90.6299 21.2765 96.3687C21.4748 102.107 29.3086 102.701 29.3086 102.701" stroke="#FFE8D2" stroke-width="9.233" stroke-miterlimit="10" stroke-linecap="round" stroke-linejoin="round"/>
<path d="M34.7012 113.684H46.7041C50.3416 113.684 53.2902 110.74 53.2902 107.109V88.552H28.1152V107.109C28.1152 110.74 31.0639 113.684 34.7012 113.684Z" fill="#FFE8D2"/>
<path d="M28.1154 88.552C28.1154 91.5029 33.7509 93.895 40.7028 93.895C47.6546 93.895 53.2902 91.5029 53.2902 88.552C53.2902 85.6011 47.6546 83.209 40.7028 83.209C33.7509 83.209 28.1154 85.6011 28.1154 88.552Z" fill="#FFF1E3"/>
<path d="M53.2902 88.552V89.8936C52.6381 89.3954 51.8246 88.9445 50.8728 88.552H53.2902Z" fill="#FFE8D2"/>
<path d="M28.1154 88.552H30.5327C29.5809 88.9445 28.7673 89.3954 28.1154 89.8936V88.552Z" fill="#FFE8D2"/>
<path d="M40.7028 88.2654C39.135 88.2654 37.6668 88.3696 36.3199 88.5519H30.5327C33.0964 87.4948 36.6526 86.8598 40.7028 86.8598C44.7528 86.8598 48.309 87.4948 50.8728 88.5519H45.0855C43.7386 88.3696 42.2703 88.2654 40.7028 88.2654Z" fill="#2E4EBE"/>
<path d="M40.7028 97.5458C47.1428 97.5458 51.938 95.8108 53.2902 93.9519V95.9175C50.8815 97.7581 46.2562 98.9514 40.7028 98.9514C35.1494 98.9514 30.524 97.7581 28.1154 95.9175V93.9519C29.4676 95.8108 34.2628 97.5458 40.7028 97.5458Z" fill="#E68068"/>
<path d="M40.7028 101.504C47.1428 101.504 51.938 99.7684 53.2902 97.9097V99.8753C50.8815 101.716 46.2562 102.909 40.7028 102.909C35.1494 102.909 30.524 101.716 28.1154 99.8753V97.9097C29.4676 99.7684 34.2628 101.504 40.7028 101.504Z" fill="#E68068"/>
<path d="M28.9082 88.552C28.9082 91.3171 34.1888 93.5585 40.7027 93.5585C47.2167 93.5585 52.4971 91.3171 52.4971 88.552C52.4971 85.7872 47.2167 83.5455 40.7027 83.5455C34.1888 83.5455 28.9082 85.7872 28.9082 88.552Z" fill="#FFCCBF"/>
<path d="M40.7028 85.3266C34.9052 85.3266 30.0881 87.1027 29.0979 89.4425C28.9756 89.1534 28.9082 88.8562 28.9082 88.552C28.9082 85.7871 34.1888 83.5456 40.7028 83.5456C47.2168 83.5456 52.4972 85.7871 52.4972 88.552C52.4972 88.8562 52.4298 89.1534 52.3075 89.4425C51.3173 87.1027 46.5004 85.3266 40.7028 85.3266Z" fill="#FFDFBB"/>
<path d="M40.724 89.6091C40.724 89.6091 50.9018 75.5317 42.7039 72.8385C34.5063 70.1453 35.0351 77.7901 36.1038 79.3942C37.1727 80.9986 42.0282 80.1513 40.7026 76.5945" stroke="white" stroke-width="0.605" stroke-miterlimit="10" stroke-linecap="round" stroke-linejoin="round"/>
<path d="M41.1426 89.1012C41.1426 89.1012 43.2614 81.4404 39.3137 81.5896C35.3658 81.7389 36.8137 84.9351 37.5287 85.4533C38.2434 85.9716 40.1916 84.8352 39.0549 83.5199" stroke="white" stroke-width="0.605" stroke-miterlimit="10" stroke-linecap="round" stroke-linejoin="round"/>
<path d="M84.0028 74.0421C84.0028 74.0421 81.0114 63.0481 84.3112 62.6123C87.6112 62.1766 84.0028 74.0421 84.0028 74.0421Z" stroke="#4DBEAF" stroke-width="1.008" stroke-miterlimit="10"/>
<path d="M83.995 74.9815C83.995 74.9815 83.892 67.1113 84.469 64.066" stroke="white" stroke-width="0.301" stroke-miterlimit="10"/>
<path d="M83.1676 76.2161C83.1676 76.2161 76.504 66.9676 79.4413 65.4042C82.3787 63.841 83.1676 76.2161 83.1676 76.2161Z" stroke="#4DBEAF" stroke-width="1.008" stroke-miterlimit="10"/>
<path d="M83.4901 77.0987C83.4901 77.0987 80.6292 69.7644 80.1 66.7103" stroke="white" stroke-width="0.301" stroke-miterlimit="10"/>
<path d="M84.3105 76.2161C84.3105 76.2161 90.9738 66.9676 88.0367 65.4042C85.0994 63.841 84.3105 76.2161 84.3105 76.2161Z" stroke="#4DBEAF" stroke-width="1.008" stroke-miterlimit="10"/>
<path d="M83.988 77.0987C83.988 77.0987 86.8489 69.7644 87.3781 66.7103" stroke="white" stroke-width="0.301" stroke-miterlimit="10"/>
<path d="M80.3102 74.9076L81.3624 78.6343C81.6845 79.7746 82.7265 80.5622 83.9132 80.5622C85.1553 80.5622 86.2307 79.701 86.5003 78.4905L87.2978 74.9076H80.3102Z" fill="#344173"/>
<path d="M87.2977 74.9075H80.31V73.4755H87.2977V74.9075Z" fill="#344173"/>
<path d="M87.2977 75.2789H80.31V74.5026H87.2977V75.2789Z" fill="#FFCF93"/>
<path d="M85.6573 75.7432L84.6033 80.2904" stroke="white" stroke-width="0.127" stroke-miterlimit="10"/>
<path d="M86.2639 75.9931L85.8588 77.7447" stroke="white" stroke-width="0.127" stroke-miterlimit="10"/>
<path d="M85.5353 78.0167L85.1304 79.7682" stroke="white" stroke-width="0.127" stroke-miterlimit="10"/>
<path d="M23.1123 94.1962C23.5762 94.269 25.5041 94.4704 26.5715 93.0134C26.6633 92.888 26.6487 92.7132 26.5401 92.6022L26.4258 92.4858C26.302 92.3589 26.3038 92.1562 26.4315 92.0331C27.0834 91.4051 28.7904 89.5857 27.598 88.7873C26.4425 88.0138 25.0262 89.6924 24.4938 90.4134C24.3768 90.5718 24.1456 90.5867 24.0079 90.446C23.8696 90.3046 23.6379 90.3212 23.5207 90.4803C22.9988 91.1874 21.8579 93.0013 22.9381 94.1087C22.9846 94.1562 23.0464 94.1859 23.1123 94.1962Z" fill="#4DBEAF"/>
<path d="M20.3233 90.6546C19.672 90.1696 17.0895 88.031 17.6047 84.9492C17.649 84.684 17.8833 84.4906 18.1526 84.4906H18.4352C18.742 84.4906 18.9914 84.2428 18.9894 83.9363C18.9793 82.3707 19.1701 78.0604 21.6025 78.5678C23.9596 79.0597 23.5919 82.8406 23.342 84.3708C23.2871 84.7068 23.5483 85.0105 23.8894 85.0105C24.2321 85.0105 24.4917 85.3167 24.4365 85.6542C24.1911 87.1547 23.3226 90.7586 20.6425 90.7638C20.5272 90.7641 20.4156 90.7234 20.3233 90.6546Z" fill="#4DBEAF"/>
<path d="M17.6604 94.2647C17.0327 94.3632 14.4238 94.6359 12.9795 92.664C12.8552 92.4944 12.8748 92.258 13.022 92.1076L13.1763 91.95C13.3441 91.7788 13.3415 91.5041 13.1689 91.3377C12.2865 90.4876 9.97681 88.0257 11.5903 86.9455C13.1539 85.8987 15.0704 88.1702 15.7909 89.1459C15.949 89.3601 16.2619 89.3803 16.4483 89.1899C16.6356 88.9987 16.9488 89.021 17.1077 89.2363C17.814 90.1933 19.3576 92.6476 17.8959 94.1461C17.833 94.2107 17.7495 94.2507 17.6604 94.2647Z" fill="#4DBEAF"/>
<path d="M21.4671 80.939C21.4671 80.939 19.7429 86.9752 20.9906 101.903" stroke="#1F2641" stroke-width="0.305" stroke-miterlimit="10"/>
<path d="M12.3361 87.4813C12.3361 87.4813 17.1854 95.2312 20.6614 96.8978" stroke="#1F2641" stroke-width="0.305" stroke-miterlimit="10"/>
<path d="M26.9169 89.4127C26.9169 89.4127 23.2114 95.2034 20.6428 96.4349" stroke="#1F2641" stroke-width="0.305" stroke-miterlimit="10"/>
<path d="M15.1902 100.828L16.8011 106.533C17.294 108.279 18.8892 109.484 20.7059 109.484C22.6077 109.484 24.2541 108.166 24.6665 106.313L25.8875 100.828H15.1902Z" fill="#E68068"/>
<path d="M25.8873 100.828H15.1901V98.6354H25.8873V100.828Z" fill="#E68068"/>
<path d="M25.8873 101.396H15.1901V100.208H25.8873V101.396Z" fill="#FFCF93"/>
<path d="M23.3765 102.107L21.7626 109.068" stroke="white" stroke-width="0.195" stroke-miterlimit="10"/>
<path d="M24.3065 102.49L23.6848 105.171" stroke="white" stroke-width="0.195" stroke-miterlimit="10"/>
<path d="M23.1911 105.588L22.5695 108.269" stroke="white" stroke-width="0.195" stroke-miterlimit="10"/>
<path fill-rule="evenodd" clip-rule="evenodd" d="M64.6862 76.5274V69.1062L58.9202 68.2886H50.1241L44.4117 69.1062V76.5274L50.1163 77.4619H58.9879L64.6862 76.5274Z" fill="#BCC7CE"/>
<path d="M49.8468 67.686L54.8384 67.2842L59.9097 67.619C59.9097 64.5126 57.6573 62.0615 54.8784 62.0615C52.0996 62.0615 49.8468 64.5796 49.8468 67.686Z" fill="url(#paint0_linear)"/>
<path d="M56.0405 67.3636L59.9097 67.619C59.9097 64.5126 57.6573 62.0615 54.8784 62.0615C54.599 62.0615 56.0405 67.3636 56.0405 67.3636Z" fill="url(#paint1_linear)"/>
<path fill-rule="evenodd" clip-rule="evenodd" d="M60.329 68.446V67.6861L58.9514 67.2843H50.5658L49.4875 67.6861V68.446L50.5658 68.2886H58.9514L60.329 68.446Z" fill="#2B2525"/>
<path fill-rule="evenodd" clip-rule="evenodd" d="M64.7017 73.6201L58.9514 73.1777H50.1464L44.3962 73.8486V69.0921L50.1464 68.2886H58.9514L64.7017 69.0921V73.6201Z" fill="#0B83AD"/>
<path fill-rule="evenodd" clip-rule="evenodd" d="M45.5343 76.6486V72.0696C45.5343 72.0696 45.6416 71.3216 46.1048 71.3216C46.5681 71.3216 46.5681 72.012 46.5681 72.012V76.8191L45.5343 76.6486Z" fill="#CEDBDD"/>
<path fill-rule="evenodd" clip-rule="evenodd" d="M47.4225 76.9742V71.868C47.4225 71.868 47.5422 71.034 48.0587 71.034C48.5753 71.034 48.5753 71.8039 48.5753 71.8039V77.1642L47.4225 76.9742Z" fill="#CEDBDD"/>
<path fill-rule="evenodd" clip-rule="evenodd" d="M63.6287 76.7128V72.1303C63.6287 72.1303 63.5214 71.3819 63.0577 71.3819C62.5943 71.3819 62.5943 72.0728 62.5943 72.0728V76.8834L63.6287 76.7128Z" fill="#CEDBDD"/>
<path fill-rule="evenodd" clip-rule="evenodd" d="M61.826 77.0274V71.9886C61.826 71.9886 61.708 71.1658 61.1982 71.1658C60.6885 71.1658 60.6885 71.9255 60.6885 71.9255V77.215L61.826 77.0274Z" fill="#CEDBDD"/>
<g opacity="0.149994">
<g opacity="0.149994">
<path opacity="0.149994" fill-rule="evenodd" clip-rule="evenodd" d="M58.9515 68.2886V77.4619L64.7017 76.5245V69.0921L58.9515 68.2886Z" fill="black"/>
</g>
</g>
<g opacity="0.199997">
<g opacity="0.199997">
<path opacity="0.199997" fill-rule="evenodd" clip-rule="evenodd" d="M50.1479 68.2885V77.4618L44.3979 76.5244V69.0921L50.1479 68.2885Z" fill="white"/>
</g>
</g>
<path fill-rule="evenodd" clip-rule="evenodd" d="M57.6339 77.4619V72.0644C57.6339 72.0644 57.6339 71.3017 57.214 71.3017C56.7939 71.3017 56.7939 71.947 56.7939 71.947V77.4619H57.6339Z" fill="#CEDBDD"/>
<path fill-rule="evenodd" clip-rule="evenodd" d="M55.7171 77.4619V72.6153C55.7171 72.6153 55.7171 71.1008 54.5789 71.1008C53.4408 71.1008 53.4408 72.4942 53.4408 72.4942V77.4619H55.7171Z" fill="black"/>
<path fill-rule="evenodd" clip-rule="evenodd" d="M52.0643 77.4619V72.0644C52.0643 72.0644 52.0643 71.3017 51.6444 71.3017C51.2246 71.3017 51.2246 71.947 51.2246 71.947V77.4619H52.0643Z" fill="#CEDBDD"/>
<path fill-rule="evenodd" clip-rule="evenodd" d="M54.7586 61.9276C54.7586 62.0016 54.8123 62.0616 54.8782 62.0616C54.9442 62.0616 54.9976 62.0016 54.9976 61.9276C54.9976 61.8536 54.9442 61.7936 54.8782 61.7936C54.8123 61.7936 54.7586 61.8536 54.7586 61.9276Z" fill="#FFBC00"/>
<path fill-rule="evenodd" clip-rule="evenodd" d="M54.7586 61.392C54.7586 61.466 54.8123 61.526 54.8782 61.526C54.9442 61.526 54.9976 61.466 54.9976 61.392C54.9976 61.318 54.9442 61.258 54.8782 61.258C54.8123 61.258 54.7586 61.318 54.7586 61.392Z" fill="#FFBC00"/>
<path fill-rule="evenodd" clip-rule="evenodd" d="M54.6988 61.6597C54.6988 61.7707 54.7789 61.8605 54.8781 61.8605C54.9769 61.8605 55.0571 61.7707 55.0571 61.6597C55.0571 61.5488 54.9769 61.4589 54.8781 61.4589C54.7789 61.4589 54.6988 61.5488 54.6988 61.6597Z" fill="#EDA900"/>
<path d="M54.8785 60.4546C55.0757 60.453 55.2841 60.6041 55.3528 60.8563C55.384 60.98 55.3734 61.1311 55.2905 61.2596C55.2123 61.388 55.0514 61.4883 54.8785 61.4863C54.7054 61.4881 54.545 61.387 54.4672 61.2589C54.3848 61.1304 54.3743 60.9796 54.4053 60.8563C54.4734 60.6048 54.681 60.453 54.8785 60.4546ZM54.8785 60.4546C54.7774 60.4538 54.6836 60.5168 54.6413 60.6006C54.5962 60.6845 54.6018 60.7823 54.6329 60.8563C54.6642 60.932 54.7211 60.9812 54.7679 61.0052C54.8173 61.0299 54.8503 61.0296 54.8785 61.0299C54.9067 61.0294 54.9392 61.029 54.9881 61.0045C55.0345 60.9806 55.0914 60.9317 55.1229 60.8563C55.1541 60.7826 55.1602 60.6848 55.1153 60.6009C55.0734 60.517 54.9796 60.4538 54.8785 60.4546Z" fill="#FFBC00"/>
<path d="M64.6943 70.0706C64.4462 70.1198 64.1996 70.1542 63.9529 70.1906L63.2145 70.2795C62.7234 70.3274 62.2331 70.3684 61.7446 70.3921C61.5002 70.4063 61.256 70.4177 61.0123 70.4238C60.7685 70.4325 60.5246 70.4404 60.2815 70.4415C59.7946 70.4515 59.3093 70.444 58.8241 70.4395L58.9349 70.4454C58.5673 70.4719 58.1994 70.504 57.8317 70.5261C57.4641 70.5444 57.0964 70.57 56.7287 70.5821C56.3609 70.5926 55.9932 70.6095 55.6255 70.6149L54.5223 70.6257L53.4191 70.6136L52.3159 70.5789L51.2128 70.5211L50.1096 70.4375L50.2679 70.4255C49.7874 70.4533 49.3069 70.4806 48.8239 70.4937C48.3414 70.5089 47.8576 70.5162 47.3719 70.5113C46.8867 70.5095 46.3994 70.4929 45.9105 70.4672L45.1751 70.4142C44.9288 70.3891 44.683 70.3675 44.4349 70.3303L44.4141 70.1948L47.2513 69.7252L50.0918 69.2776L50.1002 69.2762H50.1096L54.5223 69.2563L58.9349 69.2758L58.9416 69.2759L58.9473 69.2765L61.8293 69.5942L63.2692 69.7629L64.7088 69.9343L64.6943 70.0706Z" fill="#004D7C"/>
<defs>
<linearGradient id="paint0_linear" x1="59.9099" y1="64.8737" x2="49.8469" y2="64.8737" gradientUnits="userSpaceOnUse">
<stop stop-color="#FDE04C"/>
<stop offset="0.0997922" stop-color="#FDE04C"/>
<stop offset="1" stop-color="#E76574"/>
</linearGradient>
<linearGradient id="paint1_linear" x1="59.9098" y1="64.8402" x2="54.8425" y2="64.8402" gradientUnits="userSpaceOnUse">
<stop stop-color="#FDE04C"/>
<stop offset="0.0997922" stop-color="#FDE04C"/>
<stop offset="1" stop-color="#E76574"/>
</linearGradient>
</defs>
</svg>
