<svg width="148" height="148" viewBox="0 0 148 148" fill="none" xmlns="http://www.w3.org/2000/svg">
<path d="M30.3625 116.362C28.0442 116.12 25.7638 115.68 23.553 114.9C14.4261 111.681 8.63159 102.998 7.38069 93.64C6.42135 86.4632 9.06019 80.5657 10.0625 73.6544C11.0114 67.1113 9.05368 61.4299 8.16983 55.0822C7.38335 49.433 8.16242 43.1421 9.93932 37.7552C12.3653 30.4005 17.3011 23.7645 24.0476 19.9615C34.5597 14.0355 47.9748 15.6834 58.8407 20.9329C63.392 23.1316 67.7565 25.9478 72.7187 26.9104C79.9559 28.314 87.2588 25.5908 94.4871 24.1416C104.326 22.169 114.959 22.6645 123.828 27.3603C133.884 32.6841 140.579 43.6646 138.987 55.1772C138.266 60.3939 135.945 65.4374 136.321 70.6908C136.703 76.0185 139.522 80.6379 140.849 85.7182C142.968 93.8392 142.023 106.157 135.801 112.394C133.002 115.2 129.166 116.689 125.386 117.885C115.005 121.17 104.11 122.816 93.222 122.765C76.6717 122.686 60.8553 116.589 44.1694 116.557C39.5811 116.548 34.8996 116.835 30.3625 116.362Z" fill="#EFEFFF"/>
<path d="M137.841 118.852C137.841 124.323 110.44 128.759 76.639 128.759C42.8381 128.759 15.4371 124.323 15.4371 118.852C15.4371 113.381 42.8381 108.945 76.639 108.945C110.44 108.945 137.841 113.381 137.841 118.852Z" fill="#E1DAFF"/>
<path d="M105.877 79.6897C100.967 79.6897 96.9872 75.7096 96.9872 70.7999C96.9872 65.8901 100.967 61.9101 105.877 61.9101C110.787 61.9101 114.766 65.8901 114.766 70.7999C114.766 75.7096 110.787 79.6897 105.877 79.6897ZM119.133 67.3755C118.801 66.0855 118.284 64.8695 117.615 63.756L119.575 60.5284L118.741 59.6945L116.918 57.8712L116.083 57.0377L112.834 59.0105C111.729 58.3572 110.525 57.854 109.25 57.5311L108.345 53.8323H103.408L102.504 57.5311C101.228 57.854 100.024 58.3572 98.9192 59.0105L95.6697 57.0377L94.8359 57.8712L93.0122 59.6945L92.1787 60.5284L94.1382 63.756C93.4689 64.8695 92.9527 66.0855 92.6206 67.3755L88.973 68.267V73.204L92.5875 74.0876C92.9113 75.403 93.4257 76.6435 94.1 77.7784L92.1787 80.9426L93.0122 81.7765L94.8359 83.5998L95.6697 84.4333L98.812 82.5256C99.9552 83.2159 101.208 83.7431 102.537 84.077L103.408 87.6387H108.345L109.216 84.077C110.545 83.7431 111.798 83.2159 112.941 82.5256L116.083 84.4333L116.918 83.5998L118.741 81.7765L119.575 80.9426L117.653 77.7784C118.328 76.6435 118.842 75.403 119.166 74.0876L122.78 73.204V68.267L119.133 67.3755Z" fill="#8391F5"/>
<path d="M105.877 79.6896C100.967 79.6896 96.9872 75.7096 96.9872 70.7999C96.9872 65.8901 100.967 61.9101 105.877 61.9101C110.787 61.9101 114.767 65.8901 114.767 70.7999C114.767 75.7096 110.787 79.6896 105.877 79.6896ZM105.877 59.8002C99.8371 59.8002 94.941 64.6961 94.941 70.7353C94.941 76.7749 99.8371 81.6708 105.877 81.6708C111.916 81.6708 116.812 76.7749 116.812 70.7353C116.812 64.6961 111.916 59.8002 105.877 59.8002Z" fill="#514D96"/>
<path d="M34.374 106.277C34.374 106.842 34.2443 107.415 33.9693 107.95L29.6282 116.413C28.7491 118.126 26.6895 118.861 24.9393 118.138C24.8463 118.1 24.754 118.058 24.6631 118.011C22.8581 117.085 22.1391 114.85 23.065 113.046L27.4061 104.583C28.3178 102.805 30.4978 102.081 32.2878 102.943C32.3156 102.957 32.344 102.97 32.3712 102.985C33.6411 103.636 34.374 104.936 34.374 106.277Z" fill="#FBC03F"/>
<path d="M57.0241 118.011C56.9418 118.053 56.8589 118.092 56.7754 118.127C55.0193 118.869 52.9431 118.135 52.0592 116.413L47.7178 107.95C47.4431 107.414 47.3132 106.842 47.3132 106.277C47.3132 104.935 48.0458 103.636 49.3159 102.985C49.352 102.966 49.3887 102.948 49.4254 102.932C51.2103 102.088 53.3735 102.814 54.2807 104.583L58.6222 113.046C59.5481 114.85 58.8291 117.085 57.0241 118.011Z" fill="#FBC03F"/>
<path d="M34.3739 106.277C34.3739 106.842 34.2443 107.415 33.9693 107.95L29.6282 116.413C28.749 118.126 26.6895 118.861 24.9392 118.138L32.2877 102.943C32.3155 102.956 32.344 102.97 32.3712 102.985C33.641 103.636 34.3739 104.936 34.3739 106.277Z" fill="#F3A41C"/>
<path d="M56.7753 118.127C55.0191 118.869 52.943 118.135 52.0591 116.413L47.7177 107.95C47.443 107.415 47.3134 106.842 47.3134 106.277C47.3134 104.936 48.046 103.636 49.3158 102.985C49.3519 102.966 49.3886 102.948 49.4253 102.931L56.7753 118.127Z" fill="#F3A41C"/>
<path d="M18.4716 53.864C18.4716 55.0433 17.5155 55.9994 16.3362 55.9994C15.1569 55.9994 14.2009 55.0433 14.2009 53.864C14.2009 52.6848 15.1569 51.7287 16.3362 51.7287C17.5155 51.7287 18.4716 52.6848 18.4716 53.864Z" fill="white"/>
<path d="M67.5347 54.3008C67.5347 55.4801 66.5786 56.4362 65.3993 56.4362C64.2201 56.4362 63.264 55.4801 63.264 54.3008C63.264 53.1215 64.2201 52.1655 65.3993 52.1655C66.5786 52.1655 67.5347 53.1215 67.5347 54.3008Z" fill="white"/>
<path d="M17.209 63.7156C17.0394 63.7156 16.868 63.6689 16.7143 63.5712C16.2849 63.2974 16.1585 62.7276 16.432 62.2981L26.0188 47.2497C26.1103 47.1062 26.2396 46.9907 26.3927 46.9162C26.5507 46.8392 30.3248 45.0206 35.8241 44.0959C39.0594 43.5521 42.2213 43.434 45.2228 43.7457C48.9917 44.137 52.5138 45.21 55.6908 46.9348C55.8296 47.01 55.9466 47.1195 56.0306 47.2527L65.259 61.8645C65.5308 62.2948 65.4023 62.8643 64.9719 63.1364C64.5412 63.4081 63.9717 63.2796 63.6997 62.8489L54.6009 48.4426C51.6933 46.9002 48.4752 45.9373 45.0321 45.58C42.1965 45.2855 39.2012 45.3983 36.1299 45.9145C31.6346 46.6705 28.3066 48.0738 27.429 48.4684L17.9874 63.2888C17.8116 63.565 17.5136 63.7156 17.209 63.7156Z" fill="#FBC03F"/>
<path d="M40.7465 66.5302C39.6788 66.5302 38.8053 65.6567 38.8053 64.589V54.8832C38.8053 53.8155 39.6788 52.942 40.7465 52.942C41.8141 52.942 42.6876 53.8155 42.6876 54.8832V64.589C42.6876 65.6567 41.8141 66.5302 40.7465 66.5302Z" fill="#FBC03F"/>
<path d="M27.8717 65.5345L25.4422 67.6266L16.082 56.7581L18.5116 54.666L27.8717 65.5345Z" fill="#FBC03F"/>
<path d="M28.4036 56.302L19.9655 63.5176L16.3635 66.5978C15.7043 67.1617 14.7121 67.0838 14.1482 66.4246L13.257 65.3818C10.965 62.7021 11.2824 58.6342 13.9626 56.3423L16.3662 54.2862L18.6451 52.338C21.3257 50.046 25.3936 50.3637 27.6852 53.0439L28.5765 54.0859C29.1407 54.7456 29.0634 55.7381 28.4036 56.302Z" fill="#C9B8FE"/>
<path d="M53.0542 65.5345L55.4838 67.6266L64.8439 56.7581L62.4143 54.666L53.0542 65.5345Z" fill="#FBC03F"/>
<path d="M67.6695 65.3818L66.7783 66.4246C66.2135 67.0838 65.2219 67.1617 64.5621 66.5978L56.711 59.8839L52.5229 56.302C51.8628 55.7381 51.7855 54.7456 52.3497 54.0859L53.241 53.0439C55.5329 50.3637 59.6005 50.0461 62.2802 52.338L64.3673 54.1229L66.9636 56.3423C69.6432 58.6342 69.9612 62.7021 67.6695 65.3818Z" fill="#C9B8FE"/>
<path d="M46.4731 52.8038V54.0505C46.4731 55.0421 45.6618 55.8535 44.6702 55.8535H36.8229C35.8313 55.8535 35.02 55.0421 35.02 54.0505V52.8038C35.02 51.8122 35.8313 51.0008 36.8229 51.0008H44.6702C45.6618 51.0008 46.4731 51.8122 46.4731 52.8038Z" fill="#5F5EA9"/>
<path d="M68.214 85.5533C68.214 95.0155 63.4632 103.368 56.2165 108.356C54.2001 109.744 51.9905 110.871 49.6361 111.689C49.5958 111.704 49.5544 111.718 49.5135 111.731C48.2768 112.155 47.0002 112.493 45.6913 112.739C44.0263 113.052 42.3086 113.215 40.5524 113.215C37.5548 113.215 34.6688 112.739 31.9654 111.857C29.5933 111.083 27.3629 109.997 25.3214 108.647C17.8317 103.699 12.8906 95.2031 12.8906 85.5533C12.8906 77.0853 16.6959 69.5053 22.6908 64.4313C23.5078 63.7398 24.3653 63.0951 25.2592 62.5008C29.1851 59.8912 33.8163 58.2576 38.8051 57.9468C39.3829 57.9101 39.9654 57.8921 40.5524 57.8921C41.2708 57.8921 41.9833 57.9196 42.6878 57.9735C47.4812 58.3393 51.9327 59.9271 55.7319 62.4259C56.6297 63.0158 57.4899 63.6567 58.3104 64.3449C59.5207 65.3581 60.6426 66.4743 61.6632 67.6778C62.418 68.5685 63.1177 69.508 63.7559 70.4904C66.5762 74.8244 68.214 79.9976 68.214 85.5533Z" fill="#5F5EA9"/>
<path d="M62.6817 85.5535C62.6817 97.7754 52.774 107.683 40.5525 107.683C28.3306 107.683 18.4232 97.7754 18.4232 85.5535C18.4232 73.332 28.3306 63.4243 40.5525 63.4243C52.774 63.4243 62.6817 73.332 62.6817 85.5535Z" fill="white"/>
<path d="M62.6817 85.5535C62.6817 97.7754 52.774 107.683 40.5525 107.683C28.3306 107.683 18.4232 97.7754 18.4232 85.5535C18.4232 73.332 28.3306 63.4243 40.5525 63.4243C52.774 63.4243 62.6817 73.332 62.6817 85.5535Z" fill="#F1F1F1"/>
<path d="M60.8374 85.5533C60.8374 92.2515 57.5917 98.1904 52.587 101.885C49.2206 104.37 45.0582 105.839 40.5525 105.839C29.3492 105.839 20.267 96.7572 20.267 85.5533C20.267 76.9553 25.6163 69.6068 33.1687 66.6545C35.4571 65.7597 37.9471 65.2687 40.5525 65.2687C51.7555 65.2687 60.8374 74.3505 60.8374 85.5533Z" fill="#C9B8FE"/>
<path d="M19.9656 63.5177L16.3635 66.5976C15.7044 67.1615 14.7119 67.0836 14.1483 66.4244L13.2567 65.3816C10.9651 62.7019 11.2824 58.634 13.9627 56.3424L16.3662 54.2864C16.1999 55.6631 16.2993 57.0735 16.6788 58.4099C17.2409 60.3857 18.4086 62.1792 19.9656 63.5177Z" fill="#AE98FE"/>
<path d="M64.3674 54.1228C62.9505 54.3673 61.5809 54.8951 60.3788 55.6869C58.8074 56.7211 57.5354 58.1943 56.7111 59.8839L52.5227 56.302C51.8629 55.7381 51.7856 54.7456 52.3495 54.0858L53.2411 53.0439C55.5327 50.3636 59.6006 50.0463 62.2803 52.3379L64.3674 54.1228Z" fill="#AE98FE"/>
<path d="M52.5869 101.885C49.2205 104.37 45.0581 105.839 40.5524 105.839C29.3491 105.839 20.2669 96.7571 20.2669 85.5532C20.2669 76.9553 25.6162 69.6071 33.1687 66.6548C33.0245 69.9789 32.6279 73.3823 32.9937 76.5551C33.634 82.1098 35.3366 87.659 38.7302 92.1028C42.2349 96.692 47.1763 99.71 52.5869 101.885Z" fill="#AE98FE"/>
<path d="M40.9429 79.2633C40.7961 79.308 40.641 79.3319 40.4796 79.3319C40.318 79.3319 40.1629 79.308 40.0164 79.2633C39.3691 79.064 38.8963 78.4602 38.8963 77.7489C38.8963 77.0376 39.3691 76.4338 40.0164 76.2349C40.1629 76.1899 40.318 76.1659 40.4796 76.1659C40.641 76.1659 40.7961 76.1899 40.9429 76.2349C41.5899 76.4338 42.0627 77.0376 42.0627 77.7489C42.0627 78.4602 41.5899 79.064 40.9429 79.2633ZM40.9429 75.7557V74.0036H40.0164V75.7557C39.1104 75.9658 38.4331 76.7798 38.4331 77.7489C38.4331 78.718 39.1104 79.532 40.0164 79.7419V84.5833H40.9429V79.7419C41.8486 79.532 42.5259 78.718 42.5259 77.7489C42.5259 76.7798 41.8486 75.9658 40.9429 75.7557Z" fill="white"/>
<path d="M33.058 98.2897L42.3178 84.7157L41.502 84.1592L32.2422 97.7332L33.058 98.2897Z" fill="white"/>
<path d="M43.0759 85.5535C43.0759 86.9474 41.9461 88.0769 40.5525 88.0769C39.1586 88.0769 38.0288 86.9474 38.0288 85.5535C38.0288 84.1599 39.1586 83.0301 40.5525 83.0301C41.9461 83.0301 43.0759 84.1599 43.0759 85.5535Z" fill="#514D96"/>
<path d="M24.5377 85.4564C24.5377 86.0999 24.0162 86.6215 23.373 86.6215C22.7297 86.6215 22.2082 86.0999 22.2082 85.4564C22.2082 84.8132 22.7297 84.2917 23.373 84.2917C24.0162 84.2917 24.5377 84.8132 24.5377 85.4564Z" fill="#514D96"/>
<path d="M58.9934 85.4564C58.9934 86.0999 58.4722 86.6215 57.8287 86.6215C57.1854 86.6215 56.6639 86.0999 56.6639 85.4564C56.6639 84.8132 57.1854 84.2917 57.8287 84.2917C58.4722 84.2917 58.9934 84.8132 58.9934 85.4564Z" fill="#514D96"/>
<path d="M40.6009 101.52C41.2441 101.52 41.7657 102.041 41.7657 102.685C41.7657 103.328 41.2441 103.849 40.6009 103.849C39.9577 103.849 39.4362 103.328 39.4362 102.685C39.4362 102.041 39.9577 101.52 40.6009 101.52Z" fill="#514D96"/>
<path d="M40.6009 67.064C41.2441 67.064 41.7657 67.5855 41.7657 68.2287C41.7657 68.8719 41.2441 69.3935 40.6009 69.3935C39.9577 69.3935 39.4362 68.8719 39.4362 68.2287C39.4362 67.5855 39.9577 67.064 40.6009 67.064Z" fill="#514D96"/>
<path d="M54.6192 93.2998C54.9333 92.7386 55.6428 92.5379 56.2043 92.852C56.7655 93.1661 56.9662 93.8756 56.6521 94.4371C56.3381 94.9983 55.6283 95.199 55.0668 94.8846C54.5055 94.5709 54.3048 93.8611 54.6192 93.2998Z" fill="#514D96"/>
<path d="M24.5498 76.4761C24.8639 75.9149 25.5734 75.7142 26.1349 76.0283C26.6962 76.3423 26.8968 77.0518 26.5828 77.6134C26.2687 78.1746 25.5589 78.3753 24.9977 78.0609C24.4362 77.7472 24.2358 77.0373 24.5498 76.4761Z" fill="#514D96"/>
<path d="M54.9636 78.2634C54.6756 77.6885 54.9082 76.9885 55.4834 76.7005C56.0585 76.4125 56.7582 76.6451 57.0462 77.2206C57.3342 77.7954 57.1016 78.4951 56.5265 78.7834C55.9513 79.0712 55.2516 78.8385 54.9636 78.2634Z" fill="#514D96"/>
<path d="M24.1554 93.6927C23.8674 93.1179 24.1001 92.4179 24.6752 92.1299C25.2503 91.8418 25.9501 92.0745 26.2384 92.6499C26.5264 93.2248 26.2934 93.9245 25.7183 94.2128C25.1432 94.5005 24.4434 94.2679 24.1554 93.6927Z" fill="#514D96"/>
<path d="M49.2865 71.9442C48.7454 71.5964 48.5889 70.8757 48.9364 70.3346C49.2845 69.7935 50.0049 69.6369 50.546 69.9847C51.0871 70.3325 51.2437 71.053 50.8959 71.5941C50.5481 72.1355 49.8276 72.292 49.2865 71.9442Z" fill="#514D96"/>
<path d="M30.6557 100.928C30.1146 100.581 29.958 99.8602 30.3058 99.3191C30.6536 98.7777 31.3741 98.6212 31.9152 98.969C32.4563 99.3171 32.6132 100.037 32.2651 100.578C31.9176 101.12 31.1968 101.276 30.6557 100.928Z" fill="#514D96"/>
<path d="M32.1315 71.8076C31.5848 72.1468 30.867 71.9787 30.5278 71.432C30.1886 70.8856 30.3567 70.1675 30.9034 69.8282C31.4498 69.489 32.1679 69.6572 32.5071 70.2039C32.8464 70.7503 32.6779 71.4684 32.1315 71.8076Z" fill="#514D96"/>
<path d="M50.2984 101.085C49.752 101.424 49.0339 101.256 48.6947 100.709C48.3558 100.163 48.5236 99.4448 49.0703 99.1055C49.6167 98.7663 50.3348 98.9345 50.6741 99.4812C51.0133 100.028 50.8451 100.746 50.2984 101.085Z" fill="#514D96"/>
<path d="M40.5713 51.0009V55.8535H36.8228C35.8312 55.8535 35.0201 55.0422 35.0201 54.0506V52.8038C35.0201 51.8122 35.8312 51.0009 36.8228 51.0009H40.5713Z" fill="#514D96"/>
<path d="M89.1226 47.9718C88.8947 46.4877 87.6841 45.3072 86.1469 45.1566C85.8693 42.7649 83.8369 40.9081 81.3704 40.9081C79.4407 40.9081 77.7769 42.0447 77.0109 43.6846C76.7492 43.6304 76.4781 43.6014 76.2004 43.6014C74.0088 43.6014 72.2325 45.3777 72.2325 47.569C72.2325 47.711 72.2405 47.851 72.255 47.9893C71.2474 48.1731 70.4772 49.0596 70.4772 50.1178C70.4772 51.3083 71.4511 52.2822 72.6413 52.2822H88.8488C90.0393 52.2822 91.0132 51.3083 91.0132 50.1178C91.0132 49.0205 90.185 48.1077 89.1226 47.9718Z" fill="white"/>
<path d="M134.414 66.6392C134.187 65.1663 132.986 63.995 131.461 63.8458C131.185 61.4725 129.169 59.6302 126.721 59.6302C124.807 59.6302 123.156 60.758 122.396 62.3851C122.136 62.3312 121.867 62.3025 121.592 62.3025C119.417 62.3025 117.655 64.0652 117.655 66.2393C117.655 66.3802 117.662 66.5193 117.677 66.6563C116.677 66.8387 115.913 67.7184 115.913 68.7686C115.913 69.9496 116.879 70.9161 118.06 70.9161H134.142C135.323 70.9161 136.289 69.9496 136.289 68.7686C136.289 67.6796 135.468 66.7739 134.414 66.6392Z" fill="white"/>
<path d="M29.6514 84.83C29.3868 83.1076 27.9816 81.7377 26.1979 81.5631C25.8759 78.7875 23.5174 76.6329 20.655 76.6329C18.4158 76.6329 16.4853 77.9516 15.5964 79.8546C15.2924 79.7918 14.978 79.7581 14.6554 79.7581C12.1128 79.7581 10.0511 81.8194 10.0511 84.3627C10.0511 84.5275 10.06 84.6897 10.0772 84.8502C8.90796 85.0633 8.01404 86.0922 8.01404 87.3203C8.01404 88.7017 9.14417 89.8318 10.5256 89.8318H29.3335C30.7149 89.8318 31.845 88.7017 31.845 87.3203C31.845 86.0466 30.8842 84.9875 29.6514 84.83Z" fill="white"/>
<path d="M106.942 118.518H46.835V79.1886H106.942V118.518Z" fill="white"/>
<g opacity="0.449997">
<path opacity="0.449997" d="M77.8845 118.518H46.835V79.1886H77.8845V118.518Z" fill="#F1F1F1"/>
</g>
<path d="M69.907 93.624H62.48V86.197H69.907V93.624Z" fill="#FBC03F"/>
<path d="M80.4287 93.624H73.0017V86.197H80.4287V93.624Z" fill="#F3A41C"/>
<path d="M90.9503 93.624H83.5231V86.197H90.9503V93.624Z" fill="#FBC03F"/>
<path d="M101.472 93.624H94.0447V86.197H101.472V93.624Z" fill="#F3A41C"/>
<path d="M69.907 103.939H62.48V96.5123H69.907V103.939Z" fill="#F3A41C"/>
<path d="M59.3857 103.939H51.9587V96.5123H59.3857V103.939Z" fill="#FBC03F"/>
<path d="M80.4287 103.939H73.0017V96.5123H80.4287V103.939Z" fill="#FBC03F"/>
<path d="M90.9503 103.939H83.5231V96.5123H90.9503V103.939Z" fill="#FBC03F"/>
<path d="M101.472 103.939H94.0447V96.5123H101.472V103.939Z" fill="#F3A41C"/>
<path d="M69.907 114.254H62.48V106.827H69.907V114.254Z" fill="#FBC03F"/>
<path d="M59.3857 114.254H51.9587V106.827H59.3857V114.254Z" fill="#FBC03F"/>
<path d="M80.4287 114.254H73.0017V106.827H80.4287V114.254Z" fill="#FBC03F"/>
<path d="M90.9503 114.254H83.5231V106.827H90.9503V114.254Z" fill="#F3A41C"/>
<path d="M101.472 114.254H94.0447V106.827H101.472V114.254Z" fill="#FBC03F"/>
<path d="M70.6663 85.2449C70.1477 85.3787 69.7031 85.7484 69.2978 86.0811C68.8672 86.4348 68.4537 86.8075 68.0434 87.1843C67.4996 87.683 66.9677 88.1936 66.4459 88.7146C66.3615 88.6362 66.2766 88.558 66.191 88.4808C65.4013 87.7644 64.5802 87.0828 63.7378 86.4292C62.9448 85.8138 62.0837 85.0854 61.1185 84.7793C60.9832 84.7361 60.8663 84.898 60.9364 85.0161C61.4361 85.8553 62.2951 86.5026 63.0214 87.1455C63.8032 87.837 64.5852 88.5275 65.3377 89.251C65.4374 89.3469 65.5357 89.4448 65.6348 89.5422C64.9289 90.2787 64.2413 91.0326 63.5738 91.804C63.223 92.2098 62.8806 92.6197 62.5555 93.0463C62.2119 93.4977 61.8289 93.9476 61.5642 94.4499C61.3724 94.8146 61.8209 95.1535 62.1263 94.8835C62.5242 94.5319 62.8545 94.1012 63.2109 93.7075C63.5699 93.3103 63.9207 92.9066 64.2756 92.5058C64.9511 91.7436 65.647 90.9988 66.3612 90.2725C66.7345 90.659 67.0997 91.0536 67.4532 91.4573C68.1283 92.2299 68.6919 93.125 69.4396 93.8271C69.7501 94.1184 70.3584 93.8351 70.1995 93.3849C69.8431 92.3767 69.1102 91.5393 68.4184 90.7401C68.028 90.289 67.6195 89.856 67.1977 89.4363C67.7187 88.9242 68.247 88.4195 68.7837 87.9246C69.1777 87.5614 69.5787 87.2065 69.9727 86.8433C70.3445 86.5011 70.771 86.1317 70.9901 85.6664C71.0943 85.4453 70.9229 85.1786 70.6663 85.2449Z" fill="#5F5EA9"/>
<path d="M91.8467 95.9037C91.3281 96.0375 90.8836 96.4075 90.4783 96.7402C90.0476 97.0939 89.6341 97.4666 89.2242 97.8434C88.6804 98.3419 88.1485 98.8525 87.6264 99.3737C87.542 99.2953 87.457 99.2171 87.3718 99.1399C86.5821 98.4236 85.7607 97.7419 84.9185 97.0883C84.1253 96.4726 83.2642 95.7445 82.2989 95.4381C82.1637 95.3952 82.0467 95.5568 82.1169 95.6749C82.6165 96.5144 83.4758 97.1617 84.2022 97.8043C84.9837 98.4961 85.7657 99.1864 86.5181 99.9098C86.6179 100.006 86.7165 100.104 86.8153 100.201C86.1094 100.937 85.4217 101.691 84.7543 102.463C84.4035 102.869 84.061 103.279 83.736 103.705C83.3924 104.156 83.0096 104.606 82.745 105.109C82.5529 105.474 83.0013 105.813 83.3068 105.542C83.7046 105.191 84.035 104.76 84.3914 104.366C84.7504 103.969 85.1012 103.566 85.4561 103.165C86.1316 102.402 86.8278 101.658 87.5417 100.931C87.915 101.318 88.2802 101.713 88.6337 102.116C89.3091 102.889 89.8724 103.784 90.6201 104.486C90.9306 104.777 91.5392 104.494 91.3799 104.044C91.0236 103.036 90.2907 102.198 89.5989 101.399C89.2085 100.948 88.8 100.515 88.3782 100.095C88.8992 99.5833 89.4275 99.0786 89.9645 98.5837C90.3582 98.2205 90.7592 97.8653 91.1532 97.5024C91.525 97.1602 91.9515 96.7905 92.1709 96.3252C92.2748 96.1044 92.1034 95.8374 91.8467 95.9037Z" fill="#5F5EA9"/>
<path d="M106.942 81.1674H46.835V70.0366H106.942V81.1674Z" fill="#FA8775"/>
<path d="M77.8845 81.1674H46.835V70.0366H77.8845V81.1674Z" fill="#FA6E5B"/>
<path d="M57.3915 76.1226C57.3915 77.7746 56.0521 79.1137 54.4001 79.1137C52.7478 79.1137 51.4087 77.7746 51.4087 76.1226C51.4087 74.4704 52.7478 73.1312 54.4001 73.1312C56.0521 73.1312 57.3915 74.4704 57.3915 76.1226Z" fill="white"/>
<path d="M102.778 76.1226C102.778 77.7746 101.439 79.1137 99.7872 79.1137C98.1346 79.1137 96.7955 77.7746 96.7955 76.1226C96.7955 74.4704 98.1346 73.1312 99.7872 73.1312C101.439 73.1312 102.778 74.4704 102.778 76.1226Z" fill="white"/>
<path d="M56.155 68.4891V76.3287C56.155 77.286 55.3874 78.0645 54.4343 78.0816C54.4234 78.0825 54.4124 78.0825 54.4015 78.0825C53.4332 78.0825 52.6476 77.2969 52.6476 76.3287V68.4891C52.6476 68.2843 52.6829 68.0878 52.7483 67.9045C52.988 67.224 53.6381 66.7356 54.4015 66.7356C54.4124 66.7356 54.4234 66.7356 54.4343 66.7362C54.9055 66.7445 55.3318 66.9399 55.6414 67.2495C55.824 67.4321 55.9673 67.6559 56.0546 67.9045C56.1197 68.0878 56.155 68.2843 56.155 68.4891Z" fill="#FBC03F"/>
<path d="M54.4343 66.7363V78.0816C54.4234 78.0825 54.4124 78.0825 54.4015 78.0825C53.4332 78.0825 52.6476 77.2969 52.6476 76.3287V68.4892C52.6476 68.2843 52.6829 68.0875 52.7483 67.9046C52.988 67.2238 53.6381 66.7357 54.4015 66.7357C54.4124 66.7357 54.4234 66.7357 54.4343 66.7363Z" fill="#F3A41C"/>
<path d="M101.473 68.4891V76.3287C101.473 77.286 100.706 78.0645 99.7528 78.0816C99.7415 78.0825 99.7306 78.0825 99.7196 78.0825C98.7514 78.0825 97.9659 77.2969 97.9659 76.3287V68.4891C97.9659 68.2843 98.0014 68.0878 98.0662 67.9045C98.3065 67.224 98.9563 66.7356 99.7196 66.7356C99.7306 66.7356 99.7415 66.7356 99.7528 66.7362C100.223 66.7445 100.65 66.9399 100.96 67.2495C101.143 67.4321 101.285 67.6559 101.373 67.9045C101.438 68.0878 101.473 68.2843 101.473 68.4891Z" fill="#FBC03F"/>
<path d="M99.7526 66.7363V78.0816C99.7417 78.0825 99.7307 78.0825 99.7198 78.0825C98.7513 78.0825 97.966 77.2969 97.966 76.3287V68.4892C97.966 68.2843 98.0012 68.0875 98.0663 67.9046C98.3064 67.2238 98.9564 66.7357 99.7198 66.7357C99.7307 66.7357 99.7417 66.7357 99.7526 66.7363Z" fill="#F3A41C"/>
<path d="M122.17 100.093C125.907 96.8433 128.477 90.2555 128.524 82.6362H105.251C105.298 90.2555 107.868 96.8433 111.605 100.093C107.868 103.342 105.298 109.93 105.251 117.549H128.524C128.477 109.93 125.907 103.342 122.17 100.093Z" fill="#F1F1F1"/>
<path d="M120.662 100.171C123.793 97.1126 127.227 91.3033 127.267 84.1307H106.617C106.657 91.3033 109.711 97.091 112.842 100.15C109.711 103.209 106.692 109.826 106.652 116.999H127.267C127.227 109.826 123.793 103.23 120.662 100.171Z" fill="white"/>
<path d="M128.761 84.5236H105.171C104.003 84.5236 103.048 83.5681 103.048 82.4004C103.048 81.2327 104.003 80.2772 105.171 80.2772H128.761C129.929 80.2772 130.884 81.2327 130.884 82.4004C130.884 83.5681 129.929 84.5236 128.761 84.5236Z" fill="#5F5EA9"/>
<path d="M124.751 116.37H109.024C109.032 114.329 115.724 112.368 116.153 110.524H117.149C117.203 110.765 117.374 111.01 117.628 111.255C119.32 112.883 124.744 114.597 124.751 116.37Z" fill="#FBC03F"/>
<path d="M125.337 87.9045C124.534 91.7173 122.324 95.1666 120.228 97.8421C119.123 99.2523 118.049 100.448 117.23 101.368C117.22 101.379 117.211 101.389 117.202 101.4C117.184 101.42 116.867 101.42 116.577 101.415H116.577C116.328 101.411 116.101 101.403 116.101 101.403C113.736 98.7565 109.609 93.789 108.382 87.9045H125.337Z" fill="#FBC03F"/>
<path d="M117.202 112.045H116.101V98.52H117.202V112.045Z" fill="#F3A41C"/>
<path d="M120.228 97.8422C119.123 99.2523 118.05 100.448 117.23 101.368C117.013 101.388 116.795 101.403 116.577 101.415H116.577C116.328 101.411 116.101 101.403 116.101 101.403C113.736 98.7565 109.609 93.7891 108.382 87.9046H114.63C114.838 88.7745 114.896 89.8452 115.074 90.4609C115.47 91.8349 115.993 93.1775 116.743 94.4006C117.599 95.7986 118.811 97.0374 120.228 97.8422Z" fill="#F3A41C"/>
<path d="M121.741 116.37H109.024C109.032 114.329 115.724 112.368 116.153 110.524H117.131C117.222 110.799 117.326 111.072 117.456 111.339C118.257 112.984 119.438 114.431 120.817 115.627C121.116 115.886 121.424 116.133 121.741 116.37Z" fill="#F3A41C"/>
<path d="M128.761 120.537H105.171C104.003 120.537 103.048 119.582 103.048 118.414C103.048 117.246 104.003 116.291 105.171 116.291H128.761C129.929 116.291 130.884 117.246 130.884 118.414C130.884 119.582 129.929 120.537 128.761 120.537Z" fill="#5F5EA9"/>
<path d="M57.0041 95.1956C56.545 95.401 55.9723 95.6369 55.3385 95.7858C55.0544 95.8515 54.7527 95.8994 54.4464 95.9258C53.725 95.9785 53.0389 95.869 52.4398 95.6197C52.1032 95.4797 51.7927 95.2918 51.5171 95.0644C51.0539 94.6796 50.7348 94.2119 50.4507 93.7703C49.5588 92.38 48.7543 90.9198 48.0593 89.4247L48.6844 89.132C49.3226 89.1885 49.9347 89.3416 50.4592 89.7003C50.5643 89.7746 50.6647 89.8489 50.7567 89.9359C51.1107 90.6182 51.4911 91.2872 51.8978 91.9431C52.0245 92.1571 52.1601 92.3714 52.2956 92.5813C52.4966 92.8956 52.6935 93.1931 52.9163 93.3814C53.2399 93.6478 53.7383 93.7748 54.2892 93.7351C54.9363 93.6919 55.6008 93.4207 56.1034 93.1976L57.0041 95.1956Z" fill="#FBC03F"/>
<path d="M43.185 123.248C43.1667 123.458 43.1492 123.675 43.217 123.874C43.2916 124.093 43.4603 124.265 43.6311 124.42C44.3169 125.043 45.1262 125.529 45.9979 125.842C46.2128 125.919 46.4381 125.987 46.6651 125.965C46.7498 125.957 46.8377 125.935 46.8986 125.876C47.0543 125.725 46.9493 125.465 46.8368 125.28C46.4739 124.682 46.1107 124.084 45.7478 123.486C45.611 123.261 45.471 123.032 45.2706 122.862C45.0818 122.701 44.8497 122.601 44.6203 122.506C44.3273 122.385 43.7468 122.083 43.4254 122.231C43.1353 122.364 43.2078 122.988 43.185 123.248Z" fill="#8391F5"/>
<path d="M47.3737 121.344C47.3554 121.554 47.3379 121.771 47.406 121.97C47.4803 122.189 47.649 122.361 47.8198 122.516C48.5056 123.139 49.3149 123.625 50.1866 123.938C50.4015 124.015 50.6267 124.083 50.8538 124.061C50.9384 124.053 51.0263 124.031 51.0873 123.972C51.243 123.821 51.1379 123.561 51.0255 123.376C50.6626 122.779 50.2997 122.18 49.9365 121.583C49.8 121.357 49.66 121.128 49.4593 120.958C49.2705 120.797 49.0384 120.697 48.809 120.602C48.516 120.481 47.9355 120.179 47.6141 120.326C47.3243 120.46 47.3965 121.084 47.3737 121.344Z" fill="#8391F5"/>
<path d="M52.3384 105.878C52.299 107.511 52.1575 109.123 51.9536 110.711C51.5708 113.67 50.8427 118.661 50.2196 121.489C49.2801 121.645 48.292 121.496 47.4443 121.061C47.3286 121.003 47.2347 120.923 47.1477 120.87C47.6349 118.015 47.8602 113.077 48.1325 110.277C48.2769 108.788 48.3586 107.307 48.348 105.842C48.3471 105.804 48.3465 105.766 48.3456 105.728C48.2314 105.73 48.1165 105.733 48.0017 105.735C47.5728 110.887 46.7259 118.136 45.8743 123.233C45.113 123.263 44.3466 123.176 43.6111 122.976C43.3873 122.916 43.0478 122.723 42.7408 122.591C43.6321 116.151 44.0586 107.552 44.294 101.062L48.3231 101.257C48.3193 101.327 48.3139 101.398 48.3101 101.469L52.1107 100.944C52.3141 102.595 52.3783 104.247 52.3384 105.878Z" fill="#342E73"/>
<path d="M52.4791 103.074C52.4661 103.253 52.4486 103.432 52.361 103.585C52.1861 103.887 51.8016 103.974 51.4606 104.031C49.7817 104.293 48.0767 104.337 46.3759 104.315C44.636 104.293 43.8229 104.657 43.9975 102.816C44.308 99.5412 44.2601 96.2055 43.9889 92.9309C43.9102 91.9648 43.8404 90.8894 44.448 90.1373C45.0513 89.3854 46.1181 89.2282 47.0798 89.1537C47.6046 89.1143 48.1555 89.0879 48.6844 89.1317C49.3226 89.1886 49.9347 89.3413 50.4592 89.7001C50.5643 89.7744 50.6649 89.8487 50.7567 89.936C51.3336 90.4478 51.6746 91.1691 51.8978 91.9432C52.0419 92.4632 52.1381 93.0052 52.208 93.53C52.3042 94.2247 52.3785 94.92 52.4398 95.6195C52.6582 98.0985 52.6715 100.595 52.4791 103.074Z" fill="#FBC03F"/>
<path d="M42.5423 85.111C42.4748 85.4976 42.5766 85.8913 42.7093 86.2583C43.0508 87.202 43.6171 88.0775 44.4107 88.6959C45.2045 89.3139 46.2358 89.6573 47.2443 89.5377C47.4606 89.5119 47.7117 89.4344 47.7788 89.2284C47.8182 89.1079 47.78 88.9782 47.741 88.8587C47.2514 87.3674 46.5466 85.9478 45.6545 84.6566C45.4105 84.3035 45.1421 83.9504 44.7673 83.7382C43.795 83.1876 42.7107 84.1472 42.5423 85.111Z" fill="#342E73"/>
<path d="M46.7928 87.1393L47.4363 90.2216C47.5633 90.8281 48.1642 91.2155 48.779 91.0874C49.3937 90.9589 49.7892 90.3634 49.6625 89.7569L49.019 86.6746L46.7928 87.1393Z" fill="#FECAA0"/>
<path d="M46.947 87.8776L47.4206 90.145C47.8797 89.9611 48.4741 89.7217 48.5599 89.6758C48.898 89.4935 49.22 89.2842 49.513 89.0406C49.6966 88.8881 49.8688 88.7227 50.0269 88.5436C50.6171 87.8714 49.8395 87.7402 49.2191 87.6325C49.2182 87.6319 49.2167 87.6322 49.2162 87.6316C48.5626 87.5182 47.8862 87.5268 47.2362 87.6615C47.1723 87.6745 47.1072 87.689 47.0542 87.7266C47.0021 87.7642 46.9689 87.8169 46.947 87.8776Z" fill="#FAB687"/>
<path d="M50.4013 84.5162C51.2802 86.3339 51.0147 88.2798 49.4826 89.0204C47.9505 89.7613 45.9963 88.8884 45.1174 87.0707C44.2389 85.2529 44.7685 83.1791 46.3006 82.4383C47.8327 81.698 49.5228 82.6984 50.4013 84.5162Z" fill="#FECAA0"/>
<path d="M45.971 87.037C46.352 87.5006 46.3546 88.1248 45.9772 88.4309C45.6001 88.737 44.9853 88.6094 44.6047 88.1456C44.2237 87.6817 44.2208 87.0575 44.5982 86.7517C44.9756 86.4456 45.5901 86.5735 45.971 87.037Z" fill="#FECAA0"/>
<path d="M45.8835 86.6269C45.9691 86.7808 46.0685 86.9344 46.0857 87.11C46.1026 87.2855 46.0011 87.4891 45.8252 87.5161C45.7157 87.5326 45.6094 87.4785 45.5147 87.4225C44.7309 86.9611 44.1022 86.248 43.7443 85.4157C43.6547 85.207 43.5821 84.9663 43.6736 84.7568C43.7153 84.6614 43.787 84.5827 43.8604 84.5087C43.998 84.3693 44.1534 84.2352 44.3435 84.187C44.6507 84.1091 44.9722 84.2802 45.1782 84.5164C45.7136 85.1309 45.4937 85.9248 45.8835 86.6269Z" fill="#342E73"/>
<path d="M48.5076 83.8872C48.9362 83.6838 49.3748 83.4589 49.667 83.0868C49.9535 82.7227 50.0704 82.2337 49.9787 81.7844C49.8866 81.3353 49.5877 80.934 49.1824 80.7161C48.8968 80.5628 48.5108 80.5116 48.2636 80.7253C48.1766 80.8008 48.1154 80.902 48.0304 80.9801C47.7723 81.2172 47.3771 81.1859 47.027 81.1933C46.3376 81.2075 45.6633 81.4318 45.0517 81.7533C44.6368 81.9715 44.2392 82.2408 43.9477 82.6067C43.6561 82.9719 43.4788 83.4446 43.5433 83.9032C43.8526 86.1033 47.3789 84.4226 48.5076 83.8872Z" fill="#342E73"/>
<path d="M50.4204 85.3755C50.0451 85.5567 49.594 85.4033 49.4149 85.0328C49.2358 84.6625 49.3957 84.2134 49.771 84.032C50.1463 83.8505 50.5974 84.0041 50.7765 84.3744C50.9556 84.7447 50.7958 85.1941 50.4204 85.3755ZM48.2608 86.4195C47.8855 86.601 47.4344 86.4473 47.2553 86.0768C47.0762 85.7065 47.2361 85.2577 47.6114 85.076C47.9867 84.8945 48.4378 85.0484 48.6169 85.4187C48.796 85.7887 48.6361 86.2381 48.2608 86.4195ZM49.6813 83.8467C49.2755 84.0429 49.0683 84.4843 49.1535 84.9019L48.6767 85.1325C48.4023 84.8063 47.9278 84.6944 47.5217 84.8907C47.0428 85.1224 46.8388 85.6952 47.0673 86.1679C47.2958 86.64 47.8713 86.8366 48.3502 86.6048C48.8294 86.3733 49.0331 85.8006 48.8046 85.3279C48.8007 85.3202 48.7963 85.3131 48.7921 85.3054L49.2172 85.0996C49.2207 85.1079 49.2234 85.1156 49.2272 85.1236C49.4555 85.596 50.0312 85.7923 50.5101 85.5608C50.989 85.3293 51.1927 84.7563 50.9642 84.2839C50.7357 83.8112 50.1605 83.6152 49.6813 83.8467Z" fill="white"/>
<path d="M47.1106 86.0291L45.0451 86.5341L44.9948 86.3224L47.0603 85.8177L47.1106 86.0291Z" fill="white"/>
<path d="M61.9146 92.9441L41.0667 115.672L37.985 112.845L58.8332 90.1173L61.9146 92.9441Z" fill="#FA6E5B"/>
<path d="M59.8602 91.0596L39.0123 113.787L37.9852 112.845L58.8331 90.1172L59.8602 91.0596Z" fill="#FA8775"/>
<path d="M61.9146 92.944L41.0667 115.672L40.0396 114.73L60.8874 92.0016L61.9146 92.944Z" fill="#F65948"/>
<path d="M41.0666 115.672L40.2944 116.513C39.8699 116.976 39.1755 117.037 38.7519 116.649L37.2112 115.235C36.7873 114.847 36.7882 114.15 37.213 113.687L37.985 112.845L41.0666 115.672Z" fill="white"/>
<path d="M41.9673 114.69L41.0666 115.671L37.9849 112.845L38.8859 111.863L41.9673 114.69Z" fill="#FBC03F"/>
<path d="M61.9146 92.944L58.8332 90.1172L62.5205 87.9455L64.1236 87.0007C64.3302 86.8787 64.5505 87.0755 64.4525 87.2931L63.6814 89.0102L61.9146 92.944Z" fill="#FBC03F"/>
<path d="M63.6813 89.0102L62.5207 87.9455L64.1238 87.0007C64.3301 86.8787 64.5504 87.0756 64.4524 87.2931L63.6813 89.0102Z" fill="#514D96"/>
<path d="M47.5503 102.285C47.6148 102.299 47.6823 102.314 47.7312 102.361C47.8451 102.47 47.7821 102.689 47.6512 102.773C47.5201 102.858 47.3561 102.848 47.2034 102.836C47.407 103.054 47.6592 103.22 47.9333 103.317C48.0523 103.359 48.1903 103.402 48.2415 103.524C48.2823 103.62 48.2512 103.733 48.2169 103.833C48.0908 104.202 47.8975 104.585 47.5562 104.733C47.2067 104.883 46.8029 104.739 46.488 104.518C46.173 104.296 45.9063 104.001 45.5778 103.803C45.3697 103.678 45.1098 103.554 45.071 103.303C45.0512 103.176 45.0974 103.048 45.1426 102.929C45.2294 102.699 45.3179 102.466 45.4585 102.269C45.9214 101.619 46.9186 102.149 47.5503 102.285Z" fill="#FECAA0"/>
<path d="M45.2855 103.722C43.8055 103.241 42.4936 102.202 41.6867 100.872C40.8795 99.541 40.5643 97.8976 40.8215 96.3631C40.9213 95.7697 41.108 95.1537 41.3928 94.4797C42.1926 92.5874 43.4698 90.9164 45.0866 89.6481L46.45 91.3859C45.1268 92.4237 44.0817 93.7909 43.4269 95.3399C43.2102 95.8525 43.0705 96.3066 42.9998 96.7281C42.8287 97.7487 43.0386 98.8415 43.5752 99.7263C44.1119 100.611 44.9839 101.302 45.9681 101.622L45.2855 103.722Z" fill="#FBC03F"/>
</svg>
