<svg width="128" height="124" viewBox="0 0 128 124" fill="none" xmlns="http://www.w3.org/2000/svg">
<path d="M51.402 113.775C52.3581 113.775 53.3143 113.527 54.1712 113.031L97.5358 87.9439C98.5104 87.3807 98.5104 85.9709 97.5358 85.4074L56.3033 61.5567L10.1705 88.2454C9.19554 88.809 9.19554 90.2187 10.1705 90.7823L48.6337 113.032C49.4903 113.527 50.4465 113.775 51.402 113.775Z" fill="#899ABF"/>
<path d="M55.4223 48.2074C55.4199 45.448 57.3591 44.3242 59.745 45.7014L100.302 69.1162C100.958 69.4946 101.491 70.4171 101.491 71.1756C101.492 71.9341 100.96 72.2422 100.305 71.8635L59.7474 48.449C58.6715 47.8273 57.7968 48.3345 57.7978 49.5789L57.8022 54.1238C57.015 54.0747 56.2252 54.0737 55.4276 54.0878L55.4223 48.2074Z" fill="#42287C"/>
<path d="M100.319 80.0355L59.7624 65.2269C57.3762 63.8494 55.4333 60.4837 55.4309 57.7247L55.4276 54.0878C56.2251 54.0737 57.0149 54.0747 57.8021 54.1238L57.8064 59.0965C57.8078 60.3409 58.6838 61.8582 59.7601 62.4796L100.317 77.2882C100.973 77.6669 101.505 78.5891 101.506 79.3476C101.507 80.1061 100.975 80.4142 100.319 80.0355Z" fill="#42287C"/>
<path d="M101.199 80.0902L51.8632 108.695L10.0927 83.7348L6.77881 78.7789L7.12292 80.5348L8.01336 75.9378L85.5498 78.9009L99.2107 78.0194L101.199 80.0902Z" fill="#42287C"/>
<path d="M99.5629 71.4578L99.5764 77.5429L51.8934 105.185L50.6052 99.3855L99.5629 71.4578Z" fill="#CA5FB6"/>
<path d="M7.39322 73.9813L56.6508 45.4258L101.062 71.3046L101.154 71.9397L51.8232 100.537L7.39322 73.9813Z" fill="#3D1399"/>
<path d="M23.0969 88.645L11.515 81.7615C10.5394 81.0742 9.7744 79.6856 9.77339 78.5249L9.76501 77.6131C9.76434 76.8761 10.0726 76.4006 10.5461 76.2622L33.3445 88.971L51.9104 99.0323L51.8933 105.185L23.0969 88.645Z" fill="white"/>
<path d="M50.2457 99.5942L99.1906 71.2202L100.228 70.6187L101.176 70.0692C101.37 70.4254 101.491 70.8176 101.491 71.1755C101.492 71.5482 101.362 71.8107 101.154 71.9377L101.154 71.9397L101.146 71.9444L101.142 71.9464L51.8236 100.537L50.2457 99.5942Z" fill="#42287C"/>
<path d="M52.4784 108.339L51.8633 108.695L51.7496 108.499L52.1329 108.197L52.4784 108.339Z" fill="white"/>
<path d="M52.4622 100.166L51.8316 100.531L51.9899 100.186L52.4622 100.166Z" fill="white"/>
<path d="M50.9724 97.7132L10.4154 74.2988C8.02944 72.9209 6.09024 74.0454 6.09259 76.8044L6.1013 77.7162C6.10365 80.4752 8.04688 83.8406 10.4328 85.2181L50.9901 108.632C51.6458 109.011 52.1774 108.703 52.1767 107.945C52.1761 107.186 51.6435 106.264 50.9874 105.885L10.4304 82.4708C9.3542 81.8497 8.47817 80.3321 8.47683 79.0876L8.46812 78.1759C8.46711 76.9315 9.34146 76.4247 10.4177 77.0461L50.975 100.46C51.6307 100.839 52.1623 100.531 52.1616 99.7726C52.161 99.0141 51.6284 98.0919 50.9724 97.7132Z" fill="#42287C"/>
<path d="M52.1764 107.945C52.1757 107.186 51.6435 106.264 50.9875 105.885L10.4305 82.4709C9.35421 81.8499 8.47818 80.3322 8.47684 79.0878L8.46813 78.1761C8.46746 77.3611 8.84341 76.8658 9.40418 76.7928C9.22341 77.0308 9.11777 77.3698 9.1181 77.7993L9.12649 78.7111C9.12783 79.9555 10.0039 81.4732 11.0801 82.0942L51.6371 105.509C52.2931 105.887 52.8257 106.809 52.8264 107.568C52.8267 108.143 52.5212 108.457 52.0879 108.412C52.1445 108.284 52.1767 108.128 52.1764 107.945Z" fill="white"/>
<path d="M52.1617 99.7727C52.161 99.0142 51.6284 98.092 50.9724 97.7133L10.4154 74.2989C9.38778 73.7054 8.444 73.5787 7.7018 73.8442C8.49465 73.1667 9.70673 73.1378 11.0654 73.9221L51.6221 97.3366C52.2781 97.7153 52.8107 98.6375 52.8113 99.3959C52.8117 99.9706 52.5061 100.285 52.0728 100.239C52.1295 100.112 52.1617 99.9565 52.1617 99.7727Z" fill="white"/>
<path d="M5.73844 32.0304L49.4967 6.7155C50.0048 6.42144 50.5213 6.3764 50.9794 6.53335L50.9767 6.52898L51.0562 6.55889L51.0753 6.56629L52.657 7.17287L51.2377 7.86886L51.2581 7.94649L58.3854 40.4561C58.7422 42.083 58.0278 43.9824 56.7899 44.6985L14.0841 69.4044L14.2367 71.2178L12.5082 70.5467C11.9276 70.2745 11.4625 69.6592 11.2706 68.7827L4.14303 36.2728C3.78618 34.6463 4.50054 32.7465 5.73844 32.0304Z" fill="#263C7A"/>
<path d="M5.73847 32.0303L49.4967 6.71548C50.0048 6.42143 50.5213 6.37639 50.9795 6.53333L50.9768 6.52896L51.0563 6.55887L51.0754 6.56627L52.6571 7.17285L51.2377 7.86885L51.2582 7.94647L55.9556 29.3721L34.5453 46.0868L4.35635 33.7779C4.64646 33.0241 5.12841 32.3832 5.73847 32.0303Z" fill="#4067B1"/>
<path d="M7.38863 37.028L4.05727 35.6067C3.99623 34.3139 4.53015 32.9787 5.40684 32.2646L10.6797 34.487L7.38863 37.028Z" fill="#2E4B8D"/>
<path d="M15.7568 71.0455L59.515 45.7306C60.7529 45.0145 61.4673 43.115 61.1105 41.4882L53.9829 8.97855C53.6264 7.35168 52.3338 6.61302 51.0959 7.3295L7.33765 32.6444C6.09975 33.3602 5.38538 35.2599 5.74189 36.8868L12.8695 69.3964C13.2263 71.0233 14.5189 71.7616 15.7568 71.0455Z" fill="#D9EFFB"/>
<path d="M6.9175 32.4901L50.6757 7.17526C51.2754 6.82844 51.8858 6.82878 52.3989 7.10032C51.9871 7.01025 51.5387 7.0731 51.096 7.32951L7.3374 32.6444C6.09983 33.3602 5.38547 35.2599 5.74199 36.8868L12.8696 69.3964C13.0534 70.2349 13.488 70.8314 14.034 71.1204C13.2952 70.9584 12.6787 70.2873 12.4493 69.2422L5.32209 36.7329C4.96523 35.106 5.6796 33.2063 6.9175 32.4901Z" fill="white"/>
<path d="M16.7052 68.6275L57.8592 44.8306C58.9918 44.1757 59.6454 42.4372 59.3191 40.9488L52.7969 11.1996C52.4705 9.71084 51.2876 9.03536 50.1547 9.69069L9.0007 33.4869C7.86811 34.1425 7.21445 35.8806 7.54111 37.3691L14.0633 67.1182C14.3897 68.607 15.5726 69.2828 16.7052 68.6275Z" fill="white"/>
<path d="M16.7052 68.6275L57.8592 44.8306C58.9918 44.1757 59.6454 42.4372 59.3191 40.9488L52.7969 11.1996C52.4705 9.71084 51.2876 9.03536 50.1547 9.69069L9.0007 33.4869C7.86811 34.1425 7.21445 35.8806 7.54111 37.3691L14.0633 67.1182C14.3897 68.607 15.5726 69.2828 16.7052 68.6275Z" fill="#263C7A"/>
<path d="M16.3467 68.481L57.5006 44.6848C58.6332 44.0295 59.2869 42.2914 58.9602 40.8026L52.4383 11.0531C52.273 10.2996 51.8876 9.75722 51.4013 9.4877C52.0533 9.65573 52.593 10.2687 52.7969 11.1996L59.3191 40.9488C59.6454 42.4372 58.9918 44.1757 57.8592 44.8306L16.7052 68.6275C16.1458 68.9511 15.575 68.9478 15.1004 68.6843C15.4911 68.7855 15.9224 68.7266 16.3467 68.481Z" fill="#5F92D3"/>
<path d="M15.1527 72.1477L21.1339 71.3566L59.7457 49.0193C60.9833 48.3028 63.1458 48.3928 64.5749 49.2199L91.9349 65.0423L95.552 64.5635V66.6198L95.5483 66.6205C95.5721 67.0957 95.3021 67.5531 94.7179 67.8905L50.9596 93.2057C49.7217 93.9215 47.5595 93.8321 46.1301 93.005L16.3339 75.7735C15.53 75.308 15.1292 74.7088 15.1527 74.1459V72.1477Z" fill="#263C7A"/>
<path d="M44.1641 58.0332L46.9072 56.4466H77.0666L91.9349 65.0424L95.552 64.5635V66.6199L95.5483 66.6205C95.5721 67.0957 95.3021 67.5531 94.7179 67.8905L50.9596 93.2057C50.3053 93.5841 49.393 93.7354 48.467 93.6735L44.1641 58.0332Z" fill="#4067B1"/>
<path d="M93.9468 64.7762L95.552 64.5635V66.6199L95.5483 66.6205C95.5721 67.0957 95.3021 67.5531 94.7179 67.8905L93.9468 68.3368V64.7762Z" fill="#5F92D3"/>
<path d="M50.519 93.4107C49.3455 93.8567 47.6679 93.7596 46.4155 93.1553V88.5688H50.519V93.4107Z" fill="#2E4B8D"/>
<path d="M50.9596 91.1517L94.7179 65.8368C95.9558 65.1207 95.8005 63.8699 94.3711 63.0428L64.5749 45.8109C63.1458 44.9839 60.9833 44.8945 59.7457 45.6106L15.9871 70.9255C14.7495 71.6416 14.9048 72.8921 16.3339 73.7192L46.1301 90.9511C47.5595 91.7781 49.7217 91.8678 50.9596 91.1517Z" fill="#D9EFFB"/>
<path d="M16.3338 72.9681L46.13 90.2C47.5595 91.0267 49.7217 91.1168 50.9596 90.4006L94.7178 65.0858C95.1237 64.8512 95.3769 64.5582 95.4876 64.2423C95.6811 64.829 95.4342 65.4225 94.7178 65.8369L50.9596 91.1517C49.7217 91.8679 47.5595 91.7781 46.13 90.9514L16.3338 73.7192C15.373 73.1637 14.9913 72.4166 15.2177 71.769C15.3585 72.1962 15.7318 72.6199 16.3338 72.9681Z" fill="white"/>
<path d="M76.1069 57.4561L78.0866 56.3105C78.2459 56.2187 78.2262 56.0581 78.0424 55.9519L75.7054 54.5999C75.5219 54.4937 75.2442 54.4823 75.0849 54.574L73.1052 55.7197C72.9462 55.8114 72.9663 55.9724 73.1498 56.0782L75.4871 57.4305C75.6702 57.5364 75.9482 57.5478 76.1069 57.4561Z" fill="#5F92D3"/>
<path d="M73.0494 59.2249L75.0292 58.0795C75.1882 57.9878 75.1681 57.8268 74.9846 57.721L72.648 56.3687C72.4642 56.2625 72.1868 56.251 72.0275 56.3428L70.0477 57.4884C69.8888 57.5805 69.9089 57.7408 70.0924 57.8473L72.429 59.199C72.6128 59.3055 72.8905 59.3169 73.0494 59.2249Z" fill="#5F92D3"/>
<path d="M69.9921 60.9938L71.9718 59.8485C72.1308 59.7561 72.1107 59.5958 71.9272 59.4893L69.5899 58.1377C69.4068 58.0315 69.1288 58.0197 68.9702 58.1118L66.9904 59.2571C66.8311 59.3492 66.8509 59.5098 67.0347 59.616L69.3716 60.968C69.5551 61.0742 69.8328 61.0856 69.9921 60.9938Z" fill="#5F92D3"/>
<path d="M65.7629 59.533L67.743 58.3874C67.902 58.2956 67.8822 58.135 67.6984 58.0288L65.7368 56.8939C65.553 56.7877 65.2756 56.776 65.1166 56.8684L63.1365 58.0137C62.9779 58.1054 62.9977 58.2661 63.1811 58.3723L65.1431 59.5071C65.3266 59.6137 65.6043 59.6251 65.7629 59.533Z" fill="#5F92D3"/>
<path d="M62.7056 61.3017L64.6854 60.1564C64.8444 60.0643 64.8246 59.904 64.6411 59.7975L62.6791 58.663C62.4957 58.5564 62.218 58.545 62.059 58.6367L60.0792 59.7824C59.9199 59.8745 59.94 60.0351 60.1238 60.1413L62.0855 61.2762C62.2689 61.382 62.547 61.3938 62.7056 61.3017Z" fill="#5F92D3"/>
<path d="M59.6482 63.0707L61.6279 61.9254C61.7869 61.8333 61.7668 61.6727 61.5833 61.5665L59.6217 60.4316C59.4382 60.3254 59.1605 60.314 59.0012 60.4057L57.0214 61.551C56.8625 61.6431 56.8826 61.8038 57.0661 61.91L59.0277 63.0452C59.2112 63.151 59.4889 63.1625 59.6482 63.0707Z" fill="#5F92D3"/>
<path d="M56.5904 64.8394L58.5702 63.6941C58.7295 63.6024 58.7094 63.4414 58.5256 63.3352L56.5643 62.2003C56.3805 62.0941 56.1031 62.0827 55.9438 62.1747L53.9641 63.3201C53.8051 63.4118 53.8252 63.5728 54.0087 63.6786L55.9703 64.8135C56.1538 64.9201 56.4315 64.9315 56.5904 64.8394Z" fill="#5F92D3"/>
<path d="M53.5331 66.6085L55.5129 65.4628C55.6715 65.3707 55.6517 65.2104 55.4683 65.1039L53.5063 63.9693C53.3232 63.8632 53.0451 63.8514 52.8865 63.9435L50.9064 65.0891C50.7474 65.1809 50.7672 65.3415 50.951 65.4477L52.9126 66.5826C53.0964 66.6888 53.3741 66.7002 53.5331 66.6085Z" fill="#5F92D3"/>
<path d="M50.4754 68.3771L52.4555 67.2318C52.6141 67.1397 52.5944 66.9794 52.4109 66.8729L50.4489 65.738C50.2655 65.6318 49.9878 65.6204 49.8288 65.7121L47.8487 66.8574C47.6901 66.9498 47.7098 67.1101 47.8933 67.2167L49.8553 68.3516C50.0387 68.4574 50.3164 68.4692 50.4754 68.3771Z" fill="#5F92D3"/>
<path d="M47.4176 70.1458L49.3974 69.0005C49.5567 68.9087 49.5366 68.7478 49.3531 68.6419L47.3914 67.507C47.2077 67.4005 46.9303 67.3891 46.771 67.4811L44.7912 68.6264C44.6322 68.7182 44.6523 68.8792 44.8358 68.9854L46.7978 70.1202C46.9809 70.2264 47.259 70.2379 47.4176 70.1458Z" fill="#5F92D3"/>
<path d="M44.3603 71.9148L46.3401 70.7695C46.499 70.6774 46.4789 70.5168 46.2955 70.4106L44.3338 69.2757C44.1504 69.1695 43.8727 69.1581 43.7137 69.2498L41.7339 70.3954C41.5746 70.4872 41.5947 70.6482 41.7785 70.754L43.7398 71.8889C43.9236 71.9951 44.2013 72.0069 44.3603 71.9148Z" fill="#5F92D3"/>
<path d="M41.3029 73.6839L43.2827 72.5386C43.4417 72.4462 43.4215 72.2859 43.2381 72.1794L41.2765 71.0445C41.093 70.9386 40.8153 70.9269 40.656 71.0189L38.6762 72.1642C38.5173 72.2563 38.5374 72.4166 38.7205 72.5232L40.6825 73.658C40.8659 73.7642 41.1436 73.7756 41.3029 73.6839Z" fill="#5F92D3"/>
<path d="M38.2452 75.4522L40.225 74.3069C40.384 74.2152 40.3642 74.0545 40.1804 73.9483L38.2187 72.8135C38.0353 72.7073 37.7576 72.6955 37.5986 72.7876L35.6185 73.9332C35.4599 74.025 35.4796 74.1856 35.6631 74.2918L37.6251 75.4267C37.8085 75.5329 38.0863 75.5446 38.2452 75.4522Z" fill="#5F92D3"/>
<path d="M61.258 58.6955L63.2378 57.5502C63.3971 57.4584 63.377 57.2975 63.1932 57.1913L61.2319 56.0564C61.0481 55.9502 60.7704 55.9388 60.6114 56.0305L58.6316 57.1761C58.4727 57.2679 58.4928 57.4289 58.6759 57.5347L60.6379 58.6696C60.8213 58.7758 61.099 58.7876 61.258 58.6955Z" fill="#5F92D3"/>
<path d="M64.3614 56.9002L66.3411 55.7549C66.5001 55.6628 66.48 55.5022 66.2965 55.396L64.3349 54.2611C64.1514 54.1549 63.8737 54.1432 63.7148 54.2356L61.735 55.3809C61.5757 55.4726 61.5958 55.6332 61.7792 55.7394L63.7409 56.8743C63.9247 56.9809 64.2024 56.9923 64.3614 56.9002Z" fill="#5F92D3"/>
<path d="M67.4693 55.1024L71.7337 52.6353C71.8927 52.5436 71.8726 52.3826 71.6891 52.2764L69.7275 51.1415C69.544 51.0353 69.2663 51.0239 69.107 51.1156L64.8429 53.5827C64.6843 53.6748 64.7037 53.8351 64.8875 53.9416L66.8492 55.0765C67.0327 55.1827 67.3107 55.1941 67.4693 55.1024Z" fill="#5F92D3"/>
<path d="M65.297 52.9153L68.7572 50.9133C68.9165 50.8213 68.8964 50.6606 68.7126 50.5548L66.7513 49.4199C66.5675 49.3133 66.2898 49.3019 66.1308 49.3937L62.6703 51.3956C62.5113 51.488 62.5315 51.6483 62.7146 51.7548L64.6766 52.8897C64.86 52.9956 65.1377 53.007 65.297 52.9153Z" fill="#5F92D3"/>
<path d="M58.2006 60.4645L60.1803 59.3192C60.339 59.2268 60.3192 59.0665 60.1357 58.96L58.1737 57.8251C57.9906 57.7193 57.7126 57.7075 57.5539 57.7996L55.5738 58.9449C55.4149 59.037 55.4347 59.1973 55.6184 59.3038L57.5801 60.4387C57.7639 60.5449 58.0416 60.5563 58.2006 60.4645Z" fill="#5F92D3"/>
<path d="M55.143 62.2333L57.1231 61.0876C57.2817 60.9959 57.2619 60.8353 57.0785 60.7291L55.1165 59.5942C54.933 59.488 54.6553 59.4762 54.4964 59.5683L52.5162 60.7136C52.3576 60.8057 52.3774 60.9663 52.5609 61.0725L54.5229 62.2074C54.7063 62.3136 54.984 62.3253 55.143 62.2333Z" fill="#5F92D3"/>
<path d="M52.0852 64.0019L54.0649 62.8566C54.2243 62.7649 54.2041 62.6039 54.0207 62.498L52.059 61.3632C51.8752 61.2566 51.5975 61.2452 51.4386 61.3373L49.4588 62.4826C49.2998 62.5743 49.3199 62.7353 49.5034 62.8415L51.465 63.9764C51.6485 64.0822 51.9262 64.094 52.0852 64.0019Z" fill="#5F92D3"/>
<path d="M49.0279 65.7709L51.0076 64.6256C51.1666 64.5336 51.1465 64.3729 50.963 64.2667L49.0014 63.1315C48.8179 63.0257 48.5402 63.0142 48.3812 63.106L46.4015 64.2513C46.2421 64.3434 46.2623 64.504 46.4461 64.6102L48.4074 65.7451C48.5912 65.8513 48.8689 65.8627 49.0279 65.7709Z" fill="#5F92D3"/>
<path d="M45.9705 67.54L47.9503 66.3944C48.1092 66.3023 48.0891 66.1417 47.9057 66.0355L45.944 64.9006C45.7605 64.7947 45.4828 64.7826 45.3235 64.875L43.3438 66.0203C43.1848 66.1121 43.2049 66.2727 43.388 66.3789L45.35 67.5138C45.5335 67.6203 45.8112 67.6318 45.9705 67.54Z" fill="#5F92D3"/>
<path d="M42.9128 69.3084L44.8925 68.163C45.0515 68.0713 45.0317 67.9107 44.8479 67.8045L42.8863 66.6696C42.7028 66.563 42.4248 66.5516 42.2661 66.6437L40.286 67.7893C40.1274 67.8811 40.1472 68.0417 40.3306 68.1479L42.2926 69.2828C42.4761 69.3887 42.7538 69.4008 42.9128 69.3084Z" fill="#5F92D3"/>
<path d="M39.8552 71.0774L41.8353 69.9321C41.994 69.84 41.9742 69.6794 41.7907 69.5732L39.8287 68.4383C39.6453 68.3321 39.3676 68.3207 39.2089 68.4124L37.2288 69.5577C37.0699 69.6502 37.0896 69.8105 37.2734 69.917L39.2351 71.0519C39.4189 71.1577 39.6966 71.1692 39.8552 71.0774Z" fill="#5F92D3"/>
<path d="M36.7978 72.8464L38.7775 71.7008C38.9365 71.609 38.9164 71.4481 38.7333 71.3422L36.7713 70.207C36.5878 70.1011 36.3101 70.0894 36.1508 70.1814L34.171 71.3267C34.0121 71.4188 34.0322 71.5795 34.2156 71.6853L36.1773 72.8202C36.3608 72.9267 36.6385 72.9382 36.7978 72.8464Z" fill="#5F92D3"/>
<path d="M33.7401 74.6151L35.7199 73.4698C35.8792 73.3777 35.859 73.2171 35.6753 73.1109L33.7139 71.976C33.5301 71.8698 33.2524 71.8581 33.0935 71.9505L31.1137 73.0958C30.9547 73.1875 30.9748 73.3482 31.1583 73.4544L33.12 74.5892C33.3034 74.6958 33.5811 74.7072 33.7401 74.6151Z" fill="#5F92D3"/>
<path d="M28.3044 77.7597L32.6245 75.2604C32.7831 75.1686 32.7633 75.008 32.5799 74.9018L30.6179 73.7669C30.4344 73.6604 30.1567 73.649 29.9981 73.741L25.678 76.2403C25.519 76.3324 25.5388 76.4927 25.7226 76.5992L27.6843 77.7341C27.8677 77.8403 28.1454 77.8518 28.3044 77.7597Z" fill="#5F92D3"/>
<path d="M22.3516 74.316L25.9979 72.2065C26.1569 72.1148 26.1371 71.9538 25.9533 71.848L23.9917 70.7127C23.8082 70.6069 23.5305 70.5951 23.3715 70.6872L19.7252 72.7963C19.5663 72.8887 19.5864 73.049 19.7699 73.1556L21.7315 74.2901C21.915 74.3963 22.1927 74.4077 22.3516 74.316Z" fill="#5F92D3"/>
<path d="M52.8462 60.1185L54.826 58.9728C54.985 58.8811 54.9649 58.7201 54.7814 58.6143L52.8198 57.4794C52.6363 57.3732 52.3586 57.3614 52.1996 57.4535L50.2199 58.5988C50.0606 58.6909 50.0807 58.8515 50.2641 58.9574L52.2258 60.0926C52.4096 60.1988 52.6869 60.2102 52.8462 60.1185Z" fill="#5F92D3"/>
<path d="M55.9793 58.3054L57.9594 57.1601C58.1184 57.068 58.0986 56.9074 57.9148 56.8012L55.9532 55.6663C55.7694 55.5601 55.492 55.5487 55.333 55.6404L53.3529 56.7861C53.1943 56.8781 53.2141 57.0384 53.3976 57.145L55.3595 58.2799C55.543 58.3857 55.8207 58.3971 55.9793 58.3054Z" fill="#5F92D3"/>
<path d="M59.1132 56.4923L61.0934 55.347C61.252 55.2552 61.2322 55.0946 61.0488 54.9884L59.0867 53.8535C58.9033 53.7473 58.6256 53.7356 58.4666 53.8276L56.4868 54.9733C56.3279 55.065 56.3477 55.2256 56.5314 55.3318L58.4931 56.4667C58.6766 56.5729 58.9546 56.5847 59.1132 56.4923Z" fill="#5F92D3"/>
<path d="M62.2467 54.6799L64.2265 53.5342C64.3858 53.4422 64.3656 53.2819 64.1822 53.1753L62.2205 52.0404C62.0367 51.9346 61.7594 51.9228 61.6001 52.0149L59.6203 53.1602C59.4613 53.2523 59.4814 53.4126 59.6649 53.5191L61.6266 54.654C61.81 54.7602 62.0877 54.7716 62.2467 54.6799Z" fill="#5F92D3"/>
<path d="M49.7882 61.8871L51.7683 60.7418C51.9272 60.6497 51.9075 60.4891 51.724 60.3829L49.762 59.248C49.5785 59.1418 49.3009 59.1304 49.1419 59.2225L47.1618 60.3677C47.0031 60.4595 47.0229 60.6205 47.2064 60.7263L49.1684 61.8612C49.3518 61.9674 49.6295 61.9792 49.7882 61.8871Z" fill="#5F92D3"/>
<path d="M46.7307 63.6561L48.7108 62.5105C48.8695 62.4184 48.85 62.2581 48.6662 62.1516L46.7046 61.0167C46.5208 60.9109 46.2431 60.8991 46.0844 60.9912L44.1043 62.1365C43.9457 62.2285 43.9651 62.3888 44.1489 62.4954L46.1109 63.6303C46.2944 63.7364 46.5721 63.7479 46.7307 63.6561Z" fill="#5F92D3"/>
<path d="M43.6734 65.4248L45.6532 64.2792C45.8122 64.1874 45.792 64.0268 45.6089 63.9206L43.6469 62.7857C43.4635 62.6795 43.1858 62.6677 43.0268 62.7598L41.047 63.9051C40.8877 63.9975 40.9078 64.1578 41.0916 64.264L43.053 65.3989C43.2367 65.5051 43.5141 65.5169 43.6734 65.4248Z" fill="#5F92D3"/>
<path d="M40.6158 67.1935L42.5956 66.0482C42.7549 65.9565 42.7348 65.7955 42.5513 65.6896L40.5897 64.5547C40.4059 64.4482 40.1285 64.4368 39.9692 64.5289L37.9894 65.6742C37.8304 65.7659 37.8506 65.9269 38.034 66.0328L39.9957 67.168C40.1791 67.2742 40.4568 67.2856 40.6158 67.1935Z" fill="#5F92D3"/>
<path d="M37.5584 68.9625L39.5381 67.8172C39.6971 67.7251 39.6773 67.5645 39.4935 67.458L37.5322 66.3231C37.3484 66.2172 37.0707 66.2058 36.9117 66.2976L34.932 67.4429C34.773 67.5349 34.7928 67.6956 34.9762 67.8018L36.9382 68.9367C37.1217 69.0428 37.3994 69.0543 37.5584 68.9625Z" fill="#5F92D3"/>
<path d="M34.5007 70.7315L36.4808 69.5856C36.6394 69.4938 36.6197 69.3332 36.4362 69.227L34.4742 68.0921C34.2908 67.9862 34.0131 67.9745 33.8544 68.0666L31.8743 69.2119C31.7154 69.3039 31.7351 69.4642 31.9189 69.5708L33.8806 70.7053C34.0644 70.8119 34.3417 70.8233 34.5007 70.7315Z" fill="#5F92D3"/>
<path d="M31.4431 72.4999L33.4232 71.3546C33.5822 71.2629 33.5624 71.1022 33.3789 70.996L31.4169 69.8612C31.2331 69.7546 30.9558 69.7432 30.7968 69.8353L28.8167 70.9806C28.6581 71.0726 28.6779 71.2333 28.8613 71.3395L30.8233 72.4744C31.0068 72.5805 31.2844 72.5923 31.4431 72.4999Z" fill="#5F92D3"/>
<path d="M28.3857 74.269L30.3654 73.1237C30.5244 73.0316 30.5046 72.8709 30.3212 72.7647L28.3595 71.6299C28.1757 71.5237 27.898 71.5122 27.739 71.604L25.7593 72.7493C25.6003 72.8414 25.6201 73.002 25.8039 73.1085L27.7655 74.2434C27.949 74.3493 28.2267 74.3607 28.3857 74.269Z" fill="#5F92D3"/>
<path d="M25.3282 76.038L27.308 74.8924C27.4669 74.8006 27.4468 74.6397 27.2634 74.5335L25.3017 73.3986C25.1183 73.2927 24.8405 73.2813 24.6816 73.3731L22.7018 74.5184C22.5425 74.6104 22.5626 74.7711 22.7464 74.8773L24.7077 76.0122C24.8915 76.1183 25.1689 76.1298 25.3282 76.038Z" fill="#5F92D3"/>
<path d="M54.4557 55.7432L56.4358 54.5979C56.5948 54.5059 56.575 54.3452 56.3912 54.2387L54.4296 53.1038C54.2461 52.9979 53.9684 52.9865 53.8094 53.0783L51.8293 54.2239C51.6707 54.3156 51.6905 54.4763 51.8739 54.5825L53.8359 55.7174C54.0194 55.8235 54.2971 55.835 54.4557 55.7432Z" fill="#5F92D3"/>
<path d="M57.4983 53.9832L59.478 52.8376C59.6373 52.7458 59.6172 52.5852 59.4334 52.479L57.4721 51.3438C57.2883 51.2379 57.011 51.2265 56.8517 51.3182L54.8719 52.4635C54.7129 52.5556 54.733 52.7163 54.9165 52.8225L56.8782 53.9573C57.0616 54.0635 57.3393 54.075 57.4983 53.9832Z" fill="#5F92D3"/>
<path d="M60.5406 52.223L62.5204 51.0777C62.6797 50.9859 62.6595 50.8249 62.4761 50.7191L60.5144 49.5839C60.3306 49.4777 60.0529 49.4662 59.894 49.5583L57.9142 50.7036C57.7552 50.7954 57.7753 50.9563 57.9588 51.0622L59.9205 52.1971C60.1039 52.3036 60.3816 52.315 60.5406 52.223Z" fill="#5F92D3"/>
<path d="M63.5828 50.463L65.5629 49.3177C65.7215 49.2256 65.7021 49.065 65.5183 48.9591L63.5566 47.8243C63.3729 47.7177 63.0952 47.7063 62.9365 47.798L60.9564 48.9437C60.7978 49.0354 60.8172 49.1964 61.001 49.3022L62.9627 50.4371C63.1465 50.5433 63.4242 50.5551 63.5828 50.463Z" fill="#5F92D3"/>
<path d="M60.4544 48.653L62.4345 47.5077C62.5935 47.4159 62.5737 47.2549 62.3899 47.1491L61.7413 46.774C61.5578 46.6675 61.2801 46.6561 61.1215 46.7478L59.1414 47.8935C58.9824 47.9856 59.0022 48.1462 59.186 48.2524L59.8346 48.6274C60.0177 48.7336 60.2958 48.7451 60.4544 48.653Z" fill="#5F92D3"/>
<path d="M56.4841 50.9499L58.4643 49.8047C58.6232 49.7129 58.6034 49.5519 58.4197 49.4461L57.771 49.0707C57.5876 48.9645 57.3099 48.9531 57.1512 49.0448L55.1711 50.1904C55.0121 50.2822 55.0319 50.4432 55.2157 50.549L55.8644 50.9241C56.0478 51.0306 56.3255 51.042 56.4841 50.9499Z" fill="#5F92D3"/>
<path d="M53.4546 52.7025L55.4343 51.5572C55.5933 51.4655 55.5735 51.3048 55.39 51.1986L54.7414 50.8233C54.558 50.7171 54.2803 50.7056 54.1213 50.7974L52.1415 51.943C51.9822 52.0351 52.0024 52.1954 52.1858 52.3019L52.8344 52.677C53.0179 52.7832 53.2959 52.7949 53.4546 52.7025Z" fill="#5F92D3"/>
<path d="M50.425 54.4555L52.4048 53.3102C52.5638 53.2181 52.5437 53.0575 52.3602 52.9513L51.7119 52.5762C51.5284 52.47 51.2507 52.4586 51.0914 52.5503L49.1117 53.6956C48.9527 53.7877 48.9728 53.9484 49.1563 54.0545L49.8046 54.4299C49.9883 54.5358 50.266 54.5472 50.425 54.4555Z" fill="#5F92D3"/>
<path d="M47.3955 56.2083L49.3752 55.063C49.5342 54.9706 49.5141 54.8103 49.3306 54.7038L48.6823 54.3287C48.4986 54.2229 48.2212 54.2108 48.0619 54.3032L46.0821 55.4485C45.9232 55.5402 45.9433 55.7009 46.1267 55.8071L46.775 56.1824C46.9588 56.2886 47.2362 56.3001 47.3955 56.2083Z" fill="#5F92D3"/>
<path d="M30.4812 65.9931L32.4609 64.8478C32.6203 64.7557 32.6001 64.5954 32.4167 64.4889L31.768 64.1139C31.5846 64.0077 31.3069 63.9962 31.1479 64.088L29.1682 65.2333C29.0089 65.3257 29.029 65.486 29.2128 65.5925L29.8611 65.9676C30.0445 66.0734 30.3222 66.0852 30.4812 65.9931Z" fill="#5F92D3"/>
<path d="M27.4517 67.7459L29.4314 66.6006C29.5907 66.5086 29.5706 66.3479 29.3868 66.2417L28.7385 65.8663C28.5551 65.7605 28.2774 65.7487 28.1184 65.8408L26.1386 66.9861C25.9793 67.0782 25.9994 67.2388 26.1832 67.3447L26.8315 67.7204C27.015 67.8263 27.2927 67.8377 27.4517 67.7459Z" fill="#5F92D3"/>
<path d="M24.422 69.4989L26.4018 68.3532C26.5608 68.2611 26.541 68.1005 26.3572 67.9943L25.7089 67.6193C25.5254 67.5131 25.2477 67.5013 25.0884 67.5937L23.1087 68.739C22.9497 68.8308 22.9698 68.9914 23.1533 69.0976L23.8016 69.4727C23.9854 69.5792 24.2631 69.5906 24.422 69.4989Z" fill="#5F92D3"/>
<path d="M21.3925 71.2511L23.3723 70.1058C23.5309 70.0141 23.5111 69.8531 23.3276 69.7472L22.679 69.3722C22.4955 69.2657 22.2179 69.2543 22.0589 69.3463L20.0788 70.4916C19.9201 70.5834 19.9399 70.7443 20.1234 70.8505L20.772 71.2256C20.9558 71.3318 21.2332 71.3432 21.3925 71.2511Z" fill="#5F92D3"/>
<path d="M51.3983 57.5122L53.3784 56.3662C53.537 56.2745 53.5176 56.1142 53.3338 56.0077L51.3721 54.8728C51.1883 54.7669 50.9106 54.7552 50.752 54.8472L48.7719 55.9925C48.6133 56.0846 48.6327 56.2449 48.8165 56.3514L50.7782 57.4863C50.962 57.5925 51.2397 57.604 51.3983 57.5122Z" fill="#5F92D3"/>
<path d="M48.3409 59.2806L50.3206 58.1353C50.4796 58.0436 50.4595 57.8829 50.2764 57.7767L48.3144 56.6418C48.1309 56.5353 47.8532 56.5239 47.6942 56.616L45.7144 57.7613C45.5551 57.8533 45.5753 58.014 45.7591 58.1202L47.7204 59.2551C47.9042 59.3612 48.1815 59.373 48.3409 59.2806Z" fill="#5F92D3"/>
<path d="M45.2834 61.0496L47.2632 59.9043C47.4225 59.8122 47.4023 59.6516 47.2185 59.5454L45.2572 58.4108C45.0734 58.3043 44.7961 58.2929 44.6368 58.3846L42.657 59.5303C42.498 59.622 42.5182 59.783 42.7016 59.8888L44.6633 61.0241C44.8467 61.1299 45.1244 61.1413 45.2834 61.0496Z" fill="#5F92D3"/>
<path d="M42.2259 62.8187L44.2057 61.6734C44.3647 61.5813 44.3449 61.4206 44.1611 61.3141L42.1998 60.1792C42.016 60.0734 41.7383 60.0619 41.5793 60.1537L39.5995 61.299C39.4406 61.3911 39.4603 61.5517 39.6438 61.6579L41.6055 62.7928C41.7893 62.899 42.067 62.9104 42.2259 62.8187Z" fill="#5F92D3"/>
<path d="M39.1683 64.5873L41.1484 63.442C41.307 63.35 41.2872 63.1893 41.1038 63.0831L39.1418 61.9483C38.9583 61.8421 38.6806 61.8303 38.522 61.9227L36.5419 63.068C36.3829 63.1597 36.4027 63.3204 36.5865 63.4266L38.5481 64.5615C38.7319 64.668 39.0093 64.6794 39.1683 64.5873Z" fill="#5F92D3"/>
<path d="M36.1105 66.356L38.0906 65.2107C38.2496 65.1187 38.2298 64.9584 38.046 64.8518L36.0844 63.7173C35.9006 63.6107 35.6232 63.5993 35.4642 63.6911L33.4841 64.8367C33.3255 64.9288 33.3453 65.0894 33.5287 65.1956L35.4907 66.3305C35.6742 66.4364 35.9519 66.4481 36.1105 66.356Z" fill="#5F92D3"/>
<path d="M33.0532 68.1251L35.033 66.9798C35.192 66.8877 35.1722 66.7271 34.9887 66.6209L33.0271 65.486C32.8433 65.3798 32.5656 65.3684 32.4066 65.4601L30.4268 66.6054C30.2679 66.6975 30.2876 66.8581 30.4714 66.9647L32.4328 68.0996C32.6166 68.2054 32.8942 68.2168 33.0532 68.1251Z" fill="#5F92D3"/>
<path d="M29.9958 69.8938L31.9755 68.7485C32.1345 68.6567 32.1144 68.4958 31.9309 68.3899L29.9693 67.2547C29.7858 67.1485 29.5081 67.1371 29.3492 67.2291L27.3694 68.3745C27.2101 68.4662 27.2302 68.6272 27.414 68.733L29.3753 69.8679C29.5591 69.9745 29.8365 69.9859 29.9958 69.8938Z" fill="#5F92D3"/>
<path d="M26.9382 71.6628L28.918 70.5175C29.0773 70.425 29.0571 70.2647 28.8733 70.1585L26.912 69.0237C26.7282 68.9175 26.4509 68.9057 26.2916 68.9978L24.3118 70.1434C24.1528 70.2352 24.173 70.3958 24.3561 70.502L26.3181 71.6369C26.5015 71.7431 26.7792 71.7549 26.9382 71.6628Z" fill="#5F92D3"/>
<path d="M68.879 57.7304L74.7099 54.357C74.8689 54.2652 74.8488 54.1046 74.6653 53.9984L72.7037 52.8635C72.5202 52.757 72.2425 52.7455 72.0836 52.8376L66.2526 56.211C66.0936 56.3028 66.1134 56.4637 66.2969 56.5696L68.2589 57.7048C68.4426 57.8107 68.72 57.8224 68.879 57.7304Z" fill="#5F92D3"/>
<path d="M31.3161 79.4607L37.1471 76.0877C37.3061 75.9959 37.2863 75.8349 37.1025 75.7291L35.1412 74.5939C34.9574 74.4877 34.6797 74.4763 34.5207 74.5683L28.6897 77.9417C28.5307 78.0335 28.5505 78.1941 28.7343 78.3003L30.696 79.4352C30.8798 79.5414 31.1575 79.5531 31.3161 79.4607Z" fill="#5F92D3"/>
<path d="M43.5437 76.2941L45.5238 75.1488C45.6827 75.057 45.663 74.8964 45.4792 74.7902L43.1422 73.4382C42.9587 73.332 42.681 73.3206 42.5217 73.4124L40.542 74.5577C40.3833 74.6497 40.4031 74.8104 40.5865 74.9166L42.9239 76.2685C43.1073 76.3751 43.385 76.3865 43.5437 76.2941Z" fill="#5F92D3"/>
<path d="M65.7477 63.4491L68.914 61.6172C69.073 61.5252 69.0532 61.3649 68.8694 61.2583L66.5325 59.9067C66.349 59.8002 66.0713 59.7887 65.9123 59.8808L62.746 61.7127C62.587 61.8044 62.6068 61.9651 62.7906 62.0713L65.1276 63.4232C65.311 63.5294 65.5887 63.5408 65.7477 63.4491Z" fill="#5F92D3"/>
<path d="M46.49 74.5899L49.6563 72.7583C49.8153 72.6659 49.7952 72.5056 49.6117 72.3994L47.2744 71.0474C47.0913 70.9413 46.8133 70.9295 46.6547 71.0216L43.488 72.8534C43.3293 72.9455 43.3491 73.1062 43.5326 73.212L45.8695 74.5643C46.0533 74.6702 46.331 74.6819 46.49 74.5899Z" fill="#5F92D3"/>
<path d="M61.3364 66.0008L64.5028 64.1693C64.6618 64.0772 64.642 63.9166 64.4582 63.8104L62.1212 62.4584C61.9378 62.3522 61.6601 62.3408 61.5011 62.4325L58.3347 64.2644C58.1758 64.3565 58.1956 64.5171 58.3793 64.6233L60.7163 65.9753C60.8998 66.0815 61.1775 66.0929 61.3364 66.0008Z" fill="#5F92D3"/>
<path d="M61.4797 62.4449L47.7132 70.4092C47.5422 70.5084 47.5422 70.6683 47.7132 70.7671L50.0961 72.146C50.2668 72.2448 50.5439 72.2448 50.7149 72.146L64.4814 64.1813L61.4797 62.4449Z" fill="#5F92D3"/>
<path d="M34.9984 79.5015L32.7933 80.7772C32.6628 80.8528 32.6793 80.9842 32.8295 81.0712L33.7857 81.6247C33.9363 81.7114 34.1637 81.7212 34.2938 81.6455L36.4993 80.3695C36.6297 80.2946 36.6133 80.1625 36.4627 80.0755L35.5069 79.5226C35.3563 79.4356 35.1289 79.4262 34.9984 79.5015Z" fill="#5F92D3"/>
<path d="M38.0812 77.718L35.8761 78.994C35.7456 79.0693 35.7621 79.201 35.9123 79.2881L36.8685 79.8409C37.0187 79.9279 37.2465 79.9374 37.3769 79.8621L39.5824 78.5864C39.7125 78.5108 39.6961 78.379 39.5455 78.2923L38.5897 77.7392C38.4394 77.6518 38.2117 77.6427 38.0812 77.718Z" fill="#5F92D3"/>
<path d="M41.1386 75.9489L38.9335 77.2249C38.8034 77.3002 38.8195 77.432 38.97 77.519L39.9259 78.0718C40.0765 78.1592 40.3042 78.1683 40.4343 78.0933L42.6398 76.8173C42.7703 76.7417 42.7539 76.6103 42.6033 76.5232L41.6474 75.9701C41.4968 75.8834 41.2691 75.8736 41.1386 75.9489Z" fill="#5F92D3"/>
<path d="M36.3929 76.7411L34.1874 78.0171C34.0573 78.0924 34.0737 78.2242 34.224 78.3112L35.1802 78.8643C35.3304 78.9514 35.5581 78.9608 35.6883 78.8852L37.8938 77.6095C38.0239 77.5342 38.0078 77.4025 37.8572 77.3151L36.9014 76.7623C36.7508 76.6753 36.5234 76.6659 36.3929 76.7411Z" fill="#5F92D3"/>
<path d="M24.3151 42.2261L40.7848 32.6984L40.5729 31.6257L24.1035 41.1534L24.3151 42.2261Z" fill="#D9EFFB"/>
<path d="M30.2139 44.0369L41.7105 37.3859L41.4986 36.3132L30.0019 42.9642L30.2139 44.0369Z" fill="#D9EFFB"/>
<path d="M31.3014 40.7958L41.2476 35.0421L41.0356 33.9694L31.0901 39.7231L31.3014 40.7958Z" fill="white"/>
<path d="M24.7779 44.5698L29.751 41.6928L29.5394 40.6201L24.5663 43.4971L24.7779 44.5698Z" fill="#714091"/>
<path d="M42.5385 23.3384L47.5112 20.4614L47.2999 19.3884L42.3265 22.2657L42.5385 23.3384Z" fill="#D9EFFB"/>
<path d="M43.0786 25.8317L48.0513 22.9547L47.8393 21.882L42.8666 24.759L43.0786 25.8317Z" fill="white"/>
<path d="M18.6702 60.4138L23.6433 57.5371L23.4317 56.4644L18.4586 59.3411L18.6702 60.4138Z" fill="#D9EFFB"/>
<path d="M44.1573 30.8182L49.1304 27.9411L48.9184 26.8684L43.9457 29.7455L44.1573 30.8182Z" fill="#D9EFFB"/>
<path d="M33.4127 31.5904C33.571 31.9369 33.9715 32.0603 34.3069 31.8664C34.6419 31.6724 34.7855 31.2342 34.6268 30.8881C34.4685 30.5416 34.0681 30.4183 33.7327 30.6122C33.3976 30.8061 33.2544 31.2443 33.4127 31.5904Z" fill="#714091"/>
<path d="M31.2709 32.8295C31.4292 33.1763 31.8297 33.2997 32.1651 33.1057C32.5005 32.9118 32.6433 32.4736 32.485 32.1275C32.3267 31.7806 31.9263 31.6573 31.5912 31.8512C31.2558 32.0451 31.1123 32.4834 31.2709 32.8295Z" fill="white"/>
<path d="M29.1288 34.0688C29.2874 34.415 29.6876 34.5387 30.0229 34.3448C30.3583 34.1508 30.5015 33.7126 30.3432 33.3661C30.1846 33.02 29.7845 32.8963 29.4491 33.0906C29.1137 33.2845 28.9702 33.7227 29.1288 34.0688Z" fill="#D9EFFB"/>
<path d="M26.9868 35.308C27.1454 35.6544 27.5455 35.7781 27.8809 35.5842C28.2163 35.39 28.3598 34.9521 28.2012 34.6056C28.0429 34.2591 27.6424 34.1355 27.3071 34.3294C26.9717 34.5236 26.8285 34.9615 26.9868 35.308Z" fill="#714091"/>
<path d="M37.6704 123.469C38.1067 123.469 38.5431 123.373 38.8758 123.18C39.5419 122.795 39.5422 122.17 38.8758 121.785L7.7736 103.785C7.44057 103.593 7.00422 103.496 6.56789 103.496C6.13156 103.496 5.69522 103.593 5.36252 103.785C4.69645 104.17 4.69645 104.795 5.36252 105.18L36.4647 123.18C36.7977 123.373 37.2341 123.469 37.6704 123.469Z" fill="#899ABF"/>
<path d="M0.0470296 94.0345C0.0768786 93.9837 0.135918 93.9579 0.193268 93.9703L2.07477 94.3793L1.3339 95.6422L0.0624723 94.1938C0.0235678 94.1498 0.0171805 94.0856 0.0470296 94.0345Z" fill="#D9EFFB"/>
<path d="M0.789238 94.9663C0.791251 94.6941 0.984428 94.3651 1.22054 94.231C1.32954 94.1692 1.42781 94.1615 1.5026 94.1961C3.67691 94.1783 5.81498 94.7519 7.68945 95.8555L7.82529 95.9359L5.48864 99.9196L4.79843 99.4612C3.33783 98.4903 2.10697 97.2119 1.1917 95.7141L0.896224 95.2308C0.829482 95.1817 0.788232 95.0923 0.789238 94.9663Z" fill="#5F92D3"/>
<path d="M5.01899 98.8583C5.02737 97.8161 5.76723 96.5549 6.67143 96.0411C7.57596 95.5276 8.30242 95.9554 8.29471 96.9972C8.28632 98.0389 7.54645 99.2998 6.64192 99.814C5.73772 100.328 5.01094 99.9001 5.01899 98.8583Z" fill="#D9EFFB"/>
<path d="M19.3578 108.578L5.48867 99.9195L7.8253 95.9359L22.119 103.87L19.3578 108.578Z" fill="#D9EFFB"/>
<path d="M18.8033 107.323C18.8127 106.092 19.6871 104.602 20.7559 103.995C21.8248 103.388 22.6831 103.893 22.6737 105.124C22.6639 106.355 21.7899 107.846 20.7214 108.453C19.6522 109.06 18.7936 108.554 18.8033 107.323Z" fill="#D9EFFB"/>
<path d="M19.5945 107.789C19.6039 106.558 20.4783 105.068 21.5468 104.461C22.6157 103.854 23.4746 104.36 23.4649 105.591C23.4555 106.822 22.5811 108.312 21.5122 108.919C20.4434 109.526 19.5848 109.02 19.5945 107.789Z" fill="#D9EFFB"/>
<path d="M38.4979 119.851L20.149 109.044L22.9106 104.336L41.2595 115.144L38.4979 119.851Z" fill="#D9EFFB"/>
<path d="M37.9433 118.597C37.9527 117.366 38.827 115.876 39.8959 115.268C40.9647 114.661 41.8233 115.167 41.8136 116.398C41.8042 117.629 40.9299 119.119 39.8613 119.726C38.7925 120.333 37.9339 119.827 37.9433 118.597Z" fill="#D9EFFB"/>
<path d="M38.6363 118.203C38.6786 117.476 39.2688 116.571 39.955 116.182C40.6416 115.792 41.1638 116.065 41.1215 116.791C41.0789 117.518 40.4883 118.423 39.8021 118.813C39.1159 119.203 38.594 118.93 38.6363 118.203Z" fill="#4067B1"/>
<path d="M18.6639 107.241C18.6733 106.01 19.548 104.52 20.6165 103.913C21.0468 103.668 21.4419 103.607 21.7612 103.698C21.4144 103.335 20.8456 103.292 20.1976 103.66C19.1288 104.267 18.2547 105.757 18.245 106.988C18.2393 107.724 18.5445 108.197 19.0181 108.333C18.7927 108.096 18.6602 107.727 18.6639 107.241Z" fill="white"/>
<path d="M18.6639 107.241C18.6733 106.01 19.5476 104.52 20.6165 103.913C21.1507 103.609 21.6327 103.584 21.9798 103.788L23.0195 104.401L22.5241 105.245C22.4336 106.365 21.686 107.64 20.7533 108.263L20.2583 109.108L19.2182 108.496C18.8715 108.291 18.6592 107.857 18.6639 107.241Z" fill="#5F92D3"/>
<path d="M19.7036 107.854C19.7133 106.623 20.5873 105.132 21.6562 104.525C22.7247 103.918 23.5836 104.423 23.5739 105.655C23.5642 106.886 22.6901 108.376 21.6213 108.983C20.5527 109.59 19.6938 109.085 19.7036 107.854Z" fill="#D9EFFB"/>
<path d="M39.4999 118.749L40.6912 116.719L44.5803 119.01C45.14 119.339 45.3272 120.061 44.9978 120.622C44.6692 121.183 43.9484 121.37 43.389 121.04L39.4999 118.749Z" fill="#714091"/>
<path d="M39.2607 118.209C39.2647 117.677 39.642 117.035 40.1032 116.773C40.5643 116.511 40.9346 116.729 40.9302 117.26C40.9262 117.791 40.5492 118.434 40.0881 118.696C39.6269 118.958 39.2563 118.74 39.2607 118.209Z" fill="#EE1696"/>
<path d="M34.938 111.039L35.521 110.708C35.856 110.518 36.2994 110.566 36.7686 110.842L38.7671 112.019C39.1444 112.241 39.4483 112.779 39.4453 113.217L39.4372 114.22C39.4359 114.388 39.5184 114.581 39.6385 114.723L39.5637 115.188L40.0621 114.901L40.061 114.901C40.1328 114.864 40.1788 114.78 40.1798 114.657L40.1878 113.654C40.1945 112.74 39.5603 111.62 38.7738 111.156L36.7753 109.979C36.1075 109.586 35.4777 109.519 35.0008 109.789L34.4175 110.12C34.0828 110.311 33.6398 110.263 33.1702 109.987L25.114 105.242C25.01 105.18 24.9157 105.175 24.8477 105.216V105.215L24.351 105.501L24.7762 105.665C24.8353 105.844 24.9603 106.018 25.1076 106.105L33.1635 110.85C33.8313 111.243 34.4615 111.31 34.938 111.039Z" fill="#5F92D3"/>
<path d="M35.0165 110.998C35.3515 110.808 35.7942 110.855 36.2637 111.131L38.2623 112.308C38.6396 112.531 38.9438 113.068 38.9404 113.507L38.9324 114.509C38.9304 114.747 39.0954 115.038 39.3003 115.159C39.5052 115.28 39.6729 115.184 39.6749 114.946L39.6827 113.944C39.6897 113.03 39.0558 111.909 38.269 111.446L36.2704 110.268C35.603 109.875 34.9725 109.808 34.4959 110.079L33.913 110.41C33.578 110.6 33.1349 110.553 32.6654 110.276L24.6092 105.531C24.4042 105.41 24.2365 105.506 24.2345 105.744C24.2329 105.982 24.3975 106.273 24.6028 106.394L32.6584 111.139C33.3265 111.532 33.9566 111.6 34.4332 111.329L35.0165 110.998Z" fill="#5F92D3"/>
<path d="M38.9653 113.672L38.958 114.674L38.9606 114.695C38.9425 114.632 38.9321 114.569 38.9325 114.509L38.9405 113.507L38.9338 113.419C38.9529 113.505 38.966 113.591 38.9653 113.672Z" fill="white"/>
<path d="M80.1321 120.834C80.8093 120.834 81.4556 120.697 81.9385 120.417L93.2024 113.901C94.011 113.433 94.1277 112.701 93.6001 112.063L96.7263 110.23C98.9166 111.381 101.688 111.957 104.458 111.957C107.393 111.957 110.327 111.31 112.568 110.014C116.93 107.49 117.051 103.445 112.935 100.835C112.86 100.903 112.781 100.97 112.7 101.036C112.601 101.288 112.471 101.536 112.312 101.779C114.866 103.934 114.491 106.901 111.182 108.815C109.314 109.896 106.867 110.436 104.419 110.436C101.971 110.436 99.523 109.896 97.6553 108.815C94.9018 107.222 94.1807 104.9 95.4867 102.924C95.1131 102.603 94.8015 102.267 94.555 101.917C92.1744 104.234 92.4377 107.207 95.3458 109.378L92.2462 111.196C91.7109 111.005 91.118 110.907 90.5475 110.907C89.872 110.907 89.2274 111.044 88.7455 111.323L77.4816 117.839C76.4154 118.455 76.5492 119.532 77.7801 120.245C78.4529 120.634 79.3148 120.834 80.1321 120.834Z" fill="#899ABF"/>
<path d="M93.5979 100.227L95.1889 98.1492L100.019 95.8999L104.18 95.5299L109.054 96.1274L112.435 97.8783L114.594 99.2592L114.982 97.0103L114.253 94.4196C114.253 94.4196 112.407 93.1953 112.293 93.0814C112.179 92.9678 107.974 91.4585 107.974 91.4585L103.769 91.1739L100.388 91.601L96.9504 92.626L94.6775 94.2199L92.9727 96.3838L92.7809 99.0885L93.5979 100.227Z" fill="#714091"/>
<path d="M116.15 97.5577V101.935L114.982 100.037L116.15 97.5577Z" fill="#D1078D"/>
<path d="M96.8074 97.7852C100.879 95.4298 107.481 95.4298 111.553 97.7852C112.834 98.5263 113.711 99.4121 114.186 100.351C114.544 100.03 115.006 99.7771 115.198 99.3439C114.615 98.5484 113.765 97.8024 112.644 97.1541C107.97 94.4495 100.391 94.4495 95.716 97.1538C94.6931 97.7456 93.8939 98.4177 93.3187 99.1355C93.5072 99.5768 93.7926 100.003 94.1729 100.355C94.6475 99.4141 95.5252 98.5273 96.8074 97.7852Z" fill="#D1078D"/>
<path d="M104.181 103.59C106.849 103.59 109.517 103.001 111.553 101.823C111.98 101.576 112.363 101.312 112.7 101.036C112.7 101.036 112.7 101.036 112.7 101.036C112.698 101.038 112.695 101.04 112.693 101.042C112.512 100.919 112.325 100.798 112.124 100.682C110.088 99.5042 107.42 98.9154 104.751 98.9154C102.083 98.9154 99.4142 99.5045 97.3785 100.682C96.9532 100.928 96.5762 101.191 96.2408 101.466C95.4923 100.958 94.9131 100.395 94.5025 99.803L94.5022 99.8033C95.0103 100.539 95.7787 101.228 96.8076 101.823C98.8438 103.001 101.512 103.59 104.181 103.59ZM112.935 100.835C113.304 100.506 113.612 100.16 113.859 99.8036C113.858 99.8036 113.858 99.8036 113.858 99.8033C113.612 100.16 113.304 100.506 112.935 100.835H112.935Z" fill="#EEF8FD"/>
<path d="M112.7 101.036C112.781 100.97 112.86 100.903 112.935 100.835H112.935C112.86 100.903 112.781 100.97 112.701 101.036C112.701 101.036 112.7 101.036 112.7 101.036Z" fill="#B2C6E2"/>
<path d="M96.2408 101.466C96.5762 101.191 96.9532 100.928 97.3785 100.682C99.4143 99.5045 102.083 98.9154 104.751 98.9154C107.42 98.9154 110.088 99.5042 112.124 100.682C112.325 100.798 112.512 100.919 112.693 101.042C112.695 101.04 112.698 101.038 112.7 101.036C112.738 100.941 112.771 100.846 112.798 100.75C112.844 100.779 112.89 100.807 112.935 100.835C113.304 100.506 113.612 100.16 113.858 99.8033C113.349 99.069 112.581 98.38 111.553 97.7852C109.517 96.6073 106.848 96.0186 104.18 96.0186C101.512 96.0186 98.8431 96.6077 96.8073 97.7852C95.7794 98.38 95.0113 99.0683 94.5025 99.8029C94.9131 100.395 95.4923 100.958 96.2408 101.466Z" fill="#E4F4FC"/>
<path d="M112.701 101.036C112.781 100.97 112.86 100.903 112.935 100.835C112.89 100.807 112.844 100.779 112.799 100.75C112.771 100.846 112.738 100.941 112.701 101.036Z" fill="#C6DCF1"/>
<path d="M114.473 98.5148C114.488 98.459 114.503 98.4029 114.515 98.3471C114.227 97.0754 113.241 95.8471 111.553 94.8705C109.517 93.6926 106.848 93.1035 104.18 93.1035C101.511 93.1035 98.8434 93.6923 96.8073 94.8702C95.1193 95.8468 94.1333 97.0751 93.8452 98.3464C93.8576 98.4019 93.8717 98.457 93.8868 98.5124C94.3855 98.0278 94.9952 97.5708 95.716 97.1537C98.0533 95.8014 101.116 95.1256 104.18 95.1256C107.243 95.1256 110.307 95.8017 112.644 97.1541C113.366 97.5714 113.975 98.0292 114.473 98.5148Z" fill="#CA5FB6"/>
<path d="M113.859 99.8036C114.147 99.3859 114.352 98.9534 114.473 98.5148C113.975 98.0292 113.366 97.5715 112.644 97.1541C110.307 95.8018 107.243 95.1256 104.18 95.1256C101.116 95.1256 98.0534 95.8014 95.7161 97.1537C94.9954 97.5708 94.3857 98.0278 93.8869 98.5124C94.008 98.952 94.2133 99.3852 94.5024 99.8033L94.5027 99.8029C95.0115 99.0683 95.7795 98.38 96.8075 97.7852C98.8432 96.6076 101.512 96.0185 104.18 96.0185C106.849 96.0185 109.517 96.6073 111.553 97.7852C112.581 98.38 113.35 99.069 113.858 99.8033C113.858 99.8036 113.858 99.8036 113.859 99.8036Z" fill="#CA5FB6"/>
<path d="M115.198 99.3439C115.117 99.5281 114.985 99.679 114.834 99.8171L114.831 99.7717L113.751 100.417L112.425 101.651L110.588 102.467L108.05 103.378L105.796 103.909L102.689 104.042L100.682 103.833L96.704 102.789L94.1118 100.493C94.1329 100.447 94.1497 100.401 94.1729 100.355C93.7925 100.003 93.5071 99.5768 93.3186 99.1356C93.2485 99.2233 93.1821 99.3117 93.1187 99.4L92.2102 97.5036V102.051L92.2122 102.047C92.2105 103.82 93.377 105.594 95.7163 106.947C100.391 109.651 107.97 109.652 112.644 106.947C116.198 104.892 117.047 101.865 115.198 99.3439Z" fill="#714091"/>
<path d="M95.0466 101.321L94.1119 100.493C94.133 100.447 94.1498 100.401 94.1729 100.355C93.7926 100.003 93.5072 99.5768 93.3187 99.1356C93.2486 99.2233 93.1822 99.3117 93.1188 99.4001L92.2102 97.5037V102.051L92.2122 102.047C92.2106 103.641 93.1567 105.235 95.0466 106.524V101.321Z" fill="#714091"/>
<path d="M111.553 93.2924C107.481 90.937 100.879 90.937 96.8073 93.2924C92.7357 95.6479 92.7357 99.4669 96.8076 101.823C100.879 104.178 107.481 104.178 111.553 101.823C115.625 99.4672 115.625 95.6482 111.553 93.2924ZM112.644 102.454C107.97 105.159 100.391 105.159 95.7162 102.454C91.0413 99.7499 91.0413 95.3653 95.7159 92.661C100.39 89.9567 107.97 89.957 112.644 92.661C117.319 95.3653 117.319 99.7502 112.644 102.454Z" fill="#714091"/>
<path d="M87.8865 107.417L94.5211 103.549L95.4031 104.981L88.7384 108.87L87.8865 107.417Z" fill="#D9EFFB"/>
<path d="M88.9074 108.487C88.9074 108.867 88.6411 109.021 88.3125 108.832C87.9841 108.641 87.7178 108.179 87.7178 107.799C87.7178 107.419 87.9841 107.265 88.3125 107.455C88.6411 107.645 88.9074 108.107 88.9074 108.487Z" fill="#7844A6"/>
<path d="M88.9074 108.487C88.9074 108.867 88.6411 109.021 88.3125 108.832C87.9841 108.641 87.7178 108.179 87.7178 107.799C87.7178 107.419 87.9841 107.265 88.3125 107.455C88.6411 107.645 88.9074 108.107 88.9074 108.487Z" fill="#7844A6"/>
<path d="M95.5439 104.618C95.5439 104.997 95.2776 105.152 94.9489 104.962C94.6206 104.772 94.3543 104.31 94.3543 103.93C94.3543 103.55 94.6206 103.395 94.9489 103.585C95.2776 103.776 95.5439 104.238 95.5439 104.618Z" fill="#D9EFFB"/>
<path d="M92.171 108.768C92.171 107.133 91.0253 105.145 89.612 104.327C88.8886 103.908 88.2366 103.88 87.7711 104.169L87.7704 104.168L73.7437 112.336L77.4091 118.588L91.2876 110.491C91.3829 110.451 91.4721 110.399 91.5542 110.336L91.566 110.329L91.5653 110.328C91.9423 110.031 92.171 109.497 92.171 108.768Z" fill="#5F92D3"/>
<path d="M74.7589 114.068L90.4579 104.985C90.1926 104.725 89.9089 104.499 89.612 104.327C88.8886 103.908 88.2366 103.88 87.7711 104.169L87.7705 104.168L73.7437 112.336L74.7589 114.068Z" fill="#D9EFFB"/>
<path d="M78.1355 116.942C78.1355 118.578 76.9898 119.24 75.5765 118.423C74.1632 117.605 73.0175 115.617 73.0175 113.982C73.0175 112.347 74.1632 111.684 75.5765 112.501C76.9898 113.319 78.1355 115.307 78.1355 116.942Z" fill="#D9EFFB"/>
<path d="M76.0575 116.179C76.0575 117.101 75.3112 117.849 74.3906 117.849C73.47 117.849 72.7237 117.101 72.7237 116.179C72.7237 115.256 73.47 114.508 74.3906 114.508C75.3112 114.508 76.0575 115.256 76.0575 116.179Z" fill="#5F92D3"/>
<path d="M74.0858 115.567C74.0858 115.839 73.8654 116.06 73.5931 116.06C73.3211 116.06 73.1008 115.839 73.1008 115.567C73.1008 115.294 73.3211 115.073 73.5931 115.073C73.8654 115.073 74.0858 115.294 74.0858 115.567Z" fill="white"/>
<path d="M75.7655 112.391C75.0092 111.954 74.3317 111.944 73.8632 112.276C74.3169 112.064 74.9166 112.12 75.5766 112.501C76.9899 113.319 78.1356 115.307 78.1356 116.943C78.1356 117.703 77.8858 118.249 77.4786 118.538C77.9968 118.296 78.3241 117.704 78.3241 116.832C78.3241 115.198 77.1784 113.209 75.7655 112.391Z" fill="white"/>
<path d="M111.553 93.2925C107.481 90.937 100.879 90.937 96.8073 93.2925C94.6873 94.5191 93.6738 96.1426 93.7617 97.7497C93.8425 96.271 94.856 94.8058 96.8073 93.6769C100.879 91.3211 107.481 91.3215 111.553 93.6769C113.504 94.8058 114.518 96.2713 114.599 97.75C114.687 96.143 113.673 94.5194 111.553 93.2925Z" fill="white"/>
<path d="M112.645 102.454C107.97 105.159 100.391 105.159 95.7164 102.454C93.4636 101.151 92.2995 99.4575 92.218 97.7496C92.1305 99.5855 93.2942 101.438 95.7164 102.839C100.391 105.543 107.97 105.543 112.645 102.839C115.066 101.438 116.23 99.5858 116.143 97.7499C116.061 99.4578 114.897 101.151 112.645 102.454Z" fill="white"/>
<path d="M72.8134 93.3445C72.8134 93.3445 74.0711 92.709 74.8435 93.6553C75.6155 94.6014 76.7196 96.8348 76.7538 98.3444C76.788 99.8537 75.5619 99.7518 74.8328 99.3946C74.104 99.0374 71.9746 95.9422 71.8458 95.3356C71.7167 94.7294 71.9978 93.9094 72.2027 93.7491C72.4076 93.5885 72.8134 93.3445 72.8134 93.3445Z" fill="#714091"/>
<path d="M72.539 93.0407L72.481 94.3463C72.4686 94.6235 72.6081 94.888 72.8489 95.0255C73.0689 95.1501 73.3878 95.2459 73.8191 95.1763C74.7663 95.0241 74.8508 94.7526 74.9185 93.4473C74.9863 92.1424 72.539 93.0407 72.539 93.0407Z" fill="#D9EFFB"/>
<path d="M77.4164 90.8341C77.4164 90.8341 78.6741 90.1986 79.4465 91.145C80.2189 92.091 81.3226 94.3251 81.3568 95.8344C81.391 97.3436 80.1649 97.2414 79.4361 96.8845C78.707 96.527 76.5776 93.4322 76.4488 92.8259C76.32 92.2193 76.6011 91.3994 76.8057 91.2387C77.0106 91.0788 77.4164 90.8341 77.4164 90.8341Z" fill="#714091"/>
<path d="M77.1421 90.5306L77.0841 91.8359C77.0717 92.1138 77.2109 92.3783 77.4524 92.5151C77.6717 92.6401 77.991 92.7355 78.4223 92.6663C79.3697 92.5137 79.4543 92.2425 79.522 90.9376C79.5894 89.6323 77.1421 90.5306 77.1421 90.5306Z" fill="#D9EFFB"/>
<path d="M65.9211 66.5627C66.293 60.4945 72.4799 67.4557 72.4799 67.4557L76.7138 71.6141L80.5264 75.8108C81.2709 76.6302 81.6174 77.7371 81.4732 78.8361L79.9308 90.6039C79.855 91.185 79.3586 91.6135 78.7737 91.6091C78.6083 91.6078 78.4192 91.593 78.2022 91.5587C76.8264 91.3443 76.9277 90.0333 76.9277 90.0333L77.2098 79.0269L69.2028 74.1907C69.2028 74.1907 65.5492 72.631 65.9211 66.5627Z" fill="#263C7A"/>
<path d="M61.3177 68.8748C61.6903 62.8066 67.8765 69.7674 67.8765 69.7674L72.1103 73.9258L75.923 78.1229C76.6679 78.9422 77.0143 80.0492 76.8704 81.1481L75.328 92.9157C75.2515 93.4971 74.7555 93.9255 74.1706 93.9212C74.0056 93.9198 73.8158 93.9047 73.5991 93.8708C72.2234 93.656 72.325 92.3454 72.325 92.3454L72.5987 81.6553L64.5998 76.5024C64.5998 76.5024 60.9457 74.9431 61.3177 68.8748Z" fill="#263C7A"/>
<path d="M64.9781 49.3954C60.2877 51.3439 60.3816 54.1221 60.3816 54.1221C60.3816 54.1221 61.3006 64.3064 60.9867 71.1083C60.8559 73.9517 76.0632 74.1685 73.7957 66.5829C71.1213 57.6386 72.1234 50.3978 70.8718 49.3056C69.6198 48.2134 66.1912 48.8916 64.9781 49.3954Z" fill="#714091"/>
<path d="M63.4692 51.8587C63.7143 52.8131 64.962 53.3158 66.2555 52.9818C67.5495 52.6481 68.3993 51.6039 68.1538 50.6495C67.9086 49.6954 66.661 49.1927 65.3674 49.5264C64.0735 49.8604 63.2237 50.9049 63.4692 51.8587Z" fill="#FAB6A9"/>
<path d="M65.3467 53.0026L66.2097 53.9416C66.3217 54.0632 66.3757 54.2279 66.3566 54.3926L65.7629 59.533C65.7468 59.6771 65.7864 59.822 65.8743 59.9372L67.7313 62.371C67.8135 62.4789 67.9828 62.4493 68.0241 62.3196L69.0346 59.132C69.0728 59.0114 69.0691 58.8813 69.0242 58.7627L67.2457 54.0945C67.2071 53.992 67.1984 53.8807 67.2209 53.7739L67.4808 52.5362L65.3467 53.0026Z" fill="white"/>
<path d="M66.17 49.6474C67.041 49.6474 67.7691 50.0534 67.9368 50.7056C68.0374 51.0962 67.9203 51.5226 67.6081 51.9064C67.2794 52.31 66.7794 52.6145 66.1995 52.7644C65.6196 52.9142 65.0347 52.89 64.5527 52.6951C64.0943 52.5103 63.7867 52.1937 63.6861 51.8025C63.4718 50.9701 64.2516 50.0466 65.4234 49.7438C65.677 49.6783 65.9288 49.6474 66.17 49.6474ZM65.4549 53.3101C65.736 53.3101 66.0251 53.2732 66.3115 53.1996C66.9833 53.0261 67.5668 52.6679 67.9556 52.1904C68.36 51.693 68.5079 51.1261 68.3711 50.5934C68.0951 49.521 66.724 48.9447 65.3114 49.309C63.9001 49.6733 62.9761 50.8424 63.2518 51.9148C63.3886 52.4471 63.7911 52.8726 64.3854 53.1118C64.7127 53.2439 65.0766 53.3101 65.4549 53.3101Z" fill="white"/>
<path d="M66.8582 49.1836C66.8582 49.1836 66.818 49.3721 66.8988 50.8616C66.9243 51.3294 65.2883 51.7669 64.8657 51.3432C64.4428 50.9194 64.6118 50.4788 64.5102 48.8855C64.4089 47.2923 66.8582 49.1836 66.8582 49.1836Z" fill="#FAB6A9"/>
<path d="M64.5102 48.8855C64.5102 48.8855 64.9133 50.3625 66.8991 50.9294L66.8689 49.5865L64.5102 48.8855Z" fill="#EB8B8A"/>
<path d="M63.2522 45.1317C62.7532 47.0661 63.9136 49.0394 65.8441 49.5395C67.7739 50.0396 69.7436 48.8768 70.2427 46.9428C70.7417 45.0087 69.5816 43.0354 67.6511 42.535C65.7207 42.0349 63.7513 43.1977 63.2522 45.1317Z" fill="#FAB6A9"/>
<path d="M65.9182 46.1702C65.9182 46.1702 67.906 47.0231 69.2824 47.0328C70.6585 47.0426 70.3553 45.8879 70.3553 45.8879L66.2697 45.2961L65.9182 46.1702Z" fill="#EB8B8A"/>
<path d="M69.6926 46.395C69.6926 46.395 67.961 45.6583 66.442 45.9651C66.0848 46.0374 65.7541 46.2289 65.5241 46.5119C65.4489 46.6047 65.3544 46.689 65.2464 46.7135C64.9771 46.7747 64.536 45.6546 64.0125 45.6291C63.489 45.6035 63.1395 45.9752 63.5688 46.6635C63.9984 47.3524 63.8532 48.123 63.6553 48.2336C63.4578 48.3441 61.0128 46.6346 62.8608 42.9661C64.7091 39.2977 69.7533 41.3755 70.4834 42.1189C70.4834 42.1189 71.2528 42.7904 71.8779 42.1932C71.8779 42.1932 72.5792 47.4559 69.6926 46.395Z" fill="#3D1399"/>
<path d="M63.0127 61.5625V64.3148C63.0127 64.63 63.1451 64.9308 63.3779 65.1432L69.0197 70.2974L68.3785 71.2794L60.6056 66.1726C60.2578 65.9198 60.0334 65.531 59.9888 65.1032L59.4572 59.9961L63.0127 61.5625Z" fill="#FAB6A9"/>
<path d="M60.7787 52.7459C60.7787 52.7459 59.0672 55.3252 58.4293 62.1146C58.4293 62.1146 61.3532 63.062 63.0127 62.5243C64.6718 61.9863 60.7787 52.7459 60.7787 52.7459Z" fill="#714091"/>
<path d="M63.3252 56.0071C63.3252 56.0071 63.9954 59.6009 64.0333 61.2896C64.0437 61.7537 63.7609 62.1728 63.3252 62.3307V56.0071Z" fill="#8958A9"/>
<path d="M64.7888 73.8757L66.0361 73.7107L74.0854 69.0539C74.3433 68.9047 74.7944 68.9235 75.0922 69.0956L80.7964 72.3943L81.5504 72.2945V73.0466H81.5493C81.554 73.1458 81.498 73.2409 81.3763 73.3114L72.2538 78.589C71.9956 78.7385 71.5452 78.7197 71.247 78.5469L65.035 74.9548C64.8677 74.858 64.7838 74.733 64.7888 74.6157V73.8757Z" fill="#5F92D3"/>
<path d="M70.8372 70.9332L71.409 70.6025H77.6965L80.7964 72.3944L81.5504 72.2946V73.0467H81.5493C81.554 73.1458 81.498 73.2409 81.3763 73.3115L72.2538 78.589C72.1177 78.668 71.9272 78.6996 71.7343 78.6865L70.8372 70.9332Z" fill="#4067B1"/>
<path d="M81.2156 72.3389L81.5504 72.2945V73.0466H81.5493C81.554 73.1458 81.498 73.2409 81.3763 73.3115L81.2156 73.4045V72.3389Z" fill="#5F92D3"/>
<path d="M72.162 78.6317C71.9175 78.7248 71.5677 78.7046 71.3068 78.5786V77.2992H72.162V78.6317Z" fill="#5F92D3"/>
<path d="M72.254 77.8376L81.3764 72.5601C81.6347 72.4109 81.6022 72.1498 81.304 71.9777L75.0923 68.3852C74.7945 68.2125 74.3434 68.194 74.0855 68.3432L64.9634 73.6207C64.7052 73.7703 64.7377 74.0311 65.0352 74.2035L71.2472 77.7956C71.5453 77.968 71.9957 77.9865 72.254 77.8376Z" fill="white"/>
<path d="M72.4081 77.0373L79.9935 72.6494C80.2082 72.5254 80.1813 72.3083 79.9331 72.1648L76.6048 70.2892C76.3566 70.1461 75.982 70.1306 75.7673 70.2546L68.1823 74.6426C67.9676 74.7669 67.9948 74.9837 68.2423 75.1272L71.571 77.0027C71.8189 77.1462 72.1935 77.1613 72.4081 77.0373Z" fill="#D9EFFB"/>
<path d="M74.7399 68.2121L74.8341 68.8426C74.9142 69.3799 74.9005 69.9274 74.7928 70.46L74.6805 71.0155C74.6174 71.3291 74.3696 71.5724 74.0557 71.6295C73.8102 71.6742 73.5787 71.5018 73.5509 71.2531L73.4006 69.9052C73.4006 69.9052 73.0559 70.3569 72.8898 70.3569C72.7238 70.3569 73.076 69.0069 73.452 68.2424C73.8276 67.4785 74.7399 68.2121 74.7399 68.2121Z" fill="#FAB6A9"/>
<path d="M71.6471 58.1877L72.6261 60.1291C72.8575 60.5882 72.994 61.0892 73.0269 61.6027L73.4518 68.2423L74.7397 68.2121L75.3239 60.7552C75.342 60.525 75.331 60.2931 75.2907 60.0656L74.623 56.2846L71.6471 58.1877Z" fill="#FAB6A9"/>
<path d="M72.5632 78.3444L73.3278 77.3436L81.3714 72.6774C81.6296 72.5275 81.8382 72.1269 81.8379 71.7821L81.8308 65.1832L82.2933 64.5783L81.859 64.3259L81.8583 64.3266C81.7752 64.2728 81.6645 64.2741 81.5427 64.345L72.4267 69.6333C72.1691 69.7829 71.9601 70.1838 71.9608 70.5286L71.9682 77.7153C71.9685 77.9092 72.0353 78.0439 72.1389 78.0984L72.5632 78.3444Z" fill="#263C7A"/>
<path d="M78.1255 74.5603L78.697 74.2289L81.8342 68.7689L81.8308 65.1832L82.2933 64.5783L81.859 64.3259L81.8583 64.3265C81.7752 64.2728 81.6645 64.2741 81.5427 64.345L72.4267 69.6333C72.2905 69.7123 72.1684 69.8622 72.0832 70.0359L78.1255 74.5603Z" fill="#4067B1"/>
<path d="M82.0881 64.8468L82.2933 64.5783L81.859 64.3259L81.8583 64.3266C81.7752 64.2728 81.6645 64.2741 81.5428 64.345L81.3824 64.4378L82.0881 64.8468Z" fill="#5F92D3"/>
<path d="M72.3438 69.6917C72.1415 69.8578 71.9846 70.1716 71.9635 70.4613L72.8539 70.9765L73.2809 70.2338L72.3438 69.6917Z" fill="#2E4B8D"/>
<path d="M72.8609 69.8854L81.977 64.5968C82.2349 64.4469 82.4445 64.6052 82.4449 64.95L82.4522 72.1367C82.4529 72.4815 82.244 72.8824 81.986 73.0316L72.8703 78.3205C72.6121 78.4701 72.4028 78.3118 72.4024 77.967L72.3947 70.7803C72.3944 70.4359 72.603 70.0349 72.8609 69.8854Z" fill="#5F92D3"/>
<path d="M68.3785 71.2793L68.5248 71.5828C68.6931 71.932 68.9574 72.2257 69.2867 72.429L70.192 72.9882C70.4737 73.1626 70.8309 73.1767 71.1166 73.01L71.1475 72.9912C71.4352 72.8104 71.4614 72.3967 71.2246 72.1524L70.2781 71.1778C70.2781 71.1778 70.8097 71.5861 70.959 71.4215C71.068 71.3012 70.4432 70.7134 69.9636 70.6939C69.484 70.6751 69.0198 70.2973 69.0198 70.2973L68.3785 71.2793Z" fill="#FAB6A9"/>
<path d="M70.7779 49.2916C70.7779 49.2916 74.2467 53.0736 75.6463 56.5431C75.6463 56.5431 74.46 58.6845 71.5566 59.5246C68.6529 60.3648 70.7779 49.2916 70.7779 49.2916Z" fill="#714091"/>
<path d="M72.2095 59.3L71.6471 53.8579L72.9718 58.9569C72.7357 59.0803 72.4805 59.1949 72.2095 59.3Z" fill="#8958A9"/>
<path d="M68.1795 48.528L69.1119 48.2716C69.1119 48.2716 68.6668 48.9729 68.0172 49.1517C67.3675 49.3305 67.2666 48.7793 67.2666 48.7793L68.1795 48.528Z" fill="white"/>
<path d="M63.2013 47.0332C63.2013 47.3205 63.4337 47.5534 63.7205 47.5534C64.0069 47.5534 64.2393 47.3205 64.2393 47.0332C64.2393 46.7459 64.0069 46.513 63.7205 46.513C63.4337 46.513 63.2013 46.7459 63.2013 47.0332Z" fill="white"/>
<path d="M119.353 83.3107C121.298 83.3107 123.243 82.8815 124.727 82.0229C127.696 80.3059 127.696 77.522 124.727 75.8044C123.244 74.9461 121.299 74.517 119.354 74.517C117.409 74.517 115.463 74.9461 113.979 75.8047C111.011 77.522 111.011 80.3059 113.979 82.0229C115.463 82.8815 117.408 83.3107 119.353 83.3107Z" fill="#899ABF"/>
<path d="M110.706 75.1535V72.7207H111.165C111.576 72.0106 112.261 71.3422 113.239 70.7766C116.616 68.8231 122.091 68.8231 125.467 70.7766C126.445 71.3422 127.13 72.0106 127.542 72.7207H127.999V75.1404H127.999C128.005 76.4248 127.162 77.7106 125.467 78.6905C122.091 80.6444 116.615 80.6444 113.239 78.6908C111.55 77.7139 110.706 76.4335 110.706 75.1535Z" fill="#714091"/>
<path d="M113.239 76.2578C116.615 78.2113 122.091 78.2113 125.467 76.2578C128.844 74.3042 128.844 71.1372 125.467 69.1833C122.091 67.2301 116.616 67.2301 113.239 69.1837C109.862 71.1372 109.862 74.3042 113.239 76.2578Z" fill="#714091"/>
<path d="M113.239 76.2578C116.616 78.2113 122.091 78.2113 125.467 76.2578C127.086 75.3219 127.92 74.1067 127.987 72.8797C128.06 74.2125 127.226 75.5591 125.467 76.576C122.091 78.5299 116.616 78.5299 113.239 76.576C111.48 75.5591 110.647 74.2129 110.719 72.8797C110.787 74.1067 111.621 75.3219 113.239 76.2578Z" fill="white"/>
<path d="M123.521 74.3768C123.666 74.2924 123.749 74.1779 123.749 74.0575L123.74 70.7984C123.739 70.5501 123.391 70.3488 122.961 70.3491C122.531 70.3491 122.184 70.5511 122.184 70.8001L122.191 73.5027L114.363 72.5419C113.943 72.4905 113.53 72.6461 113.441 72.8894C113.351 73.1324 113.62 73.3713 114.04 73.4227L122.809 74.4991C123.039 74.5274 123.279 74.4937 123.461 74.4081L123.521 74.3768Z" fill="white"/>
<path d="M62.9228 24.2639L75.8294 16.7997C76.0849 16.6521 76.3408 16.6464 76.5625 16.7459L76.5598 16.7378L78.0982 17.4624C78.0982 17.4624 77.5204 17.6647 77.1813 17.7843L79.044 27.1991C79.1953 27.9653 78.8535 28.8552 78.28 29.1869L65.9436 36.3212L66.1623 37.4261L64.6084 36.6962L64.6151 36.6939C64.3515 36.5635 64.1419 36.2768 64.0604 35.8648L62.1584 26.2514C62.0072 25.4855 62.3493 24.5956 62.9228 24.2639Z" fill="#D1078D"/>
<path d="M66.9397 37.3871L79.8463 29.9229C80.4199 29.5915 80.7619 28.7013 80.6103 27.9354L78.7087 18.322C78.5571 17.5561 77.9695 17.204 77.3957 17.536L64.4894 25.0002C63.9159 25.3319 63.5735 26.2215 63.7251 26.9877L65.6267 36.6008C65.7783 37.3666 66.3662 37.7188 66.9397 37.3871Z" fill="#714091"/>
<path d="M64.196 24.8847L77.1023 17.4204C77.4028 17.2463 77.706 17.2645 77.9495 17.4271C77.7737 17.3979 77.5846 17.4265 77.3957 17.536L64.4895 25.0003C63.916 25.332 63.5735 26.2215 63.7251 26.9878L65.6268 36.6008C65.6989 36.9654 65.8716 37.2323 66.0926 37.3801C65.7341 37.3203 65.4353 36.9994 65.3333 36.4852L63.4317 26.8722C63.2801 26.1063 63.6225 25.2164 64.196 24.8847Z" fill="white"/>
<path d="M74.354 26.6103C74.464 27.1665 74.943 27.392 75.4239 27.114C75.9052 26.8354 76.2057 26.1593 76.0957 25.6028C75.9857 25.0466 75.5064 24.8211 75.0258 25.099C74.5445 25.3776 74.2437 26.0538 74.354 26.6103Z" fill="white"/>
<path d="M71.7156 28.136C71.8259 28.6922 72.3049 28.9177 72.7861 28.6398C73.2667 28.3612 73.5676 27.685 73.4576 27.1289C73.3476 26.5723 72.8683 26.3469 72.3874 26.6248C71.9064 26.9034 71.6056 27.5795 71.7156 28.136Z" fill="white"/>
<path d="M69.0778 29.6618C69.1878 30.218 69.6667 30.4435 70.148 30.1656C70.6286 29.8873 70.9295 29.2108 70.8195 28.6546C70.7091 28.0981 70.2305 27.8726 69.7492 28.1509C69.2686 28.4291 68.9678 29.1053 69.0778 29.6618Z" fill="white"/>
<path d="M12.5891 8.39811L25.496 0.933837C25.7516 0.786307 26.0075 0.780598 26.2288 0.880409L26.2261 0.872008L27.7649 1.59656C27.7649 1.59656 27.187 1.79887 26.8479 1.91851L28.7107 11.3333C28.8619 12.0998 28.5198 12.9894 27.9463 13.3214L15.6099 20.4557L15.8289 21.5603L14.2751 20.8307L14.2818 20.8284C14.0181 20.698 13.8085 20.411 13.727 19.9993L11.8251 10.3856C11.6738 9.6197 12.0156 8.73014 12.5891 8.39811Z" fill="#5F92D3"/>
<path d="M16.606 21.5217L29.5125 14.0574C30.086 13.7257 30.4285 12.8355 30.2769 12.0696L28.3752 2.45657C28.2236 1.69035 27.6357 1.33816 27.0622 1.67019L14.1556 9.13446C13.5821 9.46615 13.24 10.3557 13.3916 11.1219L15.2933 20.7353C15.4449 21.5012 16.0325 21.853 16.606 21.5217Z" fill="#D9EFFB"/>
<path d="M13.8622 9.01884L26.7688 1.55457C27.0693 1.38049 27.3725 1.39864 27.616 1.56196C27.4402 1.53239 27.2511 1.56062 27.0622 1.67017L14.1557 9.13444C13.5822 9.46614 13.2401 10.356 13.3916 11.1222L15.2933 20.7353C15.3654 21.0996 15.5378 21.3664 15.7591 21.5143C15.4006 21.4548 15.1018 21.1335 14.9998 20.6197L13.0982 11.0066C12.9466 10.2408 13.2887 9.35053 13.8622 9.01884Z" fill="white"/>
<path d="M24.0203 10.7446C24.1307 11.3007 24.6096 11.5262 25.0905 11.2483C25.5715 10.9697 25.8723 10.2936 25.7623 9.73705C25.6523 9.18086 25.173 8.95537 24.6921 9.23363C24.2112 9.51155 23.9103 10.188 24.0203 10.7446Z" fill="white"/>
<path d="M21.3821 12.2703C21.4921 12.8264 21.9714 13.0519 22.4526 12.774C22.9332 12.4958 23.2341 11.8193 23.1241 11.2631C23.0137 10.7066 22.5348 10.4814 22.0539 10.7597C21.5729 11.0376 21.2721 11.7141 21.3821 12.2703Z" fill="white"/>
<path d="M18.7444 13.796C18.8544 14.3521 19.3333 14.5776 19.8143 14.2997C20.2952 14.0214 20.596 13.345 20.4857 12.7888C20.3757 12.2323 19.8968 12.0068 19.4158 12.2854C18.9349 12.5633 18.6344 13.2394 18.7444 13.796Z" fill="white"/>
</svg>
