<svg width="187" height="156" viewBox="0 0 187 156" fill="none" xmlns="http://www.w3.org/2000/svg">
    <path fill-rule="evenodd" clip-rule="evenodd" d="M186.835 147.429V79.359L133.743 71.8568H52.7438L0.14267 79.359V147.429L52.6725 156H134.363L186.835 147.429Z" fill="#BCC7CE"/>
    <path fill-rule="evenodd" clip-rule="evenodd" d="M96.5253 14.7385C122.11 14.7385 142.853 37.2231 142.853 65.729L96.1552 62.6607L50.1933 66.332C50.1933 37.8394 70.9359 14.7385 96.5253 14.7385Z" fill="#F3A85E"/>
    <path fill-rule="evenodd" clip-rule="evenodd" d="M96.5253 14.7385C122.11 14.7385 142.853 37.2231 142.853 65.729L107.222 63.3879C107.222 63.3879 93.9481 14.7385 96.5253 14.7385Z" fill="#FDE04C"/>
    <path fill-rule="evenodd" clip-rule="evenodd" d="M146.714 73.3022V66.332L134.029 62.6474H56.8103L46.8804 66.332V73.3022L56.8103 71.8567H134.029L146.714 73.3022Z" fill="#2B2525"/>
    <path fill-rule="evenodd" clip-rule="evenodd" d="M186.978 120.763L134.029 116.702H52.9489L0 122.856V79.2304L52.9489 71.8568H134.029L186.978 79.2304V120.763Z" fill="#0B83AD"/>
    <path fill-rule="evenodd" clip-rule="evenodd" d="M10.4783 148.538V106.539C10.4783 106.539 11.4682 99.6798 15.7353 99.6798C20.0024 99.6798 19.998 106.012 19.998 106.012V150.103L10.4783 148.538Z" fill="#CEDBDD"/>
    <path fill-rule="evenodd" clip-rule="evenodd" d="M27.8679 151.526V104.69C27.8679 104.69 28.9826 97.0372 33.7268 97.0372C38.471 97.0372 38.4799 104.1 38.4799 104.1V153.269L27.8679 151.526Z" fill="#CEDBDD"/>
    <path fill-rule="evenodd" clip-rule="evenodd" d="M177.097 149.127V107.098C177.097 107.098 176.111 100.23 171.84 100.23C167.568 100.23 167.573 106.57 167.573 106.57V150.693L177.097 149.127Z" fill="#CEDBDD"/>
    <path fill-rule="evenodd" clip-rule="evenodd" d="M160.519 152.014V105.794C160.519 105.794 159.431 98.2566 154.722 98.2566C150.014 98.2566 150.027 105.222 150.027 105.222V153.734L160.519 152.014Z" fill="#CEDBDD"/>
    <path opacity="0.15" fill-rule="evenodd" clip-rule="evenodd" d="M134.029 71.8568V156L186.978 147.403V79.2304L134.029 71.8568Z" fill="black"/>
    <path opacity="0.2" fill-rule="evenodd" clip-rule="evenodd" d="M52.9489 71.8568V156L0 147.403V79.2304L52.9489 71.8568Z" fill="white"/>
    <path fill-rule="evenodd" clip-rule="evenodd" d="M121.896 156V106.49C121.896 106.49 121.896 99.498 118.03 99.498C114.165 99.498 114.147 105.417 114.147 105.417V156H121.896Z" fill="#CEDBDD"/>
    <path fill-rule="evenodd" clip-rule="evenodd" d="M104.244 156V111.545C104.244 111.545 104.244 97.6535 93.7653 97.6535C83.287 97.6535 83.287 110.432 83.287 110.432V156H104.244Z" fill="black"/>
    <path fill-rule="evenodd" clip-rule="evenodd" d="M70.6105 156V106.49C70.6105 106.49 70.6105 99.498 66.7446 99.498C62.8788 99.498 62.8699 105.417 62.8699 105.417V156H70.6105Z" fill="#CEDBDD"/>
    <path d="M96.5253 14.7385C97.1336 14.7385 97.6267 14.1886 97.6267 13.5103C97.6267 12.832 97.1336 12.2821 96.5253 12.2821C95.9171 12.2821 95.424 12.832 95.424 13.5103C95.424 14.1886 95.9171 14.7385 96.5253 14.7385Z" fill="#FFBC00"/>
    <path d="M96.5253 9.82565C97.1336 9.82565 97.6267 9.27577 97.6267 8.59745C97.6267 7.91913 97.1336 7.36924 96.5253 7.36924C95.9171 7.36924 95.424 7.91913 95.424 8.59745C95.424 9.27577 95.9171 9.82565 96.5253 9.82565Z" fill="#FFBC00"/>
    <path d="M96.5253 12.8984C97.4389 12.8984 98.1796 12.0726 98.1796 11.0539C98.1796 10.0352 97.4389 9.20934 96.5253 9.20934C95.6117 9.20934 94.8711 10.0352 94.8711 11.0539C94.8711 12.0726 95.6117 12.8984 96.5253 12.8984Z" fill="#EDA900"/>
    <path d="M96.5253 0C96.0672 0.00543656 95.6169 0.118294 95.2109 0.329397C94.8049 0.5405 94.4548 0.84389 94.1889 1.2149C93.6743 1.93049 93.4455 2.81069 93.5468 3.68462C93.7207 5.38283 95.0896 6.73518 96.5253 6.70415C97.9611 6.67311 99.3211 5.37396 99.495 3.68462C99.5976 2.81125 99.3704 1.9311 98.8573 1.2149C98.5922 0.844234 98.2428 0.541021 97.8376 0.329917C97.4324 0.118813 96.9828 0.00577777 96.5253 0V0ZM96.5253 0C96.9889 0.00689503 97.4461 0.107551 97.8693 0.295835C98.2924 0.48412 98.6726 0.756093 98.9866 1.09519C99.6602 1.802 100.074 2.71461 100.159 3.68462C100.262 4.71672 99.9763 5.75009 99.3567 6.58443C99.0326 7.03302 98.6057 7.39846 98.1115 7.65053C97.6172 7.9026 97.0697 8.03407 96.5142 8.03407C95.9587 8.03407 95.4112 7.9026 94.9169 7.65053C94.4227 7.39846 93.9958 7.03302 93.6717 6.58443C93.056 5.74836 92.7718 4.71594 92.8735 3.68462C92.9598 2.7169 93.3713 1.80628 94.0418 1.09962C94.3576 0.756604 94.7412 0.481948 95.1685 0.292764C95.5958 0.10358 96.0576 0.00392244 96.5253 0V0Z" fill="#FFBC00"/>
    <path d="M186.96 87.7924L180.272 87.6683L173.583 87.451L166.895 87.1495C164.666 87.0519 162.436 86.9544 160.207 86.8125L153.518 86.4268C151.289 86.3026 149.06 86.174 146.83 85.9834L133.507 85.0345H133.833C127.06 85.1631 120.291 85.336 113.518 85.4291L93.199 85.5577L72.8845 85.4202L52.6145 85.0301L53.0604 84.9946L39.9068 86.5465C37.713 86.8169 35.5148 87.0342 33.321 87.2692L26.7531 87.9609C24.5594 88.2003 22.3567 88.4043 20.154 88.595L13.5505 89.198L6.93353 89.7256L0.303204 90.169L0.245239 89.7744L52.5788 81.6913H52.6234L93.257 81.6026L133.891 81.6868H133.926L187.013 87.3889L186.96 87.7924Z" fill="#004D7C"/>
</svg>
