<svg id="Capa_1" enable-background="new 0 0 512 512" viewBox="0 0 512 512"  xmlns="http://www.w3.org/2000/svg"><g><path fill="currentColor" d="m467 0-45 135v199.805c-8.725-6.565-18.922-11.274-30-13.532v-63.839h-31v-45c0-57.897-47.103-105-105-105s-105 47.103-105 105v45h-31v63.839c-11.078 2.258-21.275 6.967-30 13.532v-199.805l-45-135-45 135v377h512v-377zm14.189 137.434h-28.377l14.188-42.566zm-29.189 60v-30h30v30zm30 30v164.566h-30v-164.566zm-181 30v-30h30v30zm-30-30v30h-30v-30zm-15-90c36.219 0 66.522 25.808 73.491 60h-146.982c6.969-34.192 37.272-60 73.491-60zm-75 90h30v30h-30zm181 60v33.839c-34.192 6.968-60 37.272-60 73.491v.226c-12.78-9.75-28.721-15.556-46-15.556s-33.22 5.806-46 15.556v-.226c0-36.219-25.808-66.522-60-73.491v-33.839zm-60 194.566h-92v-26.566c0-25.364 20.636-46 46-46s46 20.636 46 46zm-242-314.566v30h-30v-30zm0 60v164.566h-30v-164.566zm-.811-90h-28.378l14.189-42.566zm-29.189 344.566v-60h30v60zm60-87.236c0-24.813 20.187-45 45-45s45 20.187 45 45v87.236h-90zm332 87.236h-90v-87.236c0-24.813 20.187-45 45-45s45 20.187 45 45zm30 0v-60h30v60z"/></g></svg>
