<svg width="56" height="67" viewBox="0 0 56 67" fill="none" xmlns="http://www.w3.org/2000/svg">
<path fill-rule="evenodd" clip-rule="evenodd" d="M16.4437 6.46204L1.00656 51.8736C2.33353 50.413 3.08549 50.413 4.76632 50.9884L38.7811 62.5847C44.5755 45.5001 48.8218 33.107 54.6163 16.0224L20.6015 4.42605C18.8765 3.85066 17.0187 4.78013 16.4437 6.46204Z" fill="#F19916"/>
<path fill-rule="evenodd" clip-rule="evenodd" d="M2.24459 54.1752L37.5421 66.2141L38.7806 62.5847L3.4831 50.5458C2.46575 50.1917 1.40417 50.7671 1.05031 51.7408C0.696454 52.7146 1.22725 53.8211 2.24459 54.1752Z" fill="#E18B0C"/>
<path fill-rule="evenodd" clip-rule="evenodd" d="M2.3773 53.7325L37.6748 65.7715L38.6037 62.9831L3.30619 50.9441C2.55423 50.6786 1.71381 51.0769 1.44842 51.8736C1.22726 52.626 1.62535 53.467 2.3773 53.7325Z" fill="white"/>
<path d="M20.6085 4.42004L4.77484 50.9728L6.24046 51.472L22.0741 4.91917L20.6085 4.42004Z" fill="#E18B0C"/>
<path fill-rule="evenodd" clip-rule="evenodd" d="M8.65832 47.9787L39.0018 54.9277L40.2845 49.3951L9.94106 42.4461C8.43715 42.092 6.88901 43.0658 6.53515 44.5706C6.18129 46.0755 7.15442 47.6246 8.65832 47.9787Z" fill="#C0384F"/>
<path fill-rule="evenodd" clip-rule="evenodd" d="M8.83523 47.3148L39.1787 54.2637L40.1518 50.0147L9.80835 43.0658C8.6583 42.8002 7.46402 43.5526 7.19862 44.7034C6.93323 45.8542 7.64095 47.0492 8.83523 47.3148Z" fill="white"/>
<path fill-rule="evenodd" clip-rule="evenodd" d="M16.0016 3.00972L6.53589 44.5263C6.88975 43.0215 8.39366 42.0477 9.94179 42.4018L40.2852 49.3508C43.7796 34.1251 46.3009 23.0599 49.751 7.83415L19.4075 0.885207C17.9036 0.531121 16.3555 1.50486 16.0016 3.00972Z" fill="#D9465F"/>
<path d="M19.4112 0.914698L9.80017 43.0764L11.094 43.3717L20.705 1.21001L19.4112 0.914698Z" fill="#C0384F"/>
<path fill-rule="evenodd" clip-rule="evenodd" d="M18.8317 55.6358L49.7502 59.2209L50.4137 53.5555L19.4952 49.9704C17.9471 49.7933 16.5317 50.8999 16.3547 52.449C16.1778 54.0424 17.2836 55.4587 18.8317 55.6358Z" fill="#61C3C6"/>
<path fill-rule="evenodd" clip-rule="evenodd" d="M18.9202 54.9718L49.8388 58.557L50.3253 54.2194L19.4068 50.6343C18.2125 50.5015 17.151 51.3424 16.974 52.5375C16.8856 53.7325 17.726 54.839 18.9202 54.9718Z" fill="white"/>
<path fill-rule="evenodd" clip-rule="evenodd" d="M21.2647 10.1357L16.3549 52.449C16.5318 50.8999 17.9472 49.7934 19.4954 49.9704L50.4139 53.5555C52.2274 38.02 53.5101 26.7778 55.3237 11.2422L24.4052 7.65709C22.857 7.48005 21.4416 8.58657 21.2647 10.1357Z" fill="#73D6D9"/>
<path d="M24.4049 7.66731L19.4352 50.6247L20.7534 50.7774L25.7231 7.82001L24.4049 7.66731Z" fill="#61C3C6"/>
<path fill-rule="evenodd" clip-rule="evenodd" d="M28.1648 20.2272L49.8829 22.8386L49.3964 27.0876L27.6782 24.5205L28.1648 20.2272Z" fill="#9DE8EB"/>
<path fill-rule="evenodd" clip-rule="evenodd" d="M27.4571 26.645L49.1752 29.2121L48.6886 33.4611L26.9705 30.894L27.4571 26.645Z" fill="#9DE8EB"/>
<path fill-rule="evenodd" clip-rule="evenodd" d="M26.4398 35.1431L48.2021 37.7102L48.0252 39.2151L26.3071 36.6037L26.4398 35.1431Z" fill="#9DE8EB"/>
<path fill-rule="evenodd" clip-rule="evenodd" d="M26.1301 38.0643L47.8483 40.6757L47.6713 42.1363L25.9532 39.5691L26.1301 38.0643Z" fill="#9DE8EB"/>
</svg>
