<svg width="227" height="139" viewBox="0 0 227 139" fill="none" xmlns="http://www.w3.org/2000/svg">
<path d="M213.799 11.2634V128.864H13.3374V11.2634C13.3374 5.06685 18.3799 0.0211182 24.5282 0.0211182H202.564C208.801 0.065379 213.799 5.06685 213.799 11.2634Z" fill="url(#paint0_linear)"/>
<path d="M27.0052 133.423H204.687V11.3076H27.0052V133.423Z" fill="url(#paint1_linear)"/>
<path fill-rule="evenodd" clip-rule="evenodd" d="M179.209 119.437V70.6613L141.39 65.2615H83.667L46.2021 70.6613V119.437L83.6227 125.589H141.833L179.209 119.437Z" fill="#BCC7CE"/>
<path fill-rule="evenodd" clip-rule="evenodd" d="M114.851 24.3203C133.075 24.3203 147.848 40.4312 147.848 60.8797L114.585 58.6666L81.8534 61.3223C81.8534 40.8738 96.627 24.3203 114.851 24.3203Z" fill="url(#paint2_linear)"/>
<path fill-rule="evenodd" clip-rule="evenodd" d="M114.851 24.3203C133.075 24.3203 147.848 40.4312 147.848 60.8797L122.459 59.1978C122.503 59.1978 113.037 24.3203 114.851 24.3203Z" fill="url(#paint3_linear)"/>
<path fill-rule="evenodd" clip-rule="evenodd" d="M150.635 66.3238V61.3223L141.567 58.6666H86.5863L79.5091 61.3223V66.3238L86.5863 65.2615H141.567L150.635 66.3238Z" fill="#2B2525"/>
<path fill-rule="evenodd" clip-rule="evenodd" d="M179.297 100.316L141.567 97.3948H83.8439L46.1136 101.821V70.5728L83.8439 65.2615H141.567L179.297 70.5728V100.316Z" fill="#0B83AD"/>
<path fill-rule="evenodd" clip-rule="evenodd" d="M53.5889 120.233V90.1361C53.5889 90.1361 54.2966 85.2231 57.3487 85.2231C60.4007 85.2231 60.4007 89.782 60.4007 89.782V121.384L53.5889 120.233Z" fill="#CEDBDD"/>
<path fill-rule="evenodd" clip-rule="evenodd" d="M65.974 122.358V88.8082C65.974 88.8082 66.7702 83.3199 70.1318 83.3199C73.4935 83.3199 73.5377 88.3656 73.5377 88.3656V123.597L65.974 122.358Z" fill="#CEDBDD"/>
<path fill-rule="evenodd" clip-rule="evenodd" d="M172.265 120.676V90.5344C172.265 90.5344 171.557 85.6215 168.505 85.6215C165.453 85.6215 165.453 90.1803 165.453 90.1803V121.827L172.265 120.676Z" fill="#CEDBDD"/>
<path fill-rule="evenodd" clip-rule="evenodd" d="M160.454 122.712V89.6049C160.454 89.6049 159.658 84.2051 156.341 84.2051C152.979 84.2051 152.979 89.2066 152.979 89.2066V123.996L160.454 122.712Z" fill="#CEDBDD"/>
<path opacity="0.15" fill-rule="evenodd" clip-rule="evenodd" d="M141.567 65.2615V125.589L179.297 119.437V70.5728L141.567 65.2615Z" fill="black"/>
<path opacity="0.2" fill-rule="evenodd" clip-rule="evenodd" d="M83.8439 65.2615V125.589L46.1136 119.437V70.5728L83.8439 65.2615Z" fill="white"/>
<path fill-rule="evenodd" clip-rule="evenodd" d="M132.942 125.589V90.0918C132.942 90.0918 132.942 85.0903 130.199 85.0903C127.457 85.0903 127.457 89.3394 127.457 89.3394V125.589H132.942Z" fill="#CEDBDD"/>
<path fill-rule="evenodd" clip-rule="evenodd" d="M120.38 125.589V93.7212C120.38 93.7212 120.38 83.7625 112.905 83.7625C105.429 83.7625 105.429 92.9245 105.429 92.9245V125.589H120.38Z" fill="black"/>
<path fill-rule="evenodd" clip-rule="evenodd" d="M96.4059 125.589V90.0918C96.4059 90.0918 96.4059 85.0903 93.6635 85.0903C90.9211 85.0903 90.9211 89.3394 90.9211 89.3394V125.589H96.4059Z" fill="#CEDBDD"/>
<path d="M114.851 24.3202C115.291 24.3202 115.647 23.9239 115.647 23.435C115.647 22.9461 115.291 22.5498 114.851 22.5498C114.411 22.5498 114.055 22.9461 114.055 23.435C114.055 23.9239 114.411 24.3202 114.851 24.3202Z" fill="#FFBC00"/>
<path d="M114.851 20.8237C115.291 20.8237 115.647 20.4273 115.647 19.9384C115.647 19.4496 115.291 19.0532 114.851 19.0532C114.411 19.0532 114.055 19.4496 114.055 19.9384C114.055 20.4273 114.411 20.8237 114.851 20.8237Z" fill="#FFBC00"/>
<path d="M114.851 23.0368C115.51 23.0368 116.045 22.4423 116.045 21.7089C116.045 20.9756 115.51 20.3811 114.851 20.3811C114.191 20.3811 113.657 20.9756 113.657 21.7089C113.657 22.4423 114.191 23.0368 114.851 23.0368Z" fill="#EDA900"/>
<path d="M114.851 13.7862C114.187 13.7862 113.568 14.1403 113.214 14.6714C112.86 15.2025 112.728 15.8665 112.816 16.4418C112.993 17.6369 113.966 18.4336 114.851 18.4336C115.735 18.4336 116.664 17.6369 116.885 16.4418C116.974 15.8665 116.885 15.2025 116.487 14.6714C116.178 14.1403 115.514 13.7419 114.851 13.7862ZM114.851 13.7862C116.178 13.7862 117.372 14.9812 117.549 16.4418C117.637 17.15 117.461 17.991 117.018 18.6106C116.576 19.2745 115.735 19.7614 114.851 19.7171C113.966 19.7171 113.17 19.2303 112.683 18.6106C112.197 17.9467 112.064 17.15 112.153 16.4418C112.374 14.937 113.524 13.7419 114.851 13.7862Z" fill="#FFBC00"/>
<path d="M179.297 76.7251C177.705 76.7693 176.113 76.7693 174.52 76.8136H169.743L164.966 76.7251C163.374 76.6808 161.781 76.6808 160.189 76.5923L155.412 76.371C153.82 76.3267 152.227 76.2382 150.635 76.1497L141.125 75.5743H141.435C136.613 75.7071 131.792 75.8841 126.971 75.9726L119.716 76.0612L112.462 76.1054L105.208 76.0612L97.954 75.9726L83.49 75.5743L83.9324 75.53L74.5551 76.5038C73.0069 76.6808 71.4146 76.8136 69.8664 76.9464L65.1778 77.3447C63.6297 77.4775 62.0373 77.6103 60.4449 77.6988L55.7121 78.0086L50.9792 78.2742C49.3868 78.3185 47.8387 78.407 46.2463 78.4512L46.2021 78.0529L64.8239 75.0874L83.4458 72.2105H83.49H83.5343L112.462 72.1662L141.39 72.2105L160.278 74.2465L179.165 76.371L179.297 76.7251Z" fill="#004D7C"/>
<path opacity="0.29" d="M164.48 128.864L53.8101 0.0653687H44.477L154.837 128.864H164.48Z" fill="white"/>
<path d="M226.892 127.846C227.378 113.152 218.93 96.4211 205.925 90.2246C192.921 84.0281 176.378 86.551 165.718 96.3769C161.737 100.051 158.066 104.831 152.714 105.45C145.283 106.336 139.267 98.4571 131.792 98.0145C121.84 97.4391 115.337 109.788 105.474 111.426C98.1752 112.665 91.098 107.708 83.7112 107.885C78.3148 108.017 73.1839 110.939 67.7433 110.762C57.5256 110.452 50.7138 99.8292 41.3365 95.7572C32.0035 91.6852 20.68 94.7835 13.1604 101.732C5.68516 108.726 1.74848 118.994 0.554199 129.307L226.892 127.846Z" fill="url(#paint4_linear)"/>
<g opacity="0.3">
<path opacity="0.3" d="M0.598431 127.315C0.111874 107.398 8.38334 84.6035 21.0781 76.1939C33.817 67.7844 49.9618 71.1925 60.3565 84.5592C64.2489 89.5164 67.876 96.067 73.0512 96.908C80.3053 98.103 86.1882 87.3919 93.4866 86.8165C103.218 86.0198 109.587 102.795 119.23 105.052C126.351 106.734 133.296 99.962 140.506 100.228C145.814 100.405 150.812 104.344 156.12 104.123C166.116 103.68 172.751 89.2951 181.951 83.7625C191.063 78.2742 202.166 82.4347 209.464 91.9065C216.762 101.378 220.655 115.365 221.761 129.351L0.598431 127.315Z" fill="white"/>
</g>
<path d="M226.892 127.846H0.288818C0.288818 133.999 7.32178 139 15.9913 139H211.145C218.399 139 224.503 135.503 226.317 130.723C226.67 129.838 226.892 128.864 226.892 127.846Z" fill="url(#paint5_linear)"/>
<path d="M142.762 127.846C142.762 129.351 141.567 130.59 140.063 130.59L87.2056 131.431C85.569 131.476 84.242 130.059 84.4189 128.377L84.4632 127.802H142.762V127.846Z" fill="#134261"/>
<path opacity="0.29" d="M203.846 128.864L90.6999 0.0653687H64.2489L176.024 128.864H203.846Z" fill="white"/>
<defs>
<linearGradient id="paint0_linear" x1="223.822" y1="78.7114" x2="-55.483" y2="44.3204" gradientUnits="userSpaceOnUse">
<stop stop-color="#CCCCCC"/>
<stop offset="1" stop-color="white"/>
</linearGradient>
<linearGradient id="paint1_linear" x1="119.034" y1="9.14539" x2="115.066" y2="87.6668" gradientUnits="userSpaceOnUse">
<stop stop-color="#49B7E0"/>
<stop offset="1" stop-color="#66ECF2"/>
</linearGradient>
<linearGradient id="paint2_linear" x1="147.871" y1="42.821" x2="81.866" y2="42.821" gradientUnits="userSpaceOnUse">
<stop offset="0.0997922" stop-color="#FDE04C"/>
<stop offset="1" stop-color="#E76574"/>
</linearGradient>
<linearGradient id="paint3_linear" x1="147.871" y1="42.6009" x2="114.632" y2="42.6009" gradientUnits="userSpaceOnUse">
<stop offset="0.0997922" stop-color="#FDE04C"/>
<stop offset="1" stop-color="#E76574"/>
</linearGradient>
<linearGradient id="paint4_linear" x1="110.775" y1="75.411" x2="113.376" y2="120.898" gradientUnits="userSpaceOnUse">
<stop stop-color="white" stop-opacity="0"/>
<stop offset="0.9986" stop-color="white"/>
</linearGradient>
<linearGradient id="paint5_linear" x1="112.066" y1="105.972" x2="115.924" y2="162.152" gradientUnits="userSpaceOnUse">
<stop stop-color="#CCCCCC"/>
<stop offset="1" stop-color="white"/>
</linearGradient>
</defs>
</svg>
