<svg width="23" height="23" viewBox="0 0 23 23" fill="none" xmlns="http://www.w3.org/2000/svg">
<path d="M22.0113 5.88922V16.9544C22.0113 19.8756 19.6227 22.2215 16.7476 22.2215H5.68951C2.77017 22.2215 0.425842 19.8314 0.425842 16.9544V5.88922C0.425842 2.96801 2.8144 0.622192 5.68951 0.622192H16.7476C19.6227 0.622192 22.0113 2.96801 22.0113 5.88922Z" fill="#FFAA00"/>
<path d="M11.0416 5.18105C7.90114 5.26957 5.33568 7.8367 5.20298 11.0235C5.15875 12.4841 5.60106 13.8119 6.39724 14.8742C6.70687 15.3168 6.83957 15.8479 6.70688 16.379L6.30879 18.0609L8.34348 17.1757C8.74157 16.9987 9.18389 16.9544 9.58198 17.0872C10.2455 17.2643 10.909 17.3528 11.6167 17.3085C14.6245 17.0872 17.0572 14.6529 17.2342 11.6431C17.4996 8.01374 14.6245 5.04827 11.0416 5.18105ZM8.60886 11.5989C8.3877 11.5989 8.25501 11.4218 8.25501 11.2448C8.25501 11.0235 8.43193 10.8907 8.60886 10.8907C8.83002 10.8907 8.96273 11.0677 8.96273 11.2448C8.96273 11.4218 8.78579 11.5989 8.60886 11.5989ZM11.1743 11.5989C10.9532 11.5989 10.8205 11.4218 10.8205 11.2448C10.8205 11.0235 10.9974 10.8907 11.1743 10.8907C11.3955 10.8907 11.5282 11.0677 11.5282 11.2448C11.5282 11.4218 11.3955 11.5989 11.1743 11.5989ZM13.9167 11.5989C13.6956 11.5989 13.5629 11.4218 13.5629 11.2448C13.5629 11.0235 13.7398 10.8907 13.9167 10.8907C14.1379 10.8907 14.2706 11.0677 14.2706 11.2448C14.2706 11.4218 14.0937 11.5989 13.9167 11.5989Z" fill="white"/>
</svg>
