<svg width="339" height="145" viewBox="0 0 339 145" fill="none" xmlns="http://www.w3.org/2000/svg">
<g opacity="0.75">
<path opacity="0.75" d="M115.933 56.4768C107.75 56.6096 99.6114 57.6275 91.4727 57.0964C87.2706 56.7866 82.6704 56.1227 79.6626 52.4933C76.7875 49.041 76.0798 43.1543 78.026 38.861C79.9722 34.5234 84.3955 32.1333 88.3322 33.2841C92.5342 34.5234 96.3382 39.2151 100.452 37.6659C103.371 36.5594 105.406 32.4432 108.458 32.753C111.598 33.0628 113.058 37.7987 115.756 39.7462C118.056 41.4281 120.976 40.8527 123.674 40.5429C126.372 40.2331 129.468 40.4986 131.105 43.11C132.963 46.1197 131.68 50.8114 129.203 52.9802C129.203 52.9802 124.116 56.3882 115.933 56.4768Z" fill="url(#paint0_linear)"/>
</g>
<g opacity="0.3">
<path opacity="0.3" d="M69.268 144.157C60.5542 144.246 51.8847 145.175 43.1709 144.689C38.6592 144.423 33.7936 143.848 30.5646 140.661C27.5126 137.651 26.7607 132.517 28.8396 128.755C30.9185 124.992 35.6514 122.912 39.8535 123.886C44.3209 124.948 48.3903 129.064 52.7693 127.692C55.8656 126.719 58.0772 123.134 61.3062 123.399C64.6679 123.665 66.216 127.781 69.0911 129.507C71.5681 130.968 74.6644 130.481 77.5395 130.215C80.4146 129.95 83.732 130.171 85.4571 132.473C87.4476 135.084 86.0763 139.2 83.4224 141.103C83.4224 141.103 77.9818 144.069 69.268 144.157Z" fill="url(#paint1_linear)"/>
</g>
<g opacity="0.3">
<path opacity="0.3" d="M280.257 96.4886C268.049 96.6656 255.84 97.9049 243.632 97.241C237.307 96.8869 230.451 96.0459 225.939 91.5756C221.649 87.3266 220.587 80.1563 223.507 74.845C226.426 69.5337 233.061 66.6125 238.944 68.0289C245.225 69.5337 250.931 75.3319 257.079 73.3844C261.414 72.0123 264.51 67.0109 269.022 67.3649C273.755 67.719 275.878 73.5172 279.991 75.9515C283.486 77.9875 287.821 77.3236 291.846 76.9253C295.871 76.5712 300.515 76.881 302.992 80.0678C305.823 83.7414 303.877 89.4953 300.117 92.1953C300.117 92.1953 292.465 96.3115 280.257 96.4886Z" fill="url(#paint2_linear)"/>
</g>
<path d="M200.55 48.6869L198.029 43.1985L194.755 48.2885L189.226 50.8557L194.357 54.131L196.923 59.6193L200.152 54.5293L205.681 51.9622L200.55 48.6869Z" fill="url(#paint3_linear)"/>
<path d="M154.681 5.5326L152.115 0L148.842 5.13425L143.357 7.65712L148.444 10.9324L151.01 16.465L154.283 11.3308L159.768 8.76364L154.681 5.5326Z" fill="url(#paint4_linear)"/>
<path opacity="0.3" d="M336.034 117.689L334.53 114.458L332.628 117.424L329.399 118.929L332.407 120.832L333.866 124.063L335.813 121.053L338.997 119.593L336.034 117.689Z" fill="url(#paint5_linear)"/>
<path d="M6.59063 122.47L5.13096 119.283L3.22897 122.248L0 123.753L3.00781 125.656L4.46748 128.887L6.36947 125.878L9.59844 124.373L6.59063 122.47Z" fill="#2D1E56"/>
<path d="M54.6713 9.33906L52.5924 8.23254L52.7693 10.6226L51.6193 12.7029L54.0078 12.5258L56.0867 13.6766L55.9098 11.2865L57.0599 9.16202L54.6713 9.33906Z" fill="url(#paint6_linear)"/>
<defs>
<linearGradient id="paint0_linear" x1="103.773" y1="85.3727" x2="104.514" y2="44.2816" gradientUnits="userSpaceOnUse">
<stop stop-color="white" stop-opacity="0"/>
<stop offset="1" stop-color="white"/>
</linearGradient>
<linearGradient id="paint1_linear" x1="58.5548" y1="157.2" x2="56.103" y2="120.446" gradientUnits="userSpaceOnUse">
<stop stop-color="white" stop-opacity="0"/>
<stop offset="0.9986" stop-color="white"/>
</linearGradient>
<linearGradient id="paint2_linear" x1="263.785" y1="121.675" x2="262.61" y2="56.5282" gradientUnits="userSpaceOnUse">
<stop stop-color="white" stop-opacity="0"/>
<stop offset="0.9986" stop-color="white"/>
</linearGradient>
<linearGradient id="paint3_linear" x1="189.22" y1="65.6326" x2="201.498" y2="44.4665" gradientUnits="userSpaceOnUse">
<stop offset="0.1417" stop-color="#42287C"/>
<stop offset="1" stop-color="#714091"/>
</linearGradient>
<linearGradient id="paint4_linear" x1="143.32" y1="22.4483" x2="155.599" y2="1.28079" gradientUnits="userSpaceOnUse">
<stop offset="0.1417" stop-color="#42287C"/>
<stop offset="1" stop-color="#714091"/>
</linearGradient>
<linearGradient id="paint5_linear" x1="329.402" y1="127.554" x2="336.568" y2="115.201" gradientUnits="userSpaceOnUse">
<stop stop-color="white" stop-opacity="0"/>
<stop offset="0.9986" stop-color="white"/>
</linearGradient>
<linearGradient id="paint6_linear" x1="55.0948" y1="17.3584" x2="53.9626" y2="7.80645" gradientUnits="userSpaceOnUse">
<stop offset="0.1417" stop-color="#42287C"/>
<stop offset="1" stop-color="#714091"/>
</linearGradient>
</defs>
</svg>
