<svg width="59" height="75" viewBox="0 0 59 75" fill="none" xmlns="http://www.w3.org/2000/svg">
<path d="M46.4926 6.01031L58.9219 64.6559L13.3183 74.3047L0.269714 12.8265C0.579342 14.3756 2.12748 15.3936 3.67561 15.0395L46.4926 6.01031Z" fill="white"/>
<path d="M40.2558 1.36292L41.3616 6.62995L3.58714 14.5969C2.3044 14.8625 1.02166 14.0215 0.756267 12.7379L0.623569 12.2068C0.358175 10.9232 1.19859 9.63968 2.48133 9.37412L40.2558 1.36292Z" fill="#B3D9FF"/>
<path d="M3.45444 10.9675L42.5559 2.69073L42.4675 2.20386L3.36598 10.4806C2.70249 10.6134 2.26017 11.2773 2.39287 11.9412L2.4371 12.2068C2.5698 12.8707 3.23328 13.3133 3.89677 13.1805L45.1214 4.46116L45.0329 3.97429L3.8083 12.7379C3.41021 12.8265 3.01212 12.5609 2.92365 12.1625L2.87942 11.897C2.79096 11.4544 3.05635 11.056 3.45444 10.9675Z" fill="white"/>
<path d="M2.48134 9.32985L40.2116 1.31865L40.1231 0.831787L2.39287 8.88725C0.844737 9.19707 -0.172609 10.7462 0.181251 12.2953L0.313948 12.8265C0.623576 14.3756 2.17171 15.3936 3.71985 15.0395L46.5368 5.96604L46.4484 5.47917L3.58715 14.5969C2.30441 14.8625 1.02167 14.0215 0.756273 12.7379L0.623575 12.2068C0.35818 10.879 1.1986 9.63968 2.48134 9.32985Z" fill="white"/>
<path d="M45.1657 4.46118L45.4311 5.74475L3.58718 14.5969C3.36601 14.6412 3.14485 14.6412 2.92369 14.6412L2.43713 12.2511C2.56983 12.915 3.23332 13.3576 3.8968 13.2248L45.1657 4.46118Z" fill="#53A4F4"/>
<path d="M26.8625 30.7403L21.2371 31.9326L21.3562 32.4955L26.9816 31.3033L26.8625 30.7403Z" fill="#C3E2FC"/>
<path d="M27.1769 32.2455L21.5515 33.4377L21.6707 34.0006L27.2961 32.8084L27.1769 32.2455Z" fill="#C3E2FC"/>
<path d="M27.4822 33.7074L21.8568 34.8997L21.976 35.4626L27.6014 34.2704L27.4822 33.7074Z" fill="#C3E2FC"/>
<path d="M27.7968 35.2127L22.1713 36.4049L22.2905 36.9678L27.9159 35.7756L27.7968 35.2127Z" fill="#C3E2FC"/>
<path d="M28.1453 36.6655L22.5199 37.8577L22.639 38.4206L28.2645 37.2284L28.1453 36.6655Z" fill="#C3E2FC"/>
<path d="M28.4598 38.1706L22.8344 39.3629L22.9535 39.9258L28.5789 38.7335L28.4598 38.1706Z" fill="#C3E2FC"/>
<path d="M28.7784 39.6192L12.5945 43.0491L12.7136 43.612L28.8976 40.1822L28.7784 39.6192Z" fill="#C3E2FC"/>
<path d="M29.0929 41.1245L12.909 44.5544L13.0281 45.1173L29.2121 41.6874L29.0929 41.1245Z" fill="#C3E2FC"/>
<path d="M29.3982 42.5864L13.2142 46.0163L13.3334 46.5792L29.5173 43.1493L29.3982 42.5864Z" fill="#C3E2FC"/>
<path d="M29.7127 44.0916L13.5287 47.5215L13.6479 48.0844L29.8318 44.6545L29.7127 44.0916Z" fill="#C3E2FC"/>
<path d="M30.018 45.5535L13.834 48.9834L13.9532 49.5463L30.1371 46.1164L30.018 45.5535Z" fill="#C3E2FC"/>
<path d="M51.1248 53.7037L43.2924 55.3636L43.4024 55.8833L51.2347 54.2233L51.1248 53.7037Z" fill="#C3E2FC"/>
<path d="M51.4393 55.1626L43.6069 56.8226L43.7169 57.3422L51.5492 55.6822L51.4393 55.1626Z" fill="#C3E2FC"/>
<path d="M51.7447 56.5783L43.9124 58.2382L44.0223 58.7578L51.8547 57.0979L51.7447 56.5783Z" fill="#C3E2FC"/>
<path d="M52.0592 58.0372L44.2269 59.6971L44.3368 60.2167L52.1692 58.5568L52.0592 58.0372Z" fill="#C3E2FC"/>
<path d="M52.3646 59.4528L44.5322 61.1127L44.6422 61.6323L52.4745 59.9724L52.3646 59.4528Z" fill="#C3E2FC"/>
<path d="M52.6684 60.8227L44.8361 62.4826L44.9552 63.0455L52.7875 61.3856L52.6684 60.8227Z" fill="#C3E2FC"/>
<path d="M52.9829 62.3279L45.1506 63.9879L45.2697 64.5508L53.1021 62.8908L52.9829 62.3279Z" fill="#C3E2FC"/>
<path d="M41.7458 55.7176L33.3942 57.4875L33.5042 58.0072L41.8558 56.2372L41.7458 55.7176Z" fill="#C3E2FC"/>
<path d="M42.0079 57.1424L33.6563 58.9124L33.7663 59.432L42.1179 57.662L42.0079 57.1424Z" fill="#C3E2FC"/>
<path d="M42.3224 58.6013L33.9708 60.3713L34.0808 60.8909L42.4324 59.1209L42.3224 58.6013Z" fill="#C3E2FC"/>
<path d="M42.6278 60.0169L34.2762 61.7869L34.3862 62.3065L42.7378 60.5365L42.6278 60.0169Z" fill="#C3E2FC"/>
<path d="M42.9332 61.4325L34.5816 63.2025L34.6916 63.7221L43.0432 61.9521L42.9332 61.4325Z" fill="#C3E2FC"/>
<path d="M43.2463 62.8457L34.8947 64.6157L35.0138 65.1786L43.3654 63.4086L43.2463 62.8457Z" fill="#C3E2FC"/>
<path d="M43.5516 64.3076L35.2 66.0776L35.3191 66.6405L43.6707 64.8705L43.5516 64.3076Z" fill="#C3E2FC"/>
<path d="M47.3669 35.7158L39.448 37.394L39.5671 37.9569L47.486 36.2787L47.3669 35.7158Z" fill="#C3E2FC"/>
<path d="M45.4658 26.7256L29.1953 30.1738L30.8908 38.1844L47.1613 34.7362L45.4658 26.7256Z" fill="#B3D9FF"/>
<path d="M49.0162 43.7193L14.2683 51.0835L15.9638 59.0941L50.7117 51.7299L49.0162 43.7193Z" fill="#53A4F4"/>
<path d="M47.6722 37.1777L39.7533 38.856L39.8724 39.4189L47.7913 37.7406L47.6722 37.1777Z" fill="#C3E2FC"/>
<path d="M37.9898 37.6765L31.196 39.1163L32.5707 45.6113L39.3645 44.1715L37.9898 37.6765Z" fill="#B3D9FF"/>
<path d="M47.9866 38.6829L40.0677 40.3611L40.1869 40.924L48.1058 39.2458L47.9866 38.6829Z" fill="#C3E2FC"/>
<path d="M48.2919 40.1448L40.373 41.8231L40.4922 42.386L48.4111 40.7077L48.2919 40.1448Z" fill="#C3E2FC"/>
<path d="M48.6064 41.6501L40.6876 43.3283L40.8067 43.8912L48.7256 42.213L48.6064 41.6501Z" fill="#C3E2FC"/>
<path d="M20.2541 32.1722L10.7341 34.1898L12.4022 42.0705L21.9221 40.0529L20.2541 32.1722Z" fill="#53A4F4"/>
<path d="M16.326 60.7609L31.3208 57.7069L33.3113 67.0902L18.3165 70.1442L16.326 60.7609Z" fill="#B3D9FF"/>
<path d="M41.974 10.3134L7.22614 17.6776L10.0856 31.1873L44.8335 23.8231L41.974 10.3134Z" fill="#FFAA00"/>
<path d="M14.9549 28.4506L14.026 28.6276L12.0798 19.3771L13.4067 19.1115L16.9453 25.3523L15.5299 18.6689L16.4588 18.4919L18.405 27.7424L17.3434 27.9637L13.3625 21.0147L14.9549 28.4506Z" fill="white"/>
<path d="M22.9167 21.4131L23.0936 22.3426L20.8378 22.8294L21.5455 26.1047L24.3321 25.5293L24.5091 26.4588L20.7051 27.2555L18.7589 18.005L22.5628 17.2083L22.7398 18.1378L19.9531 18.7132L20.6166 21.8557L22.9167 21.4131Z" fill="white"/>
<path d="M29.2862 25.4408L27.8708 25.7507L24.6418 16.7657L25.6591 16.5444L28.4015 24.2015L27.7823 16.1461L28.7996 15.9248L31.4978 23.5819L30.8786 15.4822L31.7632 15.3051L32.4709 24.8212L31.0997 25.131L28.8881 19.0673L29.2862 25.4408Z" fill="white"/>
<path d="M38.3539 16.1903L38.3981 16.4559L37.425 16.6772L37.3807 16.3674C37.2038 15.5264 36.8057 15.1281 36.0538 15.2609C35.3018 15.4379 35.0807 15.969 35.2576 16.81C35.6999 18.8902 38.8404 18.4034 39.3712 21.0148C39.6808 22.4311 39.1943 23.4491 37.7788 23.7589C36.3634 24.0687 35.523 23.2721 35.2134 21.9L35.0807 21.3688L36.0538 21.1475L36.1865 21.7229C36.3634 22.5639 36.8057 22.9622 37.5577 22.8294C38.3096 22.6967 38.5308 22.1213 38.3539 21.2803C37.9115 19.2001 34.771 19.6869 34.2402 17.0755C33.9306 15.6592 34.4172 14.6412 35.7884 14.3314C37.2038 13.9773 38.0442 14.774 38.3539 16.1903Z" fill="white"/>
<path d="M42.5559 2.69073L42.9098 4.41691L36.0095 5.92178L3.80829 12.7379C3.4102 12.8265 3.01211 12.5609 2.92364 12.1625L2.87941 11.897C2.79095 11.4986 3.05634 11.1003 3.45443 11.0118L42.5559 2.69073Z" fill="#76B4FF"/>
</svg>
