<svg width="41" height="42" viewBox="0 0 41 42" fill="none" xmlns="http://www.w3.org/2000/svg">
<path d="M40.6895 10.7785V31.4483C40.6895 36.8923 36.2662 41.3184 30.8256 41.3184H10.1691C4.72856 41.3184 0.305298 36.8923 0.305298 31.4483V10.7785C0.305298 5.3344 4.72856 0.908325 10.1691 0.908325H30.8256C36.2662 0.908325 40.6895 5.3344 40.6895 10.7785Z" fill="#53A4F4"/>
<path d="M7.38249 22.9945C6.85169 23.1715 6.5863 23.7469 6.80747 24.2338L7.38249 25.9157C7.55942 26.4025 8.13446 26.6681 8.62102 26.4911L9.46143 26.1812L8.22292 22.6404L7.38249 22.9945Z" fill="#0D5DBC"/>
<path d="M17.7771 27.509L14.1058 28.7926H14.0616L15.7867 33.6613C15.8309 33.794 15.9636 33.8826 16.0963 33.9268L19.6349 34.3252C19.9003 34.3694 20.1214 34.1039 20.033 33.8383L17.7771 27.509Z" fill="#0D5DBC"/>
<path d="M33.6566 24.3223L31.8873 19.3651C32.595 18.7897 33.0816 17.9487 33.0816 16.975C33.0816 15.2931 31.7103 13.921 30.0295 13.921H29.9853L28.2602 9.00806C28.039 8.34415 27.2871 7.99007 26.6236 8.21137C25.9601 8.43268 25.6063 9.1851 25.8274 9.84901L31.268 25.1633C31.4892 25.8272 32.2411 26.1813 32.9046 25.96C33.5681 25.7386 33.8777 24.9862 33.6566 24.3223Z" fill="#0D5DBC"/>
<path d="M14.9904 17.5504L10.6557 19.0995C9.41716 19.5421 8.7979 20.8699 9.24023 22.1092L10.6999 26.1812C11.1422 27.3763 12.425 28.0402 13.6635 27.6418H13.7077L18.0425 26.0927C18.0425 26.0927 27.2428 23.8354 29.941 25.5616L24.5889 10.5129C23.5715 13.4784 14.9904 17.5504 14.9904 17.5504Z" fill="#0D5DBC"/>
</svg>
