<svg width="40" height="39" viewBox="0 0 40 39" fill="none" xmlns="http://www.w3.org/2000/svg">
<path d="M39.0599 9.79704V29.3161C39.0599 34.4503 34.8578 38.6551 29.7268 38.6551H10.1761C5.0451 38.6551 0.843018 34.4503 0.843018 29.3161V9.79704C0.843018 4.66279 5.0451 0.458008 10.1761 0.458008H29.6826C34.8578 0.458008 39.0599 4.66279 39.0599 9.79704Z" fill="#FFAA00"/>
<path d="M25.392 8.24792H13.8031C10.7511 8.24792 8.27405 10.7265 8.27405 13.7805V25.3768C8.27405 28.4308 10.7511 30.9094 13.8031 30.9094H25.392C28.444 30.9094 30.9211 28.4308 30.9211 25.3768V13.7805C30.9211 10.7265 28.444 8.24792 25.392 8.24792ZM23.8881 20.5524L16.9878 24.7129C16.2359 25.1555 15.307 24.6244 15.307 23.7835V15.4182C15.307 14.5772 16.2359 14.0461 16.9878 14.4887L23.8881 18.6492C24.5958 19.0918 24.5958 20.1098 23.8881 20.5524Z" fill="white"/>
</svg>
