<svg width="362" height="269" viewBox="0 0 362 269" fill="none" xmlns="http://www.w3.org/2000/svg">
<rect width="362" height="269" fill="#E0E0E0"/>
<path fill-rule="evenodd" clip-rule="evenodd" d="M236 91H192L181 80H148C141.95 80 137.055 84.95 137.055 91L137 157C137 163.05 141.95 168 148 168H236C242.05 168 247 163.05 247 157V102C247 95.95 242.05 91 236 91ZM115 102H126V179H225V190H126C119.95 190 115 185.05 115 179L115.055 129.5H115V102ZM153.5 151.5L178.25 118.5L197.5 143.305L211.25 126.75L230.5 151.5H153.5ZM148 157H236V102H187.435L184.19 98.755L176.435 91H148V157Z" fill="white" fill-opacity="0.65"/>
</svg>
