<svg width="386" height="257" viewBox="0 0 386 257" fill="none" xmlns="http://www.w3.org/2000/svg">
    <g opacity="0.600006">
        <g opacity="0.600006">
            <path opacity="0.600006" d="M368.121 200.801C368.121 207.357 242.826 246.808 202.218 240.911C165.157 235.529 0 214.784 0 208.229C0 201.673 36.7241 199.012 74.174 199.012C111.625 199.012 368.121 194.246 368.121 200.801Z" fill="#D6E0EF"/>
        </g>
    </g>
    <path d="M232.152 224.778L364.687 201.032C364.687 201.032 348.162 189.214 361.87 164.706L232.152 187.947C212.866 210.591 232.152 224.778 232.152 224.778Z" fill="#EBE8DD"/>
    <path d="M232.152 187.947L28.9788 164.202L160.027 143.488L364.687 164.202L232.152 187.947Z" fill="#FFA31B"/>
    <path d="M233.069 191.008L364.688 167.118V164.202L232.152 187.947L226.255 190.486L221.074 205.456L225.418 223.385L229.653 222.995L232.152 224.778L364.688 200.996V198.081L232.326 220.757C229.717 216.286 224.507 204.367 233.069 191.008Z" fill="#FF841B"/>
    <path d="M232.152 224.778L28.9787 201.032C14.9795 199.016 16.9257 162.462 28.9787 164.201L232.152 187.947C222.669 196.492 222.429 216.858 232.152 224.778Z" fill="#FFC507"/>
    <path d="M234.202 198.581C266.421 194.742 340.938 178.997 340.938 178.997C340.938 178.997 265.584 191.531 234.202 198.581Z" fill="#EBE8DD"/>
    <path d="M235.42 214.16C249.287 216.423 350.058 193.793 350.058 193.793C350.058 193.793 256.141 209.983 235.42 214.16Z" fill="#EBE8DD"/>
    <path d="M234.118 206.008C263.313 205.305 328.983 190.138 328.983 190.138C328.983 190.138 254.228 200.517 234.118 206.008Z" fill="#EBE8DD"/>
    <g opacity="0.600006">
        <g opacity="0.600006">
            <path opacity="0.600006" d="M19.6946 182.241C18.6187 187.947 20.9608 197.339 27.003 200.477C38.6534 202.165 232.152 224.778 232.152 224.778L364.688 201.032L356.005 190.138L225.255 211.053L19.6946 182.241Z" fill="#D6E0EF"/>
        </g>
    </g>
    <path d="M238.448 198.746C238.448 198.746 240.541 203.259 240.541 219.795L244.505 212.702L248.311 216.205C248.311 216.205 248.012 199.33 245.584 197.39L238.448 198.746Z" fill="#FF841B"/>
    <path d="M224.497 181.465L331.8 163.862C331.8 163.862 318.421 146.883 329.518 128.715L224.497 145.943C208.883 162.731 224.497 181.465 224.497 181.465Z" fill="#EBE8DD"/>
    <path d="M224.497 145.944L60.0029 128.34L166.103 112.983L331.8 128.34L224.497 145.944Z" fill="#E36B7B"/>
    <path d="M225.24 148.213L331.801 130.501V128.34L224.498 145.944L219.722 147.826L215.529 158.925L219.044 180.433L222.473 180.144L224.498 181.466L331.801 163.834V161.672L226.157 178.484C221.932 176.664 218.307 158.116 225.24 148.213Z" fill="#E35566"/>
    <path d="M224.497 181.465L60.003 163.862C48.6693 162.366 50.2434 127.05 60.003 128.34L224.497 145.943C216.82 152.278 216.625 175.593 224.497 181.465Z" fill="#E3546C"/>
    <path d="M233.252 172.307C275.233 166.153 319.443 156.742 319.443 156.742C319.443 156.742 264.404 164.123 233.252 172.307Z" fill="#EBE8DD"/>
    <path d="M225.938 170.655C267.919 164.502 312.128 155.09 312.128 155.09C312.128 155.09 257.091 162.471 225.938 170.655Z" fill="#EBE8DD"/>
    <path d="M243.764 156.061C277.83 151.068 313.703 143.431 313.703 143.431C313.703 143.431 269.044 149.421 243.764 156.061Z" fill="#EBE8DD"/>
    <path d="M231.584 154.387C273.565 148.234 317.775 138.822 317.775 138.822C317.775 138.822 262.736 146.203 231.584 154.387Z" fill="#EBE8DD"/>
    <path d="M225.938 163.844C267.919 157.691 312.128 148.279 312.128 148.279C312.128 148.279 257.091 155.66 225.938 163.844Z" fill="#EBE8DD"/>
    <path d="M230.747 150.858L240.89 149.495C247.1 154.559 245.701 176.129 245.51 180.949L241.458 176.861L236.045 182.5C236.045 182.5 237.113 152.14 230.747 150.858Z" fill="#FFC507"/>
    <g opacity="0.600006">
        <g opacity="0.600006">
            <path opacity="0.600006" d="M52.1001 147.136C52.1001 147.136 51.861 154.128 55.3383 160.539C52.8795 161.719 50.9304 162.672 50.6082 164.141C50.3471 165.333 54.8247 165.333 54.8247 165.333L228.452 183.531L333.889 166.087L326.667 153.626L223.58 173.019L52.1001 147.136Z" fill="#D6E0EF"/>
        </g>
    </g>
    <path d="M206.526 141.196L287.356 125.153C287.356 125.153 277.084 110.713 285.28 95.0351L206.17 110.738C194.551 125.27 206.526 141.196 206.526 141.196Z" fill="#EBE8DD"/>
    <path d="M206.17 110.738L81.8127 97.0975L161.755 82.9913L286.999 94.6942L206.17 110.738Z" fill="#7E53B3"/>
    <path d="M206.752 112.677L287.02 96.5474L286.998 94.694L206.17 110.738L202.585 112.394L199.529 121.947L202.4 140.359L204.985 140.081L206.527 141.196L287.355 125.129L287.334 123.276L207.75 138.625C204.541 137.103 201.619 121.23 206.752 112.677Z" fill="#9C77CF"/>
    <path d="M206.526 141.196L82.1694 127.555C73.5985 126.374 74.4325 96.0775 81.8127 97.098L206.17 110.738C200.437 116.238 200.525 136.231 206.526 141.196Z" fill="#784C9E"/>
    <path d="M213.043 131.914C244.674 126.267 277.954 117.805 277.954 117.805C277.954 117.805 236.48 124.621 213.043 131.914Z" fill="#EBE8DD"/>
    <path d="M208.577 123.529C234.244 118.946 261.249 112.081 261.249 112.081C261.249 112.081 227.595 117.612 208.577 123.529Z" fill="#EBE8DD"/>
    <path d="M210.987 119.135C242.617 113.488 275.898 105.026 275.898 105.026C275.898 105.026 234.422 111.843 210.987 119.135Z" fill="#EBE8DD"/>
    <path d="M212.522 127.092C244.153 121.445 277.433 112.983 277.433 112.983C277.433 112.983 235.958 119.799 212.522 127.092Z" fill="#EBE8DD"/>
    <path d="M210.987 125.524C210.987 125.524 214.047 133.59 213.711 135.566L220.086 133.705C220.086 133.705 217.956 124.426 216.819 124.209L210.987 125.524Z" fill="#9C77CF"/>
    <g opacity="0.600006">
        <g opacity="0.600006">
            <path opacity="0.600006" d="M77.4412 108.006C76.1864 108.006 74.8695 116.18 78.1843 122.59C75.8402 123.771 75.6499 125.485 75.3429 126.954C75.0933 128.147 81.5966 130.047 81.5966 130.047L214.624 144.401L308.665 129.464L287.334 123.275L202.052 128.714L77.4412 108.006Z" fill="#D6E0EF"/>
        </g>
    </g>
    <g opacity="0.600006">
        <g opacity="0.600006">
            <path opacity="0.600006" d="M188.631 155.678C188.643 155.616 188.656 155.544 188.669 155.485L188.871 154.577C188.817 154.991 188.764 155.455 188.729 155.874C188.699 155.811 188.664 155.744 188.631 155.678ZM186.741 164.243C186.899 163.585 187.049 162.95 187.186 162.358C187.872 164.096 188.851 165.645 190.464 165.804C192.995 166.056 195.32 156.017 195.622 154.663C195.778 154.629 195.932 154.594 196.082 154.547C196.082 154.547 197.213 146.543 196.699 141.151C196.358 137.564 185.78 135.383 180.323 133.821C181.501 132.716 182.137 131.717 182.137 131.717C183.124 131.936 184.62 131.155 185.193 128.814C185.706 126.717 183.95 126.618 183.95 126.618C187.053 125.4 186.838 114.79 183.744 115.696C177.7 109.429 164.316 113.149 162.492 117.084C160.124 122.187 161.471 125.169 162.865 126.714C162.381 126.885 161.669 127.374 162.021 128.814C162.594 131.155 164.09 131.936 165.077 131.717C165.077 131.717 165.565 132.482 166.474 133.411C161.056 135.074 151.802 138.13 151.467 141.654C150.953 147.047 152.896 154.403 152.896 154.403C153.07 154.457 153.241 154.48 153.413 154.517C153.373 154.513 153.332 154.513 153.292 154.509C153.292 154.509 155.769 166.073 158.483 165.804C159.36 165.717 160.044 165.213 160.602 164.5C160.602 164.503 160.603 164.505 160.604 164.509C159.101 168.12 151.992 179.034 152.976 181.633C153.091 181.937 153.252 182.295 153.438 182.678C151.104 183.467 149.558 184.02 149.263 184.125C148.136 183.757 145.051 182.819 144.354 183.317C143.497 183.932 136.694 196.038 139.746 194.355C141.415 193.434 147.389 188.14 147.389 188.14C147.389 188.14 151.095 187.973 156.308 187.675C161.035 195.186 169.096 206.122 172.151 209.766H172.149C174.683 214.874 170.711 219.511 173.549 219.655C175.213 219.737 178.379 212.085 179.109 210.41C179.708 209.033 177.282 207.981 176.538 207.666C176.007 203.278 174.47 196.43 172.254 190.406C172.256 190.406 172.257 190.406 172.259 190.406C172.244 190.37 172.228 190.326 172.212 190.289C172.068 189.899 171.919 189.517 171.77 189.135C171.467 188.322 171.127 187.405 170.807 186.714V186.713C178.887 186.084 186.546 185.285 189.038 184.393C199.383 182.719 198.952 178.057 186.741 164.244C186.741 164.244 186.741 164.244 186.741 164.243Z" fill="#D6E0EF"/>
        </g>
    </g>
    <path d="M183.565 164.244C182.036 162.165 175.479 164.621 173.314 165.519C170.539 164.629 162.726 161.927 161.838 164.499C160.595 168.099 154.673 179.033 155.492 181.633C157.424 187.772 171.865 211.154 172.437 211.006C173.214 210.807 174.032 211.126 175.227 209.452C174.932 203.842 172.48 190.929 168.93 183.517C170.613 179.907 184.73 184.538 185.474 184.393C194.075 182.719 193.716 178.057 183.565 164.244Z" fill="#3F68B4"/>
    <g opacity="0.5">
        <g opacity="0.5">
            <path opacity="0.5" d="M171.524 190.407C171.205 189.49 170.741 187.816 170.317 186.714C168.629 182.323 181.17 175.69 179.934 175.196C179.301 174.942 174.467 175.599 173.548 172.413C170.384 180.852 160.662 182.301 157.932 183.437C158.055 184.324 159.775 186.237 160.301 187.532C162.979 187.532 166.671 188.267 171.524 190.407Z" fill="#3F68B4"/>
        </g>
    </g>
    <path d="M177.757 143.28H167.581V132.612H177.757V143.28Z" fill="#FBF4DB"/>
    <path d="M177.757 143.28H167.581V132.612H177.757V143.28Z" fill="#FBF4DB"/>
    <path d="M191.844 141.151C191.546 137.402 181.95 135.189 177.637 133.612C176.377 142.007 168.797 141.503 167.536 133.109C163.223 134.685 154.534 137.905 154.237 141.654C153.81 147.047 155.425 154.402 155.425 154.402C157.726 155.266 159.886 153.948 159.886 153.948L162.014 165.453C162.014 165.453 164.431 166.802 172.669 166.802C180.906 166.802 183.323 165.453 183.323 165.453L185.451 153.948C185.451 153.948 189.029 155.409 191.329 154.548C191.329 154.548 192.27 146.544 191.844 141.151Z" fill="#62C9FF"/>
    <path d="M181.244 126.619C182.587 115.695 172.645 115.696 172.645 115.696C172.645 115.696 162.702 115.695 164.045 126.619C164.045 126.619 162.586 126.717 163.012 128.815C163.488 131.156 164.732 131.936 165.552 131.717C165.552 131.717 168.178 136.711 172.645 136.711C177.111 136.711 179.737 131.717 179.737 131.717C180.557 131.936 181.801 131.156 182.277 128.815C182.704 126.717 181.244 126.619 181.244 126.619Z" fill="#FBF4DB"/>
    <path d="M167.51 125.4C167.51 125.4 165.881 126.537 165.186 128.097C165.186 128.097 160.196 125.4 163.403 117.083C164.92 113.149 176.047 109.429 181.071 115.697C183.645 114.79 183.823 125.4 181.244 126.618C180.091 126.779 179.997 124.123 179.053 122.182C175.76 124.731 171.547 122.394 167.51 125.4Z" fill="#A28A96"/>
    <path d="M173.123 147.565C170.384 144.863 166.914 144.346 161.708 145.183L165.025 160.322C165.025 160.322 170.333 158.132 173.123 160.523C176.237 157.794 178.978 158.789 181.191 159.97L184.538 145.343C184.538 145.343 176.17 143.657 173.123 147.565Z" fill="#EBE8DD"/>
    <path d="M173.123 148.522C170.384 145.819 166.914 145.302 161.708 146.139L165.025 161.278C165.025 161.278 170.333 159.088 173.123 161.479C176.237 158.751 178.978 159.745 181.191 160.926L184.538 146.299C184.538 146.299 176.17 144.613 173.123 148.522Z" fill="#E3C336"/>
    <g opacity="0.399994">
        <g opacity="0.399994">
            <path opacity="0.399994" d="M183.323 165.453C185.095 156.665 185.474 153.382 185.474 153.382C185.474 153.382 182.767 156.45 182.24 156.819C181.713 157.187 177.977 154.785 177.145 155.783C176.122 157.008 178.593 159.43 180.566 159.43C182.29 159.431 182.072 164.704 183.323 165.453Z" fill="#62C9FF"/>
        </g>
    </g>
    <g opacity="0.399994">
        <g opacity="0.399994">
            <path opacity="0.399994" d="M161.256 153.382C161.256 153.382 162.883 154.24 163.033 155.096C163.183 155.951 164.7 155.544 166.859 155.544C169.011 155.544 169.703 155.315 170.282 155.728C170.861 156.143 168.93 160.006 165.424 159.432C163.445 159.107 162.453 165.952 162.014 165.453C161.47 162.629 161.359 161.91 161.25 160.418C161.027 157.368 161.256 153.382 161.256 153.382Z" fill="#62C9FF"/>
        </g>
    </g>
    <path d="M155.754 154.509C155.754 154.509 157.814 166.073 160.07 165.804C162.754 165.485 163.325 159.614 164.063 157.776C165.235 158.199 166.985 158.647 168.623 157.154C170.214 155.702 169.702 154.172 168.037 154.579C165.921 155.095 163.79 155.095 163.232 152.548C163.054 151.736 162.453 152.197 162.395 153.82C162.386 154.082 161.819 155.095 161.514 155.875C161.439 154.786 161.256 153.381 161.256 153.381C161.256 153.381 158.133 154.821 155.754 154.509Z" fill="#FBF4DB"/>
    <path d="M158.661 160.834C159.127 158.761 159.816 157.653 161.514 155.874C161.429 154.877 161.256 153.382 161.256 153.382C161.256 153.382 158.368 159.289 158.645 160.926C158.652 160.895 158.654 160.864 158.661 160.834Z" fill="#FBF4DB"/>
    <path d="M190.976 154.509C190.976 154.509 188.916 166.073 186.66 165.804C183.977 165.485 183.406 159.614 182.667 157.776C181.495 158.199 179.746 158.647 178.107 157.154C176.515 155.702 177.029 154.172 178.694 154.579C180.808 155.095 182.941 155.095 183.498 152.548C183.676 151.736 184.278 152.197 184.335 153.82C184.344 154.082 184.911 155.095 185.217 155.875C185.292 154.786 185.474 153.381 185.474 153.381C185.474 153.381 188.598 154.821 190.976 154.509Z" fill="#FBF4DB"/>
    <path d="M188.07 160.834C187.603 158.761 186.915 157.653 185.216 155.874C185.301 154.877 185.475 153.382 185.475 153.382C185.475 153.382 188.362 159.289 188.085 160.926C188.079 160.895 188.077 160.864 188.07 160.834Z" fill="#FBF4DB"/>
    <path d="M171.432 209.766C172.467 209.617 174.364 208.93 175.079 207.666C175.696 207.98 177.717 209.031 177.219 210.409C176.613 212.086 173.98 219.738 172.597 219.654C170.238 219.511 173.539 214.875 171.432 209.766Z" fill="#1A3360"/>
    <path d="M152.751 184.264L150.847 188.14C150.847 188.14 145.88 193.435 144.493 194.356C141.954 196.038 147.611 183.931 148.324 183.318C149.036 182.704 152.751 184.264 152.751 184.264Z" fill="#1A3360"/>
    <path d="M152.354 184.148C152.354 184.148 174.418 174.564 182.24 175.124C191.868 175.912 189.922 182.48 185.474 184.393C180.506 186.532 150.847 188.141 150.847 188.141L152.354 184.148Z" fill="#3F68B4"/>
    <g opacity="0.600006">
        <g opacity="0.600006">
            <path opacity="0.600006" d="M75.3451 227.766C75.3451 230.837 59.4983 233.326 39.9494 233.326C20.3996 233.326 4.55273 230.837 4.55273 227.766C4.55273 224.695 20.3996 222.205 39.9494 222.205C59.4983 222.205 75.3451 224.695 75.3451 227.766Z" fill="#D6E0EF"/>
        </g>
    </g>
    <path d="M45.8851 168.456L34.7369 172.366L11.3339 105.63C10.915 104.436 11.5433 103.128 12.7378 102.709L19.5595 100.316C20.755 99.8971 22.0623 100.526 22.4812 101.721L45.8851 168.456Z" fill="#5F46A4"/>
    <path d="M62.5284 207.803L46.3134 213.49L12.2719 116.42C11.6627 114.682 12.5779 112.779 14.3146 112.17L24.2368 108.691C25.9755 108.081 27.8777 108.996 28.4869 110.733L62.5284 207.803Z" fill="#7168DD"/>
    <path d="M60.9369 229.227L46.3132 213.49L62.5282 207.804L60.9369 229.227Z" fill="#5F46A4"/>
    <path d="M54.825 222.649L60.937 229.227L61.6017 220.273L54.825 222.649Z" fill="#E5FBFF"/>
    <g opacity="0.300003">
        <g opacity="0.300003">
            <path opacity="0.300003" d="M32.4391 122.002C32.2622 121.977 32.0814 121.979 31.9016 122.042L29.5882 122.853L29.5653 122.788C29.1464 121.592 27.8352 120.962 26.6388 121.381L25.0331 121.944C23.8367 122.364 23.2065 123.675 23.6263 124.871L23.6493 124.936L16.1772 127.557L17.8949 132.455L25.3669 129.834L39.9714 171.482C40.3922 172.679 41.7024 173.309 42.8997 172.89L44.5045 172.327C45.7009 171.908 46.3311 170.597 45.9113 169.4L31.3058 127.752L33.6193 126.941C33.7991 126.878 33.9425 126.766 34.064 126.637L32.4391 122.002Z" fill="#7168DD"/>
        </g>
    </g>
    <path d="M33.1531 123.718L16.7372 129.475C16.1395 129.684 15.4854 129.369 15.2759 128.771L14.3177 126.038C14.1073 125.44 14.4229 124.786 15.0206 124.576L31.4355 118.82C32.0332 118.61 32.6873 118.925 32.8968 119.523L33.856 122.257C34.0655 122.854 33.7508 123.509 33.1531 123.718Z" fill="#FFAD32"/>
    <path d="M44.0377 169.105L42.4329 169.667C41.2365 170.087 39.9254 169.457 39.5055 168.26L23.1595 121.649C22.7396 120.452 23.3708 119.142 24.5672 118.722L26.172 118.159C27.3694 117.74 28.6796 118.369 29.0994 119.566L45.4455 166.176C45.8653 167.374 45.2351 168.685 44.0377 169.105Z" fill="#FFAD32"/>
    <g opacity="0.600006">
        <g opacity="0.600006">
            <path opacity="0.600006" d="M156.806 87.9881C156.806 87.9881 173.007 87.7089 183.096 87.6314C193.184 87.5539 237.865 90.0319 231.584 94.6941C225.303 99.3573 197.227 108.398 185.922 106.428C174.616 104.458 159.912 94.9093 148.296 99.3649C136.68 103.82 100.497 105.601 106.548 96.865C112.598 88.1287 156.806 87.9881 156.806 87.9881Z" fill="#D6E0EF"/>
        </g>
    </g>
    <path d="M212.774 21.7885C211.211 12.8753 201.784 14.1587 197.425 16.3191C193.067 18.4805 174.97 45.6907 180.654 72.3109C185.22 93.6921 198.893 95.1142 203.821 89.0634C208.747 83.0115 205.692 75.4401 205.692 75.4401C205.692 75.4401 192.76 81.4221 189.75 69.7966C185.344 52.7811 197.948 23.2068 203.536 28.0679C209.125 32.9291 213.436 25.5661 212.774 21.7885Z" fill="#FF9301"/>
    <g opacity="0.300003">
        <g opacity="0.300003">
            <path opacity="0.300003" d="M212.774 21.7885C211.211 12.8753 201.784 14.1587 197.425 16.3191C193.067 18.4805 174.97 45.6907 180.654 72.3109C185.22 93.6921 198.893 95.1142 203.821 89.0634C208.747 83.0115 205.692 75.4401 205.692 75.4401C205.692 75.4401 192.76 81.4221 189.75 69.7966C185.344 52.7811 197.948 23.2068 203.536 28.0679C209.125 32.9291 213.436 25.5661 212.774 21.7885Z" fill="#FF9301"/>
        </g>
    </g>
    <path d="M193.478 22.8233C191.773 13.9101 181.485 15.1935 176.729 17.3539C171.974 19.5143 152.227 46.7255 158.43 73.3457C163.412 94.7269 178.332 96.149 183.708 90.0982C189.084 84.0463 185.749 76.4749 185.749 76.4749C185.749 76.4749 171.64 82.4559 168.355 70.8305C163.548 53.8159 177.299 24.2406 183.398 29.1027C189.496 33.9639 194.201 26.5999 193.478 22.8233Z" fill="#FF9301"/>
    <g opacity="0.300003">
        <g opacity="0.300003">
            <path opacity="0.300003" d="M168.355 70.8306C163.547 53.8151 177.3 24.2408 183.398 29.1029C183.425 29.1249 183.452 29.1392 183.479 29.1612C183.456 29.0799 183.434 28.9977 183.41 28.9164C183.357 28.7653 183.289 28.5692 183.2 28.3129C182.842 27.3986 182.5 26.4767 182.106 25.5863C181.983 25.3061 180.737 22.8952 180.955 23.1763C180.451 22.3749 179.891 21.628 179.306 20.926C179.741 21.4798 178.353 20.0672 178.244 19.9668C177.974 19.7908 177.795 19.6713 177.691 19.5957C177.346 19.4494 176.999 19.3155 176.644 19.2094C175.709 18.9569 175.627 18.9416 176.396 19.1654C175.835 19.1348 175.273 19.1472 174.713 19.2046C174.612 19.2113 174.512 19.1998 174.412 19.1998C167.568 26.1028 152.978 49.9505 158.43 73.3458C163.413 94.7261 178.332 96.1492 183.708 90.0973C189.084 84.0465 185.749 76.474 185.749 76.474C185.749 76.474 171.64 82.456 168.355 70.8306Z" fill="#FF9301"/>
        </g>
    </g>
    <path d="M179.861 22.176C179.861 22.176 171.905 31.7922 171.419 43.5525C170.934 55.3119 168.026 88.0336 174.334 95.1967C180.641 102.36 227.683 101.31 229.394 94.7788C231.105 88.2478 230.134 42.4632 227.223 37.1315C224.312 31.7998 222.569 24.0974 218.831 22.176C215.093 20.2547 182.169 17.4296 179.861 22.176Z" fill="#FFC507"/>
    <g opacity="0.399994">
        <g opacity="0.399994">
            <path opacity="0.399994" d="M183.096 87.6318C183.021 84.1306 184.451 80.6848 184.663 77.6283C185.207 69.7872 184.396 61.9125 184.974 54.0694C185.461 47.4648 187.083 40.056 185.454 33.7344C184.447 29.8287 181.636 26.8439 179.228 23.0003C177.347 25.5452 171.821 33.8014 171.419 43.5524C170.934 55.3127 168.025 88.0335 174.333 95.1966C176.117 97.2221 181.161 98.5907 187.514 99.3644C184.675 96.173 183.188 91.9651 183.096 87.6318Z" fill="#FFC507"/>
        </g>
    </g>
    <g opacity="0.399994">
        <g opacity="0.399994">
            <path opacity="0.399994" d="M224.44 80.4088C217.479 91.425 205.645 98.9697 192.327 97.0561C183.993 95.8587 175.961 90.6035 170.878 83.5169C171.437 88.817 172.489 93.1025 174.333 95.1959C180.641 102.36 227.683 101.309 229.394 94.778C230.238 91.558 230.43 78.7897 230.057 66.0347C228.967 71.1005 227.234 75.9894 224.44 80.4088Z" fill="#FFC507"/>
        </g>
    </g>
    <path d="M184.696 19.0081C193.22 18.4448 208.648 19.0081 214.609 19.5714C216.933 19.7914 228.501 33.0599 226.836 51.3846C226.122 59.2363 191.644 57.9261 191.743 51.377C192.173 23.0258 175.712 19.602 184.696 19.0081Z" fill="#FFA31B"/>
    <path d="M169.609 70.7373C169.609 70.7373 184.214 74.117 185.773 72.8173C185.773 72.8173 183.954 93.4153 185.773 94.9464C187.593 96.4785 172.044 95.0449 170.328 91.341C168.614 87.638 168.871 73.065 169.609 70.7373Z" fill="#FFA31B"/>
    <path d="M224.98 66.1147C224.98 66.1147 194.905 65.428 192.013 68.8441C189.122 72.2612 188.894 91.6637 190.193 94.7212C191.493 97.7777 193.552 95.5523 193.552 95.5523C193.552 95.5523 191.696 72.5576 196.073 70.7367C200.45 68.9177 226.65 67.5808 228.154 68.1374C229.659 68.694 224.98 66.1147 224.98 66.1147Z" fill="#FFA31B"/>
    <path d="M205.738 49.1651C205.738 49.1651 206.364 52.8213 206.052 59.1753C205.987 60.4999 211.983 63.2437 211.983 63.2437C211.983 63.2437 217.418 60.7791 217.474 59.5426C217.688 54.9004 217.358 53.7537 216.986 49.4138C216.907 48.4919 208.439 48.8849 205.738 49.1651Z" fill="#FF9301"/>
    <g opacity="0.300003">
        <g opacity="0.300003">
            <path opacity="0.300003" d="M211.119 55.4705C211.083 55.3845 213.123 54.9503 213.187 55.6006C213.252 56.25 213.587 64.051 212.842 65.3506C212.842 65.3506 211.057 66.066 211.121 65.3506C211.186 64.6353 211.508 56.38 211.119 55.4705Z" fill="#FF9301"/>
        </g>
    </g>
    <path d="M75.3424 26.9695C75.3424 26.9695 67.0795 33.9959 76.4776 39.4098C85.6405 26.1069 104.133 21.7086 111.978 17.7397C119.824 13.7718 112.771 11.1638 112.771 11.1638L75.3424 26.9695Z" fill="#F5E6E5"/>
    <path d="M75.3425 26.9695C81.863 25.4451 93.9609 27.4247 96.8376 46.2114C99.9151 66.313 111.202 104.382 128.289 100.493L173.995 70.1853C173.995 70.1853 150.798 59.6052 147.595 29.9313C145.113 6.93099 134.164 -2.09511 127.248 0.402889C122.491 2.12147 82.4272 21.4446 75.3425 26.9695Z" fill="#EBE8DD"/>
    <path d="M128.049 85.602C130.579 85.5771 137.612 95.3884 128.289 100.493C145.797 94.7189 168.999 76.3483 175.54 70.5432C182.115 64.7066 175.329 61.235 173.802 62.5825C163.229 71.9108 136.307 81.1052 128.049 85.602Z" fill="#F5E6E5"/>
    <path d="M92.782 25.4547C92.782 25.4547 116.316 12.4904 128.478 6.78665" stroke="#CFC8C7" stroke-miterlimit="10" stroke-linecap="round" stroke-linejoin="round"/>
    <path d="M96.6421 29.9385C96.6421 29.9385 120.176 16.9741 132.338 11.2704" stroke="#CFC8C7" stroke-miterlimit="10" stroke-linecap="round" stroke-linejoin="round"/>
    <path d="M103.615 44.6375C103.615 44.6375 127.15 31.6731 139.311 25.9694" stroke="#CFC8C7" stroke-miterlimit="10" stroke-linecap="round" stroke-linejoin="round"/>
    <path d="M105.254 53.007C105.254 53.007 128.788 40.0426 140.95 34.3389" stroke="#CFC8C7" stroke-miterlimit="10" stroke-linecap="round" stroke-linejoin="round"/>
    <path d="M107.794 58.78C107.794 58.78 131.328 45.8157 143.49 40.112" stroke="#CFC8C7" stroke-miterlimit="10" stroke-linecap="round" stroke-linejoin="round"/>
    <path d="M115.54 80.6688C115.54 80.6688 139.971 66.0356 152.605 59.6156" stroke="#CFC8C7" stroke-miterlimit="10" stroke-linecap="round" stroke-linejoin="round"/>
    <path d="M119.904 87.3586C119.904 87.3586 144.221 72.537 156.806 66.0204" stroke="#CFC8C7" stroke-miterlimit="10" stroke-linecap="round" stroke-linejoin="round"/>
    <path d="M109.731 67.2335C109.731 67.2335 125.674 58.2524 133.915 54.3036" stroke="#CFC8C7" stroke-miterlimit="10" stroke-linecap="round" stroke-linejoin="round"/>
    <path d="M99.6111 36.7015C99.6111 36.7015 120.176 25.2501 130.803 20.214" stroke="#CFC8C7" stroke-miterlimit="10" stroke-linecap="round" stroke-linejoin="round"/>
    <path d="M111.525 73.8898C111.525 73.8898 132.088 62.4384 142.716 57.4022" stroke="#CFC8C7" stroke-miterlimit="10" stroke-linecap="round" stroke-linejoin="round"/>
    <g opacity="0.600006">
        <g opacity="0.600006">
            <path opacity="0.600006" d="M135.405 98.4683C135.405 98.4683 142.077 102.176 143.841 110.49C145.607 118.803 132.088 133.031 124.669 132.218C117.251 131.404 115.05 139.067 114.708 143.28C114.365 147.493 116.654 157.739 111.525 166.803C106.396 175.865 105.297 184.009 108.078 190.138C110.858 196.267 113.025 210.854 113.025 210.854L106.542 209.549L97.2496 186.067C97.2496 186.067 102.038 204.526 97.2496 209.011L91.0734 208.29L89.9373 171.326L92.6151 129.464L99.2751 94.1351L135.405 98.4683Z" fill="#D6E0EF"/>
        </g>
    </g>
    <path d="M84.2182 79.9834C83.3919 80.6385 75.9993 95.747 86.4016 104.705C92.0766 109.592 90.8477 112.897 95.9278 111.582C101.009 110.267 106.548 95.0852 106.548 95.0852C106.548 95.0852 88.9464 76.2383 84.2182 79.9834Z" fill="#F7C858"/>
    <g opacity="0.300003">
        <g opacity="0.300003">
            <path opacity="0.300003" d="M88.2516 80.9793C83.6438 86.7175 83.6458 90.782 84.8259 97.7949C86.0682 105.181 92.1688 108.312 97.249 106.997C102.33 105.682 106.548 95.0856 106.548 95.0856C106.548 95.0856 92.0282 76.2769 88.2516 80.9793Z" fill="#F7C858"/>
        </g>
    </g>
    <path d="M85.2932 139.575L88.9962 215.749C88.9962 215.749 91.2982 215.88 92.0279 215.29C92.7566 214.699 95.1915 190.562 93.7838 177.331C93.7838 177.331 103.631 141.518 103.428 139.64C103.225 137.763 85.2932 139.575 85.2932 139.575Z" fill="#E773E0"/>
    <g opacity="0.300003">
        <g opacity="0.300003">
            <path opacity="0.300003" d="M89.4128 139.436C89.5372 149.027 91.6019 162.394 93.2641 171.831C94.0244 176.143 103.631 141.518 103.428 139.641C103.269 138.179 89.41 139.223 89.4128 139.436Z" fill="#E773E0"/>
        </g>
    </g>
    <path d="M107.179 139.502C107.179 139.502 108.555 142.556 107.902 151.749C107.637 155.488 103.613 166.095 100.73 179.484C103.431 184.903 106.541 191.758 108.078 209.549L105.757 211.052C105.757 211.052 94.5669 181.457 93.9892 178.799C93.4058 176.11 91.1087 143.868 91.0733 140.66C91.0398 137.618 107.179 139.502 107.179 139.502Z" fill="#E773E0"/>
    <path d="M86.392 83.848C84.508 89.5202 87.6726 99.0904 89.3357 99.8067C90.8926 100.478 93.2644 98.8991 93.9042 99.2195C94.1528 99.3438 94.1146 100.312 93.7837 101.826C93.3007 104.035 93.01 106.998 93.01 106.998C93.01 106.998 101.588 104.182 101.908 102.421C102.228 100.661 101.908 91.5362 101.908 91.5362C101.908 91.5362 104.149 86.4139 103.188 84.3329C102.228 82.2518 96.9454 77.9301 96.9454 77.9301C96.9454 77.9301 88.9321 76.1972 86.392 83.848Z" fill="#FBF4DB"/>
    <path d="M93.9042 99.2196C95.091 98.4679 98.0796 97.9008 99.2751 94.1347C99.2751 98.7376 95.8829 101.666 93.7837 102.802C93.7837 102.802 94.2839 100.524 93.9042 99.2196Z" fill="#FBF4DB"/>
    <path d="M80.901 80.7397C79.1776 84.699 85.2725 89.4665 94.6199 88.3906C98.385 93.4172 99.2754 97.1575 102.05 98.9105C110.533 149.996 158.908 115.105 133.644 94.8135C123.31 86.5132 114.896 95.6025 106.548 81.3374C100.391 70.8175 84.7503 71.8934 80.901 80.7397Z" fill="#F7C858"/>
    <g opacity="0.300003">
        <g opacity="0.300003">
            <path opacity="0.300003" d="M112.365 102.258C109.419 101.793 106.07 102.019 102.215 99.8381C105.303 117.057 113.029 124.163 120.774 125.261C127.827 125.424 128.623 114.952 125.356 110.489C120.73 104.17 114.992 102.673 112.365 102.258Z" fill="#F7C858"/>
        </g>
    </g>
    <path d="M102.05 98.911L102.563 100.824C102.563 100.824 101.746 110.646 95.7095 113.575C89.672 116.504 92.6902 101.048 92.6902 101.048L93.9679 99.4877L95.3441 106.164L102.05 98.911Z" fill="white"/>
    <path d="M88.9959 215.749C88.9959 215.749 80.7636 217.585 80.7903 218.628C80.8123 219.425 89.717 219.425 92.2666 219.425C93.1723 219.425 92.0275 215.29 92.0275 215.29L88.9959 215.749Z" fill="#FFAFF1"/>
    <path d="M105.757 211.053C105.757 211.053 106.063 216.809 105.836 217.804C105.611 218.8 102.575 219.818 103.173 220.353C103.77 220.887 108.262 220.116 108.455 219.452C108.648 218.79 110.142 212.035 109.974 210.864C109.915 210.445 108.078 209.549 108.078 209.549L105.757 211.053Z" fill="#FFAFF1"/>
    <path d="M112.559 106.427C108.594 103.098 102.397 100.823 102.397 100.823C98.6132 108.72 96.6852 110.571 93.95 111.665C92.1626 112.071 92.525 101.049 92.525 101.049C92.525 101.049 86.2657 103.726 85.2624 104.729C84.7336 105.258 80.8479 120.974 80.6547 121.378C80.2817 120.811 78.0573 119.075 76.3253 116.7L72.9102 117.494C72.9102 117.494 79.5702 129.964 81.5967 130.048C82.6841 130.092 85.6459 124.921 86.7324 122.123C87.3951 123.249 88.7378 123.698 88.5571 124.892C87.4975 131.886 84.7986 140.694 84.9124 140.655C85.1859 140.565 107.538 141.053 107.179 139.502C104.563 128.199 107.417 117.459 107.417 117.459L110.647 125.54C113.845 125.54 116.33 125.68 116.33 125.68C115.867 121.293 114.31 107.897 112.559 106.427Z" fill="#FFAFF1"/>
    <g opacity="0.300003">
        <g opacity="0.300003">
            <path opacity="0.300003" d="M77.3318 117.949C76.9894 117.555 76.648 117.143 76.3247 116.699L75.3445 117.084C75.3445 117.084 79.5697 129.964 81.5962 130.047C82.2245 130.074 83.4764 128.36 84.6316 126.37C84.1114 126.458 77.2467 120.604 77.3318 117.949Z" fill="#FFAFF1"/>
        </g>
    </g>
    <g opacity="0.300003">
        <g opacity="0.300003">
            <path opacity="0.300003" d="M88.5573 124.892C88.1164 127.803 87.3915 131.023 86.7029 133.795C87.402 133.381 88.1154 132.994 88.8585 132.643C91.4627 130.521 95.9442 124.973 95.9279 124.971C93.7943 124.721 89.9315 124.25 87.6239 123.155C88.1728 123.676 88.672 124.134 88.5573 124.892Z" fill="#FFAFF1"/>
        </g>
    </g>
    <g opacity="0.300003">
        <g opacity="0.300003">
            <path opacity="0.300003" d="M110.196 104.705C109.585 105.281 107.178 111.921 107.186 113.945C107.19 115.27 103.921 113.378 102.563 112.87C101.919 112.629 98.7537 112.459 97.7543 111.808C97.7256 111.795 97.6978 111.779 97.6692 111.766C97.6758 111.901 96.5273 113.814 96.5435 113.945C97.2225 119.472 103.428 124.209 103.428 129.666C103.428 137.086 93.7835 139.502 87.5796 140.65C93.5501 140.68 107.463 140.728 107.179 139.502C104.563 128.199 107.417 117.459 107.417 117.459L110.647 125.541C112.257 125.541 113.685 125.576 114.708 125.611C107.203 118.377 110.434 104.859 110.196 104.705Z" fill="#FFAFF1"/>
        </g>
    </g>
    <path d="M66.7251 102.802C66.7251 102.802 76.6616 110.831 77.9365 122.626L84.87 127.408C84.87 127.408 87.1815 111.352 80.7261 107.085C77.2995 105.412 66.7251 102.802 66.7251 102.802Z" fill="#FFFFED"/>
    <path d="M76.7496 116.621C76.3939 116.055 76.3269 115.194 76.3633 115.09C77.0165 113.207 77.9173 111.597 77.5778 111.742C77.2393 111.887 74.7901 111.894 74.1072 111.63C73.9207 111.558 73.0753 109.829 73.0753 109.829C72.7492 110.531 71.8034 113.434 73.6912 117.333C74.5127 117.141 75.4959 117.236 76.7496 116.621Z" fill="#FBF4DB"/>
    <path d="M96.976 104.025L87.0424 112.077L86.4016 113.468L87.598 113.132L97.2218 104.97L96.976 104.025Z" fill="#A83851"/>
    <path d="M100.095 111.008C98.7632 109.871 97.6844 109.001 97.1938 108.676C95.5613 107.599 94.9588 106.484 92.5067 106.427C92.3489 106.424 92.1337 107.183 91.8258 107.225C90.8092 107.365 90.089 109.415 89.9513 109.83C89.7725 110.369 91.3858 112.379 91.6249 112.659C92.1949 113.323 93.2153 110.49 94.8947 111.375C95.1252 111.497 96.1877 112.393 97.5687 114.08C98.3366 112.928 99.3743 111.852 100.095 111.008Z" fill="#FBF4DB"/>
    <path d="M99.8211 110.49L96.5427 113.944C96.5427 113.944 109.245 129.666 111.489 130.073C116.059 130.9 117.785 126.167 115.633 124.254C113.482 122.342 99.8211 110.49 99.8211 110.49Z" fill="#FFAFF1"/>
    <g opacity="0.600006">
        <g opacity="0.600006">
            <path opacity="0.600006" d="M244.05 90.681L284.259 94.4386C284.259 94.4386 276.856 108.764 278.735 115.696C280.612 122.628 280.562 125.953 285.488 126.204C290.415 126.454 297.625 127.11 296.052 128.098C294.479 129.084 279.559 137.026 274.109 135.566C268.657 134.104 257.523 131.253 257.371 130.169C257.22 129.084 261.249 99.5991 261.249 99.5991C261.249 99.5991 239.049 103.444 244.05 90.681Z" fill="#D6E0EF"/>
        </g>
    </g>
    <path d="M294.702 120.563C294.702 120.563 303.357 117.375 303.702 118.396C304.046 119.417 294.148 124.965 294.148 124.965L291.713 122.356L294.702 120.563Z" fill="#1B374B"/>
    <path d="M266.31 78.0477C266.31 78.0477 286.513 86.3212 290.222 89.5011C293.932 92.6809 294.393 120.747 294.393 120.747L291.712 122.356C291.712 122.356 284.052 101.374 284.05 98.5912C280.734 101.506 264.031 90.6162 261.249 90.3513C258.467 90.0854 266.31 78.0477 266.31 78.0477Z" fill="#3B3E58"/>
    <g opacity="0.300003">
        <g opacity="0.300003">
            <path opacity="0.300003" d="M290.548 113.227C289.18 109.632 287.817 105.67 287.301 101.853C286.75 97.7659 286.119 91.9312 290.183 89.4695C286.383 86.2686 266.309 78.0477 266.309 78.0477C266.309 78.0477 258.466 90.0854 261.248 90.3503C264.03 90.6152 280.734 101.506 284.05 98.5912C284.052 101.373 291.713 122.356 291.713 122.356L294.394 120.747C294.394 120.747 294.388 120.44 294.376 119.907C293.23 117.661 291.446 115.589 290.548 113.227Z" fill="#3B3E58"/>
        </g>
    </g>
    <path d="M262.343 80.7674C262.343 80.7674 285.31 89.1192 285.486 92.2111C285.663 95.302 272.101 124.47 272.101 124.47C272.101 124.47 269.378 125.53 268.222 123.763L273.12 98.9439C273.12 98.9439 251.656 100.376 249.669 89.6882C247.682 79.001 262.343 80.7674 262.343 80.7674Z" fill="#3B3E58"/>
    <g opacity="0.300003">
        <g opacity="0.300003">
            <path opacity="0.300003" d="M262.343 80.7673C262.343 80.7673 247.682 79.0009 249.669 89.6882C251.656 100.375 273.12 98.9438 273.12 98.9438L268.222 123.763C268.804 124.651 269.778 124.825 270.606 124.778C270.808 120.139 272.232 115.83 273.938 111.504C275.73 106.959 283.524 94.2031 267.155 95.8768C264.357 96.1627 263.337 88.6917 266.105 89.3152C276.829 91.7348 282.748 92.9245 284.599 91.3331C284.673 91.269 284.751 91.225 284.827 91.1724C281.061 87.5746 262.343 80.7673 262.343 80.7673Z" fill="#3B3E58"/>
        </g>
    </g>
    <path d="M264.914 52.9425C269.22 54.488 274.059 72.5134 275.914 74.1028C277.768 75.6933 289.702 80.957 289.702 80.957L287.819 83.2686C287.819 83.2686 274.657 79.9663 271.921 77.8317C268.653 75.2811 265.244 68.1141 264.715 68.2461C264.185 68.379 263.218 52.3333 264.914 52.9425Z" fill="#FF6C59"/>
    <g opacity="0.600006">
        <g opacity="0.600006">
            <path opacity="0.600006" d="M275.633 77.5873C271.696 74.1329 271.427 68.5889 271.404 63.6857C269.408 58.728 267.093 53.7253 264.914 52.942C263.218 52.3338 264.185 68.3795 264.715 68.2466C265.244 68.1136 268.653 75.2815 271.921 77.8312C273.739 79.2495 280.155 81.1822 284.26 82.3203C281.436 80.9508 277.983 79.6492 275.633 77.5873Z" fill="#FF6C59"/>
        </g>
    </g>
    <path d="M276.377 37.4741C277.071 39.8717 276.288 48.0715 275.795 48.2465C275.302 48.4215 274.421 47.9194 273.958 48.4913C273.494 49.0623 271.427 52.7356 269.337 51.8491C267.245 50.9626 266.062 50.0942 266.062 50.0942L266.247 57.4409L258.938 53.7972C258.938 53.7972 260.194 45.869 260.165 44.0366C260.104 40.3193 261.916 34.6509 265.713 32.8348C269.958 30.8054 275.01 32.7535 276.377 37.4741Z" fill="#FBF4DB"/>
    <path d="M281.516 36.557C281.319 38.8475 278.722 43.6579 274.819 40.2677C273.198 38.8599 270.909 35.812 269.328 36.3992C268.36 36.7588 268.87 39.3907 265.748 40.8271C264.469 41.4153 264.999 42.4395 265.082 43.0267C265.167 43.613 264.143 42.9961 264.021 42.0838C263.897 41.1705 262.856 38.7901 261.563 40.9878C260.667 42.5103 261.798 43.6187 261.167 45.9484C260.842 47.1458 259.798 48.0285 259.82 47.6909C260.094 43.635 258.324 43.5212 257.934 39.8325C257.463 35.374 259.555 31.1641 263.246 29.9055C263.246 29.9055 270.089 26.6692 273.456 29.9419C276.824 33.2155 281.842 32.7689 281.516 36.557Z" fill="#4D4C53"/>
    <path d="M265.393 54.7934C265.994 54.7542 266.197 54.277 266.115 53.7634C271.25 58.1005 268.377 79.2924 267.485 79.2924C266.594 79.2924 260.269 80.748 255.623 83.6629C250.978 86.5779 251.604 88.5719 249.484 87.8336C247.921 87.2894 242.999 86.9088 251.247 60.7831C253.167 54.7016 256.169 51.7646 259.725 48.4423C259.154 52.3031 263.569 54.9111 265.393 54.7934Z" fill="#FF6C59"/>
    <path d="M285.111 88.9664L296.052 87.1015L284.892 86.5918L266.996 85.7961L285.111 88.9664Z" fill="#7B96B9"/>
    <path d="M290.793 71.5211L305.647 71.2542L300.012 86.9165L285.646 90.6816L266.732 87.3937L266.995 85.7956L285.111 88.9669L290.793 71.5211Z" fill="#6F7782"/>
    <g opacity="0.300003">
        <g opacity="0.300003">
            <path opacity="0.300003" d="M298.348 72.2866L286.22 89.2476L296.316 86.6721L304.743 71.9078L298.348 72.2866Z" fill="#6F7782"/>
        </g>
    </g>
    <path d="M272.101 124.47L268.222 123.764C268.222 123.764 267.677 124.539 267.412 126.041C267.146 127.542 274.312 133.06 276.346 133.654C278.42 134.256 274.109 129.464 272.101 124.47Z" fill="#1B374B"/>
    <g opacity="0.600006">
        <g opacity="0.600006">
            <path opacity="0.600006" d="M261.892 80.744C261.892 80.744 254.024 67.8954 255.228 63.323C255.228 63.323 248.797 76.9884 257.09 82.8174C259.496 81.6506 261.892 80.744 261.892 80.744Z" fill="#FF6C59"/>
        </g>
    </g>
    <g opacity="0.600006">
        <g opacity="0.600006">
            <path opacity="0.600006" d="M266.354 77.2277C263.941 71.7641 263.956 65.871 266.011 62.5831C266.011 62.5831 266.354 69.8762 267.49 78.537C267.49 78.537 266.564 77.7002 266.354 77.2277Z" fill="#FF6C59"/>
        </g>
    </g>
    <path d="M266.062 50.0938C266.062 50.0938 263.586 48.4145 263.391 46.5467C263.197 44.6789 263.304 44.4771 263.304 44.4771C263.304 44.4771 262.767 46.1508 263.015 48.1515C263.114 48.9385 266.115 52.1538 266.115 52.1538L266.062 50.0938Z" fill="#FBF4DB"/>
    <path d="M277.07 82.2402C277.07 82.2402 278.744 81.8557 279.167 81.7754C279.54 81.7046 280.45 82.3617 280.45 82.3617C280.45 82.3617 281.686 82.4602 282.443 83.2874C283.201 84.1146 284.166 85.6209 284.342 86.7456C284.426 87.2783 283.433 87.6704 283.095 87.4437C282.316 86.9225 281.062 85.399 279.974 85.3732C279.613 85.3646 276.83 84.4207 276.83 84.4207L277.07 82.2402Z" fill="#FBF4DB"/>
    <path d="M255.229 63.3228C254.75 70.2746 258.474 82.2749 264.158 83.763C267.147 84.5453 276.83 84.421 276.83 84.421L277.523 82.3285C277.523 82.3285 269.913 80.9819 267.49 78.0478C265.003 75.0324 265.854 62.881 265.854 62.881C265.854 62.881 255.604 57.8783 255.229 63.3228Z" fill="#FF6C59"/>
    <g opacity="0.600006">
        <g opacity="0.600006">
            <path opacity="0.600006" d="M301.394 244.252C301.394 247.322 285.546 249.812 265.997 249.812C246.449 249.812 230.602 247.322 230.602 244.252C230.602 241.181 246.449 238.691 265.997 238.691C285.546 238.691 301.394 241.181 301.394 244.252Z" fill="#D6E0EF"/>
        </g>
    </g>
    <g opacity="0.600006">
        <g opacity="0.600006">
            <path opacity="0.600006" d="M385.168 226.133C385.168 230.106 364.666 233.326 339.377 233.326C314.089 233.326 293.587 230.106 293.587 226.133C293.587 222.16 314.089 218.939 339.377 218.939C364.666 218.939 385.168 222.16 385.168 226.133Z" fill="#D6E0EF"/>
        </g>
    </g>
    <path d="M297.563 225.959L290.332 218.496L303.05 206.175L310.281 213.639L297.563 225.959Z" fill="#C1AAAF"/>
    <g opacity="0.600006">
        <g opacity="0.600006">
            <path opacity="0.600006" d="M360.877 211.386C345.493 226.291 320.939 225.903 306.035 210.519C291.13 195.134 291.519 170.58 306.902 155.675C322.286 140.771 346.84 141.159 361.744 156.543C376.649 171.927 376.261 196.481 360.877 211.386Z" fill="#FFF3FF"/>
        </g>
    </g>
    <g opacity="0.800003">
        <g opacity="0.800003">
            <path opacity="0.800003" d="M342.265 158.912C356.652 173.761 356.398 197.378 341.804 211.927C346.392 210.653 350.737 208.246 354.399 204.699C366.089 193.372 366.385 174.712 355.058 163.022C349.988 157.789 343.448 154.847 336.723 154.2C338.682 155.567 340.541 157.134 342.265 158.912Z" fill="#FFF3FF"/>
        </g>
    </g>
    <path d="M309.636 207.029C296.658 193.634 296.996 172.255 310.392 159.277C323.786 146.299 345.166 146.638 358.144 160.032C371.121 173.427 370.784 194.807 357.388 207.785C343.993 220.762 322.613 220.424 309.636 207.029ZM365.585 152.822C348.626 135.318 320.687 134.875 303.182 151.835C285.677 168.795 285.234 196.733 302.194 214.239C319.154 231.744 347.093 232.186 364.598 215.226C382.102 198.267 382.545 170.327 365.585 152.822Z" fill="#7E53B3"/>
    <path d="M307.712 208.892C293.705 194.435 294.071 171.36 308.528 157.353C322.985 143.347 346.06 143.712 360.067 158.169C374.074 172.627 373.709 195.701 359.252 209.708C344.794 223.715 321.719 223.35 307.712 208.892ZM362.379 155.929C347.135 140.195 322.022 139.797 306.288 155.041C290.554 170.285 290.156 195.398 305.401 211.132C320.644 226.867 345.757 227.264 361.491 212.021C377.226 196.775 377.624 171.663 362.379 155.929Z" fill="#9C77CF"/>
    <path d="M275.076 247.063L268.529 240.305C267.107 238.837 267.144 236.495 268.611 235.074L289.466 214.869C290.933 213.448 293.275 213.484 294.697 214.952L301.245 221.71C302.667 223.177 302.629 225.52 301.161 226.941L280.308 247.146C278.84 248.567 276.498 248.531 275.076 247.063Z" fill="#784C9E"/>
    <g opacity="0.600006">
        <g opacity="0.600006">
            <path opacity="0.600006" d="M240.442 242.785C240.394 241.558 239.363 240.602 238.136 240.649L227.904 241.04C227.363 239.914 226.195 239.156 224.868 239.207L209.889 239.779L209.825 238.141L219.656 237.747C220.486 237.716 221.133 237.017 221.101 236.188L221.039 234.547C221.007 233.717 220.308 233.07 219.478 233.101L207.138 233.595L204.79 233.684L204.791 233.688L171.426 235.021C170.143 235.071 169.143 236.151 169.192 237.432C169.241 238.716 170.321 239.716 171.604 239.667L204.968 238.335L205.03 239.965L91.1733 244.315L76.5362 248.503L66.0259 251.511L76.7352 253.708L91.6495 256.767L205.507 252.417L210.365 252.231L225.343 251.659C226.671 251.609 227.778 250.764 228.231 249.6L238.464 249.21C239.69 249.163 240.646 248.13 240.599 246.903L240.442 242.785Z" fill="#D6E0EF"/>
        </g>
    </g>
    <path d="M151.676 245.874L151.349 237.313L243.264 233.802C244.491 233.755 245.523 234.711 245.57 235.937L245.727 240.056C245.774 241.282 244.818 242.315 243.591 242.362L151.676 245.874Z" fill="#FFC507"/>
    <path d="M96.778 249.921L96.3018 237.468L229.996 232.36C231.781 232.291 233.283 233.683 233.351 235.468L233.58 241.457C233.648 243.242 232.256 244.744 230.472 244.812L96.778 249.921Z" fill="#2250B1"/>
    <path d="M71.1543 244.664L96.3017 237.469L96.778 249.92L71.1543 244.664Z" fill="#FFC507"/>
    <path d="M81.6649 241.656L71.1545 244.665L81.8638 246.86L81.6649 241.656Z" fill="#FFA31B"/>
    <path d="M174.32 230.586C174.272 229.303 175.272 228.223 176.554 228.175L224.606 226.255C225.437 226.223 226.135 226.87 226.166 227.699L226.229 229.34C226.262 230.17 225.614 230.869 224.784 230.901L176.732 232.82C175.449 232.87 174.369 231.87 174.32 230.586Z" fill="#FFC507"/>
    <path d="M215.493 245.384L210.635 245.57L209.918 226.837L214.777 226.651L215.493 245.384Z" fill="#FFC507"/>
</svg>
