<svg width="365" height="327" viewBox="0 0 365 327" fill="none" xmlns="http://www.w3.org/2000/svg">
    <path d="M34.9859 261.041C22.9995 262.64 11.9871 259.851 1.35254 255.654C3.39041 268.311 10.8901 280.724 21.3001 289.158C46.3962 309.494 85.0552 317.621 117.329 314.66C126.927 313.779 136.196 311.064 145.556 309.131C153.363 307.518 161.233 306.45 169.411 307.445C185.922 309.452 201.493 316.465 217.951 319.026C236.966 321.987 256.233 321.879 274.925 317.129C304.912 309.513 332.224 291.131 347.312 265.44C360.742 242.568 363.942 215.671 364.046 189.423C251.947 213.102 148.581 252.927 34.9859 261.041Z" fill="url(#paint0_linear)"/>
    <path d="M55.9942 215.088C45.1793 215.088 33.3238 214.385 22.5713 211.202C17.2153 217.324 10.5507 222.79 6.22006 229.627C1.21354 237.536 -0.095009 246.657 1.35255 255.654C11.9871 259.851 22.9995 262.64 34.9859 261.041C148.581 252.927 251.947 213.102 364.046 189.423C364.052 188.075 364.056 186.725 364.045 185.38C364.011 180.807 363.879 176.174 363.496 171.574C259.49 193.537 160.298 210.452 55.9942 215.088Z" fill="url(#paint1_linear)"/>
    <path d="M11.3838 144.386C18.8241 162.938 36.217 180.629 29.9079 199.341C28.405 203.793 25.7113 207.609 22.5714 211.201C33.3238 214.385 45.1793 215.088 55.9942 215.088C160.298 210.452 259.49 193.536 363.496 171.573C363.148 167.397 362.586 163.249 361.697 159.196C342.078 164.814 319.294 161.985 298.887 159.944C234.872 154.272 157.848 116.094 91.2857 116.092C61.9497 116.091 34.6505 123.506 11.3838 144.386Z" fill="url(#paint2_linear)"/>
    <path d="M92.2024 79.4693C76.9955 82.172 62.0363 86.1209 47.5446 91.2553C30.3008 97.3659 11.6598 107.622 8.61256 124.814C7.42994 131.492 8.82008 137.989 11.3838 144.386C87.4407 76.129 206.659 151.772 298.887 159.944C319.294 161.985 342.078 164.814 361.696 159.196C360.325 152.949 358.173 146.932 354.78 141.397C348.327 130.871 337.964 123.038 327.327 116.204C323.933 114.025 320.411 111.848 317.417 109.224C280.39 117.12 241.253 116.651 204.357 107.427C170.173 98.8809 138.05 86.2176 104.511 77.3771C100.404 78.0983 96.2791 78.745 92.2024 79.4693Z" fill="url(#paint3_linear)"/>
    <path d="M186.017 14.3997C165.146 29.7769 155.297 56.6943 132.273 69.0091C123.757 73.5633 114.193 75.6778 104.511 77.3772C138.05 86.2177 170.173 98.881 204.356 107.427C241.253 116.651 280.39 117.12 317.417 109.225C315.611 107.643 313.997 105.898 312.72 103.893C309.871 99.423 308.993 94.0861 308.594 88.8791C306.906 66.8191 312.189 42.3184 298.67 24.2798C290.069 12.801 275.474 6.71363 261.034 3.37226C252.321 1.35554 243.201 0.227304 234.145 0.227304C216.758 0.227304 199.607 4.38563 186.017 14.3997Z" fill="url(#paint4_linear)"/>
    <path d="M296.647 147.289C291.275 151.033 287.466 156.95 286.282 163.391C286.093 164.42 285.92 165.56 284.874 166.088C283.833 166.614 282.591 166.2 281.837 165.31C280.661 163.924 280.735 162.044 280.85 160.305C280.99 158.222 281.102 155.949 279.097 154.501C277.464 153.322 275.244 153.412 273.55 154.506C270.296 156.609 269.677 160.608 269.798 164.236C269.988 169.981 271.667 175.67 274.624 180.6C275.752 182.478 277.093 184.327 277.431 186.492C277.833 189.074 276.167 192.275 273.135 191.612C272.31 191.43 271.573 190.955 271 190.335C269.492 188.705 269.126 186.54 268.53 184.495C267.756 181.841 265.959 178.876 263.016 179.289C262.101 179.418 261.262 179.903 260.631 180.581C259.141 182.18 258.827 184.334 258.767 186.411C258.668 190.525 259.549 194.614 261.239 198.361C263.532 203.444 267.164 208.617 272.035 211.507C280.351 216.454 291.775 210.137 299.643 207.015C303.558 205.461 307.627 204.074 310.825 201.221C313.86 198.514 315.354 193.493 311.113 190.402C309.751 189.41 308.077 188.928 306.391 188.902C301.646 188.83 297.725 191.535 293.433 193.079C292.047 193.578 290.267 193.873 289.366 192.587C288.831 191.823 288.893 190.795 289.368 189.993C290.201 188.581 291.757 188.045 293.236 187.571C297.993 186.044 302.839 184.598 307.106 182C311.371 179.402 315.069 175.451 316.183 170.582C316.69 168.371 316.48 165.588 313.468 165.043C312.551 164.876 311.603 165.014 310.732 165.346L301.336 168.929C300.244 169.345 299.21 168.199 299.737 167.155L305.285 156.186C306.298 154.182 307.33 152.126 307.21 149.789C307.16 148.817 306.864 147.853 306.29 147.067C305.325 145.747 303.943 145.227 302.448 145.227C300.479 145.227 298.314 146.128 296.647 147.289Z" fill="url(#paint5_linear)"/>
    <path d="M274.825 225.255C274.798 225.255 274.77 225.253 274.743 225.248C274.469 225.203 274.286 224.945 274.331 224.673C277.994 202.62 284.542 181.185 293.795 160.96C293.91 160.709 294.207 160.6 294.458 160.713C294.71 160.828 294.82 161.125 294.704 161.376C285.489 181.521 278.967 202.872 275.318 224.837C275.278 225.081 275.065 225.255 274.825 225.255Z" fill="#37474F"/>
    <path d="M290.485 180.734C287.525 180.734 284.758 179.965 282.58 178.45C279.471 176.291 277.812 172.943 276.966 170.513C275.876 167.387 275.466 164.012 275.102 161.036C275.069 160.761 275.265 160.512 275.539 160.479C275.814 160.438 276.064 160.64 276.098 160.915C276.453 163.841 276.858 167.158 277.912 170.185C278.709 172.474 280.264 175.623 283.152 177.629C286.739 180.122 292.095 180.423 297.127 178.416C301.767 176.564 305.637 173.246 309.379 170.037C309.591 169.86 309.906 169.883 310.086 170.092C310.266 170.301 310.242 170.618 310.032 170.797C306.227 174.06 302.293 177.434 297.498 179.347C295.17 180.275 292.77 180.734 290.485 180.734Z" fill="#37474F"/>
    <path d="M281.873 206.354C278.678 206.354 275.687 205.565 273.223 203.996C267.867 200.585 265.568 194.043 264.307 189.418C264.233 189.151 264.391 188.875 264.657 188.802C264.926 188.734 265.199 188.887 265.273 189.154C266.491 193.619 268.697 199.928 273.761 203.151C278.074 205.897 284.15 206.089 290.008 203.658L291.136 203.191C296.159 201.115 300.904 199.155 306.178 195.836C306.412 195.686 306.722 195.759 306.868 195.992C307.016 196.227 306.946 196.536 306.711 196.682C301.365 200.048 296.582 202.024 291.518 204.116L290.392 204.583C287.538 205.766 284.629 206.354 281.873 206.354Z" fill="#37474F"/>
    <path d="M102.377 134.602C99.4692 140.469 98.9776 147.49 101.04 153.703C101.37 154.698 101.767 155.778 101.103 156.747C100.443 157.708 99.1549 157.943 98.066 157.526C96.3706 156.875 95.5295 155.193 94.7941 153.612C93.9127 151.721 92.9184 149.674 90.4635 149.368C88.465 149.122 86.5611 150.269 85.6041 152.042C83.7626 155.452 85.1447 159.255 86.9952 162.377C89.9266 167.321 94.1353 171.502 99.1016 174.399C100.993 175.504 103.058 176.478 104.397 178.215C105.992 180.284 106.07 183.891 103.094 184.769C102.284 185.007 101.408 184.945 100.607 184.678C98.5032 183.974 97.1382 182.251 95.6332 180.746C93.677 178.792 90.6751 177.057 88.2947 178.836C87.5533 179.389 87.0526 180.219 86.825 181.116C86.2891 183.235 87.0496 185.274 87.9975 187.124C89.8893 190.778 92.6293 193.938 95.9133 196.41C100.371 199.761 106.042 202.549 111.704 202.74C121.374 203.075 128.348 192.04 133.742 185.517C136.428 182.271 139.327 179.096 140.757 175.057C142.114 171.224 141.01 166.105 135.804 165.436C134.133 165.221 132.434 165.604 130.944 166.392C126.749 168.612 124.614 172.869 121.595 176.289C120.618 177.392 119.2 178.508 117.791 177.813C116.955 177.401 116.516 176.469 116.545 175.539C116.597 173.9 117.703 172.683 118.771 171.554C122.205 167.928 125.759 164.328 128.248 159.997C130.738 155.666 132.077 150.425 130.712 145.62C130.092 143.438 128.569 141.099 125.666 142.07C124.782 142.366 124.016 142.944 123.413 143.655L116.9 151.316C116.144 152.206 114.687 151.698 114.647 150.53L114.232 138.244C114.156 136.001 114.07 133.701 112.841 131.711C112.33 130.883 111.606 130.179 110.724 129.766C110.099 129.474 109.475 129.342 108.866 129.342C106.137 129.342 103.677 131.984 102.377 134.602Z" fill="url(#paint6_linear)"/>
    <path d="M120.764 213.448C120.741 213.462 120.716 213.473 120.689 213.483C120.428 213.574 120.143 213.436 120.051 213.175C112.65 192.083 108.076 170.14 106.456 147.959C106.436 147.683 106.644 147.445 106.919 147.423C107.194 147.403 107.435 147.61 107.454 147.886C109.069 169.979 113.624 191.834 120.995 212.844C121.078 213.079 120.976 213.334 120.764 213.448Z" fill="#37474F"/>
    <path d="M113.069 166.886C110.475 168.31 107.679 168.967 105.041 168.688C101.278 168.29 98.2108 166.154 96.3008 164.431C93.8399 162.214 91.8564 159.454 90.1076 157.02C89.9455 156.794 89.9968 156.482 90.2215 156.321C90.4421 156.153 90.7594 156.21 90.9206 156.435C92.6411 158.828 94.5904 161.542 96.9717 163.688C98.7709 165.311 101.651 167.323 105.147 167.693C109.491 168.151 114.331 165.838 117.777 161.658C120.954 157.802 122.749 153.031 124.485 148.416C124.585 148.159 124.873 148.028 125.131 148.124C125.389 148.222 125.521 148.511 125.424 148.77C123.658 153.46 121.832 158.31 118.549 162.295C116.956 164.229 115.073 165.786 113.069 166.886Z" fill="#37474F"/>
    <path d="M117.848 193.488C115.048 195.025 112.045 195.773 109.131 195.583C102.794 195.171 97.6316 190.542 94.2983 187.094C94.1069 186.895 94.1129 186.579 94.3104 186.385C94.5139 186.197 94.8272 186.2 95.0186 186.397C98.235 189.726 103.205 194.195 109.196 194.584C114.299 194.916 119.716 192.16 123.683 187.21L124.446 186.258C127.851 182.021 131.067 178.02 134.094 172.572C134.227 172.328 134.532 172.243 134.775 172.377C135.015 172.512 135.103 172.816 134.968 173.058C131.9 178.58 128.658 182.614 125.226 186.885L124.463 187.837C122.531 190.247 120.264 192.162 117.848 193.488Z" fill="#37474F"/>
    <path d="M93.6931 186.363C90.7849 192.23 90.2923 199.249 92.3543 205.466C92.6848 206.459 93.0816 207.54 92.4178 208.508C91.758 209.47 90.4696 209.704 89.3807 209.287C87.6853 208.637 86.8441 206.955 86.1088 205.374C85.2273 203.482 84.2331 201.434 81.7782 201.13C79.7796 200.882 77.8757 202.031 76.9187 203.803C75.0763 207.213 76.4594 211.017 78.3099 214.138C81.2413 219.083 85.45 223.264 90.4162 226.16C92.308 227.265 94.3731 228.241 95.7108 229.976C97.3065 232.046 97.3861 235.653 94.4083 236.53C93.5984 236.769 92.723 236.707 91.9222 236.439C89.8178 235.736 88.4539 234.013 86.9479 232.508C84.9926 230.554 81.9897 228.819 79.6094 230.598C78.8679 231.151 78.3673 231.981 78.1406 232.877C77.6047 234.996 78.3643 237.036 79.3122 238.886C81.204 242.539 83.943 245.699 87.2279 248.171C91.6844 251.524 97.3568 254.311 103.018 254.501C112.689 254.836 119.664 243.802 125.057 237.28C127.744 234.032 130.642 230.859 132.072 226.819C133.429 222.986 132.325 217.865 127.119 217.196C125.448 216.983 123.748 217.365 122.258 218.152C118.064 220.374 115.928 224.631 112.909 228.051C111.933 229.154 110.516 230.27 109.106 229.576C108.27 229.163 107.83 228.232 107.859 227.301C107.912 225.662 109.018 224.444 110.086 223.316C113.521 219.69 117.074 216.088 119.563 211.76C122.053 207.428 123.392 202.187 122.027 197.383C121.407 195.2 119.883 192.861 116.981 193.832C116.096 194.128 115.331 194.704 114.728 195.416L108.215 203.076C107.46 203.968 106.001 203.46 105.962 202.291L105.547 190.007C105.471 187.763 105.384 185.462 104.155 183.473C103.644 182.644 102.92 181.941 102.039 181.528C101.413 181.235 100.791 181.104 100.181 181.104C97.4515 181.104 94.9906 183.745 93.6931 186.363Z" fill="url(#paint7_linear)"/>
    <path d="M112.08 265.21C112.055 265.224 112.03 265.234 112.004 265.244C111.743 265.336 111.457 265.198 111.365 264.937C103.964 243.844 99.3911 221.902 97.7713 199.72C97.7501 199.444 97.9586 199.206 98.2336 199.184C98.5086 199.165 98.7494 199.371 98.7695 199.647C100.384 221.74 104.939 243.596 112.31 264.605C112.393 264.84 112.29 265.095 112.08 265.21Z" fill="#37474F"/>
    <path d="M104.385 218.647C101.791 220.071 98.9943 220.729 96.356 220.45C92.5926 220.053 89.5252 217.914 87.6152 216.191C85.1543 213.974 83.1708 211.215 81.4221 208.78C81.2599 208.556 81.3123 208.243 81.5359 208.082C81.7575 207.914 82.0738 207.972 82.235 208.196C83.9555 210.59 85.9058 213.302 88.2861 215.449C90.0853 217.072 92.9653 219.085 96.4618 219.454C100.805 219.913 105.646 217.6 109.091 213.419C112.268 209.562 114.063 204.792 115.8 200.178C115.9 199.92 116.189 199.789 116.446 199.886C116.703 199.983 116.835 200.272 116.739 200.531C114.973 205.221 113.147 210.071 109.864 214.056C108.27 215.99 106.387 217.547 104.385 218.647Z" fill="#37474F"/>
    <path d="M109.163 245.25C106.363 246.787 103.361 247.536 100.446 247.345C94.1092 246.934 88.9465 242.303 85.6142 238.855C85.4218 238.657 85.4279 238.34 85.6263 238.147C85.8288 237.959 86.1421 237.962 86.3335 238.159C89.5499 241.487 94.5202 245.957 100.511 246.346C105.614 246.677 111.031 243.922 114.998 238.972L115.762 238.02C119.166 233.783 122.381 229.782 125.409 224.333C125.542 224.09 125.848 224.005 126.09 224.139C126.331 224.274 126.418 224.578 126.283 224.82C123.215 230.342 119.973 234.376 116.542 238.647L115.778 239.599C113.846 242.008 111.579 243.924 109.163 245.25Z" fill="#37474F"/>
    <path d="M59.112 227.923C58.7615 235.989 61.713 244.152 67.1436 250.13C68.012 251.087 68.9992 252.106 68.7332 253.529C68.4693 254.944 67.1346 255.851 65.6981 255.925C63.4608 256.04 61.6727 254.562 60.0539 253.148C58.1158 251.453 55.9721 249.641 53.0518 250.523C50.6735 251.243 49.101 253.487 48.9066 255.965C48.5318 260.729 51.9901 264.328 55.6367 266.924C61.4128 271.036 68.2467 273.648 75.2921 274.436C77.9777 274.735 80.7932 274.805 83.1675 276.094C86.0012 277.631 87.892 281.661 84.9727 284.136C84.1779 284.809 83.1605 285.176 82.1239 285.274C79.399 285.532 77.0005 284.271 74.5507 283.327C71.3685 282.099 67.1174 281.641 65.3223 284.836C64.7622 285.83 64.6112 287.017 64.8025 288.14C65.2579 290.798 67.1316 292.718 69.1251 294.329C73.082 297.505 77.751 299.701 82.688 300.848C89.3879 302.403 97.1767 302.712 103.656 300.1C114.728 295.649 117.081 279.721 119.908 269.674C121.315 264.672 122.998 259.645 122.593 254.374C122.211 249.374 118.408 244.153 112.203 245.998C110.212 246.591 108.485 247.871 107.2 249.504C103.579 254.103 103.296 259.969 101.599 265.334C101.051 267.065 100.008 269.033 98.0723 268.952C96.9249 268.906 95.9629 268.075 95.5307 267.011C94.7712 265.136 95.4119 263.21 96.0525 261.406C98.1136 255.601 100.323 249.767 100.967 243.639C101.612 237.513 100.506 230.933 96.5663 226.196C94.7772 224.045 91.8912 222.169 89.1028 224.713C88.2537 225.488 87.6795 226.521 87.3521 227.625L83.8354 239.516C83.4264 240.9 81.5296 241.054 80.901 239.756L74.2978 226.11C73.092 223.617 71.8469 221.067 69.4666 219.437C68.4764 218.759 67.3098 218.326 66.1101 218.301C66.0678 218.3 66.0255 218.3 65.9842 218.3C61.4007 218.3 59.3024 223.557 59.112 227.923Z" fill="url(#paint8_linear)"/>
    <path d="M119.222 307.651C119.2 307.678 119.178 307.703 119.153 307.728C118.905 307.961 118.514 307.949 118.28 307.7C99.401 287.609 83.2854 265.151 70.3813 240.946C70.2211 240.645 70.3369 240.274 70.6351 240.111C70.9363 239.951 71.31 240.065 71.4702 240.366C84.324 264.474 100.376 286.843 119.18 306.854C119.39 307.078 119.402 307.416 119.222 307.651Z" fill="#37474F"/>
    <path d="M87.2912 258.988C85.0771 261.889 82.2525 264.026 79.1377 265.029C74.6953 266.46 70.1693 265.582 67.1553 264.594C63.274 263.322 59.6586 261.2 56.4704 259.329C56.1752 259.156 56.0775 258.778 56.2497 258.484C56.415 258.184 56.7998 258.091 57.0949 258.264C60.2298 260.104 63.7847 262.19 67.5401 263.421C70.3798 264.352 74.6329 265.182 78.76 263.854C83.8884 262.201 88.1908 257.177 89.9869 250.741C91.644 244.807 91.2874 238.529 90.9408 232.459C90.9237 232.12 91.1836 231.827 91.5231 231.808C91.8626 231.788 92.1557 232.049 92.1748 232.39C92.5254 238.561 92.8891 244.941 91.1776 251.074C90.3455 254.051 89.0007 256.746 87.2912 258.988Z" fill="#37474F"/>
    <path d="M105.965 286.599C103.574 289.731 100.562 292.074 97.1807 293.315C89.8291 296.017 81.6957 293.374 76.2167 291.151C75.8994 291.022 75.7483 290.661 75.8763 290.346C76.0102 290.03 76.3648 289.877 76.6801 290.005C81.9697 292.152 89.8059 294.711 96.7546 292.157C102.675 289.981 107.408 284.17 109.409 276.606L109.796 275.152C111.518 268.674 113.145 262.556 113.838 254.9C113.866 254.56 114.171 254.311 114.508 254.341C114.849 254.372 115.098 254.672 115.067 255.012C114.366 262.772 112.725 268.94 110.987 275.469L110.603 276.923C109.627 280.606 108.027 283.897 105.965 286.599Z" fill="#37474F"/>
    <path d="M310.855 201.874C303.811 206.782 298.817 214.54 297.267 222.986C297.019 224.335 296.792 225.829 295.419 226.522C294.053 227.21 292.426 226.667 291.437 225.501C289.898 223.684 289.993 221.22 290.145 218.94C290.326 216.209 290.475 213.228 287.846 211.33C285.703 209.784 282.792 209.903 280.574 211.336C276.306 214.094 275.494 219.337 275.652 224.092C275.902 231.626 278.103 239.086 281.981 245.549C283.46 248.011 285.218 250.435 285.659 253.274C286.188 256.66 284.003 260.856 280.029 259.984C278.947 259.749 277.98 259.125 277.227 258.312C275.253 256.176 274.771 253.335 273.99 250.656C272.976 247.175 270.619 243.288 266.761 243.83C265.56 244 264.46 244.635 263.634 245.524C261.681 247.62 261.268 250.444 261.192 253.167C261.059 258.561 262.215 263.922 264.432 268.835C267.438 275.499 272.201 282.283 278.586 286.072C289.49 292.558 304.468 284.274 314.782 280.183C319.917 278.145 325.251 276.325 329.445 272.584C333.424 269.034 335.383 262.454 329.821 258.401C328.036 257.1 325.841 256.467 323.632 256.434C317.41 256.34 312.269 259.885 306.642 261.909C304.825 262.563 302.491 262.951 301.308 261.263C300.607 260.262 300.69 258.915 301.311 257.863C302.405 256.012 304.445 255.31 306.383 254.689C312.619 252.686 318.975 250.791 324.568 247.384C330.162 243.977 335.008 238.797 336.47 232.414C337.133 229.514 336.858 225.866 332.911 225.15C331.706 224.933 330.464 225.114 329.32 225.549L317.003 230.247C315.57 230.792 314.215 229.29 314.908 227.922L322.181 213.54C323.51 210.912 324.862 208.215 324.704 205.152C324.638 203.877 324.251 202.614 323.499 201.583C322.234 199.852 320.422 199.17 318.46 199.17C315.879 199.171 313.041 200.351 310.855 201.874Z" fill="url(#paint9_linear)"/>
    <path d="M282.244 304.097C282.208 304.097 282.172 304.094 282.136 304.088C281.777 304.029 281.536 303.691 281.595 303.332C286.397 274.419 294.983 246.315 307.115 219.798C307.266 219.468 307.656 219.326 307.985 219.473C308.315 219.625 308.459 220.014 308.309 220.344C296.226 246.755 287.674 274.749 282.891 303.548C282.838 303.868 282.559 304.097 282.244 304.097Z" fill="#37474F"/>
    <path d="M302.776 245.725C298.895 245.725 295.268 244.717 292.412 242.731C288.337 239.9 286.159 235.508 285.05 232.323C283.622 228.223 283.084 223.8 282.609 219.898C282.565 219.538 282.821 219.211 283.181 219.168C283.54 219.113 283.868 219.379 283.911 219.739C284.378 223.576 284.909 227.925 286.29 231.894C287.336 234.894 289.376 239.024 293.162 241.654C297.865 244.922 304.887 245.318 311.484 242.684C317.569 240.258 322.643 235.907 327.549 231.699C327.825 231.467 328.24 231.497 328.475 231.771C328.711 232.046 328.68 232.461 328.405 232.697C323.415 236.974 318.258 241.396 311.971 243.905C308.919 245.122 305.773 245.725 302.776 245.725Z" fill="#37474F"/>
    <path d="M291.484 279.316C287.295 279.316 283.374 278.281 280.143 276.224C273.12 271.752 270.107 263.175 268.452 257.11C268.356 256.759 268.563 256.399 268.912 256.303C269.265 256.213 269.624 256.415 269.719 256.763C271.316 262.618 274.209 270.89 280.848 275.116C286.505 278.716 294.47 278.967 302.152 275.78L303.63 275.169C310.216 272.448 316.436 269.876 323.352 265.525C323.658 265.328 324.065 265.424 324.257 265.73C324.45 266.037 324.358 266.443 324.05 266.635C317.04 271.046 310.771 273.637 304.131 276.382L302.654 276.993C298.912 278.544 295.098 279.316 291.484 279.316Z" fill="#37474F"/>
    <path d="M51.5436 213.017L68.184 259.987L65.7613 277.467L74.6713 311.21H80.4716L81.2685 257.751L77.7296 212.265L76.9278 195.118L49.7334 195.086L51.5436 213.017Z" fill="url(#paint10_linear)"/>
    <path d="M43.6967 209.528L47.4511 263.173L39.6955 281.511L38.9792 316.911H45.0647L60.1265 265.43L69.0184 218.517L73.9685 213.897L77.0893 195.121L46.2543 195.084L43.6967 209.528Z" fill="url(#paint11_linear)"/>
    <path d="M73.2106 172.699L91.087 197.646L88.4467 200.41L63.3174 180.373L73.2106 172.699Z" fill="#FFCCBC"/>
    <path d="M96.8344 197.421C97.7944 197.458 98.8874 197.594 99.4405 198.379C99.8051 198.898 99.8333 199.594 99.6641 200.206C99.4949 200.816 99.1503 201.361 98.8099 201.895C98.1903 202.866 89.4687 202.793 88.4462 200.41C88.134 199.683 88.8562 199.341 89.3277 198.706C90.8075 196.711 94.3332 197.328 96.8344 197.421Z" fill="#FFCCBC"/>
    <path d="M98.6555 197.792C100.078 197.837 101.834 201.561 101.677 202.908C101.587 203.688 100.282 204.574 99.4946 204.411C99.3243 203.677 100.223 203.589 100.459 203.06C100.663 202.601 100.297 202.254 100.015 201.805C99.2508 200.596 97.5151 199.628 98.6555 197.792Z" fill="#FFCCBC"/>
    <path d="M96.933 198.46C98.3554 198.505 100.111 202.228 99.9551 203.576C99.8644 204.355 98.5599 205.241 97.7722 205.078C97.6019 204.344 98.5005 204.256 98.7362 203.727C98.9407 203.269 98.575 202.921 98.293 202.472C97.5284 201.263 95.7927 200.295 96.933 198.46Z" fill="#FFCCBC"/>
    <path d="M95.6076 199.02C97.03 199.065 98.7858 202.788 98.6296 204.136C98.539 204.915 97.2345 205.801 96.4467 205.638C96.2765 204.905 97.176 204.816 97.4108 204.287C97.6152 203.829 97.2496 203.48 96.9675 203.032C96.2029 201.823 94.4673 200.855 95.6076 199.02Z" fill="#FFCCBC"/>
    <path d="M94.9566 200.183C96.0063 200.216 97.3027 202.965 97.1879 203.959C97.1204 204.533 96.1574 205.189 95.5751 205.069C95.4502 204.526 96.1131 204.461 96.2873 204.071C96.4394 203.732 96.1685 203.476 95.9599 203.144C95.3968 202.253 94.1145 201.538 94.9566 200.183Z" fill="#FFCCBC"/>
    <path d="M95.66 198.197C95.1322 199.614 99.7297 200.735 100.714 201.22C100.554 202.636 97.8137 201.445 97.0018 201.386C96.1053 201.32 95.2309 202.106 94.2669 201.98C93.3683 201.863 92.8173 201.256 92.3438 200.568C92.1293 200.255 91.9087 199.822 91.55 199.673" fill="#FFCCBC"/>
    <path d="M42.7314 144.88L44.7895 189.178C44.9375 192.414 43.2764 196.021 45.7082 198.163C53.4426 204.982 77.0891 198.557 77.0891 198.557C80.0356 197.476 77.1979 193.046 77.5223 190.143L80.9634 148.443C82.149 139.179 76.7124 122.967 67.4478 122.967C55.3465 122.967 44.2797 132.777 42.7314 144.88Z" fill="url(#paint12_linear)"/>
    <path d="M63.9405 115.358L61.8201 124.413L71.9379 132.057L74.0745 130.709L74.7484 120.815L63.9405 115.358Z" fill="#FFCCBC"/>
    <path d="M74.7486 120.815L63.9408 115.358L63.3071 118.063L74.3336 126.898L74.7486 120.815Z" fill="#FFAB91"/>
    <path d="M87.7368 93.1536C87.3077 90.321 84.7883 88.6115 82.0524 88.404C80.901 88.3173 79.7234 88.4523 78.6274 88.821C78.3161 88.9248 75.7917 90.0983 76.0415 90.3582C72.9782 87.1649 66.3166 88.3657 65.8109 93.4961C65.8159 93.481 64.597 93.4417 64.5023 93.4427C62.3154 93.473 60.064 95.0273 59.0244 96.911C57.9556 98.8482 58.0009 100.802 59.2349 102.603C59.4757 102.954 60.0831 103.788 60.4145 103.84C60.2765 104.084 60.4719 104.63 60.5273 104.93C60.6492 105.586 63.3519 113.908 63.3822 115.358C64.1629 115.422 64.6988 115.46 64.9667 115.543C64.9244 114.385 65.8492 112.361 66.4516 111.44C66.6117 111.196 66.7638 110.949 66.9149 110.702C66.9049 110.573 66.9159 110.436 66.9502 110.291C67.2907 108.87 66.9834 107.099 68.0442 105.927C68.3978 105.536 69.0707 105.435 69.3437 105.033C69.5985 104.659 69.3356 100.352 69.9521 99.3801C70.5938 98.3687 79.7385 98.2166 80.5021 98.9479C81.2858 99.6964 81.2354 106.414 81.2908 106.34C81.452 106.122 81.4208 105.767 81.4742 105.454C81.7502 103.831 82.4946 102.341 82.6709 100.702C82.7928 99.5684 83.8918 99.5029 84.748 99.1061C86.9713 98.0786 88.0945 95.5179 87.7368 93.1536Z" fill="#37474F"/>
    <path d="M81.8383 119.418L81.6943 97.8204H68.637L68.1706 103.184L66.849 104.7L65.8386 110.724L64.6721 110.742L64.6127 109.395C64.5623 108.229 63.6204 107.249 62.4529 107.264C62.4378 107.265 62.4217 107.265 62.4056 107.265C61.2522 107.304 60.3586 108.3 60.3586 109.454V110.966C60.3586 112.158 61.3378 113.058 62.5305 113.095C63.2659 113.118 63.8562 113.722 63.8562 114.464V116.485C63.8562 119.573 80.8683 126.201 81.787 120.673C81.8565 120.259 81.8595 119.837 81.8383 119.418Z" fill="#FFCCBC"/>
    <path d="M82.4296 107.591C82.4296 108.814 81.5552 109.811 80.4794 109.811H80.0462C78.7629 109.811 77.7303 108.67 77.6941 107.215L77.6689 106.21C77.6709 105.702 78.0245 105.289 78.4587 105.289H81.6268C82.07 105.289 82.4296 105.711 82.4296 106.23V107.591ZM75.5484 107.591C75.5484 108.814 74.5522 109.811 73.3282 109.811H72.8447C71.3881 109.811 70.2155 108.669 70.1752 107.214L70.148 106.209C70.1511 105.702 70.5651 105.289 71.0748 105.289H74.6076C75.1263 105.289 75.5484 105.711 75.5484 106.23V107.591ZM81.6268 104.489H78.4587C77.7082 104.489 77.0786 105.055 76.9124 105.816H76.2919C76.1055 105.056 75.4235 104.489 74.6076 104.489H71.0748C70.2598 104.489 69.5759 105.055 69.3955 105.816H63.8803C62.4076 105.816 60.9832 106.347 59.8711 107.315L59.6857 107.475C59.5195 107.62 59.5014 107.873 59.6464 108.039C59.7905 108.206 60.0433 108.223 60.2105 108.078L60.3959 107.918C61.3619 107.078 62.6 106.614 63.8803 106.614H69.3593L69.3764 107.236C69.4288 109.128 70.9519 110.611 72.8447 110.611H73.3282C74.9934 110.611 76.3483 109.256 76.3483 107.591V106.614H76.8791L76.8942 107.235C76.9416 109.128 78.3257 110.611 80.0462 110.611H80.4794C81.9955 110.611 83.2285 109.256 83.2285 107.591V106.23C83.2285 105.27 82.5102 104.489 81.6268 104.489Z" fill="#263238"/>
    <path d="M74.5515 163.616L80.7387 134.434L84.5575 134.635L85.6968 164.815C85.8429 168.674 82.9065 171.782 79.4815 171.394C76.0807 171.008 73.7597 167.348 74.5515 163.616Z" fill="#FFCCBC"/>
    <path d="M76.7998 130.242C76.1964 129.494 75.5819 128.58 75.8126 127.647C75.9647 127.032 76.4724 126.553 77.0436 126.28C77.6168 126.007 78.2534 125.91 78.88 125.817C80.0193 125.647 85.6846 132.278 84.5574 134.613C84.2129 135.325 83.4826 135.005 82.6938 135.065C80.2167 135.258 78.3703 132.192 76.7998 130.242Z" fill="#FFCCBC"/>
    <path d="M75.8847 128.624C74.9851 127.521 76.6442 123.754 77.7634 122.987C78.4111 122.545 79.9362 122.948 80.3301 123.65C79.8879 124.259 79.2311 123.639 78.6771 123.807C78.1976 123.954 78.1734 124.459 78.0213 124.966C77.6103 126.336 78.0182 128.281 75.8847 128.624Z" fill="#FFCCBC"/>
    <path d="M77.5177 129.486C76.6182 128.383 78.2773 124.616 79.3974 123.849C80.0442 123.407 81.5693 123.81 81.9632 124.512C81.5209 125.121 80.8641 124.501 80.3111 124.67C79.8306 124.816 79.8074 125.321 79.6553 125.828C79.2443 127.198 79.6513 129.143 77.5177 129.486Z" fill="#FFCCBC"/>
    <path d="M78.8095 130.119C77.9099 129.016 79.569 125.249 80.6892 124.482C81.3359 124.04 82.861 124.443 83.2559 125.145C82.8127 125.754 82.1569 125.134 81.6029 125.303C81.1234 125.449 81.0992 125.954 80.9471 126.461C80.5361 127.831 80.9441 129.776 78.8095 130.119Z" fill="#FFCCBC"/>
    <path d="M80.1148 129.848C79.4509 129.034 80.6759 126.253 81.5019 125.687C81.9794 125.36 83.1056 125.658 83.3967 126.175C83.0703 126.627 82.5848 126.168 82.1768 126.293C81.8212 126.401 81.8051 126.774 81.6923 127.147C81.3891 128.159 81.6892 129.595 80.1148 129.848Z" fill="#FFCCBC"/>
    <path d="M74.6711 312.395L73.4592 320.306H98.0738L96.9879 318.134L80.4704 312.395H74.6711Z" fill="#37474F"/>
    <path d="M38.8755 318.095L37.6042 326.395H63.4276L62.2883 324.117L44.9609 318.095H38.8755Z" fill="#37474F"/>
    <path d="M74.5827 169.516C70.361 166.78 66.115 164.08 61.8771 161.37C57.6673 158.675 53.505 155.705 49.0585 153.417C48.5488 153.154 47.9021 153.864 48.4078 154.259C56.2984 160.422 65.3766 165.445 73.8343 170.796C74.6452 171.308 75.3806 170.033 74.5827 169.516Z" fill="#FFA726"/>
    <path d="M74.6905 152.004C69.3334 146.956 64.1255 141.431 58.2264 137.014C57.8658 136.744 57.5213 137.299 57.7741 137.6C62.4976 143.201 68.2979 148.052 73.6177 153.076C74.3269 153.747 75.4027 152.676 74.6905 152.004Z" fill="#FFA726"/>
    <path d="M73.4116 152.763C71.7656 154.735 70.0118 156.975 68.8231 159.255C68.5854 159.711 69.1646 160.193 69.5484 159.814C70.7854 158.598 71.9237 157.137 72.9714 155.657C72.7286 157.583 72.4475 159.539 72.5997 161.415C72.643 161.948 73.4116 162.11 73.5677 161.546C74.297 158.904 74.1701 155.932 74.5025 153.216C74.569 152.676 73.7511 152.357 73.4116 152.763Z" fill="#FFA726"/>
    <path d="M283.946 311.21H120.439V49.9935H283.946V311.21Z" fill="#BDBDBD"/>
    <path d="M279.348 311.21H115.841V49.9935H279.348V311.21Z" fill="#C7C7C7"/>
    <path d="M274.42 311.21H110.913V49.9935H274.42V311.21Z" fill="#E0E0E0"/>
    <path d="M269.034 311.21H105.527V49.9935H269.034V311.21Z" fill="#ECEFF1"/>
    <path d="M159.824 87.6105H155.54L139.273 62.7099V87.6105H134.99V55.2974H139.273L155.585 80.309V55.2974H159.824V87.6105Z" fill="#455A64"/>
    <path d="M176.713 88.0544C173.458 88.0544 170.809 86.9891 168.767 84.8586C166.726 82.7133 165.705 79.8503 165.705 76.2699V75.5153C165.705 73.1332 166.156 71.0101 167.059 69.1459C167.976 67.2668 169.248 65.8021 170.876 64.7516C172.518 63.6864 174.294 63.1537 176.202 63.1537C179.324 63.1537 181.75 64.182 183.481 66.2386C185.213 68.2951 186.078 71.2394 186.078 75.0714V76.7803H169.81C169.87 79.1476 170.558 81.0636 171.874 82.5283C173.206 83.9783 174.893 84.7032 176.934 84.7032C178.384 84.7032 179.612 84.4073 180.619 83.8155C181.625 83.2237 182.505 82.4395 183.26 81.463L185.767 83.416C183.755 86.5083 180.737 88.0544 176.713 88.0544ZM176.202 66.5271C174.545 66.5271 173.154 67.1337 172.03 68.3469C170.905 69.5453 170.21 71.232 169.944 73.4069H181.972V73.0962C181.854 71.0101 181.292 69.3974 180.286 68.2581C179.28 67.1041 177.918 66.5271 176.202 66.5271Z" fill="#455A64"/>
    <path d="M212.111 81.9513L216.727 63.5976H220.832L213.842 87.6105H210.513L204.676 69.4122L198.994 87.6105H195.665L188.697 63.5976H192.78L197.507 81.574L203.1 63.5976H206.407L212.111 81.9513Z" fill="#455A64"/>
    <path d="M239.009 81.2411C239.009 80.1315 238.587 79.2733 237.744 78.6667C236.915 78.0453 235.458 77.5127 233.372 77.0688C231.3 76.6249 229.651 76.0923 228.422 75.4709C227.209 74.8495 226.307 74.1097 225.715 73.2516C225.138 72.3935 224.849 71.3726 224.849 70.1889C224.849 68.2212 225.678 66.5567 227.335 65.1955C229.007 63.8343 231.137 63.1537 233.727 63.1537C236.449 63.1537 238.654 63.8565 240.34 65.2621C242.042 66.6676 242.892 68.4653 242.892 70.655H238.764C238.764 69.5305 238.284 68.5614 237.322 67.7477C236.375 66.934 235.177 66.5271 233.727 66.5271C232.232 66.5271 231.063 66.8526 230.22 67.5036C229.377 68.1546 228.955 69.0053 228.955 70.0558C228.955 71.0471 229.347 71.7942 230.131 72.2973C230.916 72.8003 232.328 73.2812 234.37 73.7398C236.427 74.1985 238.091 74.7459 239.364 75.3821C240.636 76.0183 241.576 76.7877 242.182 77.6902C242.804 78.5779 243.114 79.6654 243.114 80.9526C243.114 83.0979 242.256 84.8216 240.54 86.1236C238.824 87.4108 236.597 88.0544 233.86 88.0544C231.936 88.0544 230.235 87.7141 228.755 87.0335C227.276 86.3529 226.114 85.406 225.271 84.1928C224.443 82.9648 224.028 81.6406 224.028 80.2202H228.134C228.208 81.5962 228.755 82.6911 229.776 83.5048C230.812 84.3038 232.173 84.7032 233.86 84.7032C235.413 84.7032 236.656 84.3925 237.588 83.7711C238.535 83.1349 239.009 82.2916 239.009 81.2411Z" fill="#455A64"/>
    <path d="M209.508 101.96H112.245V103.625H209.508V101.96Z" fill="#78909C"/>
    <path d="M209.508 105.289H112.245V106.953H209.508V105.289Z" fill="#78909C"/>
    <path d="M209.508 108.617H112.245V110.281H209.508V108.617Z" fill="#78909C"/>
    <path d="M209.508 111.945H112.245V113.609H209.508V111.945Z" fill="#78909C"/>
    <path d="M209.508 115.273H112.245V116.936H209.508V115.273Z" fill="#78909C"/>
    <path d="M209.508 118.601H112.245V120.265H209.508V118.601Z" fill="#78909C"/>
    <path d="M189.745 145.225C189.786 145.458 189.817 145.7 189.817 145.962V146.889H259.955V145.225H189.745Z" fill="#78909C"/>
    <path d="M182.35 145.962C182.35 145.7 182.381 145.458 182.423 145.225H112.245V146.889H182.35V145.962Z" fill="#78909C"/>
    <path d="M182.35 148.553H112.245V150.218H182.35V148.553Z" fill="#78909C"/>
    <path d="M189.818 150.217H259.955V148.552H189.818V150.217Z" fill="#78909C"/>
    <path d="M182.35 151.881H112.245V153.545H182.35V151.881Z" fill="#78909C"/>
    <path d="M189.818 153.545H259.955V151.881H189.818V153.545Z" fill="#78909C"/>
    <path d="M189.818 156.873H259.955V155.209H189.818V156.873Z" fill="#78909C"/>
    <path d="M182.35 155.209H112.245V156.873H182.35V155.209Z" fill="#78909C"/>
    <path d="M182.35 158.537H112.245V160.201H182.35V158.537Z" fill="#78909C"/>
    <path d="M189.818 160.201H259.955V158.537H189.818V160.201Z" fill="#78909C"/>
    <path d="M189.818 163.529H259.955V161.865H189.818V163.529Z" fill="#78909C"/>
    <path d="M182.35 161.865H112.245V163.529H182.35V161.865Z" fill="#78909C"/>
    <path d="M182.35 165.193H112.245V166.857H182.35V165.193Z" fill="#78909C"/>
    <path d="M189.818 166.857H259.955V165.193H189.818V166.857Z" fill="#78909C"/>
    <path d="M182.35 168.521H112.245V170.185H182.35V168.521Z" fill="#78909C"/>
    <path d="M189.818 170.185H259.955V168.521H189.818V170.185Z" fill="#78909C"/>
    <path d="M182.35 171.849H112.245V173.513H182.35V171.849Z" fill="#78909C"/>
    <path d="M189.818 173.513H259.955V171.849H189.818V173.513Z" fill="#78909C"/>
    <path d="M182.35 175.176H112.245V176.841H182.35V175.176Z" fill="#78909C"/>
    <path d="M189.818 176.842H259.955V175.178H189.818V176.842Z" fill="#78909C"/>
    <path d="M182.35 178.505H112.245V180.169H182.35V178.505Z" fill="#78909C"/>
    <path d="M189.818 180.169H259.955V178.505H189.818V180.169Z" fill="#78909C"/>
    <path d="M189.818 183.497H259.955V181.833H189.818V183.497Z" fill="#78909C"/>
    <path d="M182.35 181.833H112.245V183.497H182.35V181.833Z" fill="#78909C"/>
    <path d="M189.745 190.765C189.786 190.999 189.817 191.241 189.817 191.503V192.429H259.955V190.765H189.745Z" fill="#78909C"/>
    <path d="M182.35 191.503C182.35 191.24 182.381 190.999 182.423 190.766H112.245V192.43H182.35V191.503Z" fill="#78909C"/>
    <path d="M182.35 194.094H112.245V195.758H182.35V194.094Z" fill="#78909C"/>
    <path d="M189.818 195.758H259.955V194.094H189.818V195.758Z" fill="#78909C"/>
    <path d="M182.35 197.421H112.245V199.085H182.35V197.421Z" fill="#78909C"/>
    <path d="M189.818 199.086H259.955V197.422H189.818V199.086Z" fill="#78909C"/>
    <path d="M189.818 202.414H259.955V200.749H189.818V202.414Z" fill="#78909C"/>
    <path d="M182.35 200.749H112.245V202.414H182.35V200.749Z" fill="#78909C"/>
    <path d="M182.35 204.078H112.245V205.742H182.35V204.078Z" fill="#78909C"/>
    <path d="M189.818 205.742H259.955V204.078H189.818V205.742Z" fill="#78909C"/>
    <path d="M189.818 209.07H259.955V207.406H189.818V209.07Z" fill="#78909C"/>
    <path d="M182.35 207.405H112.245V209.069H182.35V207.405Z" fill="#78909C"/>
    <path d="M182.35 210.733H112.245V212.397H182.35V210.733Z" fill="#78909C"/>
    <path d="M189.818 212.397H259.955V210.733H189.818V212.397Z" fill="#78909C"/>
    <path d="M182.35 214.061H112.245V215.726H182.35V214.061Z" fill="#78909C"/>
    <path d="M189.818 215.726H259.955V214.061H189.818V215.726Z" fill="#78909C"/>
    <path d="M182.35 217.39H112.245V219.054H182.35V217.39Z" fill="#78909C"/>
    <path d="M189.818 219.054H259.955V217.39H189.818V219.054Z" fill="#78909C"/>
    <path d="M182.35 220.717H112.245V222.381H182.35V220.717Z" fill="#78909C"/>
    <path d="M189.818 222.382H259.955V220.718H189.818V222.382Z" fill="#78909C"/>
    <path d="M182.35 224.045H112.245V225.709H182.35V224.045Z" fill="#78909C"/>
    <path d="M189.818 225.709H259.955V224.045H189.818V225.709Z" fill="#78909C"/>
    <path d="M189.818 229.038H259.955V227.373H189.818V229.038Z" fill="#78909C"/>
    <path d="M182.35 227.373H112.245V229.038H182.35V227.373Z" fill="#78909C"/>
    <path d="M189.745 232.268C189.786 232.5 189.817 232.743 189.817 233.004V233.931H259.955V232.268H189.745Z" fill="#78909C"/>
    <path d="M189.818 237.259H259.955V235.595H189.818V237.259Z" fill="#78909C"/>
    <path d="M189.818 240.587H259.955V238.924H189.818V240.587Z" fill="#78909C"/>
    <path d="M189.818 243.915H259.955V242.252H189.818V243.915Z" fill="#78909C"/>
    <path d="M189.818 247.242H259.955V245.579H189.818V247.242Z" fill="#78909C"/>
    <path d="M189.818 250.571H259.955V248.907H189.818V250.571Z" fill="#78909C"/>
    <path d="M189.818 253.899H259.955V252.236H189.818V253.899Z" fill="#78909C"/>
    <path d="M189.818 257.226H259.955V255.563H189.818V257.226Z" fill="#78909C"/>
    <path d="M189.818 260.555H259.955V258.892H189.818V260.555Z" fill="#78909C"/>
    <path d="M189.818 263.883H259.955V262.22H189.818V263.883Z" fill="#78909C"/>
    <path d="M189.818 267.211H259.955V265.548H189.818V267.211Z" fill="#78909C"/>
    <path d="M189.818 270.538H259.955V268.875H189.818V270.538Z" fill="#78909C"/>
    <path d="M182.35 233.269V232.729H112.245V233.269V234.533V268.738V269.324V270.539H182.35V269.324V268.742C182.35 256.918 182.326 245.093 182.423 233.269H182.35Z" fill="#78909C"/>
    <path d="M182.382 302.984H112.245V304.647H182.382V302.984Z" fill="#78909C"/>
    <path d="M182.382 299.656H112.245V301.32H182.382V299.656Z" fill="#78909C"/>
    <path d="M182.382 296.328H112.245V297.992H182.382V296.328Z" fill="#78909C"/>
    <path d="M182.382 292.999H112.245V294.663H182.382V292.999Z" fill="#78909C"/>
    <path d="M182.382 289.671H112.245V291.335H182.382V289.671Z" fill="#78909C"/>
    <path d="M182.382 286.344H112.245V288.008H182.382V286.344Z" fill="#78909C"/>
    <path d="M182.382 283.016H112.245V284.68H182.382V283.016Z" fill="#78909C"/>
    <path d="M182.382 279.687H112.245V281.351H182.382V279.687Z" fill="#78909C"/>
    <path d="M182.382 276.36H112.245V278.024H182.382V276.36Z" fill="#78909C"/>
    <path d="M189.807 304.821H259.955V276.359H189.85V277.51V278.06C189.85 286.98 189.849 295.902 189.807 304.821Z" fill="#78909C"/>
    <path d="M259.955 121.928H112.245V123.592H259.955V121.928Z" fill="#78909C"/>
    <path d="M259.955 125.257H112.245V126.922H259.955V125.257Z" fill="#78909C"/>
    <path d="M259.955 128.585H112.245V130.249H259.955V128.585Z" fill="#78909C"/>
    <path d="M259.955 131.913H112.245V133.577H259.955V131.913Z" fill="#78909C"/>
    <path d="M259.955 119.433H211.64V101.961H259.955V119.433Z" fill="#78909C"/>
    <path d="M252.921 178.079C251.969 176.178 250.439 174.571 248.587 173.526C247.566 172.949 246.441 172.536 245.514 171.815C244.586 171.096 243.859 169.95 244.069 168.795C244.172 168.226 244.495 167.69 244.46 167.113C244.414 166.381 243.818 165.823 243.293 165.309C242.117 164.157 241.069 162.782 240.731 161.172C240.391 159.56 240.919 157.685 242.315 156.812C244.378 155.52 247.205 156.846 249.467 155.948C251.974 154.955 253.351 151.435 256.04 151.609C258.315 151.756 259.54 154.543 261.72 155.212C263.021 155.612 264.413 155.183 265.771 155.097C267.427 154.994 269.155 155.446 270.403 156.538C271.653 157.63 272.343 159.401 271.946 161.011C271.756 161.78 271.335 162.513 271.387 163.303C271.493 164.875 273.304 165.703 274.093 167.068C275.223 169.025 274.013 171.458 272.81 173.372C271.607 175.286 270.36 177.682 271.43 179.674L252.921 178.079Z" fill="#D84315"/>
    <path d="M268.259 220.717L241.083 211.915L238.912 215.061L273.588 235.639L268.259 220.717Z" fill="#FFCCBC"/>
    <path d="M240.134 206.241C239.903 205.308 239.55 204.265 238.667 203.883C238.086 203.632 237.397 203.745 236.834 204.037C236.27 204.326 235.806 204.773 235.352 205.215C234.528 206.019 236.371 214.544 238.912 215.061C239.688 215.219 239.874 214.443 240.402 213.852C242.054 211.998 240.734 208.671 240.134 206.241Z" fill="#FFCCBC"/>
    <path d="M239.401 204.532C239.069 203.149 235.065 202.186 233.777 202.613C233.035 202.86 232.43 204.318 232.749 205.056C233.504 205.073 233.407 204.176 233.877 203.837C234.285 203.544 234.7 203.831 235.195 204.017C236.534 204.519 237.835 206.022 239.401 204.532Z" fill="#FFCCBC"/>
    <path d="M239.097 206.354C238.765 204.971 234.761 204.008 233.474 204.435C232.731 204.682 232.126 206.14 232.446 206.878C233.2 206.895 233.103 205.998 233.573 205.659C233.981 205.366 234.396 205.653 234.891 205.839C236.231 206.341 237.531 207.844 239.097 206.354Z" fill="#FFCCBC"/>
    <path d="M238.819 207.766C238.485 206.382 234.483 205.419 233.195 205.846C232.451 206.093 231.847 207.551 232.166 208.29C232.922 208.306 232.825 207.41 233.294 207.071C233.701 206.777 234.117 207.065 234.613 207.251C235.952 207.753 237.252 209.256 238.819 207.766Z" fill="#FFCCBC"/>
    <path d="M237.812 208.64C237.566 207.618 234.612 206.907 233.661 207.223C233.112 207.405 232.667 208.482 232.902 209.027C233.46 209.039 233.387 208.376 233.734 208.126C234.035 207.909 234.342 208.122 234.708 208.259C235.696 208.631 236.657 209.74 237.812 208.64Z" fill="#FFCCBC"/>
    <path d="M239.612 207.548C238.332 208.354 236.302 204.079 235.626 203.214C234.272 203.657 235.996 206.099 236.219 206.882C236.464 207.746 235.873 208.763 236.191 209.68C236.49 210.537 237.197 210.954 237.966 211.277C238.316 211.424 238.784 211.551 239.004 211.872" fill="#FFCCBC"/>
    <path d="M335.36 308.204L330.385 321.132L328.271 326.619L324.965 326.722L325.079 323.166L325.454 311.908L327.532 306.489L335.36 308.204Z" fill="#37474F"/>
    <path d="M271.282 295.343C270.662 298.157 271.379 301.098 273.226 303.31C274.728 305.109 276.854 306.275 279.18 306.575L324.235 312.371L326.867 306.109L296.91 292.975L289.956 293.913L306.644 280.845C315.129 274.2 314.415 260.806 304.958 255.642C304.669 255.483 304.375 255.334 304.073 255.191L293.08 250.044L271.282 295.343Z" fill="url(#paint13_linear)"/>
    <path d="M269.858 187.114C260.996 189.809 260.509 206.902 264.338 215.421L279.759 254.316C280.914 256.998 279.489 262.062 282.621 262.241C282.621 262.241 307.115 261.508 312.531 252.737C314.234 249.979 311.595 247.013 310.796 243.872L299.88 200.89C295.832 191.881 286.254 186.123 276.609 186.124C274.339 186.124 272.064 186.443 269.858 187.114Z" fill="url(#paint14_linear)"/>
    <path d="M271.002 178.814L275.664 186.861L268.207 197.117L265.771 196.449L262.249 187.179L271.002 178.814Z" fill="#FFCCBC"/>
    <path d="M262.249 187.179L271.001 178.814L272.394 181.217L264.414 192.878L262.249 187.179Z" fill="#FFAB91"/>
    <path d="M255.058 187.905L248.913 167.198L261.407 163.401L263.413 168.396L265.119 169.462L267.837 174.932L268.959 174.611L268.623 173.305C268.334 172.175 268.95 170.963 270.07 170.638C270.086 170.634 270.101 170.63 270.116 170.625C271.231 170.325 272.375 171.019 272.711 172.124L273.151 173.571C273.498 174.711 272.823 175.856 271.694 176.238C270.994 176.474 270.607 177.224 270.821 177.935C270.821 177.935 271.408 179.867 271.409 179.867C272.308 182.822 257.959 194.112 255.472 189.09C255.287 188.714 255.161 188.311 255.058 187.905Z" fill="#FFCCBC"/>
    <path d="M262.34 318.245L263.791 326.115L239.189 326.866L240.207 324.662L256.543 318.422L262.34 318.245Z" fill="#37474F"/>
    <path d="M330.384 321.132L328.271 326.619L324.964 326.722L320.136 326.869L321.16 324.666L325.078 323.166L330.384 321.132Z" fill="#37474F"/>
    <path d="M250.824 262.063C247.99 262.582 245.556 264.383 244.233 266.94C243.156 269.024 242.905 271.436 243.529 273.696L255.64 317.478H262.432L262.936 284.772L257.149 274.709L294.043 279.767C303.28 281.142 312.669 274.17 313.045 264.838L312.531 252.738L250.824 262.063Z" fill="url(#paint15_linear)"/>
    <path d="M271.589 237.99L251.773 260.288L254.201 263.242L279.168 246.248C282.361 244.075 283.119 239.867 280.774 237.341C278.446 234.833 274.123 235.138 271.589 237.99Z" fill="#FFCCBC"/>
    <path d="M246.062 259.605C245.102 259.564 244.001 259.611 243.387 260.351C242.982 260.839 242.898 261.531 243.019 262.153C243.139 262.776 243.438 263.347 243.734 263.907C244.275 264.924 252.973 265.548 254.184 263.255C254.553 262.556 253.861 262.157 253.442 261.486C252.127 259.379 248.563 259.712 246.062 259.605Z" fill="#FFCCBC"/>
    <path d="M244.216 259.829C242.795 259.76 240.747 263.331 240.795 264.687C240.823 265.471 242.053 266.459 242.851 266.359C243.079 265.641 242.19 265.481 241.998 264.936C241.831 264.463 242.223 264.144 242.541 263.72C243.398 262.577 245.205 261.751 244.216 259.829Z" fill="#FFCCBC"/>
    <path d="M245.88 260.632C244.458 260.564 242.41 264.135 242.459 265.49C242.486 266.273 243.716 267.263 244.515 267.162C244.743 266.445 243.854 266.284 243.662 265.738C243.493 265.266 243.886 264.947 244.205 264.524C245.062 263.38 246.869 262.553 245.88 260.632Z" fill="#FFCCBC"/>
    <path d="M247.156 261.296C245.735 261.228 243.687 264.799 243.735 266.155C243.763 266.938 244.993 267.927 245.791 267.827C246.019 267.109 245.13 266.949 244.938 266.403C244.771 265.93 245.162 265.611 245.481 265.188C246.338 264.044 248.145 263.217 247.156 261.296Z" fill="#FFCCBC"/>
    <path d="M247.713 262.507C246.663 262.456 245.151 265.092 245.186 266.094C245.207 266.672 246.115 267.401 246.704 267.328C246.873 266.798 246.218 266.68 246.075 266.277C245.951 265.928 246.241 265.693 246.475 265.38C247.108 264.536 248.444 263.926 247.713 262.507Z" fill="#FFCCBC"/>
    <path d="M273.235 237.678L277.732 211.694L291.473 214.943L281.73 244.424L273.235 237.678Z" fill="#FFCCBC"/>
    <path d="M232.837 190.573C230.095 190.573 227.866 192.805 227.866 195.547C227.866 198.287 230.095 200.518 232.837 200.518C235.579 200.518 237.81 198.287 237.81 195.547C237.81 192.805 235.579 190.573 232.837 190.573ZM232.837 201.653C229.47 201.653 226.731 198.913 226.731 195.547C226.731 192.178 229.47 189.438 232.837 189.438C236.205 189.438 238.944 192.178 238.944 195.547C238.944 198.913 236.205 201.653 232.837 201.653Z" fill="#263238"/>
    <path d="M236.97 213.725C236.716 213.725 236.484 213.552 236.418 213.293L233.386 201.113C233.312 200.809 233.497 200.5 233.801 200.425C234.106 200.35 234.413 200.533 234.489 200.839L237.523 213.019C237.597 213.324 237.412 213.632 237.109 213.707C237.061 213.719 237.016 213.725 236.97 213.725Z" fill="#263238"/>
    <path d="M238.697 210.556C238.199 210.711 237.652 210.457 237.285 210.088C236.917 209.717 236.8 208.185 236.511 207.75C235.768 206.635 234.555 206.848 233.806 205.739C233.691 205.571 233.582 205.366 233.648 205.174C233.752 204.868 234.183 204.861 234.495 204.943C235.605 205.231 236.577 205.886 237.525 206.531" fill="#FFCCBC"/>
    <path d="M239.304 210.381C237.678 212.052 236.99 208.323 236.405 207.473C235.917 206.76 235.097 206.156 234.204 206.207C234.122 206.212 234.09 206.318 234.162 206.365C235.155 206.988 235.909 207.44 236.305 208.616C236.561 209.377 236.699 210.196 237.246 210.819C237.903 211.567 239.315 211.842 239.826 210.784C239.985 210.459 239.581 210.096 239.304 210.381Z" fill="#FFAB91"/>
    <path d="M238.575 206.323C238.128 205.842 237.331 205.617 236.719 205.396C236.001 205.138 235.251 204.917 234.484 204.885C234.387 204.88 234.387 205.009 234.464 205.042C235.118 205.317 235.808 205.507 236.47 205.764C237.107 206.01 237.755 206.473 238.428 206.575C238.572 206.597 238.685 206.441 238.575 206.323Z" fill="#FFAB91"/>
    <path d="M229.881 194.587C230.166 193.746 231.039 193.342 231.268 192.521C231.308 192.377 231.218 192.216 231.073 192.176C229.933 191.873 229.067 193.37 228.814 194.293C228.587 195.116 228.609 197.218 229.75 197.374C229.824 197.383 229.883 197.357 229.908 197.284C230.028 196.949 229.936 196.786 229.848 196.445C229.687 195.814 229.67 195.209 229.881 194.587Z" fill="#FAFAFA"/>
    <path d="M236.391 195.53C236.337 195.336 236.1 195.335 235.993 195.478C235.687 195.896 235.533 196.401 235.195 196.805C234.887 197.171 234.396 197.414 234.176 197.835C234.04 198.093 234.203 198.459 234.523 198.443C235.637 198.389 236.667 196.551 236.391 195.53Z" fill="#FAFAFA"/>
    <path d="M292.235 214.959C287.021 213.391 281.806 211.79 276.533 210.432C275.919 210.275 275.685 211.169 276.273 211.373C281.419 213.166 286.65 214.727 291.862 216.311C292.726 216.575 293.098 215.219 292.235 214.959Z" fill="#FBC02D"/>
    <path d="M277.54 204.267C277.492 203.914 276.968 203.639 276.771 204.059C276.29 205.085 276.23 206.259 276.062 207.371C275.89 208.504 275.695 209.643 275.608 210.787C275.562 211.371 276.496 211.491 276.628 210.924C276.894 209.776 277.051 208.597 277.23 207.432C277.391 206.397 277.68 205.31 277.54 204.267Z" fill="#FBC02D"/>
    <path d="M293.166 205.83C292.117 208.802 291.634 212.204 291.157 215.317C291.047 216.026 292.074 216.353 292.261 215.622C293.048 212.525 293.938 209.155 294.134 205.961C294.171 205.379 293.343 205.334 293.166 205.83Z" fill="#FBC02D"/>
    <defs>
        <linearGradient id="paint0_linear" x1="183.34" y1="237.034" x2="187.579" y2="333.041" gradientUnits="userSpaceOnUse">
            <stop stop-color="#64B5F6"/>
            <stop offset="1" stop-color="#90D9D2"/>
        </linearGradient>
        <linearGradient id="paint1_linear" x1="181.869" y1="203.164" x2="184.39" y2="260.264" gradientUnits="userSpaceOnUse">
            <stop stop-color="#64B5F6"/>
            <stop offset="1" stop-color="#90D9D2"/>
        </linearGradient>
        <linearGradient id="paint2_linear" x1="186.749" y1="142.319" x2="190.023" y2="216.463" gradientUnits="userSpaceOnUse">
            <stop stop-color="#64B5F6"/>
            <stop offset="1" stop-color="#90D9D2"/>
        </linearGradient>
        <linearGradient id="paint3_linear" x1="183.133" y1="103.827" x2="186.334" y2="176.312" gradientUnits="userSpaceOnUse">
            <stop stop-color="#64B5F6"/>
            <stop offset="1" stop-color="#90D9D2"/>
        </linearGradient>
        <linearGradient id="paint4_linear" x1="208.509" y1="37.7075" x2="212.408" y2="126.015" gradientUnits="userSpaceOnUse">
            <stop stop-color="#64B5F6"/>
            <stop offset="1" stop-color="#90D9D2"/>
        </linearGradient>
        <linearGradient id="paint5_linear" x1="258.76" y1="179.282" x2="316.397" y2="179.282" gradientUnits="userSpaceOnUse">
            <stop stop-color="#26A69A"/>
            <stop offset="1" stop-color="#267C9A"/>
        </linearGradient>
        <linearGradient id="paint6_linear" x1="84.5603" y1="180.878" x2="135.085" y2="153.143" gradientUnits="userSpaceOnUse">
            <stop stop-color="#26A69A"/>
            <stop offset="1" stop-color="#267C9A"/>
        </linearGradient>
        <linearGradient id="paint7_linear" x1="75.875" y1="232.64" x2="126.4" y2="204.905" gradientUnits="userSpaceOnUse">
            <stop stop-color="#26A69A"/>
            <stop offset="1" stop-color="#267C9A"/>
        </linearGradient>
        <linearGradient id="paint8_linear" x1="62.1287" y1="289.002" x2="105.255" y2="232.498" gradientUnits="userSpaceOnUse">
            <stop stop-color="#26A69A"/>
            <stop offset="1" stop-color="#267C9A"/>
        </linearGradient>
        <linearGradient id="paint9_linear" x1="261.182" y1="243.82" x2="336.749" y2="243.82" gradientUnits="userSpaceOnUse">
            <stop stop-color="#26A69A"/>
            <stop offset="1" stop-color="#267C9A"/>
        </linearGradient>
        <linearGradient id="paint10_linear" x1="66.5406" y1="213.713" x2="62.1847" y2="333.138" gradientUnits="userSpaceOnUse">
            <stop stop-color="#1E88E5"/>
            <stop offset="0.0378788" stop-color="#1E88E5"/>
            <stop offset="1" stop-color="#8E88E5"/>
        </linearGradient>
        <linearGradient id="paint11_linear" x1="52.8832" y1="304.952" x2="60.506" y2="200.774" gradientUnits="userSpaceOnUse">
            <stop stop-color="#1E88E5"/>
            <stop offset="0.0378788" stop-color="#1E88E5"/>
            <stop offset="1" stop-color="#8E88E5"/>
        </linearGradient>
        <linearGradient id="paint12_linear" x1="63.5461" y1="163.244" x2="46.3631" y2="200.792" gradientUnits="userSpaceOnUse">
            <stop stop-color="#FFB74D"/>
            <stop offset="0.00757576" stop-color="#FFB74D"/>
            <stop offset="1" stop-color="#FFA14D"/>
        </linearGradient>
        <linearGradient id="paint13_linear" x1="298.965" y1="302.716" x2="298.965" y2="274.987" gradientUnits="userSpaceOnUse">
            <stop stop-color="#616161"/>
            <stop offset="0.00757576" stop-color="#616161"/>
            <stop offset="1" stop-color="#614761"/>
        </linearGradient>
        <linearGradient id="paint14_linear" x1="283.957" y1="192.262" x2="293.185" y2="282.949" gradientUnits="userSpaceOnUse">
            <stop stop-color="#FFEE58"/>
            <stop offset="0.00757576" stop-color="#FFEE58"/>
            <stop offset="1" stop-color="#FFA14D"/>
        </linearGradient>
        <linearGradient id="paint15_linear" x1="278.442" y1="255.364" x2="277.169" y2="305.004" gradientUnits="userSpaceOnUse">
            <stop stop-color="#616161"/>
            <stop offset="0.00757576" stop-color="#616161"/>
            <stop offset="1" stop-color="#614761"/>
        </linearGradient>
    </defs>
</svg>
