<svg xmlns="http://www.w3.org/2000/svg" xmlns:xlink="http://www.w3.org/1999/xlink" viewBox="0 0 1405.28 972.27"><defs><style>.cls-1{mask:url(#mask);}.cls-13,.cls-130,.cls-2{mix-blend-mode:multiply;}.cls-2{fill:url(#linear-gradient);}.cls-3{fill:none;}.cls-4{isolation:isolate;}.cls-5{clip-path:url(#clip-path);}.cls-6{opacity:0.27;fill:url(#linear-gradient-2);}.cls-7{opacity:0.23;fill:url(#linear-gradient-3);}.cls-8{opacity:0.28;fill:url(#linear-gradient-4);}.cls-9{mask:url(#mask-2);}.cls-10{opacity:0.44;fill:url(#linear-gradient-5);}.cls-11{fill:url(#linear-gradient-6);}.cls-12{fill:#fff;}.cls-13{opacity:0.74;fill:url(#linear-gradient-7);}.cls-14{fill:url(#linear-gradient-8);}.cls-15{fill:url(#linear-gradient-9);}.cls-16{fill:url(#linear-gradient-10);}.cls-17{fill:url(#linear-gradient-11);}.cls-18{fill:url(#linear-gradient-12);}.cls-19{fill:url(#linear-gradient-13);}.cls-20{fill:url(#linear-gradient-14);}.cls-21{fill:url(#linear-gradient-15);}.cls-22{fill:url(#linear-gradient-16);}.cls-23{fill:url(#linear-gradient-17);}.cls-24{fill:url(#linear-gradient-18);}.cls-25{fill:url(#linear-gradient-19);}.cls-26{fill:url(#linear-gradient-20);}.cls-27{fill:url(#linear-gradient-21);}.cls-28{fill:url(#linear-gradient-22);}.cls-29{fill:url(#linear-gradient-23);}.cls-30{fill:url(#linear-gradient-24);}.cls-31{fill:url(#linear-gradient-25);}.cls-32{fill:url(#linear-gradient-26);}.cls-33{fill:url(#linear-gradient-27);}.cls-34{fill:url(#linear-gradient-28);}.cls-35{fill:url(#linear-gradient-29);}.cls-36{fill:url(#linear-gradient-30);}.cls-37{fill:url(#linear-gradient-31);}.cls-38{fill:url(#linear-gradient-32);}.cls-39{fill:url(#linear-gradient-33);}.cls-40{fill:url(#linear-gradient-34);}.cls-41{fill:url(#linear-gradient-35);}.cls-42{fill:url(#linear-gradient-36);}.cls-43{fill:url(#linear-gradient-37);}.cls-44{fill:url(#linear-gradient-38);}.cls-45{fill:url(#linear-gradient-39);}.cls-46{fill:url(#linear-gradient-40);}.cls-47{fill:url(#linear-gradient-42);}.cls-48{fill:url(#linear-gradient-43);}.cls-49{fill:url(#linear-gradient-44);}.cls-50{fill:url(#linear-gradient-45);}.cls-51{fill:url(#linear-gradient-46);}.cls-52{fill:url(#linear-gradient-47);}.cls-53{fill:url(#linear-gradient-48);}.cls-54{fill:url(#linear-gradient-49);}.cls-55{fill:url(#linear-gradient-50);}.cls-56{fill:url(#linear-gradient-51);}.cls-57{fill:url(#linear-gradient-52);}.cls-58{fill:url(#linear-gradient-53);}.cls-59{fill:url(#linear-gradient-54);}.cls-60{fill:url(#linear-gradient-55);}.cls-61{fill:url(#linear-gradient-56);}.cls-62{fill:url(#linear-gradient-57);}.cls-63{fill:url(#linear-gradient-58);}.cls-64{fill:url(#linear-gradient-59);}.cls-65{fill:url(#linear-gradient-60);}.cls-66{fill:url(#linear-gradient-61);}.cls-67{fill:url(#linear-gradient-62);}.cls-68{fill:url(#linear-gradient-63);}.cls-69{fill:url(#linear-gradient-64);}.cls-70{fill:url(#linear-gradient-65);}.cls-71{fill:url(#linear-gradient-66);}.cls-72{fill:url(#linear-gradient-67);}.cls-73{fill:url(#linear-gradient-68);}.cls-74{fill:url(#linear-gradient-69);}.cls-75{fill:url(#linear-gradient-70);}.cls-76{fill:url(#linear-gradient-71);}.cls-77{fill:url(#linear-gradient-72);}.cls-78{fill:url(#linear-gradient-73);}.cls-79{fill:url(#linear-gradient-74);}.cls-80{fill:url(#linear-gradient-75);}.cls-81{fill:url(#linear-gradient-76);}.cls-82{fill:url(#linear-gradient-77);}.cls-83{fill:url(#linear-gradient-78);}.cls-84{fill:url(#linear-gradient-79);}.cls-85{fill:url(#linear-gradient-80);}.cls-86{fill:url(#linear-gradient-81);}.cls-87{fill:url(#linear-gradient-82);}.cls-88{fill:url(#linear-gradient-83);}.cls-89{fill:url(#linear-gradient-84);}.cls-90{fill:url(#linear-gradient-85);}.cls-91{fill:url(#linear-gradient-86);}.cls-92{fill:url(#linear-gradient-87);}.cls-93{fill:url(#linear-gradient-88);}.cls-94{fill:url(#linear-gradient-89);}.cls-95{fill:url(#linear-gradient-90);}.cls-96{fill:url(#linear-gradient-91);}.cls-97{fill:url(#linear-gradient-92);}.cls-98{fill:url(#linear-gradient-93);}.cls-99{fill:url(#linear-gradient-94);}.cls-100{fill:url(#linear-gradient-95);}.cls-101{fill:url(#linear-gradient-96);}.cls-102{fill:url(#linear-gradient-97);}.cls-103{fill:url(#linear-gradient-98);}.cls-104{fill:url(#linear-gradient-99);}.cls-105{fill:url(#linear-gradient-100);}.cls-106{fill:url(#linear-gradient-101);}.cls-107{fill:url(#linear-gradient-102);}.cls-108{fill:url(#linear-gradient-103);}.cls-109{fill:url(#linear-gradient-104);}.cls-110{fill:url(#linear-gradient-105);}.cls-111{fill:url(#linear-gradient-106);}.cls-112{fill:url(#linear-gradient-107);}.cls-113{fill:url(#linear-gradient-108);}.cls-114{fill:url(#linear-gradient-109);}.cls-115{fill:url(#linear-gradient-110);}.cls-116{fill:#fbd6cc;}.cls-117{fill:url(#linear-gradient-111);}.cls-118{fill:url(#linear-gradient-112);}.cls-119{fill:url(#linear-gradient-113);}.cls-120{fill:url(#linear-gradient-114);}.cls-121{fill:#8bc53f;}.cls-122{fill:url(#linear-gradient-115);}.cls-123{fill:url(#linear-gradient-116);}.cls-124{fill:url(#linear-gradient-117);}.cls-125{fill:url(#linear-gradient-118);}.cls-126{fill:url(#linear-gradient-119);}.cls-127{fill:url(#linear-gradient-120);}.cls-128{fill:url(#linear-gradient-121);}.cls-129{fill:url(#linear-gradient-122);}.cls-131{fill:url(#linear-gradient-123);}.cls-132{filter:url(#luminosity-noclip-2);}.cls-133{filter:url(#luminosity-noclip);}</style><filter id="luminosity-noclip" x="57.17" y="-8715.4" width="1258.39" height="32766" filterUnits="userSpaceOnUse" color-interpolation-filters="sRGB"><feFlood flood-color="#fff" result="bg"/><feBlend in="SourceGraphic" in2="bg"/></filter><mask id="mask" x="57.17" y="-8715.4" width="1258.39" height="32766" maskUnits="userSpaceOnUse"><g class="cls-133"/></mask><linearGradient id="linear-gradient" x1="763.95" y1="247.84" x2="718.71" y2="883.55" gradientTransform="matrix(-1, 0, 0, 1, 1412.89, 0)" gradientUnits="userSpaceOnUse"><stop offset="0.02" stop-color="#fff"/><stop offset="0.99" stop-color="#6b6b6b"/></linearGradient><clipPath id="clip-path" transform="translate(-1 -21.15)"><path class="cls-3" d="M.21,1.17c-.48-6.61,0,526.3,0,526.3C33,564.16,79.73,617.22,89.8,625.19l4-43.27c.43-4.63,1.17-9.85,4.95-12.55,6.28-4.5,14.73,1.54,19.35,7.73a94.35,94.35,0,0,1,18.55,58.55A55.26,55.26,0,0,1,157.48,608c7.3,10.84,3.83,25.5-1.22,37.56s-11.57,24.54-9.54,37.46S164.87,707,175,698.76q-3.6-23.52-7.18-47.06c35.59,21.94,57.32,64.35,55,106a81.91,81.91,0,0,1,35.63-57.57,267.35,267.35,0,0,1,2.4,116.36q10.25-27.87,20.5-55.76c3-8.06,8.73-17.82,17.15-16.12,7.11,1.43,9.76,10.15,10.26,17.38a103.23,103.23,0,0,1-16,62.44l27.75-24.15a55.35,55.35,0,0,1-12.17,49.29,51.26,51.26,0,0,1,41.08,21.24l-7.17-41.94A187.59,187.59,0,0,1,379,882.5a83.27,83.27,0,0,1-2.48-48.58,84.7,84.7,0,0,1,19.94,57.42c0-29.86,17.69-59.07,44.16-72.89a153.72,153.72,0,0,0-9.95,72.68c4.34-30.88,25-59,53.21-72.31A133.64,133.64,0,0,0,449,894.05c6.65-12.4,26.18-15.08,35.92-4.91A51.41,51.41,0,0,1,489,857.25a27.42,27.42,0,0,1,9.36,20.87c5.24-8.16,19.57-7.54,24.08,1a28.69,28.69,0,0,1,26-17.78l-7.71,21.17c11.46-7.77,29.08-4,36.31,7.84,10.15-7.91,27.44-3,31.89,9.1a26.26,26.26,0,0,1,4.33-24.43,23.6,23.6,0,0,1,11.08,16.68c4.81-12,20.05-18.45,32-13.65q.17,9.74.34,19.47l45.76,4.6-10.26-23.5a66.16,66.16,0,0,1,37.2,25.86,78.13,78.13,0,0,1,5.07-63,49.17,49.17,0,0,1,13.53,45.77A37.1,37.1,0,0,1,766.84,865a30.15,30.15,0,0,1-5,21.35,92.26,92.26,0,0,1,35.86,15.31,35.52,35.52,0,0,1,8.35-23,55.08,55.08,0,0,1,14.59,25.67q9.57-14.4,19.15-28.78a42.81,42.81,0,0,1,2,29c13.82-10.27,35.52-7.65,46.5,5.61a46.49,46.49,0,0,1,.33-37.87l35.81,21.51a56.86,56.86,0,0,1-5.77-33.42,65.82,65.82,0,0,1,18.26,37.42,55.2,55.2,0,0,1,29.86-32.09,31.91,31.91,0,0,1,2.5,23.07,78.45,78.45,0,0,1,44.34-7.05,31.92,31.92,0,0,1-8.88-28.2l35.91,24.95a53,53,0,0,1-4.3-48.73,72.25,72.25,0,0,1,30.41,53.57l33.37-32.17a48,48,0,0,1-2.38,31.2,61.14,61.14,0,0,1,60.1,7.55q-13.35-17.27-26.72-34.52a173.33,173.33,0,0,1,60.14,32.27A157.77,157.77,0,0,1,1146,825a187.18,187.18,0,0,1,72.84,48.7,154.33,154.33,0,0,1-41.67-84.77A150.82,150.82,0,0,1,1245,847.87a362.29,362.29,0,0,1-41.73-97.24,137.72,137.72,0,0,1,55,63.56,158.87,158.87,0,0,1-6.28-83.46,140.44,140.44,0,0,1,27.42,60.64A186.28,186.28,0,0,1,1290.07,724a185.77,185.77,0,0,1,16.45,66,262,262,0,0,1,45.18-145.15,325.11,325.11,0,0,1-23.9,143c20.37-47.36,42.53-97,84.09-127.5l1-660.35Z"/></clipPath><linearGradient id="linear-gradient-2" x1="728.96" y1="66.35" x2="741.01" y2="745.17" gradientTransform="matrix(-1, 0, 0, 1, 1412.89, 0)" gradientUnits="userSpaceOnUse"><stop offset="0" stop-color="#25a9e0"/><stop offset="0.99" stop-color="#8bc53f"/></linearGradient><linearGradient id="linear-gradient-3" x1="72.74" y1="533.73" x2="1404.84" y2="533.73" xlink:href="#linear-gradient-2"/><linearGradient id="linear-gradient-4" x1="781.86" y1="-61" x2="720.94" y2="794.97" xlink:href="#linear-gradient-2"/><filter id="luminosity-noclip-2" x="57.17" y="485.47" width="1258.39" height="484.19" filterUnits="userSpaceOnUse" color-interpolation-filters="sRGB"><feFlood flood-color="#fff" result="bg"/><feBlend in="SourceGraphic" in2="bg"/></filter><mask id="mask-2" x="56.17" y="464.32" width="1258.39" height="484.19" maskUnits="userSpaceOnUse"><g class="cls-132"><g transform="translate(-1 -21.15)"><g class="cls-1"><path class="cls-2" d="M1315.56,903.53s-6.43-346.21-218.94-273.86-449,156.45-591.7,49.5S203.8,436.61,107.13,503.07,83.85,799.76,83.85,799.76L135.18,934.5l1083.71,35.16Z"/></g></g></g></mask><linearGradient id="linear-gradient-5" x1="763.95" y1="247.84" x2="718.71" y2="883.55" gradientTransform="matrix(-1, 0, 0, 1, 1412.89, 0)" gradientUnits="userSpaceOnUse"><stop offset="0.02" stop-color="#fff100"/><stop offset="0.99" stop-color="#206468"/></linearGradient><linearGradient id="linear-gradient-6" x1="922.41" y1="612.62" x2="917.46" y2="389.54" gradientTransform="matrix(1.09, -0.1, 0.09, 1, -869.9, 112.84)" gradientUnits="userSpaceOnUse"><stop offset="0" stop-color="#1b75bb"/><stop offset="0.97" stop-color="#70be44"/></linearGradient><linearGradient id="linear-gradient-7" x1="153.62" y1="512.77" x2="141.28" y2="793.17" xlink:href="#linear-gradient-5"/><linearGradient id="linear-gradient-8" x1="212.59" y1="631.16" x2="208.13" y2="733.62" gradientTransform="matrix(-1, 0.03, 0.02, 0.92, 1399.34, 44.69)" gradientUnits="userSpaceOnUse"><stop offset="0" stop-color="#d6de23"/><stop offset="1" stop-color="#29b473"/></linearGradient><linearGradient id="linear-gradient-9" x1="200.17" y1="709.1" x2="199.54" y2="794.19" xlink:href="#linear-gradient-5"/><linearGradient id="linear-gradient-10" x1="90.9" y1="442.41" x2="92.11" y2="642.61" gradientTransform="matrix(-0.99, -0.12, -0.11, 0.91, 1476.41, 108.79)" xlink:href="#linear-gradient-8"/><linearGradient id="linear-gradient-11" x1="88.38" y1="585.73" x2="87.62" y2="687.69" gradientTransform="matrix(-0.99, -0.15, -0.15, 0.99, 1496.25, 66.91)" xlink:href="#linear-gradient-5"/><linearGradient id="linear-gradient-12" x1="712.9" y1="355.73" x2="717.96" y2="601.79" gradientTransform="matrix(1, 0.06, -0.06, 0.92, 583.86, 29.29)" xlink:href="#linear-gradient-8"/><linearGradient id="linear-gradient-13" x1="712.57" y1="601.11" x2="711.52" y2="743.52" gradientTransform="translate(573.22 -15.07) rotate(2.03)" xlink:href="#linear-gradient-5"/><linearGradient id="linear-gradient-14" x1="344.4" y1="377.45" x2="320.09" y2="711.3" gradientTransform="matrix(-1, 0, 0, 1, 1412.89, 0)" xlink:href="#linear-gradient-8"/><linearGradient id="linear-gradient-15" x1="1284.96" y1="612.18" x2="1277.95" y2="296.82" gradientTransform="matrix(-1.09, -0.02, -0.02, 1, 1516.18, 18.65)" xlink:href="#linear-gradient-2"/><linearGradient id="linear-gradient-16" x1="705.62" y1="262.14" x2="707.41" y2="184.23" gradientTransform="matrix(-1, 0, 0, 1, 1412.89, 0)" gradientUnits="userSpaceOnUse"><stop offset="0.01" stop-color="#2e3191"/><stop offset="0.12" stop-color="#443f88"/><stop offset="0.99" stop-color="#faaf40"/></linearGradient><linearGradient id="linear-gradient-17" x1="708.43" y1="218.9" x2="707.31" y2="162.03" xlink:href="#linear-gradient-16"/><linearGradient id="linear-gradient-18" x1="707.36" y1="256.7" x2="707.36" y2="218.42" gradientTransform="matrix(1, 0, 0, -1, -1.84, 442.67)" xlink:href="#linear-gradient-16"/><linearGradient id="linear-gradient-19" x1="706.75" y1="258.01" x2="707.43" y2="199.13" xlink:href="#linear-gradient-16"/><linearGradient id="linear-gradient-20" x1="707.98" y1="207.5" x2="707.31" y2="182.87" xlink:href="#linear-gradient-16"/><linearGradient id="linear-gradient-21" x1="679.11" y1="498.28" x2="658.3" y2="324.43" gradientTransform="matrix(-1, 0, 0, 1, 1412.89, 0)" gradientUnits="userSpaceOnUse"><stop offset="0.01" stop-color="#2e3191"/><stop offset="0.19" stop-color="#62517c"/><stop offset="0.39" stop-color="#987267"/><stop offset="0.58" stop-color="#c28d56"/><stop offset="0.74" stop-color="#e19f4a"/><stop offset="0.89" stop-color="#f3ab43"/><stop offset="0.99" stop-color="#faaf40"/></linearGradient><linearGradient id="linear-gradient-22" x1="827.9" y1="571.73" x2="752" y2="213.02" xlink:href="#linear-gradient-21"/><linearGradient id="linear-gradient-23" x1="559.87" y1="556.1" x2="630.66" y2="226.95" gradientTransform="matrix(-1, 0, 0, 1, 1412.89, 0)" gradientUnits="userSpaceOnUse"><stop offset="0.11" stop-color="#ec297b"/><stop offset="0.56" stop-color="#ffd140"/><stop offset="1" stop-color="#faaf40"/></linearGradient><linearGradient id="linear-gradient-24" x1="742.52" y1="519.15" x2="702.12" y2="268.17" xlink:href="#linear-gradient-21"/><linearGradient id="linear-gradient-25" x1="568.08" y1="552.19" x2="673.37" y2="182.35" xlink:href="#linear-gradient-23"/><linearGradient id="linear-gradient-26" x1="868.57" y1="551.63" x2="752.26" y2="140.27" xlink:href="#linear-gradient-21"/><linearGradient id="linear-gradient-27" x1="497.24" y1="472.18" x2="907.97" y2="472.18" gradientTransform="matrix(-1, 0, 0, 1, 1412.89, 0)" gradientUnits="userSpaceOnUse"><stop offset="0" stop-color="#ec297b"/><stop offset="1" stop-color="#262261"/></linearGradient><linearGradient id="linear-gradient-28" x1="701.23" y1="234.1" x2="702.87" y2="610.42" gradientTransform="matrix(-1, 0, 0, 1, 1412.89, 0)" gradientUnits="userSpaceOnUse"><stop offset="0" stop-color="#ec297b"/><stop offset="0.98" stop-color="#25a9e0"/></linearGradient><linearGradient id="linear-gradient-29" x1="703.94" y1="377.97" x2="702.18" y2="606.69" xlink:href="#linear-gradient-28"/><linearGradient id="linear-gradient-30" x1="839.88" y1="638.52" x2="670.89" y2="432.64" xlink:href="#linear-gradient-16"/><linearGradient id="linear-gradient-31" x1="557.58" y1="510.53" x2="628.41" y2="522.33" xlink:href="#linear-gradient-16"/><linearGradient id="linear-gradient-32" x1="621.12" y1="503.7" x2="701.89" y2="517.16" xlink:href="#linear-gradient-16"/><linearGradient id="linear-gradient-33" x1="703.69" y1="502.59" x2="816.62" y2="521.41" xlink:href="#linear-gradient-16"/><linearGradient id="linear-gradient-34" x1="510.45" y1="522.19" x2="564.05" y2="531.12" xlink:href="#linear-gradient-16"/><linearGradient id="linear-gradient-35" x1="497.24" y1="581.48" x2="907.97" y2="581.48" xlink:href="#linear-gradient-27"/><linearGradient id="linear-gradient-36" x1="1037.98" y1="548.75" x2="488.76" y2="671.49" gradientTransform="matrix(-1, 0, 0, 1, 1411.89, -21.15)" xlink:href="#linear-gradient-28"/><linearGradient id="linear-gradient-37" x1="1142.01" y1="559.66" x2="1036.33" y2="764.08" gradientTransform="matrix(-1, 0, 0, 1, 1411.89, -21.15)" xlink:href="#linear-gradient-28"/><linearGradient id="linear-gradient-38" x1="512.38" y1="480.31" x2="421.43" y2="652.69" gradientTransform="matrix(-1, 0, 0, 1, 1411.89, -21.15)" xlink:href="#linear-gradient-28"/><linearGradient id="linear-gradient-39" x1="261.9" y1="471.13" x2="252.93" y2="661.42" gradientTransform="matrix(-1, 0, 0, 1, 1411.89, -21.15)" xlink:href="#linear-gradient-28"/><linearGradient id="linear-gradient-40" x1="250.42" y1="489.33" x2="231.75" y2="778.2" gradientTransform="matrix(-1, 0, 0, 1, 1411.89, -21.15)" xlink:href="#linear-gradient-28"/><linearGradient id="linear-gradient-42" x1="267.07" y1="463.6" x2="248.39" y2="752.46" gradientTransform="matrix(-1, 0, 0, 1, 1411.89, -21.15)" xlink:href="#linear-gradient-28"/><linearGradient id="linear-gradient-43" x1="265.34" y1="490.3" x2="246.66" y2="779.16" gradientTransform="matrix(-1, 0, 0, 1, 1411.89, -21.15)" xlink:href="#linear-gradient-28"/><linearGradient id="linear-gradient-44" x1="1119" y1="518.68" x2="1100.32" y2="807.54" gradientTransform="matrix(-1, 0, 0, 1, 1411.89, -21.15)" xlink:href="#linear-gradient-28"/><linearGradient id="linear-gradient-45" x1="1117.27" y1="545.38" x2="1098.6" y2="834.24" gradientTransform="matrix(-1, 0, 0, 1, 1411.89, -21.15)" xlink:href="#linear-gradient-28"/><linearGradient id="linear-gradient-46" x1="856.03" y1="501.68" x2="837.35" y2="790.54" gradientTransform="matrix(-1, 0, 0, 1, 1411.89, -21.15)" xlink:href="#linear-gradient-28"/><linearGradient id="linear-gradient-47" x1="854.3" y1="528.38" x2="835.63" y2="817.24" gradientTransform="matrix(-1, 0, 0, 1, 1411.89, -21.15)" xlink:href="#linear-gradient-28"/><linearGradient id="linear-gradient-48" x1="461.37" y1="476.16" x2="442.7" y2="765.03" gradientTransform="matrix(-1, 0, 0, 1, 1411.89, -21.15)" xlink:href="#linear-gradient-28"/><linearGradient id="linear-gradient-49" x1="459.65" y1="502.86" x2="440.97" y2="791.72" gradientTransform="matrix(-1, 0, 0, 1, 1411.89, -21.15)" xlink:href="#linear-gradient-28"/><linearGradient id="linear-gradient-50" x1="489.2" y1="498.62" x2="453.78" y2="773.58" gradientTransform="matrix(-1, 0, 0, 1, 1411.89, -21.15)" xlink:href="#linear-gradient-28"/><linearGradient id="linear-gradient-51" x1="1176.99" y1="716.3" x2="650.29" y2="969.67" gradientTransform="matrix(-1, 0, 0, 1, 1411.89, -21.15)" xlink:href="#linear-gradient-28"/><linearGradient id="linear-gradient-52" x1="1046.45" y1="450.5" x2="812.7" y2="826.5" gradientTransform="matrix(-1, 0, 0, 1, 1411.89, -21.15)" xlink:href="#linear-gradient-28"/><linearGradient id="linear-gradient-53" x1="173.94" y1="949.85" x2="276.56" y2="730.77" gradientTransform="matrix(-1, 0, 0, 1, 1411.89, -21.15)" xlink:href="#linear-gradient-28"/><linearGradient id="linear-gradient-54" x1="342.56" y1="898.85" x2="270.58" y2="658.07" xlink:href="#linear-gradient-27"/><linearGradient id="linear-gradient-55" x1="381.49" y1="899.81" x2="307.38" y2="651.91" xlink:href="#linear-gradient-27"/><linearGradient id="linear-gradient-56" x1="427.69" y1="902.25" x2="351.06" y2="645.9" xlink:href="#linear-gradient-27"/><linearGradient id="linear-gradient-57" x1="484.33" y1="904.38" x2="405.84" y2="641.81" xlink:href="#linear-gradient-27"/><linearGradient id="linear-gradient-58" x1="546.12" y1="906.78" x2="464.37" y2="633.32" xlink:href="#linear-gradient-27"/><linearGradient id="linear-gradient-59" x1="614.85" y1="909.81" x2="530.96" y2="629.17" xlink:href="#linear-gradient-27"/><linearGradient id="linear-gradient-60" x1="1069.13" y1="901.47" x2="996.03" y2="656.92" xlink:href="#linear-gradient-27"/><linearGradient id="linear-gradient-61" x1="1001.19" y1="905.18" x2="924.23" y2="647.72" xlink:href="#linear-gradient-27"/><linearGradient id="linear-gradient-62" x1="917.42" y1="908.41" x2="837.62" y2="641.46" xlink:href="#linear-gradient-27"/><linearGradient id="linear-gradient-63" x1="824.94" y1="911.5" x2="742.24" y2="634.85" xlink:href="#linear-gradient-27"/><linearGradient id="linear-gradient-64" x1="723.95" y1="915.03" x2="637.95" y2="627.32" xlink:href="#linear-gradient-27"/><linearGradient id="linear-gradient-65" x1="1165.51" y1="897.4" x2="1099.04" y2="675.06" xlink:href="#linear-gradient-27"/><linearGradient id="linear-gradient-66" x1="1128.51" y1="900.59" x2="1056.83" y2="660.82" xlink:href="#linear-gradient-27"/><linearGradient id="linear-gradient-67" x1="271.62" y1="890.56" x2="214.77" y2="700.36" xlink:href="#linear-gradient-27"/><linearGradient id="linear-gradient-68" x1="295.15" y1="893.75" x2="232.63" y2="684.6" xlink:href="#linear-gradient-27"/><linearGradient id="linear-gradient-69" x1="297.06" y1="597.52" x2="288.22" y2="722.78" gradientTransform="matrix(-1, 0, 0, 1, 1411.89, -21.15)" xlink:href="#linear-gradient-6"/><linearGradient id="linear-gradient-70" x1="335.06" y1="600.2" x2="326.22" y2="725.46" gradientTransform="matrix(-1, 0, 0, 1, 1411.89, -21.15)" xlink:href="#linear-gradient-6"/><linearGradient id="linear-gradient-71" x1="375.54" y1="603.06" x2="366.7" y2="728.32" gradientTransform="matrix(-1, 0, 0, 1, 1411.89, -21.15)" xlink:href="#linear-gradient-6"/><linearGradient id="linear-gradient-72" x1="423.97" y1="606.48" x2="415.13" y2="731.74" gradientTransform="matrix(-1, 0, 0, 1, 1411.89, -21.15)" xlink:href="#linear-gradient-6"/><linearGradient id="linear-gradient-73" x1="483.04" y1="610.65" x2="474.2" y2="735.9" gradientTransform="matrix(-1, 0, 0, 1, 1411.89, -21.15)" xlink:href="#linear-gradient-6"/><linearGradient id="linear-gradient-74" x1="546.55" y1="615.13" x2="537.71" y2="740.39" gradientTransform="matrix(-1, 0, 0, 1, 1411.89, -21.15)" xlink:href="#linear-gradient-6"/><linearGradient id="linear-gradient-75" x1="621.12" y1="620.39" x2="612.27" y2="745.65" gradientTransform="matrix(-1, 0, 0, 1, 1411.89, -21.15)" xlink:href="#linear-gradient-6"/><linearGradient id="linear-gradient-76" x1="749.01" y1="592.24" x2="727.56" y2="896.19" gradientTransform="matrix(-1, 0, 0, 1, 1411.89, -21.15)" xlink:href="#linear-gradient-6"/><linearGradient id="linear-gradient-77" x1="846.59" y1="592.24" x2="825.13" y2="896.19" gradientTransform="matrix(-1, 0, 0, 1, 1411.89, -21.15)" xlink:href="#linear-gradient-6"/><linearGradient id="linear-gradient-78" x1="937.68" y1="592.24" x2="916.23" y2="896.19" gradientTransform="matrix(-1, 0, 0, 1, 1411.89, -21.15)" xlink:href="#linear-gradient-6"/><linearGradient id="linear-gradient-79" x1="1011.85" y1="592.24" x2="990.39" y2="896.19" gradientTransform="matrix(-1, 0, 0, 1, 1411.89, -21.15)" xlink:href="#linear-gradient-6"/><linearGradient id="linear-gradient-80" x1="1072.07" y1="592.24" x2="1050.62" y2="896.19" gradientTransform="matrix(-1, 0, 0, 1, 1411.89, -21.15)" xlink:href="#linear-gradient-6"/><linearGradient id="linear-gradient-81" x1="1086.37" y1="615.88" x2="1068.09" y2="874.86" gradientTransform="matrix(-1, 0, 0, 1, 1411.89, -21.15)" xlink:href="#linear-gradient-6"/><linearGradient id="linear-gradient-82" x1="1126.88" y1="613.9" x2="1108.6" y2="872.88" gradientTransform="matrix(-1, 0, 0, 1, 1412.89, 0)" xlink:href="#linear-gradient-6"/><linearGradient id="linear-gradient-83" x1="1160.95" y1="611.38" x2="1142.67" y2="870.36" gradientTransform="matrix(-1, 0, 0, 1, 1412.89, 0)" xlink:href="#linear-gradient-6"/><linearGradient id="linear-gradient-84" x1="274.34" y1="651.27" x2="273.85" y2="681.41" gradientTransform="matrix(-1, 0, 0, 1, 1411.89, -21.15)" xlink:href="#linear-gradient-6"/><linearGradient id="linear-gradient-85" x1="253.33" y1="684.75" x2="252.91" y2="710.14" gradientTransform="matrix(-1, 0, 0, 1, 1411.89, -21.15)" xlink:href="#linear-gradient-6"/><linearGradient id="linear-gradient-86" x1="233.05" y1="690.76" x2="232.64" y2="715.78" gradientTransform="matrix(-1, 0, 0, 1, 1411.89, -21.15)" xlink:href="#linear-gradient-6"/><linearGradient id="linear-gradient-87" x1="274.24" y1="635.35" x2="208.27" y2="736.49" gradientTransform="matrix(-1, 0, 0, 1, 1411.89, -21.15)" xlink:href="#linear-gradient-8"/><linearGradient id="linear-gradient-88" x1="1163.4" y1="685.02" x2="1087.66" y2="630.42" gradientTransform="matrix(-1, 0, 0, 1, 1411.89, -21.15)" xlink:href="#linear-gradient-6"/><linearGradient id="linear-gradient-89" x1="1149.77" y1="504.33" x2="705.9" y2="671.66" gradientTransform="matrix(-1, 0, 0, 1, 1411.89, -21.15)" xlink:href="#linear-gradient-6"/><linearGradient id="linear-gradient-90" x1="229.62" y1="621.61" x2="1150.87" y2="621.61" gradientTransform="matrix(-1, 0, 0, 1, 1411.89, -21.15)" xlink:href="#linear-gradient-8"/><linearGradient id="linear-gradient-91" x1="470.68" y1="971.44" x2="432.03" y2="751.86" xlink:href="#linear-gradient-16"/><linearGradient id="linear-gradient-92" x1="683.19" y1="765.42" x2="493.12" y2="855.15" gradientTransform="matrix(-1, 0, 0, 1, 1411.89, -21.15)" gradientUnits="userSpaceOnUse"><stop offset="0" stop-color="#ec297b"/><stop offset="0.99" stop-color="#c1b49a"/></linearGradient><linearGradient id="linear-gradient-93" x1="608.54" y1="866.79" x2="562.86" y2="762.37" xlink:href="#linear-gradient-92"/><linearGradient id="linear-gradient-94" x1="441.84" y1="838.1" x2="446.32" y2="865.69" xlink:href="#linear-gradient-92"/><linearGradient id="linear-gradient-95" x1="799.13" y1="522.28" x2="791.93" y2="845.48" gradientTransform="matrix(-1, 0, 0, 1, 1412.89, 0)" gradientUnits="userSpaceOnUse"><stop offset="0.01" stop-color="#2e3191"/><stop offset="0.23" stop-color="#5e4888"/><stop offset="0.99" stop-color="#faaf40"/></linearGradient><linearGradient id="linear-gradient-96" x1="928.24" y1="525.15" x2="921.04" y2="848.36" xlink:href="#linear-gradient-95"/><linearGradient id="linear-gradient-97" x1="1061.32" y1="491.28" x2="1024.41" y2="718.16" xlink:href="#linear-gradient-95"/><linearGradient id="linear-gradient-98" x1="1169.94" y1="769.47" x2="1276.56" y2="428.56" gradientTransform="matrix(-1, 0, 0, 1, 1411.89, -21.15)" xlink:href="#linear-gradient-95"/><linearGradient id="linear-gradient-99" x1="1028.07" y1="791.67" x2="1027.62" y2="791.74" gradientTransform="matrix(-1, 0, 0, 1, 1412.89, 0)" gradientUnits="userSpaceOnUse"><stop offset="0" stop-color="#ec297b"/><stop offset="1" stop-color="#faaf40"/></linearGradient><linearGradient id="linear-gradient-100" x1="1275.11" y1="597.56" x2="805.67" y2="670.37" xlink:href="#linear-gradient-99"/><linearGradient id="linear-gradient-101" x1="671.77" y1="506.72" x2="1122.77" y2="481.86" gradientTransform="matrix(-1, 0, 0, 1, 1411.89, -21.15)" xlink:href="#linear-gradient-8"/><linearGradient id="linear-gradient-102" x1="1210.48" y1="462.7" x2="1230.19" y2="461.62" gradientTransform="matrix(-1, 0, 0, 1, 1411.89, -21.15)" xlink:href="#linear-gradient-8"/><linearGradient id="linear-gradient-103" x1="1011.52" y1="834.39" x2="992.71" y2="723.41" gradientTransform="matrix(1, 0, 0, -1, -598.42, 1599.51)" xlink:href="#linear-gradient-16"/><linearGradient id="linear-gradient-104" x1="984.85" y1="851.74" x2="965.59" y2="738.14" gradientTransform="matrix(1, 0, 0, -1, -544.79, 1632.58)" xlink:href="#linear-gradient-16"/><linearGradient id="linear-gradient-105" x1="955.41" y1="869.09" x2="935.71" y2="752.88" gradientTransform="matrix(1, 0, 0, -1, -485.64, 1665.64)" xlink:href="#linear-gradient-16"/><linearGradient id="linear-gradient-106" x1="924.38" y1="886.3" x2="904.32" y2="767.93" gradientTransform="matrix(1, 0, 0, -1, -423.36, 1698.71)" xlink:href="#linear-gradient-16"/><linearGradient id="linear-gradient-107" x1="896.8" y1="903.23" x2="876.52" y2="783.59" gradientTransform="matrix(1, 0, 0, -1, -368.06, 1731.78)" xlink:href="#linear-gradient-16"/><linearGradient id="linear-gradient-108" x1="862.51" y1="920.15" x2="842.02" y2="799.26" gradientTransform="matrix(1, 0, 0, -1, -299.35, 1764.84)" xlink:href="#linear-gradient-16"/><linearGradient id="linear-gradient-109" x1="830.3" y1="936.73" x2="809.79" y2="815.71" gradientTransform="matrix(1, 0, 0, -1, -234.92, 1797.91)" xlink:href="#linear-gradient-16"/><linearGradient id="linear-gradient-110" x1="640.89" y1="1071.8" x2="667.53" y2="1229.36" gradientTransform="matrix(-0.44, -0.9, -0.9, 0.44, 1593.32, 814.47)" gradientUnits="userSpaceOnUse"><stop offset="0.02" stop-color="#00a14b"/><stop offset="0.99" stop-color="#f6921e"/></linearGradient><linearGradient id="linear-gradient-111" x1="811.79" y1="1082.99" x2="838.42" y2="1240.55" gradientTransform="matrix(-0.8, -0.6, -0.6, 0.8, 1554.13, 204.77)" xlink:href="#linear-gradient-110"/><linearGradient id="linear-gradient-112" x1="-194.81" y1="663.41" x2="-168.18" y2="820.96" gradientTransform="matrix(-1, -0.06, -0.06, 1, 1166.25, -26.22)" xlink:href="#linear-gradient-110"/><linearGradient id="linear-gradient-113" x1="965.57" y1="1009.83" x2="992.21" y2="1167.38" gradientTransform="matrix(-1, -0.02, -0.02, 1, 1096.4, -484.98)" xlink:href="#linear-gradient-110"/><linearGradient id="linear-gradient-114" x1="896.88" y1="636.33" x2="944.8" y2="614.26" gradientTransform="matrix(0.62, -0.96, -0.84, -0.54, 323.78, 2059.87)" gradientUnits="userSpaceOnUse"><stop offset="0" stop-color="#262261"/><stop offset="0.97" stop-color="#70be44"/></linearGradient><linearGradient id="linear-gradient-115" x1="919" y1="752.96" x2="966.92" y2="730.89" gradientTransform="matrix(0.09, -1.14, -1, -0.07, 978.89, 1938.35)" xlink:href="#linear-gradient-114"/><linearGradient id="linear-gradient-116" x1="1213.54" y1="1023.62" x2="1261.46" y2="1001.55" gradientTransform="matrix(-0.58, -0.99, -0.86, 0.5, 1620.37, 1275.44)" xlink:href="#linear-gradient-114"/><linearGradient id="linear-gradient-117" x1="186.49" y1="516.28" x2="261.41" y2="481.77" gradientTransform="matrix(-0.71, -0.7, -0.7, 0.71, 1670.11, 650.7)" gradientUnits="userSpaceOnUse"><stop offset="0" stop-color="#f6921e"/><stop offset="0.97" stop-color="#70be44"/></linearGradient><linearGradient id="linear-gradient-118" x1="178.31" y1="612.68" x2="248.99" y2="580.13" gradientTransform="matrix(-0.76, -0.45, -0.45, 0.77, 1539.5, 500.55)" xlink:href="#linear-gradient-117"/><linearGradient id="linear-gradient-119" x1="244.03" y1="731.73" x2="331.58" y2="691.42" gradientTransform="matrix(-0.86, -0.19, -0.19, 0.87, 1427.96, 304.23)" xlink:href="#linear-gradient-117"/><linearGradient id="linear-gradient-120" x1="673.78" y1="310.58" x2="555.75" y2="432.31" gradientTransform="matrix(-0.16, -0.99, -0.99, 0.16, 1368.07, 1413.31)" gradientUnits="userSpaceOnUse"><stop offset="0.02" stop-color="#fff100"/><stop offset="1" stop-color="#652d90"/></linearGradient><linearGradient id="linear-gradient-121" x1="794.36" y1="409.61" x2="677.27" y2="530.37" gradientTransform="matrix(-0.54, -0.84, -0.84, 0.54, 1657.73, 1211.25)" xlink:href="#linear-gradient-5"/><linearGradient id="linear-gradient-122" x1="885.9" y1="492.15" x2="770.87" y2="610.79" gradientTransform="matrix(-0.78, -0.63, -0.63, 0.78, 1815.7, 932.6)" xlink:href="#linear-gradient-120"/><linearGradient id="linear-gradient-123" x1="1537.1" y1="695.97" x2="175.67" y2="904.72" xlink:href="#linear-gradient-99"/></defs><title>aqsa</title><g class="cls-4"><g id="Layer_2" data-name="Layer 2"><g id="Layer_1-2" data-name="Layer 1"><g class="cls-5"><path class="cls-6" d="M1290.29,862.32s131.59-285.51-58.12-298.43S995.31,732,786.39,541.38,637.84,87.5,453.47,154.55,276,175,189.82,162.37-72.38,314.81,68.08,719.87,653.59,871.3,770.93,890.69,1216.72,1010.09,1290.29,862.32Z" transform="translate(-1 -21.15)"/><path class="cls-7" d="M1246.83,890.69S1396,798,1317.11,608.51,1082.24,404.85,956.4,450.23,503.41,495.58,427.09,345,179.67,64.57,65.86,184.87s-51.65,560.18,117,656.75S1120.83,957,1246.83,890.69Z" transform="translate(-1 -21.15)"/><path class="cls-8" d="M1024.64,937s338.8.78,290.92-290-266.13-68.46-352.7-102.13S692.14,169.71,490.68,225.66,357,356.27,200.94,357.4-13.94,534.32,95.79,763.79,1024.64,937,1024.64,937Z" transform="translate(-1 -21.15)"/><g class="cls-9"><path class="cls-10" d="M1315.56,903.53s-6.43-346.21-218.94-273.86-449,156.45-591.7,49.5S203.8,436.61,107.13,503.07,83.85,799.76,83.85,799.76L135.18,934.5l1083.71,35.16Z" transform="translate(-1 -21.15)"/></g><path class="cls-11" d="M186.26,579c-17-1.08-33-6.53-44.58-15.18-6.17-4.61-11-12.25-5-17.51,2.72-2.37,6.92-3.48,10.41-5.23,8.32-4.17,12.2-12.56,8.82-19.09-4.49-8.66-19.59-13.5-19.9-22.92-.26-7.8,9.91-14,13.81-21.47,7.53-14.36-9.41-29.47-3.75-44.2,2.34-6.09,8.4-11.51,9.24-17.74,1.59-11.87-16.15-22.69-8.81-33.61,3.12-4.65,10.13-7.63,12.84-12.39,5.18-9.12-8-18-6.62-27.62,1.22-8.54,13.6-15.64,12.62-24.1-.87-7.47-12.13-12.85-10.61-20.38.6-3,3.14-5.57,4.93-8.31,5.81-8.86,3.85-18.89,2.53-28.35a176.27,176.27,0,0,1,.07-48.61c15.73,14.53,23.53,33.6,21.55,52.66-.84,8.18-3.4,16.59-.65,24.38,3.58,10.12,15.86,18.36,14.52,29-1,7.84-9.44,15-8.77,22.81.56,6.4,7.16,11.41,9.26,17.57,3.24,9.54-4.76,19.78-4.24,29.72.63,11.83,13.21,21.73,12.47,33.62-.53,8.61-8.09,17.06-6.34,25.49,1.58,7.62,10.48,13.31,12.16,20.91,2.09,9.52-7.62,19.33-6,28.92,1.25,7.25,8.8,13,10.36,20.21,1,4.6-.53,9.37-1,14.07-.86,9.13,2.36,18.12,1,27.23A24.65,24.65,0,0,1,194.28,579" transform="translate(-1 -21.15)"/><path class="cls-12" d="M180.62,543.89c-1.33-29.35-2.78-58.81-4.17-86,4.32-13.1,9.5-32.46,9.5-32.46-2.74,2.18-7.2,14.19-10,22.45-3.33-64.33-6.23-113.55-6.23-113.55-2.36,15.9-.77,82.37,2,157.3a44.73,44.73,0,0,0-9.23-9.41c0,5.64,5.77,12.61,9.5,16.52,4.38,114.55,11.37,245.56,11.37,245.56,4.44-4,2.15-86.84-1.73-177,3.49-10.28,9.85-30.25,12-44.86A102.24,102.24,0,0,0,180.62,543.89Z" transform="translate(-1 -21.15)"/><path class="cls-13" d="M1162.68,826c-.43,8.79,6.6,17.8,17.74,21.51a37.53,37.53,0,0,0,8.9,1.74c.19,4.44.44,8.86.77,13.23-2.58,32.29-5.61,57.77-5.61,57.77,4.09-7.76,7.08-17.82,9.23-29.15,2.15,11.33,5.14,21.39,9.23,29.15,0,0-3-25.48-5.61-57.77.33-4.37.58-8.79.77-13.23a37.63,37.63,0,0,0,8.9-1.74c7.79-2.59,13.57-7.78,16.2-13.68l.17,0c1.14,27.55,4.89,54.62,13.63,71.23,0,0-3.88-32.67-6.61-70.9a37.9,37.9,0,0,0,10.67-1.84,30.58,30.58,0,0,0,8.07-4.08c.38,18.29,2.51,35,7.48,46.79,0,0-.62-23.79-.32-54.49a17.08,17.08,0,0,0,2.19-12.28,27.6,27.6,0,0,0,.58-4.34,37.53,37.53,0,0,0,8.29-1.2c12.56-3.36,20.81-13.36,19.59-23a31.17,31.17,0,0,0,1.27-12c-.37-5-1.54-10.07-2.36-15.09,4.29,3.72,10.34,6.35,16.83,7.55-1.39,27.55-.14,54.76,7,71.82,0,0-.87-32.8-.07-71.08,1.18,0,2.36,0,3.53-.08-.25,1.49-.49,3-.73,4.45-1.48,9.13-2.79,18.95,3.33,27,4.12,5.45,11.64,9.29,19.91,10.83-1.4,27.55-.15,54.76,7,71.82,0,0-.86-32.8-.07-71.08a38.9,38.9,0,0,0,10.8-1.23c12.56-3.36,20.81-13.36,19.59-23a31.17,31.17,0,0,0,1.28-12c-.63-8.45-3.5-16.82-3.16-25.28.41-10.49,5.75-20.84,3.72-31.24-1.31-6.68-5.59-12.94-6.74-19.63-2.58-15,10.82-29.75,7.09-44.63-1.86-7.45-7.94-14.28-8.28-21.83-.24-5.24,2.33-10.36,2.17-15.59a12.13,12.13,0,0,0-11.88-11.39c-7.3,5.24-10.29,11-10,20.72.28,9.4-6.88,18.1-11.35,32.8a27.84,27.84,0,0,1-.75-3.06c-2.58-15,10.82-29.76,7.09-44.64-1.87-7.45-7.94-14.28-8.28-21.83-.24-5.23,2.33-10.35,2.17-15.59a12.12,12.12,0,0,0-11.88-11.38c-7.3,5.24-10.29,11-10,20.71.48,16.56-22.11,31-12.42,79.81,1.27,6.43-2,12.94-4.76,19.09-2.4,5.41-6.09,10.46-8.84,15.78a62.78,62.78,0,0,0-3.71,8.86,37.2,37.2,0,0,1-2.47-7.83c-2.58-15,10.82-29.75,7.09-44.63-1.87-7.45-7.94-14.28-8.28-21.83-.24-5.24,2.32-10.36,2.16-15.59a12.13,12.13,0,0,0-11.87-11.39c-7.31,5.24-10.3,11-10,20.72.37,12.94-13.35,24.56-14.73,52.34-3.05-5.57-7.39-10.85-8.21-16.79-.71-5.21,1.37-10.46.73-15.67A12.63,12.63,0,0,0,1226,628.13c-6.8,5.64-9.25,11.55-8.08,21.23,1.12,9.23-5,18.2-8.18,32.74-2.5-4-5-8.07-5.63-12.45-.72-5.21,1.37-10.46.73-15.68a12.7,12.7,0,0,0-8.85-10.14c-.2-.18-.37-.35-.58-.53a21.41,21.41,0,0,1-3.46,0c-.21.18-.38.35-.58.53a12.7,12.7,0,0,0-8.85,10.14c-.64,5.22,1.45,10.47.73,15.68-1,7.51-7.72,14-10.26,21.29-2.5,7.17-.89,14.53.94,21.92a98,98,0,0,0,2.29,21.71c-.09.43-.15.87-.27,1.3-1.76,6.61-6.6,12.6-8.51,19.19-2.48,8.53.11,17.32.74,26.07-4,10.18-4.83,20.88-5.56,31.47l0,.49a34.27,34.27,0,0,0-.26,5A50.17,50.17,0,0,0,1162.68,826Zm50.14-86.29a27.73,27.73,0,0,1-1.39-3.85c-.11-.43-.17-.87-.26-1.3.49-2.31.9-4.55,1.23-6.7.16.6.32,1.19.5,1.8A19.79,19.79,0,0,1,1212.82,739.72Zm35.27-44.38c.19,1.12.38,2.23.61,3.39,1.15,5.8-1.41,11.65-3.93,17.26C1244.33,709.16,1246.47,702.23,1248.09,695.34Z" transform="translate(-1 -21.15)"/><path class="cls-14" d="M1181.17,735.29c.58-9.22,1.18-18.55,5-27.43,2-4.66,4.89-9.14,6.57-13.86,1.91-5.38,4.3-11.07,2.54-16.46-13.41-40.91,5.81-54.35,3.82-68.37-1.17-8.23,1-13.28,7.17-18.12,6.58-.25,11.24,4.57,11.88,9s-1.22,8.92-.51,13.35c1,6.39,7.19,11.85,9.59,18.06,4.79,12.42-6,25.66-2.27,38.25,1.68,5.61,6.16,10.69,8,16.28,2.83,8.71-1,17.78-.45,26.7.49,7.19,3.88,14.14,5.25,21.28a24.4,24.4,0,0,1,0,10.21c2,8.11-4.55,17-15.67,20.58-12.09,3.84-28,.82-35.28-6.71C1180.41,751.51,1180.68,743.11,1181.17,735.29Z" transform="translate(-1 -21.15)"/><path class="cls-15" d="M1199,696c1.14,5,4.68,14.65,7,20.78,1.51-27.72,4.72-43.48,3.58-22.52-.81,15-.11,34.17,1.2,53.2,7.19-10.12,16-29.38,16-29.38-.64,12-11.45,29.08-15.62,35.22,2.86,37.78,7.81,73.37,7.81,73.37-13.42-23.19-14.75-70.63-13.3-104.3C1196,700.11,1199,696,1199,696Z" transform="translate(-1 -21.15)"/><path class="cls-16" d="M1293.39,660.79c2.08-10.87,4.2-21.86,8.84-31.92,2.44-5.29,5.55-10.27,7.73-15.66,2.49-6.15,5.41-12.62,4.93-19.21-3.64-50.1,14.22-63.76,15.07-80.61.5-9.9,3.14-15.63,9-20.64,5.35.49,8.27,6.76,8,12.09s-2.54,10.42-2.74,15.76c-.3,7.69,3.72,14.9,4.57,22.55,1.69,15.29-9.36,29.71-8.54,45.08.37,6.85,3.1,13.4,3.58,20.25.76,10.66-4,20.95-5,31.6-.87,8.59.65,17.22.51,25.85a43.2,43.2,0,0,1-1.82,12.1c.2,9.86-6.67,19.66-16.25,22.54-10.43,3.12-22.73-2.35-27.3-12.13C1289.93,679.93,1291.62,670,1293.39,660.79Z" transform="translate(-1 -21.15)"/><path class="cls-17" d="M1314.66,616.33c0,6,1.2,17.92,2,25.48,6.08-32.69,11.43-51,6.84-26.28-3.29,17.72-6.08,40.5-8.35,63.21,7.57-11.14,18.09-32.93,18.09-32.93-2.63,14.22-14.33,33.12-18.77,39.91-4.32,45.12-6.55,87.91-6.55,87.91-6.77-29.09.47-85.49,7.54-125.23C1311.52,620.83,1314.66,616.33,1314.66,616.33Z" transform="translate(-1 -21.15)"/><path class="cls-18" d="M1288.71,656.19c-.1-15.47-.23-31.12-3-46.15-1.45-7.9-3.62-15.54-4.8-23.51-1.35-9.09-3.07-18.73-1.42-27.67,12.53-67.94-2.61-91.3-.43-114.69,1.28-13.73-.3-22.28-5.13-30.67-5.36-.7-9.34,7.17-10,14.57s.64,15-.11,22.37c-1.09,10.65-6.33,19.53-8.53,29.83-4.39,20.59,3.9,43.25.34,64.16-1.58,9.33-5.44,17.63-7.13,26.92-2.65,14.47.16,29.83-.68,44.74-.69,12-3.73,23.51-5.12,35.4a83.58,83.58,0,0,0-.37,17.11c-2,13.5,3,28.74,12,35.15,9.7,7,22.78,2.6,29-9.68C1288.69,683.4,1288.81,669.32,1288.71,656.19Z" transform="translate(-1 -21.15)"/><path class="cls-19" d="M1275.73,589.62c-1.12,8.31-4.39,24.33-6.53,34.5-.14-46.5-2.14-73-2-37.87.07,25.21-1.25,57.23-3.07,89-5.46-17.25-11.92-49.9-11.92-49.9,0,20.22,8.19,49.2,11.34,59.68-3.81,63.14-9.25,122.54-9.25,122.54,11.85-38.26,14.8-117.65,14.94-174.11C1278,596.61,1275.73,589.62,1275.73,589.62Z" transform="translate(-1 -21.15)"/><path class="cls-20" d="M971.51,569.64c1.81-16.15,12.42-30.29,25.53-39.88,6.73-4.93,14.64-9.43,17.57-17.23,6.1-16.25-13.47-33.69-8-50.17,5.29-15.94,28.94-17.3,38-31.45,7-10.92,3-25.79,8.15-37.7,7.39-17.15,32.09-21.1,48.08-11.46s24.25,28.37,27.87,46.69c2,10.06,3,20.56,7.74,29.63s14.84,16.43,24.84,14.17c4.86-1.1,9.26-4.33,14.24-4.2,11.43.31,14.51,16.43,11.14,27.36s-9.48,23.05-3.8,33c3.12,5.48,9.68,9.88,8.89,16.13-.48,3.77-3.59,6.58-6.49,9l-26.39,22.26c14.9,12.94,11.1,40.11-5,50.38,3.3,6.31,10.64,11.63,7.89,17.92-3,6.81-13.56,4.4-19.79,8.45-6.9,4.48-6,14.88-3,22.53s7.36,15.88,4.62,23.64c-4.37,12.37-22.72,12.31-33.77,5.22s-19.26-18.58-31.49-23.32c-11.13-4.32-23.89-2.33-35.12-6.35a35.33,35.33,0,0,1-22.84-32.55c0-7.71,2.46-16.2-1.82-22.61-5.09-7.6-16.08-7.32-24.73-10.3C978.52,603.53,969.7,585.79,971.51,569.64Z" transform="translate(-1 -21.15)"/><path class="cls-12" d="M1086.32,584.89c-18.36-22.92-65.87-44-65.87-44,14.15,3.15,27.87,10.28,39.26,17.7-3.92-19.11-15.26-40.29-15.26-40.29,8.23,5.91,16.46,33.7,19,42.76a206.61,206.61,0,0,1,23.08,18.41c2.16-71.34,2.16-132.17,2.16-132.17,3.28,16.15,4.36,44.1,4.18,76.58,6.47-13.14,23.87-28.38,23.87-28.38-4.28,10-18.41,28.46-23.93,35.47-.15,13.19-.48,27-1,41,2.48-4.2,8.87-9.73,24.88-14.07,21.16-5.72,44.3-30.42,44.3-30.42s-7.78,15.09-22.06,23c-12.63,7-37.54,14.52-47.28,26.15-2.91,81.77-.93,235.12-.93,235.12s-39,46.88-20.52-31.71C1079.4,740.9,1084,658.1,1086.32,584.89Z" transform="translate(-1 -21.15)"/><path class="cls-21" d="M104.72,540.65c23.81-3.43,45.76-12.91,61.12-26.4C174,507.06,180,495.75,170.9,489c-4.1-3-10.14-4.13-15.26-6.2-12.2-4.94-18.6-16.33-14.57-25.91,5.35-12.71,26.09-21.23,25.47-34.54-.51-11-15.53-18.63-21.88-28.7-12.22-19.4,10-42.59.34-62.71-4-8.32-13.14-15.29-15-24-3.57-16.55,20.22-33.78,8.64-48.36-4.91-6.19-15.13-9.61-19.48-16-8.33-12.27,9.26-26.21,6.23-39.66-2.68-11.91-20.93-20.51-20.49-32.55.38-10.62,15.66-19.48,12.66-29.91-1.17-4.1-5-7.5-7.88-11.16-9.17-11.83-7.54-26.2-6.75-39.67a248.81,248.81,0,0,0-5.54-68.5C76.83,43.4,68,71.15,72.9,97.79c2.11,11.42,6.66,23,3.65,34.28-3.9,14.66-20.29,27.65-17.21,42.47,2.28,10.94,15,20.13,14.92,31.17-.06,9.07-8.81,16.88-11.07,25.79-3.5,13.82,8.93,27.35,9.3,41.41.45,16.75-16.16,32.11-13.79,48.78C60.41,333.77,72,344.83,70.49,356.9c-1.37,10.91-13.28,19.93-14.78,30.83-1.89,13.66,12.9,26.39,11.65,40.09-.94,10.36-11,19.31-12.34,29.65-.89,6.58,1.81,13.14,3,19.72C60.23,490,56.7,503,59.67,515.67s15.93,26,33.75,25.86" transform="translate(-1 -21.15)"/><path class="cls-12" d="M108.73,490.53c-1.42-41.51-2.68-83.19-3.77-121.66-7.56-18-17-44.69-17-44.69C92,327,99.66,343.38,104.56,354.7c-2.51-91-4-160.72-4-160.72,5.12,22.14,10.33,116,14.78,221.9a63,63,0,0,1,12-14.29c.64,8-6.72,18.42-11.53,24.35,6.68,161.92,11.53,347.34,11.53,347.34-6.71-5.19-12.77-122.14-17.42-249.61-6.07-14.1-17.28-41.53-22-61.87C87.92,461.8,100.62,475,108.73,490.53Z" transform="translate(-1 -21.15)"/><path class="cls-22" d="M707,174.11s7.14,64.51,5.67,70.21-11.53,4.41-11.91-2.75S701.11,160.24,707,174.11Z" transform="translate(-1 -21.15)"/><path class="cls-23" d="M695.27,164.8a10.25,10.25,0,1,0,10.25-10.25A10.25,10.25,0,0,0,695.27,164.8Zm4.71-2.43a5.55,5.55,0,1,1,5.54,5.54A5.55,5.55,0,0,1,700,162.37Z" transform="translate(-1 -21.15)"/><rect class="cls-24" x="694.17" y="217.01" width="22.71" height="8.66" rx="2.58" transform="translate(1410.04 421.52) rotate(-180)"/><path class="cls-25" d="M705.52,213.27h0a8.83,8.83,0,0,0,8.81-8.8h0a8.84,8.84,0,0,0-8.81-8.81h0a8.83,8.83,0,0,0-8.8,8.81h0A8.83,8.83,0,0,0,705.52,213.27Z" transform="translate(-1 -21.15)"/><path class="cls-26" d="M702.27,188.55h6.5a3.69,3.69,0,0,0,3.68-3.68h0a3.68,3.68,0,0,0-3.68-3.67h-6.5a3.69,3.69,0,0,0-3.68,3.67h0A3.7,3.7,0,0,0,702.27,188.55Z" transform="translate(-1 -21.15)"/><path class="cls-27" d="M789.9,481.43A457.61,457.61,0,0,0,716,477.68l-1.51,0c4.53-38.88-3.87-184-7.44-241.1l.93.56c79.65,90.49,85.78,211.29,85.86,244.79C792.52,481.73,791.21,481.57,789.9,481.43Z" transform="translate(-1 -21.15)"/><path class="cls-28" d="M637.08,477.9c-23.09.42-46.14.24-69.11,2.92q-6.56.76-13,1.66c23.13-179.42,145-242.88,151.34-246.06-40.76,59.7-61.86,208.06-66.18,241.43Z" transform="translate(-1 -21.15)"/><path class="cls-29" d="M708,237.11c-.2-.23-.4-.47-.61-.7,13.3,2.3,194.86,37.18,196.88,226.14,0,0-1.43,41.49-46.33,72.89,2.13-10.87,3.69-25.46,4.48-44.58C868.64,338,723.73,246.6,708,237.11Z" transform="translate(-1 -21.15)"/><path class="cls-30" d="M707,236.55c3.61,57.67,12.14,205.21,7.3,242.28-6.07,46.36-75.09,5.78-75.09,5.78s21-180.73,67-248.19l.28-.14Z" transform="translate(-1 -21.15)"/><path class="cls-31" d="M708,237.11C723.73,246.6,868.64,338,862.38,490.86c-.79,19.12-2.35,33.71-4.48,44.58a156.45,156.45,0,0,1-31.67,16.88c-16.6-19.9-32.56-61.46-32.56-61.46S801.31,343.16,708,237.11Z" transform="translate(-1 -21.15)"/><path class="cls-32" d="M504.93,457.65s-4.46-174.31,201.4-221.32l-.06.09c-6.57,3.3-137.5,71.45-153.53,266.65C552,512.63,551,521.24,550,529,505.32,496.88,504.93,457.65,504.93,457.65Z" transform="translate(-1 -21.15)"/><path class="cls-33" d="M696.72,474.74c-82.57,1.51-146.85,13.67-191.8,26.14V468.43c5.65,1.42,9.94-1.17,14.57-4.07,5.49-3.44,12.2-5.3,18.49-6.72,7.49-1.7,15.28-1.65,22.88-2.82,8.2-1.27,16.26-3.22,24.35-5.07,7.92-1.8,15.58-3.42,23.71-3.76,7.39-.31,14.66-.64,21.82-2.7a10.1,10.1,0,0,0,3.86-2H781.8a248.19,248.19,0,0,0,39.46,6.64c15.5,1.21,30.06,6.85,45.07,10.46,12.73,3.07,23,6,34,12,4.6,2.52,9.89,5.66,15.34,7.11v25.6C886.4,491.43,819.44,472.48,696.72,474.74Z" transform="translate(-1 -21.15)"/><path class="cls-34" d="M504.92,599.19V500.88c44.95-12.47,109.23-24.63,191.8-26.14,122.72-2.26,189.68,16.69,218.92,28.33v96.12Z" transform="translate(-1 -21.15)"/><path class="cls-35" d="M504.92,599.19V500.88c44.95-12.47,109.23-24.63,191.8-26.14,122.72-2.26,189.68,16.69,218.92,28.33v96.12Z" transform="translate(-1 -21.15)"/><path class="cls-36" d="M933.89,476.88s-147.24-83.54-446.58-12v15.74s235.28-82.42,439.08,5.24Z" transform="translate(-1 -21.15)"/><path class="cls-37" d="M842.13,544.75q-11.07-1.75-23.52-3.23V484.61c8.37,1.12,16.22,2.35,23.52,3.64Z" transform="translate(-1 -21.15)"/><path class="cls-38" d="M777.09,538.05q-13.17-.7-27.48-.93V478.83q14.4.57,27.48,1.54Z" transform="translate(-1 -21.15)"/><path class="cls-39" d="M690.07,478.29v60.07q-19.73,1.08-41.11,3.17V480.05Q668.69,478.75,690.07,478.29Z" transform="translate(-1 -21.15)"/><path class="cls-40" d="M891.58,555.22c-4.9-1.34-10.23-2.69-16-4V495.45c5.86,1.51,11.17,3,16,4.51Z" transform="translate(-1 -21.15)"/><path class="cls-41" d="M504.92,571.92c290.88-60.78,410.72,0,410.72,0v46.13l-410.72-2Z" transform="translate(-1 -21.15)"/><polygon class="cls-42" points="341.35 597.14 341.35 570.33 785.39 542.74 785.39 569.55 341.35 597.14"/><polygon class="cls-43" points="341.35 570.33 341.35 597.14 261.02 627.8 261.02 600.99 341.35 570.33"/><polygon class="cls-44" points="785.39 569.55 785.39 542.74 1134.44 577.76 1134.44 604.57 785.39 569.55"/><polygon class="cls-45" points="1134.56 604.58 1134.44 604.57 1134.44 577.76 1134.56 577.77 1181.39 631.96 1182.46 776.5 1182.27 776.5 1181.39 658.77 1134.56 604.58"/><polygon class="cls-46" points="1182.27 776.5 1182.46 803.31 1182.27 803.31 1182.07 776.5 1182.27 776.5"/><polygon class="cls-46" points="1182.27 776.5 1182.46 803.31 1182.27 803.31 1182.07 776.5 1182.27 776.5"/><polygon class="cls-47" points="1181.39 685.58 1134.56 631.39 1134.44 631.38 1134.44 604.57 1134.56 604.58 1181.39 658.77 1182.27 776.5 1182.07 776.5 1181.39 685.58"/><polygon class="cls-48" points="1181.39 685.58 1134.56 631.39 1134.44 631.38 1134.44 604.57 1134.56 604.58 1181.39 658.77 1182.27 776.5 1182.07 776.5 1181.39 685.58"/><polygon class="cls-49" points="341.35 623.95 261.02 654.61 261.02 627.8 341.35 597.14 341.35 623.95"/><polygon class="cls-50" points="341.35 623.95 261.02 654.61 261.02 627.8 341.35 597.14 341.35 623.95"/><polygon class="cls-51" points="785.39 596.36 341.35 623.95 341.35 597.14 785.39 569.55 785.39 596.36"/><polygon class="cls-52" points="785.39 596.36 341.35 623.95 341.35 597.14 785.39 569.55 785.39 596.36"/><polygon class="cls-53" points="1134.44 604.57 1134.44 631.38 785.39 596.36 785.39 569.55 1134.44 604.57"/><polygon class="cls-54" points="1134.44 604.57 1134.44 631.38 785.39 596.36 785.39 569.55 1134.44 604.57"/><polygon class="cls-55" points="1134.44 631.38 1134.44 901.65 785.39 901.65 785.39 596.36 1134.44 631.38"/><polygon class="cls-56" points="341.35 830.12 261.02 830.12 261.02 803.31 261.02 776.5 261.02 654.61 341.35 623.95 341.35 830.12"/><polygon class="cls-57" points="785.39 596.36 785.39 901.65 341.35 899.11 341.35 623.95 785.39 596.36"/><polygon class="cls-58" points="1134.56 631.39 1181.39 685.58 1182.07 776.5 1182.27 803.31 1182.46 830.12 1134.44 830.12 1134.44 631.38 1134.56 631.39"/><path class="cls-59" d="M1096.62,690.67c0-10.81,5.07-27.53,11.34-27.53s11.34,16.72,11.34,27.53V862.32h-22.68Z" transform="translate(-1 -21.15)"/><path class="cls-60" d="M1058.87,684.68c0-10.81,5.08-27.54,11.34-27.54s11.34,16.73,11.34,27.54V862.32h-22.68Z" transform="translate(-1 -21.15)"/><path class="cls-61" d="M1009.7,687.69c0-14.35,6.69-36.54,14.94-36.54s14.94,22.19,14.94,36.54V862.32H1009.7Z" transform="translate(-1 -21.15)"/><path class="cls-62" d="M949.79,687.08c0-15.66,8.43-39.9,18.84-39.9s18.83,24.24,18.83,39.9V862.32H949.79Z" transform="translate(-1 -21.15)"/><path class="cls-63" d="M886.69,678.93c0-15.66,9.8-39.9,21.88-39.9s21.87,24.24,21.87,39.9V862.32H886.69Z" transform="translate(-1 -21.15)"/><path class="cls-64" d="M812.24,700.87c0-26.1,12-66.48,26.74-66.48s26.73,40.38,26.73,66.48V862.32H812.24Z" transform="translate(-1 -21.15)"/><path class="cls-65" d="M363.61,703.91c0-16.54,7.68-42.13,17.15-42.13s17.16,25.59,17.16,42.13V862.32H363.61Z" transform="translate(-1 -21.15)"/><path class="cls-66" d="M427.09,708.51c0-21.94,10.11-55.9,22.6-55.9s22.59,34,22.59,55.9V862.32H427.09Z" transform="translate(-1 -21.15)"/><path class="cls-67" d="M505.92,707.59c0-24,12.75-61.06,28.48-61.06s28.49,37.09,28.49,61.06V862.32h-57Z" transform="translate(-1 -21.15)"/><path class="cls-68" d="M594,701.35c0-24,15.36-61.06,34.3-61.06s34.31,37.09,34.31,61.06v161H594Z" transform="translate(-1 -21.15)"/><path class="cls-69" d="M690.05,708.55c0-39.94,18.11-75.36,40.44-75.36s40.44,32.14,40.44,72.08V862.32H690.05Z" transform="translate(-1 -21.15)"/><path class="cls-70" d="M267.14,740.23c0-24,5.93-61.06,13.25-61.06s13.25,37.09,13.25,61.06V862.32h-26.5Z" transform="translate(-1 -21.15)"/><path class="cls-71" d="M304.22,740.62c0-39.94,7-75.36,15.62-75.36s15.62,32.14,15.62,72.07v125H304.22Z" transform="translate(-1 -21.15)"/><path class="cls-72" d="M1164.1,744.1c0-15.67,3-39.91,6.62-39.91s6.61,24.24,6.61,39.91V862.32H1164.1Z" transform="translate(-1 -21.15)"/><path class="cls-73" d="M1141.58,755.15c0-26.1,3.62-66.48,8.08-66.48s8.09,40.38,8.09,66.48V862.32h-16.17Z" transform="translate(-1 -21.15)"/><rect class="cls-74" x="1124" y="608.52" width="3.77" height="249.17"/><rect class="cls-75" x="1085.76" y="607.09" width="3.77" height="250.6"/><rect class="cls-76" x="1045.28" y="612.78" width="3.77" height="244.91"/><rect class="cls-77" x="996.32" y="604.44" width="3.77" height="253.24"/><rect class="cls-78" x="936.91" y="603.02" width="3.77" height="254.67"/><rect class="cls-79" x="872.72" y="592.8" width="3.77" height="264.89"/><rect class="cls-80" x="797.25" y="577.76" width="3.77" height="279.93"/><rect class="cls-81" x="671.62" y="599.09" width="6.73" height="287.11"/><rect class="cls-82" x="574.04" y="599.09" width="6.73" height="287.11"/><rect class="cls-83" x="482.95" y="599.09" width="6.73" height="287.11"/><rect class="cls-84" x="408.78" y="599.09" width="6.73" height="287.11"/><rect class="cls-85" x="348.56" y="599.09" width="6.73" height="287.11"/><rect class="cls-86" x="334.46" y="618.48" width="2.76" height="244.84"/><path class="cls-87" d="M298.25,653.25v229.2h-2.76v-228Z" transform="translate(-1 -21.15)"/><path class="cls-88" d="M264.78,667.78v212.1H262V668.94Z" transform="translate(-1 -21.15)"/><rect class="cls-89" x="1137.94" y="621.46" width="2.64" height="226.27"/><rect class="cls-90" x="1158.68" y="656.31" width="2.64" height="190.61"/><rect class="cls-91" x="1178.94" y="662.43" width="2.64" height="187.84"/><polygon class="cls-92" points="1181.83 686.59 1134.56 631.39 1134.44 631.38 1134.44 604.57 1134.56 604.58 1181.6 659.51 1181.83 686.59"/><polygon class="cls-93" points="341.35 623.95 261.02 654.61 261.02 627.8 341.35 597.14 341.35 623.95"/><polygon class="cls-94" points="785.39 596.36 341.35 623.95 341.35 597.14 785.39 569.55 785.39 596.36"/><polygon class="cls-95" points="1134.44 604.57 1134.44 631.38 785.39 596.36 785.39 569.55 1134.44 604.57"/><path class="cls-3" d="M826.23,552.32a156.45,156.45,0,0,0,31.67-16.88C851.12,569.91,838.5,567,826.23,552.32Z" transform="translate(-1 -21.15)"/><path class="cls-96" d="M1246.83,926.72V822.05s-113.73-53.67-567.48-43.2V934.5Z" transform="translate(-1 -21.15)"/><polygon class="cls-97" points="970.75 895.14 967.63 820.47 682.31 710.77 682.31 748.48 970.75 895.14"/><polygon class="cls-98" points="955.4 896.97 682.31 770.74 682.31 723.41 950.68 823.68 955.4 896.97"/><polygon class="cls-99" points="973.04 911.13 967.63 820.47 950.68 823.68 955.4 896.97 973.04 911.13"/><path class="cls-100" d="M569.18,533.52s66.88,27,68.31,74c1.39,46,0,185,0,185l21.34,3.92V533.52H569.18" transform="translate(-1 -21.15)"/><path class="cls-101" d="M436.61,507.94s70.8,19.53,72.61,81.16c1.48,50.46,0,203,0,203l22.69,4.3V507.94h-95.3" transform="translate(-1 -21.15)"/><path class="cls-102" d="M303.85,490.86s70.8,20.68,72.61,86c1.48,53.46,0,215,0,215l22.69,4.56V490.86h-95.3" transform="translate(-1 -21.15)"/><polygon class="cls-103" points="189.21 787.27 177.69 702.4 177.69 427.58 199.16 403.98 211.26 763.66 189.21 787.27"/><path class="cls-104" d="M385.35,791.89h-.54C385,791.32,385.18,791.39,385.35,791.89Z" transform="translate(-1 -21.15)"/><path class="cls-105" d="M706.77,503.07V791.89H650.85v-170c0-68.18-49-85-49-85s-49,19.39-49,85v170H522.13V597.05c0-68.18-52.45-85-52.45-85s-52.46,19.38-52.46,85V791.89H387.07V578c0-68.18-57.56-85-57.56-85S272,512.38,272,578V778.35a42.25,42.25,0,0,0,2.24,13.54H212.5L200.16,425.13Z" transform="translate(-1 -21.15)"/><polygon class="cls-106" points="199.16 419.2 705.77 497.14 705.77 520.23 199.94 442.4 199.16 419.2"/><polygon class="cls-107" points="199.16 419.19 199.94 442.4 177.69 462.48 177.69 440.08 199.16 419.19"/><rect class="cls-108" x="95.79" y="791.49" width="622.9" height="16.53" transform="translate(813.47 1578.36) rotate(-180)"/><rect class="cls-109" x="114.1" y="808.02" width="639.9" height="16.53" transform="translate(867.1 1611.43) rotate(-180)"/><rect class="cls-110" x="135.18" y="824.56" width="656.89" height="16.53" transform="translate(926.25 1644.49) rotate(-180)"/><rect class="cls-111" x="159.34" y="841.09" width="670.86" height="16.53" transform="translate(988.53 1677.56) rotate(-180)"/><rect class="cls-112" x="182.86" y="857.62" width="679.11" height="16.53" transform="translate(1043.83 1710.63) rotate(-180)"/><rect class="cls-113" x="213.14" y="874.16" width="687.25" height="16.53" transform="translate(1112.53 1743.69) rotate(-180)"/><rect class="cls-114" x="244.95" y="890.69" width="688.06" height="16.53" transform="translate(1176.97 1776.76) rotate(-180)"/><path class="cls-115" d="M198.16,733.57c.27-5.2-18.06-14.25-29.81-19.5a56.61,56.61,0,0,1,11.58-18.77c13.89,18.2,29.94,37.22,32.64,31.79,3.39-6.8-16.93-24.28-29.88-34.49a56.74,56.74,0,0,1,17.59-10.82c12.36,21,27.43,44.83,28.47,38.48,1.21-7.47-15.22-27.63-25.62-39.52a85.44,85.44,0,0,1,21.65-4.22c6.19,22.84,13.09,42.94,17.64,40.18,5.87-3.57-4.57-24-14.24-40.37A128.6,128.6,0,0,1,247,677c3.22,14.29,6.79,26.65,9.06,24.21,2.48-2.66-1.41-13.52-6-23.84a122.9,122.9,0,0,1,15,2.88l.2.05c.88,9.46,2.16,17.44,4,16.81,2.31-.8.78-8.83-1.14-16.14A97.26,97.26,0,0,0,280,682.6c.6,5.18,1.47,9,2.73,8.23s1.14-4.29.35-8c8.34.49,15.19.22,15.19.22-2.13,3.22-3.17,7.25-3.6,11.92-6.7-1.35-11.69-1.9-11.67-.54,0,1.71,5.32,2.44,11.51,2.71a112.86,112.86,0,0,0,.1,11.42c-9.25-2-17.26-2.88-17.49-.11-.32,3.84,9.42,4,17.66,3.52.31,5.54.7,11.49.76,17.72-13.06-5.78-24.11-9.45-24.81-5.69-1,5.24,12.54,8,24.81,9.34A106,106,0,0,1,293,756.4c-15.64-10.73-30.18-19.08-32.34-14.76-3.22,6.4,17.13,13.22,31.73,17.2a78.45,78.45,0,0,1-11.59,25c-15.47-12.73-29.72-22.88-31.4-18.61-2.28,5.8,15.37,14.45,30,20.51q-2.22,3-4.86,6a69.83,69.83,0,0,1-16.22,13.74c-11.5-15.37-25.46-32.2-28.88-28.38-4,4.44,12.7,20.29,24.64,30.68A50.47,50.47,0,0,1,224,812.28c-5.27-14.79-11.87-31-15-29.59-3.74,1.69,4.15,17.77,10,28.62a65.53,65.53,0,0,1-23-10.61s-38.13-17.24-32.22-67.13a83.41,83.41,0,0,1,3.56-16.44C181.32,727.12,197.94,738,198.16,733.57Z" transform="translate(-1 -21.15)"/><path class="cls-116" d="M191.69,720.2c-.8-.65.34-1.76,1.13-1.12a162.62,162.62,0,0,1,24,24c2.73-2.37,5.49-4.71,8.25-7-8.86-14.28-17.81-28.51-28.72-41.34-.66-.78.47-1.9,1.14-1.12,10.93,12.87,19.93,27.12,28.82,41.43q4.51-3.78,9.09-7.51c-5.24-14.37-10.59-28.71-17.92-42.18a.8.8,0,0,1,1.39-.79c7.28,13.38,12.62,27.63,17.83,41.92q6-4.89,12.18-9.67a154.57,154.57,0,0,0-8.11-31.9c-.36-1,1.19-1.37,1.54-.41a154.06,154.06,0,0,1,8,31.2q5.53-4.29,11.14-8.5a.76.76,0,0,1-.17-.68c1.68-8.16-1.42-17-3.1-25-.21-1,1.33-1.41,1.54-.41,1.7,8,4.63,16.69,3.24,25q6-4.47,12-8.83a.74.74,0,0,1-.42-.66c-.15-3.57-.42-7.12-.83-10.67-.12-1,1.48-1,1.59,0,.4,3.49.67,7,.82,10.49q8-5.77,16.11-11.38c.85-.59,1.63.8.79,1.38q-10.46,7.23-20.77,14.76a57.68,57.68,0,0,1,17.75.15c1,.15.57,1.68-.44,1.54-6-.88-13.79-1.19-19.61.47a.7.7,0,0,1-.56-.06q-6,4.42-11.93,8.94l32.39,7.32c1,.23.56,1.76-.44,1.54l-33.61-7.6q-6.45,4.94-12.82,10c15.23,5.5,30.22,10.76,44.27,18.94a.8.8,0,0,1-.81,1.37c-14.08-8.2-29.16-13.45-44.42-19a.83.83,0,0,1-.37-.28l-4.62,3.71a.62.62,0,0,1-.25.2l-4.84,4a349.73,349.73,0,0,1,43.06,28c.81.61,0,2-.82,1.37a347.91,347.91,0,0,0-43.31-28.1.74.74,0,0,1-.21-.18q-8.17,6.76-16.14,13.75a307.16,307.16,0,0,1,35.26,32.19c.7.74-.44,1.86-1.14,1.11a305.61,305.61,0,0,0-35.33-32.24q-9,7.89-17.65,16c-.75.7-1.87-.43-1.12-1.14q10.34-9.71,21.08-19A163.55,163.55,0,0,0,191.69,720.2Z" transform="translate(-1 -21.15)"/><path class="cls-117" d="M132.4,676.36c-2.14-4.75-22.58-4.42-35.42-3.73a56.46,56.46,0,0,1,1.73-22c20.66,9.85,43.63,19.45,43.55,13.38-.09-7.6-26.15-13.88-42.34-17a57,57,0,0,1,10.72-17.66c20.57,13,44.87,27.36,42.89,21.24-2.32-7.2-26.15-17.64-40.84-23.47A85.59,85.59,0,0,1,130,613.45c15.94,17.49,31.26,32.22,34,27.69,3.6-5.85-15-19.28-31.1-29.41a127.59,127.59,0,0,1,17.09-8c9.4,11.24,18.21,20.61,19.11,17.4,1-3.5-7.42-11.39-16.21-18.47a123.47,123.47,0,0,1,14.68-4.3l.2,0c5.1,8,9.89,14.53,11.22,13.14,1.7-1.77-3.33-8.21-8.38-13.84a97.68,97.68,0,0,0,11.24-4c2.9,4.33,5.44,7.37,6.19,6.07s-1-4.33-3.35-7.29c7.65-3.36,13.62-6.73,13.62-6.73-.43,3.84.48,7.9,2.23,12.25-6.57,1.85-11.27,3.64-10.63,4.84.8,1.52,5.85-.25,11.48-2.84,1.44,3.2,3.27,6.57,5.3,10.11-9.13,2.46-16.66,5.32-15.6,7.89,1.46,3.56,10.22-.71,17.32-4.93,2.8,4.79,5.86,9.91,8.77,15.42-14.27.82-25.77,2.6-24.68,6.27,1.52,5.1,14.79,1.35,26.34-3a105.64,105.64,0,0,1,8.24,21.7c-18.81-2.41-35.55-3.2-35.51,1.63.07,7.16,21.28,3.94,36.08.82a78.2,78.2,0,0,1,1.1,27.51c-19.57-4.27-36.89-6.79-36.43-2.22.61,6.2,20.27,5.84,36.08,4.53q-.61,3.69-1.6,7.53a69.65,69.65,0,0,1-8.15,19.63c-17.26-8.42-37.36-17-38.66-12.05-1.51,5.76,20.56,12.25,35.93,16a50.58,50.58,0,0,1-24.69,17.79c-11.44-10.75-24.72-22.17-26.88-19.47-2.56,3.22,11.8,13.91,22,20.89a65.43,65.43,0,0,1-25.34,1.07s-41.8,2.08-59.32-45a83.63,83.63,0,0,1-4.34-16.26C114.47,678.32,134.21,680.38,132.4,676.36Z" transform="translate(-1 -21.15)"/><path class="cls-116" d="M120.54,667.43c-1-.21-.5-1.73.5-1.52a163.63,163.63,0,0,1,32.32,10.36q2-5,4.13-10c-14.4-8.65-28.87-17.23-44.43-23.67-1-.39-.45-1.9.5-1.51,15.6,6.46,30.12,15,44.56,23.7,1.53-3.62,3.07-7.23,4.66-10.83-11.23-10.4-22.53-20.71-35.2-29.35-.85-.58,0-1.91.86-1.33,12.6,8.58,23.86,18.81,35,29.15q3.14-7.11,6.41-14.16a153.52,153.52,0,0,0-21.78-24.68c-.76-.7.44-1.76,1.19-1.07a153.93,153.93,0,0,1,21.36,24.11q3-6.36,6-12.65a.81.81,0,0,1-.47-.53c-2.22-8-9-14.49-14.16-20.83-.65-.79.54-1.86,1.18-1.07,5.18,6.38,11.73,12.74,14.28,20.73q3.27-6.69,6.64-13.33a.75.75,0,0,1-.67-.39q-2.64-4.66-5.61-9.12c-.57-.85.86-1.56,1.42-.72q2.92,4.38,5.51,9,4.5-8.8,9.14-17.48c.49-.91,1.82,0,1.34.86q-6,11.22-11.74,22.62a57.49,57.49,0,0,1,15.86-8c1-.33,1.27,1.24.31,1.57-5.73,2-12.82,5.24-17.24,9.38a.75.75,0,0,1-.52.2q-3.31,6.66-6.53,13.4L207.56,622c1-.26,1.31,1.3.32,1.56l-33.37,8.58q-3.49,7.35-6.84,14.76c16.06-2.07,31.8-4.23,48-3.37a.8.8,0,0,1-.1,1.59c-16.27-.86-32.08,1.35-48.17,3.41a.78.78,0,0,1-.46-.08q-1.22,2.7-2.41,5.42a.84.84,0,0,1-.13.29c-.84,1.91-1.67,3.83-2.5,5.74A350.24,350.24,0,0,1,213,665.07c1,.18.91,1.77-.11,1.59a348.4,348.4,0,0,0-51.36-5.21,1.07,1.07,0,0,1-.27-.07q-4.17,9.75-8.08,19.6a307.15,307.15,0,0,1,46.06,12.54.8.8,0,0,1-.5,1.51,304.75,304.75,0,0,0-46.15-12.55q-4.38,11.1-8.38,22.32a.8.8,0,0,1-1.51-.5q4.74-13.35,10.06-26.55A162.69,162.69,0,0,0,120.54,667.43Z" transform="translate(-1 -21.15)"/><path class="cls-118" d="M1267.71,791.14c-4.4-2.79-21.29,8.72-31.65,16.36a56.34,56.34,0,0,1-10.63-19.33c22.68-3.12,47.14-7.73,43.74-12.76-4.26-6.29-29.48,2.79-44.74,9a56.68,56.68,0,0,1-.75-20.64c24.33-.44,52.53-1.81,47.51-5.83-5.91-4.74-31.55-.37-47,2.83a85.24,85.24,0,0,1,7-20.92c22.93,5.85,43.82,9.74,43.65,4.43-.21-6.87-23.15-7.85-42.15-7.48a127.62,127.62,0,0,1,9.9-16.06c14,4.23,26.54,7.21,25.53,4-1.1-3.47-12.46-5.43-23.69-6.52a123.8,123.8,0,0,1,9.89-11.66l.15-.15c8.66,3.89,16.24,6.71,16.59,4.81.45-2.41-7.29-5-14.61-7a97.39,97.39,0,0,0,7.21-9.49c4.8,2,8.59,3.17,8.51,1.67s-3.18-3.1-6.8-4.25c4.53-7,7.67-13.11,7.67-13.11,1.75,3.44,4.75,6.33,8.6,9-4.47,5.16-7.41,9.23-6.22,9.89,1.5.82,4.74-3.43,8-8.69,3,1.89,6.33,3.69,10,5.54-6.28,7.07-11,13.6-8.71,15.17,3.19,2.17,8.15-6.22,11.76-13.64,5,2.46,10.35,5.05,15.8,8.06-11.46,8.52-20.1,16.33-17.17,18.8,4.08,3.43,13.1-7,20.35-17a106.18,106.18,0,0,1,18.81,13.6c-17,8.33-31.46,16.87-28.77,20.88,4,6,19.94-8.4,30.59-19.15a78.27,78.27,0,0,1,16,22.38c-18.7,7.2-34.55,14.61-31.66,18.17,3.92,4.84,20.15-6.26,32.64-16,1,2.28,2,4.66,2.8,7.17a69.94,69.94,0,0,1,4,20.88c-19,2.45-40.57,6.31-38.92,11.17,1.9,5.64,23.91-1.06,38.83-6.35a50.55,50.55,0,0,1-10.85,28.44c-15.47-2.7-32.84-4.94-33.15-1.49-.38,4.09,17.5,5.13,29.84,5.37A65.48,65.48,0,0,1,1325,826.14s-33.78,24.71-74.3-5A83.63,83.63,0,0,1,1238.19,810C1253.8,802.64,1271.44,793.51,1267.71,791.14Z" transform="translate(-1 -21.15)"/><path class="cls-116" d="M1252.89,790.2c-1,.38-1.36-1.17-.42-1.54a163.48,163.48,0,0,1,32.7-9.11q-1.07-5.31-2.06-10.65c-16.79.69-33.59,1.48-50.13,4.65-1,.19-1.42-1.35-.41-1.54,16.58-3.18,33.42-4,50.25-4.69q-1.07-5.79-2.06-11.61c-15.09-2.51-30.2-4.92-45.54-5.17a.8.8,0,0,1,0-1.59c15.25.25,30.27,2.61,45.28,5.11q-1.29-7.66-2.42-15.36a154.73,154.73,0,0,0-31.76-8.65c-1-.16-.61-1.7.4-1.54a154.43,154.43,0,0,1,31.1,8.4q-1-6.93-1.92-13.88a.78.78,0,0,1-.68-.19c-6.27-5.48-15.51-7.14-23.28-9.61-1-.31-.58-1.86.4-1.54,7.83,2.48,16.8,4.19,23.32,9.46q-.95-7.38-1.77-14.78a.76.76,0,0,1-.79,0c-3.17-1.63-6.41-3.14-9.69-4.53-1-.4-.14-1.78.79-1.38,3.23,1.36,6.41,2.85,9.53,4.44q-1.08-9.81-2-19.62c-.09-1,1.51-1,1.6,0q1.14,12.66,2.62,25.35a57.38,57.38,0,0,1,8.87-15.37c.63-.81,1.74.33,1.12,1.13-3.71,4.78-7.82,11.43-9.24,17.31a.72.72,0,0,1-.33.45c.6,4.94,1.23,9.86,1.91,14.79l22.32-24.58c.69-.76,1.81.37,1.12,1.13L1278.57,731q1.11,8.06,2.39,16.09c12.28-10.55,24.24-21,38.28-29.22a.8.8,0,0,1,.79,1.39C1306,727.51,1294,738,1281.66,748.61a.74.74,0,0,1-.43.18c.32,2,.63,3.91,1,5.86a.65.65,0,0,1,0,.31q.52,3.09,1.08,6.17a347.42,347.42,0,0,1,45.53-23.71c.93-.4,1.73,1,.79,1.38a349,349,0,0,0-45.78,23.87.67.67,0,0,1-.26.09q1.86,10.46,4,20.82A307.61,307.61,0,0,1,1333,768.74a.8.8,0,0,1,.41,1.54,305.36,305.36,0,0,0-45.46,14.88q2.46,11.69,5.28,23.25a.8.8,0,0,1-1.54.41q-3.37-13.76-6.19-27.71A163.17,163.17,0,0,0,1252.89,790.2Z" transform="translate(-1 -21.15)"/><path class="cls-119" d="M64.89,651.75C60.38,649.14,44,661.33,34,669.4a56.61,56.61,0,0,1-11.43-18.87C45.05,646.47,69.3,640.85,65.7,636c-4.52-6.11-29.34,4-44.33,10.88a56.84,56.84,0,0,1-1.61-20.59c24.3-1.45,52.41-4,47.23-7.8-6.09-4.49-31.53.95-46.86,4.79a85.25,85.25,0,0,1,6.12-21.2c23.15,4.9,44.18,7.92,43.8,2.62-.5-6.86-23.46-6.89-42.42-5.73a126.39,126.39,0,0,1,9.22-16.46c14.19,3.65,26.81,6.11,25.67,3-1.24-3.42-12.68-4.91-23.94-5.53A122.66,122.66,0,0,1,48,567.86a1.07,1.07,0,0,0,.14-.16c8.82,3.53,16.51,6,16.78,4.12.34-2.42-7.5-4.72-14.89-6.34a99.14,99.14,0,0,0,6.82-9.79c4.88,1.83,8.71,2.81,8.56,1.32s-3.3-3-7-4c4.24-7.2,7.12-13.42,7.12-13.42,1.9,3.37,5,6.13,9,8.64-4.26,5.35-7,9.54-5.8,10.14,1.53.76,4.59-3.62,7.66-9,3,1.76,6.48,3.43,10.21,5.12-6,7.33-10.43,14.05-8.07,15.51,3.27,2,7.88-6.54,11.18-14.11,5.07,2.25,10.55,4.62,16.13,7.4-11.11,9-19.41,17.15-16.39,19.49,4.22,3.26,12.8-7.53,19.63-17.83a106,106,0,0,1,19.36,12.81c-16.68,9-30.73,18.16-27.88,22.06,4.24,5.78,19.58-9.22,29.77-20.4a78.08,78.08,0,0,1,16.95,21.69c-18.38,8-33.91,16-30.87,19.47,4.12,4.67,19.87-7.09,31.94-17.38,1.1,2.23,2.14,4.58,3.1,7A70.36,70.36,0,0,1,156.27,631c-18.93,3.23-40.27,8-38.43,12.77,2.14,5.56,23.85-2,38.54-8a50.61,50.61,0,0,1-9.66,28.86c-15.57-2-33-3.57-33.19-.11-.2,4.1,17.7,4.4,30,4.12a65.56,65.56,0,0,1-19.95,15.67s-32.73,26.08-74.44-1.92a83.67,83.67,0,0,1-13-10.66C51.47,663.8,68.71,654,64.89,651.75Z" transform="translate(-1 -21.15)"/><path class="cls-116" d="M50,651.42c-.94.41-1.4-1.11-.47-1.52a162.58,162.58,0,0,1,32.29-10.46q-1.29-5.27-2.5-10.55c-16.75,1.38-33.5,2.86-49.9,6.72-1,.23-1.47-1.29-.47-1.53,16.43-3.86,33.22-5.38,50-6.76q-1.31-5.75-2.54-11.51c-15.18-1.89-30.38-3.67-45.71-3.29a.8.8,0,0,1-.08-1.59c15.24-.38,30.36,1.36,45.45,3.23q-1.61-7.6-3.06-15.24A154.09,154.09,0,0,0,41,591.59c-1-.12-.67-1.67.34-1.56a154.26,154.26,0,0,1,31.42,7.11q-1.31-6.89-2.49-13.79a.79.79,0,0,1-.69-.16c-6.49-5.22-15.79-6.5-23.65-8.64-1-.27-.66-1.83.33-1.56,7.93,2.16,17,3.49,23.69,8.5q-1.24-7.35-2.38-14.7a.76.76,0,0,1-.78.07q-4.88-2.25-9.88-4.13c-1-.36-.21-1.77.74-1.41q4.92,1.84,9.7,4-1.48-9.76-2.78-19.53c-.14-1,1.45-1.08,1.59-.07q1.66,12.6,3.67,25.22A57.35,57.35,0,0,1,78,555.26c.6-.83,1.76.26,1.17,1.09-3.51,4.92-7.34,11.74-8.52,17.67a.67.67,0,0,1-.31.47q1.2,7.35,2.52,14.7L94.16,563.7c.66-.79,1.83.3,1.17,1.09L73.25,591.23q1.45,8,3.06,16c11.83-11.05,23.35-22,37-30.78a.8.8,0,0,1,.85,1.35c-13.72,8.8-25.26,19.82-37.12,30.89a.78.78,0,0,1-.42.2q.59,2.91,1.2,5.81a.81.81,0,0,1,.06.31q.66,3.07,1.33,6.12a349.37,349.37,0,0,1,44.51-25.58c.91-.44,1.77.91.85,1.35a348.33,348.33,0,0,0-44.75,25.74.73.73,0,0,1-.26.11q2.3,10.37,4.88,20.63a308.23,308.23,0,0,1,44.72-16.71c1-.28,1.46,1.24.47,1.52a306.63,306.63,0,0,0-44.8,16.75q2.92,11.58,6.23,23c.29,1-1.24,1.47-1.52.48Q85.63,654.8,82.24,641A162.77,162.77,0,0,0,50,651.42Z" transform="translate(-1 -21.15)"/><path class="cls-120" d="M318.38,890.63s60.06,6,82.63-78.85c0,0-62.08-23.18-91.56,45C295.24,889.68,318.38,890.63,318.38,890.63Z" transform="translate(-1 -21.15)"/><path class="cls-121" d="M392.8,812.52s-4.63,3.9-5.83,8.59l10.47-7.18-14.66,10.62c4.88,2.52,11.79-1.19,11.79-1.19-6.32,3.72-10.26,3.09-12.56,1.74l-6.66,4.83c4.48,6.33,14.34,1.05,14.34,1.05-9.89,5.82-14,1-15-.58l-6.51,4.71c6.9,8,18.67,3.86,18.67,3.86-11.63,4.7-17.77-1.43-19.34-3.37l-8.33,6c8.57,9,22.49,5.55,22.49,5.55-13.05,4-21.59-2.83-23.63-4.72l-8.82,6.38c10.47,10.82,26.85,6.94,26.85,6.94-15.24,4.71-24.81-3.4-27.67-6.35l-9.13,6.62c12.28,13.3,31.22,8.42,31.22,8.42-18.76,5.8-29.62-4.75-32.21-7.71L329.68,863a30.68,30.68,0,0,0,1.33,3l-.79,1a21.79,21.79,0,0,1-1.53-3.27l-.56.41-2-1.3,1.83-1.25c-2-6.42-3.39-18,4.58-31.46,0,0-8.2,15.33-3.57,30.77l12.46-8.54c-1.2-3.36-5.14-17.69,7.86-33.14,0,0-12.24,15.86-6.87,32.46l9.21-6.32c-1.14-4-3.15-15.85,7.08-28,0,0-10.13,13.6-6.25,27.43l8.92-6.11c-.68-3.4-1.68-13.32,6.68-23.25,0,0-8.53,11.23-5.55,22.47l8.34-5.71c-.91-3-1.85-10.36,6.06-18.44,0,0-7.91,8.78-5.36,18l6.46-4.43c-.75-2.37-.94-7.28,6.56-13.1,0,0-7.57,6.35-5.85,12.61l7.37-5C386.56,819.23,388.27,816.05,392.8,812.52Z" transform="translate(-1 -21.15)"/><path class="cls-122" d="M304,878.21s55.7-23.25,35.22-108.65c0,0-65.64,9.12-59.15,83.14C283.15,888.37,304,878.21,304,878.21Z" transform="translate(-1 -21.15)"/><path class="cls-121" d="M332.31,774.12s-2.23,5.62-1.05,10.32l5.8-11.29-7.86,16.31c5.49-.1,9.82-6.65,9.82-6.65-3.79,6.27-7.56,7.6-10.22,7.5l-3.57,7.42c6.95,3.44,13.11-5.9,13.11-5.9-5.93,9.82-11.83,7.53-13.46,6.62l-3.49,7.24c9.87,3.76,18.26-5.48,18.26-5.48-8,9.67-16.31,7.19-18.62,6.23l-4.46,9.26c11.82,3.85,22.43-5.8,22.43-5.8-9.57,9.75-20.34,7.77-23,7.07l-4.72,9.81c14.35,4.54,26.91-6.66,26.91-6.66-11.16,11.39-23.44,8.81-27.35,7.57l-4.89,10.16c17.12,5.87,31.47-7.43,31.47-7.43-13.75,14-28.32,9.9-32,8.53l-4.62,9.58a31.26,31.26,0,0,0,2.61,2l-.24,1.22a22.48,22.48,0,0,1-2.89-2.15l-.3.62-2.39-.18,1-2c-4.77-4.71-11.51-14.19-10.92-29.85,0,0,.07,17.38,11.48,28.76l6.9-13.43c-2.64-2.38-12.92-13.12-8.83-32.89,0,0-3.23,19.77,9.38,31.82l5.1-9.93c-2.92-3-10.3-12.45-7.08-28,0,0-2.44,16.79,7.55,27.11l4.94-9.62c-2.22-2.67-7.81-10.91-5.18-23.63,0,0-2.16,13.94,5.8,22.41l4.62-9c-2.25-2.25-6.55-8.23-3.42-19.1,0,0-2.8,11.48,3.81,18.34l3.58-7c-1.78-1.73-4.28-6-.46-14.64,0,0-3.64,9.19.85,13.89l4.08-8C330,783,330,779.37,332.31,774.12Z" transform="translate(-1 -21.15)"/><path class="cls-123" d="M59.39,632.45S92,581.67,26.67,523c0,0-48.84,44.78-1.47,102C48,652.62,59.39,632.45,59.39,632.45Z" transform="translate(-1 -21.15)"/><path class="cls-121" d="M23.61,530.66s1.36,5.9,5,9.1L27,527.17l2.8,17.89c4.46-3.21,4.3-11,4.3-11,.44,7.32-1.91,10.55-4.16,12l1.28,8.13c7.68-1.12,7.44-12.3,7.44-12.3.7,11.45-5.46,12.91-7.32,13.09l1.24,7.94C42.81,560.34,44.47,548,44.47,548c-1.1,12.5-9.34,15.18-11.79,15.7l1.59,10.15c11.92-3.53,15.17-17.51,15.17-17.51-2.34,13.46-12.34,18-14.95,18.91L36.17,586c14.39-4.42,18.38-20.77,18.38-20.77-2.73,15.71-14.3,20.56-18.22,21.77l1.74,11.14c17.43-4.9,21.69-24,21.69-24-3.36,19.34-17.69,24.23-21.5,25.19l1.64,10.51a32.5,32.5,0,0,0,3.3.19l.5,1.14a22.85,22.85,0,0,1-3.61-.13l.11.68-2.07,1.21-.29-2.21c-6.61-1.16-17.53-5.14-25.95-18.36,0,0,9.94,14.26,25.8,17.15l-1.95-15c-3.53-.46-18.09-3.45-25.95-22,0,0,8.57,18.11,25.79,20.86l-1.44-11.07c-4.12-.82-15.55-4.39-21.74-19,0,0,7.53,15.2,21.61,18l-1.4-10.71C29.27,569.6,20,566,14.93,554c0,0,6.14,12.71,17.51,15.16l-1.31-10c-3.13-.57-10.06-3-13.67-13.78,0,0,4.23,11,13.56,12.94l-1-7.77c-2.45-.41-6.91-2.47-8.69-11.79,0,0,2.22,9.63,8.58,10.94l-1.15-8.86C26.75,539.27,24.69,536.3,23.61,530.66Z" transform="translate(-1 -21.15)"/><path class="cls-124" d="M1216.17,926.32s32.61-86.14-78.25-137c0,0-57.68,85.43,26.87,142.81C1205.54,959.78,1216.17,926.32,1216.17,926.32Z" transform="translate(-1 -21.15)"/><path class="cls-12" d="M1135.67,801.42s3.64,7.58,9.79,10.31L1139.52,795l9.12,23.6c5.52-6.57,3.06-17.42,3.06-17.42,2.72,10,.24,15.59-2.58,18.64l4.14,10.73c10.75-5.18,7.24-20.65,7.24-20.65,4.25,15.62-4.2,20.56-6.83,21.69l4,10.47c14.07-8.34,13-26.34,13-26.34,2,17.92-9.15,25.55-12.53,27.43l5.18,13.39C1179.48,846,1180.19,825,1180.19,825a40.58,40.58,0,0,1-16.17,33.4l5.48,14.19c19.49-12.95,20.59-37.6,20.59-37.6A45.14,45.14,0,0,1,1170,873.86l5.68,14.7c23.73-15,24.44-43.65,24.44-43.65.66,28.53-18.61,42.09-23.83,45.24l5.36,13.86c1.58-.35,3.19-.77,4.81-1.3l1,1.36a35.83,35.83,0,0,1-5.23,1.52l.35.9-2.64,2.66-1-2.94c-9.86,1.5-26.74,1.12-42.62-13.33,0,0,18.38,15.18,42,11.72l-7.07-19.94c-5.22,1-27,3.72-43.66-18.48,0,0,17.49,21.18,43.1,16.89l-5.22-14.74c-6.18.79-23.67,1.22-36.74-16.25,0,0,15.17,17.62,36.26,14.91l-5-14.27a35.25,35.25,0,0,1-30.18-14.66s12.45,14.8,29.54,12.85l-4.74-13.36c-4.67.68-15.37.51-23.61-12.73,0,0,9.23,13.38,23.22,11.61l-3.67-10.35c-3.65.59-10.66-.17-15.88-12.31,0,0,5.94,12.37,15.48,11.19l-4.18-11.8C1142.64,811.93,1138.83,808.76,1135.67,801.42Z" transform="translate(-1 -21.15)"/><path class="cls-125" d="M1169.65,916.49s8.85-76.87-91.29-94.62c0,0-29.28,81.63,50.87,110.25C1167.87,945.92,1169.65,916.49,1169.65,916.49Z" transform="translate(-1 -21.15)"/><path class="cls-12" d="M1079,832.18s4.49,5.38,10,6.29l-8.23-12.35L1093,843.34c3.13-6.5-1.07-14.79-1.07-14.79,4.23,7.53,3.37,12.61,1.71,15.69l5.54,7.83c7.65-6.49,1.65-18.3,1.65-18.3,6.63,11.77.79,17.58-1.11,19.06l5.41,7.64c9.7-9.76,5.11-24.14,5.11-24.14,5.26,14.13-2.2,22.69-4.55,24.93l6.92,9.78c11-12,7.24-29.21,7.24-29.21a34.37,34.37,0,0,1-6.28,30.56l7.33,10.35c13.14-14.65,9-34.9,9-34.9a38.27,38.27,0,0,1-8.32,35.87l7.6,10.72c16.14-17.26,10.89-40.64,10.89-40.64,6.35,23-6.49,38.14-10.07,41.8l7.16,10.12c1.21-.62,2.43-1.31,3.63-2.08l1.11.88a29.79,29.79,0,0,1-3.92,2.35l.46.66-1.59,2.72-1.44-2.17c-7.68,3.31-21.42,6.59-37.23-1.77,0,0,18,8.42,36.44.59l-9.79-14.7c-4,1.95-21.15,8.77-39.12-5.72,0,0,18.48,13.48,38.34,4.55l-7.23-10.85c-4.84,2-18.92,6-33.06-5.39,0,0,15.87,11.08,32.4,4.4l-7-10.52a29.15,29.15,0,0,1-27.42-5.49s13.1,9.37,26.53,4.16l-6.55-9.84c-3.64,1.55-12.35,3.68-21.72-5.32,0,0,10.2,8.9,21.17,4.5l-5.08-7.63c-2.83,1.26-8.66,2.13-15.37-6.62,0,0,7.33,8.78,14.82,5.8l-5.79-8.7C1086.79,839.23,1083.06,837.47,1079,832.18Z" transform="translate(-1 -21.15)"/><path class="cls-126" d="M1134.82,906.8s-18.71-94-143.54-77c0,0-3.58,107.36,101.8,110.73C1143.87,942.18,1134.82,906.8,1134.82,906.8Z" transform="translate(-1 -21.15)"/><path class="cls-12" d="M996,841.73s7.33,4.64,14.21,3.62L995.78,833.9l20.92,15.69c1.22-8.85-6.88-17-6.88-17,7.85,7.27,8.76,13.59,8,17.85l9.5,7.13c6.56-10.55-5-22.21-5-22.21,12.28,11.38,7.6,20.44,5.92,22.9l9.27,7c7.74-15.18-3.12-30.4-3.12-30.4,11.56,14.67,6,27.59,4.09,31.13l11.86,8.9c8.36-18.31-2.53-37.18-2.53-37.18a42.58,42.58,0,0,1,4.17,38.41l12.57,9.43c10-22.26-2.62-44.57-2.62-44.57a47.37,47.37,0,0,1,3.79,45.45l13,9.77c12.5-26.48-2.56-52.06-2.56-52.06,16.22,24.75,6.81,47.44,4,53.12l12.28,9.21a51.86,51.86,0,0,0,3.5-3.83l1.64.62a37.46,37.46,0,0,1-3.73,4.26l.79.6-.85,3.81-2.52-2c-7.79,6.82-22.76,15.89-44.57,12,0,0,24.39,3.11,43.19-13.13l-17.11-13.61c-4,3.81-21.61,18.36-48.31,8.08,0,0,26.91,8.89,46.94-9.17L1058.74,884c-5,4.14-20,14.26-41,6.18,0,0,22.92,7.05,39.88-7.1l-12.25-9.74a36.15,36.15,0,0,1-34.42,3.92s19,6.09,32.87-5.15L1032.33,863c-3.71,3.2-13.17,9-27.63,1.95,0,0,15.41,6.64,26.67-2.72l-8.88-7.06c-2.87,2.55-9.42,5.79-20.64-2,0,0,12,7.57,19.68,1.22l-10.13-8C1007.81,847.09,1002.75,846.43,996,841.73Z" transform="translate(-1 -21.15)"/><path class="cls-127" d="M841.07,959c-1.06-1.75-3.84-1.53-5.51-.17s-2.56,3.46-3.52,5.4c-1.51,3-3.48,6.08-6.41,7.75s-7,1.49-8.82-1.15a9.13,9.13,0,0,1-1.23-5A35.26,35.26,0,0,1,831,936.54c4.31-2.86,9.32-4.78,12.76-8.7,4.44-5,5.41-12.43,9.93-17.39,4-4.39,10.13-6.17,14.11-10.57,5.33-5.9,5.72-15.27,11.6-20.61,4.49-4.07,11-4.66,15.84-8.34,5-3.82,7.22-10.2,10.15-15.8s7.93-11.32,14-11a8.7,8.7,0,0,1,8,7c1.26,6.53-4.49,12.58-9.87,16.84s-11.58,9.27-11.83,16a40.38,40.38,0,0,1,0,5.16c-1.26,7.54-12.38,8.65-16.61,15.15-2.71,4.18-2.05,9.91-5.08,13.87-3.45,4.5-10.21,4.85-14,9-4.55,5-3,12.84-5.75,19-3.71,8.18-13.67,10.89-22.24,12.54" transform="translate(-1 -21.15)"/><path class="cls-12" d="M834,947.65a.88.88,0,0,0,.23.63.91.91,0,0,0,1.32,0c.67-.65,67.33-65.22,82.81-93.48a.92.92,0,0,0-.34-1.28,1,1,0,0,0-1.28.43c-15.33,28-81.76,92.34-82.43,93A1,1,0,0,0,834,947.65Z" transform="translate(-1 -21.15)"/><path class="cls-128" d="M845.11,953.79c7.43-5,15.75-11.43,16.06-20.24.22-6.6-4.33-13-2-19.27,2-5.29,8.19-8.35,9.69-13.78,1.31-4.77-1.55-9.6-.62-14.45,1.44-7.52,11.49-13,9.73-20.28-.4-1.64-1.41-3-2-4.6-2.4-6.12,1.48-13.13,4.89-19.11s6.46-13.72,2.73-19a8.87,8.87,0,0,0-10.26-3c-5.79,2.21-8.27,9.34-8.85,15.54s-.18,12.79-3.4,18.24c-3.09,5.23-9,8.43-11.67,13.89-3.46,7.15-.16,15.68-2.88,23.11-2,5.55-7.13,9.64-9.17,15.18-2.32,6.26-.35,13.26-2.56,19.56-1.72,4.89-5.69,8.65-8.63,13-6.54,9.55-7.79,22.41-3.17,32.38a8.53,8.53,0,0,0,3.13,4c2.75,1.61,6.65.12,8.76-2.56s2.79-6.19,3-9.52c.15-2.13.17-4.36,1.21-6.26s3.58-3.22,5.27-2.09" transform="translate(-1 -21.15)"/><path class="cls-12" d="M833.31,947.21a.85.85,0,0,0,.47.46,1,1,0,0,0,1.24-.54c.38-.85,38-85.6,41.54-117.13a.87.87,0,0,0-.82-1,1,1,0,0,0-1,.9c-3.52,31.22-41,115.69-41.37,116.54A.94.94,0,0,0,833.31,947.21Z" transform="translate(-1 -21.15)"/><path class="cls-129" d="M839.65,947.22c5.67-7,11.74-15.7,9.31-24-1.81-6.21-8.19-10.66-7.87-17.27.27-5.55,5.36-10.4,5.13-15.92-.2-4.86-4.46-8.43-5.06-13.23-.93-7.46,7.11-15.82,3.17-22-.9-1.4-2.3-2.36-3.38-3.62-4.22-4.92-2.62-12.68-1.16-19.34s2-14.84-3.24-18.58a9.29,9.29,0,0,0-10.86.53c-4.93,3.92-5.13,11.35-3.77,17.29s3.77,11.95,2.34,18c-1.38,5.86-6.15,10.74-7,16.67-1.15,7.76,4.68,14.62,4.34,22.41-.26,5.81-3.93,11.25-4.2,17.06-.31,6.57,3.75,12.44,3.56,19-.15,5.1-2.84,9.88-4.36,14.82-3.39,11-.64,23.33,6.93,31.12a8.4,8.4,0,0,0,4.26,2.7c3.17.61,6.48-2,7.7-5.2s.79-6.65,0-9.82c-.52-2-1.19-4.1-.76-6.2s2.47-4.15,4.45-3.64" transform="translate(-1 -21.15)"/><path class="cls-12" d="M826.19,944.89a.88.88,0,0,0,.6.29,1,1,0,0,0,1-.91c.1-.91,10.37-91.79,4.08-122.24a.88.88,0,0,0-1.11-.67,1,1,0,0,0-.72,1.17c6.23,30.16-4,120.73-4.11,121.64A.93.93,0,0,0,826.19,944.89Z" transform="translate(-1 -21.15)"/><g class="cls-130"><path class="cls-131" d="M1.21,518.12C34,554.64,92,618.4,102,626.33l4-43.06c.43-4.61,1.17-9.8,5-12.5,6.29-4.48,14.73,1.54,19.35,7.7a93.56,93.56,0,0,1,18.56,58.27,55,55,0,0,1,20.86-27.49c7.31,10.8,3.83,25.38-1.22,37.38s-11.57,24.43-9.54,37.29,18.15,23.81,28.32,15.64q-3.6-23.41-7.18-46.84c35.59,21.83,57.32,64,55,105.51a81.48,81.48,0,0,1,35.63-57.3,264.9,264.9,0,0,1,2.4,115.82q10.25-27.76,20.5-55.51c3-8,8.73-17.73,17.15-16,7.11,1.43,9.76,10.1,10.26,17.3a102.36,102.36,0,0,1-16,62.14l27.75-24a54.86,54.86,0,0,1-12.17,49,51.31,51.31,0,0,1,41.08,21.15l-7.17-41.74a186.44,186.44,0,0,1,36.8,53.36,82.51,82.51,0,0,1-2.48-48.35,84,84,0,0,1,19.94,57.15c0-29.72,17.69-58.79,44.16-72.55A152.45,152.45,0,0,0,442.94,891c4.34-30.73,25-58.7,53.21-72a132.8,132.8,0,0,0-34.94,74.88c6.66-12.35,26.18-15,35.92-4.9a51,51,0,0,1,4.15-31.73,27.24,27.24,0,0,1,9.36,20.77c5.24-8.12,19.57-7.51,24.08,1a28.7,28.7,0,0,1,26-17.69q-3.86,10.55-7.7,21.07c11.45-7.73,29.07-4,36.3,7.8,10.15-7.87,27.45-3,31.9,9.06A26,26,0,0,1,625.57,875a23.45,23.45,0,0,1,11.08,16.59c4.81-11.89,20.05-18.36,32-13.58q.17,9.69.34,19.38L714.76,902q-5.14-11.68-10.27-23.39a66.26,66.26,0,0,1,37.2,25.74,77.47,77.47,0,0,1,5.07-62.74,48.79,48.79,0,0,1,13.53,45.55A37,37,0,0,1,779.08,865a29.84,29.84,0,0,1-5,21.25A92.43,92.43,0,0,1,810,901.47a35.23,35.23,0,0,1,8.35-22.89,54.76,54.76,0,0,1,14.59,25.54L852,875.48a42.36,42.36,0,0,1,2,28.81c13.82-10.22,35.51-7.61,46.49,5.59a46.07,46.07,0,0,1,.33-37.69l35.81,21.41a56.45,56.45,0,0,1-5.77-33.27,65.41,65.41,0,0,1,18.26,37.25A55.05,55.05,0,0,1,979,865.64a31.57,31.57,0,0,1,2.5,23,78.77,78.77,0,0,1,44.34-7,31.69,31.69,0,0,1-8.88-28.07l35.91,24.83a52.5,52.5,0,0,1-4.3-48.5A71.79,71.79,0,0,1,1079,883.17l33.37-32A47.55,47.55,0,0,1,1110,882.2a61.43,61.43,0,0,1,60.11,7.51l-26.72-34.35a173.66,173.66,0,0,1,60.13,32.11,157.08,157.08,0,0,1-45.21-62.27,187.29,187.29,0,0,1,72.85,48.47,153.27,153.27,0,0,1-41.68-84.37A150.5,150.5,0,0,1,1257.28,848a359.76,359.76,0,0,1-41.73-96.79,137.22,137.22,0,0,1,55,63.27,157.43,157.43,0,0,1-6.27-83.07,139.43,139.43,0,0,1,27.41,60.35,184.4,184.4,0,0,1,10.63-67.05,184.13,184.13,0,0,1,16.44,65.72A259.82,259.82,0,0,1,1364,645.93,322.39,322.39,0,0,1,1340,788.23c17.24-39.9,35.77-81.42,66.24-111.63V991.68L1.21,993.42C.73,986.85,1.21,518.12,1.21,518.12Z" transform="translate(-1 -21.15)"/></g><path class="cls-12" d="M933.89,476.88c-1.74-.95-3.5-1.86-5.27-2.77C932.15,475.85,933.89,476.88,933.89,476.88Z" transform="translate(-1 -21.15)"/><path class="cls-12" d="M928.62,474.11c-18.87-9.26-89.16-38.57-222.35-38.19C706.27,435.92,839,428.37,928.62,474.11Z" transform="translate(-1 -21.15)"/><path class="cls-12" d="M915.64,498.35c3.28,31.8,0,78.5,0,78.5Z" transform="translate(-1 -21.15)"/><polygon class="cls-12" points="1182.46 751.62 1181.55 632.82 1134.56 577.77 1183.12 631.38 1182.46 751.62"/><polygon class="cls-12" points="1134.56 656.31 1132.55 579.23 1073.18 571.61 1134.56 577.77 1134.56 656.31"/><polygon class="cls-12" points="785.6 544.21 785.07 720.27 784.27 545.75 725.67 546.45 785.39 542.74 845.54 548.77 785.6 544.21"/><path class="cls-12" d="M706.77,766.42c-1.49-14.92-4.26-258.82-4.26-258.82L441.45,462.25l265.32,40.82Z" transform="translate(-1 -21.15)"/><polygon class="cls-12" points="964.65 819.33 967.63 820.47 970.75 866.4 967.63 873.89 964.01 821.16 732.74 730.16 964.65 819.33"/><path class="cls-12" d="M637.37,605.24s-5.59-40.38-49.45-59.64c-12.56,10-29.76,29.9-34.58,65.59,0,0,1.73-57.08,48.53-74.32a59.44,59.44,0,0,0-12.09,7.29C589.9,544.21,634.47,565.34,637.37,605.24Z" transform="translate(-1 -21.15)"/><path class="cls-12" d="M508,587.41c-2-46-44.82-65.7-50.36-68.06-39,28.38-40.45,79.84-40.45,79.84,0-68.85,52.46-87.19,52.46-87.19a84.84,84.84,0,0,0-9.8,5.79c52.58,26.23,49.89,72.91,49.89,72.91v36.71S509.89,630.76,508,587.41Z" transform="translate(-1 -21.15)"/><path class="cls-12" d="M319.84,497.41h0a63.59,63.59,0,0,1,9.67-4.42l2.16.74a76.06,76.06,0,0,0-10.05,4.44c57.68,24,54.85,79.18,54.85,79.18-2.23-50.67-46.26-74.39-55.41-78.88-29.75,15.77-43.68,47-43.68,47C288.16,516.71,308.53,503.66,319.84,497.41Z" transform="translate(-1 -21.15)"/><polygon class="cls-12" points="551.88 631.02 551.88 770.34 717.68 770.34 717.64 772.64 348.56 770.34 550.32 770.34 551.88 631.02"/><polygon class="cls-12" points="416.29 770.34 414.74 770.34 416.29 631.02 416.29 770.34"/><polygon class="cls-12" points="752.96 789.17 379.76 786.16 753 786.87 752.96 789.17"/><polygon class="cls-12" points="791.03 805.71 455.31 803.4 791.07 803.4 791.03 805.71"/><path class="cls-12" d="M805.51,841.07h0Z" transform="translate(-1 -21.15)"/><path class="cls-12" d="M805.1,841.08h0Z" transform="translate(-1 -21.15)"/><path class="cls-12" d="M487.31,841.09H805C733.17,844.08,487.31,841.09,487.31,841.09Z" transform="translate(-1 -21.15)"/><path class="cls-12" d="M805.66,841.06h0Z" transform="translate(-1 -21.15)"/><path class="cls-12" d="M805.86,841.05h0Z" transform="translate(-1 -21.15)"/><path class="cls-12" d="M805.35,841.07h0Z" transform="translate(-1 -21.15)"/><path class="cls-12" d="M805.89,841.05h0Z" transform="translate(-1 -21.15)"/><path class="cls-12" d="M805.89,841.05Z" transform="translate(-1 -21.15)"/><path class="cls-12" d="M511.65,857.66H796.28C724.49,860.65,511.65,857.66,511.65,857.66Z" transform="translate(-1 -21.15)"/><path class="cls-12" d="M796.67,857.65h0Z" transform="translate(-1 -21.15)"/><path class="cls-12" d="M796.42,857.66h0Z" transform="translate(-1 -21.15)"/><path class="cls-12" d="M796.83,857.64h0Z" transform="translate(-1 -21.15)"/><path class="cls-12" d="M797,857.63h0Z" transform="translate(-1 -21.15)"/><path class="cls-12" d="M797.21,857.62Z" transform="translate(-1 -21.15)"/><path class="cls-12" d="M796.28,857.66h0Z" transform="translate(-1 -21.15)"/><path class="cls-12" d="M797.18,857.62h0Z" transform="translate(-1 -21.15)"/><path class="cls-12" d="M799.3,874.19h0Z" transform="translate(-1 -21.15)"/><path class="cls-12" d="M800.08,874.16Z" transform="translate(-1 -21.15)"/><path class="cls-12" d="M514.52,874.2H799.16C727.36,877.18,514.52,874.2,514.52,874.2Z" transform="translate(-1 -21.15)"/><path class="cls-12" d="M799.16,874.2h0Z" transform="translate(-1 -21.15)"/><path class="cls-12" d="M799.54,874.18h0Z" transform="translate(-1 -21.15)"/><path class="cls-12" d="M800.05,874.16h0Z" transform="translate(-1 -21.15)"/><path class="cls-12" d="M799.7,874.17h0Z" transform="translate(-1 -21.15)"/><path class="cls-12" d="M799.85,874.17h0Z" transform="translate(-1 -21.15)"/></g></g></g></g></svg>