<svg width="96" height="96" xmlns="http://www.w3.org/2000/svg">

 <g>
  <title>background</title>
  <rect fill="none" id="canvas_background" height="98" width="98" y="-1" x="-1"/>
 </g>
 <g>
  <title>Layer 1</title>
  <path stroke="null" id="svg_2" fill="#fff" d="m48.498673,85.178137c-0.224474,0 -0.438648,-0.008197 -0.601539,-0.015974c-0.129261,0.01114 -0.262727,0.015974 -0.396402,0.015974c-4.715837,0 -7.868977,-2.229393 -10.651567,-4.197951c-1.99441,-1.408845 -3.875322,-2.738872 -6.078863,-3.105428c-1.082223,-0.179495 -2.158772,-0.270503 -3.198959,-0.270503c-1.874186,0 -3.355334,0.290681 -4.436716,0.502123c-0.665434,0.129682 -1.239229,0.241288 -1.682711,0.241288c-0.464501,0 -1.028837,-0.102989 -1.26403,-0.906091c-0.186431,-0.633486 -0.320106,-1.247216 -0.449157,-1.838245c-0.322838,-1.476944 -0.55698,-2.378411 -1.109967,-2.463955c-5.914711,-0.912607 -9.409395,-2.256927 -10.105516,-3.884991a1.510573,1.510573 0 0 1 -0.122746,-0.513473a0.949599,0.949599 0 0 1 0.793855,-0.990164c4.697131,-0.773467 8.873643,-3.256128 12.414147,-7.381356c2.742655,-3.193704 4.089497,-6.245116 4.234102,-6.582037a0.599017,0.599017 0 0 1 0.021228,-0.045609c0.682459,-1.384674 0.818236,-2.581236 0.404809,-3.555426c-0.762117,-1.79726 -3.286184,-2.598051 -4.956074,-3.127918c-0.415318,-0.131363 -0.808147,-0.255791 -1.121107,-0.380008c-1.480307,-0.584724 -3.914836,-1.82017 -3.590527,-3.52537c0.236244,-1.243432 1.880912,-2.109379 3.210099,-2.109379c0.369078,0 0.69612,0.064736 0.971458,0.193997c1.501955,0.703687 2.853211,1.060365 4.015303,1.060365c1.445206,0 2.143218,-0.550255 2.311994,-0.706629a246.061108,246.061108 0 0 0 -0.142713,-2.367061c-0.339233,-5.396404 -0.762327,-12.112116 0.955484,-15.963268c5.141454,-11.527812 16.045028,-12.424235 19.263324,-12.424235a821.716508,821.716508 0 0 0 1.593594,-0.014923c3.227123,0 14.153397,0.897474 19.298004,12.432222c1.717812,3.853674 1.294296,10.575061 0.954013,15.97714l-0.015974,0.258523c-0.04666,0.733533 -0.089747,1.427761 -0.126109,2.100762c0.158897,0.146286 0.797638,0.650721 2.097189,0.701795c1.107865,-0.042457 2.380933,-0.397453 3.782843,-1.053849c0.433394,-0.203455 0.913238,-0.245702 1.239019,-0.245702c0.492455,0 0.993527,0.095843 1.411157,0.270083l0.022279,0.008617c1.189626,0.422254 1.968768,1.266132 1.985582,2.152677c0.014923,0.826433 -0.599227,2.061668 -3.619952,3.254657c-0.309387,0.122536 -0.704107,0.247804 -1.121107,0.380008c-1.671361,0.530498 -4.193327,1.330868 -4.955444,3.127077c-0.414057,0.97419 -0.27786,2.170332 0.404809,3.554586c0.007567,0.015133 0.014082,0.030476 0.021438,0.04645c0.210181,0.492665 5.297619,12.09278 16.648248,13.962762a0.95065,0.95065 0 0 1 0.794065,0.990164a1.524235,1.524235 0 0 1 -0.125688,0.518097c-0.691286,1.619026 -4.18576,2.961454 -10.102153,3.875322c-0.555299,0.085754 -0.789231,0.983228 -1.109127,2.452395c-0.132414,0.606793 -0.26714,1.201606 -0.451049,1.826685c-0.172138,0.587877 -0.555089,0.875195 -1.170079,0.875195l-0.09269,0c-0.400395,0 -0.967675,-0.072723 -1.683132,-0.212703c-1.250579,-0.24339 -2.653118,-0.469965 -4.436716,-0.469965c-1.039977,0 -2.116315,0.091219 -3.1998,0.270503c-2.201228,0.366556 -4.081931,1.694481 -6.072768,3.101855c-2.788055,1.97129 -5.942245,4.200893 -10.657662,4.200893"/>
  <path stroke="null" id="svg_3" fill="#020202" d="m48.77282,12.09948c3.010707,0 13.378119,0.808756 18.263775,11.762064c1.608765,3.606808 1.196368,10.140386 0.865617,15.388868c-0.051654,0.832917 -0.102891,1.640216 -0.144547,2.411065l-0.017496,0.331376l0.221195,0.246813c0.089353,0.099142 0.925602,0.97309 2.785555,1.044948l0.029993,0.001666l0.031242,-0.000625c1.229693,-0.046863 2.614764,-0.428851 4.118972,-1.133467c0.221611,-0.103724 0.516538,-0.154336 0.828543,-0.154336c0.355536,0 0.733359,0.066858 1.044948,0.198076l0.047072,0.018745c0.788761,0.276389 1.346331,0.797509 1.35487,1.269058c0.004582,0.2666 -0.194743,1.226985 -2.990712,2.331501c-0.273265,0.10789 -0.632967,0.222653 -1.049946,0.354078c-1.819546,0.577772 -4.568443,1.449638 -5.493629,3.629719c-0.520912,1.228027 -0.378239,2.677248 0.423644,4.306842c0.329918,0.770016 5.523621,12.468763 17.210496,14.394532a0.517996,0.517996 0 0 1 -0.047696,0.187453c-0.198076,0.46655 -1.457136,2.07844 -9.291848,3.287305c-1.225944,0.18787 -1.526286,1.56211 -1.874532,3.159628c-0.125802,0.571941 -0.253687,1.149296 -0.429476,1.745606c-0.053737,0.180163 -0.063734,0.190369 -0.256811,0.190369l-0.09206,0c-0.347413,0 -0.874782,-0.072065 -1.486087,-0.192035c-1.113264,-0.216821 -2.634134,-0.482796 -4.578441,-0.482796c-1.085146,0 -2.202992,0.094351 -3.324587,0.281596c-2.397527,0.398651 -4.347248,1.777681 -6.41215,3.237317c-2.773058,1.959511 -5.639218,3.98713 -10.012293,3.98713c-0.190994,0 -0.377406,-0.006457 -0.564234,-0.015829l-0.049154,-0.002083l-0.049363,0.003749c-0.107265,0.009373 -0.215363,0.014163 -0.325752,0.014163c-4.37245,0 -7.23986,-2.026994 -10.011668,-3.98713c-2.065318,-1.459636 -4.016081,-2.838667 -6.413191,-3.237317c-1.120554,-0.18662 -2.239441,-0.281596 -3.323962,-0.281596c-1.94389,0 -3.466635,0.297426 -4.577608,0.514663c-0.611306,0.119553 -1.140549,0.222028 -1.486921,0.222028c-0.283679,0 -0.289095,-0.016663 -0.34908,-0.221611c-0.175789,-0.596726 -0.304299,-1.187829 -0.429476,-1.758936c-0.34908,-1.599184 -0.64963,-2.980923 -1.874949,-3.169001c-7.834086,-1.209906 -9.093355,-2.824503 -9.292056,-3.289804a0.570483,0.570483 0 0 1 -0.048113,-0.191202c11.686667,-1.924103 16.879329,-13.623267 17.210288,-14.396199c0.803341,-1.628344 0.945806,-3.077357 0.423228,-4.306842c-0.925186,-2.178831 -3.673666,-3.051947 -5.491963,-3.628678c-0.418021,-0.132259 -0.777931,-0.24723 -1.051404,-0.35512c-2.361077,-0.932892 -3.087354,-1.872658 -2.979465,-2.442099c0.125177,-0.656711 1.263643,-1.324461 2.257145,-1.324461c0.223278,0 0.419062,0.036033 0.563818,0.103724c1.613556,0.75627 3.086521,1.139716 4.378491,1.139716c2.030951,0 2.934893,-0.944972 3.031952,-1.052862l0.220153,-0.246189l-0.017704,-0.329709c-0.041031,-0.770433 -0.091644,-1.577523 -0.144964,-2.408774c-0.329709,-5.249731 -0.742106,-11.778935 0.866034,-15.385952c4.867535,-10.91311 15.184335,-11.754358 18.229825,-11.754358c0.074981,0 1.399026,-0.013538 1.399026,-0.013538c0.054153,-0.000417 0.114346,-0.00125 0.177456,-0.00125m0,-1.882447l-0.003541,0c-0.069358,0 -0.13455,0 -0.196618,0.000833l-1.38153,0.013747c-1.784138,0 -5.353872,0.25202 -9.188332,1.944515c-2.192369,0.96705 -4.164377,2.274641 -5.861037,3.88653c-2.022828,1.920562 -3.670751,4.288513 -4.897111,7.039076c-1.79601,4.027328 -1.369658,10.810843 -1.027244,16.262191l0.00125,0.00854c0.036658,0.583813 0.07519,1.193452 0.110389,1.787471c-0.263476,0.121011 -0.690661,0.248688 -1.320295,0.248688c-1.01308,0 -2.21778,-0.323877 -3.579732,-0.962052c-0.400733,-0.18662 -0.858119,-0.280972 -1.362785,-0.280972c-0.810839,0 -1.665626,0.23869 -2.407108,0.674623c-0.932892,0.54778 -1.535658,1.321962 -1.699368,2.180289c-0.10789,0.567775 -0.102683,1.689995 1.143881,2.828044c0.685662,0.62651 1.692911,1.204283 2.993003,1.718113c0.341165,0.134341 0.746064,0.262643 1.174915,0.398651c1.48817,0.473007 3.740525,1.18762 4.327878,2.569984c0.297634,0.700867 0.169541,1.623137 -0.379697,2.737858c-0.014371,0.030409 -0.028743,0.060193 -0.041865,0.091436c-0.137257,0.320545 -1.417771,3.221071 -4.044407,6.280099c-1.492544,1.739566 -3.136509,3.19337 -4.883573,4.322255c-2.132384,1.378198 -4.439725,2.279223 -6.857247,2.677457a1.882447,1.882447 0 0 0 -1.574399,1.962843c0.016246,0.277014 0.08123,0.553195 0.19391,0.82042l0.002708,0.00479c0.383863,0.897901 1.273849,1.660627 2.720779,2.333376c1.7681,0.821253 4.41244,1.512123 7.858872,2.052613c0.174123,0.331167 0.354911,1.16346 0.480089,1.733317c0.131009,0.605682 0.267642,1.228443 0.462385,1.889945c0.210156,0.716696 0.755228,1.573149 2.155504,1.573149c0.530701,0 1.140965,-0.119553 1.847664,-0.256603c1.03495,-0.203074 2.450222,-0.480089 4.216656,-0.480089c0.979339,0 1.994294,0.086228 3.015914,0.255978c1.9693,0.327835 3.667001,1.527119 5.631303,2.915939c2.875116,2.032409 6.129512,4.332877 11.101813,4.332877c0.135591,0 0.271599,-0.004374 0.40594,-0.013747c0.164334,0.007706 0.368033,0.013747 0.582979,0.013747c4.973759,0 8.227322,-2.301301 11.099313,-4.332044l0.004582,-0.004166c1.964718,-1.387154 3.660545,-2.584772 5.62922,-2.912606c1.021203,-0.169541 2.03595,-0.255978 3.015706,-0.255978c1.687495,0 3.02362,0.215155 4.216656,0.447805c0.778556,0.153295 1.383613,0.227027 1.847872,0.227027l0.045405,0.000833l0.047072,0c1.024119,0 1.77664,-0.562151 2.06386,-1.545864c0.190786,-0.647547 0.327002,-1.255728 0.461343,-1.871616c0.117054,-0.534033 0.304091,-1.39007 0.478214,-1.724778c3.448723,-0.541532 6.092021,-1.230943 7.86033,-2.051988c1.443598,-0.669625 2.332543,-1.431518 2.718696,-2.32567c0.115804,-0.268058 0.183496,-0.545905 0.1987,-0.828751a1.88203,1.88203 0 0 0 -1.574607,-1.962843c-10.744193,-1.770808 -15.584444,-12.810553 -15.784602,-13.279602a1.344248,1.344248 0 0 0 -0.042698,-0.091227c-0.549238,-1.115138 -0.676081,-2.036367 -0.378239,-2.738483c0.586104,-1.381114 2.837,-2.095727 4.326212,-2.568526c0.431142,-0.135799 0.837499,-0.264934 1.175957,-0.398651c1.466092,-0.579022 2.513956,-1.207199 3.205242,-1.920562c0.825627,-0.850413 0.98642,-1.665209 0.976423,-2.19841c-0.025202,-1.290095 -1.011414,-2.436475 -2.580189,-2.997793c-0.529868,-0.219112 -1.134092,-0.334708 -1.749355,-0.334708c-0.418854,0 -1.039116,0.057486 -1.626261,0.331584c-1.256978,0.588187 -2.382947,0.909773 -3.349581,0.955595c-0.514038,-0.026035 -0.874573,-0.137466 -1.108057,-0.243897c0.029368,-0.503208 0.06186,-1.020162 0.095393,-1.559194l0.013955,-0.230776c0.344289,-5.454889 0.772099,-12.243611 -1.024744,-16.273855c-1.231568,-2.760353 -2.885322,-5.134344 -4.916273,-7.059072c-1.703325,-1.612931 -3.681998,-2.920313 -5.882282,-3.886738c-3.829044,-1.679997 -7.39857,-1.930976 -9.185208,-1.930976"/>
 </g>
</svg>