<svg width="165" height="64" viewBox="0 0 165 64" fill="none" xmlns="http://www.w3.org/2000/svg">
    <path opacity="0.57" d="M145.116 24.0584C140.581 24.0584 136.395 25.5766 133.081 28.146C133.081 28.0876 133.081 28.0876 133.081 28.0292C133.081 20.8467 127.267 15.0073 120.116 15.0073C116.977 15.0073 114.07 16.1168 111.802 18.0438C108.954 7.64964 99.4767 0 88.1977 0C76.0465 0 66.0465 8.87591 64.0698 20.4963C62.0349 19.2117 59.6512 18.4526 57.093 18.4526C50.814 18.4526 45.5814 22.8321 44.1861 28.7299C41.5698 26.1606 37.9651 24.5255 34.0116 24.5255C26.0465 24.5255 19.5349 31.0073 19.5349 39.0657C19.5349 39.4161 19.5349 39.7664 19.593 40.0584C17.6163 38.8321 15.2907 38.073 12.7907 38.073C5.75581 38.1314 0 43.9124 0 51.0365C0 58.1606 5.75581 63.9416 12.8488 63.9416H145.116C156.105 63.9416 165 55.0073 165 43.9708C165 32.9343 156.105 24.0584 145.116 24.0584Z" fill="#E0E0E0"/>
</svg>
