<svg width="626" height="393" viewBox="0 0 626 393" fill="none" xmlns="http://www.w3.org/2000/svg">
    <path opacity="0.57" d="M313 626C485.865 626 626 485.865 626 313C626 140.135 485.865 0 313 0C140.135 0 0 140.135 0 313C0 485.865 140.135 626 313 626Z" fill="url(#paint0_radial)"/>
    <path opacity="0.57" d="M313 579.593C460.235 579.593 579.593 460.235 579.593 313C579.593 165.765 460.235 46.4074 313 46.4074C165.765 46.4074 46.4073 165.765 46.4073 313C46.4073 460.235 165.765 579.593 313 579.593Z" fill="url(#paint1_radial)"/>
    <path d="M313 538.482C437.53 538.482 538.481 437.53 538.481 313C538.481 188.47 437.53 87.5185 313 87.5185C188.47 87.5185 87.5184 188.47 87.5184 313C87.5184 437.53 188.47 538.482 313 538.482Z" fill="url(#paint2_linear)"/>
    <path d="M125.808 188.712C122.639 199 119.166 210.635 121.77 221.401C124.115 231.082 131.842 237.42 139.743 242.803C145.213 246.536 153.808 250.226 156.153 257.042C157.672 261.427 155.805 266.376 155.502 270.804C154.894 279.746 158.844 287.17 166.832 291.381C174.603 295.505 183.719 295.896 192.011 298.631C199.738 301.192 205.382 307.009 212.762 310.005C222.269 313.868 226.567 301.93 236.248 303.797C237.811 304.101 248.577 305.577 249.749 306.662C250.4 307.27 246.71 313.998 247.188 314.389C249.836 316.516 256.782 315.518 260.168 315.301C271.889 314.606 288.906 313.174 291.468 328.498C292.596 335.357 289.384 341.608 288.516 348.25C287.387 357.193 295.027 359.581 301.409 363.184C316.473 371.693 314.954 393.312 314.302 408.159C313.825 418.838 314.563 429.214 315.084 439.85C315.518 449.53 315.04 460.687 318.904 469.76C322.464 478.052 329.627 484.303 332.752 492.856C335.921 501.451 333.49 510.654 335.14 519.467C348.554 515.256 345.906 489.296 346.557 478.573C347.122 469.326 350.551 460.166 356.976 453.394C362.793 447.273 372.908 443.626 375.774 435.248C377.25 430.907 377.771 426.262 379.29 421.92C380.809 417.536 383.284 413.629 385.845 409.809C389.058 404.99 392.4 400.345 393.92 394.658C395.352 389.231 394.701 383.761 395.309 378.248C396.481 367.829 403.427 363.184 410.243 356.195C413.846 352.505 417.015 347.773 413.672 342.694C411.198 338.96 406.162 337.484 401.951 336.833C390.534 335.053 396.785 313.738 385.324 313.043C379.333 312.696 364.79 318.861 359.538 316.212C355.196 314.042 349.553 322.29 345.081 320.467C340.436 318.6 334.315 319.599 330.321 316.516C326.718 313.781 320.554 317.471 318.47 313.651C316.169 309.397 313.608 310.96 309.874 310.178C307.964 309.787 306.271 308.832 304.621 307.791C301.279 305.62 298.587 302.668 296.807 299.108C292.944 291.251 293.204 280.484 296.417 272.453C299.629 264.465 306.618 259.43 312.826 253.873C321.422 246.189 330.538 239.851 331.407 228.477C332.275 217.407 307.834 210.244 312.392 199.955C317.037 189.45 343.171 174.516 348.207 164.227C351.159 158.15 353.851 151.985 356.716 145.864C359.321 140.264 362.62 134.837 364.356 128.847C369.262 112.003 360.232 99.1094 347.643 90.1232C328.976 87.2146 309.701 86.6502 290.035 88.6471C221.14 95.6799 162.664 133.058 126.546 186.15C126.329 187.019 126.025 187.843 125.808 188.712Z" fill="#8DC6BB"/>
    <path opacity="0.32" d="M401.951 336.833C393.746 335.574 394.658 324.2 391.576 317.645C383.805 316.994 375.947 316.907 368.133 317.428C362.272 317.819 356.499 318.47 350.681 319.251C348.728 320.38 346.818 321.205 345.081 320.51C344.821 320.38 344.517 320.293 344.257 320.206C340.61 320.771 336.92 321.335 333.273 321.899C324.461 323.245 314.216 324.721 306.011 320.337C291.294 312.522 291.989 295.679 293.855 281.353C294.724 274.754 297.198 265.811 294.854 259.343C293.03 254.307 286.128 252.874 281.657 251.181C275.492 248.881 267.461 246.189 264.683 239.59C262.338 233.947 265.377 227.999 267.852 222.92C271.498 215.497 276.317 206.38 272.236 198.132C269.024 191.62 261.948 187.105 256.391 182.764C245.711 174.386 231.776 164.531 236.074 149.077C240.242 133.969 252.961 121.293 251.138 104.666C250.834 101.758 249.966 99.1963 248.707 96.8954C197.915 111.959 155.198 144.128 126.546 186.237C126.285 187.062 126.025 187.93 125.764 188.755C122.595 199.044 119.122 210.678 121.727 221.444C124.071 231.125 131.799 237.463 139.7 242.846C145.169 246.58 153.765 250.27 156.109 257.085C157.629 261.47 155.762 266.419 155.458 270.847C154.85 279.79 158.801 287.213 166.789 291.424C174.559 295.548 183.676 295.939 191.968 298.674C199.695 301.235 205.338 307.053 212.718 310.048C222.226 313.912 226.523 301.973 236.204 303.84C237.767 304.144 248.533 305.62 249.705 306.705C250.357 307.313 246.667 314.042 247.144 314.433C249.792 316.56 256.738 315.561 260.124 315.344C271.845 314.65 288.863 313.217 291.424 328.541C292.553 335.401 289.34 341.652 288.472 348.294C287.344 357.237 294.984 359.624 301.366 363.228C316.473 371.693 314.954 393.312 314.302 408.159C313.825 418.838 314.563 429.214 315.084 439.85C315.518 449.531 315.04 460.687 318.904 469.76C322.464 478.052 329.627 484.303 332.752 492.856C335.921 501.451 333.49 510.654 335.14 519.467C348.554 515.256 345.906 489.296 346.557 478.573C347.122 469.326 350.551 460.166 356.976 453.394C362.793 447.273 372.908 443.626 375.774 435.248C377.25 430.907 377.771 426.262 379.29 421.921C380.809 417.536 383.284 413.629 385.845 409.809C389.058 404.99 392.4 400.345 393.92 394.658C395.352 389.231 394.701 383.761 395.309 378.248C396.481 367.829 403.427 363.184 410.243 356.195C413.846 352.505 417.015 347.773 413.672 342.694C411.198 338.96 406.119 337.484 401.951 336.833Z" fill="#8DC6BB"/>
    <path d="M475.925 161.796C478.877 170.131 483.435 177.728 485.519 186.411C489.513 202.951 477.661 212.892 469.196 225.265C466.982 228.477 465.159 231.993 464.464 235.857C463.422 241.631 465.853 245.451 468.024 250.53C470.108 255.479 469.5 259.343 468.892 264.509C468.241 270.066 472.365 272.801 476.533 275.492C480.006 277.706 483.479 279.833 486.127 283.046C487.473 284.652 488.645 286.475 489.469 288.385C490.338 290.469 490.468 293.334 491.814 295.158C495.113 299.716 502.971 297.198 507.485 296.417C511.783 295.679 516.211 295.331 520.596 295.679C526.847 296.156 532.577 298.24 538.134 300.845C537.917 297.285 537.657 293.725 537.309 290.165C531.926 237.55 508.875 190.969 474.579 155.849C474.753 157.629 475.187 159.626 475.925 161.796Z" fill="#8DC6BB"/>
    <path opacity="0.32" d="M537.309 290.078C534.618 263.814 527.542 239.113 516.862 216.539C515.907 225.829 512.782 234.728 505.923 241.544C501.495 245.929 495.113 247.882 490.859 252.223C485.432 257.823 492.769 264.075 495.677 268.676C500.757 276.664 495.591 282.655 488.992 287.3C489.166 287.604 489.296 287.951 489.469 288.255C490.338 290.339 490.468 293.204 491.814 295.027C495.113 299.586 502.971 297.068 507.485 296.286C511.783 295.548 516.211 295.201 520.596 295.548C526.847 296.026 532.578 298.11 538.134 300.714C537.961 297.198 537.7 293.638 537.309 290.078Z" fill="#8DC6BB"/>
    <path d="M425.958 202.256C421.834 208.551 408.246 212.111 415.756 218.319C418.795 220.836 429.387 219.621 432.73 218.709C438.287 217.19 437.462 210.939 442.715 208.551C447.099 206.511 454.827 208.073 456.129 202.907C457.649 196.743 454.957 189.102 450.225 185.108C441.369 177.642 432.513 182.504 427.043 190.057C425.133 192.706 428.085 199.044 425.958 202.256Z" fill="#8DC6BB"/>
    <path opacity="0.65" d="M344.864 113.913C373.69 118.905 401.039 129.411 425.784 145.039C429.561 147.427 433.077 141.436 429.301 139.048C404.122 123.116 376.078 112.307 346.731 107.227C342.346 106.446 340.48 113.175 344.864 113.913Z" fill="#8CCFFF"/>
    <path opacity="0.65" d="M438.417 154.243C444.799 157.498 450.268 161.796 455 167.223C457.952 170.609 462.858 165.66 459.906 162.317C454.87 156.5 448.792 151.768 441.933 148.252C437.94 146.211 434.423 152.202 438.417 154.243Z" fill="#8CCFFF"/>
    <path opacity="0.2" d="M473.407 280.354C429.691 288.603 383.935 285.173 341.478 272.28C298.023 259.039 257.346 235.423 226.827 201.518C211.807 184.805 199.695 165.877 193.053 144.301C191.099 137.963 189.623 131.495 188.495 125.026C120.902 169.827 79.878 249.662 88.6906 335.922C101.367 459.819 212.024 549.986 335.922 537.309C459.819 524.633 549.986 413.976 537.309 290.079C536.311 280.441 534.748 270.977 532.621 261.774C513.693 270.196 493.854 276.491 473.407 280.354Z" fill="#9D1FFF"/>
    <path opacity="0.65" d="M485.996 228.39C488.471 223.615 491.249 219.1 494.418 214.802C497.067 211.199 491.032 207.726 488.428 211.286C485.258 215.584 482.48 220.142 480.006 224.874C477.965 228.868 483.956 232.384 485.996 228.39Z" fill="#8CCFFF"/>
    <path d="M217.884 175.08C217.841 175.08 217.841 175.08 217.798 175.08C217.537 175.037 217.364 174.776 217.407 174.516C217.407 174.473 217.537 173.648 217.928 172.172C218.015 171.911 218.275 171.738 218.536 171.824C218.796 171.911 218.97 172.172 218.883 172.432C218.536 173.865 218.405 174.69 218.405 174.69C218.319 174.907 218.102 175.08 217.884 175.08ZM219.664 168.308C219.621 168.308 219.578 168.308 219.491 168.265C219.23 168.178 219.1 167.917 219.187 167.657C219.404 166.962 219.664 166.224 219.968 165.443C220.055 165.182 220.359 165.052 220.619 165.139C220.88 165.226 221.01 165.53 220.923 165.79C220.619 166.572 220.402 167.266 220.142 167.961C220.098 168.178 219.881 168.308 219.664 168.308ZM222.226 161.84C222.139 161.84 222.095 161.84 222.009 161.796C221.748 161.666 221.661 161.406 221.748 161.145C222.052 160.45 222.356 159.756 222.703 159.018C222.833 158.757 223.137 158.671 223.354 158.801C223.615 158.931 223.702 159.192 223.571 159.452C223.224 160.147 222.92 160.885 222.616 161.536C222.573 161.709 222.399 161.84 222.226 161.84ZM225.308 155.588C225.221 155.588 225.134 155.588 225.091 155.545C224.83 155.415 224.744 155.111 224.874 154.894C225.221 154.243 225.612 153.548 226.002 152.853C226.133 152.636 226.437 152.55 226.697 152.68C226.914 152.81 227.001 153.114 226.871 153.374C226.48 154.069 226.089 154.72 225.742 155.371C225.655 155.502 225.482 155.588 225.308 155.588ZM228.868 149.641C228.781 149.641 228.694 149.598 228.607 149.554C228.39 149.424 228.303 149.12 228.477 148.86C228.911 148.208 229.345 147.557 229.779 146.906C229.953 146.689 230.257 146.646 230.474 146.776C230.691 146.949 230.734 147.253 230.604 147.47C230.17 148.122 229.736 148.729 229.302 149.38C229.172 149.554 229.041 149.641 228.868 149.641ZM232.905 143.954C232.818 143.954 232.688 143.911 232.601 143.867C232.384 143.693 232.341 143.39 232.514 143.173C232.992 142.565 233.469 141.957 233.947 141.349C234.121 141.132 234.424 141.089 234.641 141.262C234.859 141.436 234.902 141.74 234.728 141.957C234.251 142.565 233.773 143.173 233.296 143.78C233.209 143.911 233.035 143.954 232.905 143.954ZM237.376 138.614C237.246 138.614 237.159 138.571 237.029 138.484C236.812 138.31 236.812 138.007 236.986 137.789C237.507 137.225 238.028 136.661 238.549 136.096C238.722 135.879 239.069 135.879 239.243 136.096C239.46 136.27 239.46 136.574 239.243 136.791C238.722 137.355 238.201 137.92 237.68 138.484C237.637 138.571 237.507 138.614 237.376 138.614ZM242.195 133.622C242.065 133.622 241.935 133.579 241.848 133.492C241.674 133.275 241.674 132.971 241.848 132.797C242.412 132.276 242.977 131.755 243.541 131.191C243.758 131.017 244.062 131.017 244.235 131.234C244.409 131.451 244.409 131.755 244.192 131.929C243.628 132.45 243.063 132.971 242.499 133.492C242.456 133.579 242.325 133.622 242.195 133.622ZM247.405 129.02C247.274 129.02 247.144 128.977 247.014 128.847C246.84 128.63 246.884 128.326 247.057 128.152C247.665 127.674 248.273 127.154 248.881 126.676C249.098 126.502 249.402 126.546 249.575 126.763C249.749 126.98 249.705 127.284 249.488 127.457C248.881 127.935 248.273 128.412 247.708 128.89C247.622 128.977 247.491 129.02 247.405 129.02ZM252.874 124.766C252.701 124.766 252.571 124.679 252.484 124.549C252.31 124.332 252.354 124.028 252.614 123.854C253.222 123.42 253.873 122.943 254.524 122.508C254.741 122.335 255.045 122.422 255.219 122.639C255.392 122.856 255.306 123.16 255.088 123.333C254.437 123.767 253.83 124.202 253.222 124.679C253.092 124.722 252.961 124.766 252.874 124.766ZM258.648 120.859C258.475 120.859 258.344 120.772 258.214 120.642C258.084 120.425 258.127 120.121 258.388 119.947C259.039 119.556 259.69 119.122 260.385 118.732C260.602 118.601 260.906 118.645 261.079 118.905C261.21 119.122 261.123 119.426 260.906 119.6C260.254 119.991 259.603 120.381 258.952 120.815C258.822 120.859 258.735 120.859 258.648 120.859ZM264.639 117.342C264.465 117.342 264.292 117.256 264.205 117.082C264.075 116.822 264.162 116.561 264.422 116.431C265.117 116.04 265.768 115.693 266.462 115.346C266.723 115.215 266.983 115.302 267.114 115.563C267.244 115.823 267.157 116.084 266.897 116.214C266.202 116.561 265.551 116.952 264.856 117.299C264.813 117.342 264.726 117.342 264.639 117.342ZM270.847 114.217C270.673 114.217 270.5 114.13 270.413 113.956C270.283 113.696 270.413 113.435 270.63 113.305C271.325 112.958 272.019 112.654 272.757 112.35C273.018 112.22 273.278 112.35 273.408 112.611C273.539 112.871 273.408 113.131 273.148 113.262C272.453 113.566 271.759 113.913 271.064 114.217C270.977 114.173 270.89 114.217 270.847 114.217ZM277.185 111.395C277.012 111.395 276.794 111.265 276.708 111.091C276.621 110.831 276.708 110.57 276.968 110.44C277.663 110.136 278.401 109.876 279.139 109.572C279.399 109.485 279.66 109.615 279.79 109.832C279.877 110.093 279.746 110.353 279.529 110.483C278.791 110.744 278.097 111.048 277.402 111.352C277.315 111.395 277.229 111.395 277.185 111.395ZM283.697 108.921C283.48 108.921 283.306 108.79 283.219 108.573C283.133 108.313 283.263 108.052 283.523 107.965C284.261 107.705 284.999 107.445 285.737 107.227C285.998 107.141 286.258 107.271 286.345 107.531C286.432 107.792 286.302 108.052 286.041 108.139C285.303 108.4 284.565 108.617 283.871 108.877C283.784 108.921 283.74 108.921 283.697 108.921ZM290.296 106.793C290.078 106.793 289.905 106.663 289.818 106.446C289.731 106.186 289.905 105.925 290.165 105.838C290.903 105.621 291.641 105.404 292.379 105.187C292.64 105.1 292.9 105.274 292.987 105.534C293.074 105.795 292.9 106.055 292.64 106.142C291.902 106.359 291.164 106.576 290.426 106.793C290.382 106.793 290.339 106.793 290.296 106.793ZM296.981 104.927C296.764 104.927 296.547 104.796 296.503 104.536C296.417 104.275 296.59 104.015 296.851 103.928C297.589 103.755 298.327 103.537 299.108 103.364C299.369 103.32 299.629 103.451 299.716 103.711C299.759 103.972 299.629 104.232 299.369 104.319C298.631 104.493 297.849 104.666 297.111 104.883C297.068 104.927 297.024 104.927 296.981 104.927ZM303.753 103.364C303.536 103.364 303.319 103.19 303.276 102.973C303.232 102.713 303.406 102.452 303.666 102.409C304.404 102.235 305.186 102.105 305.924 101.931C306.184 101.888 306.445 102.061 306.488 102.322C306.532 102.582 306.358 102.843 306.097 102.886C305.316 103.017 304.578 103.19 303.84 103.364C303.84 103.364 303.797 103.364 303.753 103.364ZM310.612 102.105C310.395 102.105 310.178 101.931 310.135 101.714C310.091 101.454 310.265 101.193 310.526 101.15C311.264 101.02 312.045 100.889 312.826 100.759C313.087 100.716 313.347 100.889 313.391 101.15C313.434 101.41 313.26 101.671 313 101.714C312.219 101.844 311.481 101.975 310.699 102.105C310.656 102.105 310.612 102.105 310.612 102.105ZM317.471 101.063C317.211 101.063 317.037 100.889 316.994 100.629C316.95 100.368 317.168 100.108 317.428 100.064C318.209 99.9777 318.947 99.8474 319.729 99.7606C319.989 99.7172 320.25 99.9343 320.293 100.195C320.337 100.455 320.12 100.716 319.859 100.759C319.078 100.846 318.34 100.933 317.558 101.063C317.515 101.063 317.471 101.063 317.471 101.063ZM324.374 100.238C324.113 100.238 323.896 100.064 323.896 99.804C323.853 99.5436 324.07 99.2831 324.33 99.2831C325.112 99.1963 325.85 99.1528 326.631 99.066C326.892 99.066 327.152 99.2397 327.152 99.5001C327.196 99.7606 326.979 100.021 326.718 100.021C325.937 100.108 325.199 100.151 324.417 100.238H324.374ZM331.276 99.6304C331.016 99.6304 330.799 99.4133 330.799 99.1528C330.799 98.8924 330.973 98.6319 331.276 98.6319C332.058 98.5885 332.796 98.5451 333.577 98.5017C333.881 98.5017 334.098 98.6753 334.098 98.9792C334.098 99.2397 333.925 99.5001 333.621 99.5001C332.883 99.5436 332.101 99.587 331.276 99.6304C331.32 99.6304 331.32 99.6304 331.276 99.6304ZM338.222 99.2397C337.962 99.2397 337.745 99.0226 337.745 98.7621C337.745 98.5017 337.962 98.2412 338.222 98.2412C339.004 98.1978 339.785 98.1978 340.523 98.1544C340.827 98.1544 341.001 98.3714 341.044 98.6319C341.044 98.8924 340.827 99.1528 340.567 99.1528C339.785 99.1963 339.004 99.2397 338.222 99.2397C338.266 99.2397 338.222 99.2397 338.222 99.2397ZM345.168 99.066C344.908 99.066 344.691 98.849 344.691 98.5885C344.691 98.328 344.908 98.111 345.168 98.0675C345.95 98.0675 346.731 98.0676 347.469 98.0241C347.73 98.0241 347.947 98.2412 347.947 98.5017C347.947 98.7621 347.73 98.9792 347.469 98.9792C346.731 99.066 345.95 99.066 345.168 99.066C345.212 99.066 345.168 99.066 345.168 99.066Z" fill="#2D1958"/>
    <path d="M222.269 174.907C222.312 177.164 220.576 179.031 218.319 179.074C216.061 179.118 214.194 177.381 214.151 175.124C214.108 172.866 215.844 171 218.102 170.956C220.359 170.913 222.226 172.693 222.269 174.907Z" fill="#2D1958"/>
    <path d="M368.784 329.974C368.828 332.231 367.091 334.098 364.834 334.142C362.576 334.185 360.71 332.449 360.666 330.191C360.623 327.934 362.359 326.067 364.617 326.024C366.874 325.98 368.741 327.717 368.784 329.974Z" fill="#2D1958"/>
    <path d="M504.403 286.171C504.447 288.429 502.71 290.296 500.453 290.339C498.195 290.382 496.329 288.646 496.285 286.388C496.242 284.131 497.978 282.264 500.236 282.221C502.493 282.178 504.36 283.914 504.403 286.171Z" fill="#2D1958"/>
    <path d="M274.928 267.114C274.971 269.371 273.235 271.238 270.977 271.281C268.72 271.325 266.853 269.588 266.81 267.331C266.766 265.073 268.503 263.207 270.76 263.163C273.018 263.076 274.884 264.856 274.928 267.114Z" fill="#2D1958"/>
    <path d="M442.411 194.355C442.454 196.613 440.718 198.479 438.46 198.523C436.203 198.566 434.336 196.83 434.293 194.572C434.249 192.315 435.986 190.448 438.243 190.405C440.457 190.361 442.324 192.098 442.411 194.355Z" fill="#2D1958"/>
    <path d="M496.589 286.215C496.546 286.215 496.546 286.215 496.502 286.215C495.721 286.085 494.983 285.911 494.201 285.781C493.941 285.737 493.767 285.477 493.811 285.216C493.854 284.956 494.115 284.782 494.375 284.826C495.113 284.999 495.851 285.13 496.633 285.26C496.893 285.303 497.067 285.564 497.023 285.824C497.023 286.041 496.85 286.215 496.589 286.215ZM489.817 284.695C489.773 284.695 489.73 284.695 489.687 284.695C488.949 284.478 488.167 284.261 487.429 284.044C487.169 283.957 487.038 283.697 487.082 283.437C487.169 283.176 487.429 283.046 487.69 283.089C488.428 283.306 489.166 283.523 489.904 283.74C490.164 283.827 490.338 284.088 490.251 284.348C490.251 284.522 490.034 284.695 489.817 284.695ZM483.218 282.525C483.175 282.525 483.088 282.525 483.045 282.481C482.307 282.221 481.612 281.917 480.874 281.613C480.613 281.526 480.527 281.222 480.613 280.962C480.7 280.702 481.004 280.615 481.265 280.702C481.959 281.005 482.654 281.266 483.392 281.57C483.652 281.657 483.783 281.96 483.696 282.221C483.609 282.395 483.435 282.525 483.218 282.525ZM476.88 279.703C476.793 279.703 476.706 279.703 476.663 279.66C475.968 279.312 475.274 278.922 474.623 278.574C474.406 278.444 474.319 278.14 474.449 277.923C474.579 277.706 474.883 277.619 475.1 277.75C475.751 278.14 476.446 278.488 477.141 278.835C477.401 278.965 477.488 279.269 477.358 279.486C477.227 279.616 477.054 279.703 476.88 279.703ZM470.889 276.187C470.802 276.187 470.716 276.143 470.629 276.1C469.978 275.666 469.326 275.232 468.719 274.754C468.502 274.58 468.458 274.277 468.588 274.06C468.762 273.842 469.066 273.799 469.283 273.929C469.891 274.363 470.542 274.798 471.15 275.232C471.367 275.362 471.454 275.709 471.28 275.926C471.193 276.1 471.063 276.187 470.889 276.187ZM465.333 272.019C465.202 272.019 465.115 271.976 465.029 271.889C464.421 271.368 463.856 270.847 463.292 270.326C463.075 270.152 463.075 269.849 463.249 269.631C463.422 269.414 463.726 269.414 463.943 269.588C464.508 270.109 465.072 270.63 465.68 271.108C465.897 271.281 465.897 271.585 465.723 271.802C465.636 271.932 465.506 272.019 465.333 272.019ZM460.34 267.244C460.21 267.244 460.08 267.2 459.993 267.07C459.472 266.506 458.951 265.941 458.43 265.334C458.256 265.117 458.256 264.813 458.473 264.639C458.69 264.465 458.994 264.465 459.168 264.683C459.689 265.247 460.167 265.811 460.731 266.376C460.904 266.593 460.904 266.897 460.731 267.07C460.557 267.157 460.427 267.244 460.34 267.244ZM455.869 261.904C455.738 261.904 455.565 261.817 455.478 261.687C455 261.079 454.566 260.428 454.089 259.82C453.915 259.603 454.002 259.299 454.219 259.126C454.436 258.952 454.74 259.039 454.914 259.256C455.348 259.864 455.825 260.515 456.259 261.123C456.433 261.34 456.39 261.644 456.173 261.817C456.042 261.861 455.956 261.904 455.869 261.904ZM451.962 256.174C451.788 256.174 451.614 256.087 451.527 255.957C451.137 255.306 450.746 254.611 450.355 253.96C450.225 253.743 450.312 253.439 450.529 253.309C450.746 253.178 451.05 253.265 451.18 253.482C451.571 254.133 451.962 254.828 452.352 255.479C452.483 255.696 452.439 256 452.179 256.174C452.135 256.13 452.048 256.174 451.962 256.174ZM448.619 250.053C448.445 250.053 448.272 249.966 448.185 249.792C447.837 249.098 447.49 248.403 447.186 247.665C447.056 247.405 447.186 247.144 447.447 247.014C447.707 246.884 447.968 247.014 448.098 247.274C448.402 247.969 448.749 248.664 449.096 249.358C449.227 249.619 449.096 249.879 448.879 250.009C448.749 250.053 448.662 250.053 448.619 250.053ZM445.797 243.715C445.58 243.715 445.406 243.584 445.32 243.411C445.016 242.673 444.755 241.978 444.495 241.24C444.408 240.98 444.538 240.719 444.799 240.589C445.059 240.502 445.32 240.632 445.45 240.893C445.71 241.631 445.971 242.325 446.275 243.063C446.361 243.324 446.231 243.584 446.014 243.715C445.927 243.671 445.841 243.715 445.797 243.715ZM443.496 237.116C443.279 237.116 443.106 236.986 443.019 236.769C442.802 236.031 442.541 235.293 442.368 234.555C442.281 234.294 442.454 234.034 442.715 233.947C442.975 233.86 443.236 234.034 443.323 234.294C443.54 235.032 443.757 235.77 443.974 236.508C444.061 236.769 443.93 237.029 443.67 237.116C443.583 237.116 443.54 237.116 443.496 237.116ZM441.63 230.431C441.413 230.431 441.195 230.3 441.152 230.04C440.978 229.258 440.805 228.52 440.631 227.782C440.588 227.522 440.761 227.261 441.022 227.175C441.282 227.131 441.543 227.305 441.63 227.565C441.803 228.303 441.977 229.041 442.151 229.823C442.194 230.083 442.064 230.344 441.803 230.431C441.716 230.431 441.673 230.431 441.63 230.431ZM440.197 223.615C439.98 223.615 439.763 223.441 439.719 223.224C439.589 222.443 439.459 221.705 439.329 220.923C439.285 220.663 439.459 220.402 439.719 220.359C439.98 220.316 440.24 220.489 440.284 220.75C440.414 221.488 440.544 222.269 440.674 223.007C440.718 223.268 440.544 223.528 440.284 223.571C440.24 223.615 440.24 223.615 440.197 223.615ZM439.155 216.712C438.895 216.712 438.678 216.539 438.678 216.278C438.591 215.497 438.504 214.715 438.417 213.977C438.374 213.717 438.591 213.456 438.851 213.456C439.112 213.456 439.372 213.63 439.372 213.891C439.459 214.629 439.546 215.41 439.633 216.191C439.676 216.452 439.459 216.712 439.199 216.756C439.199 216.712 439.155 216.712 439.155 216.712ZM438.504 209.81C438.243 209.81 438.026 209.593 438.026 209.332C437.983 208.551 437.94 207.77 437.896 206.988C437.896 206.728 438.113 206.467 438.374 206.467C438.634 206.467 438.895 206.684 438.895 206.945C438.938 207.683 438.981 208.464 439.025 209.246C438.981 209.549 438.808 209.766 438.504 209.81ZM438.2 202.821C437.94 202.821 437.722 202.603 437.722 202.343C437.722 201.648 437.722 200.997 437.722 200.389V199.999C437.722 199.738 437.94 199.521 438.2 199.521C438.461 199.521 438.678 199.738 438.678 199.999V200.389C438.678 200.997 438.678 201.648 438.678 202.343C438.678 202.603 438.461 202.821 438.2 202.821ZM438.287 195.875C437.983 195.875 437.766 195.614 437.809 195.354C437.809 195.05 437.853 194.833 437.853 194.703L436.984 193.965C436.767 193.791 436.724 193.487 436.898 193.27C437.071 193.053 437.375 193.009 437.592 193.183L438.678 194.051C438.808 194.138 438.851 194.312 438.851 194.485C438.851 194.485 438.808 194.789 438.808 195.397C438.764 195.658 438.547 195.875 438.287 195.875ZM433.642 191.186C433.555 191.186 433.425 191.143 433.338 191.099C432.73 190.622 432.122 190.144 431.515 189.71C431.298 189.536 431.254 189.233 431.428 189.016C431.601 188.798 431.905 188.755 432.122 188.929C432.73 189.406 433.338 189.84 433.989 190.318C434.206 190.492 434.25 190.795 434.076 191.013C433.902 191.143 433.772 191.186 433.642 191.186ZM428.042 187.062C427.955 187.062 427.825 187.019 427.738 186.975C427.13 186.541 426.479 186.107 425.828 185.673C425.611 185.499 425.567 185.195 425.697 184.978C425.871 184.761 426.175 184.718 426.392 184.848C427.043 185.282 427.651 185.716 428.302 186.194C428.519 186.367 428.563 186.671 428.432 186.888C428.346 186.975 428.172 187.062 428.042 187.062ZM422.268 183.155C422.181 183.155 422.094 183.112 422.007 183.068C421.356 182.634 420.705 182.243 420.054 181.809C419.837 181.679 419.75 181.375 419.88 181.115C420.01 180.898 420.314 180.811 420.575 180.941C421.226 181.332 421.877 181.766 422.528 182.2C422.745 182.33 422.832 182.634 422.659 182.894C422.615 183.068 422.441 183.155 422.268 183.155ZM416.364 179.508C416.277 179.508 416.19 179.508 416.103 179.422C415.452 179.031 414.758 178.64 414.106 178.249C413.889 178.119 413.803 177.815 413.933 177.598C414.063 177.381 414.367 177.294 414.584 177.425C415.235 177.815 415.93 178.206 416.581 178.597C416.798 178.727 416.885 179.031 416.755 179.291C416.711 179.422 416.537 179.508 416.364 179.508ZM410.33 176.035C410.243 176.035 410.156 176.035 410.113 175.992C409.418 175.645 408.767 175.254 408.072 174.907C407.812 174.776 407.725 174.473 407.855 174.255C407.985 173.995 408.289 173.908 408.506 174.038C409.201 174.386 409.895 174.776 410.547 175.124C410.807 175.254 410.894 175.558 410.764 175.775C410.677 175.949 410.503 176.035 410.33 176.035ZM219.621 175.471C219.447 175.471 219.274 175.384 219.187 175.211C219.057 174.95 219.187 174.69 219.404 174.559C219.404 174.559 220.142 174.212 221.531 173.604C221.792 173.474 222.052 173.604 222.182 173.865C222.269 174.125 222.182 174.386 221.922 174.516C220.533 175.124 219.795 175.471 219.795 175.471C219.751 175.471 219.664 175.471 219.621 175.471ZM404.165 172.866C404.078 172.866 404.035 172.866 403.948 172.823C403.253 172.476 402.559 172.128 401.864 171.824C401.604 171.694 401.517 171.434 401.647 171.173C401.777 170.913 402.081 170.826 402.298 170.956C402.993 171.303 403.688 171.607 404.382 171.955C404.643 172.085 404.729 172.389 404.599 172.606C404.512 172.779 404.339 172.866 404.165 172.866ZM226.003 172.736C225.829 172.736 225.612 172.606 225.525 172.432C225.438 172.172 225.568 171.911 225.785 171.781C226.48 171.521 227.175 171.217 227.956 170.913C228.217 170.826 228.477 170.956 228.607 171.173C228.694 171.434 228.564 171.694 228.303 171.824C227.522 172.128 226.827 172.389 226.133 172.649C226.133 172.736 226.089 172.736 226.003 172.736ZM232.514 170.262C232.297 170.262 232.124 170.131 232.037 169.958C231.95 169.697 232.08 169.437 232.341 169.307C233.035 169.046 233.773 168.786 234.511 168.525C234.772 168.438 235.032 168.569 235.119 168.829C235.206 169.089 235.076 169.35 234.815 169.437C234.077 169.697 233.339 169.958 232.645 170.218C232.645 170.262 232.601 170.262 232.514 170.262ZM397.827 169.958C397.74 169.958 397.697 169.958 397.61 169.914C396.915 169.61 396.177 169.307 395.483 169.003C395.222 168.916 395.135 168.612 395.222 168.351C395.309 168.091 395.613 168.004 395.873 168.091C396.568 168.395 397.306 168.699 398.001 169.003C398.261 169.133 398.348 169.393 398.261 169.654C398.218 169.827 398.044 169.958 397.827 169.958ZM239.113 168.004C238.896 168.004 238.722 167.874 238.635 167.657C238.549 167.396 238.679 167.136 238.939 167.049C239.677 166.832 240.415 166.572 241.153 166.311C241.414 166.224 241.674 166.355 241.761 166.615C241.848 166.875 241.718 167.136 241.457 167.223C240.719 167.483 239.981 167.7 239.243 167.961C239.2 168.004 239.156 168.004 239.113 168.004ZM391.402 167.266C391.359 167.266 391.272 167.266 391.228 167.223C390.49 166.962 389.796 166.658 389.058 166.398C388.797 166.311 388.667 166.007 388.754 165.747C388.841 165.486 389.145 165.356 389.405 165.443C390.143 165.703 390.838 166.007 391.576 166.268C391.836 166.355 391.966 166.658 391.836 166.919C391.793 167.136 391.619 167.266 391.402 167.266ZM245.755 165.877C245.538 165.877 245.364 165.747 245.277 165.53C245.191 165.269 245.364 165.009 245.625 164.922C246.363 164.705 247.101 164.488 247.839 164.271C248.099 164.184 248.36 164.358 248.446 164.618C248.533 164.879 248.36 165.139 248.099 165.226C247.361 165.443 246.623 165.66 245.885 165.877C245.842 165.877 245.798 165.877 245.755 165.877ZM384.89 164.835C384.847 164.835 384.76 164.835 384.717 164.792C383.979 164.531 383.241 164.271 382.546 164.054C382.285 163.967 382.155 163.706 382.242 163.446C382.329 163.185 382.589 163.055 382.85 163.142C383.588 163.403 384.326 163.62 385.064 163.88C385.324 163.967 385.455 164.271 385.368 164.488C385.281 164.705 385.107 164.835 384.89 164.835ZM252.44 163.967C252.223 163.967 252.006 163.837 251.963 163.62C251.876 163.359 252.05 163.099 252.31 163.012C253.048 162.795 253.786 162.621 254.568 162.404C254.828 162.317 255.089 162.491 255.175 162.751C255.262 163.012 255.089 163.272 254.828 163.359C254.09 163.576 253.309 163.75 252.614 163.967C252.527 163.967 252.484 163.967 252.44 163.967ZM378.292 162.708C378.248 162.708 378.205 162.708 378.161 162.708C377.423 162.491 376.685 162.274 375.947 162.057C375.687 161.97 375.557 161.709 375.6 161.449C375.687 161.189 375.947 161.015 376.208 161.102C376.946 161.319 377.684 161.536 378.422 161.753C378.682 161.84 378.813 162.1 378.769 162.361C378.682 162.578 378.509 162.708 378.292 162.708ZM259.169 162.187C258.952 162.187 258.735 162.057 258.692 161.796C258.605 161.536 258.779 161.275 259.039 161.189C259.777 161.015 260.515 160.798 261.296 160.624C261.557 160.581 261.817 160.711 261.904 160.971C261.948 161.232 261.817 161.492 261.557 161.579C260.819 161.753 260.037 161.927 259.299 162.144C259.256 162.187 259.213 162.187 259.169 162.187ZM371.606 160.798C371.563 160.798 371.519 160.798 371.476 160.798C370.738 160.581 370 160.407 369.218 160.233C368.958 160.147 368.784 159.886 368.871 159.626C368.958 159.365 369.218 159.192 369.479 159.278C370.217 159.452 370.998 159.669 371.736 159.843C371.997 159.93 372.17 160.19 372.084 160.451C371.997 160.668 371.823 160.798 371.606 160.798ZM265.941 160.624C265.724 160.624 265.507 160.451 265.464 160.233C265.421 159.973 265.594 159.713 265.855 159.626C266.593 159.452 267.374 159.278 268.112 159.148C268.373 159.105 268.633 159.278 268.676 159.539C268.72 159.799 268.546 160.06 268.286 160.103C267.504 160.277 266.766 160.451 266.028 160.581C265.985 160.581 265.985 160.624 265.941 160.624ZM272.757 159.192C272.54 159.192 272.323 159.018 272.28 158.801C272.236 158.54 272.41 158.28 272.67 158.237C273.408 158.106 274.19 157.933 274.971 157.802C275.232 157.759 275.492 157.933 275.536 158.193C275.579 158.454 275.405 158.714 275.145 158.757C274.363 158.888 273.625 159.061 272.887 159.192C272.801 159.192 272.757 159.192 272.757 159.192ZM364.834 159.148C364.79 159.148 364.747 159.148 364.747 159.148C364.009 158.975 363.228 158.801 362.49 158.671C362.229 158.627 362.055 158.367 362.099 158.106C362.142 157.846 362.403 157.672 362.663 157.716C363.401 157.889 364.183 158.019 364.921 158.193C365.181 158.236 365.355 158.497 365.311 158.801C365.268 158.974 365.051 159.148 364.834 159.148ZM279.573 157.933C279.356 157.933 279.139 157.759 279.095 157.542C279.052 157.281 279.226 157.021 279.486 156.978C280.224 156.847 281.005 156.717 281.787 156.587C282.047 156.543 282.308 156.717 282.351 156.978C282.395 157.238 282.221 157.498 281.96 157.542C281.179 157.672 280.441 157.802 279.66 157.933C279.66 157.933 279.616 157.933 279.573 157.933ZM358.018 157.759C357.975 157.759 357.975 157.759 357.931 157.759C357.193 157.629 356.412 157.498 355.674 157.368C355.413 157.325 355.24 157.064 355.283 156.804C355.327 156.543 355.587 156.37 355.848 156.413C356.629 156.543 357.367 156.674 358.148 156.804C358.409 156.847 358.583 157.108 358.539 157.368C358.452 157.585 358.279 157.759 358.018 157.759ZM286.475 156.847C286.215 156.847 286.041 156.674 285.998 156.413C285.954 156.153 286.128 155.892 286.432 155.849C287.213 155.762 287.951 155.632 288.733 155.545C288.993 155.502 289.254 155.719 289.297 155.979C289.341 156.24 289.123 156.5 288.863 156.543C288.082 156.63 287.344 156.76 286.562 156.847C286.519 156.847 286.475 156.847 286.475 156.847ZM351.159 156.63C351.116 156.63 351.116 156.63 351.072 156.63C350.291 156.5 349.553 156.413 348.771 156.283C348.511 156.24 348.294 155.979 348.337 155.719C348.381 155.458 348.641 155.241 348.902 155.284C349.683 155.371 350.421 155.502 351.203 155.632C351.463 155.675 351.637 155.936 351.637 156.196C351.637 156.457 351.42 156.63 351.159 156.63ZM293.378 155.979C293.117 155.979 292.9 155.805 292.9 155.545C292.857 155.284 293.074 155.024 293.334 154.981C294.116 154.894 294.854 154.807 295.635 154.72C295.896 154.677 296.156 154.894 296.156 155.154C296.2 155.415 295.983 155.675 295.722 155.675C294.941 155.762 294.203 155.849 293.421 155.936C293.421 155.979 293.378 155.979 293.378 155.979ZM344.257 155.719H344.213C343.432 155.632 342.694 155.545 341.912 155.458C341.652 155.415 341.435 155.198 341.478 154.937C341.522 154.677 341.782 154.46 341.999 154.503C342.781 154.59 343.519 154.677 344.3 154.764C344.56 154.807 344.778 155.024 344.734 155.328C344.734 155.545 344.517 155.719 344.257 155.719ZM300.28 155.284C300.02 155.284 299.803 155.111 299.803 154.85C299.759 154.59 299.976 154.329 300.237 154.329C301.018 154.243 301.756 154.199 302.538 154.156C302.798 154.112 303.059 154.329 303.059 154.59C303.059 154.85 302.885 155.111 302.625 155.111C301.887 155.154 301.105 155.241 300.28 155.284C300.324 155.284 300.28 155.284 300.28 155.284ZM337.354 155.067C337.311 155.067 337.311 155.067 337.354 155.067C336.529 155.024 335.791 154.937 335.01 154.894C334.749 154.894 334.532 154.633 334.532 154.373C334.532 154.112 334.749 153.895 335.053 153.895C335.835 153.939 336.616 153.982 337.354 154.069C337.615 154.069 337.832 154.329 337.788 154.59C337.832 154.85 337.615 155.067 337.354 155.067ZM307.226 154.807C306.966 154.807 306.749 154.59 306.749 154.329C306.749 154.069 306.922 153.808 307.226 153.808C308.008 153.765 308.789 153.722 309.527 153.678C309.788 153.678 310.048 153.895 310.048 154.156C310.048 154.416 309.831 154.677 309.57 154.677C308.789 154.72 308.008 154.764 307.226 154.807ZM330.408 154.633C329.627 154.59 328.845 154.546 328.064 154.546C327.803 154.546 327.586 154.329 327.586 154.026C327.586 153.765 327.803 153.548 328.107 153.548C328.889 153.591 329.67 153.591 330.452 153.635C330.712 153.635 330.929 153.895 330.929 154.156C330.886 154.416 330.669 154.633 330.408 154.633ZM314.172 154.503C313.912 154.503 313.695 154.286 313.695 154.026C313.695 153.765 313.912 153.548 314.172 153.505C314.954 153.505 315.735 153.461 316.516 153.461C316.777 153.461 316.994 153.678 316.994 153.939C316.994 154.199 316.777 154.416 316.516 154.46C315.735 154.46 314.954 154.46 314.172 154.503ZM323.462 154.416C322.681 154.416 321.899 154.416 321.161 154.416C320.901 154.416 320.684 154.199 320.684 153.939C320.684 153.678 320.901 153.461 321.161 153.461C321.943 153.461 322.724 153.461 323.506 153.461C323.766 153.461 323.983 153.678 323.983 153.939C323.94 154.199 323.723 154.416 323.462 154.416Z" fill="#2D1958"/>
    <path d="M364.096 326.631C363.879 326.631 363.662 326.458 363.618 326.241C363.488 325.459 363.314 324.721 363.184 323.983C363.141 323.723 363.314 323.462 363.575 323.419C363.835 323.375 364.096 323.549 364.139 323.81C364.313 324.548 364.443 325.329 364.573 326.11C364.617 326.371 364.443 326.631 364.183 326.675C364.139 326.631 364.096 326.631 364.096 326.631ZM362.576 319.859C362.359 319.859 362.142 319.729 362.099 319.512C361.882 318.774 361.708 318.036 361.491 317.298C361.404 317.037 361.578 316.777 361.838 316.69C362.099 316.603 362.359 316.777 362.446 317.037C362.663 317.775 362.88 318.513 363.054 319.295C363.141 319.555 362.967 319.816 362.707 319.903C362.663 319.859 362.62 319.859 362.576 319.859ZM360.493 313.217C360.276 313.217 360.102 313.087 360.015 312.913C359.755 312.175 359.494 311.481 359.19 310.743C359.103 310.482 359.234 310.222 359.451 310.091C359.711 310.005 359.972 310.135 360.102 310.352C360.406 311.046 360.666 311.784 360.927 312.522C361.014 312.783 360.883 313.043 360.623 313.174C360.623 313.217 360.579 313.217 360.493 313.217ZM357.844 306.792C357.671 306.792 357.497 306.705 357.41 306.532C357.063 305.837 356.759 305.142 356.369 304.491C356.238 304.231 356.325 303.97 356.586 303.84C356.846 303.71 357.107 303.797 357.237 304.057C357.584 304.752 357.931 305.446 358.279 306.141C358.409 306.401 358.279 306.662 358.062 306.792C357.975 306.792 357.931 306.792 357.844 306.792ZM354.545 300.714C354.372 300.714 354.198 300.628 354.111 300.497C353.72 299.846 353.286 299.195 352.896 298.544C352.765 298.327 352.809 298.023 353.026 297.849C353.243 297.719 353.547 297.762 353.72 297.979C354.154 298.631 354.545 299.282 354.979 299.933C355.11 300.15 355.066 300.454 354.806 300.628C354.719 300.671 354.632 300.714 354.545 300.714ZM350.638 294.984C350.508 294.984 350.334 294.897 350.247 294.81C349.77 294.203 349.292 293.595 348.815 293.031C348.641 292.813 348.685 292.51 348.858 292.336C349.075 292.162 349.379 292.206 349.553 292.379C350.03 292.987 350.551 293.595 351.029 294.203C351.202 294.42 351.159 294.724 350.942 294.897C350.855 294.941 350.725 294.984 350.638 294.984ZM346.08 289.731C345.95 289.731 345.819 289.688 345.733 289.601C345.212 289.037 344.647 288.516 344.083 287.995C343.866 287.821 343.866 287.474 344.083 287.3C344.257 287.126 344.604 287.083 344.778 287.3C345.342 287.821 345.906 288.385 346.427 288.95C346.601 289.167 346.601 289.471 346.427 289.644C346.34 289.688 346.21 289.731 346.08 289.731ZM341.001 284.999C340.87 284.999 340.784 284.956 340.697 284.869C340.089 284.392 339.525 283.914 338.917 283.436C338.7 283.263 338.656 282.959 338.83 282.742C339.004 282.525 339.308 282.481 339.525 282.655C340.132 283.133 340.74 283.61 341.348 284.131C341.565 284.305 341.608 284.609 341.435 284.826C341.261 284.912 341.131 284.999 341.001 284.999ZM335.401 280.875C335.314 280.875 335.227 280.832 335.14 280.788C334.489 280.354 333.838 279.964 333.187 279.529C332.969 279.399 332.883 279.095 333.013 278.835C333.143 278.618 333.447 278.531 333.707 278.661C334.359 279.052 335.01 279.486 335.661 279.92C335.878 280.05 335.965 280.398 335.791 280.615C335.704 280.788 335.574 280.875 335.401 280.875ZM329.41 277.315C329.323 277.315 329.236 277.315 329.193 277.272C328.498 276.925 327.847 276.577 327.152 276.23C326.892 276.1 326.805 275.796 326.935 275.579C327.065 275.318 327.369 275.232 327.586 275.362C328.281 275.709 328.976 276.056 329.67 276.404C329.931 276.534 330.017 276.838 329.887 277.055C329.757 277.229 329.627 277.315 329.41 277.315ZM323.158 274.363C323.115 274.363 323.028 274.363 322.985 274.32C322.29 274.016 321.552 273.756 320.858 273.452C320.597 273.365 320.467 273.061 320.554 272.801C320.64 272.54 320.944 272.41 321.205 272.497C321.943 272.757 322.637 273.061 323.375 273.365C323.636 273.452 323.766 273.756 323.636 274.016C323.506 274.233 323.332 274.363 323.158 274.363ZM316.603 271.932C316.56 271.932 316.516 271.932 316.473 271.889C315.735 271.672 314.997 271.411 314.259 271.194C313.998 271.107 313.868 270.847 313.912 270.587C313.998 270.326 314.259 270.152 314.519 270.239C315.257 270.456 315.995 270.673 316.733 270.934C316.994 271.021 317.124 271.281 317.037 271.542C316.994 271.802 316.82 271.932 316.603 271.932ZM309.918 270.066C309.874 270.066 309.831 270.066 309.787 270.066C309.049 269.892 308.268 269.718 307.53 269.545C307.27 269.501 307.096 269.241 307.139 268.98C307.183 268.72 307.443 268.546 307.704 268.59C308.442 268.763 309.223 268.937 309.961 269.111C310.222 269.154 310.395 269.458 310.308 269.718C310.352 269.892 310.135 270.066 309.918 270.066ZM303.102 268.676C303.059 268.676 303.059 268.676 303.015 268.676C302.234 268.546 301.496 268.416 300.758 268.329C300.497 268.286 300.324 268.025 300.324 267.765C300.367 267.504 300.628 267.287 300.888 267.331C301.669 267.461 302.407 267.548 303.189 267.678C303.449 267.721 303.623 267.982 303.58 268.242C303.536 268.503 303.319 268.676 303.102 268.676ZM296.2 267.678H296.156C295.375 267.591 294.593 267.504 293.855 267.461C293.595 267.417 293.378 267.2 293.421 266.94C293.465 266.679 293.682 266.462 293.942 266.506C294.724 266.593 295.462 266.636 296.243 266.723C296.503 266.766 296.721 266.983 296.677 267.287C296.677 267.504 296.46 267.678 296.2 267.678ZM273.018 267.461C272.757 267.461 272.54 267.287 272.54 267.027C272.497 266.766 272.714 266.506 272.974 266.506C273.625 266.462 274.407 266.376 275.318 266.332C275.579 266.289 275.839 266.506 275.839 266.81C275.839 267.07 275.666 267.331 275.362 267.331C274.494 267.374 273.712 267.461 273.061 267.504C273.061 267.461 273.061 267.461 273.018 267.461ZM289.254 267.157C288.429 267.114 287.691 267.07 286.909 267.07C286.649 267.07 286.432 266.853 286.432 266.549C286.432 266.289 286.649 266.072 286.953 266.072C287.691 266.115 288.472 266.115 289.297 266.159C289.558 266.159 289.775 266.419 289.775 266.679C289.731 266.94 289.514 267.157 289.254 267.157ZM279.964 267.07C279.703 267.07 279.486 266.853 279.486 266.593C279.486 266.332 279.703 266.115 279.964 266.072C280.702 266.072 281.483 266.028 282.308 266.028C282.568 266.028 282.785 266.245 282.785 266.506C282.785 266.766 282.568 266.983 282.308 266.983C281.483 267.027 280.745 267.027 279.964 267.07C280.007 267.07 280.007 267.07 279.964 267.07ZM271.498 265.334C271.455 265.334 271.411 265.334 271.368 265.334C271.107 265.247 270.934 264.986 271.021 264.726C271.194 263.988 271.368 263.207 271.542 262.469C271.585 262.208 271.845 262.034 272.149 262.078C272.41 262.121 272.583 262.382 272.54 262.686C272.366 263.424 272.193 264.205 272.019 264.943C271.932 265.16 271.715 265.334 271.498 265.334ZM272.887 258.518C272.844 258.518 272.844 258.518 272.801 258.518C272.54 258.475 272.366 258.214 272.41 257.954C272.54 257.172 272.627 256.434 272.714 255.653C272.757 255.392 272.974 255.175 273.278 255.219C273.539 255.262 273.756 255.479 273.712 255.783C273.625 256.565 273.495 257.302 273.408 258.084C273.365 258.344 273.148 258.518 272.887 258.518ZM273.625 251.616C273.625 251.616 273.582 251.616 273.625 251.616C273.321 251.616 273.104 251.355 273.148 251.095C273.191 250.313 273.191 249.575 273.235 248.794C273.235 248.533 273.452 248.316 273.712 248.316C273.973 248.316 274.19 248.533 274.19 248.837C274.19 249.619 274.146 250.4 274.103 251.181C274.103 251.398 273.886 251.616 273.625 251.616ZM273.582 244.67C273.321 244.67 273.104 244.453 273.104 244.192C273.061 243.411 273.018 242.673 272.931 241.891C272.887 241.631 273.104 241.37 273.365 241.37C273.625 241.327 273.886 241.544 273.886 241.804C273.973 242.586 274.016 243.367 274.059 244.149C274.103 244.409 273.886 244.626 273.582 244.67C273.625 244.67 273.582 244.67 273.582 244.67ZM272.801 237.767C272.583 237.767 272.366 237.593 272.323 237.376C272.193 236.638 272.063 235.857 271.889 235.119C271.845 234.859 272.019 234.598 272.28 234.555C272.54 234.511 272.801 234.685 272.844 234.945C273.018 235.683 273.148 236.465 273.278 237.246C273.321 237.507 273.148 237.767 272.887 237.811C272.844 237.767 272.801 237.767 272.801 237.767ZM271.238 230.995C271.021 230.995 270.847 230.865 270.76 230.648C270.543 229.91 270.326 229.172 270.066 228.434C269.979 228.173 270.109 227.913 270.369 227.826C270.63 227.739 270.89 227.869 270.977 228.13C271.238 228.868 271.455 229.606 271.672 230.344C271.759 230.604 271.585 230.865 271.325 230.951C271.325 230.995 271.281 230.995 271.238 230.995ZM268.937 224.44C268.763 224.44 268.546 224.309 268.503 224.136C268.199 223.441 267.895 222.703 267.591 222.009C267.461 221.748 267.591 221.488 267.852 221.357C268.112 221.227 268.373 221.357 268.503 221.618C268.807 222.312 269.111 223.051 269.414 223.745C269.501 224.006 269.414 224.266 269.154 224.396C269.067 224.44 268.98 224.44 268.937 224.44ZM265.941 218.145C265.768 218.145 265.594 218.058 265.507 217.884C265.16 217.19 264.769 216.539 264.379 215.888C264.248 215.67 264.335 215.367 264.552 215.193C264.769 215.063 265.073 215.15 265.247 215.367C265.638 216.018 266.028 216.712 266.376 217.407C266.506 217.667 266.419 217.928 266.159 218.058C266.115 218.145 266.028 218.145 265.941 218.145ZM262.382 212.198C262.208 212.198 262.078 212.111 261.991 211.98C261.557 211.329 261.123 210.722 260.689 210.07C260.515 209.853 260.602 209.549 260.819 209.376C261.036 209.202 261.34 209.289 261.513 209.506C261.948 210.157 262.382 210.765 262.816 211.416C262.946 211.633 262.903 211.937 262.686 212.111C262.555 212.154 262.469 212.198 262.382 212.198ZM258.301 206.554C258.171 206.554 257.997 206.511 257.91 206.38C257.433 205.773 256.955 205.165 256.434 204.6C256.261 204.383 256.304 204.079 256.478 203.906C256.695 203.732 256.999 203.776 257.172 203.949C257.65 204.557 258.171 205.165 258.648 205.773C258.822 205.99 258.778 206.294 258.561 206.467C258.518 206.554 258.388 206.554 258.301 206.554ZM253.743 201.301C253.612 201.301 253.482 201.258 253.395 201.127C252.874 200.563 252.354 199.999 251.789 199.434C251.616 199.261 251.616 198.913 251.789 198.74C251.963 198.566 252.31 198.566 252.484 198.74C253.005 199.304 253.569 199.869 254.09 200.433C254.264 200.65 254.264 200.954 254.047 201.127C254.003 201.258 253.873 201.301 253.743 201.301ZM248.837 196.352C248.707 196.352 248.577 196.309 248.49 196.222C247.926 195.701 247.361 195.18 246.797 194.659C246.58 194.485 246.58 194.182 246.753 193.965C246.927 193.747 247.231 193.747 247.448 193.921C248.012 194.442 248.577 194.963 249.141 195.484C249.358 195.658 249.358 195.961 249.141 196.179C249.098 196.309 248.967 196.352 248.837 196.352ZM243.628 191.751C243.497 191.751 243.411 191.707 243.324 191.62C242.716 191.143 242.108 190.622 241.544 190.144C241.327 189.971 241.283 189.667 241.457 189.45C241.631 189.233 241.935 189.189 242.152 189.363C242.759 189.84 243.367 190.318 243.975 190.839C244.192 191.013 244.192 191.316 244.018 191.533C243.932 191.707 243.758 191.751 243.628 191.751ZM238.158 187.453C238.071 187.453 237.941 187.409 237.854 187.366C237.203 186.888 236.595 186.454 235.987 186.02C235.77 185.846 235.727 185.543 235.857 185.326C236.031 185.108 236.335 185.065 236.552 185.195C237.159 185.629 237.811 186.107 238.462 186.541C238.679 186.715 238.722 187.019 238.549 187.236C238.462 187.409 238.288 187.453 238.158 187.453ZM232.427 183.502C232.341 183.502 232.254 183.459 232.167 183.415C231.516 182.981 230.865 182.547 230.213 182.156C229.996 182.026 229.91 181.722 230.04 181.462C230.17 181.245 230.474 181.158 230.734 181.288C231.386 181.679 232.037 182.113 232.688 182.547C232.905 182.677 232.992 182.981 232.818 183.242C232.731 183.415 232.558 183.502 232.427 183.502ZM226.48 179.856C226.393 179.856 226.306 179.856 226.22 179.769C225.525 179.378 224.83 178.987 224.223 178.64C224.006 178.51 223.919 178.206 224.049 177.989C224.179 177.772 224.483 177.685 224.7 177.815C225.351 178.163 226.002 178.553 226.74 178.944C226.958 179.074 227.044 179.378 226.914 179.639C226.827 179.769 226.654 179.856 226.48 179.856ZM220.359 176.513C220.272 176.513 220.229 176.513 220.142 176.47C218.796 175.818 218.058 175.471 218.058 175.471C217.798 175.341 217.711 175.08 217.798 174.82C217.928 174.559 218.188 174.473 218.449 174.559C218.449 174.559 219.23 174.907 220.576 175.558C220.836 175.688 220.923 175.992 220.793 176.209C220.706 176.426 220.533 176.513 220.359 176.513Z" fill="#2D1958"/>
    <path d="M438.504 194.876C438.33 194.876 438.113 194.746 438.07 194.529C434.814 181.549 435.812 167.527 435.812 167.396C435.812 167.179 436.029 166.962 436.29 167.006C436.507 167.006 436.724 167.223 436.681 167.483C436.681 167.613 435.682 181.505 438.938 194.355C438.981 194.572 438.851 194.833 438.634 194.876C438.591 194.876 438.547 194.876 438.504 194.876Z" fill="#2D1958"/>
    <path d="M433.989 166.485C432.73 166.658 434.727 179.986 435.465 180.68C436.203 181.418 457.475 177.251 457.996 176.513C458.517 175.775 446.882 172.432 446.622 172.085C446.361 171.738 456.086 166.572 456.042 165.66C455.999 164.792 437.288 166.051 433.989 166.485Z" fill="url(#paint3_linear)"/>
    <path opacity="0.53" d="M448.141 172.649C443.323 172.866 438.547 172.649 433.772 171.738C434.163 175.601 435.031 180.246 435.465 180.68C436.203 181.418 457.475 177.251 457.996 176.513C458.387 175.949 451.31 173.735 448.141 172.649Z" fill="#FFE65F"/>
    <path d="M436.116 169.697C438.113 169.393 440.11 169.176 442.107 169.089C443.236 169.046 443.192 167.31 442.064 167.353C440.067 167.44 438.07 167.613 436.073 167.961C434.988 168.134 435.031 169.871 436.116 169.697Z" fill="#FFF6C4"/>
    <path d="M445.146 168.959C446.014 168.916 446.839 168.872 447.707 168.742C448.793 168.612 448.792 166.875 447.664 167.006C446.796 167.093 445.971 167.179 445.102 167.223C443.974 167.223 444.017 168.959 445.146 168.959Z" fill="#FFF6C4"/>
    <path d="M217.884 175.037C217.711 175.037 217.537 174.907 217.494 174.733C213.413 162.013 213.456 147.948 213.456 147.818C213.456 147.557 213.674 147.383 213.891 147.383C214.151 147.383 214.325 147.601 214.325 147.818C214.325 147.948 214.281 161.883 218.319 174.473C218.405 174.69 218.275 174.95 218.058 175.037C217.971 175.037 217.928 175.037 217.884 175.037Z" fill="#2D1958"/>
    <path d="M211.546 146.993C210.287 147.253 213.196 160.407 213.977 161.058C214.759 161.709 235.727 156.196 236.161 155.415C236.595 154.633 224.83 152.072 224.526 151.725C224.266 151.377 233.6 145.604 233.469 144.692C233.382 143.824 214.802 146.342 211.546 146.993Z" fill="url(#paint4_linear)"/>
    <path opacity="0.53" d="M226.046 152.202C221.271 152.767 216.452 152.81 211.677 152.246C212.328 156.066 213.5 160.668 213.934 161.058C214.715 161.709 235.683 156.196 236.117 155.415C236.508 154.807 229.302 153.07 226.046 152.202Z" fill="#FFE65F"/>
    <path d="M213.891 150.032C215.844 149.598 217.841 149.25 219.838 149.033C220.967 148.903 220.793 147.166 219.664 147.297C217.667 147.514 215.67 147.818 213.717 148.295C212.632 148.556 212.805 150.292 213.891 150.032Z" fill="#FFF6C4"/>
    <path d="M222.833 148.686C223.702 148.599 224.526 148.469 225.395 148.339C226.48 148.122 226.35 146.385 225.221 146.602C224.396 146.776 223.528 146.906 222.66 146.949C221.531 147.08 221.705 148.816 222.833 148.686Z" fill="#FFF6C4"/>
    <path d="M351.637 98.849C351.463 100.585 349.9 101.888 348.12 101.714C346.384 101.541 345.081 99.9777 345.255 98.1978C345.429 96.4613 346.992 95.1589 348.771 95.3326C350.551 95.5497 351.81 97.1125 351.637 98.849Z" fill="#2D1958"/>
    <path d="M348.25 98.5017C348.077 98.5017 347.947 98.3714 347.903 98.2412C345.993 87.8657 347.469 76.8825 347.469 76.7957C347.512 76.6221 347.643 76.4918 347.86 76.4918C348.033 76.5352 348.164 76.7089 348.164 76.8825C348.164 77.0128 346.688 87.8657 348.598 98.111C348.641 98.2846 348.511 98.4583 348.337 98.5017C348.294 98.5017 348.25 98.5017 348.25 98.5017Z" fill="#2D1958"/>
    <path d="M346.08 75.9275C345.081 76.0143 345.993 86.5634 346.557 87.1711C347.122 87.7789 364.052 85.5649 364.487 85.0005C364.921 84.4362 355.978 81.2237 355.761 80.9632C355.587 80.6594 363.445 77.0996 363.488 76.405C363.488 75.7104 348.685 75.7538 346.08 75.9275Z" fill="url(#paint5_linear)"/>
    <path opacity="0.53" d="M356.889 81.5276C353.113 81.4842 349.336 81.0501 345.646 80.095C345.776 83.1773 346.21 86.8673 346.514 87.2146C347.078 87.8223 364.009 85.6083 364.443 85.044C364.834 84.6098 359.364 82.5261 356.889 81.5276Z" fill="#FFE65F"/>
    <path d="M347.599 78.5756C349.162 78.4454 350.768 78.3585 352.331 78.4019C353.199 78.4454 353.243 77.0562 352.375 77.0128C350.768 76.9693 349.206 77.0128 347.643 77.1864C346.774 77.2732 346.731 78.6624 347.599 78.5756Z" fill="#FFF6C4"/>
    <path d="M354.719 78.4454C355.413 78.4454 356.065 78.4454 356.759 78.4019C357.627 78.3585 357.671 76.9694 356.803 77.0128C356.108 77.0562 355.457 77.0562 354.762 77.0562C353.894 77.0128 353.851 78.4019 354.719 78.4454Z" fill="#FFF6C4"/>
    <path d="M271.107 267.635C270.934 267.635 270.76 267.504 270.717 267.331C266.636 254.611 266.679 240.545 266.679 240.415C266.679 240.198 266.853 239.981 267.114 239.981C267.374 239.981 267.548 240.198 267.548 240.415C267.548 240.545 267.504 254.481 271.542 267.07C271.628 267.287 271.498 267.548 271.281 267.635C271.194 267.635 271.151 267.635 271.107 267.635Z" fill="#2D1958"/>
    <path d="M264.769 239.59C263.51 239.851 266.419 253.005 267.2 253.656C267.982 254.307 288.95 248.794 289.384 248.012C289.818 247.231 278.053 244.67 277.749 244.322C277.489 243.975 286.823 238.201 286.692 237.29C286.606 236.421 268.025 238.939 264.769 239.59Z" fill="url(#paint6_linear)"/>
    <path opacity="0.53" d="M279.312 244.843C274.537 245.408 269.718 245.451 264.943 244.887C265.594 248.707 266.766 253.309 267.2 253.699C267.982 254.35 288.95 248.837 289.384 248.056C289.731 247.405 282.525 245.712 279.312 244.843Z" fill="#FFE65F"/>
    <path d="M267.114 242.673C269.067 242.239 271.064 241.891 273.061 241.674C274.19 241.544 274.016 239.808 272.887 239.938C270.89 240.155 268.893 240.459 266.94 240.936C265.855 241.153 266.028 242.89 267.114 242.673Z" fill="#FFF6C4"/>
    <path d="M276.056 241.327C276.925 241.24 277.749 241.11 278.618 240.98C279.703 240.763 279.573 239.026 278.444 239.243C277.619 239.417 276.751 239.547 275.883 239.59C274.797 239.677 274.928 241.414 276.056 241.327Z" fill="#FFF6C4"/>
    <path d="M364.834 330.321C364.617 330.321 364.443 330.191 364.4 329.974C362.272 316.777 364.443 302.885 364.443 302.755C364.487 302.538 364.704 302.364 364.921 302.407C365.138 302.451 365.311 302.668 365.268 302.885C365.268 303.015 363.097 316.777 365.225 329.844C365.268 330.061 365.094 330.321 364.877 330.321H364.834Z" fill="#2D1958"/>
    <path d="M362.708 301.67C361.449 301.713 362.317 315.171 362.969 315.952C363.663 316.733 385.195 314.433 385.76 313.695C386.324 313 375.037 308.702 374.82 308.312C374.603 307.921 384.718 303.623 384.718 302.711C384.805 301.8 366.051 301.496 362.708 301.67Z" fill="url(#paint7_linear)"/>
    <path opacity="0.53" d="M376.295 309.006C371.476 308.832 366.701 308.181 362.055 306.879C362.142 310.786 362.576 315.474 362.967 315.952C363.662 316.733 385.194 314.433 385.758 313.695C386.236 313.13 379.333 310.352 376.295 309.006Z" fill="#FFE65F"/>
    <path d="M364.573 305.012C366.57 304.882 368.567 304.839 370.608 304.925C371.736 304.969 371.823 303.232 370.694 303.189C368.697 303.102 366.701 303.102 364.66 303.276C363.575 303.363 363.445 305.099 364.573 305.012Z" fill="#FFF6C4"/>
    <path d="M373.603 305.056C374.471 305.099 375.296 305.099 376.164 305.056C377.293 305.012 377.38 303.276 376.251 303.319C375.383 303.363 374.558 303.363 373.69 303.319C372.605 303.232 372.474 304.969 373.603 305.056Z" fill="#FFF6C4"/>
    <path d="M499.932 285.998C499.715 285.998 499.541 285.868 499.498 285.65C497.37 272.453 499.541 258.561 499.541 258.431C499.584 258.214 499.802 258.041 500.019 258.084C500.236 258.127 500.409 258.344 500.366 258.561C500.366 258.692 498.195 272.453 500.322 285.52C500.366 285.737 500.192 285.998 499.975 285.998C500.019 285.998 499.975 285.998 499.932 285.998Z" fill="#2D1958"/>
    <path d="M497.849 257.302C496.59 257.346 497.458 270.804 498.109 271.585C498.804 272.366 520.336 270.066 520.901 269.328C521.465 268.633 510.178 264.335 509.961 263.945C509.744 263.554 519.859 259.256 519.859 258.344C519.902 257.476 501.148 257.172 497.849 257.302Z" fill="url(#paint8_linear)"/>
    <path opacity="0.53" d="M511.393 264.683C506.574 264.509 501.798 263.858 497.153 262.555C497.24 266.462 497.674 271.151 498.065 271.628C498.76 272.41 520.292 270.109 520.856 269.371C521.334 268.807 514.475 266.028 511.393 264.683Z" fill="#FFE65F"/>
    <path d="M499.671 260.689C501.668 260.558 503.665 260.515 505.706 260.602C506.834 260.645 506.921 258.909 505.792 258.865C503.795 258.778 501.798 258.778 499.758 258.952C498.673 259.039 498.586 260.775 499.671 260.689Z" fill="#FFF6C4"/>
    <path d="M508.744 260.689C509.613 260.732 510.437 260.732 511.306 260.689C512.434 260.645 512.521 258.909 511.392 258.952C510.524 258.996 509.699 258.996 508.831 258.952C507.702 258.909 507.616 260.645 508.744 260.689Z" fill="#FFF6C4"/>
    <path d="M503.622 186.498C503.492 186.498 503.405 186.454 503.318 186.367C503.101 186.194 503.057 185.89 503.231 185.673C503.709 185.108 504.186 184.501 504.62 183.85C504.794 183.632 505.098 183.589 505.315 183.719C505.532 183.893 505.575 184.197 505.445 184.414C504.968 185.065 504.49 185.673 504.013 186.281C503.926 186.411 503.795 186.498 503.622 186.498ZM507.529 180.724C507.442 180.724 507.355 180.724 507.268 180.68C507.051 180.55 506.965 180.246 507.095 180.029C507.485 179.378 507.833 178.684 508.18 177.989C508.31 177.728 508.614 177.642 508.831 177.772C509.092 177.902 509.179 178.206 509.048 178.423C508.701 179.118 508.31 179.812 507.963 180.507C507.876 180.637 507.703 180.724 507.529 180.724ZM510.524 174.473C510.481 174.473 510.394 174.473 510.351 174.429C510.09 174.342 509.96 174.038 510.09 173.778C510.394 173.083 510.655 172.345 510.915 171.607C511.002 171.347 511.306 171.217 511.523 171.303C511.783 171.39 511.914 171.694 511.827 171.911C511.566 172.649 511.306 173.387 511.002 174.082C510.915 174.342 510.741 174.473 510.524 174.473ZM512.738 167.874C512.695 167.874 512.652 167.874 512.608 167.874C512.348 167.787 512.174 167.527 512.261 167.266C512.478 166.528 512.652 165.79 512.825 165.052C512.869 164.792 513.172 164.618 513.433 164.705C513.693 164.748 513.867 165.052 513.78 165.313C513.607 166.094 513.39 166.832 513.172 167.57C513.172 167.744 512.955 167.874 512.738 167.874ZM514.301 161.102C514.258 161.102 514.258 161.102 514.214 161.102C513.954 161.058 513.78 160.798 513.824 160.537C513.954 159.799 514.084 159.018 514.214 158.28C514.258 158.019 514.518 157.802 514.779 157.846C515.039 157.889 515.213 158.15 515.213 158.41C515.083 159.192 514.952 159.973 514.822 160.711C514.735 160.928 514.518 161.102 514.301 161.102ZM515.213 154.199H515.169C514.909 154.156 514.692 153.939 514.735 153.678C514.822 152.897 514.866 152.159 514.909 151.377C514.909 151.117 515.126 150.9 515.43 150.9C515.69 150.9 515.907 151.16 515.907 151.421C515.864 152.202 515.777 152.984 515.734 153.765C515.69 154.026 515.473 154.199 515.213 154.199ZM515.56 147.253C515.3 147.253 515.083 147.036 515.083 146.732C515.083 146.255 515.083 145.777 515.083 145.3V144.432C515.083 144.171 515.3 143.954 515.56 143.954C515.821 143.954 516.038 144.171 516.038 144.432V145.3C516.038 145.777 516.038 146.298 516.038 146.776C516.081 147.036 515.864 147.253 515.56 147.253ZM515.43 140.307C515.169 140.307 514.952 140.09 514.952 139.83C514.909 139.048 514.866 138.31 514.779 137.529C514.779 137.269 514.952 137.008 515.213 137.008C515.473 136.965 515.734 137.182 515.734 137.442C515.777 138.224 515.864 139.005 515.907 139.786C515.951 140.047 515.734 140.307 515.43 140.307ZM514.822 133.405C514.562 133.405 514.345 133.231 514.345 132.971C514.258 132.189 514.128 131.451 514.041 130.67C513.997 130.409 514.171 130.149 514.475 130.106C514.735 130.062 514.996 130.236 515.039 130.54C515.169 131.321 515.256 132.103 515.343 132.841C515.386 133.101 515.169 133.361 514.909 133.405C514.822 133.405 514.822 133.405 514.822 133.405ZM513.693 126.502C513.476 126.502 513.259 126.329 513.216 126.112C513.086 125.374 512.912 124.592 512.738 123.854C512.695 123.594 512.869 123.333 513.129 123.246C513.39 123.203 513.65 123.377 513.737 123.637C513.91 124.419 514.041 125.157 514.214 125.938C514.258 126.198 514.084 126.459 513.824 126.502C513.78 126.502 513.737 126.502 513.693 126.502ZM512.131 119.73C511.913 119.73 511.696 119.6 511.653 119.383C511.436 118.645 511.262 117.907 511.045 117.169C510.958 116.908 511.132 116.648 511.393 116.561C511.653 116.474 511.914 116.648 512 116.908C512.217 117.646 512.434 118.384 512.608 119.166C512.695 119.426 512.521 119.687 512.261 119.774C512.217 119.73 512.174 119.73 512.131 119.73ZM510.134 113.088C509.917 113.088 509.743 112.958 509.656 112.741C509.396 112.003 509.135 111.308 508.875 110.57C508.788 110.31 508.918 110.049 509.179 109.919C509.439 109.832 509.7 109.962 509.83 110.223C510.09 110.961 510.351 111.699 510.611 112.437C510.698 112.697 510.568 112.958 510.307 113.045C510.264 113.088 510.177 113.088 510.134 113.088ZM507.703 106.576C507.529 106.576 507.312 106.446 507.268 106.272C506.965 105.578 506.661 104.84 506.357 104.145C506.227 103.885 506.357 103.624 506.617 103.494C506.878 103.364 507.138 103.494 507.268 103.755C507.572 104.449 507.876 105.187 508.18 105.882C508.267 106.142 508.18 106.403 507.92 106.533C507.833 106.576 507.746 106.576 507.703 106.576ZM504.837 100.238C504.664 100.238 504.49 100.151 504.403 99.9777C504.056 99.2831 503.709 98.5885 503.361 97.9373C503.231 97.6769 503.318 97.4164 503.578 97.2861C503.795 97.1559 504.099 97.2427 504.23 97.5032C504.577 98.1978 504.924 98.8924 505.271 99.587C505.402 99.8474 505.271 100.108 505.054 100.238C504.968 100.238 504.881 100.238 504.837 100.238ZM501.538 94.1171C501.364 94.1171 501.191 94.0302 501.104 93.8566C500.713 93.2054 500.323 92.5542 499.932 91.8596C499.802 91.6426 499.845 91.3387 500.105 91.1651C500.323 91.0348 500.626 91.0782 500.8 91.3387C501.191 91.9899 501.625 92.6845 502.016 93.3357C502.146 93.5527 502.059 93.8566 501.842 94.0302C501.668 94.1171 501.581 94.1171 501.538 94.1171ZM497.805 88.2565C497.631 88.2565 497.501 88.1696 497.414 88.0394C496.98 87.3882 496.546 86.7805 496.068 86.1727C495.894 85.9556 495.938 85.6517 496.198 85.4781C496.415 85.3044 496.719 85.3479 496.893 85.6083C497.327 86.2595 497.805 86.8673 498.239 87.5185C498.412 87.7355 498.326 88.0394 498.109 88.213C497.978 88.213 497.891 88.2565 497.805 88.2565ZM493.637 82.6563C493.507 82.6563 493.333 82.6129 493.246 82.4827C492.769 81.8749 492.291 81.2671 491.77 80.7028C491.597 80.4857 491.64 80.1818 491.814 80.0082C492.031 79.8345 492.335 79.878 492.508 80.0516C493.029 80.6594 493.507 81.2671 493.984 81.8749C494.158 82.092 494.115 82.3958 493.898 82.5695C493.854 82.6129 493.767 82.6563 493.637 82.6563ZM489.122 77.4035C488.992 77.4035 488.862 77.3601 488.775 77.2298C488.254 76.6655 487.733 76.1011 487.169 75.5368C486.995 75.3631 486.995 75.0158 487.169 74.8422C487.386 74.6685 487.69 74.6685 487.863 74.8422C488.428 75.4065 488.949 75.9709 489.47 76.5352C489.643 76.7523 489.643 77.0562 489.426 77.2298C489.383 77.3601 489.252 77.4035 489.122 77.4035ZM484.217 72.4545C484.086 72.4545 483.956 72.4111 483.869 72.3243C483.305 71.8033 482.741 71.2824 482.176 70.7614C481.959 70.5878 481.959 70.2839 482.133 70.0669C482.307 69.8498 482.61 69.8498 482.827 70.0234C483.392 70.5444 484 71.0653 484.564 71.5863C484.781 71.7599 484.781 72.0638 484.607 72.2809C484.477 72.4111 484.347 72.4545 484.217 72.4545ZM478.964 67.8963C478.834 67.8963 478.747 67.8528 478.66 67.766C478.052 67.2885 477.444 66.811 476.837 66.3334C476.62 66.1598 476.576 65.8559 476.75 65.6388C476.923 65.4218 477.227 65.3784 477.444 65.552C478.052 66.0295 478.66 66.5071 479.268 66.9846C479.485 67.1583 479.528 67.4621 479.355 67.6792C479.268 67.8094 479.138 67.8963 478.964 67.8963ZM473.407 63.7287C473.32 63.7287 473.19 63.6853 473.147 63.6419C472.539 63.2078 471.888 62.7737 471.237 62.3395C471.019 62.2093 470.933 61.9054 471.106 61.6449C471.237 61.4279 471.584 61.3411 471.801 61.5147C472.452 61.9488 473.103 62.3829 473.711 62.8171C473.928 62.9907 473.971 63.2946 473.841 63.5117C473.711 63.6419 473.581 63.7287 473.407 63.7287ZM467.59 59.9519C467.503 59.9519 467.416 59.9085 467.329 59.865C466.678 59.4743 466.027 59.0836 465.333 58.6929C465.115 58.5627 465.029 58.2588 465.159 58.0417C465.289 57.8247 465.593 57.7379 465.81 57.8681C466.505 58.2588 467.156 58.6495 467.807 59.0402C468.024 59.1705 468.111 59.4743 467.981 59.7348C467.894 59.8651 467.72 59.9519 467.59 59.9519ZM461.469 56.6092C461.382 56.6092 461.295 56.6092 461.252 56.5657C460.557 56.2185 459.863 55.8712 459.168 55.5239C458.908 55.3936 458.821 55.0897 458.951 54.8727C459.081 54.6122 459.385 54.5254 459.602 54.6556C460.297 55.0029 460.991 55.3502 461.686 55.6975C461.946 55.8277 462.033 56.1316 461.903 56.3487C461.816 56.5223 461.642 56.6092 461.469 56.6092ZM455.218 53.6137C455.131 53.6137 455.087 53.6137 455 53.5703C454.306 53.2664 453.611 52.9626 452.873 52.6587C452.613 52.5718 452.526 52.268 452.613 52.0075C452.7 51.747 453.004 51.6602 453.264 51.747C453.959 52.0509 454.697 52.3548 455.391 52.7021C455.652 52.8323 455.738 53.0928 455.652 53.3533C455.565 53.4835 455.391 53.6137 455.218 53.6137ZM448.793 50.8788C448.749 50.8788 448.662 50.8788 448.619 50.8354C447.881 50.5315 447.186 50.271 446.448 50.0105C446.188 49.9237 446.058 49.6198 446.144 49.3594C446.231 49.0989 446.535 48.9687 446.796 49.0555C447.534 49.316 448.228 49.6198 448.966 49.8803C449.227 49.9671 449.357 50.271 449.227 50.5315C449.183 50.792 449.01 50.8788 448.793 50.8788ZM442.281 48.5345C442.237 48.5345 442.194 48.5345 442.107 48.4911C441.369 48.2307 440.631 48.0136 439.893 47.7965C439.633 47.7097 439.502 47.4492 439.589 47.1888C439.676 46.9283 439.937 46.7981 440.197 46.8849C440.935 47.1019 441.673 47.3624 442.411 47.6229C442.671 47.7097 442.802 47.9702 442.715 48.2307C442.671 48.4043 442.498 48.5345 442.281 48.5345ZM435.639 46.4942C435.595 46.4942 435.552 46.4942 435.509 46.4942C434.771 46.2771 434.032 46.1035 433.294 45.8864C433.034 45.7996 432.86 45.5391 432.947 45.2786C433.034 45.0182 433.294 44.8445 433.555 44.9313C434.293 45.105 435.031 45.3221 435.812 45.5391C436.073 45.6259 436.247 45.8864 436.16 46.1469C436.029 46.3639 435.812 46.4942 435.639 46.4942ZM371.476 45.6259C371.259 45.6259 371.085 45.4957 370.998 45.2786C370.912 45.0182 371.042 44.7577 371.302 44.6709C371.346 44.6709 372.127 44.4104 373.56 44.0197C373.82 43.9329 374.081 44.1065 374.167 44.367C374.254 44.6275 374.081 44.8879 373.82 44.9748C372.388 45.3655 371.65 45.6259 371.606 45.6259C371.563 45.6259 371.519 45.6259 371.476 45.6259ZM428.866 44.8011C428.823 44.8011 428.78 44.8011 428.78 44.8011C428.042 44.6275 427.26 44.4538 426.522 44.3236C426.262 44.2802 426.088 44.0197 426.132 43.7592C426.175 43.4988 426.435 43.3251 426.696 43.3685C427.434 43.5422 428.215 43.6724 428.953 43.8461C429.214 43.8895 429.387 44.1499 429.344 44.4538C429.301 44.6709 429.084 44.8011 428.866 44.8011ZM378.205 43.9329C377.988 43.9329 377.771 43.7592 377.727 43.5422C377.684 43.2817 377.857 43.0212 378.118 42.9778C378.813 42.8476 379.594 42.6739 380.419 42.5437C380.679 42.5003 380.94 42.6739 380.983 42.9344C381.027 43.1949 380.853 43.4553 380.592 43.4988C379.768 43.629 379.03 43.8026 378.335 43.9329C378.292 43.9329 378.248 43.9329 378.205 43.9329ZM422.051 43.4988C422.007 43.4988 422.007 43.4988 421.964 43.4988C421.183 43.3685 420.445 43.2383 419.663 43.1515C419.403 43.108 419.186 42.8476 419.229 42.5871C419.272 42.3266 419.533 42.153 419.793 42.153C420.575 42.2832 421.313 42.37 422.094 42.5003C422.355 42.5437 422.528 42.8042 422.485 43.0646C422.485 43.3251 422.268 43.4988 422.051 43.4988ZM385.064 42.8042C384.803 42.8042 384.63 42.6305 384.586 42.37C384.543 42.1096 384.76 41.8491 385.02 41.8057C385.758 41.7189 386.54 41.632 387.321 41.5018C387.582 41.4584 387.842 41.6755 387.886 41.9359C387.929 42.1964 387.712 42.4569 387.451 42.5003C386.67 42.5871 385.889 42.6739 385.151 42.7608C385.107 42.8042 385.107 42.8042 385.064 42.8042ZM415.148 42.5437H415.105C414.323 42.4569 413.585 42.37 412.804 42.3266C412.544 42.2832 412.327 42.0662 412.37 41.8057C412.413 41.5452 412.674 41.3282 412.891 41.3716C413.672 41.4584 414.41 41.5018 415.192 41.5886C415.452 41.632 415.669 41.8491 415.626 42.153C415.626 42.37 415.409 42.5437 415.148 42.5437ZM392.01 42.1096C391.749 42.1096 391.532 41.8925 391.532 41.632C391.532 41.3716 391.706 41.1111 391.966 41.1111C392.704 41.0677 393.486 41.0243 394.311 40.9809C394.571 40.9809 394.832 41.1545 394.832 41.4584C394.832 41.7189 394.658 41.9793 394.354 41.9793C393.573 41.9793 392.791 42.0227 392.01 42.1096ZM408.202 41.9793C407.378 41.9359 406.64 41.8925 405.858 41.8491C405.598 41.8491 405.381 41.5886 405.381 41.3282C405.381 41.0677 405.554 40.8506 405.902 40.8506C406.683 40.894 407.421 40.9375 408.246 40.9809C408.506 40.9809 408.723 41.2413 408.723 41.5018C408.68 41.7623 408.463 41.9793 408.202 41.9793ZM398.956 41.7623C398.695 41.7623 398.478 41.5452 398.478 41.2847C398.478 41.0243 398.695 40.8072 398.956 40.7638C399.65 40.7638 400.345 40.7638 401.039 40.7638H401.256C401.517 40.7638 401.734 40.9809 401.734 41.2413C401.734 41.5018 401.517 41.7189 401.256 41.7189H401.039C400.345 41.7623 399.65 41.7623 398.956 41.7623Z" fill="#2D1958"/>
    <path d="M251.529 63.1209C250.747 63.1209 250.009 63.1209 249.184 63.1209C248.924 63.1209 248.707 62.9039 248.707 62.6C248.707 62.3395 248.924 62.1225 249.184 62.1225C249.966 62.1225 250.747 62.1225 251.485 62.1225C251.746 62.1225 251.963 62.3395 251.963 62.6C252.006 62.9039 251.789 63.1209 251.529 63.1209ZM256.174 63.0775C255.913 63.0775 255.696 62.8605 255.696 62.6C255.696 62.3395 255.913 62.1225 256.174 62.0791C256.955 62.0356 257.737 62.0356 258.475 61.9922C258.735 61.9922 258.996 62.2093 258.996 62.4698C258.996 62.7302 258.778 62.9907 258.518 62.9907C257.737 63.0341 256.999 63.0341 256.174 63.0775ZM244.583 62.9907C244.583 62.9907 244.539 62.9907 244.583 62.9907C243.801 62.9473 243.02 62.9039 242.239 62.8605C241.978 62.8605 241.761 62.6 241.761 62.3395C241.761 62.0791 241.978 61.862 242.282 61.862C243.063 61.9054 243.845 61.9488 244.583 61.9922C244.843 61.9922 245.06 62.2527 245.06 62.5132C245.06 62.7736 244.843 62.9907 244.583 62.9907ZM263.12 62.7302C262.859 62.7302 262.642 62.5132 262.642 62.2961C262.642 62.0356 262.816 61.7752 263.076 61.7752C263.901 61.7318 264.639 61.6449 265.377 61.6015C265.638 61.6015 265.898 61.7752 265.898 62.0356C265.941 62.2961 265.724 62.5566 265.464 62.5566C264.726 62.6 263.988 62.6434 263.12 62.7302ZM237.637 62.5132H237.593C236.812 62.4263 236.074 62.3829 235.293 62.2961C235.032 62.2527 234.815 62.0356 234.859 61.7752C234.902 61.5147 235.119 61.2976 235.379 61.341C236.161 61.4279 236.942 61.5147 237.68 61.5581C237.941 61.6015 238.158 61.8186 238.114 62.0791C238.114 62.2961 237.897 62.5132 237.637 62.5132ZM270.022 61.9922C269.762 61.9922 269.588 61.8186 269.545 61.5581C269.501 61.2976 269.718 61.0372 269.979 60.9938C271.455 60.7767 272.236 60.6465 272.236 60.6465C272.497 60.603 272.757 60.7767 272.801 61.0372C272.844 61.2976 272.67 61.5581 272.41 61.6015C272.41 61.6015 271.585 61.7318 270.109 61.9488C270.066 61.9922 270.066 61.9922 270.022 61.9922ZM230.734 61.7318C230.691 61.7318 230.691 61.7318 230.648 61.7318C229.866 61.6449 229.128 61.5147 228.347 61.3845C228.086 61.341 227.913 61.0806 227.913 60.8201C227.956 60.5596 228.173 60.386 228.477 60.386C229.258 60.5162 229.996 60.603 230.778 60.7333C231.038 60.7767 231.255 61.0372 231.212 61.2976C231.168 61.5581 230.951 61.7318 230.734 61.7318ZM223.832 60.6465C223.788 60.6465 223.788 60.6465 223.745 60.6465C223.007 60.5162 222.226 60.3426 221.444 60.2123C221.184 60.1689 221.01 59.9085 221.054 59.648C221.097 59.3875 221.357 59.2139 221.618 59.2573C222.356 59.4309 223.137 59.5612 223.875 59.6914C224.136 59.7348 224.309 59.9953 224.266 60.2558C224.266 60.4728 224.092 60.6465 223.832 60.6465ZM217.016 59.1705C216.973 59.1705 216.929 59.1705 216.886 59.1705C216.148 58.9968 215.367 58.8232 214.629 58.6061C214.368 58.5193 214.194 58.2588 214.281 57.9983C214.368 57.7379 214.629 57.5642 214.889 57.651C215.627 57.8247 216.365 58.0417 217.146 58.2154C217.407 58.2588 217.581 58.5627 217.494 58.8232C217.45 59.0402 217.277 59.1705 217.016 59.1705ZM210.331 57.3906C210.287 57.3906 210.244 57.3906 210.201 57.3906C209.463 57.1735 208.725 56.9564 207.987 56.696C207.726 56.6091 207.596 56.3487 207.683 56.0882C207.769 55.8277 208.03 55.6975 208.29 55.7843C209.028 56.0014 209.766 56.2619 210.504 56.4355C210.765 56.5223 210.895 56.7828 210.852 57.0433C210.721 57.2603 210.548 57.3906 210.331 57.3906ZM203.689 55.2634C203.645 55.2634 203.559 55.2634 203.515 55.22C202.777 54.9595 202.039 54.699 201.344 54.4386C201.084 54.3517 200.954 54.0478 201.041 53.7874C201.127 53.5269 201.431 53.3967 201.692 53.4835C202.43 53.744 203.124 54.0044 203.862 54.2649C204.123 54.3517 204.253 54.6556 204.166 54.8727C204.079 55.1331 203.906 55.2634 203.689 55.2634ZM197.22 52.7455C197.177 52.7455 197.09 52.7455 197.047 52.7021C196.352 52.3982 195.614 52.0943 194.92 51.7904C194.659 51.6602 194.572 51.3997 194.659 51.1392C194.789 50.8788 195.05 50.792 195.31 50.8788C196.005 51.1827 196.743 51.4865 197.437 51.7904C197.698 51.8773 197.785 52.1811 197.698 52.4416C197.611 52.6153 197.394 52.7455 197.22 52.7455ZM190.882 49.8369C190.795 49.8369 190.752 49.8369 190.665 49.7935C189.971 49.4462 189.276 49.0989 188.581 48.7516C188.321 48.6214 188.234 48.3175 188.364 48.1004C188.495 47.8399 188.798 47.7531 189.016 47.8834C189.71 48.2306 190.405 48.5779 191.056 48.9252C191.316 49.0555 191.403 49.3594 191.273 49.5764C191.273 49.7501 191.099 49.8369 190.882 49.8369ZM184.761 46.5376C184.674 46.5376 184.588 46.5376 184.501 46.4508C183.85 46.0601 183.155 45.6693 182.504 45.2786C182.287 45.1484 182.2 44.8445 182.33 44.584C182.46 44.367 182.764 44.2802 183.025 44.4104C183.676 44.8011 184.327 45.1918 185.022 45.5825C185.239 45.7128 185.326 46.0166 185.195 46.2771C185.108 46.4508 184.935 46.5376 184.761 46.5376ZM178.857 42.8476C178.77 42.8476 178.683 42.8042 178.597 42.7607C177.945 42.3266 177.294 41.8925 176.687 41.4584C176.469 41.2847 176.426 40.9809 176.556 40.7638C176.73 40.5467 177.034 40.5033 177.251 40.6336C177.902 41.0677 178.51 41.5018 179.161 41.9359C179.378 42.0662 179.465 42.4135 179.291 42.6305C179.204 42.7607 179.031 42.8476 178.857 42.8476ZM173.257 38.8103C173.17 38.8103 173.04 38.7668 172.953 38.7234C172.345 38.2459 171.738 37.7684 171.13 37.2908C170.913 37.1172 170.869 36.8133 171.043 36.5963C171.217 36.3792 171.521 36.3358 171.738 36.5094C172.345 36.987 172.953 37.4645 173.561 37.942C173.778 38.1157 173.821 38.4196 173.648 38.6366C173.517 38.7234 173.387 38.8103 173.257 38.8103ZM167.874 34.3388C167.744 34.3388 167.657 34.2954 167.527 34.2086C166.962 33.6877 166.354 33.1667 165.79 32.6458C165.573 32.4721 165.573 32.1682 165.747 31.9512C165.92 31.7341 166.224 31.7341 166.441 31.9078C167.006 32.4287 167.57 32.9497 168.134 33.4706C168.351 33.6442 168.351 33.9481 168.178 34.1652C168.178 34.2954 168.004 34.3388 167.874 34.3388ZM162.838 29.5635C162.708 29.5635 162.578 29.5201 162.491 29.4333C161.97 28.8689 161.406 28.3046 160.885 27.7402C160.711 27.5232 160.711 27.2193 160.885 27.0456C161.102 26.872 161.406 26.872 161.579 27.0456C162.1 27.61 162.621 28.1743 163.185 28.6953C163.359 28.8689 163.359 29.2162 163.185 29.3899C163.099 29.5201 162.968 29.5635 162.838 29.5635ZM158.15 24.4409C158.019 24.4409 157.889 24.3975 157.759 24.2673C157.238 23.7029 156.76 23.0951 156.24 22.4874C156.066 22.2703 156.109 21.9664 156.326 21.7928C156.543 21.6191 156.847 21.6626 157.021 21.8796C157.498 22.4874 158.019 23.0517 158.497 23.6595C158.671 23.8766 158.671 24.1804 158.454 24.3541C158.367 24.3975 158.28 24.4409 158.15 24.4409ZM153.808 19.0144C153.678 19.0144 153.505 18.9276 153.418 18.7974C152.94 18.1896 152.506 17.5384 152.029 16.9307C151.855 16.7136 151.898 16.4097 152.159 16.2361C152.376 16.0624 152.68 16.1058 152.853 16.3663C153.288 16.9741 153.765 17.6252 154.199 18.233C154.373 18.4501 154.329 18.754 154.112 18.9276C153.982 19.0144 153.895 19.0144 153.808 19.0144Z" fill="#2D1958"/>
    <defs>
        <radialGradient id="paint0_radial" cx="0" cy="0" r="1" gradientUnits="userSpaceOnUse" gradientTransform="translate(313.004 313.004) rotate(-5.83146) scale(312.98)">
            <stop stop-color="#CFFFFF"/>
            <stop offset="0.4577" stop-color="#D2FFFF" stop-opacity="0.5881"/>
            <stop offset="0.692" stop-color="#D9FFFF" stop-opacity="0.3772"/>
            <stop offset="0.8751" stop-color="#E7FFFF" stop-opacity="0.2124"/>
            <stop offset="1" stop-color="#F5FFFF" stop-opacity="0.1"/>
        </radialGradient>
        <radialGradient id="paint1_radial" cx="0" cy="0" r="1" gradientUnits="userSpaceOnUse" gradientTransform="translate(313.004 313.004) rotate(-5.83146) scale(266.613)">
            <stop stop-color="#CFFFFF"/>
            <stop offset="0.4577" stop-color="#D2FFFF" stop-opacity="0.5881"/>
            <stop offset="0.692" stop-color="#D9FFFF" stop-opacity="0.3772"/>
            <stop offset="0.8751" stop-color="#E7FFFF" stop-opacity="0.2124"/>
            <stop offset="1" stop-color="#F5FFFF" stop-opacity="0.1"/>
        </radialGradient>
        <linearGradient id="paint2_linear" x1="88.6795" y1="335.915" x2="537.329" y2="290.094" gradientUnits="userSpaceOnUse">
            <stop stop-color="#7949C4"/>
            <stop offset="1" stop-color="#A68CE0"/>
        </linearGradient>
        <linearGradient id="paint3_linear" x1="269.072" y1="177.835" x2="269.289" y2="177.829" gradientUnits="userSpaceOnUse">
            <stop stop-color="#FFE65F"/>
            <stop offset="1" stop-color="#FF642F"/>
        </linearGradient>
        <linearGradient id="paint4_linear" x1="72.5024" y1="166.837" x2="72.7185" y2="166.817" gradientUnits="userSpaceOnUse">
            <stop stop-color="#FFE65F"/>
            <stop offset="1" stop-color="#FF642F"/>
        </linearGradient>
        <linearGradient id="paint5_linear" x1="443.111" y1="84.8742" x2="443.328" y2="84.8821" gradientUnits="userSpaceOnUse">
            <stop stop-color="#FFE65F"/>
            <stop offset="1" stop-color="#FF642F"/>
        </linearGradient>
        <linearGradient id="paint6_linear" x1="81.5298" y1="263.58" x2="81.7459" y2="263.56" gradientUnits="userSpaceOnUse">
            <stop stop-color="#FFE65F"/>
            <stop offset="1" stop-color="#FF642F"/>
        </linearGradient>
        <linearGradient id="paint7_linear" x1="505.401" y1="316.821" x2="505.618" y2="316.833" gradientUnits="userSpaceOnUse">
            <stop stop-color="#FFE65F"/>
            <stop offset="1" stop-color="#FF642F"/>
        </linearGradient>
        <linearGradient id="paint8_linear" x1="508.428" y1="264.799" x2="508.645" y2="264.812" gradientUnits="userSpaceOnUse">
            <stop stop-color="#FFE65F"/>
            <stop offset="1" stop-color="#FF642F"/>
        </linearGradient>
    </defs>
</svg>
